<svg version="1" xmlns="http://www.w3.org/2000/svg" xmlns:xlink="http://www.w3.org/1999/xlink" width="192.667" height="162.666" viewBox="0 0 192.667 162.666"><g><path fill="#fff" d="M97 158.666c-38.047 0-69-30.953-69-69s30.953-69 69-69 69 30.953 69 69-30.953 69-69 69z"/><path fill="#8BB22B" d="M97 21.666c37.556 0 68 30.445 68 68s-30.444 68-68 68-68-30.445-68-68 30.444-68 68-68m0-2c-38.598 0-70 31.402-70 70s31.402 70 70 70 70-31.402 70-70-31.402-70-70-70z"/><path fill="#fff" d="M97 18.666c39.213 0 71 31.788 71 71s-31.787 71-71 71-71-31.788-71-71 31.787-71 71-71m0-2c-40.252 0-73 32.748-73 73s32.748 73 73 73 73-32.748 73-73-32.748-73-73-73z"/></g><defs><path id="a" d="M192 0h-192l27.667 55.666 4 14c-4 14-2.357 27.316-1.824 30.692 5.13 32.476 33.24 57.308 67.157 57.308 27.624 0 51.386-16.48 62.026-40.139.866-1.925 14.953 28.82 15.641 26.806l18-6.667-.667-137.666z"/></defs><clipPath id="b"><use xlink:href="#a" overflow="visible"/></clipPath><g clip-path="url(#b)" fill="#fff" stroke="#8BB22B" stroke-miterlimit="10"><circle cx="155" cy="56.669" r="13.092"/><path d="M171.942 62.759c-.344.956-1.398 1.454-2.355 1.108l-30.419-10.935c-.956-.343-1.453-1.397-1.109-2.354.344-.956 1.398-1.455 2.355-1.111l30.418 10.937c.957.342 1.454 1.398 1.11 2.355zM37.166 98.318c4.146 10.175-.737 21.777-10.911 25.925-10.168 4.144-21.775-.739-25.919-10.911-4.146-10.17.737-21.777 10.906-25.922 10.172-4.145 21.777.738 25.924 10.908zM44.629 93.386c.368.897-.063 1.921-.962 2.286l-51.998 21.192c-.898.368-1.921-.062-2.286-.962-.367-.897.062-1.919.961-2.287l51.999-21.193c.898-.364 1.921.064 2.286.964zM47.28 99.884c.366.899-.065 1.921-.964 2.289l-51.998 21.194c-.9.367-1.921-.063-2.286-.961-.367-.9.062-1.925.963-2.29l51.997-21.192c.898-.368 1.919.063 2.288.96zM81.168 144.197c-2.078 11.691-13.24 19.482-24.932 17.404-11.69-2.078-19.482-13.241-17.404-24.93 2.079-11.693 13.24-19.484 24.931-17.406 11.691 2.078 19.484 13.241 17.405 24.932zM59.313 131.799s9.13-7.626 13.454-2.789c4.317 4.838 4.563 9.692-.418 10.658s-9.646.137-11.058-2.336c-1.409-2.471-3.242-4.649-1.978-5.533zM52.673 142.09c3.474-5.141 12.621 1.875 12.826 4.874.211 2.999-.723 6.163-5.492 3.834-4.767-2.328-9.344-5.73-7.334-8.708zM48.462 132.461c-3.779 1.116-3.13 7.214 1.094 4.266 4.223-2.952.469-4.727-1.094-4.266z"/></g><g clip-path="url(#b)" stroke="#8BB22B" stroke-miterlimit="10"><path fill="#fff" stroke-width="2" d="M89.5 14.768c-33.137 0-54 21.863-54 55 0 21.028 21.197 55.239 21.197 55.239l4.713-2.06c-.392-.511-.6-1.04-.6-1.582 0-4.28 12.844-7.75 28.688-7.75s28.688 3.47 28.688 7.75c0 .563-.229 1.113-.651 1.643l.247.134 4.421 1.931s21.296-34.233 21.296-55.305c.001-33.137-20.862-55-53.999-55z"/><path stroke-width="2" d="M117.75 123.268s15.75-31 15.75-40.75l-9.25-9.25h-69.5s-9.25-.5-9.25 9.25l15.75 40.75" fill="none"/><path stroke-width="2" d="M128.148 86.71c0 1.964-1.755 3.556-3.92 3.556h-69.457c-2.165 0-3.92-1.592-3.92-3.556l-.789-4.889c0-1.964 1.791-3.556 4-3.556h70.875c2.209 0 4 1.592 4 3.556l-.789 4.889zM124.25 73.268h-69.5s-9.25-.5-9.25 9.25c0 2.08.718 5.128 1.846 8.636l.354 1.11c1.243 3.462 1.968 6 6.238 6h24.062c7.417 0 7.167-4.115 11.5-4.115 4.667 0 6 4.115 12 4.115h23.563c4.271 0 4.995-2.538 6.238-6l.592-1.865c.989-3.189 1.606-5.951 1.606-7.881.001-9.75-9.249-9.25-9.249-9.25z" fill="none"/><g fill="#fff"><path d="M97.563 15.172c-2.788 13.971-3.177 30.85-.558 48.688.47 3.199 1.032 6.333 1.663 9.408M80.526 73.268c.631-3.075 1.193-6.209 1.663-9.408 2.612-17.793 2.231-34.631-.538-48.582"/></g><path fill="#fff" stroke-width="2" d="M102.417 61.518c0 1.888-1.529 3.417-3.417 3.417h-19c-1.888 0-3.417-1.529-3.417-3.417 0-1.887 1.529-3.416 3.417-3.416h19c1.888 0 3.417 1.529 3.417 3.416z"/><path stroke-linecap="round" stroke-linejoin="round" fill="none" d="M71.333 78.601l6.834 11.167M92.999 78.601l6.834 11.167M97.999 78.601l6.834 11.167"/><path fill="#fff" stroke-width="2" d="M91.414 127.688c-3.251-10.728-15.665-15.484-25.641-19.307-5.652-2.166-13.898-5.988-14.976-7.986l-.024.012c.958 2.354 1.972 4.719 2.979 6.996 2.687 1.683 6.384 3.103 10.589 4.714 9.161 3.51 20.562 7.878 23.244 16.731 3.427 11.307.889 22.3-3.237 26.902-1.013 1.13-2.611 2.399-4.48 2.052-1.084-.206-2.13.512-2.334 1.598-.203 1.085.512 2.13 1.598 2.334.459.086.918.129 1.376.129 2.421-.001 4.8-1.19 6.818-3.441 4.978-5.552 7.98-17.892 4.088-30.734z"/><g fill="none"><circle cx="111.625" cy="43.141" r="3.375"/><path d="M115.303 43.268h16.947l3.625-3.625"/><circle cx="120.875" cy="51.891" r="3.375"/><path d="M124.553 52.018h17.25"/><circle cx="113" cy="61.141" r="3.375"/><path d="M116.803 60.516h21.25l5.447 11"/></g><circle cx="62.5" cy="34.673" r="3.375" fill="none"/><circle cx="69" cy="46.093" r="3.375" fill="none"/><circle cx="64" cy="60.759" r="3.375" fill="none"/><circle cx="48.667" cy="63.426" r="3.375" fill="none"/><path fill="none" d="M35.667 62.801h9.625"/><path fill="#fff" stroke-width="2" d="M66.667 53.468"/><path fill="none" d="M61.801 58.701l-5.334-5.334h-13.999l-5.667 5.667M65.5 46.192h-22.167l-2.645-2.645M46.333 34.567h12.834"/></g><g clip-path="url(#b)" stroke="#8BB22B" stroke-miterlimit="10"><path fill="#fff" stroke-width="2" stroke-linecap="round" stroke-linejoin="round" d="M133.46 77.718l-8.402 21.889-28.89 43.459 32.616 21.682 42.396-63.776c1.224-1.838.723-4.322-1.116-5.544l-.277-.187c-1.839-1.222-4.321-.723-5.547 1.117l7.982-12.005c1.223-1.839.724-4.324-1.116-5.547l-.277-.184c-1.526-1.015-3.484-.827-4.811.312l1.893-2.85c1.225-1.841.725-4.323-1.116-5.545l-.276-.186c-1.841-1.222-4.322-.725-5.547 1.117l-.877 1.321c.536-1.663-.052-3.541-1.577-4.555l-.276-.184c-1.839-1.225-4.324-.725-5.546 1.115l-16.359 24.31 4.904-12.775c.791-2.063-.236-4.376-2.301-5.167l-.311-.122c-2.063-.789-4.378.24-5.169 2.305z"/><path stroke-width="2" stroke-linecap="round" stroke-linejoin="round" fill="none" d="M160.354 72.458l-16.791 25.263M167.266 77.053l-16.791 25.262M171.879 84.923l-14.577 21.931"/><path stroke-linecap="round" stroke-linejoin="round" fill="none" d="M112.683 153.443l14.3-21.513"/><path fill="#fff" stroke-width="2" stroke-linecap="round" stroke-linejoin="round" d="M129.589 107.242c1.223-1.839 3.704-2.338 5.545-1.115l11.937 7.937c1.842 1.222 2.339 3.707 1.116 5.547l-1.106 1.665c-1.224 1.837-3.706 2.338-5.544 1.116l-11.938-7.936c-1.84-1.225-2.341-3.707-1.118-5.548l1.108-1.666z"/><path stroke-linecap="round" stroke-linejoin="round" fill="none" d="M117.702 157.181l5.997-9.023 6.123-1.231 9.827-14.781M107.293 150.262l10.426-15.682-1.232-6.126 5.12-7.703"/><circle fill="#fff" cx="139.881" cy="132.1" r="3.375"/><path fill="#fff" d="M125.283 128.998c1.03-1.554 3.125-1.975 4.68-.942 1.551 1.031 1.973 3.125.938 4.68-1.03 1.552-3.124 1.974-4.678.939-1.553-1.029-1.974-3.125-.94-4.677z"/><circle fill="#fff" cx="121.701" cy="120.011" r="3.374"/><path fill="#fff" stroke-width="2" stroke-linecap="round" stroke-linejoin="round" d="M139.134 78.103l-14.919 18.089-41.197 32.036 24.041 30.918 60.459-47.013c1.744-1.355 2.059-3.869.701-5.613l-.204-.262c-1.354-1.746-3.869-2.059-5.612-.703l11.381-8.85c1.743-1.355 2.059-3.869.701-5.613l-.203-.262c-1.124-1.447-3.042-1.891-4.66-1.235l2.7-2.1c1.743-1.355 2.058-3.866.702-5.611l-.206-.263c-1.354-1.744-3.866-2.06-5.61-.704l-1.252.975c1.033-1.406 1.074-3.373-.049-4.819l-.205-.263c-1.356-1.745-3.87-2.058-5.612-.703l-23.233 17.856 8.707-10.561c1.406-1.702 1.162-4.221-.54-5.627l-.257-.215c-1.704-1.403-4.226-1.162-5.633.543z"/><path stroke-width="2" stroke-linecap="round" stroke-linejoin="round" fill="none" d="M166.308 81.658l-23.949 18.621M171.398 88.211l-23.945 18.617M173.274 97.138l-20.787 16.164"/><path stroke-linecap="round" stroke-linejoin="round" fill="none" d="M95.382 143.312l20.393-15.859"/><path fill="#fff" stroke-width="2" stroke-linecap="round" stroke-linejoin="round" d="M126.086 104.874c1.744-1.357 4.257-1.043 5.615.701l8.796 11.314c1.355 1.744 1.042 4.257-.702 5.612l-1.578 1.229c-1.743 1.355-4.258 1.041-5.614-.701l-8.797-11.314c-1.356-1.746-1.04-4.258.7-5.615l1.58-1.226z"/><path stroke-linecap="round" stroke-linejoin="round" fill="none" d="M98.957 148.452l8.552-6.65 6.196.774 14.014-10.896M91.283 138.583l14.867-11.56.776-6.198 7.304-5.679"/><path fill="#fff" d="M125.88 129.047c1.472-1.145 3.591-.879 4.734.592 1.146 1.472.879 3.591-.593 4.735-1.473 1.145-3.591.88-4.736-.591-1.144-1.473-.878-3.592.595-4.736z"/><circle fill="#fff" cx="117.166" cy="126.795" r="3.376"/><path fill="#fff" d="M112.479 111.809c1.472-1.143 3.59-.878 4.735.594 1.145 1.471.878 3.593-.592 4.738-1.475 1.143-3.592.876-4.736-.596-1.144-1.47-.878-3.592.593-4.736z"/></g></svg>