<svg version="1" xmlns="http://www.w3.org/2000/svg" xmlns:xlink="http://www.w3.org/1999/xlink" width="192.667" height="164" viewBox="0 0 192.667 164"><g><path fill="#fff" d="M97 160c-38.047 0-69-30.953-69-69s30.953-69 69-69 69 30.953 69 69-30.953 69-69 69z"/><path fill="#8BB22B" d="M97 23c37.556 0 68 30.445 68 68s-30.444 68-68 68-68-30.445-68-68 30.444-68 68-68m0-2c-38.598 0-70 31.402-70 70s31.402 70 70 70 70-31.402 70-70-31.402-70-70-70z"/><path fill="#fff" d="M97 20c39.212 0 71 31.788 71 71s-31.788 71-71 71-71-31.788-71-71 31.788-71 71-71m0-2c-40.252 0-73 32.748-73 73s32.748 73 73 73 73-32.748 73-73-32.748-73-73-73z"/></g><defs><path id="a" d="M192 1.334h-192l16.667 95.666 2.666 3.333c.018 3.522 9.977-2.017 10.51 1.359 5.13 32.476 33.24 57.308 67.157 57.308 27.624 0 51.386-16.48 62.026-40.139.866-1.925 14.953 28.82 15.641 26.806l18-6.667-.667-137.666z"/></defs><clipPath id="b"><use xlink:href="#a" overflow="visible"/></clipPath><g clip-path="url(#b)"><path fill="#fff" d="M46.167 20.5h89v128h-89z"/><path fill="#8BB22B" d="M134.667 21v127h-88v-127h88m1-1h-90v129h90v-129z"/><g fill="#8BB22B"><path d="M121.272 40h-59.21c-.218 0-.395-.224-.395-.5s.177-.5.395-.5h59.211c.218 0 .395.224.395.5s-.178.5-.396.5zM121.272 47h-59.21c-.218 0-.395-.224-.395-.5s.177-.5.395-.5h59.211c.218 0 .395.224.395.5s-.178.5-.396.5zM121.272 54h-59.21c-.218 0-.395-.224-.395-.5s.177-.5.395-.5h59.211c.218 0 .395.224.395.5s-.178.5-.396.5zM121.272 61h-59.21c-.218 0-.395-.224-.395-.5s.177-.5.395-.5h59.211c.218 0 .395.224.395.5s-.178.5-.396.5zM121.272 68h-59.21c-.218 0-.395-.224-.395-.5s.177-.5.395-.5h59.211c.218 0 .395.224.395.5s-.178.5-.396.5zM121.272 75h-59.21c-.218 0-.395-.224-.395-.5s.177-.5.395-.5h59.211c.218 0 .395.224.395.5s-.178.5-.396.5zM121.272 82h-59.21c-.218 0-.395-.224-.395-.5s.177-.5.395-.5h59.211c.218 0 .395.224.395.5s-.178.5-.396.5zM121.272 89h-59.21c-.218 0-.395-.224-.395-.5s.177-.5.395-.5h59.211c.218 0 .395.224.395.5s-.178.5-.396.5zM121.272 96h-59.21c-.218 0-.395-.224-.395-.5s.177-.5.395-.5h59.211c.218 0 .395.224.395.5s-.178.5-.396.5zM121.272 103h-59.21c-.218 0-.395-.224-.395-.5s.177-.5.395-.5h59.211c.218 0 .395.224.395.5s-.178.5-.396.5zM121.272 110h-59.21c-.218 0-.395-.224-.395-.5s.177-.5.395-.5h59.211c.218 0 .395.224.395.5s-.178.5-.396.5zM121.272 117h-59.21c-.218 0-.395-.224-.395-.5s.177-.5.395-.5h59.211c.218 0 .395.224.395.5s-.178.5-.396.5z"/></g><path fill="#fff" d="M141.782 150.379l-85.698 24.003-34.522-123.251 85.698-24.003z"/><path fill="#8BB22B" d="M106.909 27.738l34.255 122.293-84.739 23.736-34.255-122.293 84.739-23.736m.693-1.232l-86.664 24.274 34.794 124.22 86.665-24.275-34.795-124.219z"/><g fill="#8BB22B"><path d="M99.136 49.647l-57.016 15.971c-.211.059-.44-.109-.516-.376-.074-.266.036-.53.245-.589l57.017-15.971c.211-.058.439.11.515.376.074.266-.036.531-.245.589zM101.024 56.386l-57.017 15.971c-.209.059-.44-.107-.516-.374-.073-.268.036-.529.246-.59l57.017-15.971c.21-.059.44.11.514.377.075.265-.034.529-.244.587zM102.913 63.126l-57.018 15.974c-.21.058-.44-.11-.515-.378-.075-.264.036-.527.244-.586l57.018-15.972c.21-.06.44.11.515.376.074.265-.035.528-.244.586zM104.8 69.866l-57.016 15.973c-.211.059-.44-.109-.517-.375-.073-.266.036-.529.247-.588l57.016-15.971c.21-.059.44.109.515.375.075.267-.036.53-.245.586zM106.688 76.608l-57.017 15.971c-.21.06-.44-.107-.515-.375-.075-.266.036-.529.245-.589l57.018-15.97c.208-.059.438.109.514.375.074.267-.035.53-.245.588zM108.576 83.349l-57.016 15.97c-.211.06-.441-.108-.516-.375-.074-.266.035-.529.245-.589l57.017-15.97c.209-.059.44.109.515.375.074.268-.035.531-.245.589zM110.464 90.089l-57.017 15.973c-.21.058-.441-.11-.516-.377-.074-.266.036-.527.246-.587l57.017-15.97c.208-.061.439.109.514.373.077.268-.035.53-.244.588zM112.352 96.829l-57.017 15.972c-.21.06-.44-.109-.515-.374-.074-.267.035-.529.245-.589l57.017-15.97c.209-.06.439.107.515.375.074.266-.036.528-.245.586zM114.241 103.57l-57.017 15.971c-.21.059-.441-.107-.516-.373-.074-.267.035-.53.245-.59l57.017-15.97c.21-.06.44.107.515.375.075.267-.035.528-.244.587zM116.127 110.311l-57.016 15.971c-.21.06-.44-.108-.516-.373-.074-.267.036-.53.246-.591l57.017-15.969c.209-.059.439.109.515.374.076.267-.036.529-.246.588zM118.015 117.054l-57.015 15.968c-.209.059-.44-.109-.515-.374-.074-.267.035-.53.245-.59l57.018-15.97c.209-.06.439.11.515.375.072.267-.036.53-.248.591zM119.905 123.793l-57.018 15.971c-.209.06-.44-.11-.515-.374-.074-.268.035-.531.246-.591l57.017-15.969c.209-.06.439.109.514.375.075.267-.035.529-.244.588z"/></g></g><g clip-path="url(#b)" fill="#fff" stroke="#8BB22B" stroke-width="2" stroke-linecap="round" stroke-linejoin="round" stroke-miterlimit="10"><path d="M66.962 43.468l30.688 141.726-3.411.783-34.1-140.945"/><path d="M54.279 28.421l3.798 16.569c.202.881.606 1.656 1.149 2.303l9.542-2.188c.207-.817.231-1.693.03-2.571l-3.798-16.57c-.053-.231-.124-.453-.204-.67 2.131-1.144 3.329-3.602 2.763-6.071-.678-2.962-3.63-4.812-6.59-4.134l-32.165 7.374c-2.961.678-4.812 3.629-4.132 6.589.677 2.961 3.629 4.811 6.589 4.132l22.931-5.256.087.493zM69.693 46.432c.185.809-.32 1.613-1.128 1.798l-7.797 1.787c-.808.186-1.612-.319-1.797-1.126-.186-.808.319-1.613 1.127-1.798l7.797-1.787c.808-.186 1.613.319 1.798 1.126z"/></g><g clip-path="url(#b)"><path fill="#fff" stroke="#8BB22B" stroke-width="2" stroke-miterlimit="10" d="M171.735 111.363c-.665 1.787-2.536 2.744-4.179 2.134l-98.883-36.743c-1.643-.61-2.435-2.557-1.771-4.345.665-1.79 2.536-2.745 4.178-2.136l98.884 36.744c1.642.61 2.435 2.555 1.771 4.346zM152.862 100.663l26.438-71.15c.998-2.684-.191-5.603-2.655-6.518l-55.757-20.719c-2.464-.915-5.269.519-6.267 3.202l-26.438 71.15 64.679 24.035z"/><path fill="#fff" d="M162.349 73.691l-6.618 17.811-63.743-23.684 6.618-17.811z"/><path fill="#8BB22B" d="M98.903 50.648l62.805 23.336-6.27 16.874-62.804-23.337 6.269-16.873m-.589-1.286l-6.966 18.748 64.679 24.034 6.966-18.749-64.679-24.033z"/></g><g clip-path="url(#b)"><path fill="#fff" stroke="#8BB22B" stroke-width="2" stroke-linecap="round" stroke-linejoin="round" stroke-miterlimit="10" d="M71.109 107.861c.467 2.724 3.051 4.552 5.772 4.084l15.058-1.635-4.539 2.721-1.714 1.028-26.592 15.938c-2.366 1.419-3.136 4.488-1.714 6.857 1.42 2.369 4.488 3.137 6.857 1.718l-4.289 2.569c-2.369 1.423-3.138 4.492-1.719 6.862 1.421 2.369 4.492 3.136 6.859 1.716l4.291-2.571c-2.367 1.422-3.14 4.494-1.72 6.86 1.42 2.368 4.49 3.138 6.859 1.717l10.293-6.167c-2.368 1.419-3.138 4.489-1.718 6.858 1.42 2.368 4.492 3.137 6.858 1.717l16.297-9.77 12.009-7.194 41.17-24.68-2.059-3.432-19.02-31.734-2.06-3.432-32.057 19.216-29.044 4.98c-2.717.469-4.543 3.052-4.078 5.774z"/><path stroke="#8BB22B" stroke-width="2" stroke-miterlimit="10" fill="none" d="M83.956 150.07l18.012-10.796M68.521 147.664l28.304-16.966M63.381 139.085l28.306-16.968"/><path fill="#8BB22B" d="M154.623 118.199l-22.625-37.74.856-.513 22.625 37.74z"/><g fill="#8BB22B"><path d="M119.295 125.382l-.513-.857 10.3-6.158.513.857zM114.664 117.667l-.513-.858 10.297-6.162.513.858zM109.523 109.089l-.513-.858 10.296-6.161.513.858z"/></g><path fill="#fff" stroke="#8BB22B" stroke-width="2" stroke-linecap="round" stroke-linejoin="round" stroke-miterlimit="10" d="M72.631 104.827c1.037 2.56 3.955 3.79 6.513 2.748l14.353-4.831-3.845 3.629-1.454 1.372-22.544 21.281c-2.008 1.896-2.101 5.061-.203 7.066 1.894 2.01 5.06 2.1 7.065.205l-3.634 3.435c-2.01 1.893-2.1 5.058-.205 7.065 1.896 2.009 5.06 2.101 7.069.204l3.636-3.432c-2.009 1.896-2.1 5.059-.205 7.069 1.896 2.007 5.06 2.1 7.069.202l8.726-8.237c-2.008 1.897-2.099 5.06-.203 7.07 1.895 2.007 5.061 2.098 7.068.202l13.816-13.041 10.182-9.612 34.906-32.948-2.746-2.907-25.398-26.906-2.746-2.908-27.18 25.654-27.295 11.107c-2.559 1.04-3.786 3.956-2.745 6.513z"/><path stroke="#8BB22B" stroke-width="2" stroke-miterlimit="10" fill="none" d="M94.246 143.289l15.271-14.412M78.655 144.257l23.997-22.653M71.791 136.984l23.997-22.651"/><path fill="#8BB22B" d="M156.416 96.984l-30.201-31.996.728-.687 30.201 31.996z"/><g fill="#8BB22B"><path d="M123.467 111.595l-.687-.726 8.715-8.246.687.726zM117.276 105.038l-.685-.728 8.741-8.225.685.728zM110.407 97.777l-.686-.727 8.728-8.236.686.727z"/></g></g></svg>