<svg version="1" xmlns="http://www.w3.org/2000/svg" xmlns:xlink="http://www.w3.org/1999/xlink" width="215.333" height="162.666" viewBox="0 0 215.333 162.666"><g><path fill="#fff" d="M119.666 158.666c-38.047 0-69-30.953-69-69s30.953-69 69-69 69 30.953 69 69-30.953 69-69 69z"/><path fill="#8BB22B" d="M119.666 21.666c37.556 0 68 30.445 68 68s-30.444 68-68 68-68-30.445-68-68 30.444-68 68-68m0-2c-38.598 0-70 31.402-70 70s31.402 70 70 70 70-31.402 70-70-31.402-70-70-70z"/><path fill="#fff" d="M119.666 18.666c39.212 0 71 31.788 71 71s-31.788 71-71 71-71-31.788-71-71 31.788-71 71-71m0-2c-40.252 0-73 32.748-73 73s32.748 73 73 73 73-32.748 73-73-32.748-73-73-73z"/></g><defs><path id="a" d="M214.666 0h-192l-22.666 52.334 44 44.498c1.083 18.334 10.644 30.662 16.396 35.521 3.915-1.025 3.814-1.673 5.337-1.521 12.101 16.5 33.207 26.834 53.934 26.834 27.624 0 51.386-16.48 62.026-40.139.866-1.925 14.953 28.82 15.641 26.806l18-6.667-.668-137.666z"/></defs><clipPath id="b"><use xlink:href="#a" overflow="visible"/></clipPath><g clip-path="url(#b)"><path fill="#fff" d="M63.641 23.848l1.598-10.379c.482-3.141 3.237-5.51 6.408-5.51.333 0 .671.026 1.003.078l102.795 15.791c3.539.543 5.977 3.866 5.435 7.409l-1.592 10.382-115.647-17.771z"/><path fill="#8BB22B" d="M71.647 8.459c.305 0 .615.023.927.072l102.796 15.791c3.273.502 5.518 3.562 5.016 6.84l-1.516 9.887-114.659-17.619 1.522-9.885c.454-2.961 3.004-5.086 5.914-5.086m0-1c-3.417 0-6.384 2.552-6.902 5.935l-1.522 9.884-.152.988.989.152 114.659 17.619.989.152.151-.989 1.516-9.887c.584-3.815-2.041-7.396-5.853-7.979l-102.796-15.791c-.356-.056-.72-.084-1.079-.084z"/><path fill="#fff" d="M154.261 168.21c-.33 0-.663-.026-.991-.076l-102.791-15.797c-1.716-.263-3.228-1.178-4.255-2.578-1.026-1.399-1.446-3.114-1.183-4.83l18.751-122.07 115.648 17.772-18.759 122.069c-.483 3.141-3.243 5.51-6.42 5.51z"/><path fill="#8BB22B" d="M64.211 23.43l114.659 17.619-18.683 121.575c-.456 2.962-3.012 5.085-5.926 5.085-.302 0-.608-.022-.916-.069l-102.79-15.797c-3.278-.501-5.523-3.565-5.02-6.838l18.676-121.575m-.836-1.141l-.152.988-18.676 121.577c-.284 1.847.168 3.694 1.274 5.201 1.106 1.508 2.734 2.494 4.583 2.776l102.79 15.797c.354.054.713.081 1.067.081 3.421 0 6.394-2.551 6.914-5.933l18.683-121.575.152-.989-.988-.151-114.659-17.62-.988-.152z"/><path fill="#fff" stroke="#8BB22B" stroke-miterlimit="10" d="M77.895 16.678c-.271 1.776-1.929 2.994-3.706 2.719-1.771-.271-2.988-1.931-2.715-3.704.268-1.771 1.93-2.993 3.703-2.72 1.775.272 2.992 1.932 2.718 3.705zM87.779 18.2c-.271 1.772-1.929 2.992-3.703 2.715-1.775-.271-2.993-1.929-2.718-3.702.271-1.775 1.933-2.992 3.707-2.721 1.773.275 2.99 1.935 2.714 3.708zM97.662 19.72c-.269 1.77-1.931 2.99-3.701 2.718-1.777-.274-2.992-1.932-2.721-3.709.275-1.772 1.928-2.99 3.705-2.717 1.776.271 2.993 1.93 2.717 3.708z"/><path fill="#fff" d="M42.604 29.911c-.261-1.85.215-3.691 1.341-5.185 1.125-1.493 2.765-2.459 4.617-2.717l102.987-14.464c.325-.046.656-.069.982-.069 3.46 0 6.438 2.59 6.925 6.024l1.531 10.898-116.857 16.411-1.526-10.898z"/><path fill="#8BB22B" d="M152.531 8.476c2.944 0 5.51 2.171 5.935 5.165l1.392 9.906-114.876 16.132-1.388-9.906c-.463-3.279 1.825-6.315 5.106-6.773l102.988-14.465c.284-.04.565-.059.843-.059m0-2c-.373 0-.75.026-1.122.079l-102.988 14.465c-2.114.295-3.989 1.398-5.275 3.105s-1.831 3.812-1.532 5.927l1.388 9.904.277 1.981 1.981-.278 114.876-16.132 1.98-.278-.278-1.98-1.392-9.906c-.557-3.927-3.959-6.887-7.915-6.887z"/><path fill="#fff" d="M68.2 167.555c-3.466 0-6.442-2.591-6.922-6.025l-17.248-122.795 116.856-16.408 17.242 122.791c.538 3.82-2.135 7.368-5.958 7.908l-102.989 14.46c-.325.046-.655.069-.981.069z"/><path fill="#8BB22B" d="M160.035 23.456l17.103 121.801c.462 3.283-1.825 6.315-5.107 6.779l-102.988 14.46c-.283.04-.564.059-.843.059-2.945 0-5.513-2.167-5.932-5.164l-17.108-121.804 114.875-16.131m1.703-2.259l-1.981.278-114.876 16.131-1.98.278.278 1.98 17.108 121.804c.548 3.925 3.95 6.886 7.913 6.886.373 0 .75-.025 1.121-.078l102.989-14.46c4.37-.617 7.424-4.672 6.81-9.038l-17.104-121.8-.278-1.981z"/><path fill="#fff" stroke="#8BB22B" stroke-width="2" stroke-miterlimit="10" d="M56.142 29.272c.25 1.777-.985 3.425-2.765 3.668-1.775.251-3.421-.986-3.669-2.764-.251-1.774.986-3.42 2.765-3.672 1.777-.247 3.421.989 3.669 2.768zM66.047 27.884c.247 1.78-.987 3.421-2.767 3.669-1.775.249-3.421-.987-3.67-2.768-.249-1.776.988-3.419 2.768-3.67 1.777-.249 3.421.99 3.669 2.769zM75.949 26.492c.25 1.777-.988 3.422-2.765 3.67-1.78.249-3.42-.986-3.671-2.769-.247-1.777.988-3.416 2.765-3.669 1.782-.247 3.422.992 3.671 2.768z"/><g stroke="#8BB22B" stroke-miterlimit="10" fill="none"><path d="M50.968 44.073l48.08-6.897 9.277 64.673-48.08 6.897zM104.981 36.331l48.084-6.898 4.354 30.355-48.084 6.898zM110.093 71.966l48.082-6.893 4.068 28.375-48.082 6.893zM60.998 114.03l48.08-6.897 3.029 21.117-48.08 6.897zM64.708 140.471l48.082-6.897 2.765 19.272-48.082 6.897zM165.774 120.425l-48.077 6.892-3.032-21.112 48.083-6.898zM118.372 132.667l48.08-6.897 2.765 19.277-48.08 6.897z"/></g></g><g clip-path="url(#b)"><g fill="#fff" stroke="#8BB22B" stroke-miterlimit="10"><path stroke-width="2" d="M80.824 46.429c-26.495 7.765-41.681 35.541-33.916 62.038 2.631 8.975 6.968 17.084 13.362 23.012l83.029-24.6c2.184-8.44 2.193-17.559-.437-26.533-7.764-26.498-35.541-41.684-62.038-33.917z"/><path d="M82.334 51.581c-23.65 6.932-37.205 31.724-30.273 55.376 1.957 6.676 5.336 12.547 9.712 17.379l77.143-22.608c1.075-6.429.751-13.196-1.205-19.872-6.932-23.653-31.725-37.207-55.377-30.275z"/></g><g fill="#fff" stroke="#8BB22B" stroke-linecap="round" stroke-linejoin="round" stroke-miterlimit="10"><path stroke-width="2" d="M103.462 93.295l-16.664-3.515 15.767-33.502z"/><circle stroke-width="2" cx="94.57" cy="94.19" r="13.058"/><path d="M104.487 96.285c-1.156 5.474-6.534 8.977-12.011 7.819-5.473-1.152-8.978-6.527-7.823-12.007 1.157-5.476 6.534-8.98 12.011-7.824 5.474 1.154 8.977 6.53 7.823 12.012z"/></g><g fill="#8BB22B"><path d="M98.61 99.179l.298 1.022-2.675.783c-2.341.687-4.805-.66-5.489-3.001l-1.603-5.465c-.687-2.342.661-4.803 3.001-5.488 2.341-.686 4.806.657 5.492 3l1.786 6.091c.253.869-.247 1.782-1.111 2.034-.492.144-.989.06-1.445-.411-.211.667-.662 1.029-1.23 1.195-1.18.346-2.4-.325-2.744-1.496l-1.626-5.547c-.344-1.179.223-2.373 1.244-2.672.609-.18 1.26 0 1.741.408l-.042-.798.709-.206 2.378 8.114c.088.302.419.479.714.393.293-.086.476-.414.388-.714l-1.786-6.092c-.523-1.785-2.38-2.803-4.167-2.279-1.789.524-2.803 2.384-2.281 4.17l1.603 5.465c.523 1.786 2.379 2.802 4.168 2.277l2.677-.783zm-4.122-8.227c-.18-.612-.815-.96-1.424-.782-.608.18-.957.814-.777 1.429l1.626 5.545c.177.604.813.954 1.421.776.611-.179.958-.816.78-1.421l-1.626-5.547zM96.152 100.705c-2.186.64-4.485-.621-5.126-2.805l-1.601-5.465c-.64-2.183.617-4.486 2.801-5.127 2.183-.641 4.485.62 5.124 2.805l1.786 6.092c.208.71-.201 1.464-.908 1.673-.432.126-.81.015-1.157-.334l-.336-.346-.146.464c-.167.512-.507.845-1.036.998-1.016.298-2.086-.29-2.381-1.298l-1.626-5.548c-.298-1.014.175-2.049 1.049-2.305.494-.146 1.044-.016 1.471.35l.516.444-.064-1.253.205-.061 2.296 7.836c.132.45.625.719 1.075.587.449-.131.719-.624.587-1.073l-1.786-6.092c-.567-1.937-2.601-3.041-4.532-2.475-1.931.565-3.046 2.594-2.479 4.529l1.601 5.464c.568 1.935 2.601 3.041 4.532 2.476l2.394-.701.136.464-2.395.701zm-3.168-10.808c-.759.223-1.2 1.018-.977 1.781l1.627 5.547c.222.762 1.022 1.194 1.782.972.76-.223 1.2-1.019.977-1.779l-1.626-5.548c-.223-.764-1.023-1.195-1.783-.973z"/></g><defs><path id="c" d="M10.822 41.812l121.069-35.478 23.817 81.277-121.069 35.478z"/></defs><clipPath id="d"><use xlink:href="#c" overflow="visible"/></clipPath><g clip-path="url(#d)"><defs><path id="e" d="M55.775 72.961c-11.821 21.624-3.875 48.74 17.751 60.563 21.625 11.823 48.742 3.877 60.563-17.749 11.824-21.625 3.877-48.74-17.749-60.563-21.626-11.824-48.741-3.877-60.565 17.749zm73.187 40.012c-10.273 18.792-33.838 25.698-52.632 15.424-18.794-10.276-25.7-33.839-15.426-52.632 10.275-18.794 33.839-25.7 52.633-15.427 18.794 10.275 25.7 33.841 15.425 52.635z"/></defs><clipPath id="f"><use xlink:href="#e" overflow="visible"/></clipPath><g clip-path="url(#f)" stroke="#8BB22B" stroke-linecap="round" stroke-linejoin="round" stroke-miterlimit="10" fill="none"><path d="M55.31 72.707l12.119 6.625M122.298 109.329l12.119 6.626M73.239 133.883l6.626-12.12M109.861 66.896l6.626-12.121"/></g><g clip-path="url(#f)" stroke="#8BB22B" stroke-linecap="round" stroke-linejoin="round" stroke-miterlimit="10" fill="none"><path d="M66.271 59.48l8.761 10.679M114.693 118.504l8.761 10.678M60.013 122.922l10.677-8.761M119.035 74.5l10.678-8.762"/></g><g clip-path="url(#f)" stroke="#8BB22B" stroke-linecap="round" stroke-linejoin="round" stroke-miterlimit="10" fill="none"><path d="M99.017 49.444l-1.273 13.754M91.979 125.463l-1.272 13.755M49.977 90.176l13.753 1.273M125.995 97.212l13.755 1.272"/></g><g clip-path="url(#f)" stroke="#8BB22B" stroke-width="2" stroke-linecap="round" stroke-linejoin="round" stroke-miterlimit="10" fill="none"><path d="M82.185 51.072l3.884 13.255M103.656 124.334l3.884 13.256M51.604 107.008l13.255-3.885M124.867 85.536l13.255-3.885"/></g></g><defs><path id="g" d="M96.333 50.666l-15.4 36-8.966 24-12.286 3.654-12.548-44.654z"/></defs><clipPath id="h"><use xlink:href="#g" overflow="visible"/></clipPath><path clip-path="url(#h)" fill="#fff" stroke="#8BB22B" stroke-width="2" stroke-linecap="round" stroke-linejoin="round" stroke-miterlimit="10" d="M64.921 110.673c-5.5-18.77 5.256-38.444 24.023-43.944 14.139-4.143 28.79.941 37.51 11.725-7.271-15.588-25.028-23.958-42.041-18.973-18.768 5.5-29.524 25.175-24.023 43.944 1.363 4.65 3.597 8.808 6.47 12.348-.76-1.627-1.418-3.324-1.939-5.1z"/><path clip-path="url(#h)" stroke="#8BB22B" stroke-width="2" stroke-linecap="round" stroke-linejoin="round" stroke-miterlimit="10" fill="none" d="M92.033 58.262l-3.7 8.404"/></g><g clip-path="url(#b)"><path stroke="#8BB22B" stroke-linecap="round" stroke-linejoin="round" stroke-miterlimit="10" d="M139.206 172.116c.202.617-.137 1.283-.755 1.483-.618.202-1.283-.136-1.484-.752l-4.342-13.316c-.2-.619.135-1.281.754-1.485.619-.199 1.284.138 1.485.756l4.342 13.314zM134.217 159.955c.482-.436.519-1.182.082-1.664-.437-.48-1.182-.517-1.663-.081l-10.38 9.401c-.481.438-.518 1.181-.083 1.663.438.481 1.183.52 1.665.083l10.379-9.402z" fill="none"/><path fill="#fff" d="M130.687 172.54c-.188 0-.377-.025-.56-.073-1.161-.311-1.853-1.506-1.546-2.665l10.221-38.453c.253-.953 1.118-1.619 2.104-1.619.188 0 .377.025.56.073 1.16.311 1.853 1.506 1.545 2.665l-10.22 38.451c-.253.954-1.118 1.621-2.104 1.621z"/><path fill="#8BB22B" d="M140.906 130.729c.1 0 .202.013.303.04.629.168 1.002.813.835 1.441l-10.22 38.451c-.14.528-.617.878-1.138.878-.1 0-.202-.013-.303-.04-.628-.168-1.002-.813-.835-1.442l10.221-38.452c.14-.527.616-.876 1.137-.876m0-2c-1.438 0-2.701.972-3.07 2.362l-10.221 38.452c-.449 1.692.562 3.437 2.252 3.888.27.072.545.108.82.108 1.439 0 2.702-.973 3.071-2.365l10.22-38.45c.449-1.692-.562-3.436-2.252-3.888-.27-.07-.545-.107-.82-.107z"/><path fill="#fff" stroke="#8BB22B" stroke-width="2" stroke-linecap="round" stroke-linejoin="round" stroke-miterlimit="10" d="M124.043 63.372l68.3 18.156-16.004 60.205-68.3-18.156zM198.035 83.58c-.668 2.514-3.25 4.011-5.764 3.343l-70.834-18.826c-2.514-.669-4.011-3.249-3.343-5.764l.941-3.542c.668-2.515 3.249-4.013 5.763-3.344l70.834 18.825c2.514.669 4.01 3.251 3.343 5.765l-.94 3.543zM180.161 143.696c-.204.769-.992 1.227-1.761 1.021l-73.617-19.565c-.768-.204-1.226-.992-1.021-1.761.203-.769.992-1.226 1.761-1.022l73.617 19.566c.769.205 1.225.994 1.021 1.761z"/><path stroke="#8BB22B" stroke-linecap="round" stroke-linejoin="round" stroke-miterlimit="10" fill="none" d="M117.043 116.223l54.137 14.388"/><g fill="#fff" stroke="#8BB22B" stroke-linecap="round" stroke-linejoin="round" stroke-miterlimit="10"><path d="M174.448 91.089l5.061 1.344-10.008 37.695-5.061-1.344zM166.904 99.112l5.059 1.344-7.526 28.335-5.059-1.344zM157.815 112.942l5.059 1.345-3.498 13.154-5.059-1.345zM151.427 116.13l5.059 1.345-2.286 8.6-5.059-1.345zM147.107 112.003l5.059 1.345-3.026 11.382-5.059-1.345zM125.93 109.344l5.059 1.345-2.287 8.599-5.059-1.345zM121.608 105.221l5.059 1.344-3.024 11.385-5.059-1.344zM140.434 116.729l5.059 1.345-1.412 5.311-5.059-1.345zM135.27 115.757l5.061 1.345-1.311 4.933-5.061-1.345zM129.619 116.012l5.06 1.343-.873 3.29-5.06-1.343z"/></g><path stroke="#8BB22B" stroke-linecap="round" stroke-linejoin="round" stroke-miterlimit="10" fill="none" d="M118.917 58.218l80.193 21.312"/></g></svg>