<svg version="1" xmlns="http://www.w3.org/2000/svg" xmlns:xlink="http://www.w3.org/1999/xlink" width="215.333" height="162.666" viewBox="0 0 215.333 162.666"><g><path fill="#fff" d="M119.666 158.666c-38.047 0-69-30.953-69-69s30.953-69 69-69 69 30.953 69 69-30.953 69-69 69z"/><path fill="#8BB22B" d="M119.666 21.666c37.556 0 68 30.445 68 68s-30.444 68-68 68-68-30.445-68-68 30.444-68 68-68m0-2c-38.599 0-70 31.402-70 70s31.401 70 70 70 70-31.402 70-70-31.401-70-70-70z"/><path fill="#fff" d="M119.666 18.666c39.213 0 71 31.788 71 71s-31.787 71-71 71-71-31.788-71-71 31.787-71 71-71m0-2c-40.252 0-73 32.748-73 73s32.748 73 73 73 73-32.748 73-73-32.748-73-73-73z"/></g><defs><path id="a" d="M214.666 0h-192l-22.666 52.334 36.666 20c-4 14 15.31 24.648 15.843 28.024 5.13 32.476 33.24 57.308 67.157 57.308 27.624 0 51.386-16.48 62.026-40.139.866-1.925 14.953 28.82 15.641 26.806l18-6.667-.667-137.666z"/></defs><clipPath id="b"><use xlink:href="#a" overflow="visible"/></clipPath><g clip-path="url(#b)"><path fill="#fff" d="M49.848 22.176c-.104-1.731.473-3.4 1.625-4.698s2.743-2.068 4.478-2.17l103.816-6.176.392-.012c3.43 0 6.276 2.687 6.48 6.116l.626 10.482-116.798 6.94-.619-10.482z"/><path fill="#8BB22B" d="M160.158 9.62c3.149 0 5.791 2.458 5.981 5.646l.596 9.983-115.798 6.882-.59-9.984c-.199-3.306 2.322-6.146 5.633-6.34l103.816-6.176.362-.011m0-1l-.422.013-103.816 6.176c-1.867.109-3.579.939-4.821 2.338-1.241 1.397-1.862 3.194-1.75 5.061l.59 9.982.059.999.999-.06 115.799-6.882.998-.06-.06-.998-.596-9.983c-.22-3.693-3.286-6.586-6.98-6.586z"/><path fill="#fff" d="M64.222 161.058c-3.432 0-6.279-2.686-6.481-6.113l-7.333-123.284 116.797-6.94 7.326 123.282c.214 3.574-2.523 6.658-6.102 6.872l-103.815 6.171-.392.012z"/><path fill="#8BB22B" d="M166.735 25.249l7.297 122.783c.197 3.305-2.324 6.146-5.633 6.344l-103.814 6.171-.363.011c-3.152 0-5.794-2.458-5.982-5.643l-7.303-122.784 115.798-6.882m.939-1.058l-.998.06-115.799 6.882-.998.059.06.999 7.303 122.784c.218 3.691 3.284 6.583 6.98 6.583l.423-.013 103.814-6.171c3.854-.23 6.802-3.551 6.571-7.401l-7.297-122.783-.059-.999z"/><path fill="#fff" stroke="#8BB22B" stroke-miterlimit="10" d="M62.896 22.654c.107 1.793-1.258 3.331-3.051 3.436-1.789.105-3.33-1.258-3.436-3.051-.109-1.787 1.26-3.33 3.049-3.437 1.793-.106 3.332 1.261 3.438 3.052z"/><circle fill="#fff" stroke="#8BB22B" stroke-miterlimit="10" cx="69.635" cy="22.255" r="3.249"/><path fill="#fff" stroke="#8BB22B" stroke-miterlimit="10" d="M82.858 21.471c.109 1.788-1.258 3.328-3.047 3.436-1.793.105-3.33-1.26-3.439-3.055-.104-1.791 1.258-3.326 3.051-3.434 1.795-.108 3.332 1.258 3.435 3.053z"/><path fill="#fff" d="M73.551 21.577l2.869-10.625c.82-3.048 3.598-5.177 6.753-5.177.614 0 1.229.082 1.827.243l100.411 27.082c3.724 1.005 5.938 4.854 4.936 8.582l-2.864 10.623-113.932-30.728z"/><path fill="#8BB22B" d="M83.173 6.775c.518 0 1.043.067 1.566.209l100.411 27.081c3.201.863 5.091 4.156 4.23 7.356l-2.604 9.657-112-30.207 2.608-9.659c.721-2.673 3.143-4.437 5.789-4.437m0-2c-3.607 0-6.781 2.434-7.719 5.918l-2.607 9.657-.521 1.932 1.932.521 112 30.207 1.931.521.521-1.932 2.604-9.657c1.146-4.261-1.385-8.66-5.641-9.808l-100.413-27.08c-.683-.185-1.385-.279-2.087-.279z"/><path fill="#fff" d="M149.155 175.257c-.613 0-1.228-.082-1.824-.242l-100.41-27.083c-1.807-.488-3.314-1.648-4.247-3.269-.932-1.62-1.177-3.506-.689-5.311l32.287-119.721 113.931 30.728-32.29 119.72c-.822 3.048-3.6 5.178-6.758 5.178z"/><path fill="#8BB22B" d="M74.978 20.856l112 30.207-32.03 118.754c-.722 2.677-3.145 4.439-5.792 4.439-.517 0-1.042-.067-1.564-.208l-100.41-27.082c-3.202-.864-5.096-4.155-4.231-7.353l32.027-118.757m-1.411-2.452l-.521 1.932-32.026 118.757c-.558 2.062-.277 4.217.788 6.069 1.065 1.852 2.789 3.178 4.853 3.734l100.41 27.083c.683.185 1.384.277 2.085.277 3.608 0 6.784-2.435 7.723-5.919l32.03-118.754.521-1.931-1.932-.521-112-30.207-1.931-.52z"/><path fill="#fff" stroke="#8BB22B" stroke-width="2" stroke-miterlimit="10" d="M89.125 15.675c-.467 1.735-2.25 2.763-3.982 2.291-1.731-.465-2.76-2.25-2.293-3.982.466-1.731 2.251-2.759 3.983-2.291 1.734.466 2.761 2.249 2.292 3.982zM98.78 18.281c-.47 1.733-2.248 2.76-3.983 2.291-1.731-.468-2.76-2.252-2.29-3.986.467-1.73 2.249-2.757 3.984-2.288 1.733.466 2.758 2.251 2.289 3.983zM108.435 20.885c-.468 1.733-2.25 2.758-3.981 2.292-1.734-.47-2.76-2.251-2.293-3.984.471-1.732 2.249-2.757 3.983-2.292 1.735.467 2.759 2.251 2.291 3.984z"/><g stroke="#8BB22B" stroke-miterlimit="10" fill="none"><path d="M78.562 27.261l46.934 12.512-16.83 63.132-46.934-12.512zM131.287 41.312l46.939 12.508-7.896 29.633-46.939-12.508zM122.018 76.106l46.934 12.512-7.384 27.699-46.934-12.512zM60.362 95.543l46.933 12.507-5.493 20.612-46.933-12.507zM53.4 121.324l46.936 12.508-5.014 18.814-46.936-12.508zM112.798 109.4l46.934 12.512-5.495 20.612-46.934-12.512zM105.835 135.186l46.935 12.507-5.014 18.814-46.935-12.507z"/></g></g><g clip-path="url(#b)" stroke="#8BB22B" stroke-miterlimit="10"><path fill="#fff" stroke-width="2" stroke-linecap="round" stroke-linejoin="round" d="M133.396 26.873l-56.156 85.244c-1.822 2.769-1.059 6.489 1.711 8.313l22.825 15.037c2.765 1.82 6.487 1.059 8.312-1.711l56.155-85.246-32.847-21.637z"/><path fill="#fff" stroke-width="2" d="M117.763 122.244l-32.777-21.595 16.368-24.844 32.777 21.595z"/><path fill="#fff" stroke-width="2" stroke-linecap="round" stroke-linejoin="round" d="M166.296 48.427l4.006-45.56-36.923 23.877z"/><path fill="none" d="M120.265 118.456l-32.778-21.594M131.817 100.915l-32.777-21.59M123.899 90.668l32.321-49.061M110.746 82.005l32.319-49.063"/><path stroke-width="2" fill="none" d="M169.396 17.06l-10.228-6.741"/></g><g clip-path="url(#b)" fill="#fff" stroke="#8BB22B" stroke-miterlimit="10"><path stroke-width="2" d="M89.467 147.802c.396 1.893-.815 3.748-2.71 4.143-1.891.396-3.745-.814-4.142-2.708l-5.872-27.192c-.396-1.893.816-3.749 2.707-4.146 1.894-.396 3.75.816 4.145 2.71l5.872 27.193zM102.989 118.783c.678 3.244-1.926 6.532-5.82 7.347l-32.887 6.888c-3.889.814-7.598-1.154-8.275-4.398l-12.032-78.895c-.678-3.244 1.403-6.424 4.646-7.104l27.404-5.736c3.242-.681 6.425 1.399 7.103 4.642l19.861 77.256z"/><path d="M80.96 105.579c.452 2.162-.936 4.281-3.097 4.735l-.733.152c-2.163.452-4.283-.933-4.734-3.096l-9.941-47.472c-.452-2.16.934-4.28 3.095-4.733l.735-.153c2.16-.453 4.281.933 4.735 3.095l9.94 47.472z"/></g><g clip-path="url(#b)"><path fill="#fff" stroke="#8BB22B" stroke-width="2" stroke-miterlimit="10" d="M165.135 133.555c-1.099 3.852-5.114 6.086-8.968 4.986l-5.814-1.658c-3.854-1.101-6.087-5.115-4.988-8.969l5.529-19.383c1.099-3.852 5.114-6.086 8.969-4.986l5.813 1.66c3.854 1.098 6.086 5.113 4.987 8.967l-5.528 19.383z"/><ellipse transform="matrix(.962 .274 -.274 .962 34.061 -41.172)" fill="#fff" stroke="#8BB22B" stroke-width="2" stroke-miterlimit="10" cx="164.239" cy="101.196" rx="35.375" ry="12.125"/><path fill="#fff" d="M194.261 80.254c-.064 13.285 7.324 20.807 4.27 28.775-3.052 7.967-67.897-18.068-67.897-18.068s21.436-42.107 56.095-39.895c17.616 1.127 7.562 22.697 7.532 29.188z"/><defs><path id="c" d="M194.261 80.254c-.064 13.285 7.324 20.807 4.27 28.775-3.052 7.967-67.897-18.068-67.897-18.068s21.436-42.107 56.095-39.895c17.616 1.127 7.562 22.697 7.532 29.188z"/></defs><clipPath id="d"><use xlink:href="#c" overflow="visible"/></clipPath><g clip-path="url(#d)" fill="#fff" stroke="#8BB22B" stroke-miterlimit="10"><circle stroke-width="2" cx="164.735" cy="96.268" r="12"/><circle cx="188.489" cy="74.967" r="9.25"/><circle cx="153.357" cy="69.625" r="6.999"/></g><path stroke="#8BB22B" stroke-width="2" stroke-miterlimit="10" d="M194.261 80.254c-.064 13.285 7.324 20.807 4.27 28.775-3.052 7.967-67.897-18.068-67.897-18.068s21.436-42.107 56.095-39.895c17.616 1.127 7.562 22.697 7.532 29.188z" fill="none"/><g fill="#fff" stroke="#8BB22B" stroke-miterlimit="10"><path d="M137.296 93.12l5.053 12.361M150.965 98.061l-1.438 10.507M193.277 110.13l-13.493 6.29M180.776 108.384l-8.65 6.63M164.635 102.999l-4.941 10.028"/></g><path fill="#fff" stroke="#8BB22B" stroke-width="2" stroke-miterlimit="10" d="M171.684 124.769c-.228.797-1.058 1.258-1.854 1.03l-24.683-7.041c-.797-.227-1.259-1.057-1.031-1.854.228-.796 1.058-1.26 1.854-1.031l24.683 7.041c.795.227 1.258 1.059 1.031 1.855z"/></g></svg>