<?xml version="1.0" encoding="UTF-8"?>
<svg width="192.667" height="162.666" xmlns="http://www.w3.org/2000/svg" xmlns:xlink="http://www.w3.org/1999/xlink">
 <defs>
  <path d="m192,0h-192l27.667,55.666l4,14c-4,14 -2.357,27.316002 -1.823999,30.692001c5.129999,32.475998 33.24,57.307999 67.157,57.307999c27.624001,0 51.386002,-16.479996 62.026001,-40.139c0.865997,-1.925003 4.891006,-11.377998 6.141006,-22.793999l23.75,-4.317001l3.082993,-90.416z" id="a"/>
 </defs>
 <defs>
  <path d="m192,0h-192l27.667,55.666l4,14c-4,14 -2.357,27.316002 -1.823999,30.692001c5.129999,32.475998 33.24,57.307999 67.157,57.307999c27.624001,0 51.386002,-16.479996 62.026001,-40.139c0.865997,-1.925003 14.953003,28.82 15.641006,26.805992l18,-6.666992l-0.667007,-137.666z" id="c"/>
 </defs>
 <clipPath id="b">
  <use id="svg_1" xlink:href="#a"/>
 </clipPath>
 <clipPath id="d">
  <use id="svg_2" xlink:href="#c"/>
 </clipPath>
 <g>
  <title>Layer 1</title>
  <g id="svg_3">
   <path id="svg_4" d="m97,158.666c-38.047001,0 -69,-30.953003 -69,-69s30.952999,-69 69,-69s69,30.952999 69,69s-30.953003,69 -69,69z" fill="#fff"/>
   <path id="svg_5" d="m97,21.666c37.556,0 68,30.445 68,68s-30.444,68 -68,68s-68,-30.445 -68,-68s30.444,-68 68,-68m0,-2c-38.598,0 -70,31.402 -70,70s31.402,70 70,70s70,-31.401993 70,-70s-31.401993,-70 -70,-70z" fill="#8BB22B"/>
   <path id="svg_6" d="m97,18.666c39.214005,0 71,31.786999 71,71s-31.785995,71 -71,71s-71,-31.787003 -71,-71s31.785999,-71 71,-71m0,-2c-40.251999,0 -73,32.748001 -73,73s32.748001,73 73,73s73,-32.748001 73,-73s-32.748001,-73 -73,-73z" fill="#fff"/>
  </g>
  <g id="svg_7" stroke-miterlimit="10" stroke="#8BB22B" fill="#fff" clip-path="url(#d)">
   <path id="svg_8" d="m69.166,137.985001c0.064003,8.589005 -6.849998,15.604004 -15.436001,15.662994c-8.588001,0.068008 -15.605,-6.847992 -15.666,-15.43399c-0.063,-8.591003 6.850002,-15.606003 15.438,-15.671005c8.587002,-0.058998 15.599998,6.852005 15.664001,15.442001zm-9.622002,0.399002l-0.184998,-1.487c-0.489002,-3.94101 -4.082001,-6.742004 -8.023003,-6.253006l-12.088997,1.499008c-0.776001,1.868988 -1.198002,3.919998 -1.183002,6.071991c0.025002,3.660004 1.324001,7.009003 3.461002,9.650009l11.764,-1.457001c3.941998,-0.488007 6.741997,-4.082001 6.254997,-8.024002zm9.622002,-0.399002c-0.026001,-3.636002 -1.309998,-6.964005 -3.417999,-9.597c-2.644001,1.326996 -4.301003,4.207001 -3.916,7.309998l0.183998,1.487c0.412003,3.320007 3.027,5.820007 6.195999,6.238007c0.620003,-1.695999 0.970001,-3.52301 0.954002,-5.438004z"/>
  </g>
  <g id="svg_9" stroke-miterlimit="10" stroke="#8BB22B" fill="#fff" clip-path="url(#d)">
   <path id="svg_10" d="m85.166,142.985001c0.064003,8.589005 -6.849998,15.604004 -15.435997,15.662994c-8.588005,0.068008 -15.605003,-6.847992 -15.666004,-15.43399c-0.063,-8.591003 6.850002,-15.606003 15.438,-15.671005c8.586998,-0.058998 15.599998,6.852005 15.664001,15.442001zm-9.622002,0.399002l-0.184998,-1.487c-0.488998,-3.94101 -4.082001,-6.742004 -8.023003,-6.253006l-12.088997,1.499008c-0.776001,1.868988 -1.198002,3.919998 -1.183002,6.071991c0.025002,3.660004 1.324001,7.009003 3.461002,9.650009l11.764,-1.457001c3.942001,-0.488007 6.741997,-4.082001 6.254997,-8.024002zm9.622002,-0.399002c-0.026001,-3.636002 -1.309998,-6.964005 -3.417999,-9.597c-2.644005,1.326996 -4.301003,4.207001 -3.916,7.309998l0.183998,1.487c0.412003,3.320007 3.027,5.820007 6.195999,6.238007c0.620003,-1.695999 0.970001,-3.52301 0.954002,-5.438004z"/>
  </g>
  <path id="svg_11" clip-path="url(#d)" d="m95.800003,56.333c-1.153,-6.799 -2.457001,-13.798 -0.139999,-20.854c1.154999,-3.513 2.853996,-6.691999 4.960999,-9.49l0.176994,-0.473c1.755005,-5.343 -1.153,-11.097001 -6.495995,-12.852001s-11.096001,1.152 -12.852005,6.496l-0.139999,0.485001c0.040001,3.501999 -0.476997,7.07 -1.631996,10.581999c-2.318001,7.057001 -7.633003,11.805002 -12.479004,16.710001c-4.389999,4.442001 -8.626999,10.655998 -10.891998,17.550999c-3.649998,11.109001 -5.624001,49.409004 -5.624001,49.409004l19.544998,6.420998s21.122002,-32.008003 24.772003,-43.118004c2.266998,-6.893997 1.851997,-14.664997 0.800003,-20.866997z" stroke-miterlimit="10" stroke="#8BB22B" fill="#fff"/>
  <g id="svg_12" stroke-miterlimit="10" stroke="#8BB22B" fill="#fff" clip-path="url(#d)">
   <path id="svg_13" d="m57.330002,41.695999c5.440998,-6.646999 15.241997,-7.620998 21.883995,-2.179001c6.649002,5.437 7.622002,15.243 2.183006,21.882c-5.444,6.646 -15.245003,7.625004 -21.890003,2.185001c-6.644001,-5.443001 -7.618,-15.244999 -2.176998,-21.888zm7.655998,5.844002l-0.809998,1.259998c-2.144001,3.346001 -1.171001,7.795002 2.172997,9.938l10.256004,6.576004c1.788994,-0.940002 3.425995,-2.248001 4.791,-3.914001c2.316994,-2.830002 3.460999,-6.236 3.505997,-9.633003l-9.979004,-6.399998c-3.339996,-2.143002 -7.790993,-1.171001 -9.936996,2.173zm-7.655998,-5.844002c-2.303001,2.811001 -3.443001,6.191002 -3.505001,9.563c2.882,0.670002 5.996998,-0.486 7.684998,-3.115997l0.810001,-1.263c1.804001,-2.816002 1.392002,-6.409 -0.776001,-8.756001c-1.564999,0.906998 -3.000999,2.09 -4.213997,3.571999z"/>
  </g>
  <path id="svg_14" clip-path="url(#d)" d="m94.746002,81.096001c-4.901001,-5.205002 -10.051003,-10.493996 -12.104004,-17.917999c-1.024002,-3.692001 -1.384003,-7.413002 -1.172997,-11.036003l-0.119003,-0.510998c-1.556,-5.618999 -7.372002,-8.911999 -12.991997,-7.355999s-8.911003,7.370998 -7.356003,12.989998l0.158001,0.5c2.046001,2.998001 3.649998,6.375 4.674,10.067001c2.054001,7.423004 0.195999,14.571999 -1.167,21.591995c-1.234001,6.355003 -1.318001,14.153008 0.687996,21.405006c3.235001,11.682999 23.542007,45.866997 23.542007,45.866997l20.556999,-5.690994s-0.167,-39.760002 -3.403,-51.445007c-2.010002,-7.25 -6.832001,-13.715996 -11.305,-18.463997z" stroke-miterlimit="10" stroke-width="2" stroke="#8BB22B" fill="#fff"/>
  <g id="svg_15" clip-path="url(#d)">
   <path id="svg_16" d="m157.222,92.563004c-5.179993,18.495995 -24.057999,29.380997 -42.166,24.308998c-18.107002,-5.068001 -28.592003,-24.173004 -23.412003,-42.667c5.176003,-18.497002 24.056,-29.382 42.164001,-24.311001c18.113007,5.071999 28.591995,24.176998 23.414001,42.669003z" stroke-miterlimit="10" stroke-width="2" stroke="#8BB22B" fill="#fff"/>
   <path id="svg_17" d="m147.123001,84.434998c-3.365997,12.023003 -15.637009,19.098999 -27.410004,15.802002c-11.771996,-3.295998 -18.583,-15.717003 -15.220001,-27.737999c3.366005,-12.021999 15.638,-19.100002 27.408005,-15.804001c11.776993,3.296001 18.584,15.716003 15.222,27.739998z" stroke-miterlimit="10" stroke="#8BB22B" fill="#fff"/>
   <path id="svg_18" d="m170.694,29.104c-1.576996,5.626999 -7.416,8.912998 -13.042999,7.333c-5.626007,-1.570999 -8.910004,-7.409 -7.330002,-13.039c1.572006,-5.624001 7.406998,-8.908001 13.037994,-7.333c5.624008,1.577 8.909012,7.413 7.335007,13.039z" stroke-miterlimit="10" stroke-width="2" stroke="#8BB22B" fill="#fff"/>
   <path id="svg_19" d="m166.617004,27.962999c-0.945999,3.379 -4.445999,5.345999 -7.820999,4.403002c-3.378998,-0.944 -5.348007,-4.451 -4.400009,-7.824001c0.944,-3.376999 4.443008,-5.347 7.818008,-4.402c3.376999,0.942001 5.343994,4.452 4.403,7.823z" stroke-miterlimit="10" stroke="#8BB22B" fill="#fff"/>
   <circle id="svg_20" r="10.579" cy="16.011" cx="124.197" stroke-miterlimit="10" stroke-width="2" stroke="#8BB22B" fill="#fff"/>
   <path id="svg_21" d="m130.311005,17.726c-0.945007,3.373001 -4.447006,5.344 -7.823006,4.399c-3.376999,-0.945999 -5.348999,-4.450001 -4.401001,-7.823c0.944,-3.375 4.444,-5.348 7.825005,-4.403c3.371994,0.948999 5.343994,4.452 4.399002,7.827z" stroke-miterlimit="10" stroke="#8BB22B" fill="#fff"/>
   <path id="svg_22" d="m164.666,47.926998c-3.873001,13.838001 -18.744995,18.490002 -34.266998,14.143002c-15.520004,-4.346001 -25.814003,-16.040001 -21.941002,-29.880001c3.876999,-13.838999 20.978004,-26.450999 36.499001,-22.106998c15.518005,4.344 23.584,24.000999 19.709,37.843998zm-15.417007,-12.651997c-0.361008,1.293999 -1.699997,2.049999 -2.997009,1.688c-1.294998,-0.363003 -2.046997,-1.706001 -1.68399,-3c0.360992,-1.291 1.699997,-2.047001 2.994003,-1.686001c1.294998,0.364998 2.054001,1.704998 1.686996,2.998001zm-19.939987,-5.583002c-0.358994,1.293001 0.393005,2.636999 1.693008,2.999002c1.289001,0.360996 2.631989,-0.395 2.990997,-1.689001c0.365997,-1.288 -0.389999,-2.632 -1.684998,-2.995001c-1.294006,-0.361 -2.63501,0.393 -2.999008,1.684999z" stroke-miterlimit="10" stroke-width="2" stroke="#8BB22B" fill="#fff"/>
   <path id="svg_23" d="m151.649994,50.216c-1.867004,6.663002 -10.612,10.039001 -19.539001,7.538002c-8.921005,-2.496002 -14.644005,-9.921001 -12.778,-16.59c1.862999,-6.656002 10.608994,-10.030001 19.535995,-7.533001c8.923004,2.5 14.641998,9.925999 12.781006,16.584999z" stroke-miterlimit="10" stroke="#8BB22B" fill="#fff"/>
   <ellipse id="svg_24" ry="5.837" rx="8.392" cy="43.115" cx="136.198" stroke-miterlimit="10" stroke-width="2" stroke="#8BB22B" fill="#fff" transform="matrix(.963 .27 -.27 .963 16.665 -35.12)"/>
   <path id="svg_25" fill="none" d="m133.878006,51.432999c1.486008,3.623001 5.124008,4.756001 8.138,2.525002m-16.096008,-4.757c1.484001,3.626999 5.119995,4.757999 8.130997,2.530998" stroke-miterlimit="10" stroke-linejoin="round" stroke-linecap="round" stroke-width="2" stroke="#8BB22B"/>
   <path id="svg_26" d="m134.878998,48.773998l-0.983002,3.516003" fill="none" stroke-miterlimit="10" stroke-width="2" stroke="#8BB22B"/>
   <path id="svg_27" d="m166.520996,82.791c-1.988998,7.117996 -9.371994,11.268997 -16.487,9.277c-7.112,-1.994003 -11.266998,-9.374001 -9.276001,-16.488998c1.994003,-7.112 9.373001,-11.264999 16.487,-9.271004c7.117004,1.989998 11.269012,9.372002 9.276001,16.483002zm-53.901993,-15.843002c-1.992004,7.108002 -9.377007,11.263 -16.484001,9.271004c-7.121002,-1.991005 -11.271004,-9.375999 -9.276001,-16.486c1.988998,-7.116001 9.371002,-11.27 16.486,-9.275002c7.114998,1.987 11.265999,9.374001 9.274002,16.489998z" stroke-miterlimit="10" stroke-width="2" stroke="#8BB22B" fill="#fff"/>
   <g id="svg_28" stroke-miterlimit="10" stroke="#8BB22B" fill="#fff">
    <path id="svg_29" d="m104.463997,91.272003c5.314003,9.949997 3.285004,21.403999 -4.532997,25.577995c-7.824997,4.175003 -18.469002,-0.501999 -23.784996,-10.452995c-5.312004,-9.955002 -3.286003,-21.406006 4.533997,-25.587006c7.818001,-4.172997 18.464996,0.510002 23.783997,10.462006z" stroke-width="2"/>
    <path id="svg_30" d="m100.130997,99.93c2.657005,4.977997 1.642006,10.705002 -2.264,12.793999c-3.913994,2.089005 -9.234993,-0.250999 -11.894997,-5.227997c-2.653999,-4.973999 -1.644997,-10.704002 2.263,-12.793999c3.913002,-2.089005 9.234001,0.255997 11.895996,5.227997zm-4.942993,-11.709c-0.368004,1.328003 -1.753006,2.104996 -3.082001,1.733002c-1.331001,-0.372002 -2.104004,-1.754005 -1.731003,-3.084999c0.370003,-1.328003 1.75,-2.105003 3.081001,-1.731003c1.329002,0.372002 2.103996,1.751999 1.732002,3.083zm-12.636002,8.796997c-0.369003,1.333 -1.750999,2.109001 -3.079002,1.734001c-1.335999,-0.372002 -2.103996,-1.749001 -1.733002,-3.081001c0.368004,-1.327995 1.750999,-2.105995 3.081001,-1.736c1.331001,0.374001 2.105003,1.755005 1.731003,3.083zm4.112,-7.723999c-0.498001,1.774002 -2.335999,2.809998 -4.110001,2.313004c-1.772003,-0.497002 -2.809998,-2.338005 -2.314003,-4.110001s2.340004,-2.808998 4.112999,-2.311005c1.774002,0.492004 2.807007,2.335007 2.311005,4.108002z"/>
   </g>
   <g id="svg_31" stroke-miterlimit="10" stroke="#8BB22B" fill="#fff">
    <path id="svg_32" d="m137.451004,100.505997c-9.713005,5.748001 -13.923004,16.586006 -9.408997,24.216003c4.512985,7.632996 16.043991,9.160004 25.757996,3.410004c9.710999,-5.740005 13.921997,-16.584007 9.406998,-24.215004c-4.511993,-7.627998 -16.042999,-9.153 -25.755997,-3.411003z" stroke-width="2"/>
    <path id="svg_33" d="m136.658997,110.162003c-4.858002,2.869995 -6.964996,8.292 -4.705994,12.100998c2.255997,3.820999 8.020996,4.586998 12.877991,1.713997c4.855011,-2.874001 6.963013,-8.295998 4.70401,-12.110001c-2.257004,-3.817993 -8.020996,-4.577995 -12.876007,-1.704994zm10.302002,-7.450005c-0.375,1.333 0.404007,2.715004 1.734009,3.084999c1.328995,0.374001 2.71199,-0.403999 3.079987,-1.733994c0.372009,-1.331001 -0.398987,-2.711006 -1.729996,-3.083c-1.332993,-0.370003 -2.712006,0.405998 -3.084,1.731995zm6.231995,14.085999c-0.374008,1.328003 0.404999,2.708 1.733994,3.082001c1.326004,0.372002 2.710007,-0.404999 3.078003,-1.732994c0.375,-1.330002 -0.403,-2.714005 -1.729996,-3.086006c-1.333008,-0.372993 -2.710999,0.406006 -3.082001,1.737zm0.499008,-8.736c-0.5,1.773003 0.533997,3.613007 2.306992,4.110001c1.775009,0.495003 3.614014,-0.538994 4.112,-2.314995c0.497009,-1.769005 -0.535995,-3.611 -2.30899,-4.108002c-1.775009,-0.494003 -3.615005,0.538002 -4.110001,2.312996z"/>
   </g>
  </g>
  <g id="svg_34" stroke-miterlimit="10" stroke="#8BB22B" fill="#fff" clip-path="url(#d)">
   <path id="svg_35" d="m158.313995,158.985001c0.207001,2.546005 -1.686996,4.778 -4.228989,4.983002l-51.456017,4.223999c-2.543999,0.205994 -4.778,-1.686996 -4.987,-4.231003l-4.220001,-51.453995c-0.209,-2.545006 1.688004,-4.776001 4.229004,-4.987007l51.457008,-4.222c2.544998,-0.205994 4.776993,1.688004 4.985001,4.228004l4.220993,51.459z" stroke-width="2"/>
   <path id="svg_36" d="m115.276001,124.557999c-0.439003,2.944 -3.186005,4.977997 -6.134003,4.537003c-2.944,-0.442001 -4.974998,-3.186005 -4.532997,-6.133003c0.436996,-2.944 3.184998,-4.977997 6.129997,-4.539001c2.949005,0.442001 4.979004,3.184006 4.537003,6.135002zm15.352997,-1.177002c-0.438004,2.946007 -3.184998,4.977997 -6.130997,4.538002c-2.945,-0.443001 -4.976997,-3.183998 -4.537003,-6.133995c0.439003,-2.943001 3.182999,-4.976006 6.132004,-4.539001c2.946991,0.445 4.979004,3.188995 4.535995,6.134995zm14.608002,-1.122993c-0.444,2.945 -3.186005,4.981995 -6.132004,4.537994c-2.947998,-0.437996 -4.981003,-3.185997 -4.539993,-6.130997c0.440994,-2.948997 3.188004,-4.979004 6.130997,-4.538002c2.949997,0.440002 4.979996,3.187004 4.541,6.131004zm-28.144997,25.96299c-0.441002,2.940994 -3.188004,4.97699 -6.133003,4.535004c-2.945999,-0.439011 -4.978996,-3.188004 -4.537003,-6.130005c0.440002,-2.947006 3.186005,-4.979004 6.133003,-4.542007c2.945,0.442001 4.974998,3.187012 4.537003,6.137009z"/>
   <circle id="svg_37" r="5.394" cy="146.244" cx="127.111"/>
   <path id="svg_38" d="m147.054001,145.919006c-0.444,2.947998 -3.188004,4.98201 -6.132996,4.53801c-2.947998,-0.439011 -4.979004,-3.182999 -4.542007,-6.132004c0.44101,-2.945999 3.188995,-4.979004 6.134003,-4.535004c2.947006,0.440002 4.977997,3.188995 4.541,6.128998z"/>
  </g>
  <g id="svg_39" stroke-miterlimit="10" stroke-width="2" stroke="#8BB22B" fill="#fff" clip-path="url(#d)">
   <path id="svg_40" d="m74.739998,106.848c-8.035995,-2.388 -13.511997,-6.447998 -18.173996,-12.68l-24.092003,29.773003l68.416,19.387001l-3.937996,-38.092003c-7.306,2.670998 -14.175003,3.999001 -22.212006,1.612zm-18.092999,17.098999l-18.496998,23.306999c-2.432003,4.412003 -7.975002,6.018005 -12.379002,3.589005c-4.412001,-2.427002 -6.02,-7.972 -3.586,-12.376007l7.826,-22.425995l26.636,7.905998zm50.624004,14.112007l-26.638,-7.912003l2.779999,29.621002c-0.373001,5.021988 3.388,9.390991 8.410995,9.763992c5.020004,0.372009 9.390999,-3.395004 9.763,-8.416l5.684006,-23.056992zm6.594994,-10.715004c-2.904999,9.790001 -13.201996,15.368996 -22.987,12.458c-9.792,-2.903 -15.373001,-13.199005 -12.464996,-22.991005c2.907997,-9.788994 13.200996,-15.368996 22.994995,-12.462997c9.784004,2.910004 15.364006,13.203003 12.457001,22.996002zm-67.714996,-25.801003c-9.795002,-2.907997 -20.084002,2.669998 -22.992001,12.457001c-2.91,9.792999 2.674,20.087997 12.459,22.990997c9.789001,2.91301 20.085999,-2.668991 22.994999,-12.455994c2.909,-9.791 -2.671997,-20.085007 -12.461998,-22.992004zm55.371002,14.010002c-0.517006,1.757996 -2.356003,2.751999 -4.108002,2.228996c-1.75,-0.520996 -2.751999,-2.360001 -2.230003,-4.111c0.519005,-1.756996 2.362999,-2.75 4.112999,-2.230995c1.754005,0.520996 2.748001,2.362999 2.225006,4.112999zm-62.030003,-3.194c-1.750999,-0.521004 -3.594002,0.478996 -4.115002,2.227997c-0.52,1.756004 0.479,3.593002 2.232002,4.116005c1.75,0.519997 3.591,-0.479004 4.111,-2.230003c0.521999,-1.753998 -0.476002,-3.592003 -2.228001,-4.113998zm7.792999,1.098c-1.743999,-0.521004 -2.748001,-2.362999 -2.226002,-4.112999c0.522003,-1.755005 2.366001,-2.75 4.115002,-2.230003c1.752998,0.521004 2.747002,2.358002 2.224998,4.114998c-0.515999,1.745003 -2.355999,2.746002 -4.113998,2.228004zm-10.812,-6.667c0.522999,-1.751999 -0.471001,-3.594002 -2.225998,-4.112c-1.752003,-0.520004 -3.593002,0.478996 -4.113001,2.227997c-0.52,1.752998 0.473999,3.594002 2.229998,4.116005c1.75,0.516998 3.588001,-0.479004 4.109001,-2.232002zm-36.943,-12.659004l-4.302,-1.278l1.279,-4.306c0.396,-1.328995 -0.363,-2.723 -1.691,-3.118996c-1.332,-0.398003 -2.727,0.359001 -3.125,1.691002l-1.274,4.298996l-4.306,-1.273003c-1.33,-0.395996 -2.726999,0.359001 -3.122999,1.691002c-0.393002,1.330002 0.362999,2.721001 1.698999,3.114998l4.3,1.283005l-1.275001,4.301003c-0.397,1.329994 0.356,2.732994 1.686,3.125c1.33,0.393997 2.728,-0.366005 3.122,-1.692001l1.28,-4.305l4.3,1.277c1.333,0.392998 2.728,-0.362999 3.125,-1.692001c0.39,-1.328003 -0.366,-2.723999 -1.695,-3.117004z"/>
  </g>
 </g>
</svg>