<svg version="1" xmlns="http://www.w3.org/2000/svg" xmlns:xlink="http://www.w3.org/1999/xlink" width="192.667" height="162.666" viewBox="0 0 192.667 162.666"><g><path fill="#fff" d="M97 158.666c-38.047 0-69-30.953-69-69s30.953-69 69-69 69 30.953 69 69-30.953 69-69 69z"/><path fill="#8BB22B" d="M97 21.666c37.556 0 68 30.445 68 68s-30.444 68-68 68-68-30.445-68-68 30.444-68 68-68m0-2c-38.599 0-70 31.402-70 70s31.401 70 70 70 70-31.402 70-70-31.401-70-70-70z"/><path fill="#fff" d="M97 18.666c39.213 0 71 31.788 71 71s-31.787 71-71 71-71-31.788-71-71 31.787-71 71-71m0-2c-40.252 0-73 32.748-73 73s32.748 73 73 73 73-32.748 73-73-32.748-73-73-73z"/></g><defs><path id="a" d="M192 0h-192l27.667 55.666 4 14c-4 14-2.357 27.316-1.824 30.692 5.13 32.476 33.24 57.308 67.157 57.308 27.624 0 51.386-16.48 62.026-40.139.866-1.925 14.953 28.82 15.641 26.806l18-6.667-.667-137.666z"/></defs><clipPath id="b"><use xlink:href="#a" overflow="visible"/></clipPath><g clip-path="url(#b)"><circle fill="#fff" stroke="#8BB22B" stroke-miterlimit="10" cx="64.667" cy="87.666" r="20"/><path fill="#8BB22B" d="M70.849 76.743c-4.931-.705-5.626 4.154-5.626 4.154l-.362 2.536 4.798.688-.2 1.228-4.774-.683-2.085 14.57-1.225-.247 2.075-14.499-2.466-.354.2-1.228 2.441.348.346-2.406s.891-6.219 7.053-5.335l-.175 1.228z"/></g><g clip-path="url(#b)"><g fill="#fff" stroke="#8BB22B" stroke-width="2" stroke-miterlimit="10"><path d="M150.284 157.55c-.893 4.315-5.117 7.089-9.434 6.194l-62.514-12.957c-4.316-.895-7.092-5.12-6.195-9.435l24.565-118.521c.895-4.313 5.119-7.088 9.434-6.194l62.518 12.958c4.316.895 7.088 5.12 6.193 9.436l-24.567 118.519zM100.869 31.842l66.584 13.797-20.511 98.984-66.584-13.797z"/></g><path stroke="#8BB22B" stroke-width="2" stroke-miterlimit="10" fill="none" d="M96.512 92.264l50.917 10.556-1.015 4.896-50.917-10.556z"/><g stroke="#8BB22B" stroke-width="2" stroke-miterlimit="10" fill="none"><path d="M115.896 97.296l-3.546 2.33M110.998 96.282l-3.544 2.328M106.104 95.266l-3.544 2.33M101.208 94.251l-3.546 2.328"/></g><path fill="#8BB22B" d="M107.657 84.118l-.257 1.243-5.15-1.066 3.351-16.168 1.247.258-3.095 14.924 3.904.809zm2.971-7.703c.299-1.439 1.686-2.352 3.123-2.054 1.438.297 2.35 1.686 2.052 3.125l-1.399 6.754c-.301 1.438-1.688 2.348-3.124 2.05-1.438-.297-2.35-1.684-2.052-3.123l1.4-6.752zm-.152 7.011c-.154.741.318 1.466 1.061 1.619.745.154 1.466-.322 1.62-1.063l1.399-6.755c.154-.742-.319-1.465-1.063-1.619-.742-.153-1.464.321-1.619 1.063l-1.398 6.755zm10.466 2.994c-.049.239.105.472.342.521l-.258 1.246c-.502-.104-.914-.415-1.156-.814-.543.337-1.215.446-1.886.308-1.438-.297-2.35-1.685-2.052-3.123l.274-1.317c.247-1.196 1.425-1.578 1.425-1.578l2.066-.671s1.152-.387 1.352-1.343l.241-1.176c.142-.669-.278-1.306-.949-1.444s-1.308.278-1.446.949l-.287 1.389-1.273-.114.317-1.532c.277-1.343 1.608-2.218 2.946-1.938 1.342.277 2.217 1.607 1.939 2.95l-1.595 7.687zm-3.763-1.604c-.154.741.319 1.464 1.063 1.617.744.154 1.467-.321 1.621-1.062l.705-3.401c-.234.149-.473.228-.473.228l-2.063.671s-.48.149-.582.63l-.271 1.317zm10.578 4.766l-.865-.181-.025-.954c-.538.539-1.291.808-2.033.652-1.246-.258-2.035-1.62-1.738-3.058l1.4-6.753c.297-1.439 1.564-2.377 2.811-2.119.646.134 1.18.57 1.48 1.159l1.044-5.031 1.278.114-3.352 16.171zm.664-9.48c.156-.745-.32-1.467-1.064-1.62-.74-.152-1.463.319-1.618 1.063l-1.401 6.754c-.152.742.322 1.466 1.065 1.619.743.155 1.464-.32 1.618-1.063l1.4-6.753zm4.441-4.804l1.244.261-.346 1.675-1.246-.256.348-1.68zm.619 3.279l-1.246-.257-2.422 11.688 1.246.258 2.422-11.689zm-.361 12.115l2.422-11.688.861.179.028.956c.534-.541 1.29-.81 2.032-.655 1.246.259 2.037 1.622 1.738 3.061l-1.91 9.222-1.245-.259 1.91-9.222c.154-.743-.319-1.467-1.062-1.62s-1.467.321-1.62 1.063l-1.909 9.223-1.245-.26zm6.902 1.632c.179-.865.746-1.544 1.487-1.865-.176-.362-.21-.794-.121-1.226.085-.408.286-.788.593-1.051-.549-.613-.797-1.462-.619-2.327l.611-2.946c.297-1.437 1.566-2.375 2.813-2.115.741.153 1.328.7 1.605 1.408l.404-.866.862.179-1.122 5.415c-.298 1.435-1.687 2.346-3.122 2.049-.358-.073-.707.154-.781.514-.075.36.154.707.513.781 1.437.296 2.347 1.686 2.05 3.122l-.229 1.102c-.297 1.437-1.686 2.35-3.123 2.051s-2.348-1.686-2.05-3.122l.229-1.103zm5.881-8.6c.155-.742-.321-1.465-1.064-1.619-.742-.155-1.466.321-1.619 1.065l-.611 2.945c-.154.739.323 1.461 1.063 1.617.743.155 1.468-.321 1.62-1.063l.611-2.945zm-4.863 9.96c-.154.743.322 1.467 1.064 1.619.742.153 1.464-.32 1.621-1.063l.227-1.101c.154-.743-.319-1.467-1.064-1.621-.742-.154-1.467.323-1.621 1.064l-.227 1.102z"/><path stroke="#8BB22B" stroke-width="2" stroke-miterlimit="10" d="M117.499 148.692c-.673 3.244-3.85 5.328-7.096 4.655-3.242-.672-5.327-3.848-4.656-7.091.673-3.246 3.85-5.331 7.094-4.659 3.244.674 5.33 3.85 4.658 7.095z" fill="none"/><path fill="#fff" d="M147.325 35.865l-.306-.031-23.501-4.871c-.81-.169-1.333-.965-1.167-1.773.145-.692.762-1.196 1.468-1.196l.307.031 23.501 4.871c.393.081.729.311.949.646s.296.735.215 1.128c-.145.692-.761 1.195-1.466 1.195z"/><path fill="#8BB22B" d="M123.819 28.493l.205.021 23.502 4.871c.261.054.485.206.632.43.146.223.197.49.143.752-.096.462-.506.798-.976.798l-.205-.021-23.499-4.87c-.541-.113-.891-.644-.779-1.182.096-.463.507-.799.977-.799m0-1c-.929 0-1.761.65-1.957 1.596-.223 1.08.473 2.138 1.555 2.363l23.5 4.871c.137.028.273.042.408.042.927 0 1.759-.651 1.955-1.595.225-1.082-.47-2.141-1.552-2.364l-23.501-4.871c-.136-.028-.273-.042-.408-.042z"/></g><g clip-path="url(#b)"><circle fill="#fff" stroke="#8BB22B" stroke-width="2" stroke-miterlimit="10" cx="63.667" cy="126.666" r="31"/><path fill="#fff" stroke="#8BB22B" stroke-width="2" stroke-miterlimit="10" d="M46.266 118.663l26.727-8.724 9.31 28.521-26.727 8.724z"/><path fill="#fff" d="M62.468 118.115l-2.85.934-3.117-9.504 2.85-.934z"/><path fill="#8BB22B" d="M59.034 109.241l2.793 8.558-1.902.62-2.79-8.555 1.899-.623m.64-1.262l-.951.313-1.899.623-.949.312.31.948 2.79 8.555.311.951.95-.31 1.902-.62.951-.311-.311-.951-2.793-8.558-.311-.952z"/><path fill="#fff" d="M70.072 115.634l-2.85.934-3.114-9.505 2.85-.934z"/><path fill="#8BB22B" d="M66.64 106.761l2.793 8.558-1.901.62-2.791-8.556 1.899-.622m.639-1.262l-.951.312-1.899.622-.949.311.311.95 2.791 8.556.31.95.95-.311 1.902-.619.95-.311-.311-.951-2.793-8.558-.311-.951z"/><path fill="#fff" d="M54.849 120.598l-2.852.933-3.11-9.507 2.852-.933z"/><path fill="#8BB22B" d="M51.431 111.724l2.791 8.558-1.901.62-2.791-8.556 1.901-.622m.64-1.262l-.951.312-1.901.622-.95.311.311.95 2.791 8.556.31.95.95-.311 1.902-.619.95-.311-.31-.951-2.791-8.557-.311-.952z"/><g fill="#8BB22B"><path d="M54.803 128.506l17.115-5.582.309.948-17.115 5.582zM56.045 132.311l17.112-5.583.311.952-17.112 5.583zM57.277 136.112l17.11-5.585.311.952-17.11 5.585z"/></g></g><circle fill="#fff" stroke="#8BB22B" stroke-width="2" stroke-miterlimit="10" cx="71.667" cy="38.666" r="31"/><path fill="#fff" d="M58.667 52.166c-3.032 0-5.5-2.468-5.5-5.5v-18c0-3.032 2.468-5.5 5.5-5.5h27c3.032 0 5.5 2.468 5.5 5.5v18c0 3.032-2.468 5.5-5.5 5.5h-27z"/><path fill="#8BB22B" d="M85.667 23.666c2.757 0 5 2.243 5 5v18c0 2.757-2.243 5-5 5h-27c-2.757 0-5-2.243-5-5v-18c0-2.757 2.243-5 5-5h27m0-1h-27c-3.313 0-6 2.687-6 6v18c0 3.313 2.687 6 6 6h27c3.313 0 6-2.687 6-6v-18c0-3.313-2.687-6-6-6z"/><path fill="#fff" stroke="#8BB22B" stroke-miterlimit="10" d="M52.671 46.744l14.74-14.74c2.553-2.552 6.69-2.553 9.243 0l15.01 14.723M52.671 28.588l14.74 14.74c2.553 2.552 6.69 2.553 9.243 0l15.01-14.723"/><path fill="#8BB22B" d="M85.667 24.666c2.206 0 4 1.794 4 4v18c0 2.206-1.794 4-4 4h-27c-2.206 0-4-1.794-4-4v-18c0-2.206 1.794-4 4-4h27m0-2h-27c-3.313 0-6 2.687-6 6v18c0 3.313 2.687 6 6 6h27c3.313 0 6-2.687 6-6v-18c0-3.313-2.687-6-6-6z"/><g stroke="#8BB22B" stroke-miterlimit="10"><circle fill="#fff" stroke-width="2" cx="38.667" cy="56.666" r="22.717"/><path fill="#8BB22B" d="M43.337 67.285c-.126-.229-.392-.342-.643-.272-1.651.45-3.392-.305-4.234-1.835l-1.374-2.494.871-.62 1.434 2.601c.618 1.123 1.956 1.664 3.18 1.288.18-.056.354-.13.519-.22.635-.35 1.099-.928 1.3-1.628.202-.698.121-1.435-.23-2.069l-.981-1.781c-.427-.774-1.196-1.156-1.425-1.256l-7.238-2.785c-.011-.004-1.275-.509-1.944-1.721l-.68-1.232c-.847-1.538-.56-3.372.714-4.566.189-.176.235-.458.109-.685l-.661-1.198.87-.621.721 1.308c.125.226.385.338.633.275 1.67-.425 3.416.329 4.243 1.831l1.148 2.081-.872.62-1.207-2.188c-.619-1.123-1.959-1.664-3.184-1.288-.178.055-.35.128-.516.217-1.313.726-1.793 2.386-1.07 3.699l.682 1.234c.497.902 1.412 1.231 1.42 1.234l7.186 2.768c.018.007 1.316.518 2.001 1.76l.981 1.782c.844 1.526.553 3.401-.709 4.561-.19.176-.237.46-.112.688l.66 1.197-.87.622-.722-1.307z"/></g></svg>