<svg version="1" xmlns="http://www.w3.org/2000/svg" xmlns:xlink="http://www.w3.org/1999/xlink" width="194.334" height="159.666" viewBox="0 0 194.334 159.666"><g><path fill="#D1D3D4" d="M97 158.666c-38.047 0-69-30.953-69-69s30.953-69 69-69 69 30.953 69 69-30.953 69-69 69z"/><path fill="#58595B" d="M97 21.666c37.556 0 68 30.445 68 68s-30.444 68-68 68-68-30.445-68-68 30.444-68 68-68m0-2c-38.599 0-70 31.402-70 70s31.401 70 70 70 70-31.402 70-70-31.401-70-70-70z"/></g><defs><path id="a" d="M193.667 0h-193.667l16.667 95.666 2.666 3.333c.018 3.522 9.977-2.017 10.51 1.359 5.13 32.476 33.24 57.308 67.157 57.308 27.624 0 51.386-16.48 62.026-40.139.866-1.925 14.953 28.82 15.641 26.806l19.667-6.667-.667-137.666z"/></defs><clipPath id="b"><use xlink:href="#a" overflow="visible"/></clipPath><g clip-path="url(#b)"><defs><path id="c" d="M192 0h-192l29 90 .009.001c.182 37.4 30.549 67.665 67.991 67.665 29.872 0 55.226-19.271 64.358-46.051l3.74-14.551 26.902-97.064z"/></defs><clipPath id="d"><use xlink:href="#c" overflow="visible"/></clipPath><g clip-path="url(#d)"><path fill="#fff" d="M34.124 44.703l.045-10.502c.013-3.565 2.93-6.467 6.502-6.467l104.024.427c3.576.021 6.479 2.952 6.472 6.534l-.042 10.499-117.001-.491z"/><path fill="#58595B" d="M40.671 28.234h.023l103.999.427c3.312.02 5.98 2.718 5.974 6.033l-.04 9.998-116.001-.487.043-10.002c.012-3.302 2.695-5.969 6.002-5.969m0-1c-3.848 0-6.988 3.125-7.002 6.965l-.043 10.002-.004 1 1 .004 116.001.487 1 .004.004-1 .04-9.998c.008-3.858-3.118-7.015-6.968-7.037l-104.001-.427h-.027000000000000003z"/><path fill="#fff" d="M40.086 173.731c-1.736-.008-3.366-.691-4.59-1.924-1.224-1.234-1.893-2.869-1.884-4.604l.516-123.5 117.001.491-.521 123.502c-.014 3.567-2.931 6.47-6.502 6.47l-104.02-.435z"/><path fill="#58595B" d="M34.626 44.205l116.001.487-.52 123.002c-.013 3.301-2.7 5.972-6.003 5.972h-.021l-103.995-.435c-3.313-.015-5.993-2.714-5.976-6.025l.514-123.001m-.996-1.004l-.004 1-.514 123.001c-.01 1.867.711 3.629 2.028 4.957s3.073 2.063 4.942 2.072l103.996.435c3.872 0 7.014-3.126 7.028-6.968l.52-123.002.004-1-1-.004-116-.487-1-.004z"/><path fill="#fff" stroke="#58595B" stroke-miterlimit="10" d="M47.161 35.511c-.006 1.789-1.469 3.243-3.262 3.229-1.793-.008-3.244-1.467-3.234-3.262.002-1.788 1.467-3.243 3.26-3.235 1.795.007 3.246 1.472 3.236 3.268zM57.16 35.552c-.007 1.797-1.462 3.24-3.259 3.235-1.797-.011-3.247-1.471-3.24-3.264.012-1.796 1.473-3.242 3.268-3.238 1.793.01 3.241 1.471 3.231 3.267zM67.157 35.599c-.003 1.786-1.464 3.235-3.256 3.232-1.798-.011-3.244-1.47-3.238-3.266.014-1.794 1.468-3.244 3.261-3.234 1.8.004 3.247 1.467 3.233 3.268z"/><g stroke="#58595B" stroke-miterlimit="10" fill="none"><path d="M41.27 51.04l48.571.063-.085 65.338-48.571-.063zM95.838 51.111l48.57.063-.04 30.666-48.57-.063zM144.322 115.842l-48.565-.06.031-28.667 48.57.067zM41.17 121.708l48.573.068-.03 21.329-48.573-.068zM41.046 148.416l48.573.068-.027 19.467-48.573-.068zM143.951 143.059l-48.569-.059.026-21.339 48.572.068zM95.286 148.373l48.572.058-.023 19.476-48.572-.058z"/></g></g><g clip-path="url(#d)"><path fill="#fff" stroke="#58595B" stroke-width="2" stroke-miterlimit="10" d="M161.157 160.693c-.316 3.298-3.248 5.716-6.547 5.396l-104.517-10.047c-3.298-.318-5.715-3.25-5.398-6.549l12.441-129.4c.317-3.299 3.25-5.717 6.548-5.398l104.519 10.049c3.297.316 5.714 3.25 5.398 6.547l-12.444 129.402z"/><g fill="#fff" stroke="#58595B" stroke-width="2" stroke-miterlimit="10"><path d="M68.436 23.385c-.185 1.784-1.786 3.079-3.572 2.888-1.784-.188-3.078-1.787-2.89-3.575.185-1.781 1.789-3.076 3.574-2.888 1.783.19 3.077 1.789 2.888 3.575zM78.381 24.438c-.19 1.786-1.785 3.08-3.57 2.889-1.787-.188-3.08-1.789-2.893-3.576.191-1.782 1.788-3.076 3.576-2.886 1.785.186 3.079 1.786 2.887 3.573zM88.325 25.49c-.188 1.785-1.788 3.076-3.57 2.891-1.79-.191-3.082-1.789-2.892-3.575.19-1.784 1.789-3.074 3.571-2.888 1.791.189 3.083 1.786 2.891 3.572z"/></g><path stroke="#58595B" stroke-width="2" stroke-miterlimit="10" fill="none" d="M54.897 29.941l116.463 11.202"/><path fill="#58595B" d="M60.908 40.566l46.784 4.499-2.87 29.861-46.786-4.496 2.872-29.864m-.899-1.09l-3.064 31.854 48.776 4.688 3.062-31.852-48.774-4.69zM57.461 76.403l46.786 4.498-2.585 26.876-46.784-4.499 2.583-26.875m-.899-1.09l-2.774 28.865 48.774 4.69 2.776-28.866-48.776-4.689zM113.666 45.64l47.778 4.595-2.87 29.862-47.779-4.593 2.871-29.864m-.899-1.091l-3.063 31.854 49.77 4.784 3.062-31.853-49.769-4.785zM110.218 81.476l47.782 4.593-2.584 26.878-47.781-4.595 2.583-26.876m-.9-1.091l-2.774 28.867 49.771 4.786 2.775-28.868-49.772-4.785zM54.305 109.25l101.533 9.764-1.916 19.909-101.531-9.762 1.914-19.911m-.9-1.091l-2.105 21.902 103.521 9.953 2.107-21.899-103.523-9.956zM51.813 135.132l46.787 4.497-1.915 19.908-46.784-4.497 1.912-19.908m-.899-1.091l-2.104 21.898 48.774 4.688 2.106-21.898-48.776-4.688zM104.573 140.204l48.774 4.689-1.913 19.907-48.776-4.688 1.915-19.908m-.899-1.091l-2.106 21.898 50.767 4.88 2.104-21.897-50.765-4.881z"/></g></g><g clip-path="url(#b)"><path fill="#fff" stroke="#58595B" stroke-width="2" stroke-miterlimit="10" d="M80.667 9.666h56v174h-56z"/><g stroke="#58595B" stroke-width="2" stroke-miterlimit="10" fill="none"><path d="M103.667 45.666h32M102.667 85.666h33M103.667 125.666h32M103.667 165.666h32"/></g><g fill="#58595B"><path d="M116.273 24.666h19.394v1h-19.394zM115.667 64.666h20v1h-20zM115.667 104.666h20v1h-20zM115.667 144.666h20v1h-20z"/></g><g fill="#58595B"><path d="M116.273 33.666h19.394v1h-19.394zM115.667 73.666h20v1h-20zM115.667 113.666h20v1h-20zM115.667 153.666h20v1h-20zM115.667 174.666h20v1h-20z"/></g><g fill="#58595B"><path d="M116.273 15.666h19.394v1h-19.394zM115.667 55.666h20v1h-20zM115.667 95.666h20v1h-20zM115.667 135.666h20v1h-20z"/></g></g><g clip-path="url(#b)" fill="#fff" stroke="#58595B" stroke-miterlimit="10"><path stroke-width="2" d="M178.096 44.116l-14.401 31.238-26.438-12.188 14.884-32.285c-.489-.021-.979-.037-1.474-.037-19.33 0-35 15.67-35 35 0 8.733 3.206 16.713 8.496 22.845l-43.147 84.279c-1.897 3.705-.432 8.246 3.274 10.143l11.182 5.726c3.705 1.897 8.246.433 10.144-3.274l43.395-84.76c.55.025 1.102.042 1.657.042 19.33 0 35-15.67 35-35-.001-8.213-2.837-15.759-7.572-21.729z"/><path d="M147.773 30.973c-.771.063-1.536.144-2.291.256l-.009.001-13.807 29.533 37.141 17.363 13.108-28.04c-.334-.662-.693-1.309-1.068-1.945l-.14-.241c-.362-.604-.743-1.196-1.14-1.777l-.229-.325c-.399-.571-.813-1.134-1.245-1.68l-14.4 31.237-26.438-12.188 14.877-32.27c-.488-.021-.974-.053-1.467-.053-.798 0-1.588.036-2.372.089l-.52.04z"/></g><g clip-path="url(#b)"><path fill="#fff" stroke="#58595B" stroke-width="2" stroke-miterlimit="10" d="M128.676 196.672c1.556 2.926.44 6.561-2.485 8.113l-21.195 11.259c-2.926 1.555-6.559.441-8.113-2.485l-46.909-88.313c-1.553-2.927-.44-6.558 2.485-8.114l21.195-11.257c2.927-1.555 6.559-.442 8.114 2.484l46.908 88.313z"/><path fill="#fff" d="M98.615 210.407c-1.888 0-3.765-1.238-4.78-3.153l-40.342-75.953c-.696-1.311-.916-2.769-.62-4.106.29-1.309 1.042-2.344 2.118-2.915.576-.306 1.208-.461 1.877-.461 1.887 0 3.763 1.236 4.778 3.15l40.343 75.951c1.423 2.68.751 5.832-1.498 7.027-.576.305-1.207.46-1.876.46z"/><path fill="#58595B" d="M56.869 124.318c1.703 0 3.405 1.132 4.336 2.885l40.343 75.951c1.293 2.437.714 5.286-1.29 6.351-.504.267-1.057.402-1.644.402-1.704 0-3.407-1.134-4.338-2.888l-40.342-75.953c-.64-1.205-.844-2.542-.573-3.764.258-1.163.92-2.08 1.865-2.582.503-.267 1.055-.402 1.643-.402m-.001-1c-.728 0-1.447.167-2.111.52-2.496 1.325-3.26 4.771-1.705 7.697l40.342 75.953c1.14 2.149 3.212 3.419 5.221 3.419.729 0 1.447-.167 2.111-.519 2.498-1.327 3.26-4.775 1.705-7.703l-40.343-75.951c-1.14-2.147-3.212-3.416-5.22-3.416z"/><path fill="#fff" d="M121.782 198.1c-1.886 0-3.762-1.237-4.779-3.151l-40.341-75.952c-.696-1.311-.917-2.77-.621-4.107.289-1.309 1.042-2.345 2.118-2.916.576-.306 1.207-.46 1.876-.46 1.887 0 3.764 1.236 4.78 3.151l40.341 75.953c.765 1.438.953 3.075.519 4.495-.344 1.122-1.059 2.019-2.014 2.525-.577.306-1.209.462-1.879.462z"/><path fill="#58595B" d="M80.035 112.012c1.704 0 3.407 1.134 4.339 2.887l40.341 75.954c.702 1.32.878 2.819.481 4.114-.304.993-.933 1.785-1.77 2.229-.504.268-1.058.403-1.645.403-1.703 0-3.406-1.133-4.338-2.886l-40.341-75.953c-.641-1.205-.845-2.542-.574-3.764.257-1.164.919-2.081 1.864-2.583.504-.266 1.057-.401 1.643-.401m0-1c-.728 0-1.447.167-2.11.52-2.498 1.326-3.26 4.773-1.704 7.699l40.341 75.952c1.141 2.147 3.212 3.417 5.221 3.417.729 0 1.449-.168 2.113-.521 2.494-1.323 3.258-4.771 1.702-7.696l-40.341-75.953c-1.141-2.148-3.213-3.418-5.222-3.418z"/><path fill="#fff" d="M109.501 204.436c-2.042 0-3.904-1.119-4.861-2.92l-40.342-75.952c-.69-1.298-.833-2.785-.403-4.19.43-1.404 1.382-2.559 2.68-3.248.793-.42 1.683-.643 2.574-.643 2.042 0 3.906 1.119 4.864 2.921l40.341 75.951c.688 1.297.831 2.785.401 4.19s-1.381 2.559-2.678 3.247c-.794.421-1.684.644-2.576.644z"/><path fill="#58595B" d="M69.148 117.982c1.856 0 3.552 1.018 4.423 2.655l40.341 75.951c.626 1.18.756 2.532.364 3.81-.391 1.277-1.255 2.326-2.434 2.952-.722.383-1.531.585-2.342.585-1.856 0-3.55-1.017-4.42-2.654l-40.342-75.953c-.627-1.179-.758-2.531-.366-3.809.391-1.277 1.256-2.326 2.436-2.952.721-.382 1.531-.585 2.34-.585m0-1c-.949 0-1.912.226-2.809.701-2.928 1.556-4.04 5.188-2.483 8.114l40.342 75.952c1.077 2.029 3.154 3.186 5.303 3.186.949 0 1.913-.226 2.811-.702 2.926-1.554 4.037-5.188 2.483-8.113l-40.341-75.951c-1.08-2.03-3.157-3.187-5.306-3.187z"/><path fill="#fff" stroke="#58595B" stroke-width="2" stroke-miterlimit="10" d="M35.713 72.807l10.6-5.629 22.043 41.51-10.6 5.629zM46.308 67.18l-10.598 5.63-9.291-6.388-5.752-18.461 13.475-7.156 12.075 15.099z"/><path stroke="#58595B" stroke-width="2" stroke-miterlimit="10" fill="none" d="M25.72 66.793l21.197-11.26"/><path fill="#fff" stroke="#58595B" stroke-width="2" stroke-miterlimit="10" d="M73.804 102.963c.65 1.217.187 2.731-1.033 3.38l-19.429 10.319c-1.22.649-2.732.184-3.382-1.034-.648-1.219-.183-2.732 1.035-3.381l19.431-10.32c1.22-.648 2.732-.185 3.378 1.036z"/></g></svg>