<svg version="1" xmlns="http://www.w3.org/2000/svg" xmlns:xlink="http://www.w3.org/1999/xlink" width="182.896" height="159.566" viewBox="0 0 182.896 159.566"><g><path fill="#D1D3D4" d="M78.394 158.566c-38.047 0-69-30.953-69-69s30.953-69 69-69 69 30.953 69 69-30.954 69-69 69z"/><path fill="#58595B" d="M78.394 21.566c37.556 0 68 30.445 68 68s-30.444 68-68 68c-37.555 0-68-30.445-68-68s30.445-68 68-68m0-2c-38.599 0-70 31.402-70 70s31.401 70 70 70 70-31.402 70-70-31.402-70-70-70z"/></g><defs><path id="a" d="M173.396 0h-173.396s13.75 46.9 15.583 62.4c-1.416 4.083-3 8.25-3.917 12.583-2.066 9.765-1.104 19.418-1.056 20.046 2.735 35.048 32.035 62.637 67.785 62.637 27.574 0 51.303-16.422 61.972-40.014.146-.325 42.529-8.819 42.529-8.819l-9.5-108.833z"/></defs><clipPath id="b"><use xlink:href="#a" overflow="visible"/></clipPath><g clip-path="url(#b)"><path fill="#fff" d="M12.947 31.793c-.157-1.728.367-3.414 1.479-4.748s2.677-2.155 4.407-2.312l103.575-9.4c.199-.018.396-.027.592-.027 3.38 0 6.16 2.542 6.467 5.914l.951 10.459-116.523 10.573-.948-10.459z"/><path fill="#58595B" d="M123 15.807c3.069 0 5.686 2.342 5.969 5.459l.906 9.961-115.527 10.482-.902-9.961c-.301-3.298 2.13-6.217 5.433-6.516l103.575-9.4c.183-.017.364-.025.546-.025m0-1c-.211 0-.423.01-.637.029l-103.576 9.4c-1.862.169-3.548 1.053-4.745 2.489-1.196 1.436-1.763 3.252-1.593 5.114l.902 9.96.091.996.995-.09 115.527-10.481.997-.09-.091-.997-.906-9.961c-.329-3.631-3.323-6.369-6.964-6.369z"/><path fill="#fff" d="M31.426 170.163c-3.379 0-6.154-2.542-6.458-5.912l-11.163-122.994 116.523-10.572 11.16 122.992c.323 3.568-2.318 6.736-5.888 7.063l-103.574 9.396c-.201.018-.401.027-.6.027z"/><path fill="#58595B" d="M129.875 31.228l11.115 122.494c.299 3.3-2.135 6.217-5.436 6.519l-103.573 9.396c-.187.018-.372.025-.556.025-3.067 0-5.68-2.344-5.96-5.457l-11.117-122.496 115.527-10.481m.905-1.086l-.995.09-115.527 10.481-.996.09.09.996 11.118 122.498c.327 3.629 3.317 6.366 6.956 6.366.214 0 .43-.01.647-.029l103.571-9.396c3.846-.352 6.689-3.764 6.342-7.605l-11.115-122.495-.091-.996z"/><path fill="#fff" stroke="#58595B" stroke-miterlimit="10" d="M26.002 31.864c.166 1.789-1.151 3.37-2.941 3.528-1.785.163-3.367-1.152-3.531-2.941-.163-1.785 1.158-3.369 2.942-3.53 1.79-.162 3.37 1.157 3.53 2.943zM35.963 30.962c.161 1.788-1.148 3.368-2.941 3.532-1.784.159-3.367-1.157-3.53-2.946-.161-1.786 1.155-3.366 2.947-3.528 1.784-.164 3.365 1.155 3.524 2.942zM45.923 30.058c.161 1.787-1.156 3.366-2.942 3.53-1.786.163-3.368-1.154-3.533-2.944-.158-1.787 1.155-3.366 2.941-3.53 1.793-.161 3.372 1.156 3.534 2.944z"/><g stroke="#58595B" stroke-miterlimit="10" fill="none"><path d="M21.253 46.909l48.364-4.498 6.05 65.052-48.364 4.498zM75.588 41.857l48.362-4.498 2.839 30.532-48.362 4.498zM129.942 101.742l-48.36 4.499-2.659-28.542 48.367-4.503zM82.071 111.555l48.362-4.498 2.654 28.542-48.362 4.498zM27.796 117.27l48.364-4.498 1.975 21.241-48.364 4.498zM30.188 143.877l48.359-4.497 1.976 21.244-48.359 4.497z"/></g></g><g clip-path="url(#b)"><path fill="#fff" d="M31.979 34.644l1.323-10.922c.425-3.512 3.409-6.16 6.942-6.16.28 0 .563.017.849.051l103.244 12.491c3.832.465 6.572 3.961 6.108 7.793l-1.318 10.92-117.148-14.173z"/><path fill="#58595B" d="M40.245 18.562c.24 0 .483.014.729.044l103.244 12.491c3.292.4 5.634 3.389 5.235 6.68l-1.198 9.928-115.162-13.934 1.203-9.929c.368-3.045 2.956-5.28 5.949-5.28m0-2c-4.038 0-7.45 3.026-7.935 7.04l-1.203 9.928-.241 1.986 1.986.24 115.163 13.934 1.986.241.239-1.986 1.198-9.928c.53-4.378-2.601-8.374-6.979-8.905l-103.245-12.491c-.321-.039-.648-.059-.969-.059z"/><path fill="#fff" d="M127.525 176.094c-.277 0-.559-.017-.842-.05l-103.247-12.494c-1.856-.226-3.515-1.159-4.668-2.631-1.154-1.472-1.665-3.304-1.438-5.16l14.89-123.101 117.148 14.174-14.896 123.103c-.423 3.51-3.409 6.159-6.947 6.159z"/><path fill="#58595B" d="M33.093 33.771l115.162 13.934-14.776 122.11c-.366 3.045-2.958 5.279-5.953 5.279-.238 0-.479-.014-.723-.043l-103.247-12.494c-3.291-.398-5.635-3.389-5.234-6.676l14.771-122.11m-1.745-2.226l-.24 1.985-14.772 122.11c-.258 2.12.326 4.213 1.645 5.896 1.318 1.682 3.213 2.749 5.335 3.006l103.247 12.494c.32.039.644.058.963.058 4.043 0 7.456-3.026 7.938-7.04l14.776-122.109.24-1.985-1.985-.24-115.162-13.934-1.985-.241z"/><path fill="#fff" stroke="#58595B" stroke-width="2" stroke-miterlimit="10" d="M46.554 26.582c-.217 1.785-1.834 3.055-3.618 2.836-1.777-.215-3.051-1.834-2.835-3.615.214-1.78 1.834-3.052 3.615-2.837 1.783.216 3.055 1.837 2.838 3.616zM56.479 27.787c-.215 1.783-1.829 3.052-3.614 2.835-1.781-.217-3.053-1.836-2.836-3.618.215-1.783 1.834-3.051 3.618-2.834 1.784.214 3.05 1.835 2.832 3.617zM66.406 28.986c-.213 1.783-1.832 3.051-3.612 2.837-1.782-.217-3.053-1.834-2.837-3.618.217-1.78 1.832-3.05 3.614-2.836 1.783.217 3.054 1.836 2.835 3.617z"/><g stroke="#58595B" stroke-miterlimit="10" fill="none"><path d="M38.76 40.295l48.232 5.722-7.697 64.879-48.232-5.722zM92.949 46.723l48.232 5.722-3.612 30.451-48.232-5.722zM88.703 82.48l48.229 5.726-3.38 28.464-48.229-5.726zM84.702 116.234l48.232 5.722-2.624 22.123-48.232-5.722zM30.437 110.469l48.23 5.722-2.513 21.182-48.23-5.722zM27.2 136.986l48.231 5.722-2.513 21.187-48.231-5.722zM81.218 143.424l48.231 5.727-2.515 21.186-48.231-5.727z"/></g></g><g clip-path="url(#b)" fill="#fff" stroke="#58595B" stroke-width="2" stroke-miterlimit="10"><path d="M98.191 147.569c.548 2.499-1.037 4.969-3.535 5.514l-104.048 22.754c-2.499.545-4.964-1.042-5.512-3.536l-17.331-74.525c-.547-2.498 1.039-4.965 3.535-5.513l104.05-22.748c2.499-.543 4.966 1.038 5.512 3.536l17.329 74.518zM48.699 77.712l-3.954-18.096c-.547-2.498-3.016-4.081-5.511-3.535l-40.716 8.901c-.199.043-.383.119-.57.186l-.596.13c-2.497.545-4.083 3.014-3.533 5.513l3.954 18.095 4.524-.988-.013-.059 1.179-.257-2.637-12.065c-.318-1.464.458-2.913 1.784-3.488l34.089-7.453c1.663-.363 3.31.691 3.676 2.358l2.636 12.063 4.522-.988-.013-.059 1.179-.258zM-30.601 93.169c.537-.431 1.181-.75 1.901-.907l104.05-22.747c.777-.17 1.553-.132 2.268.074.006 0-27.617 51.978-27.617 51.978l-55.843 10.816c-.001 0-24.757-39.213-24.759-39.214zM19.768 122.413l16.586-3.625 2.965 13.568-16.586 3.625zM23.928 127.032l10.554-2.307 1.812 8.293-10.554 2.307z"/></g><g clip-path="url(#b)" stroke="#58595B" stroke-width="2" stroke-miterlimit="10"><path fill="#fff" d="M142.42 22.206c1.563-.531 2.842-1.778 3.325-3.478.805-2.764-.79-5.655-3.552-6.454-2.76-.804-5.65.791-6.452 3.553-.487 1.693-.074 3.435.948 4.713-11.505 30.548-46.332 43.312-46.332 43.312s4.638 19.581.077 35.309l49.045 14.208c4.557-15.726 18.938-29.792 18.938-29.792s-22.604-29.41-15.997-61.371z"/><path fill="none" d="M142.195 12.27l-20.011 69.063M115.466 78.298l14.01 4.065"/><path fill="#fff" d="M79.55 126.486l52.966 15.347-13.196 45.543-52.966-15.347zM142.485 118.139c-.567 1.935-2.508 3.073-4.343 2.54l-51.827-15.016c-1.833-.533-2.873-2.535-2.313-4.469.565-1.937 2.515-3.071 4.349-2.54l51.818 15.018c1.841.536 2.881 2.537 2.316 4.467zM140.456 125.145c-.559 1.935-2.505 3.073-4.346 2.538l-51.815-15.018c-1.841-.529-2.874-2.531-2.311-4.469.556-1.929 2.502-3.066 4.331-2.535l51.827 15.017c1.837.534 2.876 2.535 2.314 4.467zM138.424 132.148c-.561 1.937-2.507 3.073-4.347 2.54l-51.819-15.019c-1.837-.527-2.87-2.532-2.313-4.465.559-1.931 2.509-3.068 4.35-2.539l51.815 15.018c1.841.534 2.875 2.537 2.314 4.465zM136.392 139.155c-.563 1.94-2.508 3.074-4.341 2.539l-51.819-15.017c-1.841-.53-2.877-2.531-2.317-4.468.561-1.931 2.507-3.068 4.344-2.541l51.819 15.019c1.839.534 2.872 2.539 2.314 4.468zM134.286 146.285c-.561 1.938-2.504 3.075-4.34 2.54l-51.816-15.021c-1.842-.528-2.877-2.529-2.321-4.464.561-1.932 2.514-3.066 4.349-2.541l51.817 15.021c1.838.533 2.873 2.535 2.311 4.465z"/></g></svg>