<svg version="1" xmlns="http://www.w3.org/2000/svg" xmlns:xlink="http://www.w3.org/1999/xlink" width="192.667" height="159.666" viewBox="0 0 192.667 159.666"><g><path fill="#D1D3D4" d="M97 158.666c-38.047 0-69-30.953-69-69s30.953-69 69-69 69 30.953 69 69-30.953 69-69 69z"/><path fill="#58595B" d="M97 21.666c37.555 0 68 30.445 68 68s-30.445 68-68 68-68-30.445-68-68 30.445-68 68-68m0-2c-38.598 0-70 31.402-70 70s31.402 70 70 70 70-31.402 70-70-31.402-70-70-70z"/></g><defs><path id="a" d="M192 0h-192l16.667 95.666 2.667 3.333c.017 3.522 9.977-2.017 10.51 1.359 5.129 32.476 33.24 57.308 67.157 57.308 27.625 0 51.386-16.48 62.027-40.139.866-1.925 14.953 28.82 15.64 26.806l18-6.667-.668-137.666z"/></defs><clipPath id="b"><use xlink:href="#a" overflow="visible"/></clipPath><g clip-path="url(#b)"><defs><path id="c" d="M192 0h-192l29 90 .008.001c.182 37.4 30.549 67.665 67.992 67.665 29.872 0 55.226-19.271 64.358-46.051l3.741-14.551 26.901-97.064z"/></defs><clipPath id="d"><use xlink:href="#c" overflow="visible"/></clipPath><g clip-path="url(#d)"><path fill="#fff" d="M55.644 25.655l2.469-10.204c.707-2.927 3.301-4.971 6.309-4.971.514 0 1.031.062 1.535.184l101.089 24.438c3.481.846 5.629 4.366 4.788 7.85l-2.465 10.207-113.725-27.504z"/><path fill="#58595B" d="M64.421 10.98c.467 0 .943.055 1.417.17l101.089 24.438c3.219.781 5.198 4.023 4.42 7.246l-2.347 9.721-112.753-27.268 2.352-9.719c.663-2.746 3.116-4.588 5.822-4.588m0-1c-3.239 0-6.033 2.201-6.795 5.353l-2.352 9.719-.235.973.972.234 112.753 27.268.972.235.235-.973 2.348-9.721c.906-3.75-1.407-7.542-5.156-8.452l-101.089-24.437c-.543-.132-1.099-.199-1.653-.199z"/><path fill="#fff" d="M134.255 177.198c-.511 0-1.023-.061-1.524-.181l-101.087-24.446c-1.687-.406-3.115-1.446-4.02-2.929-.905-1.482-1.178-3.228-.769-4.915l29.023-120.043 113.725 27.503-29.028 120.04c-.709 2.927-3.308 4.971-6.32 4.971z"/><path fill="#58595B" d="M56.247 25.287l112.753 27.268-28.91 119.555c-.665 2.744-3.125 4.589-5.835 4.589-.464 0-.936-.054-1.407-.167l-101.086-24.447c-3.221-.775-5.202-4.02-4.421-7.239l28.906-119.559m-.737-1.207l-.235.972-28.906 119.558c-.44 1.816-.146 3.696.829 5.293.975 1.596 2.513 2.716 4.331 3.154l101.085 24.445c.541.13 1.092.195 1.642.195 3.244 0 6.043-2.201 6.807-5.354l28.909-119.553.235-.973-.972-.234-112.753-27.268-.972-.235z"/><path fill="#fff" stroke="#58595B" stroke-miterlimit="10" d="M70.451 19.723c-.42 1.742-2.177 2.817-3.919 2.393-1.742-.422-2.818-2.178-2.394-3.923.415-1.739 2.178-2.815 3.92-2.394 1.744.42 2.819 2.179 2.393 3.924z"/><circle fill="#fff" stroke="#58595B" stroke-miterlimit="10" cx="77.014" cy="21.31" r="3.25"/><path fill="#fff" stroke="#58595B" stroke-miterlimit="10" d="M89.89 24.427c-.418 1.739-2.176 2.812-3.916 2.392-1.748-.422-2.818-2.179-2.397-3.925.424-1.741 2.175-2.813 3.92-2.395 1.748.421 2.819 2.181 2.393 3.928z"/><path fill="#fff" d="M33.495 36.721c-.143-1.862.449-3.669 1.666-5.088 1.217-1.42 2.915-2.28 4.778-2.423l103.697-7.926.539-.021c3.632 0 6.696 2.841 6.975 6.468l.84 10.971-117.66 8.991-.835-10.972z"/><path fill="#58595B" d="M144.176 22.264c3.107 0 5.735 2.396 5.978 5.544l.764 9.974-115.666 8.838-.76-9.976c-.253-3.299 2.22-6.185 5.523-6.438l103.697-7.926.464-.016m0-2c-.204 0-.409.008-.615.023l-103.698 7.926c-2.13.163-4.07 1.146-5.461 2.769-1.391 1.622-2.067 3.688-1.904 5.816l.76 9.975.152 1.994 1.995-.152 115.665-8.839 1.995-.152-.153-1.994-.764-9.974c-.319-4.146-3.821-7.392-7.972-7.392z"/><path fill="#fff" d="M50.787 175.721c-3.634 0-6.696-2.839-6.972-6.462l-9.454-123.641 117.659-8.994 9.449 123.638c.295 3.846-2.596 7.218-6.445 7.516l-103.696 7.922c-.182.014-.362.021-.541.021z"/><path fill="#58595B" d="M151.1 37.697l9.373 122.641c.254 3.305-2.222 6.187-5.525 6.442l-103.695 7.923-.465.018c-3.107 0-5.735-2.394-5.975-5.538l-9.378-122.644 115.665-8.842m1.841-2.146l-1.994.152-115.665 8.842-1.994.152.152 1.994 9.378 122.644c.315 4.142 3.815 7.386 7.969 7.386.205 0 .41-.008.617-.023l103.695-7.923c4.401-.341 7.705-4.194 7.367-8.59l-9.373-122.64-.152-1.994z"/><path fill="#fff" stroke="#58595B" stroke-width="2" stroke-miterlimit="10" d="M47.048 36.941c.139 1.79-1.2 3.354-2.991 3.486-1.789.139-3.353-1.202-3.489-2.991-.139-1.788 1.204-3.352 2.992-3.487 1.79-.136 3.352 1.203 3.488 2.992zM57.02 36.18c.136 1.79-1.199 3.352-2.991 3.488-1.789.137-3.353-1.204-3.49-2.996-.135-1.786 1.204-3.348 2.996-3.484 1.788-.139 3.349 1.202 3.485 2.992zM66.989 35.418c.138 1.791-1.202 3.35-2.988 3.488-1.793.135-3.354-1.203-3.491-2.993-.135-1.79 1.204-3.348 2.992-3.487 1.792-.137 3.353 1.202 3.487 2.992z"/></g></g><g clip-path="url(#b)"><path fill="#fff" stroke="#58595B" stroke-linecap="round" stroke-linejoin="round" stroke-miterlimit="10" d="M77.689 87.265l2.614-7.561c.721-2.088 2.998-3.195 5.084-2.474l41.589 14.366c2.088.724 3.195 3.003 2.473 5.091l-28.082 81.283c-.722 2.092-2.999 3.196-5.087 2.474l-41.586-14.368c-2.089-.721-3.196-2.996-2.474-5.083l2.611-7.563 22.858-66.165z"/><path fill="#58595B" d="M83.183 146.519l.678-1.964c.226-.654-.025-1.378-.608-1.752-2.356-1.511-3.348-4.459-2.412-7.169l1.503-4.348.868.191-1.536 4.443c-.464 1.345-.376 2.79.247 4.069s1.706 2.239 3.049 2.702c.561.194 1.145.292 1.736.292 2.273 0 4.297-1.44 5.036-3.586l1.178-3.406c.565-1.64.11-3.238-.045-3.696-.007-.022-4.933-12.842-4.933-12.842-.071-.198-.751-2.202-.039-4.263l.814-2.359c.876-2.53 3.152-4.167 5.799-4.167.178 0 .358.008.539.023l.127.005c.634 0 1.207-.402 1.417-1.011l.646-1.872.868.191-.68 1.97c-.223.645.018 1.359.586 1.737 2.353 1.567 3.354 4.52 2.434 7.178l-1.229 3.562-.871-.192 1.264-3.655c.958-2.775-.519-5.814-3.292-6.774-.563-.194-1.146-.292-1.736-.292-2.271 0-4.296 1.44-5.039 3.585l-.815 2.364c-.6 1.735-.068 3.316.045 3.615l4.917 12.8c.007.018.81 2.198.056 4.381l-1.178 3.408c-.862 2.498-3.182 4.176-5.772 4.176-.183 0-.367-.009-.552-.025l-.14-.007c-.634 0-1.207.401-1.417 1.011l-.645 1.868-.868-.191z"/></g><g clip-path="url(#b)"><path fill="#fff" stroke="#58595B" stroke-width="2" stroke-linecap="round" stroke-linejoin="round" stroke-miterlimit="10" d="M25.727 84.192l-1.633-7.83c-.452-2.161.935-4.281 3.096-4.731l43.073-8.992c2.164-.449 4.279.939 4.733 3.102l17.571 84.184c.453 2.166-.936 4.283-3.097 4.732l-43.074 8.99c-2.16.453-4.277-.934-4.729-3.094l-1.636-7.834-14.304-68.527z"/><path fill="#58595B" d="M61.45 132.89c-.095-.452-.486-.781-.947-.795-3.03-.097-5.587-2.28-6.22-5.313l-1.029-4.941 1.798-.597 1.075 5.15c.465 2.226 2.45 3.84 4.719 3.84.332 0 .666-.035.993-.104 1.258-.262 2.341-1.001 3.048-2.08.707-1.079.952-2.367.689-3.628l-.736-3.527c-.32-1.533-1.427-2.583-1.762-2.87-.014-.013-10.813-8.486-10.813-8.486-.017-.013-1.898-1.525-2.4-3.929l-.51-2.44c-.634-3.047.807-6.006 3.587-7.363.412-.2.634-.655.54-1.104l-.498-2.375 1.8-.598.54 2.589c.093.445.475.772.929.795 3.051.151 5.615 2.336 6.235 5.311l.863 4.124-1.801.599-.905-4.338c-.465-2.225-2.452-3.84-4.725-3.84-.329 0-.66.034-.984.102-2.603.546-4.28 3.106-3.74 5.709l.513 2.447c.373 1.786 1.75 2.818 1.763 2.828l10.733 8.43c.026.021 1.961 1.563 2.475 4.023l.736 3.531c.635 3.025-.835 6.05-3.575 7.356-.416.198-.643.655-.548 1.106l.496 2.372-1.799.6-.54-2.584z"/></g><path fill="#fff" stroke="#58595B" stroke-width="2" stroke-miterlimit="10" d="M128.309 136.073c1.104 4.128-1.348 8.367-5.477 9.471-4.127 1.103-8.368-1.349-9.471-5.479-1.105-4.121 1.351-8.364 5.477-9.47 4.128-1.106 8.37 1.351 9.471 5.478z"/><path fill="#fff" d="M120.833 142.985c-2.219 0-4.171-1.5-4.746-3.646-.339-1.269-.164-2.593.493-3.73.658-1.137 1.718-1.95 2.986-2.288.417-.112.846-.169 1.273-.169 2.22 0 4.171 1.501 4.746 3.65.339 1.268.164 2.591-.494 3.728-.658 1.138-1.719 1.95-2.988 2.288-.416.111-.844.167-1.27.167z"/><path fill="#58595B" d="M120.839 133.651c1.994 0 3.746 1.349 4.263 3.28.304 1.138.146 2.326-.444 3.348s-1.544 1.752-2.684 2.056c-.374.1-.758.15-1.141.15-1.994 0-3.746-1.347-4.263-3.276-.305-1.139-.147-2.328.443-3.35.59-1.021 1.543-1.752 2.683-2.057.375-.1.76-.151 1.143-.151m0-1c-.463 0-.934.061-1.402.186-2.889.771-4.607 3.742-3.833 6.631.648 2.42 2.837 4.018 5.229 4.018.462 0 .932-.06 1.399-.185 2.891-.771 4.608-3.742 3.836-6.628-.648-2.421-2.836-4.022-5.229-4.022z"/><path fill="#fff" stroke="#58595B" stroke-linecap="round" stroke-linejoin="round" stroke-miterlimit="10" d="M183.703 61.281l-.979-3.673-24.997 6.834-2.62-12.978-3.286.877 2.626 12.999-29.455 8.054-4.791-12.605-3.382.902 4.799 12.626-29.51 8.069.98 3.673 29.855-8.163 4.265 10.257-27.541 8.997 2.493 3.38 26.328-8.599 4.526 12.359 3.382-.903-4.597-12.539 26.072-8.517 2.451 11.207 3.285-.876-2.479-11.397 22.812-7.451-.922-3.892-22.619 7.39-1.874-9.148 25.178-6.883zm-26.56 17.094l-26.621 8.696-3.913-10.177 28.442-7.78 2.092 9.261z"/><path fill="#fff" d="M84.86 69.823l22.654 44.824 76.371-29.201-1.119-41.78-97.906 26.157zm94.79 13.33l-70.002 26.18-18.671-37.02 87.826-23.464.847 34.304z"/><path stroke="#58595B" stroke-width="2" stroke-linecap="round" stroke-linejoin="round" stroke-miterlimit="10" fill="none" d="M84.86 69.823l22.654 44.824 76.371-29.201-1.119-41.78z"/><path stroke="#58595B" stroke-linecap="round" stroke-linejoin="round" stroke-miterlimit="10" fill="none" d="M179.65 83.153l-70.002 26.18-18.671-37.02 87.826-23.463z"/><path fill="#fff" stroke="#58595B" stroke-width="2" stroke-linecap="round" stroke-linejoin="round" stroke-miterlimit="10" d="M122.238 123.907l-.647 14.621-.148.038-7.85-12.347z"/><path stroke="#58595B" stroke-width="2" stroke-miterlimit="10" d="M186.357 120.562c1.1 4.128-1.35 8.369-5.48 9.471-4.127 1.105-8.368-1.348-9.471-5.477-1.104-4.125 1.35-8.37 5.479-9.471 4.127-1.106 8.367 1.35 9.472 5.477z" fill="none"/><path fill="#58595B" d="M178.887 118.142c1.993 0 3.744 1.348 4.259 3.28.306 1.137.148 2.325-.442 3.347s-1.544 1.752-2.682 2.057c-.375.1-.76.15-1.144.15-1.994 0-3.747-1.348-4.264-3.277-.305-1.139-.147-2.328.444-3.35.591-1.021 1.544-1.751 2.686-2.056.374-.101.759-.151 1.143-.151m-.001-1c-.463 0-.934.06-1.401.186-2.891.771-4.609 3.741-3.836 6.63.648 2.423 2.836 4.019 5.229 4.019.463 0 .933-.06 1.401-.185 2.887-.772 4.607-3.742 3.832-6.629-.644-2.42-2.834-4.022-5.225-4.021z"/><path fill="#fff" stroke="#58595B" stroke-width="2" stroke-linecap="round" stroke-linejoin="round" stroke-miterlimit="10" d="M180.285 108.399l-.648 14.62-.145.037-7.856-12.346zM186.652 102.269l-74.434 19.879-.777-8.337-33.274-66.726c-.674-.979-1.901-1.481-3.112-1.158l-7.915 2.113c-1.54.411-2.452 1.995-2.042 3.528.412 1.539 1.993 2.453 3.529 2.04l7.224-1.93 31.477 62.999 1.348 12.539 79.005-21.093c1.012-.27 1.59-1.399 1.318-2.411-.269-1.012-1.335-1.713-2.347-1.443z"/></svg>