<svg version="1" xmlns="http://www.w3.org/2000/svg" xmlns:xlink="http://www.w3.org/1999/xlink" width="192" height="159.667" viewBox="0 0 192 159.667"><g><path fill="#D1D3D4" d="M97 158.667c-38.047 0-69-30.953-69-69s30.953-69 69-69 69 30.953 69 69-30.953 69-69 69z"/><path fill="#58595B" d="M97 21.667c37.555 0 68 30.445 68 68s-30.445 68-68 68-68-30.445-68-68 30.445-68 68-68m0-2c-38.598 0-70 31.402-70 70s31.402 70 70 70 70-31.402 70-70-31.402-70-70-70z"/></g><defs><path id="a" d="M192 0h-192l29 90 .008.001c.182 37.4 30.549 67.665 67.992 67.665 29.872 0 55.226-19.271 64.358-46.051l30.642 2.718v-114.333z"/></defs><clipPath id="b"><use xlink:href="#a" overflow="visible"/></clipPath><g clip-path="url(#b)"><path fill="#fff" d="M32.647 28.138c-.104-1.732.474-3.4 1.625-4.698 1.153-1.298 2.743-2.069 4.477-2.171l103.816-6.176.391-.012c3.431 0 6.278 2.687 6.483 6.116l.625 10.482-116.798 6.942-.619-10.483z"/><path fill="#58595B" d="M142.956 15.581c3.15 0 5.794 2.459 5.984 5.646l.596 9.983-115.8 6.882-.59-9.984c-.198-3.306 2.323-6.146 5.633-6.341l103.816-6.176.361-.01m0-1l-.42.013-103.817 6.176c-1.867.109-3.579.94-4.82 2.338s-1.863 3.195-1.751 5.061l.59 9.983.059.999.999-.06 115.8-6.882.999-.059-.06-.999-.596-9.983c-.221-3.694-3.288-6.587-6.983-6.587z"/><path fill="#fff" d="M47.021 167.019c-3.432 0-6.278-2.686-6.481-6.113l-7.333-123.283 116.798-6.941 7.327 123.282c.212 3.576-2.525 6.659-6.102 6.873l-103.815 6.171-.394.011z"/><path fill="#58595B" d="M149.536 31.21l7.297 122.783c.196 3.305-2.325 6.146-5.633 6.344l-103.815 6.171-.363.011c-3.152 0-5.794-2.458-5.982-5.643l-7.304-122.784 115.8-6.882m.939-1.057l-.998.06-115.8 6.882-.999.059.06.999 7.304 122.784c.218 3.691 3.284 6.583 6.98 6.583l.422-.013 103.815-6.171c3.853-.23 6.801-3.551 6.572-7.401l-7.297-122.784-.059-.998z"/><path fill="#fff" stroke="#58595B" stroke-miterlimit="10" d="M45.695 28.615c.107 1.794-1.258 3.332-3.05 3.436-1.79.106-3.331-1.258-3.437-3.05-.109-1.788 1.261-3.331 3.049-3.437 1.793-.106 3.333 1.26 3.438 3.051z"/><circle fill="#fff" stroke="#58595B" stroke-miterlimit="10" cx="52.435" cy="28.216" r="3.249"/><path fill="#fff" stroke="#58595B" stroke-miterlimit="10" d="M65.659 27.432c.108 1.789-1.258 3.328-3.047 3.436-1.793.105-3.331-1.26-3.439-3.055-.104-1.791 1.258-3.327 3.05-3.434 1.794-.108 3.332 1.258 3.436 3.053z"/><g stroke="#58595B" stroke-miterlimit="10" fill="none"><path d="M39.79 44.31l48.43-3.701 4.978 65.145-48.43 3.701zM94.2 40.15l48.432-3.701 2.337 30.575-48.432 3.701zM96.95 76.041l48.429-3.706 2.187 28.585-48.429 3.706zM45.183 114.769l48.43-3.706 1.628 21.27-48.43 3.706zM47.122 141.405l48.431-3.701 1.484 19.414-48.431 3.701zM99.251 110.512l48.431-3.706 1.628 21.27-48.431 3.706zM101.188 137.166l48.431-3.701 1.484 19.413-48.431 3.701z"/></g><path fill="#fff" d="M61.832 27.438l3.685-10.37c.988-2.785 3.639-4.657 6.594-4.657.797 0 1.585.136 2.343.405l98.006 34.796c3.635 1.292 5.543 5.301 4.253 8.938l-3.679 10.369-111.202-39.481z"/><path fill="#58595B" d="M72.111 13.411c.667 0 1.344.112 2.008.348l98.006 34.796c3.123 1.109 4.753 4.539 3.646 7.662l-3.345 9.426-109.317-38.813 3.35-9.427c.872-2.457 3.184-3.992 5.652-3.992m0-2c-3.378 0-6.407 2.139-7.537 5.323l-3.35 9.426-.669 1.885 1.885.669 109.316 38.813 1.885.669.669-1.885 3.345-9.426c1.475-4.157-.706-8.74-4.861-10.216l-98.006-34.795c-.865-.308-1.766-.463-2.677-.463z"/><path fill="#fff" d="M125.815 186.545c-.796 0-1.583-.136-2.34-.404l-98.004-34.799c-1.763-.626-3.176-1.9-3.98-3.587-.803-1.688-.901-3.587-.275-5.348l41.486-116.854 111.201 39.481-41.489 116.852c-.988 2.786-3.641 4.659-6.599 4.659z"/><path fill="#58595B" d="M63.31 26.83l109.316 38.813-41.154 115.909c-.873 2.459-3.187 3.994-5.657 3.994-.666 0-1.343-.111-2.006-.347l-98.003-34.799c-3.125-1.109-4.756-4.538-3.647-7.658l41.151-115.912m-1.216-2.554l-.669 1.885-41.151 115.912c-.715 2.012-.604 4.183.314 6.112.918 1.929 2.534 3.385 4.548 4.1l98.003 34.799c.866.307 1.765.462 2.675.462 3.381 0 6.412-2.141 7.542-5.325l41.154-115.909.669-1.884-1.885-.669-109.315-38.814-1.885-.669z"/><path fill="#fff" stroke="#58595B" stroke-width="2" stroke-miterlimit="10" d="M77.816 22.763c-.6 1.693-2.458 2.579-4.148 1.975-1.69-.599-2.577-2.458-1.976-4.148.599-1.69 2.459-2.576 4.149-1.975 1.692.599 2.578 2.458 1.975 4.148zM87.241 26.111c-.602 1.691-2.456 2.577-4.149 1.975-1.69-.601-2.576-2.459-1.975-4.152.601-1.688 2.458-2.573 4.151-1.972 1.691.599 2.574 2.458 1.973 4.149zM96.664 29.457c-.6 1.691-2.458 2.574-4.147 1.976-1.693-.603-2.577-2.458-1.977-4.15.603-1.69 2.457-2.573 4.148-1.976 1.695.601 2.578 2.458 1.976 4.15z"/></g><g clip-path="url(#b)" fill="#fff" stroke="#58595B" stroke-width="2" stroke-miterlimit="10"><path d="M172.145 90.05c-12.662 20.585-39.615 27.011-60.201 14.351-20.588-12.662-27.012-39.613-14.351-60.2 12.659-20.587 39.61-27.015 60.199-14.354 20.587 12.661 27.014 39.612 14.353 60.203zM142.666 95.806c-15.844 4.307-32.175-5.045-36.48-20.887-4.306-15.844 5.048-32.175 20.89-36.478 15.84-4.307 32.172 5.045 36.478 20.887 4.303 15.84-5.048 32.174-20.888 36.478zM80.536 179.723c-2.382 3.875-7.459 5.086-11.338 2.7l-2.338-1.437c-3.877-2.385-5.087-7.463-2.705-11.338l35.02-56.943c2.385-3.878 7.462-5.088 11.338-2.704l2.341 1.441c3.878 2.383 5.088 7.458 2.703 11.336l-35.021 56.945zM110.36 104.52l7.453 4.583-2.62 4.26-7.453-4.583z"/></g><g clip-path="url(#b)"><path stroke="#58595B" stroke-miterlimit="10" fill="none" d="M101 93.667l-21 23-16-54-26 35-9-13"/><path stroke="#58595B" stroke-width="2" stroke-miterlimit="10" fill="none" d="M113 86.667l21.198-23"/><defs><path id="c" d="M169.713 6.565c-33.725-18.981-76.447-7.03-95.425 26.693-18.982 33.721-7.036 76.444 26.688 95.427 33.72 18.98 76.446 7.031 95.429-26.689 18.982-33.725 7.031-76.448-26.692-95.431zm3.768 82.528c-2.29 4.068-5.133 7.628-8.381 10.64-9.045 8.386-6.434 7.6-24.1 10.934-5.998 1.132-21.453-1.715-27.12-4.905-21.062-11.856-28.523-38.539-16.668-59.6 11.853-21.062 38.536-28.526 59.599-16.671 21.062 11.856 28.526 38.538 16.67 59.602z"/></defs><clipPath id="d"><use xlink:href="#c" overflow="visible"/></clipPath><path clip-path="url(#d)" stroke="#58595B" stroke-miterlimit="10" fill="none" d="M135 101.667l6 31 30-92"/><defs><path id="e" d="M157.298 85.309c-10.379 12.72-29.101 14.619-41.822 4.242-12.72-10.379-14.618-29.104-4.239-41.821 10.375-12.722 29.101-14.619 41.82-4.243 12.718 10.378 14.619 29.103 4.241 41.822z"/></defs><clipPath id="f"><use xlink:href="#e" overflow="visible"/></clipPath><path clip-path="url(#f)" stroke="#58595B" stroke-width="2" stroke-miterlimit="10" fill="none" d="M137.198 67.667l7.802 39h2l24-71"/><circle fill="#fff" stroke="#58595B" stroke-width="2" stroke-miterlimit="10" cx="135.198" cy="63.667" r="7"/><circle fill="#fff" stroke="#58595B" stroke-miterlimit="10" cx="80.333" cy="116.333" r="4"/><circle fill="#fff" stroke="#58595B" stroke-miterlimit="10" cx="64" cy="64.667" r="4"/><circle fill="#fff" stroke="#58595B" stroke-miterlimit="10" cx="38" cy="96.667" r="4"/><circle fill="#fff" stroke="#58595B" stroke-miterlimit="10" cx="141.333" cy="128.667" r="4"/></g><g clip-path="url(#b)"><path fill="#fff" d="M37.5 100.667v47"/><g fill="#58595B"><path d="M37 100.667h1v1.5h-1zM38 144.071h-1v-3.143h1v3.143zm0-5.238h-1v-3.143h1v3.143zm0-5.238h-1v-3.143h1v3.143zm0-5.238h-1v-3.143h1v3.143zm0-5.238h-1v-3.143h1v3.143zm0-5.238h-1v-3.143h1v3.143zm0-5.238h-1v-3.143h1v3.143zm0-5.238h-1v-3.143h1v3.143zM37 146.167h1v1.5h-1z"/></g></g><g clip-path="url(#b)"><path fill="#fff" d="M80.5 119.667v24.598"/><g fill="#58595B"><path d="M80 119.667h1v1.5h-1zM81 140.801h-1v-2.945h1v2.945zm0-4.908h-1v-2.945h1v2.945zm0-4.909h-1v-2.945h1v2.945zm0-4.909h-1v-2.945h1v2.945zM80 142.765h1v1.5h-1z"/></g></g><g clip-path="url(#b)"><path fill="#fff" d="M141.5 133.667v47"/><g fill="#58595B"><path d="M141 133.667h1v1.5h-1zM142 177.071h-1v-3.143h1v3.143zm0-5.238h-1v-3.144h1v3.144zm0-5.238h-1v-3.143h1v3.143zm0-5.238h-1v-3.143h1v3.143zm0-5.238h-1v-3.143h1v3.143zm0-5.238h-1v-3.143h1v3.143zm0-5.238h-1v-3.143h1v3.143zm0-5.238h-1v-3.143h1v3.143zM141 179.167h1v1.5h-1z"/></g></g><g clip-path="url(#b)"><path fill="#fff" d="M130.5 113.667v47"/><g fill="#58595B"><path d="M130 113.667h1v1.5h-1zM131 157.071h-1v-3.143h1v3.143zm0-5.238h-1v-3.143h1v3.143zm0-5.238h-1v-3.143h1v3.143zm0-5.238h-1v-3.143h1v3.143zm0-5.238h-1v-3.143h1v3.143zm0-5.238h-1v-3.143h1v3.143zm0-5.238h-1v-3.143h1v3.143zm0-5.238h-1v-3.143h1v3.143zM130 159.167h1v1.5h-1z"/></g></g><g clip-path="url(#b)"><path fill="#fff" d="M133.198 69.667v26"/><g stroke="#58595B" fill="none"><path d="M133.198 69.667v1.5"/><path stroke-dasharray="3.1364,2.0909" d="M133.198 73.257v19.864"/><path d="M133.198 94.167v1.5"/></g></g><g clip-path="url(#b)"><path fill="#fff" d="M63.5 69.068v79.599"/><g fill="#58595B"><path d="M63 69.068h1v1.5h-1zM64 145.177h-1v-2.984h1v2.984zm0-4.974h-1v-2.984h1v2.984zm0-4.974h-1v-2.984h1v2.984zm0-4.974h-1v-2.984h1v2.984zm0-4.974h-1v-2.984h1v2.984zm0-4.973h-1v-2.984h1v2.984zm0-4.975h-1v-2.984h1v2.984zm0-4.974h-1v-2.984h1v2.984zm0-4.973h-1v-2.984h1v2.984zm0-4.974h-1v-2.984h1v2.984zm0-4.974h-1v-2.984h1v2.984zm0-4.974h-1v-2.984h1v2.984zm0-4.974h-1v-2.984h1v2.984zm0-4.974h-1v-2.984h1v2.984zm0-4.974h-1v-2.984h1v2.984zM63 147.167h1v1.5h-1z"/></g></g><path clip-path="url(#b)" fill="#fff" stroke="#58595B" stroke-width="2" stroke-miterlimit="10" d="M123.4 39.068l36.202 12.299"/></svg>