<svg version="1" xmlns="http://www.w3.org/2000/svg" xmlns:xlink="http://www.w3.org/1999/xlink" width="201.501" height="159.667" viewBox="0 0 201.501 159.667"><g><path fill="#D1D3D4" d="M96.6 158.667c-38.047 0-69-30.953-69-69s30.953-69 69-69 69 30.953 69 69-30.954 69-69 69z"/><path fill="#58595B" d="M96.6 21.667c37.556 0 68 30.445 68 68s-30.444 68-68 68c-37.555 0-68-30.445-68-68s30.445-68 68-68m0-2c-38.598 0-70 31.402-70 70s31.402 70 70 70 70-31.402 70-70-31.403-70-70-70z"/></g><defs><path id="a" d="M192 0h-192l5.833 75.667s21.542 18 23.225 16.627c1.38 36.336 31.266 65.373 67.942 65.373 27.574 0 51.303-16.422 61.972-40.014.146-.325 42.529-8.819 42.529-8.819l-9.501-108.834z"/></defs><clipPath id="b"><use xlink:href="#a" overflow="visible"/></clipPath><g clip-path="url(#b)"><path fill="#fff" d="M49.962 32.307l1.912-10.327c.568-3.081 3.253-5.317 6.382-5.317.396 0 .797.037 1.19.11l102.267 18.907c3.523.652 5.86 4.05 5.209 7.575l-1.908 10.327-115.052-21.275z"/><path fill="#58595B" d="M58.256 17.163c.362 0 .73.033 1.1.102l102.267 18.907c3.259.604 5.41 3.733 4.809 6.992l-1.817 9.835-114.07-21.093 1.82-9.835c.533-2.888 3.054-4.908 5.891-4.908m0-1c-3.37 0-6.261 2.409-6.874 5.727l-1.82 9.834-.182.983.983.182 114.068 21.093.983.182.182-.983 1.817-9.835c.7-3.795-1.816-7.455-5.61-8.157l-102.266-18.908c-.423-.078-.853-.118-1.281-.118z"/><path fill="#fff" d="M136.351 179.357c-.396 0-.794-.037-1.186-.108l-102.264-18.913c-1.708-.314-3.19-1.276-4.174-2.707-.984-1.431-1.352-3.158-1.035-4.865l22.453-121.441 115.052 21.274-22.457 121.44c-.57 3.083-3.258 5.32-6.389 5.32z"/><path fill="#58595B" d="M50.545 31.906l114.068 21.093-22.365 120.948c-.534 2.891-3.059 4.91-5.897 4.91-.361 0-.728-.033-1.095-.101l-102.264-18.911c-3.26-.602-5.412-3.733-4.809-6.989l22.362-120.95m-.802-1.165l-.182.983-22.361 120.95c-.341 1.837.056 3.698 1.115 5.238 1.06 1.541 2.656 2.576 4.495 2.916l102.264 18.911c.422.077.851.117 1.276.117 3.373 0 6.267-2.409 6.881-5.729l22.366-120.947.182-.983-.983-.182-114.069-21.093-.984-.181z"/><path fill="#fff" stroke="#58595B" stroke-miterlimit="10" d="M64.426 25.572c-.325 1.767-2.02 2.934-3.785 2.604-1.762-.324-2.932-2.02-2.605-3.785.324-1.763 2.023-2.932 3.785-2.605 1.767.326 2.933 2.023 2.605 3.786z"/><circle fill="#fff" stroke="#58595B" stroke-miterlimit="10" cx="71.064" cy="26.801" r="3.25"/><path fill="#fff" stroke="#58595B" stroke-miterlimit="10" d="M84.093 29.211c-.325 1.763-2.021 2.929-3.784 2.604-1.766-.326-2.932-2.021-2.605-3.787.329-1.764 2.02-2.93 3.785-2.604 1.767.326 2.932 2.021 2.604 3.787z"/><g stroke="#58595B" stroke-miterlimit="10" fill="none"><path d="M55.791 38.774l47.78 8.724-11.734 64.269-47.78-8.724zM109.473 48.573l47.779 8.723-5.507 30.164-47.779-8.723zM145.645 120.914l-47.78-8.723 5.145-28.2 47.785 8.721zM96.896 117.435l47.78 8.724-5.148 28.198-47.78-8.724zM43.097 108.289l47.78 8.724-3.831 20.985-47.78-8.724zM38.217 134.551l47.778 8.723-3.832 20.988-47.778-8.723z"/></g></g><g clip-path="url(#b)"><path fill="#fff" d="M25.868 39.087c-.331-1.839.074-3.697 1.143-5.232 1.067-1.535 2.669-2.562 4.51-2.892l102.362-18.383c.41-.073.828-.111 1.242-.111 3.389 0 6.283 2.425 6.884 5.766l1.946 10.827-116.145 20.855-1.942-10.83z"/><path fill="#58595B" d="M135.125 13.47c2.85 0 5.378 2.039 5.899 4.942l1.77 9.843-114.177 20.501-1.765-9.845c-.587-3.259 1.582-6.378 4.845-6.963l102.363-18.383c.358-.064.713-.095 1.065-.095m0-2c-.473 0-.95.042-1.418.126l-102.363 18.384c-2.104.376-3.934 1.55-5.154 3.305-1.221 1.754-1.684 3.878-1.306 5.981l1.765 9.844.354 1.969 1.969-.354 114.177-20.501 1.969-.354-.354-1.969-1.77-9.843c-.687-3.817-3.996-6.588-7.869-6.588z"/><path fill="#fff" d="M56.255 175.759c-3.389 0-6.282-2.424-6.881-5.763l-21.918-122.047 116.146-20.854 21.913 122.048c.683 3.797-1.853 7.442-5.651 8.127l-102.364 18.378c-.411.073-.83.111-1.245.111z"/><path fill="#58595B" d="M142.794 28.255l21.736 121.063c.586 3.26-1.584 6.378-4.845 6.966l-102.362 18.38c-.358.064-.716.096-1.068.096-2.85 0-5.377-2.038-5.896-4.939l-21.742-121.065 114.177-20.501m1.615-2.321l-1.969.353-114.176 20.501-1.969.354.354 1.969 21.741 121.062c.684 3.815 3.992 6.586 7.865 6.586.475 0 .952-.043 1.422-.127l102.362-18.379c4.343-.782 7.239-4.949 6.46-9.289l-21.736-121.062-.354-1.968z"/><circle fill="#fff" stroke="#58595B" stroke-width="2" stroke-miterlimit="10" cx="36.175" cy="38.508" r="3.249"/><circle fill="#fff" stroke="#58595B" stroke-width="2" stroke-miterlimit="10" cx="46.018" cy="36.741" r="3.25"/><path fill="#fff" stroke="#58595B" stroke-width="2" stroke-miterlimit="10" d="M59.059 34.401c.318 1.765-.857 3.454-2.621 3.771-1.769.317-3.457-.856-3.774-2.625-.315-1.767.856-3.454 2.623-3.772 1.768-.317 3.456.857 3.772 2.626z"/><g stroke="#58595B" stroke-miterlimit="10" fill="none"><path d="M35.955 53.333l47.789-8.694 11.695 64.282-47.789 8.694zM89.646 43.565l47.79-8.694 5.489 30.172-47.79 8.694zM96.091 78.988l47.788-8.694 5.131 28.204-47.788 8.694zM102.165 112.43l47.785-8.694 5.131 28.202-47.785 8.694zM48.605 122.863l47.789-8.694 3.818 20.989-47.789 8.694zM53.298 149.163l47.789-8.694 3.819 20.992-47.789 8.694z"/></g></g><g clip-path="url(#b)" fill="#fff" stroke="#58595B" stroke-miterlimit="10"><path stroke-width="2" d="M117.035 83.875c1.855-18.895-17.358-36.246-42.917-38.757s-47.782 10.77-49.638 29.665c-1.516 15.426 11.017 29.818 29.576 35.951 1.176 7.081-4.494 16.628-4.494 16.628s15.531-1.25 18.212-13.793c25.4 2.343 47.414-10.894 49.261-29.694z"/><circle cx="50.271" cy="78.195" r="6.25"/><circle cx="70.175" cy="80.15" r="6.25"/><circle cx="88.586" cy="81.958" r="6.25"/></g><g clip-path="url(#b)" fill="#fff" stroke="#58595B" stroke-miterlimit="10"><path stroke-width="2" d="M142.574 156.512c1.558 2.763.584 6.269-2.179 7.829l-6.254 3.532c-2.764 1.561-6.27.584-7.829-2.18l-24.441-29.639c-1.562-2.763-.587-6.27 2.178-7.83l6.253-3.533c2.765-1.56 6.271-.586 7.83 2.177l24.442 29.644zM129.641 112.66c1.915 3.292.799 7.513-2.492 9.427l-32.404 15.53c-2.743 1.596-6.261.666-7.856-2.077l-8.669-14.9c-1.596-2.743-.667-6.261 2.076-7.856l29.516-20.497c3.291-1.915 7.512-.8 9.427 2.492l10.402 17.881zM75.357 121.197l.006.01c-1.404.892-1.871 2.734-1.027 4.185l6.983 12.003c.844 1.45 2.678 1.955 4.146 1.175l.006.01 2.382-1.386-10.114-17.383-2.382 1.386zM149.822 48.509l-41.537 44.777 17.338 29.798 58.635-15.389c2.743-1.596 3.672-5.113 2.076-7.856l-28.656-49.253c-1.596-2.742-5.113-3.673-7.856-2.077z"/><path d="M139.492 153.302l-3.711-4.502-7.466 4.214c-1.381.78-1.869 2.534-1.089 3.917.78 1.378 2.533 1.866 3.915 1.086l8.338-4.708.013-.007zM117.288 141.278l8.339-4.709.044-.03-3.711-4.499-7.5 4.236c-1.379.781-1.867 2.532-1.087 3.914.779 1.382 2.534 1.868 3.915 1.088zM121.625 145.063c-1.382.78-1.869 2.532-1.089 3.915.78 1.381 2.532 1.869 3.913 1.088l8.341-4.71.096-.067-3.705-4.493-7.556 4.267z"/></g></svg>