<svg version="1" xmlns="http://www.w3.org/2000/svg" xmlns:xlink="http://www.w3.org/1999/xlink" width="192.667" height="159.666" viewBox="0 0 192.667 159.666"><g><path fill="#D1D3D4" d="M97 158.666c-38.047 0-69-30.953-69-69s30.953-69 69-69 69 30.953 69 69-30.953 69-69 69z"/><path fill="#58595B" d="M97 21.666c37.556 0 68 30.445 68 68s-30.444 68-68 68-68-30.445-68-68 30.444-68 68-68m0-2c-38.599 0-70 31.402-70 70s31.401 70 70 70 70-31.402 70-70-31.401-70-70-70z"/></g><defs><path id="a" d="M192 0h-192l16.667 95.666 2.666 3.333c.018 3.522 9.977-2.017 10.51 1.359 5.13 32.476 33.24 57.308 67.157 57.308 27.624 0 51.386-16.48 62.026-40.139.866-1.925 14.953 28.82 15.641 26.806l18-6.667-.667-137.666z"/></defs><clipPath id="b"><use xlink:href="#a" overflow="visible"/></clipPath><g clip-path="url(#b)"><defs><path id="c" d="M192 0h-192l29 90 .009.001c.182 37.4 30.549 67.665 67.991 67.665 29.872 0 55.226-19.271 64.358-46.051l3.74-14.551 26.902-97.064z"/></defs><clipPath id="d"><use xlink:href="#c" overflow="visible"/></clipPath><g clip-path="url(#d)"><path fill="#fff" d="M16.551 47.063c-1.031-3.43.922-7.06 4.354-8.091l99.596-29.951c.608-.183 1.236-.275 1.866-.275 2.846 0 5.407 1.905 6.229 4.634l3.026 10.055-112.049 33.684-3.022-10.056z"/><path fill="#58595B" d="M122.367 9.246c2.58 0 4.967 1.678 5.751 4.278l2.882 9.576-111.092 33.396-2.879-9.576c-.953-3.172.845-6.515 4.02-7.469l99.596-29.951c.573-.172 1.153-.254 1.722-.254m0-1c-.679 0-1.354.1-2.01.296l-99.596 29.951c-3.695 1.111-5.799 5.021-4.689 8.715l2.879 9.576.288.957.958-.287 111.092-33.396.958-.288-.288-.958-2.882-9.575c-.887-2.939-3.645-4.991-6.71-4.991z"/><path fill="#fff" d="M61.066 179.063c-2.845 0-5.402-1.903-6.22-4.629l-35.561-118.273 112.05-33.685 35.556 118.271c1.03 3.427-.923 7.059-4.354 8.097l-99.597 29.94c-.61.186-1.241.279-1.874.279z"/><path fill="#58595B" d="M131 23.1l35.412 117.792c.952 3.168-.847 6.515-4.02 7.475l-99.596 29.94c-.576.174-1.158.256-1.73.256-2.579 0-4.962-1.676-5.741-4.272l-35.417-117.795 111.092-33.396m.67-1.246l-.958.287-111.092 33.397-.957.288.287.958 35.417 117.794c.881 2.935 3.636 4.984 6.699 4.984.682 0 1.36-.101 2.019-.299l99.596-29.939c3.695-1.118 5.798-5.03 4.689-8.721l-35.412-117.791-.288-.958z"/><path fill="#fff" stroke="#58595B" stroke-miterlimit="10" d="M29.359 44.521c.516 1.716-.458 3.531-2.176 4.044-1.718.516-3.531-.457-4.047-2.178-.52-1.711.457-3.529 2.176-4.046 1.715-.517 3.532.459 4.047 2.18z"/><circle fill="#fff" stroke="#58595B" stroke-miterlimit="10" cx="35.825" cy="42.577" r="3.25"/><path fill="#fff" stroke="#58595B" stroke-miterlimit="10" d="M48.512 38.766c.518 1.713-.458 3.525-2.173 4.041-1.722.518-3.531-.456-4.05-2.175-.514-1.719.456-3.529 2.174-4.047 1.723-.521 3.535.457 4.049 2.181z"/><g stroke="#58595B" stroke-miterlimit="10" fill="none"><path d="M96.152 106.646l-46.267 14.772-19.871-62.244 46.269-14.765zM81.995 42.58l46.269-14.77 9.325 29.211-46.269 14.77zM92.947 76.873l46.267-14.775 8.721 27.308-46.267 14.775zM51.499 126.496l46.27-14.771 6.486 20.318-46.27 14.771zM59.54 151.959l46.271-14.771 5.92 18.545-46.271 14.771zM103.136 109.883l46.267-14.775 6.49 20.323-46.267 14.775zM111.175 135.357l46.27-14.776 5.923 18.549-46.27 14.776z"/></g></g></g><g clip-path="url(#b)"><path fill="#fff" stroke="#58595B" stroke-width="2" stroke-miterlimit="10" d="M152.667 158.666c0 3.313-2.687 6-6 6h-104c-3.313 0-6-2.687-6-6v-135c0-3.313 2.687-6 6-6h104c3.313 0 6 2.687 6 6v135zM42.667 31.666h104.125v117h-104.125z"/><path fill="#58595B" d="M91.667 39.666v57h-40v-57h40m1-1h-42v59h42v-59zM138.667 39.666v26h-41v-26h41m1-1h-43v28h43v-28zM138.667 71.666v25h-41v-25h41m1-1h-43v27h43v-27zM91.667 102.666v17h-40v-17h40m1-1h-42v19h42v-19zM91.667 125.666v15h-40v-15h40m1-1h-42v17h42v-17zM138.667 102.666v17h-41v-17h41m1-1h-43v19h43v-19zM138.667 125.666v15h-41v-15h41m1-1h-43v17h43v-17z"/><path fill="#fff" stroke="#58595B" stroke-miterlimit="10" d="M96.417 25.291c0 .897-.728 1.625-1.625 1.625s-1.625-.728-1.625-1.625.728-1.625 1.625-1.625 1.625.728 1.625 1.625z"/><circle fill="#fff" stroke="#58595B" stroke-miterlimit="10" cx="94.667" cy="156.666" r="4"/></g><path clip-path="url(#b)" fill="#fff" stroke="#58595B" stroke-width="2" stroke-miterlimit="10" d="M75.881 118.558l6.445-5.117-24.049-7.774 1.262 25.874 5.953-4.729c6.053 10.168 22.871 31.151 45.175-1.167-14.919 21.622-29.598 1.601-34.786-7.087z"/><g clip-path="url(#b)"><path fill="#fff" stroke="#58595B" stroke-width="2" stroke-miterlimit="10" d="M147.851 147.913c-1.238 3.073-4.737 4.555-7.81 3.314l-44.501-17.989c-3.072-1.241-4.557-4.739-3.315-7.812l34.106-84.367c1.241-3.072 4.738-4.556 7.811-3.313l44.501 17.988c3.072 1.242 4.557 4.739 3.313 7.812l-34.105 84.367zM128.714 48.498l46.356 18.74-28.485 70.46-46.356-18.74z"/><path fill="#fff" d="M160.634 56.426c-.192 0-.382-.037-.563-.11l-12.98-5.244c-.766-.311-1.138-1.188-.827-1.954.229-.57.775-.938 1.39-.938.192 0 .381.037.562.109l12.979 5.247c.768.311 1.14 1.188.829 1.954-.23.569-.776.936-1.39.936z"/><path fill="#58595B" d="M147.653 48.679c.128 0 .253.024.374.073l12.979 5.246c.512.207.76.792.554 1.304-.153.379-.518.624-.927.624-.128 0-.254-.024-.375-.073l-12.979-5.244c-.512-.208-.76-.793-.553-1.305.155-.38.518-.625.927-.625m0-1c-.79 0-1.539.473-1.854 1.251-.414 1.024.08 2.189 1.104 2.605l12.98 5.244c.246.1.5.146.75.146.79 0 1.539-.472 1.854-1.249.414-1.024-.08-2.19-1.105-2.605l-12.979-5.246c-.246-.099-.5-.146-.75-.146z"/><path fill="#fff" d="M119.914 138.38c-.189 0-.381-.016-.574-.047-1.904-.314-3.198-2.119-2.885-4.023.281-1.697 1.732-2.93 3.45-2.93.189 0 .381.016.574.047 1.903.314 3.197 2.118 2.884 4.022-.281 1.698-1.731 2.931-3.449 2.931z"/><path fill="#58595B" d="M119.905 131.88c.164 0 .329.014.492.04 1.632.27 2.74 1.816 2.473 3.447-.241 1.456-1.484 2.513-2.956 2.513-.164 0-.329-.014-.492-.04-1.633-.27-2.742-1.816-2.474-3.447.241-1.456 1.486-2.513 2.957-2.513m0-1c-1.923 0-3.618 1.391-3.943 3.349-.359 2.18 1.117 4.238 3.297 4.598.221.036.439.054.655.054 1.922 0 3.618-1.391 3.942-3.35.358-2.179-1.116-4.237-3.296-4.597-.22-.037-.439-.054-.655-.054z"/><path fill="#fff" d="M148.819 61.469l-7.119 17.614-17.615-7.119 7.119-17.614z"/><path fill="#58595B" d="M131.478 55.005l16.688 6.747-6.745 16.688-16.688-6.747 6.745-16.688m-.553-1.302l-7.494 18.543 18.543 7.496 7.494-18.543-18.543-7.496z"/><path fill="#fff" d="M169.217 69.724l-7.12 17.613-17.614-7.121 7.12-17.613z"/><path fill="#58595B" d="M151.876 63.252l16.688 6.745-6.746 16.688-16.688-6.746 6.746-16.687m-.553-1.302l-7.496 18.541 18.543 7.495 7.495-18.542-18.542-7.494z"/><path fill="#fff" d="M140.574 81.875l-7.12 17.613-17.614-7.121 7.12-17.613z"/><path fill="#58595B" d="M123.233 75.402l16.688 6.746-6.745 16.688-16.689-6.748 6.746-16.686m-.552-1.301l-7.496 18.541 18.544 7.497 7.494-18.543-18.542-7.495z"/><path fill="#fff" d="M160.965 90.112l-7.121 17.614-17.614-7.121 7.121-17.614z"/><path fill="#58595B" d="M143.63 83.647l16.688 6.747-6.745 16.688-16.688-6.747 6.745-16.688m-.553-1.301l-7.495 18.542 18.543 7.496 7.494-18.542-18.542-7.496z"/><path fill="#fff" d="M152.724 110.515l-7.121 17.614-38.01-15.366 7.121-17.614z"/><path fill="#58595B" d="M114.989 95.799l37.084 14.991-6.748 16.688-37.083-14.992 6.747-16.687m-.552-1.302l-7.496 18.542 38.938 15.741 7.497-18.543-38.939-15.74z"/><path fill="#fff" d="M124.08 122.673l-1.876 4.636-17.61-7.126 1.876-4.636z"/><path fill="#58595B" d="M106.744 116.195l16.686 6.746-1.498 3.709-16.688-6.746 1.5-3.709m-.552-1.301l-2.251 5.563 18.543 7.495 2.247-5.563-18.539-7.495z"/><path fill="#fff" d="M144.476 130.902l-1.873 4.634-17.615-7.121 1.873-4.634z"/><path fill="#58595B" d="M127.14 124.44l16.688 6.746-1.5 3.708-16.688-6.747 1.5-3.707m-.553-1.301l-2.248 5.562 18.542 7.496 2.249-5.563-18.543-7.495z"/></g><path clip-path="url(#b)" fill="#fff" stroke="#58595B" stroke-width="2" stroke-miterlimit="10" d="M103.948 99.082l-6.445 5.118 24.049 7.775-1.262-25.875-5.955 4.729c-6.05-10.168-22.869-31.152-45.173 1.166 14.919-21.621 29.599-1.6 34.786 7.087z"/></svg>