<?xml version="1.0" encoding="utf-8"?>
<!-- Generator: Adobe Illustrator 16.0.3, SVG Export Plug-In . SVG Version: 6.00 Build 0)  -->
<!DOCTYPE svg PUBLIC "-//W3C//DTD SVG 1.1//EN" "http://www.w3.org/Graphics/SVG/1.1/DTD/svg11.dtd">
<svg version="1.1" id="Layer_2" xmlns="http://www.w3.org/2000/svg" xmlns:xlink="http://www.w3.org/1999/xlink" x="0px" y="0px"
	 width="296px" height="156px" viewBox="0 0 296 156" enable-background="new 0 0 296 156" xml:space="preserve">
<rect x="43.373" y="102.348" fill="#303030" width="209.333" height="9"/>
<rect x="43.373" y="117.348" fill="#303030" width="209.333" height="9"/>
<rect x="43.373" y="133.348" fill="#303030" width="119.667" height="9"/>
<rect x="63.797" y="93.295" fill="none" width="183.107" height="84.316"/>
<g>
	<path fill="#303030" d="M205.999,49.049c1.354,1.127,4.185,3.501,4.172,7.997c-0.017,4.374-2.506,6.438-4.996,8.382
		c-0.771,0.763-1.659,1.59-1.665,2.895c-0.003,1.298,0.883,2.009,1.528,2.546l2.127,1.659c2.595,2.195,4.95,4.215,4.937,8.298
		c-0.015,5.558-5.416,11.156-15.584,11.125c-8.576-0.029-12.701-4.121-12.688-8.499c0.012-2.129,1.081-5.138,4.581-7.199
		c3.67-2.234,8.64-2.514,11.3-2.686c-0.825-1.066-1.769-2.192-1.763-4.025c0.003-1.004,0.306-1.596,0.601-2.304
		c-0.653,0.057-1.302,0.113-1.892,0.112c-6.27-0.021-9.801-4.704-9.786-9.313c0.009-2.721,1.26-5.736,3.808-7.914
		c3.381-2.769,7.402-3.228,10.596-3.22l12.184,0.042l-3.791,2.117L205.999,49.049z M201.714,75.291
		c-0.472-0.062-0.769-0.062-1.358-0.064c-0.531-0.002-3.727,0.108-6.211,0.93c-1.303,0.468-5.092,1.872-5.104,6.071
		c-0.016,4.199,4.057,7.229,10.381,7.25c5.678,0.018,8.702-2.696,8.717-6.357C208.146,80.098,206.197,78.499,201.714,75.291z
		 M203.466,64.062c1.361-1.36,1.485-3.247,1.487-4.314c0.018-4.256-2.501-10.888-7.412-10.904c-1.536-0.004-3.191,0.76-4.146,1.939
		c-1.01,1.24-1.308,2.834-1.313,4.372c-0.011,3.961,2.274,10.533,7.36,10.548C200.917,65.708,202.512,65.006,203.466,64.062z
		 M168.689,74.24c-9.387-0.031-14.381-7.367-14.359-13.981c0.021-7.734,6.363-14.324,15.339-14.294
		c8.675,0.025,14.087,6.832,14.063,13.978C183.71,66.906,178.314,74.271,168.689,74.24z M176.08,69.482
		c1.43-1.887,1.792-4.245,1.798-6.551c0.017-5.193-2.43-15.119-9.751-15.142c-1.949-0.008-3.898,0.756-5.316,1.992
		c-2.312,2.058-2.734,4.654-2.742,7.194c-0.02,5.844,2.843,15.475,9.986,15.497C172.355,72.479,174.723,71.366,176.08,69.482z
		 M103.777,74.138c-9.384-0.03-14.379-7.367-14.36-13.981c0.024-7.732,6.363-14.323,15.336-14.294
		c8.68,0.027,14.09,6.834,14.064,13.978C118.797,66.805,113.404,74.168,103.777,74.138z M111.174,69.38
		c1.422-1.888,1.785-4.246,1.793-6.55c0.016-5.194-2.432-15.121-9.754-15.143c-1.945-0.007-3.898,0.756-5.319,1.993
		c-2.308,2.056-2.729,4.654-2.737,7.193c-0.021,5.845,2.843,15.475,9.986,15.496C107.447,72.376,109.811,71.263,111.174,69.38z
		 M136.076,74.138c-9.385-0.03-14.379-7.367-14.359-13.981c0.023-7.732,6.363-14.323,15.336-14.294
		c8.68,0.027,14.089,6.834,14.064,13.978C151.096,66.805,145.703,74.168,136.076,74.138z M143.473,69.38
		c1.422-1.888,1.785-4.246,1.793-6.55c0.016-5.194-2.432-15.121-9.754-15.143c-1.945-0.007-3.898,0.756-5.318,1.993
		c-2.309,2.056-2.73,4.654-2.738,7.193c-0.02,5.845,2.844,15.475,9.986,15.496C139.746,72.376,142.109,71.263,143.473,69.38z
		 M84.866,73.151l-8.496,1.932c-3.445,0.524-6.531,0.987-9.796,0.975C50.193,76.007,44,63.938,44.031,54.501
		c0.037-11.515,8.914-22.167,24.052-22.12c3.204,0.011,6.289,0.495,9.074,1.275c4.448,1.261,6.519,2.812,7.823,3.707l-4.942,4.672
		l-2.077,0.468l1.491-2.373c-2.013-1.964-5.683-5.595-12.683-5.616c-9.379-0.03-16.468,7.071-16.499,17.458
		c-0.034,11.156,8.004,21.687,20.938,21.729c3.804,0.01,5.763-0.751,7.547-1.46l0.029-9.555l-8.962,0.447l4.754-2.538l12.583,0.039
		l-1.546,1.478c-0.419,0.354-0.478,0.475-0.599,0.945c-0.063,0.536-0.126,2.258-0.128,2.853L84.866,73.151z M224.686,71.785
		c-1.959-0.186-2.371-0.542-2.36-2.856l0.002-0.656l0.106-32.941c0.01-0.127,0.019-0.258,0.032-0.381
		c0.244-2.076,0.839-2.429,2.685-3.493l-8.489-0.029l-4.461,2.123l4.541,0.016l-0.003,0.027v-0.021l-0.113,34.682l-0.006,1.96
		c-0.004,1.187-0.241,1.364-1.611,3.14l10.506,0.033l2.199-1.296C226.704,71.969,225.695,71.906,224.686,71.785z M248.836,72.407
		c-0.646,0.351-1.297,0.763-1.943,1.057c-1.953,0.876-3.955,1.106-5.728,1.101c-1.883-0.006-4.83-0.136-7.834-2.326
		c-4.171-2.961-5.983-8.035-5.968-12.456c0.025-9.137,7.471-13.591,13.541-13.574c2.121,0.008,4.305,0.544,6.068,1.672
		c2.938,1.951,3.696,4.487,4.102,5.846l-13.866,5.556l-4.541,0.34c1.446,7.492,6.506,11.869,12.104,11.887
		c3.01,0.01,5.19-1.045,7.197-2.039L248.836,72.407z M243.354,54.822c1.121-0.408,1.709-0.762,1.713-1.583
		c0.006-2.357-2.637-5.081-5.82-5.09c-2.357-0.009-6.785,1.806-6.803,8.172c-0.006,1.003,0.111,2.064,0.166,3.125L243.354,54.822z"
		/>
	<path fill="#303030" d="M216.66,31.428l8.49,0.029c-1.846,1.064-2.44,1.417-2.686,3.493c-0.015,0.123-0.023,0.254-0.033,0.381
		l-0.105,32.941l-0.002,0.656c-0.01,2.314,0.4,2.671,2.361,2.856c1.01,0.121,2.019,0.185,3.025,0.307l-2.199,1.296l-10.506-0.033
		c1.37-1.776,1.607-1.953,1.611-3.14l0.006-1.96l0.113-34.682v0.021l0.002-0.027l-4.541-0.016L216.66,31.428 M67.982,32.381
		c0.034,0,0.066,0,0.101,0c3.204,0.011,6.289,0.495,9.074,1.275c4.448,1.261,6.519,2.812,7.823,3.707l-4.942,4.672l-2.077,0.468
		l1.491-2.373c-2.013-1.964-5.683-5.595-12.683-5.616c-0.02,0-0.041,0-0.06,0c-9.35-0.001-16.408,7.093-16.439,17.458
		c-0.034,11.156,8.004,21.687,20.938,21.729c0.024,0,0.048,0,0.072,0c3.757,0,5.702-0.756,7.475-1.46l0.029-9.555l-8.962,0.447
		l4.754-2.538l12.583,0.039l-1.546,1.478c-0.419,0.354-0.478,0.475-0.599,0.945c-0.063,0.536-0.126,2.258-0.128,2.853l-0.021,7.241
		l-8.496,1.932c-3.401,0.518-6.452,0.976-9.669,0.976c-0.042,0-0.084,0-0.126,0C50.193,76.007,44,63.938,44.031,54.501
		C44.068,43.012,52.907,32.381,67.982,32.381 M136.994,45.862c0.02,0,0.039,0,0.059,0c8.68,0.027,14.089,6.834,14.064,13.978
		c-0.021,6.95-5.393,14.298-14.981,14.298c-0.021,0-0.04,0-0.06,0c-9.385-0.03-14.379-7.367-14.359-13.981
		C121.74,52.441,128.053,45.862,136.994,45.862 M137.464,72.369c2.298,0,4.65-1.112,6.009-2.989c1.422-1.888,1.785-4.246,1.793-6.55
		c0.016-5.194-2.432-15.121-9.754-15.143c-0.009,0-0.018,0-0.026,0c-1.937,0-3.878,0.762-5.292,1.993
		c-2.309,2.056-2.73,4.654-2.738,7.193c-0.02,5.845,2.844,15.475,9.986,15.496C137.449,72.369,137.457,72.369,137.464,72.369
		 M104.695,45.862c0.02,0,0.039,0,0.059,0c8.68,0.027,14.09,6.834,14.064,13.978c-0.021,6.95-5.393,14.298-14.982,14.298
		c-0.02,0-0.039,0-0.059,0c-9.384-0.03-14.379-7.367-14.36-13.981C89.442,52.441,95.753,45.862,104.695,45.862 M105.165,72.369
		c2.298,0,4.65-1.112,6.009-2.989c1.422-1.888,1.785-4.246,1.793-6.55c0.016-5.194-2.432-15.121-9.754-15.143
		c-0.009,0-0.018,0-0.026,0c-1.937,0-3.879,0.762-5.293,1.993c-2.308,2.056-2.729,4.654-2.737,7.193
		c-0.021,5.845,2.843,15.475,9.986,15.496C105.15,72.369,105.158,72.369,105.165,72.369 M169.607,45.965c0.021,0,0.041,0,0.062,0
		c8.675,0.025,14.087,6.832,14.063,13.978c-0.021,6.948-5.396,14.297-14.982,14.297c-0.021,0-0.04,0-0.061,0
		c-9.385-0.031-14.381-7.367-14.358-13.981C154.354,52.543,160.665,45.965,169.607,45.965 M170.072,72.472
		c2.297,0,4.654-1.112,6.008-2.99c1.43-1.887,1.792-4.245,1.798-6.551c0.017-5.193-2.43-15.119-9.751-15.142c-0.01,0-0.02,0-0.029,0
		c-1.938,0-3.877,0.763-5.287,1.992c-2.312,2.058-2.734,4.654-2.742,7.194c-0.02,5.844,2.843,15.475,9.986,15.497
		C170.061,72.472,170.066,72.472,170.072,72.472 M240.868,46.209c0.013,0,0.024,0,0.036,0c2.121,0.008,4.305,0.544,6.068,1.672
		c2.938,1.951,3.696,4.487,4.102,5.846l-13.866,5.556l-4.541,0.34c1.446,7.492,6.506,11.869,12.104,11.887c0.014,0,0.026,0,0.041,0
		c2.988,0,5.158-1.049,7.156-2.039l-3.134,2.936c-0.646,0.351-1.297,0.763-1.944,1.057c-1.928,0.865-3.906,1.101-5.66,1.101
		c-0.022,0-0.045,0-0.065,0c-1.883-0.006-4.83-0.136-7.834-2.326c-4.171-2.961-5.983-8.035-5.968-12.456
		C227.391,50.665,234.805,46.209,240.868,46.209 M232.609,59.446l10.744-4.625c1.121-0.408,1.709-0.762,1.713-1.583
		c0.006-2.357-2.637-5.081-5.82-5.09c-0.006,0-0.012,0-0.018,0c-2.362,0-6.769,1.821-6.785,8.172
		C232.438,57.325,232.557,58.385,232.609,59.446 M201.188,46.904c0.028,0,0.057,0,0.084,0l12.184,0.042l-3.791,2.117l-3.665-0.013
		c1.354,1.127,4.185,3.501,4.172,7.997c-0.017,4.374-2.506,6.438-4.996,8.382c-0.771,0.763-1.659,1.59-1.665,2.895
		c-0.003,1.298,0.883,2.009,1.528,2.546l2.127,1.659c2.595,2.195,4.95,4.215,4.937,8.298c-0.015,5.543-5.387,11.125-15.502,11.125
		c-0.026,0-0.055,0-0.082,0c-8.576-0.029-12.701-4.121-12.688-8.499c0.012-2.129,1.081-5.138,4.581-7.199
		c3.67-2.234,8.64-2.514,11.3-2.686c-0.825-1.066-1.769-2.192-1.762-4.025c0.002-1.004,0.305-1.596,0.6-2.304
		c-0.646,0.057-1.284,0.112-1.868,0.112c-0.007,0-0.015,0-0.021,0c-6.27-0.021-9.801-4.704-9.787-9.313
		c0.009-2.721,1.26-5.736,3.809-7.914C194.027,47.379,198.009,46.904,201.188,46.904 M199.458,65.703c1.472,0,3.058-0.7,4.008-1.641
		c1.361-1.36,1.485-3.247,1.487-4.314c0.018-4.256-2.501-10.888-7.412-10.904c-0.004,0-0.008,0-0.012,0
		c-1.533,0-3.184,0.763-4.137,1.939c-1.009,1.24-1.307,2.834-1.313,4.372c-0.012,3.961,2.275,10.533,7.361,10.548
		C199.447,65.703,199.453,65.703,199.458,65.703 M199.479,89.479c5.643,0,8.646-2.709,8.66-6.357
		c0.008-3.021-1.94-4.621-6.425-7.829c-0.472-0.062-0.769-0.062-1.358-0.064c-0.006,0-0.012,0-0.018,0
		c-0.582,0-3.734,0.117-6.193,0.93c-1.303,0.468-5.092,1.872-5.104,6.072c-0.016,4.199,4.057,7.229,10.381,7.248
		C199.439,89.479,199.46,89.479,199.479,89.479 M216.66,30.428c-0.148,0-0.295,0.033-0.43,0.097l-4.461,2.123
		c-0.422,0.2-0.648,0.666-0.547,1.122c0.103,0.455,0.506,0.78,0.973,0.781l3.539,0.013l-0.11,33.688l-0.006,1.961
		c-0.002,0.716-0.002,0.729-1.031,2.052l-0.372,0.48c-0.232,0.301-0.273,0.708-0.105,1.051c0.168,0.342,0.515,0.559,0.896,0.56
		l10.507,0.033h0.002c0.18,0,0.354-0.048,0.508-0.139l2.199-1.296c0.369-0.217,0.559-0.646,0.471-1.066
		c-0.086-0.419-0.433-0.737-0.857-0.788c-0.52-0.063-1.037-0.11-1.557-0.158c-0.49-0.045-0.98-0.09-1.471-0.148
		c-1.488-0.142-1.488-0.142-1.48-1.859l0.002-0.657l0.105-32.904l0.002-0.027c0.008-0.093,0.015-0.187,0.024-0.276
		c0.187-1.59,0.415-1.721,2.19-2.745c0.392-0.226,0.584-0.686,0.468-1.123s-0.513-0.742-0.964-0.743l-8.49-0.029
		C216.662,30.428,216.661,30.428,216.66,30.428L216.66,30.428z M67.982,31.381c-7.372,0-13.708,2.436-18.322,7.044
		c-4.255,4.25-6.61,9.958-6.629,16.072c-0.018,5.498,1.935,10.947,5.357,14.952c4.234,4.954,10.521,7.585,18.183,7.609H66.7
		c3.337,0,6.486-0.479,9.82-0.987c0.024-0.004,0.048-0.008,0.071-0.014l8.496-1.932c0.454-0.104,0.777-0.506,0.778-0.972
		l0.021-7.241c0.002-0.583,0.062-2.135,0.114-2.674c0.025-0.096,0.044-0.155,0.055-0.176c0.004-0.005,0.041-0.05,0.204-0.188
		c0.016-0.013,0.03-0.026,0.045-0.041l1.546-1.478c0.295-0.282,0.389-0.715,0.238-1.094c-0.151-0.379-0.518-0.627-0.926-0.629
		L74.58,59.595c-0.001,0-0.002,0-0.003,0c-0.164,0-0.326,0.041-0.471,0.118l-4.754,2.538c-0.413,0.221-0.618,0.698-0.493,1.149
		c0.121,0.435,0.516,0.733,0.963,0.733c0.017,0,0.033,0,0.05-0.001l7.909-0.394l-0.024,7.821c-1.503,0.578-3.321,1.143-6.477,1.143
		h-0.07C58.218,72.658,51.239,61.99,51.27,51.975c0.029-9.539,6.522-16.462,15.439-16.461h0.057c5.998,0.018,9.337,2.79,11.408,4.77
		l-1.06,1.687c-0.215,0.342-0.203,0.78,0.03,1.11c0.19,0.269,0.497,0.422,0.816,0.422c0.073,0,0.146-0.008,0.22-0.024l2.077-0.468
		c0.175-0.04,0.337-0.125,0.467-0.249l4.942-4.672c0.22-0.208,0.333-0.503,0.31-0.805c-0.023-0.302-0.182-0.576-0.431-0.747
		l-0.244-0.168c-1.322-0.915-3.535-2.446-7.872-3.675c-3.073-0.861-6.216-1.303-9.344-1.313L67.982,31.381L67.982,31.381z
		 M136.994,44.862L136.994,44.862c-9.102,0-16.251,6.717-16.277,15.292c-0.021,7.24,5.354,14.952,15.356,14.984h0.063
		c10.35,0,15.959-7.88,15.981-15.295c0.014-3.82-1.458-7.591-4.038-10.344c-2.789-2.976-6.703-4.623-11.023-4.636L136.994,44.862
		L136.994,44.862z M137.464,72.369l-0.019-1c-3.498-0.01-5.624-2.735-6.793-5.02c-1.633-3.193-2.205-6.987-2.197-9.473
		c0.007-2.137,0.297-4.575,2.403-6.45c1.248-1.086,2.98-1.739,4.627-1.739c2.857,0.008,5.123,1.714,6.756,5.069
		c1.503,3.089,2.031,6.711,2.024,9.071c-0.009,2.63-0.515,4.521-1.592,5.952c-1.144,1.58-3.185,2.59-5.21,2.59L137.464,72.369
		L137.464,72.369z M104.695,44.862L104.695,44.862c-9.101,0-16.251,6.717-16.278,15.291c-0.021,7.241,5.354,14.953,15.357,14.984
		h0.062c10.35,0,15.959-7.88,15.982-15.295c0.014-3.82-1.458-7.591-4.038-10.344c-2.789-2.976-6.703-4.623-11.023-4.636H104.695
		L104.695,44.862z M105.165,72.369l-0.019-1c-3.498-0.01-5.625-2.735-6.793-5.02c-1.633-3.193-2.206-6.987-2.197-9.473
		c0.006-2.137,0.297-4.575,2.402-6.45c1.249-1.086,2.981-1.739,4.628-1.739c2.857,0.008,5.123,1.714,6.755,5.069
		c1.503,3.089,2.031,6.711,2.024,9.071c-0.009,2.63-0.515,4.521-1.592,5.952c-1.144,1.58-3.184,2.59-5.21,2.59v1H105.165z
		 M169.607,44.965L169.607,44.965c-9.104,0-16.252,6.717-16.277,15.291c-0.023,7.239,5.352,14.952,15.355,14.984h0.063
		c10.351,0,15.96-7.88,15.981-15.294c0.014-3.821-1.459-7.592-4.039-10.346c-2.789-2.976-6.703-4.622-11.021-4.635H169.607
		L169.607,44.965z M170.072,72.472l-0.016-1c-3.498-0.011-5.623-2.736-6.791-5.021c-1.634-3.192-2.207-6.987-2.199-9.473
		c0.008-2.135,0.299-4.571,2.408-6.45c1.246-1.086,2.978-1.739,4.623-1.739c2.859,0.009,5.125,1.714,6.756,5.069
		c1.504,3.089,2.031,6.71,2.023,9.069c-0.007,2.632-0.514,4.523-1.596,5.95c-1.141,1.583-3.18,2.594-5.209,2.594V72.472
		L170.072,72.472z M240.868,45.209c-7.011,0-14.478,5.106-14.505,14.571c-0.016,4.213,1.654,9.913,6.389,13.274
		c3.014,2.196,5.941,2.502,8.41,2.51h0.068c2.303,0,4.287-0.389,6.069-1.188c0.478-0.217,0.938-0.48,1.384-0.735
		c0.209-0.121,0.42-0.241,0.629-0.355c0.074-0.041,0.145-0.091,0.207-0.149l3.133-2.937c0.363-0.339,0.422-0.892,0.139-1.299
		c-0.191-0.277-0.503-0.43-0.822-0.43c-0.148,0-0.301,0.034-0.441,0.104c-1.832,0.907-3.908,1.935-6.713,1.935
		c-5.11-0.016-9.379-3.979-10.918-9.976l3.387-0.253c0.103-0.007,0.203-0.031,0.298-0.069l13.866-5.556
		c0.479-0.192,0.732-0.718,0.586-1.213c-0.409-1.376-1.262-4.239-4.508-6.394c-1.846-1.18-4.189-1.83-6.616-1.839
		C240.907,45.209,240.87,45.209,240.868,45.209L240.868,45.209z M233.514,57.968c-0.039-0.572-0.072-1.118-0.07-1.642
		c0.017-5.678,3.791-7.177,5.787-7.177c2.617,0.007,4.842,2.254,4.836,4.087c0,0.115,0,0.262-1.055,0.646
		c-0.018,0.006-0.035,0.013-0.053,0.021L233.514,57.968L233.514,57.968z M201.188,45.904c-2.979,0-7.373,0.357-11.146,3.446
		c-2.608,2.23-4.163,5.471-4.174,8.684c-0.015,4.983,3.76,10.292,10.782,10.316c0.145,0,0.289-0.003,0.433-0.008
		c-0.082,0.349-0.136,0.742-0.138,1.198c-0.004,1.309,0.398,2.32,0.904,3.156c-2.83,0.234-6.824,0.792-9.963,2.703
		c-4.668,2.75-5.054,6.854-5.061,8.046c-0.014,4.709,4.214,9.474,13.686,9.505h0.086c10.813,0,16.486-6.099,16.502-12.123
		c0.017-4.575-2.682-6.857-5.291-9.064l-2.156-1.684c-0.696-0.578-1.146-1.006-1.145-1.755c0.004-0.782,0.486-1.315,1.281-2.101
		l0.045-0.044c2.382-1.858,5.316-4.181,5.335-9.131c0.009-3.244-1.337-5.5-2.651-6.991l1.142,0.004c0.002,0,0.003,0,0.004,0
		c0.171,0,0.339-0.043,0.487-0.127l3.791-2.117c0.396-0.222,0.595-0.683,0.479-1.123c-0.112-0.44-0.51-0.749-0.964-0.75
		l-12.184-0.042h-0.086V45.904z M199.458,65.703l-0.013-1c-4.463-0.013-6.375-6.327-6.365-9.545
		c0.007-1.626,0.363-2.852,1.089-3.743c0.763-0.94,2.11-1.57,3.36-1.57c2.316,0.008,3.832,1.829,4.695,3.355
		c1.074,1.898,1.736,4.406,1.729,6.545c-0.001,0.601-0.006,2.422-1.194,3.61c-0.801,0.792-2.159,1.348-3.301,1.348V65.703
		L199.458,65.703z M199.479,88.479h-0.054c-2.864-0.01-5.28-0.656-6.991-1.873c-1.57-1.117-2.398-2.629-2.393-4.373
		c0.008-3.174,2.539-4.45,4.441-5.134c2.52-0.833,5.822-0.871,5.854-0.871c0.465,0.002,0.722,0.003,1.005,0.029
		c4.293,3.08,5.803,4.414,5.797,6.862C207.125,86.423,204.189,88.479,199.479,88.479L199.479,88.479z"/>
</g>
<g>
	<g>
		<circle fill="#FFFFFF" cx="154.391" cy="55.524" r="44.177"/>
		<path fill="#303030" d="M154.391,100.201c-24.635,0-44.677-20.042-44.677-44.677c0-24.635,20.042-44.677,44.677-44.677
			c24.637,0,44.678,20.042,44.678,44.677C199.068,80.159,179.025,100.201,154.391,100.201z M154.391,11.847
			c-24.083,0-43.677,19.594-43.677,43.677c0,24.083,19.594,43.677,43.677,43.677c24.084,0,43.678-19.594,43.678-43.677
			C198.068,31.441,178.475,11.847,154.391,11.847z"/>
	</g>
	<g>
		<circle fill="#FFFFFF" cx="154.391" cy="55.524" r="35.984"/>
		<path fill="#303030" d="M154.391,92.008c-20.117,0-36.482-16.367-36.482-36.484c0-20.117,16.366-36.483,36.482-36.483
			c20.117,0,36.484,16.366,36.484,36.483C190.875,75.641,174.508,92.008,154.391,92.008z M154.391,20.041
			c-19.564,0-35.482,15.917-35.482,35.483s15.918,35.484,35.482,35.484c19.566,0,35.484-15.918,35.484-35.484
			S173.957,20.041,154.391,20.041z"/>
	</g>
	<circle fill="#303030" cx="154.391" cy="55.524" r="32.778"/>
	<g>
		<path fill="#FFFFFF" d="M197.719,133.568c1.641,3.873-0.173,8.347-4.046,9.984l-1.171,0.496c-3.875,1.641-8.346-0.174-9.986-4.048
			l-16.168-37.067c-1.641-3.875,0.172-8.346,4.047-9.984l1.17-0.495c3.873-1.642,8.346,0.172,9.984,4.047L197.719,133.568z"/>
		<path fill="#303030" d="M189.537,145.154c-3.27,0-6.206-1.946-7.482-4.957l-16.164-37.063c-0.849-2.002-0.865-4.208-0.052-6.218
			s2.362-3.582,4.359-4.427l1.17-0.495c1.01-0.428,2.073-0.645,3.161-0.645c3.27,0,6.205,1.945,7.479,4.957l16.167,37.063
			c0.848,2.001,0.864,4.208,0.051,6.218c-0.814,2.011-2.363,3.583-4.358,4.427l-1.171,0.496
			C191.688,144.938,190.625,145.154,189.537,145.154z M174.529,92.35c-0.953,0-1.887,0.189-2.771,0.564l-1.17,0.495
			c-1.752,0.741-3.109,2.12-3.822,3.882c-0.715,1.762-0.699,3.697,0.041,5.448l16.166,37.063c1.121,2.646,3.697,4.353,6.563,4.353
			c0.952,0,1.885-0.19,2.771-0.564l1.17-0.496c1.752-0.74,3.107-2.119,3.822-3.882s0.699-3.698-0.042-5.448L181.09,96.701
			C179.971,94.057,177.396,92.35,174.529,92.35z"/>
	</g>
</g>
<path fill="#FFFFFF" d="M165.561,60.133c0.02-5.279-2.012-10.487-5.574-14.289c-3.846-4.104-9.252-6.376-15.313-6.395
	c-12.612,0-22.522,9.284-22.561,21.136c0,0.229,0.007,0.458,0.014,0.688c0.954,5.386,3.22,10.316,6.461,14.45
	c3.541,3.328,8.49,5.53,14.759,5.55c0.001,0,0.088,0,0.089,0C157.766,81.273,165.531,70.381,165.561,60.133z M153.613,73.612
	c-1.801,2.495-5.047,4.108-8.295,4.108c-9.544-0.029-13.95-13.069-13.924-21.873c0.01-3.29,0.468-7.053,3.787-10.011
	c2.01-1.75,4.679-2.754,7.321-2.754h0.001v-0.5l0.027,0.5c10.312,0.035,13.603,14.408,13.582,21.363
	C156.1,68.461,155.309,71.371,153.613,73.612z M183.957,41.358c0.507,1.056,0.953,2.146,1.347,3.262
	c-0.103-0.005-0.202-0.015-0.307-0.016l-0.015-0.5v0.501c-2.075,0-4.318,1.05-5.582,2.614c-1.188,1.463-1.771,3.426-1.783,6.002
	c-0.012,4.397,2.173,12.061,7.33,14.164c-0.523,1.347-1.128,2.653-1.817,3.907c-9.161-0.351-14.058-7.333-14.038-13.916
	c0.014-4.369,2.135-8.781,5.676-11.802C177.715,43.159,180.951,41.952,183.957,41.358z"/>
<path fill="#303030" d="M154.391,23.747c17.522,0,31.778,14.255,31.778,31.777s-14.256,31.777-31.778,31.777
	c-17.521,0-31.777-14.255-31.777-31.777S136.868,23.747,154.391,23.747 M154.391,22.747c-18.102,0-32.777,14.675-32.777,32.777
	c0,18.103,14.676,32.777,32.777,32.777c18.104,0,32.778-14.674,32.778-32.777C187.169,37.422,172.493,22.747,154.391,22.747
	L154.391,22.747z"/>
</svg>
