<?xml version="1.0" encoding="utf-8"?>
<!-- Generator: Adobe Illustrator 16.0.3, SVG Export Plug-In . SVG Version: 6.00 Build 0)  -->
<!DOCTYPE svg PUBLIC "-//W3C//DTD SVG 1.0//EN" "http://www.w3.org/TR/2001/REC-SVG-20010904/DTD/svg10.dtd">
<svg version="1.0" id="Layer_2" xmlns="http://www.w3.org/2000/svg" xmlns:xlink="http://www.w3.org/1999/xlink" x="0px" y="0px"
	 width="296px" height="156px" viewBox="0 0 296 156" enable-background="new 0 0 296 156" xml:space="preserve">
<path fill="#FFFFFF" d="M205.3,54.445h-16.947c-2.585,0-5.353,1.896-5.353,4.482v43.001c0,2.584,2.768,4.517,5.353,4.517H205.3
	c2.586,0,4.7-1.932,4.7-4.517V58.927C210,56.341,207.886,54.445,205.3,54.445z M196.5,59.445h3c0.277,0,0.5,0.224,0.5,0.5
	c0,0.277-0.223,0.5-0.5,0.5h-3c-0.275,0-0.5-0.224-0.5-0.5C196,59.669,196.225,59.445,196.5,59.445z M192.251,58.948
	c0.414,0,0.749,0.335,0.749,0.748c0,0.414-0.335,0.749-0.749,0.749c-0.412,0-0.748-0.335-0.748-0.749
	C191.503,59.283,191.839,58.948,192.251,58.948z M185,97.646V63.445h4.407l14.422,34.201H185z M196.754,103.634
	c-1.239,0-2.245-1.006-2.245-2.246s1.006-2.246,2.245-2.246c1.241,0,2.246,1.006,2.246,2.246S197.995,103.634,196.754,103.634z
	 M208,97.646h-3.085l-14.422-34.201H208V97.646z M245.3,43.445h-19.947c-2.585,0-5.353,1.896-5.353,4.482v54.001
	c0,2.584,2.768,4.517,5.353,4.517H245.3c2.586,0,4.7-1.932,4.7-4.517V47.927C250,45.341,247.886,43.445,245.3,43.445z M248,52.445
	v37.053l-15.625-37.053H248z M235.5,48.445h3c0.277,0,0.5,0.224,0.5,0.5c0,0.277-0.223,0.5-0.5,0.5h-3c-0.275,0-0.5-0.224-0.5-0.5
	C235,48.669,235.225,48.445,235.5,48.445z M231.748,47.948c0.414,0,0.749,0.335,0.749,0.748c0,0.414-0.335,0.749-0.749,0.749
	c-0.412,0-0.748-0.335-0.748-0.749C231,48.283,231.336,47.948,231.748,47.948z M235.245,103.634c-1.239,0-2.245-1.006-2.245-2.246
	s1.006-2.246,2.245-2.246c1.241,0,2.246,1.006,2.246,2.246S236.486,103.634,235.245,103.634z M222,97.646V52.445h9.289L248,92.073
	v5.573H222z M164.716,43.658h-15.971c-3.307,0-7.745,0.788-7.745,4.095v52.509c0,3.307,4.438,6.184,7.745,6.184h15.971
	c3.307,0,7.284-2.682,7.284-5.988V47.948C172,44.641,168.022,43.658,164.716,43.658z M170,49.445v37.053l-15.625-37.053H170z
	 M163.748,46.451c0.414,0,0.749,0.335,0.749,0.749c0,0.414-0.335,0.749-0.749,0.749c-0.412,0-0.748-0.335-0.748-0.749
	C163,46.786,163.336,46.451,163.748,46.451z M153,46.658h6v1h-6V46.658z M160.225,102.138c0,0.725-0.588,1.313-1.313,1.313h-3.363
	c-0.725,0-1.313-0.588-1.313-1.313v-0.693h5.988V102.138z M143,99.445v-50h10.289L170,89.073v10.372H143z M125.509,35.445H90.491
	c-2.47,0-4.491,2.021-4.491,4.491v61.385c0,2.471,2.021,4.124,4.491,4.124h35.018c2.471,0,4.491-1.653,4.491-4.124V39.936
	C130,37.466,127.979,35.445,125.509,35.445z M108.001,37.445c0.552,0,0.999,0.449,0.999,1c0,0.553-0.447,1-0.999,1
	c-0.551,0-1.001-0.447-1.001-1C107,37.894,107.45,37.445,108.001,37.445z M90.882,42.445h7.545l22.62,53H90.882V42.445z M110,98.445
	h-5v-1h5V98.445z M125,95.445h-2.854l-22.633-53H125V95.445z M41.06,106.445H74v-60H41.06V106.445z M60.06,104.445H56v-4h4.06
	V104.445z M71.06,89.977L55.984,54.226H71.06V89.977z M54.06,49.445h8v1h-8V49.445z M45.563,48.948c0.553,0,1,0.448,1,1
	c0,0.553-0.447,1-1,1c-0.551,0-1-0.447-1-1C44.563,49.396,45.012,48.948,45.563,48.948z M44,54.226h10.898L71.06,92.552v5.893H44
	V54.226z"/>
</svg>
