<?xml version="1.0" encoding="utf-8"?>
<!-- Generator: Adobe Illustrator 16.0.3, SVG Export Plug-In . SVG Version: 6.00 Build 0)  -->
<!DOCTYPE svg PUBLIC "-//W3C//DTD SVG 1.0//EN" "http://www.w3.org/TR/2001/REC-SVG-20010904/DTD/svg10.dtd">
<svg version="1.0" id="Layer_2" xmlns="http://www.w3.org/2000/svg" xmlns:xlink="http://www.w3.org/1999/xlink" x="0px" y="0px"
	 width="296px" height="156px" viewBox="0 0 296 156" enable-background="new 0 0 296 156" xml:space="preserve">
<g>
	<g>
		<rect x="117" y="116.5" fill="#FFFFFF" width="50" height="24"/>
		<path fill="#303030" d="M166,117.5v22h-48v-22H166 M167,116.5h-50v24h50V116.5L167,116.5z"/>
	</g>
	<g>
		<path fill="#FFFFFF" d="M225,120.058c0,2.453-1.989,4.442-4.442,4.442H62.442c-2.454,0-4.442-1.989-4.442-4.442V18.942
			c0-2.453,1.988-4.442,4.442-4.442h158.116c2.453,0,4.442,1.989,4.442,4.442V120.058z"/>
		<path fill="#303030" d="M220.558,15.5c1.898,0,3.442,1.544,3.442,3.442v101.116c0,1.898-1.544,3.442-3.442,3.442H62.442
			c-1.898,0-3.442-1.544-3.442-3.442V18.942c0-1.898,1.544-3.442,3.442-3.442H220.558 M220.558,14.5H62.442
			C59.988,14.5,58,16.489,58,18.942v101.116c0,2.453,1.988,4.442,4.442,4.442h158.116c2.453,0,4.442-1.989,4.442-4.442V18.942
			C225,16.489,223.011,14.5,220.558,14.5L220.558,14.5z"/>
	</g>
	<g>
		<rect x="65" y="21.718" fill="#303030" width="153" height="95.782"/>
	</g>
	<g>
		<rect x="102" y="136.5" fill="#FFFFFF" width="79" height="5"/>
		<path fill="#303030" d="M180,137.5v3h-77v-3H180 M181,136.5h-79v5h79V136.5L181,136.5z"/>
	</g>
	<polygon fill="#FFFFFF" points="176.922,119.889 134,18.889 134.922,18.5 177.844,119.5 	"/>
</g>
<g>
	<path fill="#303030" d="M258.559,39.5c1.897,0,3.441,1.544,3.441,3.441v94.117c0,1.898-1.544,3.442-3.441,3.442h-65.117
		c-1.897,0-3.441-1.544-3.441-3.442V42.941c0-1.897,1.544-3.441,3.441-3.441H258.559 M258.559,38.5h-65.117
		c-2.453,0-4.441,1.988-4.441,4.441v94.117c0,2.453,1.988,4.442,4.441,4.442h65.117c2.452,0,4.441-1.989,4.441-4.442V42.941
		C263,40.488,261.011,38.5,258.559,38.5L258.559,38.5z"/>
	<path fill="#FFFFFF" d="M258.559,39.5c1.897,0,3.441,1.544,3.441,3.441v94.117c0,1.898-1.544,3.442-3.441,3.442h-65.117
		c-1.897,0-3.441-1.544-3.441-3.442V42.941c0-1.897,1.544-3.441,3.441-3.441H258.559"/>
	<g>
		<rect x="194" y="46.703" fill="#303030" width="64" height="81.618"/>
	</g>
	<g>
		<circle fill="#FFFFFF" cx="226.3" cy="135.206" r="2.361"/>
		<path fill="#303030" d="M226.3,133.845c0.751,0,1.361,0.61,1.361,1.361s-0.61,1.361-1.361,1.361c-0.75,0-1.36-0.61-1.36-1.361
			S225.55,133.845,226.3,133.845 M226.3,132.845c-1.304,0-2.36,1.057-2.36,2.361c0,1.303,1.057,2.361,2.36,2.361
			s2.361-1.058,2.361-2.361C228.661,133.902,227.604,132.845,226.3,132.845L226.3,132.845z"/>
	</g>

		<rect x="183.461" y="86.5" transform="matrix(0.3886 0.9214 -0.9214 0.3886 219.8797 -157.35)" fill="#FFFFFF" width="90.078" height="1"/>
</g>
<g>
	<path fill="#303030" d="M68.558,66.5H37.442C34.989,66.5,33,68.489,33,70.941v66.117c0,2.453,1.989,4.442,4.442,4.442h31.116
		c2.453,0,4.442-1.989,4.442-4.442V70.941C73,68.489,71.011,66.5,68.558,66.5L68.558,66.5z"/>
	<path fill="#FFFFFF" d="M68.558,67.5c1.898,0,3.442,1.544,3.442,3.441v66.117c0,1.898-1.544,3.442-3.442,3.442H37.442
		c-1.898,0-3.442-1.544-3.442-3.442V70.941c0-1.897,1.544-3.441,3.442-3.441H68.558"/>
	<g>
		<rect x="37" y="73.5" fill="#303030" width="32" height="55"/>
	</g>
	<path fill="#303030" d="M52.933,134.4c0.75,0,1.361,0.61,1.361,1.361s-0.61,1.361-1.361,1.361c-0.75,0-1.36-0.61-1.36-1.361
		S52.183,134.4,52.933,134.4 M52.933,133.4c-1.303,0-2.36,1.057-2.36,2.361c0,1.303,1.057,2.361,2.36,2.361
		c1.304,0,2.361-1.058,2.361-2.361C55.293,134.458,54.236,133.4,52.933,133.4L52.933,133.4z"/>
	<polygon fill="#FFFFFF" points="51.811,73.5 50.725,73.5 69,116.837 69,114.262 51.811,73.5 	"/>
</g>
</svg>
