<?xml version="1.0" encoding="utf-8"?>
<!-- Generator: Adobe Illustrator 16.0.3, SVG Export Plug-In . SVG Version: 6.00 Build 0)  -->
<!DOCTYPE svg PUBLIC "-//W3C//DTD SVG 1.0//EN" "http://www.w3.org/TR/2001/REC-SVG-20010904/DTD/svg10.dtd">
<svg version="1.0" id="Layer_2" xmlns="http://www.w3.org/2000/svg" xmlns:xlink="http://www.w3.org/1999/xlink" x="0px" y="0px"
	 width="296px" height="156px" viewBox="0 0 296 156" enable-background="new 0 0 296 156" xml:space="preserve">
<g>
	<g>
		<g>
			<path fill="#96B03C" d="M60.879,107.093v7.282c0,1.756,6.939,3,15.5,3s15.5-1.244,15.5-3v-7.282H60.879z"/>
			<path fill="#FFFFFF" d="M90.879,108.093v6.191c-0.607,0.752-5.342,2.09-14.5,2.09s-13.893-1.338-14.5-2.09v-6.191H90.879
				 M91.879,107.093h-31v7.282c0,1.756,6.939,3,15.5,3s15.5-1.244,15.5-3V107.093L91.879,107.093z"/>
		</g>
		<rect x="62.907" y="107.888" fill="#FFFFFF" width="3.972" height="8.077"/>
		<rect x="65.907" y="109.042" fill="#FFFFFF" width="3.972" height="8.077"/>
		<rect x="70.907" y="109.042" fill="#FFFFFF" width="2.972" height="8.077"/>
		<rect x="82.879" y="109.299" fill="#FFFFFF" width="1" height="8.076"/>
		<rect x="80.879" y="108.375" fill="#FFFFFF" width="1" height="8.076"/>
		<rect x="78.879" y="108.375" fill="#FFFFFF" width="1" height="8.076"/>
		<rect x="76.879" y="108.375" fill="#FFFFFF" width="1" height="8.076"/>
		<rect x="74.879" y="108.299" fill="#FFFFFF" width="1" height="8.076"/>
		<rect x="86.879" y="108.042" fill="#FFFFFF" width="0.795" height="8.076"/>
		<rect x="85.084" y="108.299" fill="#FFFFFF" width="0.795" height="8.076"/>
		<rect x="89.084" y="108.042" fill="#FFFFFF" width="0.795" height="8.076"/>
		<g>
			<ellipse fill="#96B03C" cx="76.379" cy="107.375" rx="15.5" ry="3"/>
			<path fill="#FFFFFF" d="M76.379,105.375c8.47,0,13.317,1.237,14.365,2c-1.048,0.763-5.896,2-14.365,2s-13.317-1.237-14.365-2
				C63.062,106.612,67.909,105.375,76.379,105.375 M76.379,104.375c-8.561,0-15.5,1.343-15.5,3c0,1.657,6.939,3,15.5,3
				s15.5-1.343,15.5-3C91.879,105.718,84.939,104.375,76.379,104.375L76.379,104.375z"/>
		</g>
	</g>
	<g>
		<g>
			<path fill="#96B03C" d="M63.879,98.093v7.282c0,1.756,6.939,3,15.5,3s15.5-1.244,15.5-3v-7.282H63.879z"/>
			<path fill="#FFFFFF" d="M93.879,99.093v6.191c-0.607,0.752-5.342,2.09-14.5,2.09s-13.893-1.338-14.5-2.09v-6.191H93.879
				 M94.879,98.093h-31v7.282c0,1.756,6.939,3,15.5,3s15.5-1.244,15.5-3V98.093L94.879,98.093z"/>
		</g>
		<rect x="65.907" y="98.888" fill="#FFFFFF" width="3.972" height="8.077"/>
		<rect x="68.907" y="100.042" fill="#FFFFFF" width="3.972" height="8.077"/>
		<rect x="73.907" y="100.042" fill="#FFFFFF" width="2.972" height="8.077"/>
		<rect x="85.879" y="100.299" fill="#FFFFFF" width="1" height="8.076"/>
		<rect x="83.879" y="99.375" fill="#FFFFFF" width="1" height="8.076"/>
		<rect x="81.879" y="99.375" fill="#FFFFFF" width="1" height="8.076"/>
		<rect x="79.879" y="99.375" fill="#FFFFFF" width="1" height="8.076"/>
		<rect x="77.879" y="99.299" fill="#FFFFFF" width="1" height="8.076"/>
		<rect x="89.879" y="99.042" fill="#FFFFFF" width="0.795" height="8.076"/>
		<rect x="88.084" y="99.299" fill="#FFFFFF" width="0.795" height="8.076"/>
		<rect x="92.084" y="99.042" fill="#FFFFFF" width="0.795" height="8.076"/>
		<g>
			<ellipse fill="#96B03C" cx="79.379" cy="98.375" rx="15.5" ry="3"/>
			<path fill="#FFFFFF" d="M79.379,96.375c8.47,0,13.317,1.237,14.365,2c-1.048,0.763-5.896,2-14.365,2s-13.317-1.237-14.365-2
				C66.062,97.612,70.909,96.375,79.379,96.375 M79.379,95.375c-8.561,0-15.5,1.343-15.5,3c0,1.657,6.939,3,15.5,3
				s15.5-1.343,15.5-3C94.879,96.718,87.939,95.375,79.379,95.375L79.379,95.375z"/>
		</g>
	</g>
	<g>
		<g>
			<path fill="#96B03C" d="M60.879,91.093v7.282c0,1.756,6.939,3,15.5,3s15.5-1.244,15.5-3v-7.282H60.879z"/>
			<path fill="#FFFFFF" d="M90.879,92.093v6.191c-0.607,0.752-5.342,2.09-14.5,2.09s-13.893-1.338-14.5-2.09v-6.191H90.879
				 M91.879,91.093h-31v7.282c0,1.756,6.939,3,15.5,3s15.5-1.244,15.5-3V91.093L91.879,91.093z"/>
		</g>
		<rect x="62.907" y="91.888" fill="#FFFFFF" width="3.972" height="8.077"/>
		<rect x="65.907" y="93.042" fill="#FFFFFF" width="3.972" height="8.077"/>
		<rect x="70.907" y="93.042" fill="#FFFFFF" width="2.972" height="8.077"/>
		<rect x="82.879" y="93.299" fill="#FFFFFF" width="1" height="8.076"/>
		<rect x="80.879" y="92.375" fill="#FFFFFF" width="1" height="8.076"/>
		<rect x="78.879" y="92.375" fill="#FFFFFF" width="1" height="8.076"/>
		<rect x="76.879" y="92.375" fill="#FFFFFF" width="1" height="8.076"/>
		<rect x="74.879" y="92.299" fill="#FFFFFF" width="1" height="8.076"/>
		<rect x="86.879" y="92.042" fill="#FFFFFF" width="0.795" height="8.076"/>
		<rect x="85.084" y="92.299" fill="#FFFFFF" width="0.795" height="8.076"/>
		<rect x="89.084" y="92.042" fill="#FFFFFF" width="0.795" height="8.076"/>
		<g>
			<ellipse fill="#96B03C" cx="76.379" cy="91.375" rx="15.5" ry="3"/>
			<path fill="#FFFFFF" d="M76.379,89.375c8.47,0,13.317,1.237,14.365,2c-1.048,0.763-5.896,2-14.365,2s-13.317-1.237-14.365-2
				C63.062,90.612,67.909,89.375,76.379,89.375 M76.379,88.375c-8.561,0-15.5,1.343-15.5,3c0,1.657,6.939,3,15.5,3
				s15.5-1.343,15.5-3C91.879,89.718,84.939,88.375,76.379,88.375L76.379,88.375z"/>
		</g>
	</g>
	<g>
		<g>
			<path fill="#96B03C" d="M61.879,82.093v7.282c0,1.756,6.939,3,15.5,3s15.5-1.244,15.5-3v-7.282H61.879z"/>
			<path fill="#FFFFFF" d="M91.879,83.093v6.191c-0.607,0.752-5.342,2.09-14.5,2.09s-13.893-1.338-14.5-2.09v-6.191H91.879
				 M92.879,82.093h-31v7.282c0,1.756,6.939,3,15.5,3s15.5-1.244,15.5-3V82.093L92.879,82.093z"/>
		</g>
		<rect x="63.907" y="82.888" fill="#FFFFFF" width="3.972" height="8.077"/>
		<rect x="66.907" y="84.042" fill="#FFFFFF" width="3.972" height="8.077"/>
		<rect x="71.907" y="84.042" fill="#FFFFFF" width="2.972" height="8.077"/>
		<rect x="83.879" y="84.299" fill="#FFFFFF" width="1" height="8.076"/>
		<rect x="81.879" y="83.375" fill="#FFFFFF" width="1" height="8.076"/>
		<rect x="79.879" y="83.375" fill="#FFFFFF" width="1" height="8.076"/>
		<rect x="77.879" y="83.375" fill="#FFFFFF" width="1" height="8.076"/>
		<rect x="75.879" y="83.299" fill="#FFFFFF" width="1" height="8.076"/>
		<rect x="87.879" y="83.042" fill="#FFFFFF" width="0.795" height="8.076"/>
		<rect x="86.084" y="83.299" fill="#FFFFFF" width="0.795" height="8.076"/>
		<rect x="90.084" y="83.042" fill="#FFFFFF" width="0.795" height="8.076"/>
		<g>
			<ellipse fill="#96B03C" cx="77.379" cy="82.375" rx="15.5" ry="3"/>
			<path fill="#FFFFFF" d="M77.379,80.375c8.47,0,13.317,1.237,14.365,2c-1.048,0.763-5.896,2-14.365,2s-13.317-1.237-14.365-2
				C64.062,81.612,68.909,80.375,77.379,80.375 M77.379,79.375c-8.561,0-15.5,1.343-15.5,3c0,1.657,6.939,3,15.5,3
				s15.5-1.343,15.5-3C92.879,80.718,85.939,79.375,77.379,79.375L77.379,79.375z"/>
		</g>
	</g>
	<g>
		<g>
			<path fill="#96B03C" d="M59.879,73.093v7.282c0,1.756,6.939,3,15.5,3s15.5-1.244,15.5-3v-7.282H59.879z"/>
			<path fill="#FFFFFF" d="M89.879,74.093v6.191c-0.607,0.752-5.342,2.09-14.5,2.09s-13.893-1.338-14.5-2.09v-6.191H89.879
				 M90.879,73.093h-31v7.282c0,1.756,6.939,3,15.5,3s15.5-1.244,15.5-3V73.093L90.879,73.093z"/>
		</g>
		<rect x="61.907" y="73.888" fill="#FFFFFF" width="3.972" height="8.077"/>
		<rect x="64.907" y="75.042" fill="#FFFFFF" width="3.972" height="8.077"/>
		<rect x="69.907" y="75.042" fill="#FFFFFF" width="2.972" height="8.077"/>
		<rect x="81.879" y="75.299" fill="#FFFFFF" width="1" height="8.076"/>
		<rect x="79.879" y="74.375" fill="#FFFFFF" width="1" height="8.076"/>
		<rect x="77.879" y="74.375" fill="#FFFFFF" width="1" height="8.076"/>
		<rect x="75.879" y="74.375" fill="#FFFFFF" width="1" height="8.076"/>
		<rect x="73.879" y="74.299" fill="#FFFFFF" width="1" height="8.076"/>
		<rect x="85.879" y="74.042" fill="#FFFFFF" width="0.795" height="8.076"/>
		<rect x="84.084" y="74.299" fill="#FFFFFF" width="0.795" height="8.076"/>
		<rect x="88.084" y="74.042" fill="#FFFFFF" width="0.795" height="8.076"/>
		<g>
			<ellipse fill="#96B03C" cx="75.379" cy="73.375" rx="15.5" ry="3"/>
			<path fill="#FFFFFF" d="M75.379,71.375c8.47,0,13.317,1.237,14.365,2c-1.048,0.763-5.896,2-14.365,2s-13.317-1.237-14.365-2
				C62.062,72.612,66.909,71.375,75.379,71.375 M75.379,70.375c-8.561,0-15.5,1.343-15.5,3c0,1.657,6.939,3,15.5,3
				s15.5-1.343,15.5-3C90.879,71.718,83.939,70.375,75.379,70.375L75.379,70.375z"/>
		</g>
	</g>
	<g>
		<g>
			<path fill="#96B03C" d="M61.879,63.093v7.282c0,1.756,6.939,3,15.5,3s15.5-1.244,15.5-3v-7.282H61.879z"/>
			<path fill="#FFFFFF" d="M91.879,64.093v6.191c-0.607,0.752-5.342,2.09-14.5,2.09s-13.893-1.338-14.5-2.09v-6.191H91.879
				 M92.879,63.093h-31v7.282c0,1.756,6.939,3,15.5,3s15.5-1.244,15.5-3V63.093L92.879,63.093z"/>
		</g>
		<rect x="63.907" y="63.888" fill="#FFFFFF" width="3.972" height="8.077"/>
		<rect x="66.907" y="65.042" fill="#FFFFFF" width="3.972" height="8.077"/>
		<rect x="71.907" y="65.042" fill="#FFFFFF" width="2.972" height="8.077"/>
		<rect x="83.879" y="65.299" fill="#FFFFFF" width="1" height="8.076"/>
		<rect x="81.879" y="64.375" fill="#FFFFFF" width="1" height="8.076"/>
		<rect x="79.879" y="64.375" fill="#FFFFFF" width="1" height="8.076"/>
		<rect x="77.879" y="64.375" fill="#FFFFFF" width="1" height="8.076"/>
		<rect x="75.879" y="64.299" fill="#FFFFFF" width="1" height="8.076"/>
		<rect x="87.879" y="64.042" fill="#FFFFFF" width="0.795" height="8.076"/>
		<rect x="86.084" y="64.299" fill="#FFFFFF" width="0.795" height="8.076"/>
		<rect x="90.084" y="64.042" fill="#FFFFFF" width="0.795" height="8.076"/>
		<g>
			<ellipse fill="#96B03C" cx="77.379" cy="63.375" rx="15.5" ry="3"/>
			<path fill="#FFFFFF" d="M77.379,61.375c8.47,0,13.317,1.237,14.365,2c-1.048,0.763-5.896,2-14.365,2s-13.317-1.237-14.365-2
				C64.062,62.612,68.909,61.375,77.379,61.375 M77.379,60.375c-8.561,0-15.5,1.343-15.5,3c0,1.657,6.939,3,15.5,3
				s15.5-1.343,15.5-3C92.879,61.718,85.939,60.375,77.379,60.375L77.379,60.375z"/>
		</g>
	</g>
	<g>
		<g>
			<path fill="#96B03C" d="M59.879,54.093v7.282c0,1.756,6.939,3,15.5,3s15.5-1.244,15.5-3v-7.282H59.879z"/>
			<path fill="#FFFFFF" d="M89.879,55.093v6.191c-0.607,0.752-5.342,2.09-14.5,2.09s-13.893-1.338-14.5-2.09v-6.191H89.879
				 M90.879,54.093h-31v7.282c0,1.756,6.939,3,15.5,3s15.5-1.244,15.5-3V54.093L90.879,54.093z"/>
		</g>
		<rect x="61.907" y="54.888" fill="#FFFFFF" width="3.972" height="8.077"/>
		<rect x="64.907" y="56.042" fill="#FFFFFF" width="3.972" height="8.077"/>
		<rect x="69.907" y="56.042" fill="#FFFFFF" width="2.972" height="8.077"/>
		<rect x="81.879" y="56.299" fill="#FFFFFF" width="1" height="8.076"/>
		<rect x="79.879" y="55.375" fill="#FFFFFF" width="1" height="8.076"/>
		<rect x="77.879" y="55.375" fill="#FFFFFF" width="1" height="8.076"/>
		<rect x="75.879" y="55.375" fill="#FFFFFF" width="1" height="8.076"/>
		<rect x="73.879" y="55.299" fill="#FFFFFF" width="1" height="8.076"/>
		<rect x="85.879" y="55.042" fill="#FFFFFF" width="0.795" height="8.076"/>
		<rect x="84.084" y="55.299" fill="#FFFFFF" width="0.795" height="8.076"/>
		<rect x="88.084" y="55.042" fill="#FFFFFF" width="0.795" height="8.076"/>
		<g>
			<ellipse fill="#96B03C" cx="75.379" cy="54.375" rx="15.5" ry="3"/>
			<path fill="#FFFFFF" d="M75.379,52.375c8.47,0,13.317,1.237,14.365,2c-1.048,0.763-5.896,2-14.365,2s-13.317-1.237-14.365-2
				C62.062,53.612,66.909,52.375,75.379,52.375 M75.379,51.375c-8.561,0-15.5,1.343-15.5,3c0,1.657,6.939,3,15.5,3
				s15.5-1.343,15.5-3C90.879,52.718,83.939,51.375,75.379,51.375L75.379,51.375z"/>
		</g>
	</g>
</g>
<g>
	<circle fill="#FFFFFF" cx="149.448" cy="69.875" r="66"/>
	<g>
		<circle fill="#96B03C" cx="149.448" cy="69.875" r="57.667"/>
		<path fill="#FFFFFF" d="M149.448,128.042c-32.073,0-58.167-26.094-58.167-58.167s26.094-58.167,58.167-58.167
			s58.167,26.094,58.167,58.167S181.521,128.042,149.448,128.042z M149.448,12.708c-31.522,0-57.167,25.645-57.167,57.167
			s25.645,57.167,57.167,57.167s57.167-25.645,57.167-57.167S180.971,12.708,149.448,12.708z"/>
	</g>
	<g>
		<path fill="#FFFFFF" d="M196.104,71.127c0-0.842,0-1.627,0-2.458c2.789,0,5.543,0,8.344,0c0,0.807,0,1.611,0,2.458
			C201.678,71.127,198.924,71.127,196.104,71.127z"/>
		<path fill="#FFFFFF" d="M148.208,23.219c0.845,0,1.646,0,2.463,0c0-2.8,0-5.552,0-8.341c-0.829,0-1.618,0-2.463,0
			C148.208,17.695,148.208,20.446,148.208,23.219z"/>
		<path fill="#FFFFFF" d="M102.756,71.124c0-0.852,0-1.655,0-2.461c-2.794,0-5.531,0-8.308,0c0,0.824,0,1.611,0,2.461
			C97.253,71.124,100.008,71.124,102.756,71.124z"/>
		<path fill="#FFFFFF" d="M148.213,124.872c0.854,0,1.657,0,2.439,0c0-2.81,0-5.563,0-8.333c-0.835,0-1.605,0-2.439,0
			C148.213,119.363,148.213,122.117,148.213,124.872z"/>
		<path fill="#FFFFFF" d="M111.641,36.619c0.263-0.296,0.488-0.551,0.73-0.824c-1.12-1.007-2.173-1.955-3.263-2.936
			c-0.24,0.262-0.459,0.504-0.741,0.813C109.481,34.676,110.548,35.633,111.641,36.619z"/>
		<path fill="#FFFFFF" d="M190.509,33.662c-0.278-0.305-0.498-0.543-0.74-0.805c-1.109,1-2.169,1.955-3.266,2.943
			c0.263,0.287,0.481,0.526,0.739,0.81C188.37,35.591,189.43,34.634,190.509,33.662z"/>
		<path fill="#FFFFFF" d="M189.76,106.959c0.263-0.292,0.487-0.545,0.731-0.822c-1.114-1.004-2.174-1.959-3.255-2.932
			c-0.259,0.281-0.467,0.507-0.744,0.81C187.603,105.015,188.661,105.969,189.76,106.959z"/>
		<path fill="#FFFFFF" d="M108.381,106.146c0.266,0.293,0.485,0.536,0.732,0.809c1.106-0.999,2.181-1.967,3.271-2.947
			c-0.275-0.303-0.481-0.531-0.737-0.813C110.528,104.207,109.464,105.167,108.381,106.146z"/>
	</g>

		<rect x="135.575" y="30.235" transform="matrix(0.8476 -0.5306 0.5306 0.8476 -5.8813 80.9894)" fill="#FFFFFF" width="4.999" height="41"/>

		<rect x="144.945" y="54.926" transform="matrix(0.7517 -0.6595 0.6595 0.7517 2.3833 122.1814)" fill="#FFFFFF" width="36.999" height="5.999"/>
	<path fill="#FFFFFF" d="M154.398,65.198c2.306,2.63,2.045,6.633-0.585,8.938c-2.627,2.307-6.63,2.046-8.938-0.583
		c-2.307-2.629-2.044-6.632,0.584-8.939C148.088,62.309,152.091,62.569,154.398,65.198z"/>
</g>
<g>
	<g>
		<g>
			<path fill="#96B03C" d="M22.879,127.093v7.282c0,1.756,6.939,3,15.5,3s15.5-1.244,15.5-3v-7.282H22.879z"/>
			<path fill="#FFFFFF" d="M52.879,128.093v6.191c-0.607,0.752-5.342,2.09-14.5,2.09s-13.893-1.338-14.5-2.09v-6.191H52.879
				 M53.879,127.093h-31v7.282c0,1.756,6.939,3,15.5,3s15.5-1.244,15.5-3V127.093L53.879,127.093z"/>
		</g>
		<rect x="24.907" y="127.888" fill="#FFFFFF" width="3.972" height="8.077"/>
		<rect x="27.907" y="129.042" fill="#FFFFFF" width="3.972" height="8.077"/>
		<rect x="32.907" y="129.042" fill="#FFFFFF" width="2.972" height="8.077"/>
		<rect x="44.879" y="129.299" fill="#FFFFFF" width="1" height="8.076"/>
		<rect x="42.879" y="128.375" fill="#FFFFFF" width="1" height="8.076"/>
		<rect x="40.879" y="128.375" fill="#FFFFFF" width="1" height="8.076"/>
		<rect x="38.879" y="128.375" fill="#FFFFFF" width="1" height="8.076"/>
		<rect x="36.879" y="128.299" fill="#FFFFFF" width="1" height="8.076"/>
		<rect x="48.879" y="128.042" fill="#FFFFFF" width="0.795" height="8.076"/>
		<rect x="47.084" y="128.299" fill="#FFFFFF" width="0.795" height="8.076"/>
		<rect x="51.084" y="128.042" fill="#FFFFFF" width="0.795" height="8.076"/>
		<g>
			<ellipse fill="#96B03C" cx="38.379" cy="127.375" rx="15.5" ry="3"/>
			<path fill="#FFFFFF" d="M38.379,125.375c8.47,0,13.317,1.237,14.365,2c-1.048,0.763-5.896,2-14.365,2s-13.317-1.237-14.365-2
				C25.062,126.612,29.909,125.375,38.379,125.375 M38.379,124.375c-8.561,0-15.5,1.343-15.5,3c0,1.657,6.939,3,15.5,3
				s15.5-1.343,15.5-3C53.879,125.718,46.939,124.375,38.379,124.375L38.379,124.375z"/>
		</g>
	</g>
	<g>
		<g>
			<path fill="#96B03C" d="M24.879,118.093v7.282c0,1.756,6.939,3,15.5,3s15.5-1.244,15.5-3v-7.282H24.879z"/>
			<path fill="#FFFFFF" d="M54.879,119.093v6.191c-0.607,0.752-5.342,2.09-14.5,2.09s-13.893-1.338-14.5-2.09v-6.191H54.879
				 M55.879,118.093h-31v7.282c0,1.756,6.939,3,15.5,3s15.5-1.244,15.5-3V118.093L55.879,118.093z"/>
		</g>
		<rect x="26.907" y="118.888" fill="#FFFFFF" width="3.972" height="8.077"/>
		<rect x="29.907" y="120.042" fill="#FFFFFF" width="3.972" height="8.077"/>
		<rect x="34.907" y="120.042" fill="#FFFFFF" width="2.972" height="8.077"/>
		<rect x="46.879" y="120.299" fill="#FFFFFF" width="1" height="8.076"/>
		<rect x="44.879" y="119.375" fill="#FFFFFF" width="1" height="8.076"/>
		<rect x="42.879" y="119.375" fill="#FFFFFF" width="1" height="8.076"/>
		<rect x="40.879" y="119.375" fill="#FFFFFF" width="1" height="8.076"/>
		<rect x="38.879" y="119.299" fill="#FFFFFF" width="1" height="8.076"/>
		<rect x="50.879" y="119.042" fill="#FFFFFF" width="0.795" height="8.076"/>
		<rect x="49.084" y="119.299" fill="#FFFFFF" width="0.795" height="8.076"/>
		<rect x="53.084" y="119.042" fill="#FFFFFF" width="0.795" height="8.076"/>
		<g>
			<ellipse fill="#96B03C" cx="40.379" cy="118.375" rx="15.5" ry="3"/>
			<path fill="#FFFFFF" d="M40.379,116.375c8.47,0,13.317,1.237,14.365,2c-1.048,0.763-5.896,2-14.365,2s-13.317-1.237-14.365-2
				C27.062,117.612,31.909,116.375,40.379,116.375 M40.379,115.375c-8.561,0-15.5,1.343-15.5,3c0,1.657,6.939,3,15.5,3
				s15.5-1.343,15.5-3C55.879,116.718,48.939,115.375,40.379,115.375L40.379,115.375z"/>
		</g>
	</g>
	<g>
		<g>
			<path fill="#96B03C" d="M21.879,111.093v7.282c0,1.756,6.939,3,15.5,3s15.5-1.244,15.5-3v-7.282H21.879z"/>
			<path fill="#FFFFFF" d="M51.879,112.093v6.191c-0.607,0.752-5.342,2.09-14.5,2.09s-13.893-1.338-14.5-2.09v-6.191H51.879
				 M52.879,111.093h-31v7.282c0,1.756,6.939,3,15.5,3s15.5-1.244,15.5-3V111.093L52.879,111.093z"/>
		</g>
		<rect x="23.907" y="111.888" fill="#FFFFFF" width="3.972" height="8.077"/>
		<rect x="26.907" y="113.042" fill="#FFFFFF" width="3.972" height="8.077"/>
		<rect x="31.907" y="113.042" fill="#FFFFFF" width="2.972" height="8.077"/>
		<rect x="43.879" y="113.299" fill="#FFFFFF" width="1" height="8.076"/>
		<rect x="41.879" y="112.375" fill="#FFFFFF" width="1" height="8.076"/>
		<rect x="39.879" y="112.375" fill="#FFFFFF" width="1" height="8.076"/>
		<rect x="37.879" y="112.375" fill="#FFFFFF" width="1" height="8.076"/>
		<rect x="35.879" y="112.299" fill="#FFFFFF" width="1" height="8.076"/>
		<rect x="47.879" y="112.042" fill="#FFFFFF" width="0.795" height="8.076"/>
		<rect x="46.084" y="112.299" fill="#FFFFFF" width="0.795" height="8.076"/>
		<rect x="50.084" y="112.042" fill="#FFFFFF" width="0.795" height="8.076"/>
		<g>
			<ellipse fill="#96B03C" cx="37.379" cy="111.375" rx="15.5" ry="3"/>
			<path fill="#FFFFFF" d="M37.379,109.375c8.47,0,13.317,1.237,14.365,2c-1.048,0.763-5.896,2-14.365,2s-13.317-1.237-14.365-2
				C24.062,110.612,28.909,109.375,37.379,109.375 M37.379,108.375c-8.561,0-15.5,1.343-15.5,3c0,1.657,6.939,3,15.5,3
				s15.5-1.343,15.5-3C52.879,109.718,45.939,108.375,37.379,108.375L37.379,108.375z"/>
		</g>
	</g>
	<g>
		<g>
			<path fill="#96B03C" d="M20.879,102.093v7.282c0,1.756,6.939,3,15.5,3s15.5-1.244,15.5-3v-7.282H20.879z"/>
			<path fill="#FFFFFF" d="M50.879,103.093v6.191c-0.607,0.752-5.342,2.09-14.5,2.09s-13.893-1.338-14.5-2.09v-6.191H50.879
				 M51.879,102.093h-31v7.282c0,1.756,6.939,3,15.5,3s15.5-1.244,15.5-3V102.093L51.879,102.093z"/>
		</g>
		<rect x="22.907" y="102.888" fill="#FFFFFF" width="3.972" height="8.077"/>
		<rect x="25.907" y="104.042" fill="#FFFFFF" width="3.972" height="8.077"/>
		<rect x="30.907" y="104.042" fill="#FFFFFF" width="2.972" height="8.077"/>
		<rect x="42.879" y="104.299" fill="#FFFFFF" width="1" height="8.076"/>
		<rect x="40.879" y="103.375" fill="#FFFFFF" width="1" height="8.076"/>
		<rect x="38.879" y="103.375" fill="#FFFFFF" width="1" height="8.076"/>
		<rect x="36.879" y="103.375" fill="#FFFFFF" width="1" height="8.076"/>
		<rect x="34.879" y="103.299" fill="#FFFFFF" width="1" height="8.076"/>
		<rect x="46.879" y="103.042" fill="#FFFFFF" width="0.795" height="8.076"/>
		<rect x="45.084" y="103.299" fill="#FFFFFF" width="0.795" height="8.076"/>
		<rect x="49.084" y="103.042" fill="#FFFFFF" width="0.795" height="8.076"/>
		<g>
			<ellipse fill="#96B03C" cx="36.379" cy="102.375" rx="15.5" ry="3"/>
			<path fill="#FFFFFF" d="M36.379,100.375c8.47,0,13.317,1.237,14.365,2c-1.048,0.763-5.896,2-14.365,2s-13.317-1.237-14.365-2
				C23.062,101.612,27.909,100.375,36.379,100.375 M36.379,99.375c-8.561,0-15.5,1.343-15.5,3c0,1.657,6.939,3,15.5,3
				s15.5-1.343,15.5-3C51.879,100.718,44.939,99.375,36.379,99.375L36.379,99.375z"/>
		</g>
	</g>
	<g>
		<g>
			<path fill="#96B03C" d="M21.879,93.093v7.282c0,1.756,6.939,3,15.5,3s15.5-1.244,15.5-3v-7.282H21.879z"/>
			<path fill="#FFFFFF" d="M51.879,94.093v6.191c-0.607,0.752-5.342,2.09-14.5,2.09s-13.893-1.338-14.5-2.09v-6.191H51.879
				 M52.879,93.093h-31v7.282c0,1.756,6.939,3,15.5,3s15.5-1.244,15.5-3V93.093L52.879,93.093z"/>
		</g>
		<rect x="23.907" y="93.888" fill="#FFFFFF" width="3.972" height="8.077"/>
		<rect x="26.907" y="95.042" fill="#FFFFFF" width="3.972" height="8.077"/>
		<rect x="31.907" y="95.042" fill="#FFFFFF" width="2.972" height="8.077"/>
		<rect x="43.879" y="95.299" fill="#FFFFFF" width="1" height="8.076"/>
		<rect x="41.879" y="94.375" fill="#FFFFFF" width="1" height="8.076"/>
		<rect x="39.879" y="94.375" fill="#FFFFFF" width="1" height="8.076"/>
		<rect x="37.879" y="94.375" fill="#FFFFFF" width="1" height="8.076"/>
		<rect x="35.879" y="94.299" fill="#FFFFFF" width="1" height="8.076"/>
		<rect x="47.879" y="94.042" fill="#FFFFFF" width="0.795" height="8.076"/>
		<rect x="46.084" y="94.299" fill="#FFFFFF" width="0.795" height="8.076"/>
		<rect x="50.084" y="94.042" fill="#FFFFFF" width="0.795" height="8.076"/>
		<g>
			<ellipse fill="#96B03C" cx="37.379" cy="93.375" rx="15.5" ry="3"/>
			<path fill="#FFFFFF" d="M37.379,91.375c8.47,0,13.317,1.237,14.365,2c-1.048,0.763-5.896,2-14.365,2s-13.317-1.237-14.365-2
				C24.062,92.612,28.909,91.375,37.379,91.375 M37.379,90.375c-8.561,0-15.5,1.343-15.5,3c0,1.657,6.939,3,15.5,3
				s15.5-1.343,15.5-3C52.879,91.718,45.939,90.375,37.379,90.375L37.379,90.375z"/>
		</g>
	</g>
	<g>
		<g>
			<path fill="#96B03C" d="M23.879,83.093v7.282c0,1.756,6.939,3,15.5,3s15.5-1.244,15.5-3v-7.282H23.879z"/>
			<path fill="#FFFFFF" d="M53.879,84.093v6.191c-0.607,0.752-5.342,2.09-14.5,2.09s-13.893-1.338-14.5-2.09v-6.191H53.879
				 M54.879,83.093h-31v7.282c0,1.756,6.939,3,15.5,3s15.5-1.244,15.5-3V83.093L54.879,83.093z"/>
		</g>
		<rect x="25.907" y="83.888" fill="#FFFFFF" width="3.972" height="8.077"/>
		<rect x="28.907" y="85.042" fill="#FFFFFF" width="3.972" height="8.077"/>
		<rect x="33.907" y="85.042" fill="#FFFFFF" width="2.972" height="8.077"/>
		<rect x="45.879" y="85.299" fill="#FFFFFF" width="1" height="8.076"/>
		<rect x="43.879" y="84.375" fill="#FFFFFF" width="1" height="8.076"/>
		<rect x="41.879" y="84.375" fill="#FFFFFF" width="1" height="8.076"/>
		<rect x="39.879" y="84.375" fill="#FFFFFF" width="1" height="8.076"/>
		<rect x="37.879" y="84.299" fill="#FFFFFF" width="1" height="8.076"/>
		<rect x="49.879" y="84.042" fill="#FFFFFF" width="0.795" height="8.076"/>
		<rect x="48.084" y="84.299" fill="#FFFFFF" width="0.795" height="8.076"/>
		<rect x="52.084" y="84.042" fill="#FFFFFF" width="0.795" height="8.076"/>
		<g>
			<ellipse fill="#96B03C" cx="39.379" cy="83.375" rx="15.5" ry="3"/>
			<path fill="#FFFFFF" d="M39.379,81.375c8.47,0,13.317,1.237,14.365,2c-1.048,0.763-5.896,2-14.365,2s-13.317-1.237-14.365-2
				C26.062,82.612,30.909,81.375,39.379,81.375 M39.379,80.375c-8.561,0-15.5,1.343-15.5,3c0,1.657,6.939,3,15.5,3
				s15.5-1.343,15.5-3C54.879,81.718,47.939,80.375,39.379,80.375L39.379,80.375z"/>
		</g>
	</g>
	<g>
		<g>
			<path fill="#96B03C" d="M21.879,74.093v7.282c0,1.756,6.939,3,15.5,3s15.5-1.244,15.5-3v-7.282H21.879z"/>
			<path fill="#FFFFFF" d="M51.879,75.093v6.191c-0.607,0.752-5.342,2.09-14.5,2.09s-13.893-1.338-14.5-2.09v-6.191H51.879
				 M52.879,74.093h-31v7.282c0,1.756,6.939,3,15.5,3s15.5-1.244,15.5-3V74.093L52.879,74.093z"/>
		</g>
		<rect x="23.907" y="74.888" fill="#FFFFFF" width="3.972" height="8.077"/>
		<rect x="26.907" y="76.042" fill="#FFFFFF" width="3.972" height="8.077"/>
		<rect x="31.907" y="76.042" fill="#FFFFFF" width="2.972" height="8.077"/>
		<rect x="43.879" y="76.299" fill="#FFFFFF" width="1" height="8.076"/>
		<rect x="41.879" y="75.375" fill="#FFFFFF" width="1" height="8.076"/>
		<rect x="39.879" y="75.375" fill="#FFFFFF" width="1" height="8.076"/>
		<rect x="37.879" y="75.375" fill="#FFFFFF" width="1" height="8.076"/>
		<rect x="35.879" y="75.299" fill="#FFFFFF" width="1" height="8.076"/>
		<rect x="47.879" y="75.042" fill="#FFFFFF" width="0.795" height="8.076"/>
		<rect x="46.084" y="75.299" fill="#FFFFFF" width="0.795" height="8.076"/>
		<rect x="50.084" y="75.042" fill="#FFFFFF" width="0.795" height="8.076"/>
		<g>
			<ellipse fill="#96B03C" cx="37.379" cy="74.375" rx="15.5" ry="3"/>
			<path fill="#FFFFFF" d="M37.379,72.375c8.47,0,13.317,1.237,14.365,2c-1.048,0.763-5.896,2-14.365,2s-13.317-1.237-14.365-2
				C24.062,73.612,28.909,72.375,37.379,72.375 M37.379,71.375c-8.561,0-15.5,1.343-15.5,3c0,1.657,6.939,3,15.5,3
				s15.5-1.343,15.5-3C52.879,72.718,45.939,71.375,37.379,71.375L37.379,71.375z"/>
		</g>
	</g>
</g>
<g>
	<g>
		<g>
			<path fill="#96B03C" d="M75.879,136.093v7.282c0,1.756,6.939,3,15.5,3s15.5-1.244,15.5-3v-7.282H75.879z"/>
			<path fill="#FFFFFF" d="M105.879,137.093v6.191c-0.607,0.752-5.342,2.09-14.5,2.09s-13.893-1.338-14.5-2.09v-6.191H105.879
				 M106.879,136.093h-31v7.282c0,1.756,6.939,3,15.5,3s15.5-1.244,15.5-3V136.093L106.879,136.093z"/>
		</g>
		<rect x="77.907" y="136.888" fill="#FFFFFF" width="3.972" height="8.077"/>
		<rect x="80.907" y="138.042" fill="#FFFFFF" width="3.972" height="8.077"/>
		<rect x="85.907" y="138.042" fill="#FFFFFF" width="2.972" height="8.077"/>
		<rect x="97.879" y="138.299" fill="#FFFFFF" width="1" height="8.076"/>
		<rect x="95.879" y="137.375" fill="#FFFFFF" width="1" height="8.076"/>
		<rect x="93.879" y="137.375" fill="#FFFFFF" width="1" height="8.076"/>
		<rect x="91.879" y="137.375" fill="#FFFFFF" width="1" height="8.076"/>
		<rect x="89.879" y="137.299" fill="#FFFFFF" width="1" height="8.076"/>
		<rect x="101.879" y="137.042" fill="#FFFFFF" width="0.795" height="8.076"/>
		<rect x="100.084" y="137.299" fill="#FFFFFF" width="0.795" height="8.076"/>
		<rect x="104.084" y="137.042" fill="#FFFFFF" width="0.795" height="8.076"/>
		<g>
			<ellipse fill="#96B03C" cx="91.379" cy="136.375" rx="15.5" ry="3"/>
			<path fill="#FFFFFF" d="M91.379,134.375c8.47,0,13.317,1.237,14.365,2c-1.048,0.763-5.896,2-14.365,2s-13.317-1.237-14.365-2
				C78.062,135.612,82.909,134.375,91.379,134.375 M91.379,133.375c-8.561,0-15.5,1.343-15.5,3c0,1.657,6.939,3,15.5,3
				s15.5-1.343,15.5-3C106.879,134.718,99.939,133.375,91.379,133.375L91.379,133.375z"/>
		</g>
	</g>
	<g>
		<g>
			<path fill="#96B03C" d="M78.879,127.093v7.282c0,1.756,6.939,3,15.5,3s15.5-1.244,15.5-3v-7.282H78.879z"/>
			<path fill="#FFFFFF" d="M108.879,128.093v6.191c-0.607,0.752-5.342,2.09-14.5,2.09s-13.893-1.338-14.5-2.09v-6.191H108.879
				 M109.879,127.093h-31v7.282c0,1.756,6.939,3,15.5,3s15.5-1.244,15.5-3V127.093L109.879,127.093z"/>
		</g>
		<rect x="80.907" y="127.888" fill="#FFFFFF" width="3.972" height="8.077"/>
		<rect x="83.907" y="129.042" fill="#FFFFFF" width="3.972" height="8.077"/>
		<rect x="88.907" y="129.042" fill="#FFFFFF" width="2.972" height="8.077"/>
		<rect x="100.879" y="129.299" fill="#FFFFFF" width="1" height="8.076"/>
		<rect x="98.879" y="128.375" fill="#FFFFFF" width="1" height="8.076"/>
		<rect x="96.879" y="128.375" fill="#FFFFFF" width="1" height="8.076"/>
		<rect x="94.879" y="128.375" fill="#FFFFFF" width="1" height="8.076"/>
		<rect x="92.879" y="128.299" fill="#FFFFFF" width="1" height="8.076"/>
		<rect x="104.879" y="128.042" fill="#FFFFFF" width="0.795" height="8.076"/>
		<rect x="103.084" y="128.299" fill="#FFFFFF" width="0.795" height="8.076"/>
		<rect x="107.084" y="128.042" fill="#FFFFFF" width="0.795" height="8.076"/>
		<g>
			<ellipse fill="#96B03C" cx="94.379" cy="127.375" rx="15.5" ry="3"/>
			<path fill="#FFFFFF" d="M94.379,125.375c8.47,0,13.317,1.237,14.365,2c-1.048,0.763-5.896,2-14.365,2s-13.317-1.237-14.365-2
				C81.062,126.612,85.909,125.375,94.379,125.375 M94.379,124.375c-8.561,0-15.5,1.343-15.5,3c0,1.657,6.939,3,15.5,3
				s15.5-1.343,15.5-3C109.879,125.718,102.939,124.375,94.379,124.375L94.379,124.375z"/>
		</g>
	</g>
	<g>
		<g>
			<path fill="#96B03C" d="M75.879,120.093v7.282c0,1.756,6.939,3,15.5,3s15.5-1.244,15.5-3v-7.282H75.879z"/>
			<path fill="#FFFFFF" d="M105.879,121.093v6.191c-0.607,0.752-5.342,2.09-14.5,2.09s-13.893-1.338-14.5-2.09v-6.191H105.879
				 M106.879,120.093h-31v7.282c0,1.756,6.939,3,15.5,3s15.5-1.244,15.5-3V120.093L106.879,120.093z"/>
		</g>
		<rect x="77.907" y="120.888" fill="#FFFFFF" width="3.972" height="8.077"/>
		<rect x="80.907" y="122.042" fill="#FFFFFF" width="3.972" height="8.077"/>
		<rect x="85.907" y="122.042" fill="#FFFFFF" width="2.972" height="8.077"/>
		<rect x="97.879" y="122.299" fill="#FFFFFF" width="1" height="8.076"/>
		<rect x="95.879" y="121.375" fill="#FFFFFF" width="1" height="8.076"/>
		<rect x="93.879" y="121.375" fill="#FFFFFF" width="1" height="8.076"/>
		<rect x="91.879" y="121.375" fill="#FFFFFF" width="1" height="8.076"/>
		<rect x="89.879" y="121.299" fill="#FFFFFF" width="1" height="8.076"/>
		<rect x="101.879" y="121.042" fill="#FFFFFF" width="0.795" height="8.076"/>
		<rect x="100.084" y="121.299" fill="#FFFFFF" width="0.795" height="8.076"/>
		<rect x="104.084" y="121.042" fill="#FFFFFF" width="0.795" height="8.076"/>
		<g>
			<ellipse fill="#96B03C" cx="91.379" cy="120.375" rx="15.5" ry="3"/>
			<path fill="#FFFFFF" d="M91.379,118.375c8.47,0,13.317,1.237,14.365,2c-1.048,0.763-5.896,2-14.365,2s-13.317-1.237-14.365-2
				C78.062,119.612,82.909,118.375,91.379,118.375 M91.379,117.375c-8.561,0-15.5,1.343-15.5,3c0,1.657,6.939,3,15.5,3
				s15.5-1.343,15.5-3C106.879,118.718,99.939,117.375,91.379,117.375L91.379,117.375z"/>
		</g>
	</g>
	<g>
		<g>
			<path fill="#96B03C" d="M76.879,111.093v7.282c0,1.756,6.939,3,15.5,3s15.5-1.244,15.5-3v-7.282H76.879z"/>
			<path fill="#FFFFFF" d="M106.879,112.093v6.191c-0.607,0.752-5.342,2.09-14.5,2.09s-13.893-1.338-14.5-2.09v-6.191H106.879
				 M107.879,111.093h-31v7.282c0,1.756,6.939,3,15.5,3s15.5-1.244,15.5-3V111.093L107.879,111.093z"/>
		</g>
		<rect x="78.907" y="111.888" fill="#FFFFFF" width="3.972" height="8.077"/>
		<rect x="81.907" y="113.042" fill="#FFFFFF" width="3.972" height="8.077"/>
		<rect x="86.907" y="113.042" fill="#FFFFFF" width="2.972" height="8.077"/>
		<rect x="98.879" y="113.299" fill="#FFFFFF" width="1" height="8.076"/>
		<rect x="96.879" y="112.375" fill="#FFFFFF" width="1" height="8.076"/>
		<rect x="94.879" y="112.375" fill="#FFFFFF" width="1" height="8.076"/>
		<rect x="92.879" y="112.375" fill="#FFFFFF" width="1" height="8.076"/>
		<rect x="90.879" y="112.299" fill="#FFFFFF" width="1" height="8.076"/>
		<rect x="102.879" y="112.042" fill="#FFFFFF" width="0.795" height="8.076"/>
		<rect x="101.084" y="112.299" fill="#FFFFFF" width="0.795" height="8.076"/>
		<rect x="105.084" y="112.042" fill="#FFFFFF" width="0.795" height="8.076"/>
		<g>
			<ellipse fill="#96B03C" cx="92.379" cy="111.375" rx="15.5" ry="3"/>
			<path fill="#FFFFFF" d="M92.379,109.375c8.47,0,13.317,1.237,14.365,2c-1.048,0.763-5.896,2-14.365,2s-13.317-1.237-14.365-2
				C79.062,110.612,83.909,109.375,92.379,109.375 M92.379,108.375c-8.561,0-15.5,1.343-15.5,3c0,1.657,6.939,3,15.5,3
				s15.5-1.343,15.5-3C107.879,109.718,100.939,108.375,92.379,108.375L92.379,108.375z"/>
		</g>
	</g>
	<g>
		<g>
			<path fill="#96B03C" d="M74.879,102.093v7.282c0,1.756,6.939,3,15.5,3s15.5-1.244,15.5-3v-7.282H74.879z"/>
			<path fill="#FFFFFF" d="M104.879,103.093v6.191c-0.607,0.752-5.342,2.09-14.5,2.09s-13.893-1.338-14.5-2.09v-6.191H104.879
				 M105.879,102.093h-31v7.282c0,1.756,6.939,3,15.5,3s15.5-1.244,15.5-3V102.093L105.879,102.093z"/>
		</g>
		<rect x="76.907" y="102.888" fill="#FFFFFF" width="3.972" height="8.077"/>
		<rect x="79.907" y="104.042" fill="#FFFFFF" width="3.972" height="8.077"/>
		<rect x="84.907" y="104.042" fill="#FFFFFF" width="2.972" height="8.077"/>
		<rect x="96.879" y="104.299" fill="#FFFFFF" width="1" height="8.076"/>
		<rect x="94.879" y="103.375" fill="#FFFFFF" width="1" height="8.076"/>
		<rect x="92.879" y="103.375" fill="#FFFFFF" width="1" height="8.076"/>
		<rect x="90.879" y="103.375" fill="#FFFFFF" width="1" height="8.076"/>
		<rect x="88.879" y="103.299" fill="#FFFFFF" width="1" height="8.076"/>
		<rect x="100.879" y="103.042" fill="#FFFFFF" width="0.795" height="8.076"/>
		<rect x="99.084" y="103.299" fill="#FFFFFF" width="0.795" height="8.076"/>
		<rect x="103.084" y="103.042" fill="#FFFFFF" width="0.795" height="8.076"/>
		<g>
			<ellipse fill="#96B03C" cx="90.379" cy="102.375" rx="15.5" ry="3"/>
			<path fill="#FFFFFF" d="M90.379,100.375c8.47,0,13.317,1.237,14.365,2c-1.048,0.763-5.896,2-14.365,2s-13.317-1.237-14.365-2
				C77.062,101.612,81.909,100.375,90.379,100.375 M90.379,99.375c-8.561,0-15.5,1.343-15.5,3c0,1.657,6.939,3,15.5,3
				s15.5-1.343,15.5-3C105.879,100.718,98.939,99.375,90.379,99.375L90.379,99.375z"/>
		</g>
	</g>
	<g>
		<g>
			<path fill="#96B03C" d="M76.879,92.093v7.282c0,1.756,6.939,3,15.5,3s15.5-1.244,15.5-3v-7.282H76.879z"/>
			<path fill="#FFFFFF" d="M106.879,93.093v6.191c-0.607,0.752-5.342,2.09-14.5,2.09s-13.893-1.338-14.5-2.09v-6.191H106.879
				 M107.879,92.093h-31v7.282c0,1.756,6.939,3,15.5,3s15.5-1.244,15.5-3V92.093L107.879,92.093z"/>
		</g>
		<rect x="78.907" y="92.888" fill="#FFFFFF" width="3.972" height="8.077"/>
		<rect x="81.907" y="94.042" fill="#FFFFFF" width="3.972" height="8.077"/>
		<rect x="86.907" y="94.042" fill="#FFFFFF" width="2.972" height="8.077"/>
		<rect x="98.879" y="94.299" fill="#FFFFFF" width="1" height="8.076"/>
		<rect x="96.879" y="93.375" fill="#FFFFFF" width="1" height="8.076"/>
		<rect x="94.879" y="93.375" fill="#FFFFFF" width="1" height="8.076"/>
		<rect x="92.879" y="93.375" fill="#FFFFFF" width="1" height="8.076"/>
		<rect x="90.879" y="93.299" fill="#FFFFFF" width="1" height="8.076"/>
		<rect x="102.879" y="93.042" fill="#FFFFFF" width="0.795" height="8.076"/>
		<rect x="101.084" y="93.299" fill="#FFFFFF" width="0.795" height="8.076"/>
		<rect x="105.084" y="93.042" fill="#FFFFFF" width="0.795" height="8.076"/>
		<g>
			<ellipse fill="#96B03C" cx="92.379" cy="92.375" rx="15.5" ry="3"/>
			<path fill="#FFFFFF" d="M92.379,90.375c8.47,0,13.317,1.237,14.365,2c-1.048,0.763-5.896,2-14.365,2s-13.317-1.237-14.365-2
				C79.062,91.612,83.909,90.375,92.379,90.375 M92.379,89.375c-8.561,0-15.5,1.343-15.5,3c0,1.657,6.939,3,15.5,3
				s15.5-1.343,15.5-3C107.879,90.718,100.939,89.375,92.379,89.375L92.379,89.375z"/>
		</g>
	</g>
	<g>
		<g>
			<path fill="#96B03C" d="M74.879,83.093v7.282c0,1.756,6.939,3,15.5,3s15.5-1.244,15.5-3v-7.282H74.879z"/>
			<path fill="#FFFFFF" d="M104.879,84.093v6.191c-0.607,0.752-5.342,2.09-14.5,2.09s-13.893-1.338-14.5-2.09v-6.191H104.879
				 M105.879,83.093h-31v7.282c0,1.756,6.939,3,15.5,3s15.5-1.244,15.5-3V83.093L105.879,83.093z"/>
		</g>
		<rect x="76.907" y="83.888" fill="#FFFFFF" width="3.972" height="8.077"/>
		<rect x="79.907" y="85.042" fill="#FFFFFF" width="3.972" height="8.077"/>
		<rect x="84.907" y="85.042" fill="#FFFFFF" width="2.972" height="8.077"/>
		<rect x="96.879" y="85.299" fill="#FFFFFF" width="1" height="8.076"/>
		<rect x="94.879" y="84.375" fill="#FFFFFF" width="1" height="8.076"/>
		<rect x="92.879" y="84.375" fill="#FFFFFF" width="1" height="8.076"/>
		<rect x="90.879" y="84.375" fill="#FFFFFF" width="1" height="8.076"/>
		<rect x="88.879" y="84.299" fill="#FFFFFF" width="1" height="8.076"/>
		<rect x="100.879" y="84.042" fill="#FFFFFF" width="0.795" height="8.076"/>
		<rect x="99.084" y="84.299" fill="#FFFFFF" width="0.795" height="8.076"/>
		<rect x="103.084" y="84.042" fill="#FFFFFF" width="0.795" height="8.076"/>
		<g>
			<ellipse fill="#96B03C" cx="90.379" cy="83.375" rx="15.5" ry="3"/>
			<path fill="#FFFFFF" d="M90.379,81.375c8.47,0,13.317,1.237,14.365,2c-1.048,0.763-5.896,2-14.365,2s-13.317-1.237-14.365-2
				C77.062,82.612,81.909,81.375,90.379,81.375 M90.379,80.375c-8.561,0-15.5,1.343-15.5,3c0,1.657,6.939,3,15.5,3
				s15.5-1.343,15.5-3C105.879,81.718,98.939,80.375,90.379,80.375L90.379,80.375z"/>
		</g>
	</g>
</g>
<g>
	<g>
		<g>
			<path fill="#96B03C" d="M163.879,126.375v8l21,12c0,0,12-1,26-7s23-13,23-13v-7l-22-13c0,0-6,6-20,11
				S163.879,126.375,163.879,126.375z"/>
			<path fill="#FFFFFF" d="M212.01,107.614l20.869,12.332v5.931c-1.857,1.376-10.27,7.383-22.394,12.58
				c-12.461,5.34-23.447,6.688-25.387,6.893l-20.22-11.554v-6.668c3.055-0.89,15.265-4.499,27.336-8.81
				C204.019,114.101,210.189,109.217,212.01,107.614 M211.879,106.375c0,0-6,6-20,11s-28,9-28,9v8l21,12c0,0,12-1,26-7s23-13,23-13
				v-7L211.879,106.375L211.879,106.375z"/>
		</g>
		<path opacity="0.4" fill="#96B03C" d="M210.879,131.375c11.675-5.003,19.851-10.688,22.252-12.442l-21.252-12.558c0,0-6,6-20,11
			s-28,9-28,9l21,12C184.879,138.375,196.879,137.375,210.879,131.375z"/>
		<polygon fill="#FFFFFF" points="197.879,114.375 216.879,127.375 216.879,136.375 207.879,140.375 207.879,132.375
			186.879,118.375 		"/>
		<path fill="#FFFFFF" d="M204.081,117.407c4.263-0.234,7.608,0.946,8.174,3.175c0.18,0.707,0.056,1.456-0.31,2.206L204.081,117.407
			z M191.328,122.543c-1.131,1.227-1.665,2.519-1.366,3.698c0.69,2.722,5.528,3.88,11.12,2.805L191.328,122.543z"/>
		<path fill="#FFFFFF" d="M228.729,121.926c1.479-0.948,2.659-1.754,3.514-2.358c0.083-0.059,0.164-0.116,0.241-0.171
			c0.079-0.056,0.154-0.109,0.226-0.161c0.154-0.11,0.298-0.214,0.421-0.304l-14.711-8.693l0,0l-6.541-3.865
			c0,0-0.029,0.029-0.085,0.082c-0.002,0.001-0.006,0.005-0.007,0.006c-0.057,0.054-0.141,0.131-0.252,0.23
			c-0.006,0.006-0.016,0.014-0.021,0.02c-0.112,0.1-0.25,0.221-0.415,0.36c-0.011,0.009-0.023,0.02-0.034,0.029
			c-0.167,0.142-0.361,0.302-0.582,0.479c-0.016,0.013-0.033,0.027-0.05,0.04c-0.224,0.178-0.474,0.374-0.751,0.583
			c-0.021,0.017-0.044,0.033-0.066,0.05c-0.281,0.212-0.592,0.439-0.928,0.679c-0.024,0.017-0.048,0.034-0.073,0.052
			c-0.348,0.247-0.727,0.507-1.133,0.777c-0.019,0.013-0.036,0.024-0.055,0.037c-0.429,0.284-0.888,0.581-1.382,0.887l0,0
			c-3.24,2.012-7.895,4.449-14.166,6.688c-7.954,2.841-15.905,5.357-21.292,7.002l0,0c-2.508,0.766-4.457,1.342-5.594,1.674
			c-0.03,0.009-0.064,0.019-0.094,0.027c-0.072,0.021-0.138,0.04-0.202,0.059c-0.038,0.011-0.078,0.023-0.113,0.033
			c-0.071,0.021-0.136,0.04-0.196,0.057c-0.027,0.008-0.056,0.016-0.08,0.023c-0.05,0.014-0.098,0.028-0.139,0.04
			c-0.016,0.004-0.031,0.009-0.046,0.013c-0.044,0.013-0.084,0.024-0.116,0.034c-0.079,0.023-0.128,0.037-0.128,0.037l6.014,3.437
			l0,0l10.92,6.24l0,0l4.066,2.323c0,0,0.013-0.001,0.037-0.003c0.004,0,0.009,0,0.014-0.001c0.024-0.002,0.059-0.005,0.104-0.01
			c0.003,0,0.007-0.001,0.01-0.001c0.047-0.004,0.103-0.01,0.169-0.017c0.021-0.002,0.045-0.005,0.067-0.007
			c0.057-0.006,0.116-0.013,0.186-0.02c0.028-0.003,0.061-0.007,0.091-0.01c0.075-0.009,0.154-0.018,0.242-0.028
			c0.028-0.003,0.06-0.007,0.09-0.011c0.093-0.011,0.189-0.023,0.294-0.036c0.042-0.005,0.085-0.011,0.129-0.017
			c0.104-0.014,0.214-0.028,0.329-0.043c0.046-0.006,0.093-0.013,0.142-0.019c0.12-0.017,0.245-0.034,0.376-0.052
			c0.053-0.008,0.105-0.016,0.16-0.023c0.135-0.02,0.274-0.04,0.419-0.062c0.059-0.009,0.116-0.018,0.177-0.027
			c0.146-0.022,0.299-0.046,0.455-0.071c0.066-0.01,0.132-0.021,0.201-0.032c0.164-0.027,0.336-0.056,0.51-0.085
			c0.063-0.011,0.125-0.021,0.189-0.032c0.181-0.031,0.369-0.064,0.56-0.098c0.069-0.012,0.136-0.024,0.206-0.037
			c0.195-0.035,0.397-0.073,0.603-0.111c0.07-0.013,0.138-0.025,0.209-0.039c0.226-0.042,0.459-0.088,0.695-0.135
			c0.055-0.011,0.106-0.021,0.162-0.032c0.285-0.057,0.577-0.117,0.877-0.18c0.011-0.002,0.021-0.004,0.031-0.006
			c0.31-0.065,0.627-0.133,0.951-0.205c0.006-0.001,0.012-0.002,0.018-0.004l0,0c4.648-1.028,10.754-2.74,17.298-5.544
			c7.683-3.292,13.835-6.873,17.839-9.441l0,0C228.722,121.932,228.726,121.929,228.729,121.926z M210.091,129.537
			c-7.211,3.09-13.912,4.825-18.62,5.776c-1.199-0.54-2.739-0.895-4.445-0.94c-1.539-0.041-2.96,0.176-4.127,0.566l-10.923-6.242
			c0.556-0.482,0.884-1.042,0.899-1.647c0.011-0.407-0.124-0.801-0.371-1.171c5.358-1.651,12.726-4.006,20.048-6.622
			c7.101-2.536,12.198-5.322,15.569-7.517c1.062,0.361,2.313,0.592,3.666,0.628c1.883,0.05,3.597-0.278,4.869-0.849l9.221,5.449
			c-0.61,0.499-0.977,1.084-0.993,1.723c-0.023,0.858,0.576,1.659,1.588,2.294C222.555,123.429,216.927,126.607,210.091,129.537z"/>
	</g>
	<g>
		<g>
			<path fill="#96B03C" d="M163.879,118.375v8l21,12c0,0,12-1,26-7s23-13,23-13v-7l-22-13c0,0-6,6-20,11
				S163.879,118.375,163.879,118.375z"/>
			<path fill="#FFFFFF" d="M212.01,99.614l20.869,12.332v5.931c-1.857,1.376-10.27,7.383-22.394,12.58
				c-12.461,5.34-23.447,6.688-25.387,6.893l-20.22-11.554v-6.668c3.055-0.89,15.265-4.499,27.336-8.81
				C204.019,106.101,210.189,101.217,212.01,99.614 M211.879,98.375c0,0-6,6-20,11s-28,9-28,9v8l21,12c0,0,12-1,26-7s23-13,23-13v-7
				L211.879,98.375L211.879,98.375z"/>
		</g>
		<path opacity="0.4" fill="#96B03C" d="M210.879,123.375c11.675-5.003,19.851-10.688,22.252-12.442l-21.252-12.558c0,0-6,6-20,11
			s-28,9-28,9l21,12C184.879,130.375,196.879,129.375,210.879,123.375z"/>
		<polygon fill="#FFFFFF" points="197.879,106.375 216.879,119.375 216.879,128.375 207.879,132.375 207.879,124.375
			186.879,110.375 		"/>
		<path fill="#FFFFFF" d="M204.081,109.407c4.263-0.234,7.608,0.946,8.174,3.175c0.18,0.707,0.056,1.456-0.31,2.206L204.081,109.407
			z M191.328,114.543c-1.131,1.227-1.665,2.519-1.366,3.698c0.69,2.722,5.528,3.88,11.12,2.805L191.328,114.543z"/>
		<path fill="#FFFFFF" d="M228.729,113.926c1.479-0.948,2.659-1.754,3.514-2.358c0.083-0.059,0.164-0.116,0.241-0.171
			c0.079-0.056,0.154-0.109,0.226-0.161c0.154-0.11,0.298-0.214,0.421-0.304l-14.711-8.693l0,0l-6.541-3.865
			c0,0-0.029,0.029-0.085,0.082c-0.002,0.001-0.006,0.005-0.007,0.006c-0.057,0.054-0.141,0.131-0.252,0.23
			c-0.006,0.006-0.016,0.014-0.021,0.02c-0.112,0.1-0.25,0.221-0.415,0.36c-0.011,0.009-0.023,0.02-0.034,0.029
			c-0.167,0.142-0.361,0.302-0.582,0.479c-0.016,0.013-0.033,0.027-0.05,0.04c-0.224,0.178-0.474,0.374-0.751,0.583
			c-0.021,0.017-0.044,0.033-0.066,0.05c-0.281,0.212-0.592,0.439-0.928,0.679c-0.024,0.017-0.048,0.034-0.073,0.052
			c-0.348,0.247-0.727,0.507-1.133,0.777c-0.019,0.013-0.036,0.024-0.055,0.037c-0.429,0.284-0.888,0.581-1.382,0.887l0,0
			c-3.24,2.012-7.895,4.449-14.166,6.688c-7.954,2.841-15.905,5.357-21.292,7.002l0,0c-2.508,0.766-4.457,1.342-5.594,1.674
			c-0.03,0.009-0.064,0.019-0.094,0.027c-0.072,0.021-0.138,0.04-0.202,0.059c-0.038,0.011-0.078,0.023-0.113,0.033
			c-0.071,0.021-0.136,0.04-0.196,0.057c-0.027,0.008-0.056,0.016-0.08,0.023c-0.05,0.014-0.098,0.028-0.139,0.04
			c-0.016,0.004-0.031,0.009-0.046,0.013c-0.044,0.013-0.084,0.024-0.116,0.034c-0.079,0.023-0.128,0.037-0.128,0.037l6.014,3.437
			l0,0l10.92,6.24l0,0l4.066,2.323c0,0,0.013-0.001,0.037-0.003c0.004,0,0.009,0,0.014-0.001c0.024-0.002,0.059-0.005,0.104-0.01
			c0.003,0,0.007-0.001,0.01-0.001c0.047-0.004,0.103-0.01,0.169-0.017c0.021-0.002,0.045-0.005,0.067-0.007
			c0.057-0.006,0.116-0.013,0.186-0.02c0.028-0.003,0.061-0.007,0.091-0.01c0.075-0.009,0.154-0.018,0.242-0.028
			c0.028-0.003,0.06-0.007,0.09-0.011c0.093-0.011,0.189-0.023,0.294-0.036c0.042-0.005,0.085-0.011,0.129-0.017
			c0.104-0.014,0.214-0.028,0.329-0.043c0.046-0.006,0.093-0.013,0.142-0.019c0.12-0.017,0.245-0.034,0.376-0.052
			c0.053-0.008,0.105-0.016,0.16-0.023c0.135-0.02,0.274-0.04,0.419-0.062c0.059-0.009,0.116-0.018,0.177-0.027
			c0.146-0.022,0.299-0.046,0.455-0.071c0.066-0.01,0.132-0.021,0.201-0.032c0.164-0.027,0.336-0.056,0.51-0.085
			c0.063-0.011,0.125-0.021,0.189-0.032c0.181-0.031,0.369-0.064,0.56-0.098c0.069-0.012,0.136-0.024,0.206-0.037
			c0.195-0.035,0.397-0.073,0.603-0.111c0.07-0.013,0.138-0.025,0.209-0.039c0.226-0.042,0.459-0.088,0.695-0.135
			c0.055-0.011,0.106-0.021,0.162-0.032c0.285-0.057,0.577-0.117,0.877-0.18c0.011-0.002,0.021-0.004,0.031-0.006
			c0.31-0.065,0.627-0.133,0.951-0.205c0.006-0.001,0.012-0.002,0.018-0.004l0,0c4.648-1.028,10.754-2.74,17.298-5.544
			c7.683-3.292,13.835-6.873,17.839-9.441l0,0C228.722,113.932,228.726,113.929,228.729,113.926z M210.091,121.537
			c-7.211,3.09-13.912,4.825-18.62,5.776c-1.199-0.54-2.739-0.895-4.445-0.94c-1.539-0.041-2.96,0.176-4.127,0.566l-10.923-6.242
			c0.556-0.482,0.884-1.042,0.899-1.647c0.011-0.407-0.124-0.801-0.371-1.171c5.358-1.651,12.726-4.006,20.048-6.622
			c7.101-2.536,12.198-5.322,15.569-7.517c1.062,0.361,2.313,0.592,3.666,0.628c1.883,0.05,3.597-0.278,4.869-0.849l9.221,5.449
			c-0.61,0.499-0.977,1.084-0.993,1.723c-0.023,0.858,0.576,1.659,1.588,2.294C222.555,115.429,216.927,118.607,210.091,121.537z"/>
	</g>
	<g>
		<g>
			<path fill="#96B03C" d="M163.879,110.375v8l21,12c0,0,12-1,26-7s23-13,23-13v-7l-22-13c0,0-6,6-20,11
				S163.879,110.375,163.879,110.375z"/>
			<path fill="#FFFFFF" d="M212.01,91.614l20.869,12.332v5.931c-1.857,1.376-10.27,7.383-22.394,12.58
				c-12.461,5.34-23.447,6.688-25.387,6.893l-20.22-11.554v-6.668c3.055-0.89,15.265-4.499,27.336-8.81
				C204.019,98.101,210.189,93.217,212.01,91.614 M211.879,90.375c0,0-6,6-20,11s-28,9-28,9v8l21,12c0,0,12-1,26-7s23-13,23-13v-7
				L211.879,90.375L211.879,90.375z"/>
		</g>
		<path opacity="0.4" fill="#96B03C" d="M210.879,115.375c11.675-5.003,19.851-10.688,22.252-12.442l-21.252-12.558c0,0-6,6-20,11
			s-28,9-28,9l21,12C184.879,122.375,196.879,121.375,210.879,115.375z"/>
		<polygon fill="#FFFFFF" points="197.879,98.375 216.879,111.375 216.879,120.375 207.879,124.375 207.879,116.375
			186.879,102.375 		"/>
		<path fill="#FFFFFF" d="M204.081,101.407c4.263-0.234,7.608,0.946,8.174,3.175c0.18,0.707,0.056,1.456-0.31,2.206L204.081,101.407
			z M191.328,106.543c-1.131,1.227-1.665,2.519-1.366,3.698c0.69,2.722,5.528,3.88,11.12,2.805L191.328,106.543z"/>
		<path fill="#FFFFFF" d="M228.729,105.926c1.479-0.948,2.659-1.754,3.514-2.358c0.083-0.059,0.164-0.116,0.241-0.171
			c0.079-0.056,0.154-0.109,0.226-0.161c0.154-0.11,0.298-0.214,0.421-0.304L218.42,94.24l0,0l-6.541-3.865
			c0,0-0.029,0.029-0.085,0.082c-0.002,0.001-0.006,0.005-0.007,0.006c-0.057,0.054-0.141,0.131-0.252,0.23
			c-0.006,0.006-0.016,0.014-0.021,0.02c-0.112,0.1-0.25,0.221-0.415,0.36c-0.011,0.009-0.023,0.02-0.034,0.029
			c-0.167,0.142-0.361,0.302-0.582,0.479c-0.016,0.013-0.033,0.027-0.05,0.04c-0.224,0.178-0.474,0.374-0.751,0.583
			c-0.021,0.017-0.044,0.033-0.066,0.05c-0.281,0.212-0.592,0.439-0.928,0.679c-0.024,0.017-0.048,0.034-0.073,0.052
			c-0.348,0.247-0.727,0.507-1.133,0.777c-0.019,0.013-0.036,0.024-0.055,0.037c-0.429,0.284-0.888,0.581-1.382,0.887l0,0
			c-3.24,2.012-7.895,4.449-14.166,6.688c-7.954,2.841-15.905,5.357-21.292,7.002l0,0c-2.508,0.766-4.457,1.342-5.594,1.674
			c-0.03,0.009-0.064,0.019-0.094,0.027c-0.072,0.021-0.138,0.04-0.202,0.059c-0.038,0.011-0.078,0.023-0.113,0.033
			c-0.071,0.021-0.136,0.04-0.196,0.057c-0.027,0.008-0.056,0.016-0.08,0.023c-0.05,0.014-0.098,0.028-0.139,0.04
			c-0.016,0.004-0.031,0.009-0.046,0.013c-0.044,0.013-0.084,0.024-0.116,0.034c-0.079,0.023-0.128,0.037-0.128,0.037l6.014,3.437
			l0,0l10.92,6.24l0,0l4.066,2.323c0,0,0.013-0.001,0.037-0.003c0.004,0,0.009,0,0.014-0.001c0.024-0.002,0.059-0.005,0.104-0.01
			c0.003,0,0.007-0.001,0.01-0.001c0.047-0.004,0.103-0.01,0.169-0.017c0.021-0.002,0.045-0.005,0.067-0.007
			c0.057-0.006,0.116-0.013,0.186-0.02c0.028-0.003,0.061-0.007,0.091-0.01c0.075-0.009,0.154-0.018,0.242-0.028
			c0.028-0.003,0.06-0.007,0.09-0.011c0.093-0.011,0.189-0.023,0.294-0.036c0.042-0.005,0.085-0.011,0.129-0.017
			c0.104-0.014,0.214-0.028,0.329-0.043c0.046-0.006,0.093-0.013,0.142-0.019c0.12-0.017,0.245-0.034,0.376-0.052
			c0.053-0.008,0.105-0.016,0.16-0.023c0.135-0.02,0.274-0.04,0.419-0.062c0.059-0.009,0.116-0.018,0.177-0.027
			c0.146-0.022,0.299-0.046,0.455-0.071c0.066-0.01,0.132-0.021,0.201-0.032c0.164-0.027,0.336-0.056,0.51-0.085
			c0.063-0.011,0.125-0.021,0.189-0.032c0.181-0.031,0.369-0.064,0.56-0.098c0.069-0.012,0.136-0.024,0.206-0.037
			c0.195-0.035,0.397-0.073,0.603-0.111c0.07-0.013,0.138-0.025,0.209-0.039c0.226-0.042,0.459-0.088,0.695-0.135
			c0.055-0.011,0.106-0.021,0.162-0.032c0.285-0.057,0.577-0.117,0.877-0.18c0.011-0.002,0.021-0.004,0.031-0.006
			c0.31-0.065,0.627-0.133,0.951-0.205c0.006-0.001,0.012-0.002,0.018-0.004l0,0c4.648-1.028,10.754-2.74,17.298-5.544
			c7.683-3.292,13.835-6.873,17.839-9.441l0,0C228.722,105.932,228.726,105.929,228.729,105.926z M210.091,113.537
			c-7.211,3.09-13.912,4.825-18.62,5.776c-1.199-0.54-2.739-0.895-4.445-0.94c-1.539-0.041-2.96,0.176-4.127,0.566l-10.923-6.242
			c0.556-0.482,0.884-1.042,0.899-1.647c0.011-0.407-0.124-0.801-0.371-1.171c5.358-1.651,12.726-4.006,20.048-6.622
			c7.101-2.536,12.198-5.322,15.569-7.517c1.062,0.361,2.313,0.592,3.666,0.628c1.883,0.05,3.597-0.278,4.869-0.849l9.221,5.449
			c-0.61,0.499-0.977,1.084-0.993,1.723c-0.023,0.858,0.576,1.659,1.588,2.294C222.555,107.429,216.927,110.607,210.091,113.537z"/>
	</g>
	<g>
		<g>
			<path fill="#96B03C" d="M163.879,102.375v8l21,12c0,0,12-1,26-7s23-13,23-13v-7l-22-13c0,0-6,6-20,11
				S163.879,102.375,163.879,102.375z"/>
			<path fill="#FFFFFF" d="M212.01,83.614l20.869,12.332v5.931c-1.857,1.376-10.27,7.383-22.394,12.58
				c-12.461,5.34-23.447,6.688-25.387,6.893l-20.22-11.554v-6.668c3.055-0.89,15.265-4.499,27.336-8.81
				C204.019,90.101,210.189,85.217,212.01,83.614 M211.879,82.375c0,0-6,6-20,11s-28,9-28,9v8l21,12c0,0,12-1,26-7s23-13,23-13v-7
				L211.879,82.375L211.879,82.375z"/>
		</g>
		<path opacity="0.4" fill="#96B03C" d="M210.879,107.375c11.675-5.003,19.851-10.688,22.252-12.442l-21.252-12.558c0,0-6,6-20,11
			s-28,9-28,9l21,12C184.879,114.375,196.879,113.375,210.879,107.375z"/>
		<polygon fill="#FFFFFF" points="197.879,90.375 216.879,103.375 216.879,112.375 207.879,116.375 207.879,108.375 186.879,94.375
					"/>
		<path fill="#FFFFFF" d="M204.081,93.407c4.263-0.234,7.608,0.946,8.174,3.175c0.18,0.707,0.056,1.456-0.31,2.206L204.081,93.407z
			 M191.328,98.543c-1.131,1.227-1.665,2.519-1.366,3.698c0.69,2.722,5.528,3.88,11.12,2.805L191.328,98.543z"/>
		<path fill="#FFFFFF" d="M228.729,97.926c1.479-0.948,2.659-1.754,3.514-2.358c0.083-0.059,0.164-0.116,0.241-0.171
			c0.079-0.056,0.154-0.109,0.226-0.161c0.154-0.11,0.298-0.214,0.421-0.304L218.42,86.24l0,0l-6.541-3.865
			c0,0-0.029,0.029-0.085,0.082c-0.002,0.001-0.006,0.005-0.007,0.006c-0.057,0.054-0.141,0.131-0.252,0.23
			c-0.006,0.006-0.016,0.014-0.021,0.02c-0.112,0.1-0.25,0.221-0.415,0.36c-0.011,0.009-0.023,0.02-0.034,0.029
			c-0.167,0.142-0.361,0.302-0.582,0.479c-0.016,0.013-0.033,0.027-0.05,0.04c-0.224,0.178-0.474,0.374-0.751,0.583
			c-0.021,0.017-0.044,0.033-0.066,0.05c-0.281,0.212-0.592,0.439-0.928,0.679c-0.024,0.017-0.048,0.034-0.073,0.052
			c-0.348,0.247-0.727,0.507-1.133,0.777c-0.019,0.013-0.036,0.024-0.055,0.037c-0.429,0.284-0.888,0.581-1.382,0.887l0,0
			c-3.24,2.012-7.895,4.449-14.166,6.688c-7.954,2.841-15.905,5.357-21.292,7.002l0,0c-2.508,0.766-4.457,1.342-5.594,1.674
			c-0.03,0.009-0.064,0.019-0.094,0.027c-0.072,0.021-0.138,0.04-0.202,0.059c-0.038,0.011-0.078,0.023-0.113,0.033
			c-0.071,0.021-0.136,0.04-0.196,0.057c-0.027,0.008-0.056,0.016-0.08,0.023c-0.05,0.014-0.098,0.028-0.139,0.04
			c-0.016,0.004-0.031,0.009-0.046,0.013c-0.044,0.013-0.084,0.024-0.116,0.034c-0.079,0.023-0.128,0.037-0.128,0.037l6.014,3.437
			l0,0l10.92,6.24l0,0l4.066,2.323c0,0,0.013-0.001,0.037-0.003c0.004,0,0.009,0,0.014-0.001c0.024-0.002,0.059-0.005,0.104-0.01
			c0.003,0,0.007-0.001,0.01-0.001c0.047-0.004,0.103-0.01,0.169-0.017c0.021-0.002,0.045-0.005,0.067-0.007
			c0.057-0.006,0.116-0.013,0.186-0.02c0.028-0.003,0.061-0.007,0.091-0.01c0.075-0.009,0.154-0.018,0.242-0.028
			c0.028-0.003,0.06-0.007,0.09-0.011c0.093-0.011,0.189-0.023,0.294-0.036c0.042-0.005,0.085-0.011,0.129-0.017
			c0.104-0.014,0.214-0.028,0.329-0.043c0.046-0.006,0.093-0.013,0.142-0.019c0.12-0.017,0.245-0.034,0.376-0.052
			c0.053-0.008,0.105-0.016,0.16-0.023c0.135-0.02,0.274-0.04,0.419-0.062c0.059-0.009,0.116-0.018,0.177-0.027
			c0.146-0.022,0.299-0.046,0.455-0.071c0.066-0.01,0.132-0.021,0.201-0.032c0.164-0.027,0.336-0.056,0.51-0.085
			c0.063-0.011,0.125-0.021,0.189-0.032c0.181-0.031,0.369-0.064,0.56-0.098c0.069-0.012,0.136-0.024,0.206-0.037
			c0.195-0.035,0.397-0.073,0.603-0.111c0.07-0.013,0.138-0.025,0.209-0.039c0.226-0.042,0.459-0.088,0.695-0.135
			c0.055-0.011,0.106-0.021,0.162-0.032c0.285-0.057,0.577-0.117,0.877-0.18c0.011-0.002,0.021-0.004,0.031-0.006
			c0.31-0.065,0.627-0.133,0.951-0.205c0.006-0.001,0.012-0.002,0.018-0.004l0,0c4.648-1.028,10.754-2.74,17.298-5.544
			c7.683-3.292,13.835-6.873,17.839-9.441l0,0C228.722,97.932,228.726,97.929,228.729,97.926z M210.091,105.537
			c-7.211,3.09-13.912,4.825-18.62,5.776c-1.199-0.54-2.739-0.895-4.445-0.94c-1.539-0.041-2.96,0.176-4.127,0.566l-10.923-6.242
			c0.556-0.482,0.884-1.042,0.899-1.647c0.011-0.407-0.124-0.801-0.371-1.171c5.358-1.651,12.726-4.006,20.048-6.622
			c7.101-2.536,12.198-5.322,15.569-7.517c1.062,0.361,2.313,0.592,3.666,0.628c1.883,0.05,3.597-0.278,4.869-0.849l9.221,5.449
			c-0.61,0.499-0.977,1.084-0.993,1.723c-0.023,0.858,0.576,1.659,1.588,2.294C222.555,99.429,216.927,102.607,210.091,105.537z"/>
	</g>
</g>
<g>
	<g>
		<g>
			<path fill="#96B03C" d="M202.879,134.375v8l21,12c0,0,12-1,26-7s23-13,23-13v-7l-22-13c0,0-6,6-20,11
				S202.879,134.375,202.879,134.375z"/>
			<path fill="#FFFFFF" d="M251.01,115.614l20.869,12.332v5.931c-1.857,1.376-10.27,7.383-22.394,12.58
				c-12.461,5.34-23.447,6.688-25.387,6.893l-20.22-11.554v-6.668c3.055-0.89,15.265-4.499,27.336-8.81
				C243.019,122.101,249.189,117.217,251.01,115.614 M250.879,114.375c0,0-6,6-20,11s-28,9-28,9v8l21,12c0,0,12-1,26-7s23-13,23-13
				v-7L250.879,114.375L250.879,114.375z"/>
		</g>
		<path opacity="0.4" fill="#96B03C" d="M249.879,139.375c11.675-5.003,19.851-10.688,22.252-12.442l-21.252-12.558c0,0-6,6-20,11
			s-28,9-28,9l21,12C223.879,146.375,235.879,145.375,249.879,139.375z"/>
		<polygon fill="#FFFFFF" points="236.879,122.375 255.879,135.375 255.879,144.375 246.879,148.375 246.879,140.375
			225.879,126.375 		"/>
		<path fill="#FFFFFF" d="M243.081,125.407c4.263-0.234,7.608,0.946,8.174,3.175c0.18,0.707,0.056,1.456-0.31,2.206L243.081,125.407
			z M230.328,130.543c-1.131,1.227-1.665,2.519-1.366,3.698c0.69,2.722,5.528,3.88,11.12,2.805L230.328,130.543z"/>
		<path fill="#FFFFFF" d="M267.729,129.926c1.479-0.948,2.659-1.754,3.514-2.358c0.083-0.059,0.164-0.116,0.241-0.171
			c0.079-0.056,0.154-0.109,0.226-0.161c0.154-0.11,0.298-0.214,0.421-0.304l-14.711-8.693l0,0l-6.541-3.865
			c0,0-0.029,0.029-0.085,0.082c-0.002,0.001-0.006,0.005-0.007,0.006c-0.057,0.054-0.141,0.131-0.252,0.23
			c-0.006,0.006-0.016,0.014-0.021,0.02c-0.112,0.1-0.25,0.221-0.415,0.36c-0.011,0.009-0.023,0.02-0.034,0.029
			c-0.167,0.142-0.361,0.302-0.582,0.479c-0.016,0.013-0.033,0.027-0.05,0.04c-0.224,0.178-0.474,0.374-0.751,0.583
			c-0.021,0.017-0.044,0.033-0.066,0.05c-0.281,0.212-0.592,0.439-0.928,0.679c-0.024,0.017-0.048,0.034-0.073,0.052
			c-0.348,0.247-0.727,0.507-1.133,0.777c-0.019,0.013-0.036,0.024-0.055,0.037c-0.429,0.284-0.888,0.581-1.382,0.887l0,0
			c-3.24,2.012-7.895,4.449-14.166,6.688c-7.954,2.841-15.905,5.357-21.292,7.002l0,0c-2.508,0.766-4.457,1.342-5.594,1.674
			c-0.03,0.009-0.064,0.019-0.094,0.027c-0.072,0.021-0.138,0.04-0.202,0.059c-0.038,0.011-0.078,0.023-0.113,0.033
			c-0.071,0.021-0.136,0.04-0.196,0.057c-0.027,0.008-0.056,0.016-0.08,0.023c-0.05,0.014-0.098,0.028-0.139,0.04
			c-0.016,0.004-0.031,0.009-0.046,0.013c-0.044,0.013-0.084,0.024-0.116,0.034c-0.079,0.023-0.128,0.037-0.128,0.037l6.014,3.437
			l0,0l10.92,6.24l0,0l4.066,2.323c0,0,0.013-0.001,0.037-0.003c0.004,0,0.009,0,0.014-0.001c0.024-0.002,0.059-0.005,0.104-0.01
			c0.003,0,0.007-0.001,0.01-0.001c0.047-0.004,0.103-0.01,0.169-0.017c0.021-0.002,0.045-0.005,0.067-0.007
			c0.057-0.006,0.116-0.013,0.186-0.02c0.028-0.003,0.061-0.007,0.091-0.01c0.075-0.009,0.154-0.018,0.242-0.028
			c0.028-0.003,0.06-0.007,0.09-0.011c0.093-0.011,0.189-0.023,0.294-0.036c0.042-0.005,0.085-0.011,0.129-0.017
			c0.104-0.014,0.214-0.028,0.329-0.043c0.046-0.006,0.093-0.013,0.142-0.019c0.12-0.017,0.245-0.034,0.376-0.052
			c0.053-0.008,0.105-0.016,0.16-0.023c0.135-0.02,0.274-0.04,0.419-0.062c0.059-0.009,0.116-0.018,0.177-0.027
			c0.146-0.022,0.299-0.046,0.455-0.071c0.066-0.01,0.132-0.021,0.201-0.032c0.164-0.027,0.336-0.056,0.51-0.085
			c0.063-0.011,0.125-0.021,0.189-0.032c0.181-0.031,0.369-0.064,0.56-0.098c0.069-0.012,0.136-0.024,0.206-0.037
			c0.195-0.035,0.397-0.073,0.603-0.111c0.07-0.013,0.138-0.025,0.209-0.039c0.226-0.042,0.459-0.088,0.695-0.135
			c0.055-0.011,0.106-0.021,0.162-0.032c0.285-0.057,0.577-0.117,0.877-0.18c0.011-0.002,0.021-0.004,0.031-0.006
			c0.31-0.065,0.627-0.133,0.951-0.205c0.006-0.001,0.012-0.002,0.018-0.004l0,0c4.648-1.028,10.754-2.74,17.298-5.544
			c7.683-3.292,13.835-6.873,17.839-9.441l0,0C267.722,129.932,267.726,129.929,267.729,129.926z M249.091,137.537
			c-7.211,3.09-13.912,4.825-18.62,5.776c-1.199-0.54-2.739-0.895-4.445-0.94c-1.539-0.041-2.96,0.176-4.127,0.566l-10.923-6.242
			c0.556-0.482,0.884-1.042,0.899-1.647c0.011-0.407-0.124-0.801-0.371-1.171c5.358-1.651,12.726-4.006,20.048-6.622
			c7.101-2.536,12.198-5.322,15.569-7.517c1.062,0.361,2.313,0.592,3.666,0.628c1.883,0.05,3.597-0.278,4.869-0.849l9.221,5.449
			c-0.61,0.499-0.977,1.084-0.993,1.723c-0.023,0.858,0.576,1.659,1.588,2.294C261.555,131.429,255.927,134.607,249.091,137.537z"/>
	</g>
	<g>
		<g>
			<path fill="#96B03C" d="M202.879,126.375v8l21,12c0,0,12-1,26-7s23-13,23-13v-7l-22-13c0,0-6,6-20,11
				S202.879,126.375,202.879,126.375z"/>
			<path fill="#FFFFFF" d="M251.01,107.614l20.869,12.332v5.931c-1.857,1.376-10.27,7.383-22.394,12.58
				c-12.461,5.34-23.447,6.688-25.387,6.893l-20.22-11.554v-6.668c3.055-0.89,15.265-4.499,27.336-8.81
				C243.019,114.101,249.189,109.217,251.01,107.614 M250.879,106.375c0,0-6,6-20,11s-28,9-28,9v8l21,12c0,0,12-1,26-7s23-13,23-13
				v-7L250.879,106.375L250.879,106.375z"/>
		</g>
		<path opacity="0.4" fill="#96B03C" d="M249.879,131.375c11.675-5.003,19.851-10.688,22.252-12.442l-21.252-12.558c0,0-6,6-20,11
			s-28,9-28,9l21,12C223.879,138.375,235.879,137.375,249.879,131.375z"/>
		<polygon fill="#FFFFFF" points="236.879,114.375 255.879,127.375 255.879,136.375 246.879,140.375 246.879,132.375
			225.879,118.375 		"/>
		<path fill="#FFFFFF" d="M243.081,117.407c4.263-0.234,7.608,0.946,8.174,3.175c0.18,0.707,0.056,1.456-0.31,2.206L243.081,117.407
			z M230.328,122.543c-1.131,1.227-1.665,2.519-1.366,3.698c0.69,2.722,5.528,3.88,11.12,2.805L230.328,122.543z"/>
		<path fill="#FFFFFF" d="M267.729,121.926c1.479-0.948,2.659-1.754,3.514-2.358c0.083-0.059,0.164-0.116,0.241-0.171
			c0.079-0.056,0.154-0.109,0.226-0.161c0.154-0.11,0.298-0.214,0.421-0.304l-14.711-8.693l0,0l-6.541-3.865
			c0,0-0.029,0.029-0.085,0.082c-0.002,0.001-0.006,0.005-0.007,0.006c-0.057,0.054-0.141,0.131-0.252,0.23
			c-0.006,0.006-0.016,0.014-0.021,0.02c-0.112,0.1-0.25,0.221-0.415,0.36c-0.011,0.009-0.023,0.02-0.034,0.029
			c-0.167,0.142-0.361,0.302-0.582,0.479c-0.016,0.013-0.033,0.027-0.05,0.04c-0.224,0.178-0.474,0.374-0.751,0.583
			c-0.021,0.017-0.044,0.033-0.066,0.05c-0.281,0.212-0.592,0.439-0.928,0.679c-0.024,0.017-0.048,0.034-0.073,0.052
			c-0.348,0.247-0.727,0.507-1.133,0.777c-0.019,0.013-0.036,0.024-0.055,0.037c-0.429,0.284-0.888,0.581-1.382,0.887l0,0
			c-3.24,2.012-7.895,4.449-14.166,6.688c-7.954,2.841-15.905,5.357-21.292,7.002l0,0c-2.508,0.766-4.457,1.342-5.594,1.674
			c-0.03,0.009-0.064,0.019-0.094,0.027c-0.072,0.021-0.138,0.04-0.202,0.059c-0.038,0.011-0.078,0.023-0.113,0.033
			c-0.071,0.021-0.136,0.04-0.196,0.057c-0.027,0.008-0.056,0.016-0.08,0.023c-0.05,0.014-0.098,0.028-0.139,0.04
			c-0.016,0.004-0.031,0.009-0.046,0.013c-0.044,0.013-0.084,0.024-0.116,0.034c-0.079,0.023-0.128,0.037-0.128,0.037l6.014,3.437
			l0,0l10.92,6.24l0,0l4.066,2.323c0,0,0.013-0.001,0.037-0.003c0.004,0,0.009,0,0.014-0.001c0.024-0.002,0.059-0.005,0.104-0.01
			c0.003,0,0.007-0.001,0.01-0.001c0.047-0.004,0.103-0.01,0.169-0.017c0.021-0.002,0.045-0.005,0.067-0.007
			c0.057-0.006,0.116-0.013,0.186-0.02c0.028-0.003,0.061-0.007,0.091-0.01c0.075-0.009,0.154-0.018,0.242-0.028
			c0.028-0.003,0.06-0.007,0.09-0.011c0.093-0.011,0.189-0.023,0.294-0.036c0.042-0.005,0.085-0.011,0.129-0.017
			c0.104-0.014,0.214-0.028,0.329-0.043c0.046-0.006,0.093-0.013,0.142-0.019c0.12-0.017,0.245-0.034,0.376-0.052
			c0.053-0.008,0.105-0.016,0.16-0.023c0.135-0.02,0.274-0.04,0.419-0.062c0.059-0.009,0.116-0.018,0.177-0.027
			c0.146-0.022,0.299-0.046,0.455-0.071c0.066-0.01,0.132-0.021,0.201-0.032c0.164-0.027,0.336-0.056,0.51-0.085
			c0.063-0.011,0.125-0.021,0.189-0.032c0.181-0.031,0.369-0.064,0.56-0.098c0.069-0.012,0.136-0.024,0.206-0.037
			c0.195-0.035,0.397-0.073,0.603-0.111c0.07-0.013,0.138-0.025,0.209-0.039c0.226-0.042,0.459-0.088,0.695-0.135
			c0.055-0.011,0.106-0.021,0.162-0.032c0.285-0.057,0.577-0.117,0.877-0.18c0.011-0.002,0.021-0.004,0.031-0.006
			c0.31-0.065,0.627-0.133,0.951-0.205c0.006-0.001,0.012-0.002,0.018-0.004l0,0c4.648-1.028,10.754-2.74,17.298-5.544
			c7.683-3.292,13.835-6.873,17.839-9.441l0,0C267.722,121.932,267.726,121.929,267.729,121.926z M249.091,129.537
			c-7.211,3.09-13.912,4.825-18.62,5.776c-1.199-0.54-2.739-0.895-4.445-0.94c-1.539-0.041-2.96,0.176-4.127,0.566l-10.923-6.242
			c0.556-0.482,0.884-1.042,0.899-1.647c0.011-0.407-0.124-0.801-0.371-1.171c5.358-1.651,12.726-4.006,20.048-6.622
			c7.101-2.536,12.198-5.322,15.569-7.517c1.062,0.361,2.313,0.592,3.666,0.628c1.883,0.05,3.597-0.278,4.869-0.849l9.221,5.449
			c-0.61,0.499-0.977,1.084-0.993,1.723c-0.023,0.858,0.576,1.659,1.588,2.294C261.555,123.429,255.927,126.607,249.091,129.537z"/>
	</g>
	<g>
		<g>
			<path fill="#96B03C" d="M202.879,118.375v8l21,12c0,0,12-1,26-7s23-13,23-13v-7l-22-13c0,0-6,6-20,11
				S202.879,118.375,202.879,118.375z"/>
			<path fill="#FFFFFF" d="M251.01,99.614l20.869,12.332v5.931c-1.857,1.376-10.27,7.383-22.394,12.58
				c-12.461,5.34-23.447,6.688-25.387,6.893l-20.22-11.554v-6.668c3.055-0.89,15.265-4.499,27.336-8.81
				C243.019,106.101,249.189,101.217,251.01,99.614 M250.879,98.375c0,0-6,6-20,11s-28,9-28,9v8l21,12c0,0,12-1,26-7s23-13,23-13v-7
				L250.879,98.375L250.879,98.375z"/>
		</g>
		<path opacity="0.4" fill="#96B03C" d="M249.879,123.375c11.675-5.003,19.851-10.688,22.252-12.442l-21.252-12.558c0,0-6,6-20,11
			s-28,9-28,9l21,12C223.879,130.375,235.879,129.375,249.879,123.375z"/>
		<polygon fill="#FFFFFF" points="236.879,106.375 255.879,119.375 255.879,128.375 246.879,132.375 246.879,124.375
			225.879,110.375 		"/>
		<path fill="#FFFFFF" d="M243.081,109.407c4.263-0.234,7.608,0.946,8.174,3.175c0.18,0.707,0.056,1.456-0.31,2.206L243.081,109.407
			z M230.328,114.543c-1.131,1.227-1.665,2.519-1.366,3.698c0.69,2.722,5.528,3.88,11.12,2.805L230.328,114.543z"/>
		<path fill="#FFFFFF" d="M267.729,113.926c1.479-0.948,2.659-1.754,3.514-2.358c0.083-0.059,0.164-0.116,0.241-0.171
			c0.079-0.056,0.154-0.109,0.226-0.161c0.154-0.11,0.298-0.214,0.421-0.304l-14.711-8.693l0,0l-6.541-3.865
			c0,0-0.029,0.029-0.085,0.082c-0.002,0.001-0.006,0.005-0.007,0.006c-0.057,0.054-0.141,0.131-0.252,0.23
			c-0.006,0.006-0.016,0.014-0.021,0.02c-0.112,0.1-0.25,0.221-0.415,0.36c-0.011,0.009-0.023,0.02-0.034,0.029
			c-0.167,0.142-0.361,0.302-0.582,0.479c-0.016,0.013-0.033,0.027-0.05,0.04c-0.224,0.178-0.474,0.374-0.751,0.583
			c-0.021,0.017-0.044,0.033-0.066,0.05c-0.281,0.212-0.592,0.439-0.928,0.679c-0.024,0.017-0.048,0.034-0.073,0.052
			c-0.348,0.247-0.727,0.507-1.133,0.777c-0.019,0.013-0.036,0.024-0.055,0.037c-0.429,0.284-0.888,0.581-1.382,0.887l0,0
			c-3.24,2.012-7.895,4.449-14.166,6.688c-7.954,2.841-15.905,5.357-21.292,7.002l0,0c-2.508,0.766-4.457,1.342-5.594,1.674
			c-0.03,0.009-0.064,0.019-0.094,0.027c-0.072,0.021-0.138,0.04-0.202,0.059c-0.038,0.011-0.078,0.023-0.113,0.033
			c-0.071,0.021-0.136,0.04-0.196,0.057c-0.027,0.008-0.056,0.016-0.08,0.023c-0.05,0.014-0.098,0.028-0.139,0.04
			c-0.016,0.004-0.031,0.009-0.046,0.013c-0.044,0.013-0.084,0.024-0.116,0.034c-0.079,0.023-0.128,0.037-0.128,0.037l6.014,3.437
			l0,0l10.92,6.24l0,0l4.066,2.323c0,0,0.013-0.001,0.037-0.003c0.004,0,0.009,0,0.014-0.001c0.024-0.002,0.059-0.005,0.104-0.01
			c0.003,0,0.007-0.001,0.01-0.001c0.047-0.004,0.103-0.01,0.169-0.017c0.021-0.002,0.045-0.005,0.067-0.007
			c0.057-0.006,0.116-0.013,0.186-0.02c0.028-0.003,0.061-0.007,0.091-0.01c0.075-0.009,0.154-0.018,0.242-0.028
			c0.028-0.003,0.06-0.007,0.09-0.011c0.093-0.011,0.189-0.023,0.294-0.036c0.042-0.005,0.085-0.011,0.129-0.017
			c0.104-0.014,0.214-0.028,0.329-0.043c0.046-0.006,0.093-0.013,0.142-0.019c0.12-0.017,0.245-0.034,0.376-0.052
			c0.053-0.008,0.105-0.016,0.16-0.023c0.135-0.02,0.274-0.04,0.419-0.062c0.059-0.009,0.116-0.018,0.177-0.027
			c0.146-0.022,0.299-0.046,0.455-0.071c0.066-0.01,0.132-0.021,0.201-0.032c0.164-0.027,0.336-0.056,0.51-0.085
			c0.063-0.011,0.125-0.021,0.189-0.032c0.181-0.031,0.369-0.064,0.56-0.098c0.069-0.012,0.136-0.024,0.206-0.037
			c0.195-0.035,0.397-0.073,0.603-0.111c0.07-0.013,0.138-0.025,0.209-0.039c0.226-0.042,0.459-0.088,0.695-0.135
			c0.055-0.011,0.106-0.021,0.162-0.032c0.285-0.057,0.577-0.117,0.877-0.18c0.011-0.002,0.021-0.004,0.031-0.006
			c0.31-0.065,0.627-0.133,0.951-0.205c0.006-0.001,0.012-0.002,0.018-0.004l0,0c4.648-1.028,10.754-2.74,17.298-5.544
			c7.683-3.292,13.835-6.873,17.839-9.441l0,0C267.722,113.932,267.726,113.929,267.729,113.926z M249.091,121.537
			c-7.211,3.09-13.912,4.825-18.62,5.776c-1.199-0.54-2.739-0.895-4.445-0.94c-1.539-0.041-2.96,0.176-4.127,0.566l-10.923-6.242
			c0.556-0.482,0.884-1.042,0.899-1.647c0.011-0.407-0.124-0.801-0.371-1.171c5.358-1.651,12.726-4.006,20.048-6.622
			c7.101-2.536,12.198-5.322,15.569-7.517c1.062,0.361,2.313,0.592,3.666,0.628c1.883,0.05,3.597-0.278,4.869-0.849l9.221,5.449
			c-0.61,0.499-0.977,1.084-0.993,1.723c-0.023,0.858,0.576,1.659,1.588,2.294C261.555,115.429,255.927,118.607,249.091,121.537z"/>
	</g>
</g>
<g>
	<g>
		<path fill="#96B03C" d="M116.879,143.375c0,3.313-2.687,6-6,6h-50c-3.313,0-6-2.687-6-7v-48c0-2.313,2.687-5,6-5h50
			c3.313,0,6,2.687,6,6V143.375z"/>
		<path fill="#FFFFFF" d="M110.879,90.375c2.757,0,5,2.243,5,5v48c0,2.757-2.243,5-5,5h-50c-2.944,0-5-2.467-5-6v-48
			c0-1.801,2.308-4,5-4H110.879 M110.879,89.375h-50c-3.313,0-6,2.687-6,5v48c0,4.313,2.687,7,6,7h50c3.313,0,6-2.687,6-6v-48
			C116.879,92.062,114.192,89.375,110.879,89.375L110.879,89.375z"/>
	</g>
	<path fill="#FFFFFF" d="M110.879,98.375h-56v45c0,3.313,2.687,6,6,6h50c3.313,0,6-2.687,6-6v-39
		C116.879,101.062,114.192,98.375,110.879,98.375z"/>
	<g>
		<path fill="#96B03C" d="M116.879,116.375h-14.667c-4.049,0-7.333,3.45-7.333,7.5s3.284,7.5,7.333,7.5h14.667V116.375z"/>
		<path fill="#FFFFFF" d="M115.879,117.375v13h-13.667c-3.433,0-6.333-2.977-6.333-6.5s2.9-6.5,6.333-6.5H115.879 M116.879,116.375
			h-14.667c-4.049,0-7.333,3.45-7.333,7.5s3.284,7.5,7.333,7.5h14.667V116.375L116.879,116.375z"/>
	</g>
	<circle fill="#FFFFFF" cx="103.545" cy="123.875" r="3.333"/>
	<rect x="59.879" y="103.375" fill="#96B03C" width="7" height="2"/>
	<rect x="59.879" y="103.375" fill="#96B03C" width="2" height="7"/>
	<rect x="108.879" y="103.375" fill="#96B03C" width="2" height="7"/>
	<rect x="59.879" y="114.375" fill="#96B03C" width="2" height="7"/>
	<rect x="59.879" y="125.375" fill="#96B03C" width="2" height="7"/>
	<rect x="70.879" y="103.375" fill="#96B03C" width="7" height="2"/>
	<rect x="81.879" y="103.375" fill="#96B03C" width="7" height="2"/>
	<rect x="92.879" y="103.375" fill="#96B03C" width="7" height="2"/>
	<rect x="103.879" y="103.375" fill="#96B03C" width="7" height="2"/>
	<rect x="59.879" y="141.375" fill="#96B03C" width="7" height="2"/>
	<rect x="59.879" y="136.375" fill="#96B03C" width="2" height="7"/>
	<rect x="108.879" y="136.375" fill="#96B03C" width="2" height="7"/>
	<rect x="70.879" y="141.375" fill="#96B03C" width="7" height="2"/>
	<rect x="81.879" y="141.375" fill="#96B03C" width="7" height="2"/>
	<rect x="92.879" y="141.375" fill="#96B03C" width="7" height="2"/>
	<rect x="103.879" y="141.375" fill="#96B03C" width="7" height="2"/>
	<path fill="#FFFFFF" d="M111.879,92.875c0,0.276-0.224,0.5-0.5,0.5h-52c-0.276,0-0.5-0.224-0.5-0.5l0,0c0-0.276,0.224-0.5,0.5-0.5
		h52C111.655,92.375,111.879,92.599,111.879,92.875L111.879,92.875z"/>
	<path fill="#FFFFFF" d="M111.879,94.875c0,0.276-0.224,0.5-0.5,0.5h-52c-0.276,0-0.5-0.224-0.5-0.5l0,0c0-0.276,0.224-0.5,0.5-0.5
		h52C111.655,94.375,111.879,94.599,111.879,94.875L111.879,94.875z"/>
	<path fill="#FFFFFF" d="M111.879,96.875c0,0.276-0.224,0.5-0.5,0.5h-52c-0.276,0-0.5-0.224-0.5-0.5l0,0c0-0.276,0.224-0.5,0.5-0.5
		h52C111.655,96.375,111.879,96.599,111.879,96.875L111.879,96.875z"/>
</g>
<g>
	<g>
		<g>
			<path fill="#96B03C" d="M37.879,144.093v7.282c0,1.756,6.939,3,15.5,3s15.5-1.244,15.5-3v-7.282H37.879z"/>
			<path fill="#FFFFFF" d="M67.879,145.093v6.191c-0.607,0.752-5.342,2.09-14.5,2.09s-13.893-1.338-14.5-2.09v-6.191H67.879
				 M68.879,144.093h-31v7.282c0,1.756,6.939,3,15.5,3s15.5-1.244,15.5-3V144.093L68.879,144.093z"/>
		</g>
		<rect x="39.907" y="144.888" fill="#FFFFFF" width="3.972" height="8.077"/>
		<rect x="42.907" y="146.042" fill="#FFFFFF" width="3.972" height="8.077"/>
		<rect x="47.907" y="146.042" fill="#FFFFFF" width="2.972" height="8.077"/>
		<rect x="59.879" y="146.299" fill="#FFFFFF" width="1" height="8.076"/>
		<rect x="57.879" y="145.375" fill="#FFFFFF" width="1" height="8.076"/>
		<rect x="55.879" y="145.375" fill="#FFFFFF" width="1" height="8.076"/>
		<rect x="53.879" y="145.375" fill="#FFFFFF" width="1" height="8.076"/>
		<rect x="51.879" y="145.299" fill="#FFFFFF" width="1" height="8.076"/>
		<rect x="63.879" y="145.042" fill="#FFFFFF" width="0.795" height="8.076"/>
		<rect x="62.084" y="145.299" fill="#FFFFFF" width="0.795" height="8.076"/>
		<rect x="66.084" y="145.042" fill="#FFFFFF" width="0.795" height="8.076"/>
		<g>
			<ellipse fill="#96B03C" cx="53.379" cy="144.375" rx="15.5" ry="3"/>
			<path fill="#FFFFFF" d="M53.379,142.375c8.47,0,13.317,1.237,14.365,2c-1.048,0.763-5.896,2-14.365,2s-13.317-1.237-14.365-2
				C40.062,143.612,44.909,142.375,53.379,142.375 M53.379,141.375c-8.561,0-15.5,1.343-15.5,3c0,1.657,6.939,3,15.5,3
				s15.5-1.343,15.5-3C68.879,142.718,61.939,141.375,53.379,141.375L53.379,141.375z"/>
		</g>
	</g>
	<g>
		<g>
			<path fill="#96B03C" d="M39.879,135.093v7.282c0,1.756,6.939,3,15.5,3s15.5-1.244,15.5-3v-7.282H39.879z"/>
			<path fill="#FFFFFF" d="M69.879,136.093v6.191c-0.607,0.752-5.342,2.09-14.5,2.09s-13.893-1.338-14.5-2.09v-6.191H69.879
				 M70.879,135.093h-31v7.282c0,1.756,6.939,3,15.5,3s15.5-1.244,15.5-3V135.093L70.879,135.093z"/>
		</g>
		<rect x="41.907" y="135.888" fill="#FFFFFF" width="3.972" height="8.077"/>
		<rect x="44.907" y="137.042" fill="#FFFFFF" width="3.972" height="8.077"/>
		<rect x="49.907" y="137.042" fill="#FFFFFF" width="2.972" height="8.077"/>
		<rect x="61.879" y="137.299" fill="#FFFFFF" width="1" height="8.076"/>
		<rect x="59.879" y="136.375" fill="#FFFFFF" width="1" height="8.076"/>
		<rect x="57.879" y="136.375" fill="#FFFFFF" width="1" height="8.076"/>
		<rect x="55.879" y="136.375" fill="#FFFFFF" width="1" height="8.076"/>
		<rect x="53.879" y="136.299" fill="#FFFFFF" width="1" height="8.076"/>
		<rect x="65.879" y="136.042" fill="#FFFFFF" width="0.795" height="8.076"/>
		<rect x="64.084" y="136.299" fill="#FFFFFF" width="0.795" height="8.076"/>
		<rect x="68.084" y="136.042" fill="#FFFFFF" width="0.795" height="8.076"/>
		<g>
			<ellipse fill="#96B03C" cx="55.379" cy="135.375" rx="15.5" ry="3"/>
			<path fill="#FFFFFF" d="M55.379,133.375c8.47,0,13.317,1.237,14.365,2c-1.048,0.763-5.896,2-14.365,2s-13.317-1.237-14.365-2
				C42.062,134.612,46.909,133.375,55.379,133.375 M55.379,132.375c-8.561,0-15.5,1.343-15.5,3c0,1.657,6.939,3,15.5,3
				s15.5-1.343,15.5-3C70.879,133.718,63.939,132.375,55.379,132.375L55.379,132.375z"/>
		</g>
	</g>
</g>
</svg>
