<?xml version="1.0" encoding="utf-8"?>
<!-- Generator: Adobe Illustrator 16.0.3, SVG Export Plug-In . SVG Version: 6.00 Build 0)  -->
<!DOCTYPE svg PUBLIC "-//W3C//DTD SVG 1.0//EN" "http://www.w3.org/TR/2001/REC-SVG-20010904/DTD/svg10.dtd">
<svg version="1.0" id="Layer_2" xmlns="http://www.w3.org/2000/svg" xmlns:xlink="http://www.w3.org/1999/xlink" x="0px" y="0px"
	 width="296px" height="156px" viewBox="0 0 296 156" enable-background="new 0 0 296 156" xml:space="preserve">
<g>
	<g display="none">
		<g display="inline">
			<path fill="#FFFFFF" d="M491.67,141.5c-9.987,0-15-1.603-15-2.5v-6.782h30V139C506.67,139.897,501.657,141.5,491.67,141.5z"/>
			<path fill="#303030" d="M506.17,132.718v6.191c-0.607,0.752-5.342,2.09-14.5,2.09s-13.893-1.338-14.5-2.09v-6.191H506.17
				 M507.17,131.718h-31V139c0,1.756,6.939,3,15.5,3s15.5-1.244,15.5-3V131.718L507.17,131.718z"/>
		</g>
		<rect x="478.198" y="132.513" display="inline" fill="#303030" width="3.972" height="8.077"/>
		<rect x="481.198" y="133.667" display="inline" fill="#303030" width="3.972" height="8.077"/>
		<rect x="486.198" y="133.667" display="inline" fill="#303030" width="2.972" height="8.077"/>
		<rect x="498.17" y="133.924" display="inline" fill="#303030" width="1" height="8.076"/>
		<rect x="496.17" y="133" display="inline" fill="#303030" width="1" height="8.076"/>
		<rect x="494.17" y="133" display="inline" fill="#303030" width="1" height="8.076"/>
		<rect x="492.17" y="133" display="inline" fill="#303030" width="1" height="8.076"/>
		<rect x="490.17" y="132.924" display="inline" fill="#303030" width="1" height="8.076"/>
		<rect x="502.17" y="132.667" display="inline" fill="#303030" width="0.795" height="8.076"/>
		<rect x="500.375" y="132.924" display="inline" fill="#303030" width="0.795" height="8.076"/>
		<rect x="504.375" y="132.667" display="inline" fill="#303030" width="0.795" height="8.076"/>
		<g display="inline">
			<path fill="#FFFFFF" d="M491.67,134.5c-9.705,0-15-1.651-15-2.5s5.295-2.5,15-2.5s15,1.651,15,2.5S501.375,134.5,491.67,134.5z"
				/>
			<path fill="#303030" d="M491.67,130c8.47,0,13.317,1.237,14.365,2c-1.048,0.763-5.896,2-14.365,2s-13.317-1.237-14.365-2
				C478.353,131.237,483.2,130,491.67,130 M491.67,129c-8.561,0-15.5,1.343-15.5,3c0,1.657,6.939,3,15.5,3s15.5-1.343,15.5-3
				C507.17,130.343,500.23,129,491.67,129L491.67,129z"/>
		</g>
	</g>
	<g display="none">
		<g display="inline">
			<path fill="#FFFFFF" d="M489.67,114.5c-9.987,0-15-1.603-15-2.5v-6.782h30V112C504.67,112.897,499.657,114.5,489.67,114.5z"/>
			<path fill="#303030" d="M504.17,105.718v6.191c-0.607,0.752-5.342,2.09-14.5,2.09s-13.893-1.338-14.5-2.09v-6.191H504.17
				 M505.17,104.718h-31V112c0,1.756,6.939,3,15.5,3s15.5-1.244,15.5-3V104.718L505.17,104.718z"/>
		</g>
		<rect x="476.198" y="105.513" display="inline" fill="#303030" width="3.972" height="8.077"/>
		<rect x="479.198" y="106.667" display="inline" fill="#303030" width="3.972" height="8.077"/>
		<rect x="484.198" y="106.667" display="inline" fill="#303030" width="2.972" height="8.077"/>
		<rect x="496.17" y="106.924" display="inline" fill="#303030" width="1" height="8.076"/>
		<rect x="494.17" y="106" display="inline" fill="#303030" width="1" height="8.076"/>
		<rect x="492.17" y="106" display="inline" fill="#303030" width="1" height="8.076"/>
		<rect x="490.17" y="106" display="inline" fill="#303030" width="1" height="8.076"/>
		<rect x="488.17" y="105.924" display="inline" fill="#303030" width="1" height="8.076"/>
		<rect x="500.17" y="105.667" display="inline" fill="#303030" width="0.795" height="8.076"/>
		<rect x="498.375" y="105.924" display="inline" fill="#303030" width="0.795" height="8.076"/>
		<rect x="502.375" y="105.667" display="inline" fill="#303030" width="0.795" height="8.076"/>
		<g display="inline">
			<path fill="#FFFFFF" d="M489.67,107.5c-9.705,0-15-1.651-15-2.5s5.295-2.5,15-2.5s15,1.651,15,2.5S499.375,107.5,489.67,107.5z"
				/>
			<path fill="#303030" d="M489.67,103c8.47,0,13.317,1.237,14.365,2c-1.048,0.763-5.896,2-14.365,2s-13.317-1.237-14.365-2
				C476.353,104.237,481.2,103,489.67,103 M489.67,102c-8.561,0-15.5,1.343-15.5,3c0,1.657,6.939,3,15.5,3s15.5-1.343,15.5-3
				C505.17,103.343,498.23,102,489.67,102L489.67,102z"/>
		</g>
	</g>
</g>
<g>
	<g>
		<path fill="#FFFFFF" d="M207.17,143c0,3.313-2.687,6-6,6h-192c-3.313,0-6-2.687-6-6V14c0-3.313,2.687-6,6-6h192
			c3.313,0,6,2.687,6,6V143z"/>
		<path fill="#303030" d="M201.17,9c2.757,0,5,2.243,5,5v129c0,2.757-2.243,5-5,5h-192c-2.757,0-5-2.243-5-5V14c0-2.757,2.243-5,5-5
			H201.17 M201.17,8h-192c-3.313,0-6,2.687-6,6v129c0,3.313,2.687,6,6,6h192c3.313,0,6-2.687,6-6V14
			C207.17,10.687,204.483,8,201.17,8L201.17,8z"/>
	</g>
	<g>
		<path fill="#FFFFFF" d="M201.17,8h-192c-3.313,0-6,2.687-6,6v8h204v-8C207.17,10.687,204.483,8,201.17,8z"/>
		<path fill="#303030" d="M201.17,9c2.757,0,5,2.243,5,5v7h-202v-7c0-2.757,2.243-5,5-5H201.17 M201.17,8h-192c-3.313,0-6,2.687-6,6
			v8h204v-8C207.17,10.687,204.483,8,201.17,8L201.17,8z"/>
	</g>
	<rect x="16.17" y="37" fill="#303030" width="38" height="11"/>
	<rect x="116.17" y="58" fill="#303030" width="44" height="42"/>
	<rect x="166.17" y="58" fill="#303030" width="23" height="76"/>
	<rect x="66.17" y="58" fill="#303030" width="44" height="42"/>
	<rect x="16.17" y="58" fill="#303030" width="44" height="42"/>
	<rect x="16.17" y="106" fill="#303030" width="144" height="28"/>
	<rect x="96.17" y="37" fill="#303030" width="93" height="11"/>
	<g>
		<circle fill="#FFFFFF" cx="12.17" cy="15" r="3"/>
		<path fill="#303030" d="M12.17,18.5c-1.93,0-3.5-1.57-3.5-3.5s1.57-3.5,3.5-3.5s3.5,1.57,3.5,3.5S14.1,18.5,12.17,18.5z
			 M12.17,12.5c-1.378,0-2.5,1.122-2.5,2.5s1.122,2.5,2.5,2.5s2.5-1.122,2.5-2.5S13.548,12.5,12.17,12.5z"/>
	</g>
	<g>
		<circle fill="#FFFFFF" cx="22.17" cy="15" r="3"/>
		<path fill="#303030" d="M22.17,18.5c-1.93,0-3.5-1.57-3.5-3.5s1.57-3.5,3.5-3.5s3.5,1.57,3.5,3.5S24.1,18.5,22.17,18.5z
			 M22.17,12.5c-1.379,0-2.5,1.122-2.5,2.5s1.121,2.5,2.5,2.5s2.5-1.122,2.5-2.5S23.549,12.5,22.17,12.5z"/>
	</g>
	<g>
		<circle fill="#303030" cx="32.17" cy="15" r="3"/>
		<path fill="#303030" d="M32.17,18.5c-1.93,0-3.5-1.57-3.5-3.5s1.57-3.5,3.5-3.5s3.5,1.57,3.5,3.5S34.1,18.5,32.17,18.5z
			 M32.17,12.5c-1.379,0-2.5,1.122-2.5,2.5s1.121,2.5,2.5,2.5s2.5-1.122,2.5-2.5S33.549,12.5,32.17,12.5z"/>
	</g>
</g>
<g>
	<g>
		<path fill="#FFFFFF" d="M258.17,144.35c0,2.568-2.082,4.65-4.65,4.65H176.82c-2.568,0-4.65-2.082-4.65-4.65V36.65
			c0-2.568,2.082-4.65,4.65-4.65h76.699c2.568,0,4.65,2.082,4.65,4.65V144.35z"/>
		<path fill="#303030" d="M253.52,33c2.013,0,3.65,1.637,3.65,3.65v107.7c0,2.013-1.638,3.65-3.65,3.65H176.82
			c-2.013,0-3.65-1.637-3.65-3.65V36.65c0-2.013,1.638-3.65,3.65-3.65H253.52 M253.52,32H176.82c-2.568,0-4.65,2.082-4.65,4.65
			v107.7c0,2.568,2.082,4.65,4.65,4.65h76.699c2.568,0,4.65-2.082,4.65-4.65V36.65C258.17,34.082,256.088,32,253.52,32L253.52,32z"
			/>
	</g>
	<g>
		<path fill="#FFFFFF" d="M253.52,32H176.82c-2.568,0-4.65,2.082-4.65,4.65V43h86v-6.35C258.17,34.082,256.088,32,253.52,32z"/>
		<path fill="#303030" d="M253.52,33c2.013,0,3.65,1.637,3.65,3.65V42h-84v-5.35c0-2.013,1.638-3.65,3.65-3.65H253.52 M253.52,32
			H176.82c-2.568,0-4.65,2.082-4.65,4.65V43h86v-6.35C258.17,34.082,256.088,32,253.52,32L253.52,32z"/>
	</g>
	<g>
		<circle fill="#FFFFFF" cx="179.145" cy="37.425" r="2.325"/>
		<path fill="#303030" d="M179.145,40.25c-1.558,0-2.824-1.268-2.824-2.825s1.267-2.825,2.824-2.825s2.825,1.267,2.825,2.825
			S180.702,40.25,179.145,40.25z M179.145,35.6c-1.006,0-1.824,0.818-1.824,1.825s0.818,1.825,1.824,1.825
			c1.007,0,1.825-0.819,1.825-1.825S180.151,35.6,179.145,35.6z"/>
	</g>
	<g>
		<circle fill="#FFFFFF" cx="186.895" cy="37.425" r="2.325"/>
		<path fill="#303030" d="M186.895,40.25c-1.558,0-2.824-1.268-2.824-2.825s1.267-2.825,2.824-2.825s2.825,1.267,2.825,2.825
			S188.452,40.25,186.895,40.25z M186.895,35.6c-1.006,0-1.824,0.818-1.824,1.825s0.818,1.825,1.824,1.825
			c1.007,0,1.825-0.819,1.825-1.825S187.901,35.6,186.895,35.6z"/>
	</g>
	<g>
		<circle fill="#303030" cx="194.645" cy="37.425" r="2.325"/>
		<path fill="#303030" d="M194.645,40.25c-1.558,0-2.824-1.268-2.824-2.825s1.267-2.825,2.824-2.825s2.825,1.267,2.825,2.825
			S196.202,40.25,194.645,40.25z M194.645,35.6c-1.006,0-1.824,0.818-1.824,1.825s0.818,1.825,1.824,1.825
			c1.007,0,1.825-0.819,1.825-1.825S195.651,35.6,194.645,35.6z"/>
	</g>
	<rect x="182.245" y="52" fill="#303030" width="17.925" height="7.9"/>
	<rect x="220.17" y="67" fill="#303030" width="28" height="23"/>
	<rect x="182.245" y="67" fill="#303030" width="33.925" height="23"/>
	<rect x="182.245" y="94" fill="#303030" width="65.925" height="12"/>
	<rect x="182.245" y="110" fill="#303030" width="65.925" height="12"/>
	<rect x="182.245" y="127" fill="#303030" width="65.925" height="11.95"/>
	<rect x="211.17" y="52" fill="#303030" width="37" height="7.9"/>
</g>
<g>
	<g>
		<path fill="#FFFFFF" d="M293.17,145c0,2.017-1.982,4-4.429,4h-44.143c-2.446,0-4.429-1.983-4.429-4V62.857
			c0-2.875,1.982-4.857,4.429-4.857h44.143c2.446,0,4.429,1.983,4.429,4.857V145z"/>
		<path fill="#303030" d="M288.741,59c1.986,0,3.429,1.622,3.429,3.857V145c0,1.416-1.467,3-3.429,3h-44.143
			c-1.962,0-3.429-1.584-3.429-3V62.857c0-2.235,1.442-3.857,3.429-3.857H288.741 M288.741,58h-44.143
			c-2.446,0-4.429,1.983-4.429,4.857V145c0,2.017,1.982,4,4.429,4h44.143c2.446,0,4.429-1.983,4.429-4V62.857
			C293.17,59.983,291.188,58,288.741,58L288.741,58z"/>
	</g>
	<g>
		<path fill="#FFFFFF" d="M288.741,58h-44.143c-2.446,0-4.429,1.983-4.429,4.429V68h53v-5.571C293.17,59.983,291.188,58,288.741,58z
			"/>
		<path fill="#303030" d="M288.741,59c1.891,0,3.429,1.538,3.429,3.429V67h-51v-4.571c0-1.891,1.538-3.429,3.429-3.429H288.741
			 M288.741,58h-44.143c-2.446,0-4.429,1.983-4.429,4.429V68h53v-5.571C293.17,59.983,291.188,58,288.741,58L288.741,58z"/>
	</g>
	<g>
		<circle fill="#FFFFFF" cx="246.813" cy="63.167" r="2.214"/>
		<path fill="#303030" d="M246.813,65.881c-1.496,0-2.714-1.218-2.714-2.714s1.218-2.714,2.714-2.714
			c1.497,0,2.715,1.218,2.715,2.714S248.31,65.881,246.813,65.881z M246.813,61.452c-0.945,0-1.714,0.769-1.714,1.714
			s0.769,1.714,1.714,1.714s1.715-0.769,1.715-1.714S247.758,61.452,246.813,61.452z"/>
	</g>
	<g>
		<circle fill="#FFFFFF" cx="254.194" cy="63.167" r="2.214"/>
		<path fill="#303030" d="M254.193,65.881c-1.496,0-2.714-1.218-2.714-2.714s1.218-2.714,2.714-2.714
			c1.497,0,2.715,1.218,2.715,2.714S255.69,65.881,254.193,65.881z M254.193,61.452c-0.945,0-1.714,0.769-1.714,1.714
			s0.769,1.714,1.714,1.714s1.715-0.769,1.715-1.714S255.139,61.452,254.193,61.452z"/>
	</g>
	<g>
		<circle fill="#303030" cx="261.575" cy="63.167" r="2.214"/>
		<path fill="#303030" d="M261.574,65.881c-1.496,0-2.714-1.218-2.714-2.714s1.218-2.714,2.714-2.714
			c1.497,0,2.715,1.218,2.715,2.714S263.071,65.881,261.574,65.881z M261.574,61.452c-0.945,0-1.714,0.769-1.714,1.714
			s0.769,1.714,1.714,1.714s1.715-0.769,1.715-1.714S262.52,61.452,261.574,61.452z"/>
	</g>
	<rect x="247.17" y="75" fill="#303030" width="18" height="7.977"/>
	<rect x="247.17" y="121.214" fill="#303030" width="39" height="17.786"/>
	<rect x="247.17" y="99.214" fill="#303030" width="39" height="17.786"/>
	<rect x="247.17" y="87.048" fill="#303030" width="39" height="7.952"/>
</g>
<g display="none">
	<rect x="1.756" y="-25" display="inline" width="242.414" height="1"/>
	<polygon points="376.428,-24.5 363.928,-12 368.17,-12 380.17,-24 378.963,-25.207 379.463,-25.707 368.17,-37 363.928,-37 	"/>
	<polygon points="205.17,-12 217.17,-24 215.963,-25.207 216.463,-25.707 205.17,-37 200.928,-37 213.428,-24.5 200.928,-12 	"/>
	<polygon points="191.998,-12 203.998,-24 202.791,-25.207 203.291,-25.707 191.998,-37 187.756,-37 200.256,-24.5 187.756,-12 	"/>
	<g display="inline">
		<polygon points="2.67,-24.5 8.17,-30 6.756,-30 2.463,-25.707 2.963,-25.207 1.756,-24 6.756,-19 8.17,-19 		"/>
		<polygon points="244.256,-24.5 238.756,-19 240.17,-19 245.17,-24 243.963,-25.207 244.463,-25.707 240.17,-30 238.756,-30 		"/>
		<polygon points="44.17,-19 49.17,-24 47.963,-25.207 48.463,-25.707 44.17,-30 42.756,-30 48.256,-24.5 42.756,-19 		"/>
		<polygon points="122.17,-19 127.17,-24 125.963,-25.207 126.463,-25.707 122.17,-30 120.756,-30 126.256,-24.5 120.756,-19 		"/>
		<polygon display="none" points="219.584,-19 224.584,-24 223.377,-25.207 223.877,-25.707 219.584,-30 218.17,-30 223.67,-24.5
			218.17,-19 		"/>
	</g>
</g>
</svg>
