<?xml version="1.0" encoding="utf-8"?>
<!-- Generator: Adobe Illustrator 16.0.3, SVG Export Plug-In . SVG Version: 6.00 Build 0)  -->
<!DOCTYPE svg PUBLIC "-//W3C//DTD SVG 1.0//EN" "http://www.w3.org/TR/2001/REC-SVG-20010904/DTD/svg10.dtd">
<svg version="1.0" id="Layer_2" xmlns="http://www.w3.org/2000/svg" xmlns:xlink="http://www.w3.org/1999/xlink" x="0px" y="0px"
	 width="296px" height="156px" viewBox="0 0 296 156" enable-background="new 0 0 296 156" xml:space="preserve">
<path fill="#FFFFFF" d="M85.517,24.731c0-1.786,1.448-3.232,3.232-3.232c1.785,0,3.232,1.447,3.232,3.232s-1.447,3.232-3.232,3.232
	S85.517,26.516,85.517,24.731z M92.489,28.5h-7.606c-1.433,0-1.579,0.975-1.968,2.036c0,0-1.257,8.358-1.268,8.437
	c-0.088,0.632,0.353,1.214,0.984,1.304c0.631,0.086,1.215-0.354,1.301-0.986c0.012-0.08,1.545-8.697,1.567-8.734v24.615
	c0,0.766,0.732,1.385,1.5,1.385c0.765,0,1.5-0.619,1.5-1.385V41.781h1v13.393c0,0.764,0.733,1.383,1.5,1.383
	c0.768,0,1.5-0.619,1.5-1.385V30.557c0,0,1.69,8.701,1.698,8.779c0.07,0.634,0.643,1.091,1.275,1.021
	c0.633-0.072,1.09-0.641,1.02-1.274c-0.01-0.081-1.392-8.708-1.392-8.708C94.711,29.314,93.925,28.5,92.489,28.5z M106.749,27.963
	c1.785,0,3.232-1.447,3.232-3.232s-1.447-3.232-3.232-3.232c-1.784,0-3.232,1.446-3.232,3.232
	C103.517,26.516,104.964,27.963,106.749,27.963z M110.489,28.5h-7.606c-1.433,0-1.579,0.975-1.968,2.036
	c0,0-1.257,8.358-1.268,8.437c-0.088,0.632,0.353,1.214,0.984,1.304c0.631,0.086,1.215-0.354,1.301-0.986
	c0.012-0.08,1.545-8.697,1.567-8.734v24.615c0,0.766,0.732,1.385,1.5,1.385c0.765,0,1.5-0.619,1.5-1.385V41.781h1v13.393
	c0,0.764,0.733,1.383,1.5,1.383c0.768,0,1.5-0.619,1.5-1.385V30.557c0,0,1.69,8.701,1.698,8.779c0.07,0.634,0.643,1.091,1.275,1.021
	c0.633-0.072,1.09-0.641,1.02-1.274c-0.01-0.081-1.392-8.708-1.392-8.708C112.711,29.314,111.925,28.5,110.489,28.5z
	 M124.749,27.963c1.785,0,3.232-1.447,3.232-3.232s-1.447-3.232-3.232-3.232c-1.784,0-3.232,1.446-3.232,3.232
	C121.517,26.516,122.964,27.963,124.749,27.963z M128.489,28.5h-7.606c-1.433,0-1.579,0.975-1.968,2.036
	c0,0-1.257,8.358-1.268,8.437c-0.088,0.632,0.353,1.214,0.984,1.304c0.631,0.086,1.215-0.354,1.301-0.986
	c0.012-0.08,1.545-8.697,1.567-8.734v24.615c0,0.766,0.732,1.385,1.5,1.385c0.765,0,1.5-0.619,1.5-1.385V41.781h1v13.393
	c0,0.764,0.733,1.383,1.5,1.383c0.768,0,1.5-0.619,1.5-1.385V30.557c0,0,1.69,8.701,1.698,8.779c0.07,0.634,0.643,1.091,1.275,1.021
	c0.633-0.072,1.09-0.641,1.02-1.274c-0.01-0.081-1.392-8.708-1.392-8.708C130.711,29.314,129.925,28.5,128.489,28.5z
	 M142.749,27.963c1.785,0,3.232-1.447,3.232-3.232s-1.447-3.232-3.232-3.232c-1.784,0-3.232,1.446-3.232,3.232
	C139.517,26.516,140.964,27.963,142.749,27.963z M146.489,28.5h-7.606c-1.433,0-1.579,0.975-1.968,2.036
	c0,0-1.257,8.358-1.268,8.437c-0.088,0.632,0.353,1.214,0.984,1.304c0.631,0.086,1.215-0.354,1.301-0.986
	c0.012-0.08,1.545-8.697,1.567-8.734v24.615c0,0.766,0.732,1.385,1.5,1.385c0.765,0,1.5-0.619,1.5-1.385V41.781h1v13.393
	c0,0.764,0.733,1.383,1.5,1.383c0.768,0,1.5-0.619,1.5-1.385V30.557c0,0,1.69,8.701,1.698,8.779c0.07,0.634,0.643,1.091,1.275,1.021
	c0.633-0.072,1.09-0.641,1.02-1.274c-0.01-0.081-1.392-8.708-1.392-8.708C148.711,29.314,147.925,28.5,146.489,28.5z
	 M160.749,27.963c1.785,0,3.232-1.447,3.232-3.232s-1.447-3.232-3.232-3.232c-1.784,0-3.232,1.446-3.232,3.232
	C157.517,26.516,158.964,27.963,160.749,27.963z M164.489,28.5h-7.606c-1.433,0-1.579,0.975-1.968,2.036
	c0,0-1.257,8.358-1.268,8.437c-0.088,0.632,0.353,1.214,0.984,1.304c0.631,0.086,1.215-0.354,1.301-0.986
	c0.012-0.08,1.545-8.697,1.567-8.734v24.615c0,0.766,0.732,1.385,1.5,1.385c0.765,0,1.5-0.619,1.5-1.385V41.781h1v13.393
	c0,0.764,0.733,1.383,1.5,1.383c0.768,0,1.5-0.619,1.5-1.385V30.557c0,0,1.69,8.701,1.698,8.779c0.07,0.634,0.643,1.091,1.275,1.021
	c0.633-0.072,1.09-0.641,1.02-1.274c-0.01-0.081-1.392-8.708-1.392-8.708C166.711,29.314,165.925,28.5,164.489,28.5z
	 M178.749,27.963c1.785,0,3.232-1.447,3.232-3.232s-1.447-3.232-3.232-3.232c-1.784,0-3.232,1.446-3.232,3.232
	C175.517,26.516,176.964,27.963,178.749,27.963z M182.489,28.5h-7.606c-1.433,0-1.579,0.975-1.968,2.036
	c0,0-1.257,8.358-1.268,8.437c-0.088,0.632,0.353,1.214,0.984,1.304c0.631,0.086,1.215-0.354,1.301-0.986
	c0.012-0.08,1.545-8.697,1.567-8.734v24.615c0,0.766,0.732,1.385,1.5,1.385c0.765,0,1.5-0.619,1.5-1.385V41.781h1v13.393
	c0,0.764,0.733,1.383,1.5,1.383c0.768,0,1.5-0.619,1.5-1.385V30.557c0,0,1.69,8.701,1.698,8.779c0.07,0.634,0.643,1.091,1.275,1.021
	c0.633-0.072,1.09-0.641,1.02-1.274c-0.01-0.081-1.392-8.708-1.392-8.708C184.711,29.314,183.925,28.5,182.489,28.5z
	 M196.749,27.963c1.785,0,3.232-1.447,3.232-3.232s-1.447-3.232-3.232-3.232c-1.784,0-3.232,1.446-3.232,3.232
	C193.517,26.516,194.964,27.963,196.749,27.963z M200.489,28.5h-7.606c-1.433,0-1.579,0.975-1.968,2.036
	c0,0-1.257,8.358-1.268,8.437c-0.088,0.632,0.353,1.214,0.984,1.304c0.631,0.086,1.215-0.354,1.301-0.986
	c0.012-0.08,1.545-8.697,1.567-8.734v24.615c0,0.766,0.732,1.385,1.5,1.385c0.765,0,1.5-0.619,1.5-1.385V41.781h1v13.393
	c0,0.764,0.733,1.383,1.5,1.383c0.768,0,1.5-0.619,1.5-1.385V30.557c0,0,1.69,8.701,1.698,8.779c0.07,0.634,0.643,1.091,1.275,1.021
	c0.633-0.072,1.09-0.641,1.02-1.274c-0.01-0.081-1.392-8.708-1.392-8.708C202.711,29.314,201.925,28.5,200.489,28.5z
	 M214.749,27.963c1.785,0,3.232-1.447,3.232-3.232s-1.447-3.232-3.232-3.232c-1.784,0-3.232,1.446-3.232,3.232
	C211.517,26.516,212.964,27.963,214.749,27.963z M218.489,28.5h-7.606c-1.433,0-1.579,0.975-1.968,2.036
	c0,0-1.257,8.358-1.268,8.437c-0.088,0.632,0.353,1.214,0.984,1.304c0.631,0.086,1.215-0.354,1.301-0.986
	c0.012-0.08,1.545-8.697,1.567-8.734v24.615c0,0.766,0.732,1.385,1.5,1.385c0.765,0,1.5-0.619,1.5-1.385V41.781h1v13.393
	c0,0.764,0.733,1.383,1.5,1.383c0.768,0,1.5-0.619,1.5-1.385V30.557c0,0,1.69,8.701,1.698,8.779c0.07,0.634,0.643,1.091,1.275,1.021
	c0.633-0.072,1.09-0.641,1.02-1.274c-0.01-0.081-1.392-8.708-1.392-8.708C220.711,29.314,219.925,28.5,218.489,28.5z M91.981,63.732
	c0-1.785-1.447-3.232-3.232-3.232c-1.784,0-3.232,1.446-3.232,3.232c0,1.785,1.447,3.232,3.232,3.232S91.981,65.517,91.981,63.732z
	 M92.489,67.501h-7.606c-1.433,0-1.579,0.975-1.968,2.036c0,0-1.257,8.358-1.268,8.437c-0.088,0.632,0.353,1.214,0.984,1.304
	c0.631,0.086,1.215-0.354,1.301-0.986c0.012-0.08,1.545-8.697,1.567-8.734v24.615c0,0.766,0.732,1.385,1.5,1.385
	c0.765,0,1.5-0.619,1.5-1.385V80.782h1v13.393c0,0.764,0.733,1.383,1.5,1.383c0.768,0,1.5-0.619,1.5-1.385V69.558
	c0,0,1.69,8.701,1.698,8.779c0.07,0.634,0.643,1.091,1.275,1.021c0.633-0.072,1.09-0.641,1.02-1.274
	c-0.01-0.081-1.392-8.708-1.392-8.708C94.711,68.315,93.925,67.501,92.489,67.501z M109.981,63.732c0-1.785-1.447-3.232-3.232-3.232
	c-1.784,0-3.232,1.446-3.232,3.232c0,1.785,1.447,3.232,3.232,3.232S109.981,65.517,109.981,63.732z M110.489,67.501h-7.606
	c-1.433,0-1.579,0.975-1.968,2.036c0,0-1.257,8.358-1.268,8.437c-0.088,0.632,0.353,1.214,0.984,1.304
	c0.631,0.086,1.215-0.354,1.301-0.986c0.012-0.08,1.545-8.697,1.567-8.734v24.615c0,0.766,0.732,1.385,1.5,1.385
	c0.765,0,1.5-0.619,1.5-1.385V80.782h1v13.393c0,0.764,0.733,1.383,1.5,1.383c0.768,0,1.5-0.619,1.5-1.385V69.558
	c0,0,1.69,8.701,1.698,8.779c0.07,0.634,0.643,1.091,1.275,1.021c0.633-0.072,1.09-0.641,1.02-1.274
	c-0.01-0.081-1.392-8.708-1.392-8.708C112.711,68.315,111.925,67.501,110.489,67.501z M127.981,63.732
	c0-1.785-1.447-3.232-3.232-3.232c-1.784,0-3.232,1.446-3.232,3.232c0,1.785,1.447,3.232,3.232,3.232S127.981,65.517,127.981,63.732
	z M128.489,67.501h-7.606c-1.433,0-1.579,0.975-1.968,2.036c0,0-1.257,8.358-1.268,8.437c-0.088,0.632,0.353,1.214,0.984,1.304
	c0.631,0.086,1.215-0.354,1.301-0.986c0.012-0.08,1.545-8.697,1.567-8.734v24.615c0,0.766,0.732,1.385,1.5,1.385
	c0.765,0,1.5-0.619,1.5-1.385V80.782h1v13.393c0,0.764,0.733,1.383,1.5,1.383c0.768,0,1.5-0.619,1.5-1.385V69.558
	c0,0,1.69,8.701,1.698,8.779c0.07,0.634,0.643,1.091,1.275,1.021c0.633-0.072,1.09-0.641,1.02-1.274
	c-0.01-0.081-1.392-8.708-1.392-8.708C130.711,68.315,129.925,67.501,128.489,67.501z M145.981,63.732
	c0-1.785-1.447-3.232-3.232-3.232c-1.784,0-3.232,1.446-3.232,3.232c0,1.785,1.447,3.232,3.232,3.232S145.981,65.517,145.981,63.732
	z M146.489,67.501h-7.606c-1.433,0-1.579,0.975-1.968,2.036c0,0-1.257,8.358-1.268,8.437c-0.088,0.632,0.353,1.214,0.984,1.304
	c0.631,0.086,1.215-0.354,1.301-0.986c0.012-0.08,1.545-8.697,1.567-8.734v24.615c0,0.766,0.732,1.385,1.5,1.385
	c0.765,0,1.5-0.619,1.5-1.385V80.782h1v13.393c0,0.764,0.733,1.383,1.5,1.383c0.768,0,1.5-0.619,1.5-1.385V69.558
	c0,0,1.69,8.701,1.698,8.779c0.07,0.634,0.643,1.091,1.275,1.021c0.633-0.072,1.09-0.641,1.02-1.274
	c-0.01-0.081-1.392-8.708-1.392-8.708C148.711,68.315,147.925,67.501,146.489,67.501z M163.981,63.732
	c0-1.785-1.447-3.232-3.232-3.232c-1.784,0-3.232,1.446-3.232,3.232c0,1.785,1.447,3.232,3.232,3.232S163.981,65.517,163.981,63.732
	z M164.489,67.501h-7.606c-1.433,0-1.579,0.975-1.968,2.036c0,0-1.257,8.358-1.268,8.437c-0.088,0.632,0.353,1.214,0.984,1.304
	c0.631,0.086,1.215-0.354,1.301-0.986c0.012-0.08,1.545-8.697,1.567-8.734v24.615c0,0.766,0.732,1.385,1.5,1.385
	c0.765,0,1.5-0.619,1.5-1.385V80.782h1v13.393c0,0.764,0.733,1.383,1.5,1.383c0.768,0,1.5-0.619,1.5-1.385V69.558
	c0,0,1.69,8.701,1.698,8.779c0.07,0.634,0.643,1.091,1.275,1.021c0.633-0.072,1.09-0.641,1.02-1.274
	c-0.01-0.081-1.392-8.708-1.392-8.708C166.711,68.315,165.925,67.501,164.489,67.501z M181.981,63.732
	c0-1.785-1.447-3.232-3.232-3.232c-1.784,0-3.232,1.446-3.232,3.232c0,1.785,1.447,3.232,3.232,3.232S181.981,65.517,181.981,63.732
	z M182.489,67.501h-7.606c-1.433,0-1.579,0.975-1.968,2.036c0,0-1.257,8.358-1.268,8.437c-0.088,0.632,0.353,1.214,0.984,1.304
	c0.631,0.086,1.215-0.354,1.301-0.986c0.012-0.08,1.545-8.697,1.567-8.734v24.615c0,0.766,0.732,1.385,1.5,1.385
	c0.765,0,1.5-0.619,1.5-1.385V80.782h1v13.393c0,0.764,0.733,1.383,1.5,1.383c0.768,0,1.5-0.619,1.5-1.385V69.558
	c0,0,1.69,8.701,1.698,8.779c0.07,0.634,0.643,1.091,1.275,1.021c0.633-0.072,1.09-0.641,1.02-1.274
	c-0.01-0.081-1.392-8.708-1.392-8.708C184.711,68.315,183.925,67.501,182.489,67.501z M199.981,63.732
	c0-1.785-1.447-3.232-3.232-3.232c-1.784,0-3.232,1.446-3.232,3.232c0,1.785,1.447,3.232,3.232,3.232S199.981,65.517,199.981,63.732
	z M200.489,67.501h-7.606c-1.433,0-1.579,0.975-1.968,2.036c0,0-1.257,8.358-1.268,8.437c-0.088,0.632,0.353,1.214,0.984,1.304
	c0.631,0.086,1.215-0.354,1.301-0.986c0.012-0.08,1.545-8.697,1.567-8.734v24.615c0,0.766,0.732,1.385,1.5,1.385
	c0.765,0,1.5-0.619,1.5-1.385V80.782h1v13.393c0,0.764,0.733,1.383,1.5,1.383c0.768,0,1.5-0.619,1.5-1.385V69.558
	c0,0,1.69,8.701,1.698,8.779c0.07,0.634,0.643,1.091,1.275,1.021c0.633-0.072,1.09-0.641,1.02-1.274
	c-0.01-0.081-1.392-8.708-1.392-8.708C202.711,68.315,201.925,67.501,200.489,67.501z M217.981,63.732
	c0-1.785-1.447-3.232-3.232-3.232c-1.784,0-3.232,1.446-3.232,3.232c0,1.785,1.447,3.232,3.232,3.232S217.981,65.517,217.981,63.732
	z M218.489,67.501h-7.606c-1.433,0-1.579,0.975-1.968,2.036c0,0-1.257,8.358-1.268,8.437c-0.088,0.632,0.353,1.214,0.984,1.304
	c0.631,0.086,1.215-0.354,1.301-0.986c0.012-0.08,1.545-8.697,1.567-8.734v24.615c0,0.766,0.732,1.385,1.5,1.385
	c0.765,0,1.5-0.619,1.5-1.385V80.782h1v13.393c0,0.764,0.733,1.383,1.5,1.383c0.768,0,1.5-0.619,1.5-1.385V69.558
	c0,0,1.69,8.701,1.698,8.779c0.07,0.634,0.643,1.091,1.275,1.021c0.633-0.072,1.09-0.641,1.02-1.274
	c-0.01-0.081-1.392-8.708-1.392-8.708C220.711,68.315,219.925,67.501,218.489,67.501z M91.981,103.732
	c0-1.785-1.447-3.232-3.232-3.232c-1.784,0-3.232,1.446-3.232,3.232c0,1.785,1.447,3.232,3.232,3.232S91.981,105.517,91.981,103.732
	z M92.489,107.501h-7.606c-1.433,0-1.579,0.975-1.968,2.036c0,0-1.257,8.358-1.268,8.437c-0.088,0.632,0.353,1.214,0.984,1.304
	c0.631,0.086,1.215-0.354,1.301-0.986c0.012-0.08,1.545-8.697,1.567-8.734v24.615c0,0.766,0.732,1.385,1.5,1.385
	c0.765,0,1.5-0.619,1.5-1.385v-13.391h1v13.393c0,0.764,0.733,1.383,1.5,1.383c0.768,0,1.5-0.619,1.5-1.385v-24.615
	c0,0,1.69,8.701,1.698,8.779c0.07,0.634,0.643,1.091,1.275,1.021c0.633-0.072,1.09-0.641,1.02-1.274
	c-0.01-0.081-1.392-8.708-1.392-8.708C94.711,108.315,93.925,107.501,92.489,107.501z M69.749,27.963
	c1.785,0,3.232-1.447,3.232-3.232s-1.447-3.232-3.232-3.232c-1.784,0-3.232,1.446-3.232,3.232
	C66.517,26.516,67.964,27.963,69.749,27.963z M73.489,28.5h-7.606c-1.433,0-1.579,0.975-1.968,2.036c0,0-1.257,8.358-1.268,8.437
	c-0.088,0.632,0.353,1.214,0.984,1.304c0.631,0.086,1.215-0.354,1.301-0.986c0.012-0.08,1.545-8.697,1.567-8.734v24.615
	c0,0.766,0.732,1.385,1.5,1.385c0.765,0,1.5-0.619,1.5-1.385V41.781h1v13.393c0,0.764,0.733,1.383,1.5,1.383
	c0.768,0,1.5-0.619,1.5-1.385V30.557c0,0,1.69,8.701,1.698,8.779c0.07,0.634,0.643,1.091,1.275,1.021
	c0.633-0.072,1.09-0.641,1.02-1.274c-0.01-0.081-1.392-8.708-1.392-8.708C75.711,29.314,74.925,28.5,73.489,28.5z M72.981,63.732
	c0-1.785-1.447-3.232-3.232-3.232c-1.784,0-3.232,1.446-3.232,3.232c0,1.785,1.447,3.232,3.232,3.232S72.981,65.517,72.981,63.732z
	 M73.489,67.501h-7.606c-1.433,0-1.579,0.975-1.968,2.036c0,0-1.257,8.358-1.268,8.437c-0.088,0.632,0.353,1.214,0.984,1.304
	c0.631,0.086,1.215-0.354,1.301-0.986c0.012-0.08,1.545-8.697,1.567-8.734v24.615c0,0.766,0.732,1.385,1.5,1.385
	c0.765,0,1.5-0.619,1.5-1.385V80.782h1v13.393c0,0.764,0.733,1.383,1.5,1.383c0.768,0,1.5-0.619,1.5-1.385V69.558
	c0,0,1.69,8.701,1.698,8.779c0.07,0.634,0.643,1.091,1.275,1.021c0.633-0.072,1.09-0.641,1.02-1.274
	c-0.01-0.081-1.392-8.708-1.392-8.708C75.711,68.315,74.925,67.501,73.489,67.501z M72.981,103.732c0-1.785-1.447-3.232-3.232-3.232
	c-1.784,0-3.232,1.446-3.232,3.232c0,1.785,1.447,3.232,3.232,3.232S72.981,105.517,72.981,103.732z M73.489,107.501h-7.606
	c-1.433,0-1.579,0.975-1.968,2.036c0,0-1.257,8.358-1.268,8.437c-0.088,0.632,0.353,1.214,0.984,1.304
	c0.631,0.086,1.215-0.354,1.301-0.986c0.012-0.08,1.545-8.697,1.567-8.734v24.615c0,0.766,0.732,1.385,1.5,1.385
	c0.765,0,1.5-0.619,1.5-1.385v-13.391h1v13.393c0,0.764,0.733,1.383,1.5,1.383c0.768,0,1.5-0.619,1.5-1.385v-24.615
	c0,0,1.69,8.701,1.698,8.779c0.07,0.634,0.643,1.091,1.275,1.021c0.633-0.072,1.09-0.641,1.02-1.274
	c-0.01-0.081-1.392-8.708-1.392-8.708C75.711,108.315,74.925,107.501,73.489,107.501z M50.749,27.963
	c1.785,0,3.232-1.447,3.232-3.232s-1.447-3.232-3.232-3.232c-1.784,0-3.232,1.446-3.232,3.232
	C47.517,26.516,48.964,27.963,50.749,27.963z M54.489,28.5h-7.606c-1.433,0-1.579,0.975-1.968,2.036c0,0-1.257,8.358-1.268,8.437
	c-0.088,0.632,0.353,1.214,0.984,1.304c0.631,0.086,1.215-0.354,1.301-0.986c0.012-0.08,1.545-8.697,1.567-8.734v24.615
	c0,0.766,0.732,1.385,1.5,1.385c0.765,0,1.5-0.619,1.5-1.385V41.781h1v13.393c0,0.764,0.733,1.383,1.5,1.383
	c0.768,0,1.5-0.619,1.5-1.385V30.557c0,0,1.69,8.701,1.698,8.779c0.07,0.634,0.643,1.091,1.275,1.021
	c0.633-0.072,1.09-0.641,1.02-1.274c-0.01-0.081-1.392-8.708-1.392-8.708C56.711,29.314,55.925,28.5,54.489,28.5z M53.981,63.732
	c0-1.785-1.447-3.232-3.232-3.232c-1.784,0-3.232,1.446-3.232,3.232c0,1.785,1.447,3.232,3.232,3.232S53.981,65.517,53.981,63.732z
	 M54.489,67.501h-7.606c-1.433,0-1.579,0.975-1.968,2.036c0,0-1.257,8.358-1.268,8.437c-0.088,0.632,0.353,1.214,0.984,1.304
	c0.631,0.086,1.215-0.354,1.301-0.986c0.012-0.08,1.545-8.697,1.567-8.734v24.615c0,0.766,0.732,1.385,1.5,1.385
	c0.765,0,1.5-0.619,1.5-1.385V80.782h1v13.393c0,0.764,0.733,1.383,1.5,1.383c0.768,0,1.5-0.619,1.5-1.385V69.558
	c0,0,1.69,8.701,1.698,8.779c0.07,0.634,0.643,1.091,1.275,1.021c0.633-0.072,1.09-0.641,1.02-1.274
	c-0.01-0.081-1.392-8.708-1.392-8.708C56.711,68.315,55.925,67.501,54.489,67.501z M53.981,103.732c0-1.785-1.447-3.232-3.232-3.232
	c-1.784,0-3.232,1.446-3.232,3.232c0,1.785,1.447,3.232,3.232,3.232S53.981,105.517,53.981,103.732z M54.489,107.501h-7.606
	c-1.433,0-1.579,0.975-1.968,2.036c0,0-1.257,8.358-1.268,8.437c-0.088,0.632,0.353,1.214,0.984,1.304
	c0.631,0.086,1.215-0.354,1.301-0.986c0.012-0.08,1.545-8.697,1.567-8.734v24.615c0,0.766,0.732,1.385,1.5,1.385
	c0.765,0,1.5-0.619,1.5-1.385v-13.391h1v13.393c0,0.764,0.733,1.383,1.5,1.383c0.768,0,1.5-0.619,1.5-1.385v-24.615
	c0,0,1.69,8.701,1.698,8.779c0.07,0.634,0.643,1.091,1.275,1.021c0.633-0.072,1.09-0.641,1.02-1.274
	c-0.01-0.081-1.392-8.708-1.392-8.708C56.711,108.315,55.925,107.501,54.489,107.501z M109.981,103.732
	c0-1.785-1.447-3.232-3.232-3.232c-1.784,0-3.232,1.446-3.232,3.232c0,1.785,1.447,3.232,3.232,3.232
	S109.981,105.517,109.981,103.732z M110.489,107.501h-7.606c-1.433,0-1.579,0.975-1.968,2.036c0,0-1.257,8.358-1.268,8.437
	c-0.088,0.632,0.353,1.214,0.984,1.304c0.631,0.086,1.215-0.354,1.301-0.986c0.012-0.08,1.545-8.697,1.567-8.734v24.615
	c0,0.766,0.732,1.385,1.5,1.385c0.765,0,1.5-0.619,1.5-1.385v-13.391h1v13.393c0,0.764,0.733,1.383,1.5,1.383
	c0.768,0,1.5-0.619,1.5-1.385v-24.615c0,0,1.69,8.701,1.698,8.779c0.07,0.634,0.643,1.091,1.275,1.021
	c0.633-0.072,1.09-0.641,1.02-1.274c-0.01-0.081-1.392-8.708-1.392-8.708C112.711,108.315,111.925,107.501,110.489,107.501z
	 M127.981,103.732c0-1.785-1.447-3.232-3.232-3.232c-1.784,0-3.232,1.446-3.232,3.232c0,1.785,1.447,3.232,3.232,3.232
	S127.981,105.517,127.981,103.732z M128.489,107.501h-7.606c-1.433,0-1.579,0.975-1.968,2.036c0,0-1.257,8.358-1.268,8.437
	c-0.088,0.632,0.353,1.214,0.984,1.304c0.631,0.086,1.215-0.354,1.301-0.986c0.012-0.08,1.545-8.697,1.567-8.734v24.615
	c0,0.766,0.732,1.385,1.5,1.385c0.765,0,1.5-0.619,1.5-1.385v-13.391h1v13.393c0,0.764,0.733,1.383,1.5,1.383
	c0.768,0,1.5-0.619,1.5-1.385v-24.615c0,0,1.69,8.701,1.698,8.779c0.07,0.634,0.643,1.091,1.275,1.021
	c0.633-0.072,1.09-0.641,1.02-1.274c-0.01-0.081-1.392-8.708-1.392-8.708C130.711,108.315,129.925,107.501,128.489,107.501z
	 M145.981,103.732c0-1.785-1.447-3.232-3.232-3.232c-1.784,0-3.232,1.446-3.232,3.232c0,1.785,1.447,3.232,3.232,3.232
	S145.981,105.517,145.981,103.732z M146.489,107.501h-7.606c-1.433,0-1.579,0.975-1.968,2.036c0,0-1.257,8.358-1.268,8.437
	c-0.088,0.632,0.353,1.214,0.984,1.304c0.631,0.086,1.215-0.354,1.301-0.986c0.012-0.08,1.545-8.697,1.567-8.734v24.615
	c0,0.766,0.732,1.385,1.5,1.385c0.765,0,1.5-0.619,1.5-1.385v-13.391h1v13.393c0,0.764,0.733,1.383,1.5,1.383
	c0.768,0,1.5-0.619,1.5-1.385v-24.615c0,0,1.69,8.701,1.698,8.779c0.07,0.634,0.643,1.091,1.275,1.021
	c0.633-0.072,1.09-0.641,1.02-1.274c-0.01-0.081-1.392-8.708-1.392-8.708C148.711,108.315,147.925,107.501,146.489,107.501z
	 M163.981,103.732c0-1.785-1.447-3.232-3.232-3.232c-1.784,0-3.232,1.446-3.232,3.232c0,1.785,1.447,3.232,3.232,3.232
	S163.981,105.517,163.981,103.732z M164.489,107.501h-7.606c-1.433,0-1.579,0.975-1.968,2.036c0,0-1.257,8.358-1.268,8.437
	c-0.088,0.632,0.353,1.214,0.984,1.304c0.631,0.086,1.215-0.354,1.301-0.986c0.012-0.08,1.545-8.697,1.567-8.734v24.615
	c0,0.766,0.732,1.385,1.5,1.385c0.765,0,1.5-0.619,1.5-1.385v-13.391h1v13.393c0,0.764,0.733,1.383,1.5,1.383
	c0.768,0,1.5-0.619,1.5-1.385v-24.615c0,0,1.69,8.701,1.698,8.779c0.07,0.634,0.643,1.091,1.275,1.021
	c0.633-0.072,1.09-0.641,1.02-1.274c-0.01-0.081-1.392-8.708-1.392-8.708C166.711,108.315,165.925,107.501,164.489,107.501z
	 M181.981,103.732c0-1.785-1.447-3.232-3.232-3.232c-1.784,0-3.232,1.446-3.232,3.232c0,1.785,1.447,3.232,3.232,3.232
	S181.981,105.517,181.981,103.732z M182.489,107.501h-7.606c-1.433,0-1.579,0.975-1.968,2.036c0,0-1.257,8.358-1.268,8.437
	c-0.088,0.632,0.353,1.214,0.984,1.304c0.631,0.086,1.215-0.354,1.301-0.986c0.012-0.08,1.545-8.697,1.567-8.734v24.615
	c0,0.766,0.732,1.385,1.5,1.385c0.765,0,1.5-0.619,1.5-1.385v-13.391h1v13.393c0,0.764,0.733,1.383,1.5,1.383
	c0.768,0,1.5-0.619,1.5-1.385v-24.615c0,0,1.69,8.701,1.698,8.779c0.07,0.634,0.643,1.091,1.275,1.021
	c0.633-0.072,1.09-0.641,1.02-1.274c-0.01-0.081-1.392-8.708-1.392-8.708C184.711,108.315,183.925,107.501,182.489,107.501z
	 M199.981,103.732c0-1.785-1.447-3.232-3.232-3.232c-1.784,0-3.232,1.446-3.232,3.232c0,1.785,1.447,3.232,3.232,3.232
	S199.981,105.517,199.981,103.732z M200.489,107.501h-7.606c-1.433,0-1.579,0.975-1.968,2.036c0,0-1.257,8.358-1.268,8.437
	c-0.088,0.632,0.353,1.214,0.984,1.304c0.631,0.086,1.215-0.354,1.301-0.986c0.012-0.08,1.545-8.697,1.567-8.734v24.615
	c0,0.766,0.732,1.385,1.5,1.385c0.765,0,1.5-0.619,1.5-1.385v-13.391h1v13.393c0,0.764,0.733,1.383,1.5,1.383
	c0.768,0,1.5-0.619,1.5-1.385v-24.615c0,0,1.69,8.701,1.698,8.779c0.07,0.634,0.643,1.091,1.275,1.021
	c0.633-0.072,1.09-0.641,1.02-1.274c-0.01-0.081-1.392-8.708-1.392-8.708C202.711,108.315,201.925,107.501,200.489,107.501z
	 M217.981,103.732c0-1.785-1.447-3.232-3.232-3.232c-1.784,0-3.232,1.446-3.232,3.232c0,1.785,1.447,3.232,3.232,3.232
	S217.981,105.517,217.981,103.732z M218.489,107.501h-7.606c-1.433,0-1.579,0.975-1.968,2.036c0,0-1.257,8.358-1.268,8.437
	c-0.088,0.632,0.353,1.214,0.984,1.304c0.631,0.086,1.215-0.354,1.301-0.986c0.012-0.08,1.545-8.697,1.567-8.734v24.615
	c0,0.766,0.732,1.385,1.5,1.385c0.765,0,1.5-0.619,1.5-1.385v-13.391h1v13.393c0,0.764,0.733,1.383,1.5,1.383
	c0.768,0,1.5-0.619,1.5-1.385v-24.615c0,0,1.69,8.701,1.698,8.779c0.07,0.634,0.643,1.091,1.275,1.021
	c0.633-0.072,1.09-0.641,1.02-1.274c-0.01-0.081-1.392-8.708-1.392-8.708C220.711,108.315,219.925,107.501,218.489,107.501z
	 M232.749,27.963c1.785,0,3.232-1.447,3.232-3.232s-1.447-3.232-3.232-3.232c-1.784,0-3.232,1.446-3.232,3.232
	C229.517,26.516,230.964,27.963,232.749,27.963z M236.489,28.5h-7.606c-1.433,0-1.579,0.975-1.968,2.036
	c0,0-1.257,8.358-1.268,8.437c-0.088,0.632,0.353,1.214,0.984,1.304c0.631,0.086,1.215-0.354,1.301-0.986
	c0.012-0.08,1.545-8.697,1.567-8.734v24.615c0,0.766,0.732,1.385,1.5,1.385c0.765,0,1.5-0.619,1.5-1.385V41.781h1v13.393
	c0,0.764,0.733,1.383,1.5,1.383c0.768,0,1.5-0.619,1.5-1.385V30.557c0,0,1.69,8.701,1.698,8.779c0.07,0.634,0.643,1.091,1.275,1.021
	c0.633-0.072,1.09-0.641,1.02-1.274c-0.01-0.081-1.392-8.708-1.392-8.708C238.711,29.314,237.925,28.5,236.489,28.5z
	 M235.981,63.732c0-1.785-1.447-3.232-3.232-3.232c-1.784,0-3.232,1.446-3.232,3.232c0,1.785,1.447,3.232,3.232,3.232
	S235.981,65.517,235.981,63.732z M236.489,67.501h-7.606c-1.433,0-1.579,0.975-1.968,2.036c0,0-1.257,8.358-1.268,8.437
	c-0.088,0.632,0.353,1.214,0.984,1.304c0.631,0.086,1.215-0.354,1.301-0.986c0.012-0.08,1.545-8.697,1.567-8.734v24.615
	c0,0.766,0.732,1.385,1.5,1.385c0.765,0,1.5-0.619,1.5-1.385V80.782h1v13.393c0,0.764,0.733,1.383,1.5,1.383
	c0.768,0,1.5-0.619,1.5-1.385V69.558c0,0,1.69,8.701,1.698,8.779c0.07,0.634,0.643,1.091,1.275,1.021
	c0.633-0.072,1.09-0.641,1.02-1.274c-0.01-0.081-1.392-8.708-1.392-8.708C238.711,68.315,237.925,67.501,236.489,67.501z
	 M250.749,27.963c1.785,0,3.232-1.447,3.232-3.232s-1.447-3.232-3.232-3.232c-1.784,0-3.232,1.446-3.232,3.232
	C247.517,26.516,248.964,27.963,250.749,27.963z M244.632,40.277c0.631,0.086,1.215-0.354,1.301-0.986
	c0.012-0.08,1.545-8.697,1.567-8.734v24.615c0,0.766,0.732,1.385,1.5,1.385c0.765,0,1.5-0.619,1.5-1.385V41.781h1v13.393
	c0,0.764,0.733,1.383,1.5,1.383c0.768,0,1.5-0.619,1.5-1.385V30.557c0,0,1.69,8.701,1.698,8.779c0.07,0.634,0.643,1.091,1.275,1.021
	c0.633-0.072,1.09-0.641,1.02-1.274c-0.01-0.081-1.392-8.708-1.392-8.708c-0.391-1.061-1.177-1.875-2.612-1.875h-7.606
	c-1.433,0-1.579,0.975-1.968,2.036c0,0-1.257,8.358-1.268,8.437C243.56,39.605,244,40.188,244.632,40.277z M247.517,63.732
	c0,1.785,1.447,3.232,3.232,3.232s3.232-1.447,3.232-3.232s-1.447-3.232-3.232-3.232C248.965,60.5,247.517,61.946,247.517,63.732z
	 M254.489,67.501h-7.606c-1.433,0-1.579,0.975-1.968,2.036c0,0-1.257,8.358-1.268,8.437c-0.088,0.632,0.353,1.214,0.984,1.304
	c0.631,0.086,1.215-0.354,1.301-0.986c0.012-0.08,1.545-8.697,1.567-8.734v24.615c0,0.766,0.732,1.385,1.5,1.385
	c0.765,0,1.5-0.619,1.5-1.385V80.782h1v13.393c0,0.764,0.733,1.383,1.5,1.383c0.768,0,1.5-0.619,1.5-1.385V69.558
	c0,0,1.69,8.701,1.698,8.779c0.07,0.634,0.643,1.091,1.275,1.021c0.633-0.072,1.09-0.641,1.02-1.274
	c-0.01-0.081-1.392-8.708-1.392-8.708C256.711,68.315,255.925,67.501,254.489,67.501z"/>
</svg>
