<svg version="1" xmlns="http://www.w3.org/2000/svg" width="96.182" height="119" viewBox="0 0 96.182 119"><g fill-rule="evenodd" clip-rule="evenodd" fill="#2D2D2D"><path d="M48.079 27.311v18.555l-32.045 18.721s.011 20.675.011 26.955c2.116-1.209 32.008-18.437 32.008-18.437v18.449l-47.96 27.446-.093-64.183 48.079-27.506"/><path d="M96.182 0v54.855l-15.898-9.127-.044-18.085-16.151 8.868-16.01-9.2zM48.054 91.554v-18.448l32.111 18.242v-26.872l-32.086-18.611v-18.554l48.103 27.544v64.102zM31.967 36.46l-15.929-9.113v18.374l-16.038 9.096.057-54.81s32.725 18.508 48.022 27.303l-16.112 9.15zM24.559 59.587l23.495 13.519-16.039 9.234-15.97-9.164-.011-8.589zM48.054 73.21l23.665-13.628 8.446 4.894s.008 6.135 0 8.781c-5.319 3.038-15.844 9.113-15.844 9.113l-16.267-9.16z"/></g></svg>