<svg version="1" xmlns="http://www.w3.org/2000/svg" width="103" height="107.552" viewBox="0 0 103 107.552"><path fill="#2D2D2D" d="M70.135 31.515c9.865-8.796 15.865-13.463 19.183-14.171 3.228-.688 3.714 3.893 3.043 5.952-.672 2.052-14.65 6.965-23.177 14.929-8.535 7.971-11.601 13.171-13.287 15.27-1.687 2.102-7.886-1.02-4.719-3.601 3.489-2.842 2.356-3.575 18.957-18.379zm-22.768 37.533c2.192-3.938 4.356-7.673 5.206-8.659 1.975-2.314-5.809-8.569-5.176-4.865.297 1.74-2.382 6.972-5.216 12.097-.894-.291-1.791-.607-2.691-.948 1.808-4.078 3.598-7.934 4.346-8.991 1.141-1.597-1.67-4.464-3.429-5.332l.016-.037c-.173-.107-.345-.224-.51-.341l-.061-.04h-.001l-.061-.084-.003-.009c-.035-.056-.022-.117 0-.187l-.192-.097c-.531-.31 1.03-1.284 1.576-.965 1.32.767 3.102 1.593 4.664 1.233 2.804-4.401 6.961-14.548 12.901-21.89 8.61-10.634 17.168-19.196 18.184-20.209 1.012-1.012-1.469-8.907-5.775-5.365-1.67 1.376-4.305 5.568-12.152 17.72-4.487 6.955-11.331 16.388-15.317 22.671-1.793-.615-6.078-.427-6.321 1.595-.246 2.064-3.372 11.321-5.313 16.938-12.8-6.94-20.328-17.254-17.292-24.689 2.862-7.009 14.221-9.254 27.237-6.128-.96 2.439-1.922 4.687-2.767 6.265-2.257 4.215-.696 3.156 2.881 2.98 3.578-.175 1.824-4.039 9.006-20.871 3.095-7.25 8.169-14.495 8.852-15.753.685-1.257-3.931-8.129-7.055-3.512-1.211 1.794-1.777 5.302-6.572 18.951-1.012 2.876-2.63 7.567-4.265 11.737-15.473-4.629-29.743-2.039-33.305 6.681-3.766 9.212 5.788 21.942 21.588 29.359l.022.01c.932.438 1.882.858 2.856 1.257.686.28 1.371.54 2.055.792l.233.084c1.442.523 2.879.985 4.304 1.384l-.001.003.159.04c1.746.483 3.473.873 5.167 1.172l.017.004c12.222 2.151 22.748-.436 26.417-7.119-4.52 4.309-13.782 5.455-24.212 3.118zm33.649-11.261c-2.687-13.103-13.41-16.426-13.41-16.426s-.003 10.09 13.41 16.426zm20.764-6.083c-14.94-15.192-27.824-8.139-27.824-8.139s11.872 9.404 27.824 8.139zm-13.736 50.353l-2.608-13.982h-3.02v19.208h2.404v-10.713l2.025 10.712h2.42l2.052-10.849v10.849h2.402v-19.208h-3.044l-2.631 13.983zm14.956-7.536v-2.709c0-2.209-1.797-4.007-4.006-4.007s-4.006 1.798-4.006 4.007v1.214c0 1.459.887 2.539.926 2.586l4.283 5.093c.004.005.4.502.4 1.086v1.756c0 .883-.72 1.601-1.604 1.601-.886 0-1.605-.718-1.605-1.601v-3.398l-2.4.283v3.115c0 2.209 1.797 4.006 4.006 4.006s4.006-1.797 4.006-4.006v-1.756c0-1.486-.916-2.593-.955-2.639l-4.29-5.104c-.004-.004-.366-.444-.366-1.022v-1.214c0-.885.72-1.604 1.605-1.604.884 0 1.604.72 1.604 1.604v2.987l2.402-.278zm-95-2.578v10.869c0 2.311-1.333 4.161-3.337 4.161-1.195 0-2.008-.656-2.663-1.657l-.613 1.466h-1.387v-25.784h2v8.095c.656-.81 1.622-1.311 2.663-1.311 2.004 0 3.337 1.849 3.337 4.161zm-2 0c0-1.195-.644-2.158-1.837-2.158-1.196 0-2.163.963-2.163 2.158v10.869c0 1.193.967 2.157 2.163 2.157 1.193 0 1.837-.964 1.837-2.157v-10.869zm48 10.87c0 1.193-.739 2.157-1.935 2.157-1.194 0-2.065-.964-2.065-2.157v-14.836h-2v14.836c0 2.311 1.56 4.161 3.564 4.161 1.194 0 2.049-.656 2.705-1.657l.348 1.466h1.383v-18.806h-2v14.836zm11.651-4.78l-4.163-3.469s-.655-.54-.655-1.617v-1.158c0-1.115.886-2.004 2.004-2.004 1.118 0 1.875.889 1.875 2.004v1.966l2-.231v-1.734c0-2.195-1.678-4.007-3.875-4.007s-4.007 1.812-4.007 4.007v1.158c0 2.04 1.348 3.159 1.348 3.159l4.163 3.469s.655.54.655 1.619v1.618c0 1.193-.964 2.157-2.159 2.157-1.194 0-2.125-.964-2.125-2.157v-2.082l-2 .231v1.851c0 2.311 1.812 4.161 4.125 4.161 2.313 0 4.163-1.851 4.163-4.161v-1.618c0-2.043-1.349-3.162-1.349-3.162zm-46.651 6.745v2.004c-.81 0-1.657-.349-2.158-.887-.732.692-1.735 1.078-2.814 1.078-2.312 0-4.028-1.851-4.028-4.161v-2.121c0-1.925 1.696-2.891 1.696-2.891l2.833-1.694s1.657-.965 1.657-2.504v-1.888c0-1.08-.848-1.93-1.927-1.93-1.079 0-2.255.85-2.255 1.93v2.231l-2.004.234v-2.464c0-2.158 2.101-3.933 4.259-3.933s3.741 1.775 3.741 3.933v12.37c0 .382.614.693 1 .693zm-2.813-7.439c-.308.309-.656.503-.656.503l-2.833 1.693s-.698.386-.698 1.156v2.121c0 1.193.833 2.157 2.028 2.157s2.159-.964 2.159-2.157v-5.473zm29.813-5.396v10.869c0 2.311-1.333 4.161-3.337 4.161-1.195 0-2.008-.656-2.663-1.657l-.613 1.466h-1.387v-25.784h2v8.095c.656-.81 1.622-1.311 2.663-1.311 2.004 0 3.337 1.849 3.337 4.161zm-2 0c0-1.195-.644-2.158-1.837-2.158-1.195 0-2.163.963-2.163 2.158v10.869c0 1.193.967 2.157 2.163 2.157 1.193 0 1.837-.964 1.837-2.157v-10.869zm33.146-4.138c-2.21 0-4.008 1.798-4.008 4.007v11.734c0 2.209 1.798 4.006 4.008 4.006 2.209 0 4.006-1.797 4.006-4.006v-2.984h-2.402v2.984c0 .883-.72 1.601-1.604 1.601s-1.604-.718-1.604-1.601v-11.734c0-.885.72-1.604 1.604-1.604s1.604.72 1.604 1.604v3.422l2.402-.28v-3.142c0-2.209-1.798-4.007-4.006-4.007zm-46.308-.023c-1.634 0-2.801 1.39-2.801 1.39s-.975-1.39-3.037-1.39c-1.194 0-2.27 1.159-2.27 1.159l-.348-.965h-1.382v19.075h2v-15.108c0-1.195.805-2.158 2-2.158 1.194 0 2 .963 2 2.158v15.108h2v-15.19c0-1.195.644-2.076 1.838-2.076 1.195 0 2.162.963 2.162 2.158v15.108h2v-15.108c0-2.312-1.85-4.161-4.162-4.161z"/></svg>