<svg version="1" xmlns="http://www.w3.org/2000/svg" width="183.021" height="88.599" viewBox="1132.324 302.5 183.021 88.599" enable-background="new 1132.324 302.5 183.021 88.599"><path fill="#010101" d="M1132.324 322.5l5.293 61.721 23.764 6.878 23.829-6.878 5.301-61.721h-58.187zm47.145 14.529l-.334 3.833-.148 1.639h-27.872l.663 7h26.549l-.177 2.277-1.714 19.176-.109 1.229-14.909 4.132v.001l-.034.009-14.92-4.143-1.021-11.683h7.311l.519 6.057 8.112 2.189.008-.002v-.001l8.125-2.192.982-10.05h-25.247l-1.928-19.471-.172-1.958h36.486000000000004l-.17 1.958z"/><g fill-rule="evenodd" clip-rule="evenodd"><path d="M1166.5 309.366v4.938h-4v-11.804h4.223s1.436 2.549 2.331 3.902c.826-1.275 2.446-3.902 2.446-3.902h4v11.827h-3.787v-4.936l-2.715 3.535-2.498-3.56zM1138.5 314.326v-11.826h4s-.109 2.763 0 4h3.08c.095-1.103 0-4 0-4h3.92v11.824h-3.92v-3.824h-3.08v3.827h-4zM1223.5 314.326v-3.827h3.879l-3.728-4v-4h9.849v4h-3.99l3.99 5v2.827h-10zM1279.5 314.326v-3.827h3.879l-3.728-4v-4h9.849v4h-3.99l3.99 5v2.827h-10zM1291.5 314.326v-3.827h3.879l-3.728-4v-4h9.849v4h-3.99l3.99 5v2.827h-10zM1277.357 302.5v4h-5.076v4h5.006v3.827h-8.787v-11.827h8.857zM1158.257 314.326h-4.757v-7.885h-3v-3.941h10.92v3.941c-1.026.094-3.163 0-3.163 0v7.885zM1221.371 314.326h-9.871v-3.826h5.204v-8h4.567c.369 3.926.149 7.833.1 11.826zM1177.739 314.326v-11.826h3.761v8h5v3.826zM1255.235 322.5c1.828 20.534 5.449 61.721 5.449 61.721l24.878 6.878 24.331-6.878s3.634-41.286 5.452-61.721h-60.11zm45.476 50.485l-15.148 4.184-15.465-4.063s-.702-7.7-1.063-11.606h7.182c.236 1.818.701 5.605.701 5.605l8.681 2.131 8.083-2.25s.506-5.892.807-9.357h-17.257l-.741-7.128h18.701l.633-8h-28.46c-.233-2.623-.659-7-.659-7h37.353l-3.348 37.484zM1192.86 322.5c1.826 20.502 5.438 61.721 5.438 61.721l24.611 6.878 24.55-6.878s3.629-41.304 5.446-61.721h-60.045zm45.328 50.388l-15.278 4.22-15.396-4.346s-.65-7.324-.999-11.198h7.219c.242 1.894.703 5.47.703 5.47l8.047 2.088 8.691-2.174s.509-5.911.813-9.39h-25.486c.832-9.179 1.622-17.983 2.44-27.085h29.836c.455 5.07.92 10.659 1.403 16.026h-7.417c-.27-2.438-.536-5.192-.838-8h-16.277c-.376 3.768-1.147 11.9-1.147 11.9h25.688c-.002.001-1.338 14.89-2.002 22.489z"/></g></svg>