<svg version="1" xmlns="http://www.w3.org/2000/svg" width="168.026" height="114.114" viewBox="0 0 168.026 114.114"><g fill="#2D2D2D"><path d="M40.397 103.958h-6.483c-.229-10.942-.86-21.232-1.894-30.872h-.057l-9.871 30.872h-4.937l-9.81-30.873h-.058c-.728 9.258-1.186 19.548-1.376 30.872h-5.911c.382-13.772 1.338-26.684 2.868-38.735h8.035l9.354 28.462h.058l9.411-28.462h7.688c1.684 14.115 2.678 27.029 2.983 38.736"/><path d="M68.516 75.379c-2.64 14.324-6.122 24.734-10.444 31.229-3.368 5.004-7.058 7.506-11.075 7.506-1.071 0-2.392-.323-3.959-.964v-3.453c.766.112 1.664.172 2.697.172 1.874 0 3.385-.518 4.534-1.552 1.376-1.26 2.064-2.676 2.064-4.245 0-1.072-.537-3.271-1.606-6.598l-7.115-22.095h6.369l5.106 16.524c1.147 3.752 1.626 6.371 1.435 7.864 2.793-7.46 4.744-15.59 5.854-24.389h6.14zM154.82 103.958h-18.42v-38.736h6.199v33.971h12.221z"/><path fill-rule="evenodd" clip-rule="evenodd" d="M131.581 104.892l-7.12-3.511c.634-.521 1.236-1.081 1.781-1.73 3.022-3.554 4.535-8.814 4.535-15.778 0-12.814-5.03-19.226-15.092-19.226-4.935 0-8.78 1.625-11.535 4.88-3.023 3.558-4.533 8.798-4.533 15.723 0 6.81 1.338 11.805 4.016 14.978 2.449 2.868 6.141 4.304 11.077 4.304 1.843 0 3.534-.227 5.071-.681l9.271 5.396 2.529-4.355zm-23.068-8.684c-1.569-2.524-2.354-6.576-2.354-12.163 0-9.755 2.966-14.635 8.895-14.635 3.1 0 5.375 1.167 6.83 3.499 1.567 2.526 2.353 6.543 2.353 12.052 0 9.832-2.966 14.75-8.895 14.75-3.1 0-5.376-1.165-6.829-3.503"/><path d="M96.916 93.221c0 3.285-1.207 5.981-3.613 8.092-2.408 2.101-5.643 3.154-9.694 3.154-3.788 0-7.461-1.212-11.018-3.617l1.664-3.327c3.061 1.53 5.831 2.294 8.318 2.294 2.333 0 4.158-.519 5.479-1.545 1.318-1.033 2.108-2.474 2.108-4.302 0-2.301-1.604-4.267-4.547-5.915-2.718-1.491-8.147-4.604-8.147-4.604-2.942-2.146-4.417-4.449-4.417-8.243 0-3.138 1.1-5.674 3.297-7.604 2.202-1.934 5.043-2.9 8.522-2.9 3.596 0 6.865.96 9.811 2.872l-1.495 3.324c-2.52-1.068-5.005-1.604-7.455-1.604-1.987 0-3.52.478-4.588 1.438-1.074.952-1.737 2.177-1.737 3.67 0 2.294 1.639 4.284 4.664 5.965 2.752 1.492 8.314 4.665 8.314 4.665 3.026 2.141 4.534 4.424 4.534 8.187"/><path fill-rule="evenodd" clip-rule="evenodd" d="M162.598 52.247c-3.746-.094-6.646.28-9.08 1.311-.702.28-1.823.28-1.92 1.17.377.374.422.981.752 1.499.561.936 1.541 2.197 2.433 2.854.982.749 1.966 1.495 2.997 2.15 1.823 1.128 3.884 1.78 5.659 2.904 1.033.654 2.06 1.496 3.093 2.2.513.374.838.983 1.495 1.215v-.142c-.329-.42-.422-1.028-.747-1.499l-1.405-1.354c-1.358-1.825-3.045-3.415-4.866-4.726-1.499-1.032-4.777-2.437-5.383-4.163l-.095-.096c1.029-.095 2.249-.47 3.23-.754 1.589-.42 3.04-.325 4.678-.745.75-.188 1.499-.424 2.251-.654v-.424c-.847-.841-1.452-1.966-2.342-2.761-2.385-2.059-5.009-4.069-7.723-5.757-1.453-.937-3.325-1.542-4.87-2.34-.559-.281-1.494-.42-1.823-.891-.843-1.029-1.313-2.385-1.92-3.604-1.355-2.571-2.669-5.425-3.837-8.144-.842-1.824-1.357-3.648-2.387-5.334-4.823-7.958-10.063-12.776-18.113-17.504-1.732-.985-3.791-1.405-5.989-1.92-1.172-.049-2.341-.14-3.511-.186-.75-.329-1.5-1.219-2.154-1.64-2.669-1.682-9.546-5.332-11.513-.512-1.264 3.044 1.872 6.038 2.949 7.583.795 1.075 1.826 2.294 2.385 3.509.328.796.422 1.64.751 2.481.748 2.059 1.449 4.353 2.434 6.273.514.983 1.074 2.014 1.729 2.899.378.518 1.031.749 1.172 1.594-.653.935-.704 2.339-1.078 3.51-1.684 5.289-1.029 11.841 1.358 15.725.747 1.17 2.527 3.745 4.915 2.76 2.105-.841 1.638-3.509 2.246-5.848.14-.565.046-.937.326-1.311v.095c.654 1.309 1.312 2.569 1.92 3.884 1.452 2.291 3.978 4.679 6.086 6.269 1.12.846 2.01 2.294 3.414 2.811v-.142h-.093c-.281-.42-.701-.608-1.076-.935-.843-.843-1.776-1.873-2.435-2.809-1.965-2.62-3.699-5.523-5.24-8.519-.751-1.454-1.404-3.044-2.014-4.494-.28-.559-.28-1.404-.749-1.684-.704 1.028-1.73 1.919-2.245 3.179-.89 2.015-.982 4.495-1.313 7.07l-.187.093c-1.496-.374-2.011-1.918-2.574-3.225-1.403-3.327-1.64-8.663-.421-12.5.326-.981 1.734-4.07 1.17-5.006-.282-.893-1.218-1.403-1.731-2.108-.607-.889-1.267-2.01-1.684-2.995-1.124-2.62-1.688-5.523-2.901-8.143-.563-1.219-1.547-2.483-2.34-3.604-.892-1.264-1.873-2.153-2.576-3.649-.232-.516-.561-1.359-.188-1.919.093-.375.282-.516.657-.611.605-.514 2.339.14 2.946.421 1.732.7 3.184 1.359 4.633 2.34.656.469 1.358 1.358 2.199 1.594h.984c1.497.325 3.184.091 4.589.514 2.479.795 4.725 1.965 6.738 3.229 6.129 3.885 11.185 9.409 14.6 16.007.563 1.075.799 2.059 1.313 3.18.983 2.298 2.201 4.638 3.182 6.882.982 2.2 1.921 4.444 3.326 6.272.7.981 3.51 1.496 4.773 2.012.934.42 2.387.795 3.229 1.309 1.592.981 3.18 2.106 4.68 3.185.749.562 3.09 1.731 3.231 2.669M114.858 11.573c-.794 0-1.354.095-1.919.235v.094h.092c.378.747 1.033 1.265 1.498 1.92l1.078 2.244.092-.094c.659-.466.986-1.215.986-2.34-.282-.329-.327-.654-.563-.983-.279-.467-.889-.701-1.264-1.076"/><path d="M167.059 103.954h.968v-4.746h-1.455l-1.186 3.235-1.29-3.235h-1.403v4.746h.916v-3.611h.053l1.351 3.611h.698l1.349-3.611v3.611zm-7.815 0h1.026v-3.94h1.345v-.806h-3.768v.806h1.396v3.94z"/></g></svg>