<svg version="1" xmlns="http://www.w3.org/2000/svg" width="186.385" height="50.16" viewBox="0 0 186.385 50.16"><g fill="#2D2D2D"><path fill-rule="evenodd" clip-rule="evenodd" d="M27.948 26.657c0-.542-.285-1.04-.753-1.309l-12.469-7.176c-.211-.124-.447-.188-.687-.198h-.129c-.238.01-.475.074-.688.198l-12.468 7.176c-.465.269-.754.767-.754 1.309l.027 19.322c0 .27.14.52.376.65.231.14.518.14.748 0l6.849-4.243c.469-.278.754-.77.754-1.307v-9.026c0-.538.285-1.037.752-1.304l3.717-1.817c.235-.137.492-.203.755-.203.257 0 .521.066.749.203l3.766 1.817c.467.267.753.766.753 1.304v9.026c0 .537.289 1.032.755 1.307l6.797 4.243c.232.14.522.14.753 0 .229-.131.374-.381.374-.65l.023-19.322zM94 .095c-.233-.13-.289-.127-.521.008-.229.135-.371.382-.371.649v19.135c0 .188-.329.362-.491.457-.163.094-.364.094-.3 0l-3.317-1.799c-.695-.269-1.269-.268-1.733 0l-12.474 7.199c-.466.269-.753.766-.753 1.304v14.4c0 .538.287 1.035.753 1.305l12.473 7.204c.467.27 1.041.27 1.507 0l12.476-7.204c.466-.27.753-.767.753-1.305v-35.895c0-.546-.295-1.049-.772-1.315l-7.23-4.143zm-1 36.623c0 .135-.425.259-.541.326l-4.283 2.468c-.116.067-.259.067-.375 0l-4.612-2.468c-.117-.067-.189-.191-.189-.326v-4.945c0-.135.072-.259.188-.326l4.612-2.474c.117-.067.26-.067.377 0l4.635 2.474c.116.067.188.191.188.325v4.946zM139.154 31.644c.465-.27.75-.766.75-1.303v-3.49c0-.537-.285-1.033-.75-1.303l-12.394-7.196c-.466-.271-1.042-.271-1.509-.002l-12.47 7.199c-.466.269-.753.766-.753 1.304v14.397c0 .541.291 1.041.761 1.309l12.392 7.061c.457.262 1.018.264 1.477.009l7.495-4.166c.238-.133.387-.382.388-.653.002-.271-.143-.522-.378-.658l-12.784-7.202c-.234-.134-.379-.384-.379-.653v-4.512c0-.269.144-.518.377-.652l4.142-2.252c.232-.134.52-.134.752 0l3.975 2.252c.233.135.755.384.755.652v3.55c0 .27.145.519.378.653s.389.133.622-.002l7.153-4.342zM50.269 18.058c.466-.269 1.04-.269 1.506 0l12.472 7.197c.466.269.753.766.753 1.305v14.406c0 .538-.287 1.035-.753 1.305l-12.472 7.203c-.466.27-1.041.27-1.507 0l-12.469-7.203c-.466-.27-.753-.767-.753-1.305v-14.406c0-.538.287-1.035.753-1.304l12.47-7.198z"/><path d="M163.228 49.896c-.43 0-.857-.112-1.233-.33l-3.927-2.323c-.586-.327-.3-.443-.106-.511.782-.271.94-.334 1.775-.808.087-.05.202-.03.292.021l3.017 1.791c.109.062.264.062.364 0l11.411-6.788c.109-.063.18-.188.18-.317v-13.573c0-.133-.07-.257-.183-.324l-11.406-6.782c-.108-.063-.253-.063-.362 0l-11.862 6.784c-.114.065-.187.193-.187.322v13.573c0 .13.072.252.186.313l3.331 1.862c1.748.873 2.483-.156 2.483-1.19v-13.4c0-.189.152-.339.342-.339h1.317c.187 0 .341.149.341.339v13.4c0 2.333-.762 3.671-2.974 3.671-.68 0-1.215 0-2.709-.735l-3.084-1.776c-.762-.439-1.233-1.264-1.233-2.145v-13.573c0-.882.472-1.705 1.233-2.144l11.761-6.796c.744-.421 1.733-.421 2.472 0l11.299 6.796c.762.44 1.235 1.262 1.235 2.144v13.573c0 .881-.474 1.701-1.235 2.145l-11.299 6.79c-.377.217-.804.33-1.239.33zM167.004 40.545c-5.146 0-6.004-2.362-6.004-4.343 0-.189.151-.34.34-.34h1.521c.17 0 .312.123.338.288.229 1.548.693 2.33 3.806 2.33 2.478 0 3.532-.561 3.532-1.875 0-.758-.299-1.32-4.149-1.698-3.218-.317-5.208-1.029-5.208-3.604 0-2.372 2-3.788 5.354-3.788 3.768 0 5.23 1.307 5.467 4.113.009.098-.025.19-.09.262-.064.067-.154.108-.249.108h-1.526c-.158 0-.298-.112-.33-.266-.366-1.628-.855-2.148-3.271-2.148-2.705 0-3.02.942-3.02 1.647 0 .855.371 1.104 4.023 1.588 3.614.479 5.331 1.154 5.331 3.695-.002 2.564-2.139 4.031-5.865 4.031zM183.221 18.15v.349h-.989v2.579h-.399v-2.579h-.986v-.349h2.374zM183.574 18.15h.568l.841 2.475.837-2.475h.564v2.928h-.379v-1.728l.003-.296.006-.446-.837 2.47h-.393l-.844-2.47v.088l.005.33.007.324v1.728h-.379v-2.928z"/><path fill-rule="evenodd" clip-rule="evenodd" d="M125.822 30.969c.09-.052.199-.052.289 0l2.744 1.381c.09.052.145.146.145.25v2.765c0 .103-.055.198-.145.25l-2.744 1.381c-.09.052-.199.052-.289 0l-2.678-1.381c-.09-.052-.145-.147-.145-.25v-2.765c0-.104.055-.198.145-.25l2.678-1.381z"/></g></svg>