<svg version="1" xmlns="http://www.w3.org/2000/svg" width="141" height="74.172" viewBox="0 0 141 74.172"><path fill="#2D2D2D" d="M70.5 0c-38.936 0-70.5 16.604-70.5 37.086s31.564 37.086 70.5 37.086 70.5-16.604 70.5-37.086-31.564-37.086-70.5-37.086zm0 71.418c-37.415 0-67.746-15.371-67.746-34.332s30.331-34.332 67.746-34.332 67.746 15.371 67.746 34.332-30.331 34.332-67.746 34.332z"/><g fill="#2D2D2D"><path d="M41.184 26.553c3.076 0 5.125.568 6.15 1.704 1.024 1.135 1.268 3.084.732 5.847-.56 2.876-1.638 4.93-3.235 6.16-1.598 1.23-4.029 1.845-7.293 1.845h-4.925l3.023-15.555h5.548zm-19.726 31.301h8.096l1.92-9.881h6.935c3.06 0 5.577-.32 7.553-.964 1.976-.642 3.772-1.72 5.389-3.233 1.357-1.247 2.455-2.623 3.295-4.127.84-1.503 1.437-3.162 1.789-4.977.856-4.406.21-7.837-1.938-10.295-2.147-2.458-5.564-3.688-10.248-3.688h-15.568l-7.223 37.165zM62.38 10.807h8.032l-1.92 9.881h7.156c4.502 0 7.608.786 9.317 2.356 1.709 1.571 2.221 4.116 1.538 7.634l-3.36 17.294h-8.16l3.195-16.444c.363-1.871.23-3.146-.401-3.827-.632-.681-1.976-1.021-4.03-1.021h-6.419l-4.138 21.292h-8.032l7.222-37.165zM104.374 26.553c3.076 0 5.126.568 6.151 1.704 1.024 1.135 1.268 3.084.732 5.847-.56 2.876-1.637 4.93-3.235 6.16-1.598 1.23-4.029 1.845-7.292 1.845h-4.925l3.023-15.555h5.546zm-19.726 31.301h8.096l1.92-9.881h6.935c3.06 0 5.577-.32 7.553-.964 1.976-.642 3.772-1.72 5.389-3.233 1.356-1.247 2.454-2.623 3.295-4.127.84-1.503 1.436-3.162 1.789-4.977.856-4.406.21-7.837-1.938-10.295-2.147-2.458-5.564-3.688-10.248-3.688h-15.567l-7.224 37.165z"/></g></svg>