<svg version="1" xmlns="http://www.w3.org/2000/svg" width="186" height="127" viewBox="0 0 186 127"><path fill="#fff" d="M70 102h50v24h-50z"/><path fill="#303030" d="M119 103v22h-48v-22h48m1-1h-50v24h50v-24z"/><path fill="#fff" d="M178 105.558c0 2.453-1.989 4.442-4.442 4.442h-158.116c-2.454 0-4.442-1.989-4.442-4.442v-101.116c0-2.453 1.988-4.442 4.442-4.442h158.116c2.453 0 4.442 1.989 4.442 4.442v101.116z"/><path fill="#303030" d="M173.558 1c1.898 0 3.442 1.544 3.442 3.442v101.116c0 1.898-1.544 3.442-3.442 3.442h-158.116c-1.898 0-3.442-1.544-3.442-3.442v-101.116c0-1.898 1.544-3.442 3.442-3.442h158.116m0-1h-158.116c-2.454 0-4.442 1.989-4.442 4.442v101.116c0 2.453 1.988 4.442 4.442 4.442h158.116c2.453 0 4.442-1.989 4.442-4.442v-101.116c0-2.453-1.989-4.442-4.442-4.442zM18 7.218h153v95.782h-153z"/><path fill="#fff" d="M55 122h79v5h-79z"/><path fill="#303030" d="M133 123v3h-77v-3h77m1-1h-79v5h79v-5z"/><path fill="#fff" d="M129.922 105.389l-42.922-101 .922-.389 42.922 101z"/><path fill="#303030" d="M181.559 25c1.897 0 3.441 1.544 3.441 3.441v94.117c0 1.898-1.544 3.442-3.441 3.442h-65.117c-1.897 0-3.441-1.544-3.441-3.442v-94.117c0-1.897 1.544-3.441 3.441-3.441h65.117m0-1h-65.117c-2.453 0-4.441 1.988-4.441 4.441v94.117c0 2.453 1.988 4.442 4.441 4.442h65.117c2.452 0 4.441-1.989 4.441-4.442v-94.117c0-2.453-1.989-4.441-4.441-4.441z"/><path fill="#fff" d="M181.559 25c1.897 0 3.441 1.544 3.441 3.441v94.117c0 1.898-1.544 3.442-3.441 3.442h-65.117c-1.897 0-3.441-1.544-3.441-3.442v-94.117c0-1.897 1.544-3.441 3.441-3.441h65.117"/><path fill="#303030" d="M117 32.203h64v81.618h-64z"/><circle fill="#fff" cx="149.3" cy="120.706" r="2.361"/><path fill="#303030" d="M149.3 119.345c.751 0 1.361.61 1.361 1.361s-.61 1.361-1.361 1.361c-.75 0-1.36-.61-1.36-1.361s.61-1.361 1.36-1.361m0-1c-1.304 0-2.36 1.057-2.36 2.361 0 1.303 1.057 2.361 2.36 2.361s2.361-1.058 2.361-2.361c0-1.304-1.057-2.361-2.361-2.361z"/><path fill="#fff" d="M134.468 30.806l35.004 82.998-.921.389-35.004-82.998z"/><path fill="#303030" d="M35.558 52h-31.116c-2.453 0-4.442 1.989-4.442 4.441v66.117c0 2.453 1.989 4.442 4.442 4.442h31.116c2.453 0 4.442-1.989 4.442-4.442v-66.117c0-2.452-1.989-4.441-4.442-4.441z"/><path fill="#fff" d="M35.558 53c1.898 0 3.442 1.544 3.442 3.441v66.117c0 1.898-1.544 3.442-3.442 3.442h-31.116c-1.898 0-3.442-1.544-3.442-3.442v-66.117c0-1.897 1.544-3.441 3.442-3.441h31.116"/><path fill="#303030" d="M4 59h32v55h-32zM19.933 119.9c.75 0 1.361.61 1.361 1.361s-.61 1.361-1.361 1.361c-.75 0-1.36-.61-1.36-1.361s.61-1.361 1.36-1.361m0-1c-1.303 0-2.36 1.057-2.36 2.361 0 1.303 1.057 2.361 2.36 2.361 1.304 0 2.361-1.058 2.361-2.361-.001-1.303-1.058-2.361-2.361-2.361z"/><path fill="#fff" d="M18.811 59h-1.086l18.275 43.337v-2.575l-17.189-40.762z"/></svg>