<svg version="1" xmlns="http://www.w3.org/2000/svg" width="186" height="46.385" viewBox="0 0 186 46.385"><path d="M46.384 23.19c0 12.81-10.384 23.195-23.193 23.195-12.808 0-23.191-10.385-23.191-23.195 0-12.808 10.383-23.19 23.191-23.19 12.809 0 23.193 10.382 23.193 23.19zm-13.052-13.9c-2.355.083-4.413 1.381-5.943 3.177-1.696 1.969-2.823 4.307-3.636 6.691-1.453-1.192-2.574-2.733-4.906-3.406-1.803-.518-3.695-.305-5.436.993-.825.616-1.393 1.547-1.663 2.422-.7 2.275.735 4.3 1.387 5.028l1.425 1.525c.294.3 1.001 1.081.656 2.201-.374 1.219-1.842 2.006-3.348 1.543-.672-.207-1.639-.709-1.422-1.412.089-.289.295-.506.407-.753.102-.215.149-.375.181-.47.275-.898-.101-2.067-1.062-2.364-.898-.274-1.815-.057-2.172 1.098-.404 1.314.225 3.694 3.589 4.733 3.942 1.213 7.277-.936 7.75-3.734.298-1.753-.495-3.057-1.945-4.732l-1.181-1.306c-.717-.716-.962-1.935-.222-2.871.625-.791 1.516-1.128 2.975-.732 2.129.577 3.078 2.055 4.661 3.247-.654 2.144-1.081 4.296-1.468 6.228l-.237 1.438c-1.132 5.937-1.996 9.196-4.241 11.069-.452.322-1.099.803-2.074.836-.511.018-.676-.336-.684-.488-.011-.357.292-.523.492-.684.3-.166.753-.436.723-1.305-.034-1.029-.885-1.92-2.114-1.877-.923.029-2.327.896-2.273 2.486.055 1.639 1.583 2.869 3.887 2.789 1.232-.041 3.984-.543 6.694-3.764 3.155-3.695 4.039-7.932 4.703-11.032l.741-4.092c.412.048.852.082 1.331.093 3.93.084 5.895-1.952 5.926-3.433.02-.896-.588-1.778-1.439-1.758-.608.018-1.373.422-1.556 1.264-.18.826 1.25 1.572.133 2.296-.794.515-2.218.876-4.222.583l.365-2.015c.743-3.82 1.661-8.519 5.142-8.633.254-.013 1.182.011 1.204.625.006.205-.044.258-.284.727-.245.365-.337.677-.326 1.035.035.975.776 1.616 1.849 1.578 1.436-.047 1.849-1.444 1.826-2.163-.06-1.691-1.839-2.757-4.193-2.681zm98.32 17.295c0 5.038 3.654 9.208 8.965 9.208 5.278 0 8.934-4.17 8.934-9.208 0-5.346-3.586-9.209-8.934-9.209-5.382-.001-8.965 3.863-8.965 9.209zm3.447 0c0-3.344 2.035-6.586 5.519-6.586 3.448 0 5.482 3.242 5.482 6.586 0 3.142-1.688 6.591-5.482 6.591-3.828 0-5.519-3.449-5.519-6.591zm-3.879-7.572v-1.224h-4.657v-1.672c0-2.38.346-4.176 3.138-4.176l.16.007.01-.009c.775.056 1.421-.575 1.465-1.349l.057-1.063c-.655-.104-1.347-.207-2.173-.207-4.794 0-6.04 2.794-6.04 7.071v1.396h-4v1.366c.106.708.713 1.254 1.452 1.254l.012.003h2.536v14.971h1.934c.743 0 1.35-.561 1.45-1.273v-13.696h3.243c.761-.025 1.376-.636 1.413-1.399zm-43.2-1.224l-.018.004c-.683 0-1.344.469-1.633 1.104l-4.461 13.45h-.07l-4.363-13.442c-.286-.639-.951-1.112-1.638-1.112l-.017-.004h-2.26l5.967 16.42c.208.588.623 1.484.623 1.861 0 .348-.966 4.346-3.866 4.346l-.214-.012c-.739-.041-1.297.475-1.421 1.271l-.089 1.123c.587.102 1.175.24 2.209.24 4.276 0 5.552-3.898 6.761-7.277l6.483-17.973h-1.993zm-20.612 3.574c-2.677-1.37-5.607-2.301-5.658-5.057.008-2.927 2.698-3.696 4.77-3.693l.023-.002c.901 0 1.62.09 2.323.244l.018-.011c.743.055 1.367-.526 1.454-1.259l.06-1.063c-1.359-.337-2.779-.51-4.016-.51-4.507.028-7.854 2.296-7.864 6.624.005 3.784 2.554 5.25 5.299 6.579 2.69 1.294 5.635 2.361 5.661 5.486-.015 3.258-3.159 4.457-5.326 4.463-1.267-.006-2.643-.32-3.802-.686-.726-.121-1.322.52-1.417 1.369l-.098.947c1.594.514 3.228.965 4.871.965h.018c5.05-.037 8.974-2.051 8.989-7.279-.006-4.036-2.574-5.73-5.305-7.117zm49.038 14.02h.004c.7 0 1.284-.492 1.431-1.148v-10.132c0-3.829-1.617-6.727-6.104-6.727-1.586 0-4.241.898-5.449 3.416-.93-2.38-2.966-3.416-4.998-3.416-2.589 0-4.349.931-5.589 2.967h-.069v-1.094c-.01-.806-.662-1.456-1.469-1.456l-.015-.004h-1.551v17.594h1.758c.813 0 1.471-.66 1.471-1.473l.015-.045v-7.349c0-3.275 1.31-6.517 4.619-6.517 2.62 0 3.141 2.724 3.141 4.897v10.486h1.7839999999999998c.769 0 1.387-.592 1.456-1.342v-7.525c0-3.275 1.312-6.517 4.622-6.517 2.621 0 3.139 2.724 3.139 4.897v10.486h1.804zm50.105 0h.004c.791 0 1.427-.625 1.465-1.408v-9.045c0-4.725-2.037-7.555-6.59-7.555-2.448 0-4.792 1.208-5.761 3.21h-.067v-1.314l-.003-.005c0-.816-.66-1.473-1.47-1.473l-.017-.004h-1.65v17.594h1.785c.771 0 1.397-.602 1.456-1.357v-6.785c0-4.276 1.657-7.242 5.348-7.242 2.831.171 3.724 2.17 3.724 6.276v9.108h1.776zm17.455-17.594l-.019.004c-.684 0-1.346.469-1.634 1.104l-4.459 13.45h-.073l-4.363-13.442c-.286-.639-.951-1.112-1.637-1.112l-.016-.004h-2.262l5.968 16.42c.206.588.624 1.484.624 1.861 0 .348-.968 4.346-3.867 4.346l-.214-.012c-.739-.041-1.296.475-1.423 1.271l-.087 1.123c.586.102 1.175.24 2.21.24 4.276 0 5.552-3.898 6.761-7.277l6.485-17.972h-1.994z"/></svg>