<svg version="1" xmlns="http://www.w3.org/2000/svg" width="156.567" height="70" viewBox="881.29 480.081 156.567 70" enable-background="new 881.29 480.081 156.567 70"><g fill="#2D2D2D"><path d="M1004.78 529.298c-1.387.584-2.786.877-4.199.877-2.229 0-4.233-.389-6.015-1.164-1.78-.776-3.282-1.845-4.506-3.207-1.223-1.362-2.16-2.963-2.813-4.801s-.979-3.82-.979-5.945c0-2.178.324-4.201.976-6.067.65-1.865 1.586-3.492 2.806-4.882 1.221-1.389 2.721-2.478 4.5-3.269 1.78-.79 3.784-1.185 6.015-1.185 1.495 0 2.941.225 4.342.675 1.399.451 2.663 1.113 3.791 1.986 1.129.873 2.06 1.95 2.793 3.229.734 1.28 1.184 2.748 1.347 4.406h-6.116c-.381-1.63-1.114-2.854-2.202-3.669-1.087-.815-2.406-1.223-3.954-1.223-1.441 0-2.665.279-3.67.837-1.006.559-1.821 1.308-2.447 2.247-.625.94-1.08 2.009-1.365 3.208-.286 1.198-.428 2.437-.428 3.717 0 1.226.143 2.417.429 3.575s.742 2.199 1.367 3.125c.626.926 1.442 1.668 2.449 2.227s2.232.837 3.676.837c2.122 0 3.761-.535 4.918-1.606 1.157-1.07 1.83-2.623 2.021-4.656h-6.442v-4.79h12.215v15.742h-4.064l-.65-3.303c-1.145 1.468-2.408 2.494-3.795 3.079zM1023.667 500.393v23.702h14.189v5.404h-20.575v-29.106h6.386zM993.465 533.117c-9.771 5.943-24.406 9.325-40.734 9.325-29.419 0-53.268-12.25-53.268-27.361 0-15.112 23.849-27.362 53.268-27.362 16.389 0 31.083 3.446 40.854 9.426-10.666-10.02-29.789-17.061-51.655-17.063-33.488-.005-60.638 15.661-60.641 34.99-.002 19.33 27.142 35.005 60.63 35.01 21.78.003 40.853-7.015 51.546-16.965z"/></g><g fill="#2D2D2D"><path d="M917.595 529.491h-4.444l-8.148-30.975h4.575l5.839 25.194h.088l7.015-25.194h4.618l7.03 25.194h.087l5.822-25.194h4.878l-8.435 30.975h-4.46l-7.146-25.669h-.087l-7.232 25.669zM961.119 523.085c-.118.979-1.068 3.881-3.682 5.605-.95.628-2.279 1.411-5.604 1.411-5.82 0-9.202-4.351-9.202-10.271 0-6.351 3.009-11.408 9.857-11.408 5.979 0 8.908 4.705 8.908 11.957h-15.044c0 4.273 1.956 6.743 5.955 6.743 3.286 0 5.209-2.51 5.328-4.038h3.484zm-3.326-5.449c-.198-3.175-1.499-6.116-5.78-6.116-3.207 0-5.661 2.94-5.661 6.116h11.441zM964.579 529.528v-28.147h3.484v10.231h.079c1.504-2.156 3.563-3.136 5.979-3.175 5.503 0 8.693 4.469 8.693 10.231 0 4.9-2.122 11.447-9.169 11.447-3.523 0-4.988-1.999-5.701-3.136h-.079v2.548h-3.286v.001zm8.908-17.994c-5.028 0-5.582 5.371-5.582 8.703 0 5.449 3.444 6.899 5.661 6.899 3.801 0 5.582-3.41 5.582-7.918 0-2.627-.276-7.684-5.661-7.684z"/></g></svg>