<svg version="1" xmlns="http://www.w3.org/2000/svg" width="136.632" height="132" viewBox="0 0 136.632 132"><path fill-rule="evenodd" clip-rule="evenodd" d="M136.632 58.474c0-16.946-13.738-30.684-30.685-30.684-2.621 0-5.166.331-7.595.949-1.004-16.039-14.323-28.739-30.616-28.739-16.202 0-29.463 12.562-30.596 28.476-2.082-.446-4.241-.687-6.456-.687-16.947.001-30.684 13.738-30.684 30.685 0 12.706 7.722 23.607 18.729 28.267-2.345 4.336-3.677 9.3-3.677 14.574 0 16.947 13.738 30.685 30.685 30.685 9.247 0 17.532-4.096 23.158-10.566 5.625 6.47 13.91 10.566 23.157 10.566 16.947 0 30.686-13.738 30.686-30.685 0-5.446-1.426-10.557-3.914-14.99 10.512-4.868 17.808-15.505 17.808-27.851zm-31.264 30.578c0 3.837-3.11 6.948-6.947 6.948h-22.607c-10.723 5.172-19.403 10.688-30.167 16.122-1.41.711-3.556 1.984-5.211 1.157-1.158-.579-.54-3.02.029-5.052.639-2.28 3.058-10.458 3.683-12.228h-5.938c-3.836 0-6.947-3.111-6.947-6.948v-42.156c0-3.837 3.111-6.947 6.947-6.947h60.211c3.837 0 6.947 3.11 6.947 6.947v42.157z"/></svg>