<svg xmlns="http://www.w3.org/2000/svg" width="1536" height="339.566" viewBox="0 0 1536 339.566" preserveAspectRatio="none"><path fill="#C24034" d="M1500.111 160.999h-137.35999999999999c-109.251 0-151.452 3.767-193.119 17.767-15.488 5.205-66.632 26.933-117.299 26.933h-188.983s-71.85-2.721-111.017 15.646c-22.261 10.438-27.333 9.655-57.667 15.989-35.889 7.494-111.149 4.961-146.652 14.109-15.771 4.064-37.595 10.549-53.601 13.557-47.413 8.909-116.17 5.933-151.413 16.038-18.358 5.264-45.217 8.818-63.455 14.482-32.74 10.168-102.992 10.772-137 15.101-18.308 2.33-72.212 10.745-72.212 10.745 4.703-.379 8.866-.824 12.28-1.346.634-.097 1.278-.188 1.917-.281-.64.115-1.281.229-1.917.348-15.54 2.903-82.613 6.48-82.613 6.48v13h1536v-197.567c0 4.016-8.667 18.999-35.889 18.999zm-1276.027 149.039l.278-.009-.278.009z"/></svg>