<svg xmlns="http://www.w3.org/2000/svg" width="1536" height="339.566" viewBox="0 0 1536 339.566" preserveAspectRatio="none"><path fill="#fa3" d="M1535.896 104.881c-.001-33.479-.002-103.316-.002-104.882 0 4.017-8.561 19-35.782 19h-139.26c-109.251 0-163.851 11-205.518 34.867-14.178 8.121-54.333 40.133-105 40.133h-153.983s-89.35-1-136.35 34c-19.719 14.685-51.955 36.722-75 45.295-34.362 12.783-103.483 4.961-138.987 14.109-15.771 4.064-37.83 22.583-53.601 26.646-35.503 9.148-116.169 13.844-151.412 23.949-18.358 5.264-48 28-68 38-21.011 10.506-57.934 14.182-91.863 21.615-14.092 3.088-23.296 6.618-24.938 7.27-5.755.577-11.045 1.15-15.653 1.737-18.308 2.33-72.212 14.745-72.212 14.745s-.583.479-1.337.609c-25.256 2.367-66.998 4.593-66.998 4.593v13h1536v-235.567c0 .252-.034.548-.104.881zm-.126.5l-.063.199.063-.199z"/></svg>