<svg xmlns="http://www.w3.org/2000/svg" width="1536" height="339.566" viewBox="0 0 1536 339.566" preserveAspectRatio="none"><path fill="#B3BF8C" d="M1500.218 212.104h-138.466c-38.329 0-112.459-2.024-162.751 6.896-14.578 2.586-66.5 16-101.455 16h-281.857c-45.689-.001-92.689 16.089-119.689 20.567-36.169 5.999-113.483 2.334-148.987 11.482-15.771 4.063-32.013 7.518-53.468 11.995-35.89 7.491-116.1 5.629-151.545 15-15.856 4.193-41.6 6.325-57.455 10.522-35.442 9.383-129.545 1.999-201.932 15.521-15.54 2.903-82.613 6.48-82.613 6.48v13h1536v-146.463c0 4.016-8.561 19-35.782 19z"/></svg>