<svg xmlns="http://www.w3.org/2000/svg" width="1536" height="339.566" viewBox="0 0 1536 339.566" preserveAspectRatio="none"><path fill="#F57F45" d="M1500.218 122.999h-139.367c-109.251 0-161.851 3-205.518 23.867-14.742 7.045-54.333 28.133-105 28.133h-153.983s-111.943-2.203-162.35 23c-14 7-29 12-58 18-39.427 8.157-94.483 5.852-129.987 15l-53.601 14.051c-35.503 9.148-116.169 5.844-151.412 15.949-18.358 5.264-45.217 21.857-63.455 27.521-32.74 10.168-102.992 13.772-137 18.101-18.308 2.33-72.212 14.745-72.212 14.745l8.446-1.002c-4.008.621-6.446 1.002-6.446 1.002 4.703-.379 8.866-.824 12.28-1.346.634-.097 1.278-.188 1.917-.281-.64.115-1.281.229-1.917.348-15.54 2.903-82.613 6.48-82.613 6.48v13h1536v-235.567c0 4.016-8.561 18.999-35.782 18.999zm-1423.039 197.304l1.498-.231-1.498.231z"/></svg>