<svg xmlns="http://www.w3.org/2000/svg" width="56" height="56" viewBox="0 0 56 56"><path fill="#ADADAD" d="M40.15 24.306c-1.249 0-2.425.308-3.465.844l-2.004-2.722c-.215-.309-.573-.445-.924-.408l-.1-.02h-.58l.81-1.72c.042-.091.054-.186.067-.28h2.014c.553 0 1-.448 1-1s-.447-1-1-1h-6.968c-.553 0-1 .448-1 1s.447 1 1 1h2.81l-.942 2h-10.292l-.122-.172-.016-.015 2.05-4.422 3.754-1.391c.536-.134.861-.677.728-1.213-.134-.536-.676-.861-1.213-.728l-4.249 1.575-.046.022-.19.091-.152.092-.122.135-.123.168-.031.042-3.919 8.453c-.79-.279-1.636-.439-2.521-.439-4.188 0-7.596 3.408-7.596 7.596s3.407 7.596 7.596 7.596 7.596-3.407 7.596-7.595c0-2.59-1.305-4.879-3.291-6.251l.763-1.646 6.169 8.673.052.046c.07.086.152.155.246.215l.098.065c.13.062.272.103.425.103h6.182c.534 3.669 3.692 6.498 7.507 6.498 4.188 0 7.597-3.407 7.597-7.596s-3.409-7.596-7.598-7.596zm-20.15 7.489c0 3.086-2.51 5.596-5.596 5.596-3.085 0-5.596-2.51-5.596-5.596s2.51-5.596 5.596-5.596c.584 0 1.148.091 1.678.258l-2.153 4.644c-.232.501-.015 1.096.487 1.328.136.063.279.093.42.093.377 0 .739-.215.908-.579l2.108-4.547c1.305 1.025 2.148 2.614 2.148 4.399zm13.356-7.795l1.688 2.294c-1.315 1.199-2.21 2.848-2.432 4.706h-3.772l3.296-7h1.22zm2.879 3.911l2.274 3.089h-3.874c.195-1.2.768-2.273 1.6-3.089zm-6.309-3.911l-3.157 6.706-4.77-6.706h7.927zm10.224 13.498c-2.71 0-4.975-1.937-5.486-4.498h5.684l.076-.016.063.016c.197 0 .396-.059.571-.18.452-.316.563-.939.248-1.393l-3.416-4.641c.691-.307 1.455-.481 2.26-.481 3.086 0 5.597 2.51 5.597 5.596s-2.511 5.597-5.597 5.597zM28 56c-15.439 0-28-12.561-28-28s12.561-28 28-28 28 12.561 28 28-12.561 28-28 28zm0-55.018c-14.897 0-27.018 12.121-27.018 27.018s12.121 27.018 27.018 27.018 27.018-12.121 27.018-27.018-12.121-27.018-27.018-27.018z"/></svg>