<svg xmlns="http://www.w3.org/2000/svg" width="56" height="56" viewBox="-1.5 0.5 56 56" enable-background="new -1.5 0.5 56 56"><path fill="#ADADAD" d="M32.404 19.275c-1.559-2.432-3.342-2.818-5.04-2.458.155-.416.252-.86.252-1.329 0-.379-.041-.739-.146-1.086 3.924-1.747 5.878-4.995 5.425-8.296-.053-.385-.449-.654-.819-.598-.382.053-.651.406-.599.788.373 2.695-1.269 5.372-4.675 6.863-.7-.9-1.779-1.491-3.006-1.491-2.106 0-3.821 1.715-3.821 3.822 0 1.622 1.021 3.003 2.448 3.556-.567.252-1.101.425-1.573.425-4.174 0-5.678-2.606-5.735-2.683-.179-.245-.495-.349-.783-.251-.288.094-.483.362-.483.665 0 2.443.606 4.924 1.803 6.007.19.171.385.289.58.408-1.633 1.008-2.732 2.799-2.732 4.853 0 1.117.457 1.795.839 2.17.479.465 1.14.734 1.813.734.417 0 .791-.104 1.113-.273l2.253 13.704c.06.335.351.578.689.578h2.785c.108.067.229.116.365.116l.072-.004c.113-.012.212-.056.302-.112h5.791c.088.058.188.101.301.112l.072.004c.136 0 .256-.049.365-.116h3.014c.339 0 .63-.243.688-.578l2.465-14.896c.5.451 1.154.697 1.799.697.744 0 1.431-.303 1.927-.856.536-.599.821-1.456.821-2.479 0-3.852-2.947-7.739-8.57-7.996zm-17.34-.488c1.075.672 3.136 1.713 5.785 1.713 1.246 0 2.492-.31 3.813-1.028 2.602-1.416 4.386-2.142 6.054-.136-2.211.332-3.904 1.596-5.186 2.56-.55.412-1.024.77-1.356.904-.761.308-1.836.2-2.975.082-.644-.065-1.312-.134-1.982-.134-.314 0-.615.043-.913.092-.229.001-1.01-.04-1.712-.675-.625-.562-1.342-2.177-1.528-3.378zm5.729 24.713l-2.16-13h2.677l1.261 13h-1.778zm3.184 0l-1.26-13h3.207v13h-1.947zm5.296 0h-1.948v-13h3.209l-1.261 13zm3.414 0h-2.008l1.26-13h2.91l-2.162 13zm6.424-14.687c-.641.713-2.161.723-2.161-.613 0-.386-.313-.7-.7-.7h-18.843c-.207 0-.403.092-.536.251-.133.158-.189.368-.153.571l.224.954v.006c0 .656-.658.689-.79.689-.465 0-1.252-.318-1.252-1.505 0-2.079 1.478-3.819 3.438-4.227l.176-.007.062-.021c.21-.032.421-.063.641-.063.598 0 1.229.063 1.84.127 1.315.135 2.559.263 3.644-.178.5-.205 1.044-.612 1.672-1.082 1.329-.998 3.15-2.615 5.446-2.615 4.567 0 7.757 2.972 7.757 6.869-.001.673-.162 1.207-.465 1.544zM26.5 56.5c-15.439 0-28-12.561-28-28s12.561-28 28-28 28 12.561 28 28-12.561 28-28 28zm0-55.018c-14.897 0-27.018 12.12-27.018 27.018s12.12 27.018 27.018 27.018c14.898 0 27.018-12.12 27.018-27.018s-12.12-27.018-27.018-27.018z"/></svg>