<svg xmlns="http://www.w3.org/2000/svg" width="56" height="56" viewBox="-1.5 0.5 56 56" enable-background="new -1.5 0.5 56 56"><g fill="#ADADAD"><path d="M26.298 11.2c-9.277 0-16.798 7.522-16.798 16.8 0 9.277 7.521 16.8 16.799 16.8 9.279 0 16.799-7.521 16.799-16.8-.001-9.279-7.52-16.8-16.8-16.8zm0 31.616c-8.169 0-14.814-6.646-14.814-14.816s6.646-14.815 14.814-14.815 14.816 6.646 14.816 14.816c.001 8.171-6.648 14.815-14.816 14.815zM30.839 21.312l-5.144 9.188h-6.71l1.3-3h4.053l1.287-2h-8.933l-1.298 2h2.436l-2.573 5h11.552l4.077-7.34 1.489 3.093-.776.016-1.312 1.231h3.365l1.262 3h2.425zM28.209 21.5h-8.953l-1.282 2h8.924z"/></g><path fill="#ADADAD" d="M26.499.5c-15.438 0-28 12.561-28 28s12.561 28 28 28c15.44 0 28-12.561 28-28 .001-15.439-12.56-28-28-28zm0 55.018c-14.897 0-27.017-12.12-27.017-27.018s12.12-27.018 27.017-27.018c14.899 0 27.018 12.12 27.018 27.018s-12.119 27.018-27.018 27.018z"/></svg>