<svg xmlns="http://www.w3.org/2000/svg" width="56" height="56" viewBox="-1.5 0.5 56 56" enable-background="new -1.5 0.5 56 56"><path fill="#ADADAD" d="M24.564 43.5h4.87v1h-4.934l.064-1zm2.374 5.986v.014l-.178-.007-.173.007v-.013c-5.349-.134-9.247-3.156-9.968-7.589-.65-4.018 1.485-6.264 2.793-7.474.24-.222.452-.413.601-.584.637-.729.42-1.374-.416-3.185-.136-.293-.278-.602-.42-.928-1.824-4.179-1.117-8.559.094-10.111.607-.78 1.256-.806 1.59-.748 1.027.171 1.426 1.383 1.93 2.917.444 1.35 1.052 3.198 2.01 3.55.211.076.458.082.737.018v-12.853h-1.038v-1h1.039v-1h-1.039v-1h1.039v-1h-1.039v-1h1.039v-1.9h2.798v2.9h1.097v1h-1.097v1h1.097v1h-1.097v15.335c.299.09.568.109.792.045.707-.201 1.195-1.194 1.59-1.992.389-.791.725-1.174 1.4-1.334.348-.081.703.004 1.008.238 1.592 1.217 1.531 3.441-.148 6.135-1.18 1.885-1.184 2.83-.018 4.053l.674.691c1.76 1.795 3.582 3.653 3.582 7.094 0 4.23-4.584 7.585-10.279 7.721zm8.621-7.72c0-1.914-.666-3.172-1.648-4.354.439 1.703.076 3.166-1.461 3.002-1.135-.121-.414-1.258-3.324-2.614-2.908-1.356-4.375.382-4.9-.712-1.05-2.188 1.868-3.525.438-5.238-1.634-1.955-3.146-4.089-2.159-4.726.711-.458.364.499 3.034.793v-.901c-.458.055-.898.023-1.309-.126-1.71-.629-2.431-2.823-3.011-4.586-.191-.585-.472-1.436-.682-1.756-.511.543-1.635 4.404.16 8.519l.405.896c.801 1.733 1.559 3.371.16 4.97-.181.203-.433.441-.724.711-1.231 1.137-3.091 2.853-2.582 5.986.598 3.682 4.235 6.254 8.866 6.299 4.837-.087 8.737-2.816 8.737-6.163zM26.499 56.5c-15.438 0-28-12.561-28-28s12.561-28 28-28c15.44 0 28 12.561 28 28 .001 15.439-12.56 28-28 28zm0-55.018c-14.897 0-27.017 12.12-27.017 27.018s12.12 27.018 27.017 27.018c14.899 0 27.018-12.12 27.018-27.018s-12.119-27.018-27.018-27.018z"/></svg>