<svg xmlns="http://www.w3.org/2000/svg" width="56" height="56" viewBox="0.5 0.5 56 56" enable-background="new 0.5 0.5 56 56"><g fill="#ADADAD"><path d="M43.402 15.162c1.092-1.09 1.09-2.752 0-3.844-1.093-1.091-2.867-1.091-3.96 0-.321.321-3.176 3.833-2.86 5.713l-2.135 2.235-7.333-7.333-2.871 2.769 15.288 15.798 2.869-2.772-6.963-7.472 2.135-2.234c1.879.315 5.51-2.538 5.83-2.86zm-3.098-2.842c.546-.547 1.436-.547 1.98 0 .545.545.545 1.432 0 1.979-.836.836-3.64 2.506-4.48 2.5-.008-.843 1.664-3.645 2.5-4.479zM8.403 30.54l7.424 7.427-5.048 5.148 5.739-4.459 7.982 7.815 2.971-2.971-16.098-15.929zM35.128 29.551l-9.898-9.901.99-.99 9.898 9.901zM33.152 31.529l-9.899-9.9.989-1.03 9.901 9.901zM31.175 33.512l-9.901-9.898.99-.99 9.901 9.898zM29.193 35.491l-9.902-9.902.989-.989 9.902 9.902zM27.215 37.469l-9.902-9.899.99-.99 9.902 9.899zM16.321 28.564l10.169 9.936-.99.988-10.169-9.935z"/></g><path fill="#ADADAD" d="M28.5 56.5c-15.439 0-28-12.561-28-28s12.561-28 28-28c6.93 0 13.279 2.531 18.174 6.717 6.01 5.139 9.826 12.774 9.826 21.283 0 15.439-12.561 28-28 28zm0-55.018c-14.897 0-27.018 12.12-27.018 27.018s12.12 27.018 27.018 27.018c14.898 0 27.018-12.12 27.018-27.018s-12.12-27.018-27.018-27.018z"/></svg>