<svg xmlns="http://www.w3.org/2000/svg" width="56.004" height="56" viewBox="-0.5 0.5 56.004 56" enable-background="new -0.5 0.5 56.004 56"><path fill="#ADADAD" d="M28.003 43.4c-.254 0-.508-.1-.702-.293-.527-.525-12.801-12.966-12.801-19.599 0-4.021 3.181-7.008 7.202-7.008 2.684 0 5.034 1.174 6.3 3.338 1.266-2.164 3.617-3.338 6.301-3.338 4.021 0 7.197 2.986 7.197 7.008 0 6.633-12.271 19.074-12.797 19.6-.192.195-.447.292-.7.292zm-6.3-25.201c-2.925 0-5.309 2.381-5.309 5.309 0 4.528 7.811 13.551 11.609 17.482 3.796-3.932 11.606-12.955 11.606-17.482 0-2.926-2.381-5.309-5.307-5.309-2.928 0-5.309 2.374-5.309 5.301v.554c0 .549-.445.993-.992.993-.548 0-.991-.444-.991-.993v-.554c.003-2.928-2.382-5.301-5.307-5.301zM27.498 56.5c-15.438 0-27.998-12.561-27.998-28s12.56-28 27.998-28c6.93 0 13.282 2.531 18.177 6.717 6.01 5.139 9.825 12.774 9.825 21.283 0 15.439-12.56 28-28.002 28zm0-55.018c-14.896 0-27.016 12.12-27.016 27.018 0 14.896 12.119 27.018 27.016 27.018 14.901 0 27.02-12.121 27.02-27.018-.001-14.897-12.119-27.018-27.02-27.018z"/></svg>