<svg xmlns="http://www.w3.org/2000/svg" width="17" height="48" viewBox="3 0 17 48" enable-background="new 3 0 17 48"><path fill="#fafafa" d="M3 0v48h17v-48h-17zm8.498 0c2.209 0 4 1.791 4 4s-1.791 4-4 4-3.998-1.791-3.998-4c0-2.21 1.789-4 3.998-4zm7.132 26.698c-.844.094-1.607-.516-1.7-1.361-.01-.104-.93-12.594-.93-12.594v33.411c0 1.02-.977 1.846-2.001 1.846-1.02 0-1.999-.826-1.999-1.844v-17.156h-1v17.153c0 1.021-.98 1.847-2 1.847-1.022 0-2-.826-2-1.847v-33.41c-.029.049-.921 12.575-.937 12.682-.116.842-.895 1.43-1.735 1.315-.842-.12-1.43-.896-1.313-1.74.015-.104 1.458-13.285 1.458-13.285.215-1.506.713-2.715 2.623-2.715h9.141c1.913 0 2.429 1.021 2.626 2.5 0 0 1.113 13.392 1.128 13.5.093.846-.516 1.603-1.361 1.698z"/></svg>