<svg xmlns="http://www.w3.org/2000/svg" width="56" height="56" viewBox="0.5 0.5 56 56" enable-background="new 0.5 0.5 56 56"><path fill="#ADADAD" d="M11.5 14.52c2.779.074 4.522-.223 5.853 1.08 3.024 2.959.76 10.909 2.778 15.175 1.144 2.416 6.574 3.236 6.574 3.236v-16.054c0-2.393-4.146-2.83-4.146-2.83v-.627h12.941v.495s-4 .402-4 2.964v16.053s5.511-.646 6.719-3.104c2.111-4.297-.875-12.554 2.218-15.309 1.285-1.146 4.106-1.164 6.063-.945v.473c-1.319 0-1.877.178-2.283.466-1.376.977-.223 7.077-.325 8.97-.167 2.997-.983 6.496-3.239 8.234-2.304 1.777-9.152 2.564-9.152 2.564s-.1 4.246-.1 5.715c0 3.222 4.1 2.857 4.1 2.857v.567h-13l.111-.564s4.093.301 4.093-2.856v-5.578s-6.71-.933-9.003-2.701c-2.24-1.729-3.051-5.198-3.24-8.234-.225-3.59 1.282-9.901-2.96-9.375v-.672zM28.498 56.5c-15.438 0-27.998-12.561-27.998-28s12.56-28 27.998-28c6.93 0 13.283 2.531 18.178 6.717 6.009 5.139 9.824 12.774 9.824 21.283 0 15.439-12.559 28-28.002 28zm0-55.018c-14.896 0-27.016 12.12-27.016 27.018 0 14.896 12.119 27.018 27.016 27.018 14.902 0 27.02-12.121 27.02-27.018-.001-14.897-12.118-27.018-27.02-27.018z"/></svg>