<svg xmlns="http://www.w3.org/2000/svg" width="56" height="56" viewBox="0.5 0.5 56 56" enable-background="new 0.5 0.5 56 56"><path fill="#ADADAD" d="M28.498 56.5c-15.437 0-27.998-12.562-27.998-28 0-15.439 12.56-28 27.998-28 6.93 0 13.283 2.531 18.178 6.717 6.01 5.139 9.824 12.774 9.824 21.283 0 15.439-12.559 28-28.002 28zm0-55.018c-14.896 0-27.016 12.12-27.016 27.018 0 14.898 12.12 27.018 27.016 27.018 14.902 0 27.02-12.121 27.02-27.018s-12.118-27.018-27.02-27.018zM38.758 26.998l-5.252 6.234-.004-.007-1.189 1.41-.296-.162 1.309-1.554-10.092-17.476-12.735 22.057h36.001l-7.742-10.502zm-13.878-3.333l-1.893 1.156-.925-1.74-3.202 2.343 4.384-7.08 4.76 7.93-3.124-2.609z"/></svg>