<svg xmlns="http://www.w3.org/2000/svg" width="17" height="48" viewBox="2 0.5 17 48" enable-background="new 2 0.5 17 48"><path fill="#fafafa" d="M2 .5l.001 48h16.999l-.001-48h-16.999zm8.499 0c2.212 0 3.999 1.791 3.999 4s-1.789 4-3.999 4c-2.21.001-3.999-1.792-3.999-4s1.788-4 3.999-4zm7.438 22.792c-.789.238-1.626-.208-1.866-.999l-.059-.295-.026.01-3.092-9.509 4.755 18.001h-2.649v16.265c0 .959-.924 1.735-1.883 1.735-.957 0-1.894-.776-1.894-1.735v-16.265h-1.223v16.205c0 .991-.826 1.795-1.814 1.795-.992 0-1.962-.804-1.962-1.795v-16.205h-2.883l4.759-18-3.088 9.508-.028-.008-.059.295c-.239.791-1.075 1.241-1.865.998-.791-.243-1.237-1.074-.996-1.865l.116-.277-.029-.01 3.218-9.959c.502-1.377.693-1.682 2.547-1.682h5.154c1.862 0 2.047.513 2.553 1.888l3.223 9.751-.029.01.12.277c.237.79-.209 1.624-1 1.866z"/></svg>