<svg xmlns="http://www.w3.org/2000/svg" width="56" height="56" viewBox="0.5 0.5 56 56" enable-background="new 0.5 0.5 56 56"><path fill="#ADADAD" d="M28.497 56.5c-15.437 0-27.997-12.562-27.997-28 0-15.439 12.56-28 27.998-28 6.93 0 13.284 2.531 18.178 6.717 6.009 5.139 9.824 12.774 9.824 21.283 0 15.439-12.559 28-28.003 28zm0-55.018c-14.896 0-27.015 12.12-27.015 27.018 0 14.898 12.12 27.018 27.015 27.018 14.903 0 27.02-12.121 27.02-27.018s-12.117-27.018-27.02-27.018z"/><g fill="#ADADAD"><path d="M41.826 32.378s-9.673-9.828-9.994-9.878h-6.984c-.215.078-9.703 9.878-9.703 9.878-.621.619-.621 1.625-.002 2.244.31.313.717.465 1.123.465.407 0 .814-.152 1.124-.465l8.111-8.457v9.787l-5.345-1.506c-.857-.181-1.701.373-1.879 1.23-.176.857.375 1.698 1.234 1.876l3.601.88-1.79.504c-.858.178-1.21.721-1.032 1.576.179.859.818 1.112 1.677.934l6.742-1.646 6.742 1.646c.858.179 1.498-.074 1.677-.934.178-.855-.174-1.398-1.032-1.576l-1.79-.504 3.601-.88c.859-.178 1.41-1.019 1.234-1.876-.178-.857-1.021-1.411-1.879-1.23l-5.762 1.623v-10.196l8.082 8.75c.309.313.717.465 1.121.465.406 0 .813-.152 1.123-.463.619-.62.619-1.628 0-2.247zM28.701 20.574c1.932 0 3.498-1.568 3.498-3.5 0-1.933-1.568-3.5-3.498-3.5-1.936 0-3.505 1.567-3.502 3.5-.001 1.931 1.567 3.5 3.502 3.5z"/></g></svg>