<?xml version="1.0" encoding="utf-8"?>
<!-- Generator: Adobe Illustrator 16.0.3, SVG Export Plug-In . SVG Version: 6.00 Build 0)  -->
<!DOCTYPE svg PUBLIC "-//W3C//DTD SVG 1.1//EN" "http://www.w3.org/Graphics/SVG/1.1/DTD/svg11.dtd">
<svg version="1.1" id="Layer_1" xmlns="http://www.w3.org/2000/svg" xmlns:xlink="http://www.w3.org/1999/xlink" x="0px" y="0px"
	 width="50px" height="74px" viewBox="0 0 50 74" enable-background="new 0 0 50 74" xml:space="preserve">
<path fill-rule="evenodd" clip-rule="evenodd" fill="#FFFFFF" d="M44.5,34.714c-1.32,0-2.552,0.483-3.512,1.29
	c-0.183-2.869-2.574-5.147-5.488-5.147c-1.606,0-3.055,0.693-4.062,1.795c-0.896-1.823-2.773-3.081-4.938-3.081
	c-1.329,0-2.548,0.473-3.5,1.26V13.857c0-3.387-2.756-6.143-6.144-6.143c-3.33,0-5.841,2.641-5.841,6.143v25.042L1.714,47.92
	c-0.03,0.029-0.059,0.062-0.085,0.095C-0.227,50.342,1,54,2.429,55.68l10.323,15.275c0.007,0.011,0.022-0.148,0.041-0.416
	C14.386,72.637,16.898,74,19.729,74h21.556C46.091,74,50,70.091,50,65.286V40.214C50,37.182,47.532,34.714,44.5,34.714z
	 M11.016,64.813c0,0-7.275-10.64-7.305-10.659C3,53,2.003,50.805,3.155,49.309l7.86-7.623V64.813z M48,65.286
	C48,68.988,44.987,72,41.285,72H19.729C16.027,72,13,68.988,13,65.286V13.857c0-2.362,1.651-4.143,3.841-4.143
	c2.285,0,4.159,1.858,4.159,4.143v20.572v0.643V43h2v-7.929c0-1.93,1.57-3.5,3.5-3.5s3.5,1.57,3.5,3.5v1.286
	c0,0.025,0.013,0.047,0.015,0.071H30V45h2v-8.571h-0.015C31.987,36.404,32,36.383,32,36.357c0-1.93,1.57-3.5,3.5-3.5
	s3.5,1.57,3.5,3.5v1.071v2.143V46h2v-6.123c0.018-0.055,0.046-0.104,0.055-0.163c0.246-1.71,1.728-3,3.445-3
	c1.93,0,3.5,1.57,3.5,3.5V65.286z M8.166,22.872C5.297,20.299,4,16.832,4,13C4,5.531,9.388,0,16.856,0C24.326,0,30,6.077,30,13.546
	c0,3.831-1.646,6.753-4.515,9.326C25.39,22.958,25.271,23,25.151,23c-0.137,0-0.273-0.056-0.372-0.166
	c-0.185-0.206-0.167-0.522,0.038-0.706C27.476,19.744,29,17.093,29,13.546C29,6.628,23.774,1,16.856,1C9.939,1,5,6.082,5,13
	c0,3.548,1.176,6.744,3.834,9.127c0.206,0.184,0.223,0.5,0.038,0.706C8.688,23.04,8.372,23.057,8.166,22.872z"/>
</svg>
