<svg version="1" xmlns="http://www.w3.org/2000/svg" width="217" height="56" viewBox="0 0 217 56"><path d="M169.466 41.782h-6.192l-9.29-10.152v10.152h-4.984v-26.118l4.983-2.41v15.859l7.339-8.196h6.24l-8.542 9.527 10.446 11.338zm-34.14-.416c-10.047 0-9.314-10.917-9.314-10.917v-7.401l4.928-2.302v10.229s-.294 5.83 4.285 5.83c4.58 0 4.32-5.83 4.32-5.83v-7.927l5.099-2.302v9.703s.729 10.917-9.318 10.917m-23.019 0c-6.783 0-10.99-4.169-11.081-11.137v-14.565l4.854-2.331v17.554c-.009 1.769.615 3.197 1.646 4.281 1.036 1.087 2.337 1.638 3.906 1.638 1.521 0 2.802-.555 3.844-1.664 1.042-1.108 1.558-2.517 1.558-4.235 0-1.699-.373-3.425-1.397-4.513-1.02-1.089-2.903-1.909-5.065-.977l-3.07-3.698c.154-.079 1.291-.593 1.452-.65 1.126-.4 2.307-.582 3.498-.582 2.59 0 4.795.985 6.608 2.939 1.812 1.962 2.714 4.473 2.714 7.539 0 2.96-.934 5.43-2.81 7.416-1.875 1.988-4.092 2.985-6.657 2.985m-20.324.416v-10.743c-.042-1.479-.206-2.587-.49-3.339-.33-.884-.842-1.577-1.514-2.068-.55-.404-1.153-.531-1.812-.533-.674 0-1.281.122-1.831.521-.68.485-1.177 1.156-1.507 2.016-.331.859-.494 2.239-.494 4.137v10.009h-5.0920000000000005v-10.009c0-1.898-.163-3.278-.494-4.137-.331-.86-.83-1.531-1.508-2.016-.549-.399-1.157-.521-1.832-.521-.658.002-1.26.129-1.811.533-.672.491-1.184 1.184-1.514 2.068-.283.749-.445 1.854-.493 3.326v10.756h-5.0120000000000005v-20.865000000000002l3.092 1.317c.152-.112.308-.222.475-.324 3.758-2.312 8.571-2.09 11.643.353 3.017-2.403 7.947-2.625 11.643-.353 2.384 1.466 3.555 4.216 3.555 7.375l.013.018v12.479000000000001h-5.017zm-35.945-3.106c-.974.929-1.952 1.588-2.927 1.998-.985.405-2.046.613-3.19.613-2.566 0-4.783-.998-6.657-2.987-1.876-1.986-2.811-4.457-2.811-7.417 0-3.063.902-5.577 2.715-7.538 1.814-1.955 4.018-2.939 6.61-2.939 1.191 0 2.309.231 3.356.679 1.046.449 2.011 1.129 2.904 2.023v-2.191h4.962v20.865l-4.706-3.289-.256.183zm-1.315-12.06c-1.035-1.073-2.342-1.606-3.925-1.606-1.544 0-2.827.543-3.849 1.631-1.023 1.089-1.532 2.486-1.532 4.186 0 1.718.517 3.126 1.559 4.234 1.038 1.109 2.323 1.665 3.841 1.665 1.57 0 2.871-.549 3.906-1.639 1.033-1.084 1.551-2.512 1.551-4.28 0-1.726-.518-3.126-1.551-4.191m-27.643 14.75c-6.782 0-10.989-4.169-11.08-11.137v-14.565l4.854-2.331v17.554c-.009 1.769.616 3.197 1.646 4.281 1.036 1.087 2.337 1.638 3.906 1.638 1.521 0 2.802-.555 3.844-1.664 1.041-1.108 1.558-2.517 1.558-4.235 0-1.699-.374-3.425-1.397-4.513-1.02-1.089-2.903-1.909-5.066-.977l-3.071-3.698c.155-.079 1.291-.593 1.452-.65 1.127-.4 2.307-.582 3.499-.582 2.589 0 4.795.985 6.608 2.939 1.811 1.962 2.714 4.473 2.714 7.539 0 2.96-.934 5.43-2.809 7.416-1.876 1.988-4.093 2.985-6.658 2.985" fill-rule="evenodd" clip-rule="evenodd" fill="#fff"/><path d="M207.778 12.795c-4.658-.699-9.2-1.351-13.852-.372-.765.611-1.669 1.205-2.471 1.023-5.78-1.319-8.102-2.463-14.441-.875l-.534-2.011c4.868-2.065 9.03-7.043 14.854-8.561 3.045-.632 1.596-.585 3.396-1.809-.406-.848-1.715-.137-2.501.02-5.556.604-12.759 3.573-16.487 7.138l-7.685 9.41h8.013l-.01 1.979-10.082 10.962 11.276 12.083h3.521s-.934-3.848-.714-4.1c1.001.526 1.189-.357 3.002 1.749 4.139 1.515 2.268 4.129 6.963 7.904 1.93.832 1.977 2.77 2.759 2.562.922-6.075-9.814-16.33-10.632-17.617 4.08-.255 9.567 4.789 12.375 7.804.401.928.983 2.086 1.304 2.517 1.46.283 1.511 1.793 2.72 2.35-1.82-7.384-3.768-14.382-6.836-21.314-.047-.272-.092-.544-.157-.785 4.895 4.076 10.945 5.029 15.67 7.341 2.097 1.025 2.817 1.8 3.333 1.612.314-.858-2.197-2.233-2.761-2.703-1.244-1.659-2.461-2.788-3.872-4.299-3.506-3.372-10.188-6.253-12.252-7.72.108-.081.223-.137.338-.194 6.729-1.036 13.624-1.325 20.414-2.253.643-.116 1.157-.162 1.572-.599-2.023-.495-4.162-.493-6.223-1.242m-22.068 15.275c-2.404.362-4.839-1.32-7.401-1.501-.564-.547.003-.988.418-1.213 1.652.898 7.224-.148 6.983 2.714m3.189-9.966c-1.498-.228-2.657 4.89-3.642 4.622-.586-1.476 2.079-4.217 1.553-4.81-1.467-.851-3.917 1.32-5.572 1.218-.548-.417-2.504-2.099-2.932-1.985-.118-.149-.234-.3-.37-.418 3.367-.561 7.116-.163 10.556-.251.832.116.569 1.044.407 1.624" opacity=".2" fill="#fff"/></svg>