<svg xmlns="http://www.w3.org/2000/svg" width="34" height="45" viewBox="0 0 34 45"><path fill-rule="evenodd" clip-rule="evenodd" fill="#8BB22B" d="M33.059 14.517c-1.005-8.913-9.045-15.326-17.959-14.321s-15.326 9.046-14.321 17.959c.337 2.994 1.482 5.694 3.174 7.938l11.369 17.866c.369.62 1.039 1.041 1.813 1.041.726 0 1.366-.366 1.746-.923.014-.014 12.02-19.445 11.989-19.458 1.748-2.939 2.602-6.442 2.189-10.102zm-15.361 8.728c-3.816.431-7.259-2.314-7.688-6.13-.431-3.816 2.314-7.259 6.13-7.688 3.816-.43 7.259 2.314 7.688 6.131.43 3.815-2.314 7.257-6.13 7.687z"/></svg>