<svg version="1" xmlns="http://www.w3.org/2000/svg" xmlns:xlink="http://www.w3.org/1999/xlink" width="55.967" height="55.968" viewBox="0 0 55.967 55.968"><defs><path id="a" d="M0 0h55.967v55.968h-55.967z"/></defs><clipPath id="b"><use xlink:href="#a" overflow="visible"/></clipPath><path d="M27.983 0c-15.455 0-27.983 12.529-27.983 27.984 0 15.456 12.528 27.984 27.983 27.984s27.985-12.528 27.985-27.984c0-15.455-12.53-27.984-27.985-27.984m0 53.212c-13.934 0-25.231-11.295-25.231-25.23s11.297-25.231 25.231-25.231c13.935 0 25.231 11.296 25.231 25.231s-11.296 25.23-25.231 25.23m-8.829-9.586v-30.628l26.55 15.402-26.55 15.226z" clip-path="url(#b)" fill-rule="evenodd" clip-rule="evenodd" fill="#fff"/></svg>