<svg version="1" xmlns="http://www.w3.org/2000/svg" width="86" height="86" viewBox="0 0 86 86"><path fill="#fff" d="M47.031 85.806l.58-.055c.646-.069 1.29-.148 1.928-.245l.073-.013c.614-.095 1.224-.206 1.83-.327l.583-.122c.455-.098.906-.202 1.356-.313l.573-.144c.607-.16 1.212-.328 1.809-.514l.171-.057c.544-.171 1.084-.355 1.619-.548l.591-.22c.41-.154.816-.314 1.22-.48l.581-.241c.548-.235 1.092-.479 1.628-.736l.297-.147c.469-.229.933-.467 1.392-.713l.59-.324c.36-.201.718-.406 1.072-.617l.572-.342c.481-.297.957-.6 1.425-.914 11.505-7.717 19.079-20.839 19.079-35.734 0-23.748-19.252-43-43-43s-43 19.252-43 43c0 17.354 10.284 32.294 25.086 39.089l.307.139c1.17.526 2.366 1.001 3.589 1.423l.674.228c.325.106.651.21.98.309.313.095.632.183.948.27.398.109.797.215 1.199.313.407.1.815.195 1.227.283l.754.151c.414.081.83.154 1.248.223l.614.101c.606.091 1.218.168 1.833.233l.502.046c.498.046.999.084 1.502.113l.565.031c.655.027 1.311.048 1.972.048.668 0 1.331-.021 1.992-.05l.586-.034c.487-.028.972-.065 1.453-.11zm17.214-6.598c-.444.263-.891.523-1.346.769-.593.319-1.19.626-1.795.915-.396.19-.798.366-1.2.544-.416.183-.833.359-1.254.528-.372.149-.742.303-1.119.442-.727.268-1.461.517-2.201.744-.316.097-.637.182-.956.271-.571.161-1.145.311-1.723.446l-.883.204c-.835.178-1.675.335-2.521.461l-.578.073c-.724.098-1.45.177-2.18.237l-.76.058c-.906.06-1.815.1-2.729.1-.88 0-1.757-.036-2.631-.091l-.705-.054c-.692-.055-1.382-.126-2.068-.215l-.587-.075c-.876-.126-1.748-.274-2.612-.455l-.184-.042c-.793-.17-1.578-.366-2.359-.581l-.608-.174c-.726-.211-1.446-.441-2.16-.692l-.354-.121c-.801-.289-1.591-.607-2.373-.946l-.65-.295c-.578-.262-1.15-.538-1.718-.826l-.722-.37c-.709-.379-1.41-.775-2.099-1.196l-.169-.107v-43.758c0-6.065 4.935-11.001 11-11.001h10v15.582c-1.759.621-3 2.311-3 4.236v11.564c0 2.484 2.015 4.505 4.491 4.505 2.486 0 4.509-2.021 4.509-4.505v-11.564c0-1.91-1.241-3.598-3-4.229v-15.59h10c6.065 0 11 4.936 11 11.001v43.114c-.271.179-.543.354-.818.525-.311.195-.623.383-.938.568zm-63.245-36.208c0-23.159 18.841-42 42-42s42 18.841 42 42c0 14.24-7.13 26.839-18 34.438v-42.436c0-6.628-5.373-12.001-12-12.001h-11v17.365c1.689.251 3 1.695 3 3.453v11.564c0 1.936-1.573 3.505-3.509 3.505s-3.491-1.569-3.491-3.504v-11.565c0-1.769 1.297-3.218 3-3.456v-17.362h-11c-6.627 0-12 5.373-12 12.001v43.114c-11.432-7.512-19-20.443-19-35.116z"/></svg>