<?xml version="1.0" encoding="utf-8"?>
<!-- Generator: Adobe Illustrator 16.0.3, SVG Export Plug-In . SVG Version: 6.00 Build 0)  -->
<!DOCTYPE svg PUBLIC "-//W3C//DTD SVG 1.1//EN" "http://www.w3.org/Graphics/SVG/1.1/DTD/svg11.dtd">
<svg version="1.1" id="Layer_1" xmlns="http://www.w3.org/2000/svg" xmlns:xlink="http://www.w3.org/1999/xlink" x="0px" y="0px"
	 width="28px" height="28px" viewBox="0 0 28 28" enable-background="new 0 0 28 28" xml:space="preserve">
<path opacity="0.5" fill="#FFFFFF" d="M14,0.875c7.236,0,13.125,5.884,13.125,13.125c0,7.236-5.889,13.125-13.125,13.125
	C6.759,27.125,0.875,21.236,0.875,14C0.875,6.759,6.759,0.875,14,0.875 M14,0C6.267,0,0,6.267,0,14c0,7.73,6.267,14,14,14
	c7.73,0,14-6.27,14-14C28,6.267,21.73,0,14,0L14,0z M14,6.832c3.961,0,7.168,3.209,7.168,7.168c0,3.961-3.207,7.168-7.168,7.168
	c-3.959,0-7.168-3.207-7.168-7.168C6.832,10.041,10.041,6.832,14,6.832 M14,6c-4.411,0-8,3.589-8,8c0,4.412,3.589,8,8,8
	c4.412,0,8-3.588,8-8C22,9.589,18.412,6,14,6L14,6z"/>
</svg>
