<svg version="1" xmlns="http://www.w3.org/2000/svg" width="64" height="64" viewBox="0 0 64 64"><path fill-rule="evenodd" clip-rule="evenodd" fill="#fff" d="M56.797 56.508c0 3.883-3 7.492-6.928 7.492h-34.388c-3.928 0-7.304-3.609-7.304-7.492-.23-3.01-.243-15.447 0-18.621 0-3.883 3.376-6.867 7.304-6.867 10.055.009 22.519 0 34.721 0 3.929 0 6.595 3.15 6.595 7.035.229 2.984.242 15.299 0 18.453m-34.797-20.508h-10v3h3v19h4v-19h3v-3zm9 5.971h-3v11.789c-.281.352-.898.641-1.233.865-.336.227-.613.34-.834.34-.281 0-.636-.004-.761-.174s-.172-.529-.172-.91v-11.91h-3v13.023c0 .957.149 1.859.5 2.339.351.479.795.613 1.486.613.56 0 1.389-.251 1.985-.591.596-.344 1.478-.842 2.029-1.496v2.141h3v-16.029zm11 3.996c0-1.314-.56-2.458-1.059-3.144-.498-.688-.89-.943-1.833-1.031-.629-.059-1.422.129-1.876.383-.452.258-.829.771-1.232 1.264v-7.519h-3v22.08h3v-1.602c.394.49.769.852 1.226 1.088.459.234 1.222.42 1.807.42.885 0 1.486-.371 1.955-.979.467-.605 1.012-1.48 1.012-2.624v-8.336zm11 5.92h-3.051v1.117c0 .947-.099 1.558-.296 1.836-.197.275-.56.535-1.456.414-.473-.063-.812-.162-1.01-.49-.197-.327-.187-.914-.187-1.76v-3.004h6v-3.789c0-1.525-.365-2.695-1.102-3.51-.733-.813-1.842-.951-3.21-.951-1.337 0-2.678.172-3.523 1.049-.845.879-1.268 2.016-1.268 3.412v6.885c0 1.547.385 2.764 1.154 3.648.769.883 1.822 1.326 3.161 1.326 1.488 0 2.606-.418 3.356-1.252.75-.834 1.432-2.074 1.432-3.722v-1.209zm-6.062-5.705c0-.674.104-.989.312-1.28.207-.291.549-.438 1.023-.438.456 0 1.204.146 1.411.438.208.291.312.606.312 1.28v.818h-3.058v-.818zm-9.5 9.037c-.25-.045-.552-.07-.78-.188-.229-.113-.414-.195-.657-.457l.054-8.862c.204-.221.357-.467.566-.574.208-.104.418-.159.632-.159.405 0 1.216.226 1.428.507.214.281.32.693.32 1.236l-.054 7.144c0 .514-.055.693-.259.889-.454.432-.819.542-1.25.464m9.718-30.155c-.681.808-1.463 1.88-2.199 2.303-.735.422-1.45.633-2.143.633-.854 0-1.382-.292-1.814-.883-.434-.592-1-1.935-1-3.117v-16h3.952v14.621c0 .471.076.811.231 1.022.154.211.405.316.751.316.273 0 .616-.139 1.03-.418s.845-.635 1.191-1.069v-14.472h3.768v20h-3.768v-2.936zm-11.654 1.244c-.957.967-2.275 1.451-3.953 1.451-1.615 0-3.096-.499-4.065-1.498-.97-.998-1.454-2.341-1.454-4.029v-9.795c0-1.538.497-2.763 1.491-3.674.994-.912 2.518-1.368 4.196-1.368 1.529 0 2.781.48 3.756 1.441.976.962 1.464 2.199 1.464 3.713v9.758c.001 1.7-.479 3.033-1.435 4.001m-2.517-14.02c0-.434-.151-.785-.451-1.052-.3-.266-.569-.4-1.058-.4-.45 0-.817.134-1.098.4-.282.267-.423.618-.423 1.052v10.316c0 .547.131.969.395 1.268.263.297.638.446 1.126.446.501 0 .773-.152 1.068-.456.294-.305.441-.723.441-1.258v-10.316zm-11.892 15.712h-4.185v-11.975l-4.635-16.025h3.938l2.698 11.096h.261l2.573-11.096h4.475l-5.125 16.085v11.915z"/></svg>