<svg version="1" xmlns="http://www.w3.org/2000/svg" width="96" height="78" viewBox="0 0 96 78"><g fill="#fff"><path fill-rule="evenodd" clip-rule="evenodd" d="M57.275 8.065c-14.846-12.332-36.878-10.294-49.21 4.552-12.332 14.847-10.293 36.878 4.553 49.21s36.877 10.293 49.21-4.553c12.332-14.845 10.293-36.878-4.553-49.209zm-1.285 44.362c-9.654 11.621-26.902 13.217-38.524 3.563s-13.217-26.902-3.564-38.524c9.654-11.623 26.902-13.218 38.524-3.564 11.623 9.654 13.219 26.902 3.564 38.525zM64.304 53.441c1.883-2.599 5.516-3.18 8.115-1.297l21.178 15.338c2.6 1.882 3.182 5.516 1.299 8.114s-5.516 3.181-8.115 1.298l-21.18-15.338c-2.598-1.882-3.18-5.515-1.297-8.115z"/><path d="M36 22h-2v11h-11v2h11v10.995h2v-10.995h11v-2h-11v-11z"/></g></svg>