<svg version="1" xmlns="http://www.w3.org/2000/svg" width="207" height="72.111" viewBox="0 0 207 72.111"><path fill-rule="evenodd" clip-rule="evenodd" fill="#fff" d="M80.711 22.686c-1.167 1.287-2.128 2.301-2.893 3.037-1.53 1.469-2.613 2.208-3.255 2.208-.202 0-.365-.085-.485-.25-.121-.17-.171-.359-.138-.576.045-.306.18-.748.4-1.324l.061-.121c.952-2.101 1.974-4.109 2.94-6.299 1.884-4.277-1.137-5.513-5.57-4.577-1.828.386-3.776 1.673-5.33 3.186-1.665 1.616-3.229 3.829-3.61 6.175-5.034 4.322-8.581 5.07-9.559 2.747-.241-.574-.543-1.745-.024-3.165.438-1.202.926-2.373 1.425-3.615 6.042-3.135 10.178-7.134 11.934-11.582.626-1.594 1.827-5.77.291-7.234-.558-.526-1.53-.696-3.142-.378-2.066.397-3.573 1.954-4.431 3.729-2.168 4.49-5.009 10.477-7.027 14.999-1.171.473-2.335.795-3.46 1.075.212.435 1.901.123 2.76-.059l.276-.066c-.472 1.069-.884 2.041-1.22 2.854-1.071 2.63.319 5.924 3.602 5.924 2.34 0 6.295-2.247 8.456-4.322-.373 2.594 1.985 4.309 3.25 4.309.944 0 2.004-.527 3.174-1.559 1.183-1.043 2.633-2.721 4.342-5.056-.643 1.233-1.088 2.222-1.388 2.963-.3.748-.487 1.289-.543 1.638-.105.659-.009 1.167.283 1.495.311.35.785.519 1.446.519.785 0 1.97-.651 3.542-1.948 1.564-1.291 3.541-3.232 5.884-5.828l.284-.322.241-.285c1.041-1.157 1.601-1.971 1.668-2.425v-.282l-.04-.282c-1.59 1.844-2.978 3.407-4.144 4.697zm-16.831-21.294c1.359-.242 1.781.546 1.579 1.95-1.062 7.369-5.036 12.819-10.237 15.576.845-2.025 6.802-17.192 8.658-17.526zm6.901 23.513c-1.753 2.068-3.113 3.104-4.056 3.104-.404 0-.95-.403-1.113-.715-.363-.692-.45-1.668-.331-2.356.562-3.299 2.908-8.449 6.524-9.321 2.238-.536 4.699.435 3.396 3.224-.177.377-.394.765-.635 1.155-1.297 2.122-3.308 4.349-3.785 4.909zm67.103-13.269c.829-.903 1.111-2.147.638-2.774-.478-.626-1.536-.406-2.361.499-.826.9-1.109 2.141-.636 2.77.474.628 1.534.408 2.359-.495zm-97.126-11.236c-4.628 1.356-9.648 9.811-12.802 13.477-1.87-1.217-3.695-2.165-5.664-2.791-1.969-.624-3.94-.934-5.93-.934-1.991 0-3.653.412-4.945 1.207-1.32.815-2.104 1.867-2.311 3.197-.295 1.869.586 3.475 2.592 4.832 1.994 1.347 4.865 2.226 8.625 2.608-3.121 2.848-7.75 6.585-12.236 6.585-1.753 0-3.003-.522-4.046-1.22-1.046-.693-1.496-1.539-1.347-2.531.133-.873.536-1.554 1.224-2.028.72-.489 1.611-.72 2.695-.72.684 0 1.343.103 2.052.303.721.198 1.528.522 2.45.965l.283-.083.18-.322-.019-.282c-.885-.562-1.851-.981-2.855-1.262-1.005-.28-2.031-.427-3.137-.427-1.466 0-2.688.324-3.659.946-.977.635-1.54 1.47-1.706 2.514-.212 1.323.448 2.446 1.93 3.391 1.469.932 3.416 1.407 5.851 1.407 2.432 0 4.979-.621 7.656-1.831 2.69-1.22 5.367-2.989 8.038-5.319h1.107c.724 0 1.367-.015 1.87-.049.52-.037 1.003-.097 1.423-.171l.225-.165.018-.398-.18-.162-1.529.061c-.382.015-.702.019-1.004.019h-.964c.624-.59 1.283-1.306 2.069-2.148.798-.852 1.551-1.888 2.478-3.012 1.415 1.159 2.637 2.059 3.872 3.26-.665 1.581-1.505 3.706-2.392 5.542-1.813 3.737 1.359 5.645 4.083 5.469 2.473-.158 3.568-1.192 3.818-2.585.463-2.569-1.281-5.614-3.144-7.653l7.979-17.11c.458-.945.199-2.03-.41-2.46-.551-.392-1.427-.358-2.238-.12zm-17.163 18.423c-.96 1.018-1.789 1.804-2.431 2.352-3.416-.254-5.964-.727-7.639-2.066-1.777-1.42-2.162-2.958-1.749-4.296.713-2.314 2.564-3.293 4.656-3.534 3.864-.445 7.791 1.154 10.897 3.371-1.526 1.779-2.77 3.161-3.734 4.173zm13.276 8.603c-.208 1.335-.924 2.404-2.135 2.46-1.489.068-3.013-1.399-1.893-3.939.71-1.616 1.559-3.886 2.067-4.855 1.536 1.854 2.375 3.639 1.961 6.334zm4.002-24.155l-2.834 5.62-4.353 9.515c-1.22-1.065-2.432-1.957-3.853-3.043 2.477-3.551 4.689-7.777 7.813-11.945.826-1.103 1.904-1.809 2.741-1.722.751.078 1.052.445.486 1.575zm164.203 14.532c-1.263 1.659-2.513 3.139-3.718 4.436-1.205 1.292-2.382 2.415-3.575 3.339-2.406 1.866-4.463 2.792-6.173 2.792-1.528 0-2.966-.915-2.651-2.648l.584-.306c2.865-1.638 9.17-4.076 9.765-7.811.13-.811-.075-1.5-.62-2.035-.562-.55-1.328-.819-2.314-.819-.943 0-1.963.287-3.053.825-1.117.558-2.177 1.305-3.14 2.268-1.045 1.055-1.834 2.033-2.479 3.153l-.936 1.975c-.169.48-.286.954-.359 1.42-.084.54-.136.99-.065 1.574-1.162.868-6.408 3.155-7.492 1.902-.154-.201-.223-.506-.18-.796.036-.247.121-.512.219-.813.101-.303.244-.632.405-.994.62-1.4 1.235-2.809 1.845-4.203.614-1.399 1.249-2.801 1.893-4.203h2.185c.377-.005.801-.085.888-.432.09-.348-.123-.598-.479-.589h-2.132l.803-2.043c.627-1.419 2.94-6.632 1.764-6.757-1.261-.1-4.37 6.936-5.238 8.8h-2.353c-.492-.055-.801.209-.891.486-.093.27.039.549.428.535h2.269l-.455.993c-1.904 2.65-4.327 5.242-6.659 7.53-1.643 1.625-2.813 2.433-3.516 2.433-.199 0-.362-.097-.506-.28-.135-.188-.208-.402-.183-.627.037-.226.143-.489.271-.805 1.283-3.328 2.532-5.375 3.773-8.704.483-1.306.82-2.371.473-2.577-.765-.459-2.233.811-3.208 2.268-2.134 3.195-4.28 6.084-6.617 8.179-2.216 1.977-4.221 2.396-3.327-.108.593-1.652 1.575-3.164 2.351-4.748.775-1.58.983-1.903 1.43-2.969.449-1.071.854-2.689.387-2.821-.831-.231-1.55.542-2.985 2.842-1.436 2.296-4.068 5.119-6.974 7.85-1.595 1.504-2.689 2.271-3.291 2.271-.225 0-.379-.073-.506-.21-.135-.144-.21-.294-.183-.475.093-.564.804-2.126 2.112-4.698l.46-.904c.593-1.174 1.021-2.062 1.27-2.654.25-.584.392-1.062.442-1.428.086-.64-.049-1.174-.422-1.62-.368-.444-.868-.665-1.488-.665-1.026 0-2.41.782-4.157 2.348-1.753 1.567-3.921 3.965-6.493 7.193.678-1.479 1.388-2.967 2.067-4.443.686-1.485 1.424-2.963 2.109-4.454.575-1.242-1.082-1.699-2.398.049-.146.189-1.407 2.198-1.786 2.742-.907 1.321-2.362 2.968-3.25 3.936-1.188 1.294-2.238 2.359-3.153 3.223-1.818 1.698-3.141 2.563-3.963 2.563-.322 0-.548-.097-.702-.309-.149-.21-.183-.503-.119-.877.037-.205.119-.528.301-.974.18-.446.438-1.025.762-1.713.682-1.45 1.382-2.896 2.053-4.342.672-1.444 1.384-2.899 2.087-4.334.674-1.375-1.193-1.729-2.772.5-1.735 2.446-3.26 4.601-5.147 6.732-1.162 1.31-2.118 2.263-2.834 2.938-1.413 1.33-2.412 2.002-3.053 2.002-.307 0-.522-.074-.643-.22-.118-.151-.166-.391-.118-.728.03-.239.171-.621.358-1.131.195-.525.506-1.151.869-1.896.316-.672.741-1.577 1.342-2.715.93-1.767 1.422-2.997 1.53-3.677.113-.726.017-1.292-.286-1.706-.301-.418-.781-.624-1.424-.624-1.066 0-2.388.738-4.021 2.203-1.646 1.481-3.657 3.781-6.05 6.913 1.025-2.208 1.781-3.86 2.21-4.95.436-1.092.717-1.865.784-2.322.096-.604-.017-1.073-.362-1.416-.343-.336-.843-.51-1.525-.51-1.106 0-2.387.665-3.836 2.033-1.438 1.356-3.358 3.71-5.752 7.047.621-1.389 1.286-2.784 1.91-4.175.62-1.393 1.393-2.796 1.912-4.239.382-1.063.562-2.785-.745-3.29-4.095-1.589-11.096 3.587-13.39 6.241l-.007.001-.003.01c-.816.944-1.535 1.895-2.156 2.848-.646.983-1.195 1.963-1.658 2.942-2.292 4.828-2.275 9.143-1.033 11.692.413.834.86 1.56 1.345 2.186 1.641 2.111 3.654 3.051 5.675 3.251 2.026.213 4.066-.317 5.747-1.135.762-.373 1.463-.813 2.059-1.274 3.536-2.745 5.999-3.842 7.496-3.875.634-.013 1.093.17 1.376.495.272.31.388.747.356 1.262-.063.989-.764 2.424-2.051 3.945-.55.648-.752 1.407-.647 1.795 2.258-2.444 3.519-5.021 3.634-6.882.039-.706-.102-1.282-.44-1.667-.323-.371-.823-.573-1.523-.562-1.563.031-4.131 1.171-7.796 4.016-.536.414-1.185.815-1.906 1.171-1.621.791-3.6 1.3-5.568 1.1-1.978-.203-3.944-1.121-5.548-3.188-.471-.603-.912-1.315-1.312-2.138-1.127-2.307-1.223-6.043.676-10.048.357-.744.783-1.509 1.299-2.285.53-.81 1.148-1.628 1.854-2.45h.003l.007-.009c2.588-2.986 6.241-5.074 8.775-5.589 2.909-.598 3.774-.394 2.092 3.131l.011-.004c-.769 1.648-1.55 3.306-2.291 4.956-.031.071-3.442 6.426-2.464 6.858 1.47.646 4.483-4.136 5.418-5.414 1.767-2.398 3.258-4.201 4.44-5.42 1.188-1.218 2.07-1.829 2.635-1.829.238 0 .401.063.502.19.099.125.14.309.099.549-.037.209-.193.612-.44 1.25l-.082.201c-.705 1.645-1.435 3.285-2.132 4.932-.559 1.324-1.114 2.506-1.539 3.453-.623 1.385-1.011 2.273-.638 2.495 1.174.692 2.719-1.196 3.427-2.318.73-1.148 1.445-2.163 2.089-3.019 1.789-2.4 3.385-4.285 4.722-5.622 1.376-1.371 2.352-2.028 2.915-2.028.241 0 .428.079.562.224.144.154.177.344.144.556-.048.282-.364 1.041-1.028 2.292-.463.878-.803 1.61-1.081 2.15l-.322.642c-1.126 2.273-1.75 3.851-1.891 4.718-.101.635.006 1.17.365 1.601.362.442.862.654 1.463.654.989 0 2.087-.433 3.238-1.282 1.16-.852 3.129-2.798 5.912-5.874l1.264-1.538c-.64 1.345-.995 2.121-1.648 3.463-.292.598-.514 1.11-.683 1.56-.171.449-.286.806-.323 1.074-.106.763.003 1.369.359 1.824.365.458.928.685 1.651.685 1.107 0 2.394-.532 3.859-1.597 1.446-1.057 3.345-2.86 5.647-5.417l1.118-1.22c-.135.279-.486 1.068-.616 1.347-1.085 2.322-3.391 6.349-2.47 6.776 1.255.577 3.123-2.148 4.535-4.041.62-.819 1.325-1.661 2.095-2.593 2.472-2.992 5.969-6.171 6.806-5.589.648.457-.295 2.318-2.101 5.81-1.144 2.215-1.602 3.484-1.691 4.014-.115.737 0 1.361.385 1.831.399.495.94.721 1.648.721.807 0 1.786-.461 3.011-1.385s2.804-2.5 4.845-4.705c.208-.224.503-.521.865-.918.388-.422.894-.99 1.207-1.352-.609 1.258-1.218 2.509-1.83 3.766-.287.586-.495 1.079-.641 1.467-.154.387-.265.718-.301 1.002-.106.714-.017 1.264.281 1.644.286.371.803.563 1.505.563 1.064 0 2.449-.723 4.14-2.162 1.688-1.442 3.876-3.81 6.631-7.117-1.002 1.914-1.758 3.411-2.25 4.507-.49 1.093-.763 1.875-.842 2.361-.124.735-.012 1.325.32 1.753.334.439.825.658 1.482.658.888 0 2.081-.593 3.562-1.78 1.471-1.179 3.979-3.785 5.227-5.206 1.247-1.424.983-1.122 1.479-1.66-.3.682-.601 1.36-.897 2.044-.434.998-.784 1.849-1.046 2.536-.26.698-.433 1.192-.482 1.513-.13.83.022 1.468.424 1.918.402.447 1.045.732 1.907.672 2.503-.172 5.679-1.369 8.079-2.47.136.422.346.835.607 1.171.724.927 1.811 1.398 3.294 1.398 1.813 0 3.758-.665 5.909-1.99 2.151-1.322 4.3-3.214 6.451-5.663.744-.844 1.307-1.557 1.691-2.144.384-.577.6-1.064.659-1.456l.025-.28-.091-.196zm-15.822 6.011c.391-2.345 1.738-4.169 3.019-5.741 1.276-1.544 2.453-2.561 3.559-2.561 1.146 0 1.253 1.32.871 2.222-.514 1.202-2.873 3.427-6.319 5.754-.394.269-.795.524-1.196.779l.066-.453zm-78.967 23.823l.007-.013c.286-1.511-.284-2.947-1.149-3.73-.165-.147-.348-.274-.548-.374-.199-.1-.413-.179-.626-.222h-.012c-.812-.157-1.749.106-2.438.702-.956.816-1.575 2.077-1.861 3.548l-.022.076c-.275 1.498.151 2.907 1.012 3.68.162.146.343.274.547.378.199.103.402.176.624.22l.014.003c.81.15 1.711-.144 2.398-.735.954-.827 1.771-2.048 2.054-3.533zm-3.774-1.384l-.031.042c-.396.494-.819.806-1.188.901-.259.065-.48-.015-.591-.261l-.005-.019c-.101-.249-.086-.614.023-1.003.113-.401.334-.829.622-1.202l.016-.011c.398-.511.831-.831 1.201-.924.262-.071.483.017.59.27l.009.003.056.236.006.279c-.034.508-.294 1.164-.708 1.689zm5.716 19.866c-1.025 1.118-1.383 2.657-.787 3.437.591.782 1.904.504 2.929-.615 1.026-1.117 1.38-2.66.788-3.439-.594-.784-1.903-.506-2.93.617zm1.684-.33c-.048.232-.227.521-.473.733l-.021.018c-.236.203-.478.312-.671.327-.144.013-.247-.046-.29-.167l-.002-.009c-.04-.124-.012-.292.073-.466.083-.183.219-.364.398-.514l.006-.007c.241-.205.485-.319.682-.337.141-.011.256.045.29.173l.003.003.02.113-.015.133zm3.561-8.985l-.014-.008c-.634-.219-1.308-.091-1.896.286-.795.52-1.472 1.405-1.803 2.532l-.011.031c-.23.803-.18 1.61.078 2.264.261.641.725 1.145 1.343 1.366h.011c.633.221 1.307.096 1.893-.283 1.012-.658 1.411-1.182 1.806-2.557.233-.81.194-1.618-.072-2.274-.262-.634-.722-1.14-1.335-1.357zm-1.688 1.687l-.019.022c-.242.26-.495.412-.712.455-.154.033-.286-.015-.345-.148l-.009-.007c-.056-.136-.048-.331.025-.534.07-.212.2-.434.374-.626l.009-.004c.244-.266.499-.426.719-.469.159-.031.286.016.351.153v.005l.034.126.005.145c-.025.267-.187.616-.432.882zm7.364-10.322l-.028-.017c-.686-.323-1.516-.203-2.309.258-1.099.636-2.128 1.752-2.83 3.193l-.006.019c-.714 1.483-.756 3.017-.217 3.992.101.187.228.354.376.499.146.146.312.263.501.354l.003.002c1.021.491 2.448-.083 3.653-1.333.328-.344.632-.718.907-1.111.224-.322.422-.659.59-1.007l.003-.012c.502-1.042.674-2.103.547-2.977-.129-.85-.532-1.537-1.19-1.86zm-1.168 1.376c-.07.48-.383 1.078-.843 1.538l-.03.03c-.458.438-.916.691-1.307.75-.275.044-.497-.049-.598-.295l-.007-.016c-.092-.241-.054-.583.088-.942.135-.365.388-.754.719-1.074l.005-.009c.459-.453.928-.714 1.323-.773.275-.044.506.054.606.3v.009l.048.222-.004.26zm-9.669 12.976c.342-1.083.148-2.161-.416-2.813-.112-.121-.233-.229-.37-.321-.138-.093-.286-.165-.441-.216l-.009-.002c-.581-.177-1.213-.043-1.771.332-.771.522-1.412 1.363-1.753 2.416l-.017.057c-.334 1.076-.141 2.147.422 2.788.109.126.232.231.368.322.14.096.282.171.44.218l.015.004c.577.185 1.213.039 1.767-.335.777-.521 1.422-1.38 1.76-2.44l.005-.01zm-2.182-2.422c-.048.306-.259.688-.559.98l-.026.02c-.29.273-.593.44-.848.474-.177.024-.32-.038-.385-.2l-.003-.013c-.06-.153-.031-.374.063-.602.096-.24.265-.486.476-.69l.009-.007c.301-.282.608-.447.862-.485.182-.021.325.039.385.204h.002l.028.148-.004.171zm3.797-8.889l.06.023c.872.264 1.83.035 2.673-.554 1.171-.811 2.16-2.127 2.696-3.749l.042-.127c.524-1.692.256-3.366-.587-4.366-.163-.189-.349-.362-.556-.504-.206-.142-.425-.253-.66-.331l-.018-.004c-.888-.28-1.853-.052-2.707.544-1.183.821-2.186 2.162-2.719 3.823l-.011.034c-.374 1.197-.359 2.375-.025 3.309.325.917.954 1.621 1.812 1.902zm-.681-6.327c.205-.545.57-1.133 1.048-1.631l.015-.011c.674-.682 1.364-1.084 1.949-1.187.424-.072.761.068.918.436v.007c.045.098.07.211.084.337.011.12.011.256-.008.391-.085.715-.534 1.61-1.213 2.313l-.055.047c-.656.668-1.342 1.058-1.918 1.156-.415.071-.752-.064-.909-.423l-.012-.024c-.143-.364-.095-.874.101-1.411zm-4.881 13.522c.174.092.362.157.559.198l.01.003c1.101.207 2.415-.525 3.324-1.827.25-.356.422-.772.604-1.16.15-.316.271-.644.363-.967v-.008c.274-.984.215-1.918-.099-2.627-.301-.69-.843-1.19-1.556-1.332l-.028-.004c-.73-.132-1.517.137-2.193.68-.469.379-.898.856-1.256 1.413-.354.55-.641 1.176-.827 1.855l-.007.02c-.385 1.393-.098 2.699.633 3.413.139.135.296.251.473.343zm.234-5.476c.099-.326.301-.681.566-.982l.007-.009c.37-.421.769-.673 1.104-.751.249-.053.449.018.553.229v.004l.055.194.01.233c-.027.417-.27.958-.646 1.385l-.028.032c-.368.408-.753.657-1.09.729-.241.053-.438-.017-.547-.222l-.007-.013c-.093-.21-.081-.513.023-.829z"/></svg>