<svg version="1" xmlns="http://www.w3.org/2000/svg" width="270.5" height="144" viewBox="0 0 270.5 144"><g fill="#fff"><path d="M46.208 118.296h2.102v-16.475h-1.811v-.841h14.431l.056 4.794h-.88c-1.171-3.111-2.13-3.953-4.444-3.953h-2.958v7.48c.185.028.4.028.584.028 1.865 0 2.798-.981 3.092-3.332h.877v7.762h-.877c-.188-2.524-1.121-3.558-3.198-3.558l-.478.025v8.07h2.876c2.901 0 4.341-1.515 5.247-5.185h.824l-.187 6.08h-15.256v-.895zm29.483.028h1.705v.841c-1.786 0-3.542.084-5.353.227v-2.778c-1.04 1.965-2.317 2.862-4.235 2.862-1.199 0-2.104-.369-2.639-1.065-.369-.534-.422-1.208-.422-2.132v-7.229h-1.733v-.841c1.945-.025 3.729-.112 5.328-.279v8.827c0 1.006.318 1.484 1.093 1.484 1.25 0 2.58-1.85 2.58-4.005v-5.185h-1.89v-.841c1.839 0 3.676-.112 5.565-.279v10.393zm2.74.028h1.414v-9.244h-1.439v-.841c1.677-.059 3.357-.17 5.034-.338v2.996c.718-1.903 1.945-2.94 3.248-2.94 1.333 0 2.317.981 2.317 2.272 0 1.146-.769 2.015-1.889 2.015-.934 0-1.705-.813-1.705-1.881 0-.528.318-.752.318-1.034 0-.084-.081-.165-.212-.165-.609 0-1.996 1.932-1.996 4.201v4.958h1.917v.839h-7.007v-.838zm17.76-10.423c3.729 0 6.233 2.435 6.233 5.772s-2.504 5.797-6.233 5.797c-3.726 0-6.203-2.435-6.203-5.769 0-3.338 2.477-5.8 6.203-5.8m-2.077 5.772v1.124c0 2.826.134 4.002 2.104 4.002 1.971 0 2.074-1.258 2.074-4.707v-1.624c0-2.72-.157-3.896-2.074-3.896-2.023-.001-2.104 1.402-2.104 5.101M103.45 124.49h1.487v-15.382h-1.728v-.844c1.917-.056 3.729-.167 5.406-.335v2.102c.796-1.4 1.917-2.102 3.407-2.102 2.798 0 4.9 2.437 4.9 5.828 0 3.282-2.13 5.775-4.9 5.775-1.49 0-2.611-.674-3.407-2.077v7.036h1.917v.838h-7.083v-.839zm9.425-13.621c0-1.457-.134-2.127-1.331-2.127-1.705 0-2.929 1.484-2.929 3.95v2.102c0 2.465 1.199 3.95 2.929 3.95 1.146 0 1.331-.699 1.331-2.097v-5.778zm17.238 4.85c-.878 2.577-2.555 3.782-5.247 3.782-3.726 0-6.071-2.27-6.071-5.66 0-3.334 2.504-5.912 6.018-5.912 3.198 0 5.171 1.987 5.171 5.182v.14h-6.98v2.748c0 1.962.425 2.801 2.13 2.801 2.13 0 3.595-1.121 4.366-3.304l.613.223zm-3.594-3.307v-2.13c0-1.174-.531-1.68-1.755-1.68-1.174 0-1.758.534-1.758 1.68v2.13h3.513zm7.952 7.061c-1.811 0-2.798-1.009-2.798-2.748 0-2.27 2.401-3.894 6.711-3.894v-2.661c0-1.149-.318-1.512-1.783-1.512-.905 0-1.358.224-1.358.643 0 .282.481.674.481 1.459 0 1.063-.64 1.652-1.786 1.652-1.009 0-1.568-.618-1.568-1.708 0-1.739 1.73-2.775 4.925-2.775 1.49 0 2.608.251 3.276.615 1.039.564 1.09 1.261 1.09 2.552v5.661c0 .646.24.953.827.953.347 0 .479-.254.665-.254.16 0 .266.14.266.282 0 .472-.931 1.736-2.501 1.736-1.146 0-2.08-.702-2.449-1.904-1.069 1.341-2.268 1.903-3.998 1.903m3.594-5.884c-2.077 0-2.901.531-2.901 2.13 0 1.54.4 2.214 1.465 2.214 1.012 0 1.755-.755 1.755-1.99v-2.354h-.319zm7.453 4.763v-9.299h-1.756v-.872c1.73 0 3.514-.056 5.403-.196v2.775c1.012-1.934 2.292-2.806 4.237-2.806 2.768 0 3.061 1.347 3.061 3.983v6.415h1.546v.839h-6.498v-.839h1.355v-7.734c0-1.009-.316-1.481-1.088-1.481-1.224 0-2.585 1.82-2.585 3.975v5.241h1.33v.839h-6.604v-.839h1.599zm23.566-.056v-16.475h-1.865v-.841h9.669c3.724 0 5.828 1.764 5.828 4.341 0 2.213-1.678 3.589-4.95 4.092v.227c3.754.333 5.644 1.878 5.644 4.537 0 3.055-2.558 5.015-6.712 5.015h-9.479v-.895h1.865zm5.962-9.104c2.639 0 3.089-.729 3.089-3.701 0-3.307-.266-3.67-3.248-3.67h-1.49v7.371h1.649zm.668 9.104c2.529 0 2.901-.786 2.901-4.176 0-3.304-.612-4.148-3.276-4.148h-1.942v8.324h2.317zm11.767 1.177c-1.812 0-2.795-1.009-2.795-2.748 0-2.27 2.397-3.894 6.708-3.894v-2.661c0-1.149-.318-1.512-1.78-1.512-.906 0-1.358.224-1.358.643 0 .282.48.674.48 1.459 0 1.063-.643 1.652-1.786 1.652-1.012 0-1.573-.618-1.573-1.708 0-1.739 1.732-2.775 4.931-2.775 1.489 0 2.61.251 3.271.615 1.042.564 1.096 1.261 1.096 2.552v5.661c0 .646.237.953.824.953.35 0 .48-.254.668-.254.156 0 .266.14.266.282 0 .472-.934 1.736-2.505 1.736-1.146 0-2.076-.702-2.451-1.904-1.064 1.341-2.262 1.903-3.996 1.903m3.595-5.884c-2.074 0-2.901.531-2.901 2.13 0 1.54.399 2.214 1.465 2.214 1.012 0 1.755-.755 1.755-1.99v-2.354h-.319zm7.586 4.763v-9.299h-1.756v-.872c1.728 0 3.514-.056 5.403-.196v2.775c1.012-1.934 2.292-2.806 4.235-2.806 2.77 0 3.063 1.347 3.063 3.983v6.415h1.545v.839h-6.501v-.839h1.361v-7.734c0-1.009-.319-1.481-1.093-1.481-1.225 0-2.583 1.82-2.583 3.975v5.241h1.33v.839h-6.602v-.839h1.598zm14.644.002v-16.534h-1.302v-.841c1.437-.059 3.061-.167 4.922-.335v17.71h1.683v.838h-6.604v-.838h1.301zm8.388-9.277h-2.502v-.838h5.565v.838h-1.971l-2.742 2.382 5.112 6.896h1.091v.838h-6.734v-.838h1.328l-3.779-5.185 4.632-4.093zm-217.967 25.129h-1.035v-.518h1.034v-.366c0-2.552 1.507-4.349 3.41-4.349 1.182 0 1.917.62 1.917 1.484 0 .707-.377 1.106-1.031 1.106-.573 0-.984-.399-.984-.97 0-.515.425-.704.425-.895 0-.123-.179-.24-.475-.24-.657 0-1.051.548-1.051 1.621 0 .774.05 1.434.05 1.954v.653h1.409v.518h-1.408v5.699h1.149v.517h-4.36v-.517h.95v-5.697zm8.611-.724c2.295 0 3.835 1.501 3.835 3.558 0 2.052-1.54 3.572-3.835 3.572-2.297 0-3.818-1.498-3.818-3.556.001-2.056 1.521-3.574 3.818-3.574m-1.277 3.558v.688c0 1.747.081 2.472 1.294 2.472 1.21 0 1.277-.777 1.277-2.902v-1c0-1.678-.098-2.401-1.277-2.401-1.246-.001-1.294.863-1.294 3.143M17.289 139.905h.87v-5.699h-.886v-.518c1.034-.036 2.068-.104 3.1-.206v1.847c.444-1.177 1.193-1.811 1.999-1.811.822 0 1.425.601 1.425 1.397 0 .707-.475 1.241-1.163 1.241-.573 0-1.048-.501-1.048-1.157 0-.324.198-.464.198-.641 0-.05-.05-.104-.134-.104-.377 0-1.227 1.191-1.227 2.592v3.058h1.179v.517h-4.313v-.516zm13.467-.036v-10.152h-1.247v-.52h5.954c2.491 0 3.802.899 3.802 2.454 0 1.587-1.247 2.588-3.542 2.711v.137c2.393.344 3.181 1.471 3.181 4.009 0 .895.081 1.327.688 1.327.199 0 .442-.05.721-.156l.165.47c-.769.363-1.425.518-1.851.518-.919 0-1.655-.311-2.068-.797-.704-.827-.654-1.898-.704-3.14-.067-1.521-.59-2.073-2.113-2.073h-.28v5.213h1.392v.553h-5.344v-.553h1.246zm4.047-5.764c1.345 0 1.56-.54 1.56-2.11 0-1.965-.051-2.278-1.56-2.278h-1.342v4.389h1.342zm13.129 4.179c-.545 1.585-1.574 2.328-3.231 2.328-2.298 0-3.74-1.397-3.74-3.488 0-2.052 1.543-3.642 3.707-3.642 1.971 0 3.181 1.227 3.181 3.194v.084h-4.296v1.693c0 1.208.266 1.728 1.311 1.728 1.313 0 2.214-.692 2.689-2.037l.379.14zm-2.216-2.038v-1.313c0-.727-.327-1.04-1.082-1.04-.718 0-1.082.333-1.082 1.04v1.313h2.164zm9.984 2.035c-.506 1.54-1.493 2.314-2.916 2.314-2.099 0-3.623-1.588-3.623-3.575 0-1.932 1.621-3.541 3.768-3.541 1.526 0 2.493.83 2.493 1.903 0 .64-.444 1.104-1.051 1.104-.705 0-1.115-.464-1.115-1.157 0-.659.508-.863.508-1.054 0-.273-.279-.396-.835-.396-1.21 0-1.261.654-1.261 2.104v2.074c0 1.432.131 2.055 1.294 2.055 1.132 0 1.935-.674 2.362-1.968l.376.137zm4.975-4.799c2.298 0 3.838 1.501 3.838 3.558 0 2.052-1.54 3.572-3.838 3.572-2.294 0-3.818-1.498-3.818-3.556 0-2.056 1.524-3.574 3.818-3.574m-1.277 3.558v.688c0 1.747.081 2.472 1.294 2.472s1.277-.777 1.277-2.902v-1c0-1.678-.098-2.401-1.277-2.401-1.246-.001-1.294.863-1.294 3.143M66.445 139.905v-5.733h-1.082v-.536c1.065 0 2.164-.033 3.329-.117v1.708c.624-1.191 1.412-1.728 2.608-1.728 1.705 0 1.884.827 1.884 2.451v3.955h.953v.517h-4.003v-.517h.839v-4.766c0-.621-.199-.914-.671-.914-.758 0-1.593 1.118-1.593 2.451v3.229h.819v.517h-4.067v-.517h.984zm8.665-1.984h.425c.38 1.484 1.18 2.244 2.345 2.244.97 0 1.557-.57 1.557-1.227 0-.794-.741-.725-2.063-.931-1.543-.241-2.284-.744-2.284-2.108 0-1.504.919-2.417 2.312-2.417.576 0 1.118.153 1.56.399l.344-.313h.33l.047 1.918h-.428c-.327-1.057-.95-1.594-1.836-1.594-.917 0-1.49.453-1.49.934 0 .624.688.641 2.065.833 1.655.224 2.329.808 2.329 2.365 0 1.587-.917 2.588-2.493 2.588-.769 0-1.395-.207-1.854-.57l-.456.38h-.394l-.016-2.501zm6.965-3.732h-.939v-.521h.939v-2.085c.311.031.621.051.948.051.411 0 .819-.034 1.247-.087v2.121h1.311v.521h-1.311v4.698c0 .567.115.758.525.758.411 0 .688-.38.735-.984h.444c-.064 1.174-.967 1.935-2.278 1.935-1.429 0-1.622-.503-1.622-1.708v-4.699zm4.59 5.716h.867v-5.699h-.883v-.518c1.031-.036 2.065-.104 3.097-.206v1.847c.445-1.177 1.196-1.811 2.001-1.811.819 0 1.426.601 1.426 1.397 0 .707-.476 1.241-1.166 1.241-.57 0-1.045-.501-1.045-1.157 0-.324.195-.464.195-.641 0-.05-.05-.104-.131-.104-.377 0-1.23 1.191-1.23 2.592v3.058h1.183v.517h-4.313v-.516zm14.775-.019h1.048v.52c-1.098 0-2.18.051-3.295.14v-1.71c-.64 1.21-1.425 1.761-2.608 1.761-.735 0-1.294-.224-1.618-.654-.232-.33-.269-.743-.269-1.313v-4.456h-1.065v-.52c1.199-.017 2.298-.067 3.282-.173v5.439c0 .623.198.919.673.919.769 0 1.591-1.141 1.591-2.474v-3.192h-1.166v-.52c1.129 0 2.261-.067 3.427-.173v6.406zm8.416-1.605c-.509 1.54-1.49 2.314-2.918 2.314-2.097 0-3.625-1.588-3.625-3.575 0-1.932 1.624-3.541 3.773-3.541 1.523 0 2.491.83 2.491 1.903 0 .64-.444 1.104-1.048 1.104-.707 0-1.115-.464-1.115-1.157 0-.659.509-.863.509-1.054 0-.273-.28-.396-.836-.396-1.213 0-1.26.654-1.26 2.104v2.074c0 1.432.128 2.055 1.294 2.055 1.129 0 1.934-.674 2.359-1.968l.376.137zm1.91-4.092h-.937v-.521h.937v-2.085c.311.031.626.051.95.051.411 0 .819-.034 1.247-.087v2.121h1.311v.521h-1.311v4.698c0 .567.114.758.525.758.408 0 .685-.38.738-.984h.442c-.064 1.174-.967 1.935-2.278 1.935-1.428 0-1.624-.503-1.624-1.708v-4.699zm4.491 5.716h.97v-5.699h-1.068v-.518c1.183-.036 2.295-.104 3.329-.206v6.423h1.015v.517h-4.246v-.517zm2.066-10.342c.623 0 1.132.533 1.132 1.204 0 .66-.509 1.211-1.146 1.211-.643 0-1.132-.551-1.132-1.211 0-.67.526-1.204 1.146-1.204m6.695 3.919c2.298 0 3.835 1.501 3.835 3.558 0 2.052-1.537 3.572-3.835 3.572-2.295 0-3.818-1.498-3.818-3.556-.001-2.056 1.523-3.574 3.818-3.574m-1.281 3.558v.688c0 1.747.084 2.472 1.297 2.472 1.213 0 1.277-.777 1.277-2.902v-1c0-1.678-.098-2.401-1.277-2.401-1.246-.001-1.297.863-1.297 3.143M130.625 139.905v-5.733h-1.082v-.536c1.065 0 2.164-.033 3.329-.117v1.708c.621-1.191 1.409-1.728 2.605-1.728 1.708 0 1.887.827 1.887 2.451v3.955h.947v.517h-4v-.517h.838v-4.766c0-.621-.198-.914-.673-.914-.755 0-1.59 1.118-1.59 2.451v3.229h.819v.517h-4.064v-.517h.984zm15.142.691c-1.115 0-1.723-.623-1.723-1.694 0-1.397 1.477-2.397 4.132-2.397v-1.644c0-.705-.196-.932-1.099-.932-.559 0-.836.138-.836.4 0 .17.297.413.297.897 0 .656-.397 1.02-1.099 1.02-.624 0-.968-.38-.968-1.057 0-1.07 1.063-1.707 3.03-1.707.923 0 1.61.153 2.019.38.64.344.673.776.673 1.57v3.486c0 .399.146.59.506.59.216 0 .297-.154.408-.154.101 0 .168.084.168.171 0 .296-.576 1.07-1.543 1.07-.704 0-1.277-.431-1.507-1.174-.653.828-1.394 1.175-2.458 1.175m2.212-3.625c-1.279 0-1.788.326-1.788 1.311 0 .95.243 1.364.902 1.364.623 0 1.082-.464 1.082-1.228v-1.447h-.196zm4.677 2.934v-5.733h-1.082v-.536c1.063 0 2.164-.033 3.326-.117v1.708c.624-1.191 1.412-1.728 2.605-1.728 1.708 0 1.887.827 1.887 2.451v3.955h.95v.517h-4v-.517h.839v-4.766c0-.621-.195-.914-.674-.914-.755 0-1.59 1.118-1.59 2.451v3.229h.818v.517h-4.066v-.517h.987zm13.548-.551c-.491.861-1.196 1.274-2.118 1.274-1.702 0-3.011-1.537-3.011-3.555 0-2.091 1.294-3.592 3.011-3.592.922 0 1.627.433 2.118 1.294v-5.06h-1.263v-.52c1.361-.034 2.523-.104 3.477-.204v10.912h.887v.517h-3.101v-1.066zm0-2.937c0-1.521-.757-2.435-1.819-2.435-.69 0-.805.38-.805 1.261v3.592c0 .899.134 1.311.805 1.311 1.063 0 1.819-.914 1.819-2.435v-1.294zm10.15 3.452v-10.155h-1.3v-.517h5.462c1.429 0 2.527.243 3.522 1.003 1.3.984 2.102 2.692 2.102 4.612 0 1.917-.819 3.642-2.149 4.646-.9.671-2.046.964-3.539.964h-5.397v-.553h1.299zm4.047 0c.967 0 1.573-.067 2.035-.654.556-.727.653-1.951.653-3.748v-.791c0-1.834-.033-3.131-.441-3.941-.464-.897-1.115-1.021-2.247-1.021h-1.345v10.155h1.345zm13.826-1.585c-.543 1.585-1.571 2.328-3.229 2.328-2.298 0-3.737-1.397-3.737-3.488 0-2.052 1.54-3.642 3.706-3.642 1.965 0 3.181 1.227 3.181 3.194v.084h-4.299v1.693c0 1.208.263 1.728 1.316 1.728 1.309 0 2.209-.692 2.684-2.037l.378.14zm-2.211-2.038v-1.313c0-.727-.33-1.04-1.082-1.04-.722 0-1.085.333-1.085 1.04v1.313h2.167zm3.342-2.04h-.688v-.518h3.933v.518h-.819l1.591 3.781 1.294-3.127c.051-.101.098-.204.098-.381 0-.17-.146-.273-.441-.273h-.704v-.518h2.642v.518h-.445c-.263 0-.407.104-.572.483l-2.477 5.977h-.444l-2.968-6.46zm14.242 4.078c-.539 1.585-1.573 2.328-3.231 2.328-2.289 0-3.734-1.397-3.734-3.488 0-2.052 1.54-3.642 3.707-3.642 1.968 0 3.178 1.227 3.178 3.194v.084h-4.293v1.693c0 1.208.263 1.728 1.311 1.728 1.308 0 2.214-.692 2.687-2.037l.375.14zm-2.211-2.038v-1.313c0-.727-.33-1.04-1.082-1.04-.724 0-1.081.333-1.081 1.04v1.313h2.163zm3.782 3.659v-10.191h-1.065v-.517c1.183-.034 2.298-.101 3.332-.204v10.912h1.031v.517h-4.243v-.517h.945zm7.895-6.423c2.295 0 3.838 1.501 3.838 3.558 0 2.052-1.543 3.572-3.838 3.572-2.297 0-3.82-1.498-3.82-3.556 0-2.056 1.524-3.574 3.82-3.574m-1.279 3.558v.688c0 1.747.081 2.472 1.294 2.472s1.28-.777 1.28-2.902v-1c0-1.678-.098-2.401-1.28-2.401-1.247-.001-1.294.863-1.294 3.143M223.785 143.688h.92v-9.481h-1.065v-.518c1.18-.036 2.292-.104 3.329-.206v1.294c.492-.861 1.18-1.294 2.097-1.294 1.722 0 3.016 1.501 3.016 3.592 0 2.018-1.311 3.555-3.016 3.555-.917 0-1.604-.413-2.097-1.274v4.333h1.18v.52h-4.363v-.521zm5.806-8.392c0-.9-.081-1.313-.822-1.313-1.048 0-1.8.914-1.8 2.435v1.294c0 1.521.735 2.435 1.8 2.435.71 0 .822-.428.822-1.294v-3.557zm4.357 4.609v-5.716h-1.018v-.521c1.001 0 2.065-.05 3.212-.14v1.711c.606-1.19 1.395-1.722 2.561-1.722 1.196 0 1.836.567 1.87 1.671.606-1.154 1.392-1.671 2.571-1.671.738 0 1.264.207 1.604.634.249.313.279.728.279 1.228v4.525h1.004v.517h-4.067v-.517h.85v-4.749c0-.62-.195-.9-.668-.9-.755 0-1.593 1.073-1.593 2.438v3.212h.808v.517h-3.808v-.517h.833v-4.749c0-.62-.192-.9-.671-.9-.751 0-1.557 1.107-1.557 2.438v3.212h.806v.517h-3.902v-.517h.886zm19.754-1.621c-.54 1.585-1.574 2.328-3.229 2.328-2.292 0-3.74-1.397-3.74-3.488 0-2.052 1.546-3.642 3.706-3.642 1.968 0 3.179 1.227 3.179 3.194v.084h-4.294v1.693c0 1.208.266 1.728 1.314 1.728 1.311 0 2.214-.692 2.686-2.037l.378.14zm-2.214-2.038v-1.313c0-.727-.327-1.04-1.082-1.04-.719 0-1.082.333-1.082 1.04v1.313h2.164zm4.134 3.659v-5.733h-1.082v-.536c1.063 0 2.161-.033 3.326-.117v1.708c.624-1.191 1.409-1.728 2.608-1.728 1.702 0 1.884.827 1.884 2.451v3.955h.95v.517h-4v-.517h.836v-4.766c0-.621-.195-.914-.674-.914-.749 0-1.587 1.118-1.587 2.451v3.229h.815v.517h-4.063v-.517h.987zm9.171-5.716h-.937v-.521h.937v-2.085c.311.031.623.051.95.051.411 0 .819-.034 1.247-.087v2.121h1.308v.521h-1.308v4.698c0 .567.114.758.522.758.411 0 .688-.38.735-.984h.444c-.064 1.174-.967 1.935-2.275 1.935-1.429 0-1.624-.503-1.624-1.708v-4.699zm-108.811-122.09c-6.236-3.135-14.798-4.342-21.601-1.449-14.113 6.143-19.113 21.478-19.242 35.763.271 8.083 2.42 15.425 6.49 21.854 2.636-2.061 3.835-5.037 5.115-7.783 1.917-4.829 2.955-9.986 2.856-15.585.447-10.56 4.433-22.199 14.898-26.746 8.047-2.988 16.167.492 21.66 6.837 6.649 8.014 9.363 19.481 6.451 29.838-1.801 7.868-7.701 16.972-16.095 19.137-4.07 1.15-8.839.51-12.425-1.47-2.113 3.36-4.869 6.584-8.114 8.949v.073c6.107 2.764 14.267 2.278 20.083-.956-10.792 8.078-27.649 10.241-40.435 4.886-3.175-1.297-6.27-2.935-9.132-4.995 6.688 3.782 17.162 4.819 24.187.528 11.438-6.854 16.069-19.368 16.779-31.803.453-9.245-1.962-17.611-6.432-24.844-2.739 2.175-4.022 5.276-5.277 8.196-2.065 5.193-2.837 10.872-2.762 16.865-.796 9.805-4.886 20.488-14.448 24.896-6.977 2.989-14.8.334-20.133-4.877-8.766-8.546-11.48-22.753-7.385-34.324 2.046-6.935 7.833-14.703 15.242-16.459 3.927-1.182 8.718-.453 12.268 1.458 2.06-3.271 4.939-6.513 8.154-8.756l-.003-.089c-5.814-2.65-14.127-2.285-19.784.75 9.951-7.178 25-9.655 37.245-5.651 4.157 1.372 8.162 3.158 11.84 5.757"/></g></svg>