<svg version="1" xmlns="http://www.w3.org/2000/svg" width="40" height="40" viewBox="0 0 40 40"><path fill="#fff" d="M26.664 10.757c-1.695-.852-4.021-1.18-5.872-.394-3.836 1.67-5.195 5.838-5.23 9.721.074 2.197.658 4.193 1.764 5.941.716-.561 1.042-1.369 1.391-2.117.521-1.313.803-2.714.776-4.235.122-2.871 1.205-6.034 4.05-7.27 2.188-.812 4.395.134 5.887 1.858 1.809 2.178 2.545 5.295 1.754 8.11-.488 2.139-2.094 4.613-4.375 5.203-1.105.313-2.402.139-3.377-.4-.574.914-1.322 1.789-2.206 2.432v.021c1.661.75 3.877.619 5.459-.26-2.934 2.195-7.516 2.783-10.991 1.326-.863-.352-1.704-.797-2.482-1.357 1.818 1.029 4.665 1.311 6.574.145 3.11-1.863 4.368-5.264 4.562-8.645.123-2.513-.533-4.787-1.748-6.752-.744.591-1.094 1.434-1.434 2.228-.563 1.412-.772 2.955-.751 4.584-.217 2.666-1.328 5.568-3.927 6.768-1.896.813-4.023.09-5.473-1.326-2.382-2.322-3.12-6.185-2.007-9.33.556-1.885 2.129-3.996 4.143-4.474 1.067-.321 2.37-.123 3.334.396.56-.889 1.342-1.77 2.216-2.38l-.001-.026c-1.58-.72-3.84-.621-5.377.204 2.705-1.951 6.795-2.624 10.125-1.536 1.128.373 2.216.859 3.216 1.565"/><path fill="#fff" d="M19.999 1.54c10.225 0 18.543 8.318 18.543 18.542 0 10.224-8.318 18.542-18.543 18.542-10.224 0-18.542-8.318-18.542-18.542 0-10.224 8.317-18.542 18.542-18.542m0-1.458c-11.045 0-20 8.954-20 20 0 11.045 8.955 20 20 20 11.046 0 20.001-8.955 20.001-20 0-11.046-8.955-20-20.001-20z"/></svg>