<svg version="1" xmlns="http://www.w3.org/2000/svg" width="178" height="49" viewBox="0 0 178 49"><path fill-rule="evenodd" clip-rule="evenodd" fill="#fff" d="M76.583 31.565c.163 1.244.107 2.532-.282 3.726-.302.935-.846 1.803-1.593 2.444-1.132.983-2.641 1.406-4.113 1.479-1.285.043-2.571.011-3.857.02v-12.834c1.115 0 2.229-.006 3.343.006 1.128.012 2.275.178 3.309.651.841.386 1.592.974 2.125 1.728.589.819.923 1.793 1.068 2.78zm9.39-1.614c-.748 1.763-1.504 3.522-2.251 5.291h5.849l-2.921-6.861c-.241.515-.451 1.049-.677 1.57zm-31.58-.943c-.886 2.074-1.774 4.154-2.654 6.234h5.847c-.969-2.29-1.948-4.573-2.92-6.861-.106.199-.181.418-.273.627zm74.607-29.008v49h-128.969v-49h128.969zm-111.693 39.234h-7.497v-6.033h6.893v-1.673h-6.893v-5.128h7.334c.005-.559 0-1.114 0-1.67h-9.145v16.174h9.307l.001-1.67zm13.214-4.414c-.293-.699-.822-1.276-1.432-1.727-.865-.641-1.852-1.092-2.83-1.53-.771-.36-1.564-.686-2.251-1.19-.371-.26-.683-.627-.85-1.053-.306-.803-.176-1.803.45-2.421.655-.69 1.681-.899 2.596-.759.463.068.923.228 1.294.516.4.291.687.705.929 1.136l1.56-.79c-.182-.258-.311-.547-.521-.784-.57-.766-1.394-1.329-2.307-1.586-.835-.219-1.718-.263-2.566-.102-.999.185-1.956.7-2.587 1.508-.584.729-.868 1.685-.812 2.614.023.797.264 1.605.77 2.236.594.748 1.44 1.244 2.284 1.666.901.461 1.857.812 2.754 1.286.617.335 1.243.729 1.638 1.327.339.51.437 1.142.409 1.745-.037.808-.404 1.631-1.092 2.084-.794.539-1.805.617-2.733.521-.64-.073-1.273-.292-1.802-.668-.784-.529-1.31-1.355-1.68-2.215l-1.561.725c.368.952.91 1.855 1.701 2.525.751.655 1.694 1.063 2.674 1.239.927.156 1.893.139 2.812-.068.901-.207 1.759-.643 2.387-1.328.68-.739 1.044-1.727 1.095-2.722.038-.736-.032-1.498-.329-2.185zm15.888 6.084l-.767-1.063c-1.959-2.684-3.902-5.373-5.872-8.054l3.951-4.319c.831-.914 1.671-1.813 2.493-2.734-.668-.009-1.337 0-2.005-.003l-.223.012c-2.586 2.854-5.168 5.719-7.762 8.569v-8.581h-1.81v16.174h1.81c.005-1.744-.005-3.495.005-5.24.766-.863 1.563-1.704 2.34-2.562 1.879 2.603 3.778 5.194 5.652 7.798.731.009 1.46.003 2.188.003zm15.611 0c-2.441-5.584-4.883-11.169-7.334-16.747-.602 1.36-1.192 2.729-1.792 4.094-1.839 4.222-3.681 8.435-5.521 12.653.636 0 1.272.006 1.909-.004.572-1.334 1.162-2.655 1.736-3.988h7.287c.576 1.328 1.167 2.654 1.736 3.988.662.01 1.319 0 1.979.004zm16.456-7.888c.015-.981-.091-1.971-.38-2.91-.325-1.111-.905-2.151-1.704-2.987-.706-.741-1.574-1.316-2.521-1.698-1.169-.486-2.442-.677-3.7-.687-1.75-.003-3.495-.003-5.245-.003v16.174h4.688c1.184.01 2.38-.063 3.519-.421.994-.294 1.936-.779 2.73-1.448.784-.663 1.415-1.5 1.837-2.434.522-1.118.754-2.357.776-3.586zm15.526 7.888c-2.441-5.584-4.883-11.169-7.333-16.747-.916 2.069-1.812 4.149-2.722 6.229-1.526 3.505-3.063 7.012-4.584 10.519.63 0 1.265.006 1.901-.004.572-1.334 1.162-2.655 1.736-3.988h7.288c.576 1.328 1.166 2.654 1.736 3.988.662.009 1.32-.001 1.978.003zm5.841-6.726c0-.751-.607-1.359-1.358-1.359-.748 0-1.357.608-1.357 1.359 0 .748.609 1.355 1.357 1.355.75 0 1.358-.607 1.358-1.355zm21.556-9.935l-8.093 11.122-8.06-11.11v16.652h1.811c0-3.779-.005-7.562 0-11.342l6.249 8.63 6.278-8.614c.009 3.772.004 7.547.004 11.326h1.811v-16.664zm49.526-4.272c5.092-3.747 6.457-7.829 2.441-13.107-.906-1.191-3.715-4.249-5.256-4.293-1.637-.046-4.851.104-6.354.67-1.166.438-5.616 4.03-6.154 5.096-.844 1.662-.79 6.863.354 8.368 1.046 1.375 3.798 4.626 5.285 5.336 1.868.891 3.718.286 5.631-.048 1.851-.325 2.598-.952 4.053-2.022zm-1.801-14.737c.961.609 2.421 1.338 3.105 2.238.66.868 1.252 2.313 1.561 3.365.907 3.067-1.037 6.202-3.39 8.034-1.036.805-2.206.936-3.455 1.132-1.427.22-3.531.931-4.907.382-1.335-.531-2.382-1.577-3.24-2.703-.662-.872-1.076-2.087-1.525-3.087-1.902-4.232-.502-5.962 2.849-8.571 2.286-1.78 6.485-2.389 9.002-.79zm-2.309 11.532c.418-.13.82-.351 1.183-.598.423-.289.813-.633 1.158-1.01.171-.183.333-.375.465-.588.127-.206.224-.427.315-.648.213-.514.128-1.433.088-1.985-.016-.229-.039-.462-.036-.692l.012-.285c.018-.423-.005-.624-.138-1.027-.115-.343-.238-.687-.415-1.002-.189-.342-.436-.63-.72-.9-.169-.153-.356-.292-.545-.424-.235-.164-.479-.318-.731-.461-.808-.463-1.535-.419-2.429-.348l-.31.022c-.582.04-1.163.123-1.709.335-.595.23-1.085.583-1.513 1.051-.229.246-.412.521-.566.816-.142.273-.256.558-.363.845-.111.293-.215.589-.294.894-.082.319-.134.645-.134.973 0 .465.048.933.129 1.387.069.385.171.79.335 1.146.143.305.331.58.543.837.209.25.439.477.675.7.347.321.727.577 1.164.76.401.172.825.272 1.25.354.418.08.853.098 1.278.075.431-.023.866-.093 1.279-.218l.033-.008h-.004v-.001zm.926-2.306l-.538.401c-.133.093-.285.167-.435.235-.219.099-.442.184-.669.266l-.002.004-.044.015c-.299.103-.607.1-.921.097h-.189c-.206-.002-.446-.072-.648-.139v.003l-.385-.13-.092-.028c-.33-.099-.694-.329-.974-.527-.17-.121-.46-.328-.563-.501l-.012-.016-.108-.226c-.156-.322-.319-.644-.439-.979-.129-.361-.132-.786-.123-1.169h-.008l.013-.215c.015-.301.211-.776.325-1.057v-.014l.013-.028c.124-.307.389-.968.6-1.196.16-.174.4-.319.606-.435.335-.188.686-.344 1.041-.482l.012-.004.011-.005c.25-.074.506-.141.765-.176.238-.037.482-.046.719-.014l.143.018c.309.04.641.081.926.214.168.082.326.194.476.307.168.131.324.272.479.419.205.191.343.447.475.694l.116.212c.129.23.159.511.186.767l.052.393.042.227c.063.34.114.634.042.978l-.089.524c-.063.44-.129.92-.439 1.26-.091.098-.198.184-.302.264l-.057.044h-.005v-.001zm9.991-14.003h-2.101c-1.195 0-1.553.251-.484 1.082.48.373.95.777 1.359 1.227.766.839 1.226 1.163 1.226-.126v-2.183zm-19.719.681c-.755.286-1.309.69-1.616.966-1.246 1.103-2.558 2.254-3.33 3.758-.663 1.29-1.161 2.726-1.688 4.078-.62 1.597.262 5.811 1.013 7.345.594 1.216 1.147 2.742 2.076 3.737.993 1.069 1.808 2.065 3.124 2.769 1.214.648 2.891 1.495 4.226 1.775.664.142 1.331.273 2.001.389.629.11 1.389.245 2.026.245 2.559 0 4.195-1.668 6.24-2.904 1.461-.882 2.108-1.937 3.109-3.252 2.513-3.303 2.538-2.3 2.538-5.91v-4.166c0-2.181.172-2.717-1.662-5.308-1.104-1.561-2.538-2.905-4.285-3.627-2.313-.958-12.008-.564-13.772.105zm-5.102-.681h-1.216c-.634 0-1.001.17-1.581.943-.351.468-.707.971-.965 1.449-2.475 4.6-2.964 3.93-2.964 9.934 0 2.296 1.308 4.236 2.051 6.326.52 1.464 1.627 3.251 2.453 4.562.836 1.324 1.517 2.151 2.665 3.219 1.408 1.309 1.855 1.938 3.552 2.768 1.258.61 2.39 1.323 3.771 1.651 1.492.357 3.043.598 4.581.598 2.187 0 4.94.117 7.009-.602 1.132-.395 2.467-.971 3.651-1.655 1.688-.974 1.814-1.869 1.814-3.2v-3.621c0-1.879-.263-2.413-1.63-1.112-1.539 1.463-4.19 4.862-6.065 5.55-1.644.604-2.451.781-4.217.781-2.739 0-6.09-.539-8.463-1.938-2.149-1.265-4.291-3.303-5.621-5.41-1.553-2.456-2.542-4.576-2.542-7.549 0-1.947.089-3.999.828-5.824.669-1.654 2.361-3.865 3.912-5.538 1.041-1.125.817-1.332-1.023-1.332zm-6.577 0h-.786c-1.035 0-1.39.161-1.854.977-.102.178-.183.362-.262.544-.607 1.368-1.659 2.596-2.022 4.064-.485 1.974.195 4.101.195 6.111 0 2.149.398 4.467.927 6.545.525 2.063 1.303 4.528 2.321 6.396 1.05 1.93 2.473 3.304 3.969 4.868 1.723 1.806 2.29 3.683 4.453 4.927.601.349 1.4.623 2.056.858.673.241 1.378.468 2.035.741 2.999 1.259 4.846 1.093 8.011 1.093 1.201 0 2.461-.092 3.651-.253 2.204-.303 4.479.279 6.578-.644.413-.093.832-.287 1.26-.534.951-.549.867-1.006.867-1.99v-1.18c0-1.536.027-2.118-1.174-1.268-.671.475-1.446.859-2.35 1.176-2.313.812-6.036.938-8.509.938-3.004 0-5.563-.502-8.301-1.729-1.82-.815-2.877-1.438-4.409-2.729-1.729-1.455-3.855-3.31-5.063-5.224-.821-1.302-1.5-3.055-2.026-4.499-.544-1.497-1.222-3.082-1.426-4.669-.067-.525.017-1.446.045-1.985.064-1.188.154-2.38.263-3.565-.108-3.232 1.117-5.021 2.477-7.516.715-1.308.435-1.453-.926-1.453zm-5.541 0h-1.018c-.396 0-.647.019-.963.478-.495.722-1.047 1.417-1.323 2.216-.444 1.288-1.023 2.681-1.317 4.001-1.002 2.435.71 11.604 1.481 14.646.449 1.773 1.242 3.229 2.015 4.863.784 1.671 1.988 2.608 3.035 4.078.956 1.343 1.429 2.757 2.578 3.937 1.416 1.453 2.457 2.457 4.123 3.582 1.563 1.058 3.257 1.93 4.993 2.667 1.592.673 3.096 1.524 4.795 1.914 2.165.499 4.163 1.437 6.434 1.437 1.879 0 3.914-1.6 5.751-1.912 1.646-.279 3.122-.503 4.701-1.078.326-.116.635-.259.932-.421.626-.34.723-.552.723-1.197v-1.2c0-1.221-.156-1.139-1.101-.717-.759.34-1.533.65-2.313.899-.545.175-1.521.26-2.098.327-1.213.143-2.432.258-3.648.363-1.248.109-2.498.208-3.746.286-.574.037-1.52.133-2.081.07-3.269-.356-6.569-1.403-9.496-2.901-1.437-.738-2.829-1.467-4.115-2.46-2.226-2.122-2.978-3.713-5.121-6.863-.628-1.109-1.087-2.527-1.46-3.748-.377-1.232-1.1-2.473-1.448-3.71-.67-2.373-1.286-4.723-1.286-7.208 0-.734-.186-1.703-.293-2.442-.091-.639-.294-1.786-.233-2.408.147-1.515 1.224-4.196 2.159-6.159.602-1.271.289-1.34-.66-1.34zm-6.069 0h-3.724v23.046c0 1.915.316 2.662.764 3.726.647 1.529 1.23 2.696 1.989 4.017 2.03 3.543 4.361 6.008 4.912 7.16 1.307 2.747 4.597 4.53 7.574 6.371 1.958 1.214 5.36 2.44 8.261 3.371 1.709.545 2.862.853 5.433.853h17.8v-4.582c0-2.113-.549-1.672-2.145-1.243-.823.221-1.674.347-2.491.541-1.402.337-2.922 1.061-4.268 1.604-1.284.52-3.045 1.209-4.436 1.209-2.412 0-7.479-2.229-9.724-3.237-2.103-.947-4.19-1.962-6.225-3.045-.747-.4-1.491-.808-2.218-1.242-.354-.212-.867-.51-1.17-.792-.836-.775-.962-1.647-1.738-2.486-.773-.84-1.571-1.713-2.279-2.609-.864-1.092-1.498-2.129-2.528-3.079-1.001-.92-1.788-2.219-2.367-3.455-.306-.652-.491-2.008-.6-2.729-.221-1.486-.325-2.989-.471-4.484-1.233-3.506-2.204-12.181-.654-15.139.263-.893.665-1.965 1.196-2.887.554-.961-.226-.889-.891-.889zm-3.724 48.543h15.078c2.517 0 4.01-.202 1.627-1.022-1.287-.441-5.121-2.688-7.96-4.819-2.355-1.766-4.785-4.59-6.304-7.599-2.125-4.211-2.441-2.47-2.441 1.041v12.399z"/></svg>