<svg version="1" xmlns="http://www.w3.org/2000/svg" width="247" height="32" viewBox="0 0 247 32"><path fill-rule="evenodd" clip-rule="evenodd" fill="#fff" d="M83.416 15.554h-8.277v15.686h-3.375v-19.058h12.861l-1.209 3.372zm14.896 15.686h-3.78l-1.93-5.379h-6.084l-1.818 5.379h-3.626l6.82-19.059h3.171l7.247 19.059zm-6.839-8.574l-2.034-6.048-1.896 6.048h3.93zm23.839 8.587h-3.375v-15.699h-6.106l-.012 7.697v.266c0 .804-.032 1.507-.1 2.113-.121 1.082-.339 1.929-.655 2.543-.377.732-.721 1.283-1.029 1.645-.378.444-.854.876-1.479 1.163-.294.136-.741.255-1.942.255l-1.228-3.105c.502.014 1.113-.062 1.361-.145.266-.089.666-.314.833-.541.27-.367.518-.912.69-1.637.124-.519.213-1.09.25-1.714.016-.262.035-.533.035-.804v-11.108h12.757v19.071zm17.161-.013h-3.376v-8.386h-7.417v8.386h-3.375v-19.058h3.375v7.3h7.417v-7.3h3.376v19.058zm19.196 0h-3.779l-1.931-5.379h-6.083l-1.818 5.379h-3.626l6.819-19.059h3.171l7.247 19.059zm-6.838-8.574l-2.035-6.048-1.895 6.048h3.93zm23.963-.937c0 1.492-.387 2.832-1.152 4.015-.37.57-.822 1.081-1.36 1.526-.539.447-1.145.833-1.833 1.135-.405.177-1.138.32-1.628.454-.488.132-.963.235-1.422.31l.282 2.072h-3.374l-.282-2.121c-.934-.139-1.529-.424-2.362-.833-.677-.332-1.274-.702-1.775-1.144-.501-.44-.939-.949-1.306-1.531-.368-.582-.64-1.183-.813-1.797-.173-.615-.258-1.262-.258-1.942 0-1.213.203-2.287.608-3.229.406-.943 1.026-1.768 1.865-2.461 1.19-.985 2.482-1.597 4.171-1.854l-.462-2.146h3.428l.456 2.107c1.032.131 2.104.409 3.007.833 1.362.64 2.406 1.535 3.128 2.688.722 1.154 1.082 2.46 1.082 3.918zm-3.715.012c0-.956-.21-1.795-.608-2.531-.187-.345-.414-.657-.689-.925-.278-.268-.6-.504-.971-.698-.164-.085-.343-.163-.536-.23l-.594-.192v9.142c.782-.188 1.454-.567 2.043-1.101.893-.807 1.355-1.946 1.355-3.465zm-6.772 4.477v-8.988c-.616.188-1.19.495-1.716.921-.46.375-.803.877-1.024 1.501-.222.627-.331 1.388-.331 2.282 0 .715.11 1.349.323 1.89.214.54.551 1.006.998 1.396.529.459 1.109.794 1.75.998zm25.319-10.664h-5.476v15.686h-3.375v-15.686h-5.451v-3.372h14.302v3.372zm18.583 6.161c0 .965-.088 1.873-.269 2.719-.182.846-.448 1.66-.813 2.436-.721 1.527-1.759 2.689-3.109 3.49s-2.79 1.2-4.318 1.2c-1.68 0-3.174-.431-4.478-1.296-1.304-.866-2.313-2.064-3.017-3.601-.671-1.465-1.006-3.041-1.006-4.729 0-1.559.199-2.956.597-4.185.398-1.231.993-2.295 1.772-3.189 1.574-1.806 3.622-2.71 6.142-2.71.829 0 1.607.101 2.336.306.731.205 1.422.535 2.087.96 1.295.826 2.318 1.998 3.037 3.538.34.731.598 1.533.773 2.392.178.858.266 1.753.266 2.669zm-3.443 0c0-.688-.055-1.318-.158-1.889-.104-.572-.268-1.121-.486-1.649-.39-.946-.978-1.685-1.764-2.217-.785-.532-1.665-.799-2.636-.799-1.397 0-2.597.511-3.587 1.531-.994 1.024-1.491 2.785-1.491 5.28 0 1.977.479 3.518 1.438 4.626.959 1.107 2.161 1.662 3.606 1.662 1.467 0 2.681-.561 3.642-1.677.957-1.11 1.436-2.734 1.436-4.868zm18.149-6.161h-8.616v15.686h-3.376v-19.058h13.123l-1.131 3.372zm15.07 15.686h-3.78l-1.93-5.379h-6.084l-1.818 5.379h-3.626l6.819-19.059h3.172l7.247 19.059zm-6.839-8.574l-2.034-6.048-1.896 6.048h3.93zm20.861 2.692c0 1.741-.647 3.221-1.953 4.425-.643.592-1.363 1.034-2.15 1.335-.785.302-1.663.454-2.635.454-1.723 0-3.178-.513-4.358-1.545-.594-.521-1.049-1.141-1.375-1.854-.351-.769-.586-1.711-.69-2.827l3.354-.445c.165.851.336 1.487.508 1.902.174.418.404.748.69.999.518.455 1.148.689 1.895.689.459 0 .872-.073 1.237-.218.361-.143.7-.384 1.021-.703.597-.593.901-1.313.901-2.186 0-.79-.273-1.457-.824-1.994-.547-.535-1.268-.803-2.152-.803-.22 0-.487.01-.781.033l-1.468.112.419-2.95.916-.096c.396-.041.782-.082 1.156-.193.373-.111.733-.263 1.066-.475.572-.367.849-.948.849-1.711 0-.599-.221-1.108-.656-1.523-.436-.417-1.021-.628-1.748-.628-.718 0-1.315.214-1.784.65-.254.234-.452.555-.605.934-.154.383-.296.951-.424 1.701l-3.397-.598c.204-1.1.486-2.003.847-2.714.332-.653.772-1.221 1.329-1.685 1.076-.896 2.408-1.344 3.989-1.344 1.112 0 2.121.229 3.027.686.908.456 1.62 1.091 2.131 1.902.513.814.767 1.706.767 2.666 0 .907-.257 1.724-.755 2.47-.248.371-.539.706-.895.999.293.152.57.332.824.537.258.205.482.444.69.716.334.435.594.925.771 1.47s.263 1.15.263 1.812zm-124.374-17.685h-1.464v-3.211h-3.216v3.211h-1.463v-7.298h1.463v2.795h3.216v-2.795h1.464v7.298zm-14.097 0h-5.87v-7.298h5.702v1.292h-4.239v1.596h3.97v1.288h-3.97v1.831h4.406v1.291h.001zm-6.59 1.386h-1.463v-1.328h-5.629v-7.356h1.464v6.055h3.216v-6.055h1.464v6.055h.949v2.629h-.001zm-8.376-1.386h-1.463v-3.211h-3.216v3.211h-1.464v-7.298h1.464v2.795h3.216v-2.795h1.463v7.298zm-14.11 0h-1.895l-2.458-3.317-.881.812v2.506h-1.464v-7.299h1.464v3.029l3.196-3.029h2.032l-3.308 3.034 3.314 4.264zm6.832-3.519c0 .369-.039.717-.117 1.041-.079.324-.194.636-.353.933-.313.586-.763 1.03-1.348 1.337s-1.209.459-1.873.459c-.729 0-1.376-.164-1.941-.496-.565-.331-1.003-.79-1.309-1.378-.291-.562-.436-1.166-.436-1.812 0-.596.086-1.131.259-1.603.173-.471.43-.878.769-1.221.682-.691 1.571-1.038 2.663-1.038.36 0 .697.039 1.013.117.317.079.62.201.905.367.565.313 1.005.765 1.316 1.355.148.28.259.586.336.916s.116.672.116 1.023zm-1.494 0c0-.264-.023-.505-.069-.724-.045-.219-.116-.429-.21-.632-.169-.362-.425-.645-.765-.849-.341-.203-.722-.306-1.143-.306-.606 0-1.126.195-1.556.586-.431.393-.646 1.066-.646 2.022 0 .756.208 1.346.623 1.771.416.425.938.637 1.564.637.637 0 1.163-.215 1.579-.642.415-.425.623-1.046.623-1.863zm31.066-1.567c0 .318-.056.611-.167.884-.111.272-.275.521-.49.747-.214.225-.511.396-.89.511-.378.115-.846.174-1.4.174h-1.581v2.77h-1.464v-7.298h2.961c.259 0 .478.005.66.015.181.01.339.027.477.054.389.061.718.181.989.357s.49.425.657.744c.081.164.144.33.186.5.04.17.062.351.062.542zm-1.493.026c0-.229-.06-.423-.181-.585s-.266-.261-.434-.302c-.167-.041-.45-.062-.844-.062h-1.576v1.951h1.595c.535 0 .909-.087 1.122-.262.212-.174.318-.421.318-.74zm-63.188-2.223l8.18-.013.009.108c-7.7.852-13.705 7.413-13.81 15.338-.078 8.396-6.845 15.264-15.203 15.429l-9.291.004v-.027c8.08-.474 14.525-7.211 14.602-15.405.113-8.501 7.013-15.434 15.513-15.434zm2.656.85l-2.656.004v.003c-5.759 0-10.742 3.37-13.139 8.239-.468.951-.837 1.958-1.094 3.004-.258 1.054-.404 2.147-.424 3.269l-.001.073c-.059 6.149-3.615 11.821-9.105 14.566l2.923-.002c5.652-.112 10.535-3.471 12.881-8.283.46-.946.823-1.94 1.072-2.97.252-1.039.393-2.119.411-3.225l.001-.106c.082-6.147 3.643-11.833 9.131-14.572zm-6.647-.794c-5.655.482-10.445 4.04-12.741 8.984h-17.093v.025c-3.437 0-6.239 2.803-6.239 6.239s2.803 6.238 6.239 6.238 6.239-2.803 6.239-6.238c0-1.24-.365-2.398-.993-3.371h10.834c-.273 1.124-.425 2.296-.441 3.499-.079 8.489-7.064 15.433-15.558 15.433h-.082v-.001c-8.462-.044-15.35-6.958-15.35-15.431s6.888-15.387 15.351-15.431l29.834-.002v.056zm16.975-.056l8.18-.013.009.108c-7.7.852-13.705 7.413-13.809 15.338-.079 8.396-6.845 15.264-15.203 15.429l-9.291.004v-.027c8.079-.474 14.525-7.211 14.601-15.405.114-8.501 7.013-15.434 15.513-15.434zm2.656.85l-2.656.004v.003c-5.759 0-10.742 3.37-13.139 8.239-.468.951-.837 1.958-1.094 3.004-.258 1.054-.404 2.147-.424 3.269l-.001.073c-.059 6.149-3.615 11.821-9.104 14.566l2.923-.002c5.652-.112 10.534-3.471 12.88-8.283.461-.946.823-1.94 1.073-2.97.251-1.039.393-2.119.411-3.225l.001-.106c.081-6.147 3.641-11.833 9.13-14.572z"/></svg>