<svg version="1" xmlns="http://www.w3.org/2000/svg" width="173" height="33" viewBox="0 0 173 33"><path fill="#fff" d="M97.563 6.113l-.255 4.016h2.487l.235-4.726 4.012-3.819h-2.2l-3.911 3.922-.689-.522 1.905-3.399h-2.508l-4.789 8.545h2.509l2.39-4.256.814.239zm-1.183 4.887l.192-3.036-1.704 3.036h-4.503l5.763-10.287h4.507l-1.085 1.938 1.93-1.938h3.652v.436-.436l.299.75-4.548 4.333-.261 5.204h-4.242zm11.545-1.892l-.635.161c.133 0 .286-.027.461-.083l.145-.061.017-.008 3.748-6.67-.092-.002c-.267-.002-.453.042-.537.082l-.102.083-3.764 6.657.124.002m.806-7.186c-.355.188-.618.445-.816.798l-3.578 6.381-.141.278-.049.203.063.073c.077.063.266.144.543.2.359.071.853.113 1.473.113h1.433c-.229-.01-.408-.033-.631-.182-.102-.069-.218-.24-.212-.417v-.293l4.024-7.119.024-.029c.103-.132.237-.249.411-.34.203-.096.426-.146.671-.165h-.462c-1.251 0-2.173.186-2.753.499m-.098 8.046c1.257 0 2.188-.184 2.771-.501.355-.188.616-.443.814-.796l3.579-6.381.139-.278.051-.205-.062-.073c-.077-.061-.265-.144-.544-.198-.357-.073-.855-.113-1.473-.113h-1.499c.19.019.37.069.535.163.135.084.339.226.355.545 0 .1-.028.2-.073.277l-.377-.211.377.215-3.919 6.973c-.171.299-.394.366-.641.461-.184.063-.366.103-.548.121h.515zm-2.408.871c-.657-.002-1.2-.042-1.648-.13-.353-.077-.645-.179-.884-.351-.239-.167-.423-.463-.417-.777 0-.194.047-.384.126-.558l.177-.353 3.576-6.377c.274-.491.673-.881 1.166-1.138.787-.419 1.841-.601 3.179-.603h2.408c.657 0 1.2.04 1.648.129.354.075.645.177.883.351.24.165.424.461.418.775 0 .194-.048.384-.127.56l-.177.353-3.576 6.377c-.273.489-.672.879-1.165 1.136-.787.421-1.841.603-3.18.605h-2.407zm16.78-5.39l-2.515 4.519h2.508l4.79-8.545h-2.508l-2.23 3.995h-2.592l2.232-3.995h-2.509l-4.787 8.545h2.506l2.515-4.519h2.59zm-3.994 5.39l2.514-4.521h-.596l-2.516 4.521h-4.503l5.761-10.287h4.504l-2.232 3.997h.596l2.23-3.997h3.762v.436-.436h.744l-5.765 10.287h-4.499zm19.29-.871h7.284l.019-.031h-4.787l2.505-4.487 4.715-.002.018-.029h-4.689l2.223-3.965h4.71l.015-.029h-7.222l-4.791 8.543zm-1.484.871l5.763-10.287h8.47v.436-.436h.736l-.976 1.771h-4.711l-1.248 2.226h4.729l-1.045 1.769h-4.703l-1.532 2.749h4.772l-.97 1.772h-9.285zm17.915-5.106c.221-.015.395-.046.516-.083.179-.059.227-.117.237-.142l1.797-3.188c-.129-.025-.271-.036-.427-.036l-.204-.002-1.919 3.451zm.708.871c1.357.004 2.333-.173 2.884-.466.292-.144.531-.378.736-.748l1.801-3.235c.117-.224.16-.393.162-.486-.017-.019-.098-.069-.248-.109-.288-.082-.964-.14-1.938-.138h-1.713c.169.013.334.038.489.075.137.038.27.083.398.186.13.103.24.301.233.487-.002.106-.009.232-.092.374l-1.907 3.385c-.309.501-.836.637-1.522.675h.717zm-6.588 3.364h2.508l1.877-3.364h.016l2.88-5.181h-2.491l-4.79 8.545zm-1.488.871l5.766-10.287h5.707c1.01.002 1.704.043 2.167.169.436.1.889.416.889.938 0 .305-.103.597-.268.911l-1.804 3.243c-.268.491-.642.875-1.102 1.103-.774.396-1.852.555-3.28.558h-1.691l-1.878 3.365h-4.506zm20.001-5.39l-2.513 4.519h2.51l4.788-8.545h-2.507l-2.229 3.995h-2.59l2.23-3.995h-2.511l-4.787 8.545h2.507l2.516-4.519h2.586zm-3.992 5.39l2.512-4.521h-.594l-2.514 4.521h-4.506l5.766-10.287h4.501l-2.23 3.997h.597l2.229-3.997h3.76v.436-.436h.741l-5.761 10.287h-4.501zm-36.472-.871h6.021l-.365.649-.182.322 2.249-1.138 4.707-8.378h-2.508l-4.78 8.514h-2.63l4.784-8.514h-2.509l-4.787 8.545zm4.011 1.796l.523-.925h-6.02l5.765-10.287h4.503l-4.78 8.514h.632l4.779-8.514h3.762v.436-.436h.741l-4.78 8.514h.143l.197.825-4.889 2.475-.576-.602zm-25.394-10.971l-4.703 4.602-.25 5.131h-3.387l.289-4.629-2.532 4.629h-3.528l5.31-9.733h3.528l-2.281 4.185 4.063-4.185h3.491zm10.721.847c0 .129-.031.263-.09.396l-.159.328-3.598 6.588c-.237.437-.569.771-.998 1-.689.382-1.685.572-2.992.572h-2.422c-.641 0-1.166-.043-1.57-.125-.642-.14-.96-.38-.96-.725 0-.129.032-.261.087-.395l.163-.328 3.597-6.588c.237-.437.572-.773.998-1.002.688-.378 1.686-.57 2.994-.57h2.42c.642 0 1.166.042 1.57.125.639.139.96.382.96.724m-3.599.405c.05-.083.007-.165-.123-.244-.133-.079-.304-.119-.522-.119-.311 0-.559.048-.749.14-.1.056-.184.129-.257.223l-3.977 7.23v.182c0 .119.227.179.678.179.19 0 .391-.04.605-.113.214-.073.347-.157.392-.248l3.953-7.23zm15.784-1.252l-5.309 9.733h-3.527l2.529-4.671h-1.601l-2.532 4.671h-3.526l5.31-9.733h3.526l-2.245 4.13h1.604l2.244-4.13h3.527zm11.613 0l-4.809 8.8h.889l-4.915 2.56.892-1.627h-6.059l5.31-9.733h3.529l-4.812 8.8h1.639l4.81-8.8h3.526zm11.043 0l-.497.931h-4.739l-1.745 3.199h4.738l-.537.931h-4.735l-2.03 3.738h4.808l-.498.933h-8.336l5.31-9.733h8.261zm10.475.695c0 .205-.071.444-.213.722l-1.817 3.352c-.237.445-.547.767-.926.961-.665.351-1.698.526-3.098.526h-1.96l-1.891 3.477h-3.525l5.307-9.733h5.487c.997 0 1.685.054 2.064.161.382.104.572.283.572.534m-3.707.695l.036-.167c0-.119-.098-.205-.302-.257-.2-.05-.421-.078-.657-.078h-.465l-2.421 4.477h.426c.808 0 1.296-.156 1.461-.474l1.922-3.501zm15.213-1.39l-5.308 9.733h-3.526l2.529-4.671h-1.604l-2.53 4.671h-3.525l5.307-9.733h3.529l-2.246 4.13h1.604l2.245-4.13h3.525zm-48.155 15.308c.316.946.473 1.984.473 3.099 0 2.41-.48 4.206-1.48 5.371-.996 1.166-2.562 1.74-4.629 1.738l-.32-.017-.307-.013h-.188v-8.881l-.016-.273-.015-.242c-.002-.219-.068-.345-.21-.451-.142-.107-.378-.175-.717-.173h-.008v14.01h-6.071v-18.162h6.243c1.668 0 2.908.125 3.747.38.836.252 1.559.695 2.17 1.313.573.585 1.016 1.355 1.328 2.301zm1.781 3.099c0 2.694-.605 4.742-1.848 6.135-1.245 1.382-3.109 2.067-5.542 2.065h-.467v3.982h-8.723v-20.391h7.529c1.753 0 3.102.123 4.077.382.969.261 1.804.693 2.51 1.299.785.683 1.397 1.597 1.822 2.729.43 1.137.642 2.4.642 3.799zm-.377 0c0-1.361-.207-2.577-.615-3.665-.411-1.086-.986-1.942-1.717-2.577-.659-.57-1.442-.973-2.361-1.221-.922-.247-2.248-.37-3.98-.37h-7.152v19.64h7.97v-3.982h.843c2.369-.002 4.105-.656 5.262-1.942 1.156-1.293 1.75-3.241 1.75-5.883zm43.691-6.054c.753.735 1.093 2.036 1.095 3.901v9.188h-6.075v-9.383c-.002-.219-.065-.343-.208-.447-.145-.108-.382-.175-.722-.175h-.02v10.005h-6.078v-10.004h-.963v10.005h-6.09v-14.148h15.124c1.867.002 3.178.33 3.937 1.058zm2.407 4.01v10.192h-22.781v-16.376h16.112c2.438.002 4.168.441 5.182 1.375 1.009.946 1.486 2.557 1.487 4.809zm-.376 0c0-2.205-.479-3.709-1.368-4.534-.885-.827-2.528-1.276-4.925-1.272l-15.736-.002v15.625h22.029v-9.817zm-72.939 9.079v-8.871l-.013-.27-.017-.247c-.003-.215-.067-.338-.208-.447-.143-.104-.381-.171-.716-.171h-.009v10.005h-6.069v-14.146h8.045c1.841.002 3.154.34 3.922 1.084.769.751 1.116 2.048 1.118 3.875v9.188h-6.053zm7 .738v-9.815c.002-2.207-.474-3.708-1.366-4.536-.896-.827-2.526-1.276-4.903-1.274h-8.695v15.625h14.964zm-15.151.375v-.188h.188-.188v.188h-.188v-16.376h9.071c2.418.004 4.137.441 5.157 1.375 1.012.946 1.489 2.558 1.489 4.811v10.19h-15.529zm-38.999-27.307h10.702v27.438h-10.702zm-26.179-.002l-5.333 10.779-4.86-10.779h10.193zm.626 27.439h-10.703l-13.052-27.439h10.701l13.054 27.439zm-12.897 0h-10.387l5.292-10.937 5.095 10.937z"/><g fill="#fff"><path d="M65.268 27.639v-27.439h21.849l-.002 4.907c0 2.5-2.453 2.28-3.944 2.28h-6.267v-5.736h-1.324v24.32h1.392v-14.244h4.578c1.681 0 3.039.416 4.079 1.234 1.035.827 1.554 2.078 1.554 3.754v5.565c0 1.312-.248 2.362-.739 3.159-.498.798-1.2 1.364-2.116 1.696-.917.334-2.024.503-3.324.503h-15.736zm-16.709 0v-27.439h-16.022c-1.84 0-3.265.395-4.272 1.169-1.012.779-1.516 2.103-1.516 3.974v22.227l10.26.069v-25.972h1.256v25.972h10.294zm55.565-27.502l-4.703 4.601-.248 5.132h-3.387l.287-4.629-2.53 4.629h-3.526l5.307-9.733h3.528l-2.281 4.185 4.063-4.185h3.49zm10.724.85c0 .127-.029.261-.09.395l-.16.326-3.597 6.59c-.237.437-.571.771-.998 1-.689.38-1.686.572-2.995.572h-2.42c-.641 0-1.165-.044-1.567-.127-.643-.138-.963-.38-.963-.723 0-.129.03-.261.09-.395l.159-.328 3.599-6.59c.237-.434.57-.771.998-1 .688-.38 1.686-.57 2.992-.57h2.422c.644 0 1.166.042 1.57.127.639.136.96.378.96.723m-3.597.401c.047-.083.004-.165-.128-.242-.128-.08-.302-.119-.52-.119-.31 0-.561.048-.749.14-.1.054-.184.127-.257.221l-3.977 7.229v.184c0 .119.227.18.677.18.189 0 .392-.04.606-.113.214-.075.345-.156.39-.25l3.958-7.23zm15.781-1.251l-5.31 9.733h-3.526l2.529-4.673h-1.602l-2.531 4.673h-3.526l5.308-9.733h3.528l-2.246 4.131h1.604l2.246-4.131h3.526zm11.614 0l-4.809 8.8h.889l-4.916 2.561.892-1.627h-6.056l5.307-9.733h3.529l-4.811 8.8h1.637l4.812-8.8h3.526zm11.042 0l-.498.931h-4.737l-1.746 3.2h4.738l-.535.929h-4.738l-2.029 3.74h4.809l-.498.934h-8.337l5.31-9.733h8.261zm10.473.695c0 .205-.07.445-.213.723l-1.813 3.352c-.239.445-.547.764-.929.958-.664.353-1.697.526-3.1.526h-1.957l-1.891 3.479h-3.528l5.31-9.733h5.485c.999 0 1.687.054 2.067.161.382.104.569.284.569.534m-3.703.695l.034-.167c0-.119-.099-.205-.302-.257-.2-.05-.421-.077-.657-.077h-.465l-2.421 4.479h.426c.808 0 1.293-.159 1.46-.474l1.925-3.504zm15.213-1.39l-5.308 9.733h-3.528l2.527-4.673h-1.602l-2.53 4.673h-3.526l5.31-9.733h3.525l-2.244 4.131h1.604l2.246-4.131h3.526zm-44.763 19.337c.006-5.024 4.777-9.067 10.586-9.076v.376c-5.645 0-10.2 3.932-10.21 8.7.01 4.763 4.565 8.697 10.21 8.697 5.646 0 10.2-3.934 10.212-8.697-.012-4.768-4.566-8.7-10.212-8.7v-.376c5.812.008 10.582 4.051 10.586 9.076-.004 5.02-4.774 9.067-10.586 9.075-5.808-.008-10.58-4.055-10.586-9.075"/><path d="M138.466 11.568c.987.088 1.931.303 2.806.631l-.307 1.647c-.027.614.42.628.678.211l.722-1.376c2.706 1.397 4.518 3.918 4.518 6.787 0 4.373-4.217 7.939-9.388 7.939-5.17 0-9.386-3.567-9.386-7.939 0-2.934 1.894-5.502 4.703-6.881l.77 1.47c.262.417.708.403.679-.211l-.319-1.727c.922-.324 1.919-.522 2.958-.576l.46 2.33c.23.698.739.528.844-.045l.262-2.26z"/></g></svg>