<svg version="1" xmlns="http://www.w3.org/2000/svg" width="227" height="77" viewBox="0 0 227 77"><path fill="#fff" d="M27.271 68.34s-.356-.609.239-1.395c2.244-3.012 5.009-7.207 5.479-12.113.005-.055.029-.299.205-.325.146-.003.242.208.338.418 1.586 3.257 3.229 11.241-2.119 19.377-.286.422-.707.613-1.131-.173l-3.011-5.789zm34.2-55.319c-.158-1.508-.943-1.479-1.667-1-13.607 9.347-16.143 22.938-15.743 29.065.016.392.032.783.263.874.294.07.489-.293.531-.385 3.885-7.396 10.914-12.21 16.37-15.5 1.435-.853 1.269-2.034 1.269-2.034l-1.023-11.02zm-54.565 42.998c-.712 1.128-.156 1.538.606 1.602 14.525.995 23.726-7.009 26.805-11.467.202-.28.405-.558.298-.748-.167-.21-.501-.063-.58-.024-6.737 2.982-14.231 2.464-19.81 1.747-1.455-.196-1.986.713-1.986.713l-5.333 8.177zm9.909-22.21c-3.573-3.239-10.814-8.289-14.845-2.07-2.801 4.515.777 10.155 6.199 11.979 9.32 2.992 18.691 2.092 22.392 1.587.492-.081.666-.17.726-.399.034-.198-.096-.362-.346-.484-4.823-2.485-9.565-6.459-14.126-10.613m6.106 25.951c-2.039.793-4.395 2.392-2.848 4.922 1.145 1.789 3.831 1.506 5.396-.169 2.813-3.016 3.195-6.164 2.524-6.744-.656-.574-2.464.975-5.072 1.991zm12.219-19.791c.362-.222.18-1.203.086-2.122-.078-.785-1.128-7.24 2.333-13.683 3.667-6.814 4.821-12.438 4.197-16.054-.629-3.66-5.071-9.124-13.077-6.789-7.195 2.098-7.367 10.89-6.875 14.744 1.656 12.913 10.412 21.874 11.249 22.659.831.788 1.682 1.493 2.087 1.245zm-15.167-12.912l-6.865-3.154c-.652-.329-.949.017-.608.532l4.462 6.188c.439.6.646.973 1.324 1.229l5.107 1.784c.681.229.816-.03.536-.537l-2.474-4.592c-.4-.702-.71-1.107-1.482-1.45m72.843 29.426s-.686.323-1.178.323c-.762 0-1.394-.404-1.394-1.432v-10.538c0-2.418-.585-3.981-1.75-5.233-1.474-1.521-4-2.444-7.086-2.444-4.571 0-6.521 1.115-6.521 1.115v2.891c2.057-1.119 4.261-1.294 6.23-1.294 1.972 0 3.363.848 4.122 1.742.717.851.941 2.05.941 3.707v.961c-.941-.313-2.952-.851-4.608-.851-5.282 0-8.803 2.425-8.803 7.349 0 4.699 3.163 7.336 7.729 7.336 2.28 0 4.964-.982 6.037-2.414.404 1.432 1.79 2.022 3.446 2.022 1.389 0 2.834-.745 2.834-.745v-2.495zm-6.635-4.332c0 1.566-.303 2.896-1.062 3.749-.806.851-2.088 1.505-3.872 1.505-2.908 0-4.413-1.987-4.413-4.806 0-2.461 1.752-4.481 5.445-4.481 1.344 0 3.139.419 3.901.688v3.345zm56.812-23.467c-1.118-.401-2.889-.672-4.095-.672-2.463 0-3.808.605-4.881 1.77-1.165 1.209-1.514 2.977-1.514 5.168v2.756h-3.438v2.722h3.438v19.13h4.067v-19.13h4.964l.796-2.722h-5.76v-3.097c0-1.432.179-2.237.579-2.862.447-.673 1.254-1.032 2.463-1.032s2.441.226 3.38.54v-2.571zm-36.064 0c-1.119-.401-2.889-.672-4.098-.672-2.463 0-3.805.605-4.879 1.77-1.165 1.209-1.513 2.977-1.513 5.168v2.756h-3.437v2.722h3.437v19.13h4.065v-19.13h4.966l.793-2.722h-5.759v-3.097c0-1.432.179-2.237.582-2.862.447-.673 1.253-1.032 2.462-1.032 1.207 0 2.442.226 3.381.54v-2.571zm118.28 9.355s-2.108-.881-5.411-.881c-3.305 0-8.057 1.073-8.057 5.691 0 4.615 5.246 5.951 7.062 6.651 1.814.701 4.517 1.584 4.111 4.661-.258 1.93-1.385 3.269-4.286 3.243-1.727-.016-3.885-.053-6.433-1.116v2.884s3.078.945 6.563.945 8.235-1.385 8.235-6.5c0-5.111-5.138-6.052-7.513-7.103-2.373-1.053-3.672-1.767-3.672-3.803 0-1.428.999-2.846 4.305-2.849 1.406 0 3.032.249 5.096.95v-2.773zm-62.694 10.615c0-7.35-3.741-11.505-9.726-11.505-5.98 0-9.725 4.155-9.725 11.505 0 7.353 3.744 11.464 9.725 11.464 5.984 0 9.726-4.111 9.726-11.464zm-4.067 0c0 6.057-1.86 8.748-5.659 8.748s-5.658-2.691-5.658-8.748c0-6.056 1.859-8.792 5.658-8.792s5.659 2.737 5.659 8.792zm26.674 0c0-7.35-3.744-11.505-9.728-11.505-5.98 0-9.726 4.155-9.726 11.505 0 7.353 3.745 11.464 9.726 11.464 5.984 0 9.728-4.111 9.728-11.464zm-4.069 0c0 6.057-1.859 8.748-5.658 8.748s-5.658-2.691-5.658-8.748c0-6.056 1.859-8.792 5.658-8.792s5.658 2.737 5.658 8.792zm-65.742-8.227h5.287v-2.722h-5.287v-6.956l-4.019 1.2v5.756h-3.154l-.781 2.722h3.935v12.664c0 2.412.313 3.731 1.181 4.822.86 1.082 2.645 1.813 4.711 1.81 1.274.001 3.413-.745 3.413-.745v-2.494s-1.444.364-2.225.367c-1.115.004-1.916-.332-2.395-1.037-.474-.697-.666-1.691-.668-2.995v-12.392zm-43.36-2.978c-3.438-.291-6.088 1.208-7.206 3.4l-.806-3.13h-5.369v2.707h2.88v19.13h4.054v-12.038c0-2.237.315-3.715 1.209-4.832.806-1.029 2.26-2.137 5.237-1.821v-3.416zm-30.073 7.466v-16.993h-4.395v31.668h4.392l.003-11.947h3.128l5.273 9.302c1.217 2.062 2.546 2.778 4.644 2.778 1.441 0 2.741-.745 2.741-.745l-.021-2.479s-.813.469-1.334.473c-.931.011-1.586-.488-2.275-1.745l-5.073-8.758c-.044-.076-.037-.174.015-.244l6.394-8.52h-4.389l-5.562 7.21h-3.541zm164.627 14.835c2.32.105 3.391-.914 3.391-.914v-2.353s-.729.233-1.188.233c-.7 0-1.188-.273-1.188-1.688v-27.02l-4.113 1.054v9.251s-1.639-1.154-3.975-1.154c-3.378 0-6.165 1.095-7.99 3.012-2.102 2.238-3.152 5.526-3.152 9.361 0 5.983 2.923 10.596 9.271 10.596 2.784 0 4.919-.992 6.107-2.353 0-.001.635 1.874 2.837 1.975zm-3.099-9.258c0 1.688-.185 2.921-.778 4.201-.777 1.688-2.465 2.712-4.748 2.712-4.202 0-5.495-3.352-5.495-8.056 0-6.529 2.299-9.485 7.32-9.485 2.222 0 3.701 1.331 3.701 1.331v9.297zm-84.102 12.096c-.15-.067-.35.006-.917.283-3.745 1.883-14.55 7.711-39.188 7.711s-35.443-5.828-39.185-7.711c-.567-.277-.767-.351-.918-.283-.227.12.414.782.414.782 3.232 3.334 17.558 12.441 39.689 12.441 22.132 0 36.458-9.107 39.692-12.441 0 0 .637-.662.413-.782z"/></svg>