<svg version="1" xmlns="http://www.w3.org/2000/svg" width="218" height="59" viewBox="0 0 218 59"><path fill-rule="evenodd" clip-rule="evenodd" fill="#fff" d="M42.965 27.261c-5.901-3.795-11.566 1.024-11.566 1.024l.062-6.024-31.432-.004-.003 5.302 25.289.003c2.005 27.168-15.688 25.547-15.688 25.547-7.356-.491-9.627-5.372-9.627-5.372v8.01c3.495 2.713 9.615 2.806 9.615 2.806 13.178-.201 17.507-7.618 17.507-7.618 13.313-2.771 17.469-10.301 17.469-10.301 4.861-8.538-1.626-13.373-1.626-13.373zm-2.771 10.061c-2.211 6.343-11.203 7.65-11.203 7.65 1.927-3.795 2.226-10.663 2.226-10.663l2.231-1.386c3.071-2.229 5.42-.844 5.42-.844 3.039 1.627 1.326 5.243 1.326 5.243zm-36.978-14.978s-.076-13.17 5.196-22.344h2.773s-6.643 7.946-7.305 22.404l-.664-.06zm19.112-22.337h3.914s-9.24 8.64-11.226 22.436l-.847-.06c.001-.001.706-13.345 8.159-22.376zm18.477-.004s-12.057 6.774-15.188 22.499h1.265s5.554-17.982 20.794-19.429v-3.068l-6.871-.002z"/><path d="M61.953 48.773l-4.193-8.128-1.185 1.327v6.801h-3.294v-17.559h3.294v5.757c0 1.185-.142 2.299-.403 3.482l.355.096c.45-1.255.995-2.085 1.398-2.724l4.146-6.611h3.531l-3.626 5.545c-.474.71-1.113 1.492-1.896 2.393.711.852 1.303 1.636 1.706 2.323l4.337 7.298h-4.17zm15.02 0l-2.938-5.924c-.213-.402-.45-.877-.545-1.541-.545.119-1.066.167-1.564.167h-.283v7.298h-3.294v-17.559h3.792c5.048 0 7.583 1.492 7.583 5 0 2.226-1.232 3.719-3.746 4.644v.19c.664.474 1.162.994 1.471 1.563l3.412 6.162h-3.888zm-3.103-15.071h-2.229v5.806c.283.023.567.023.829.023 2.655 0 3.887-.9 3.887-3.104 0-1.659-1.067-2.725-2.487-2.725zm9.545 15.071v-17.559h10v2.771h-6.708v4.267h5.949v2.511h-5.949v5.284h6.921v2.726h-10.213zm23.503-1.493c-1.896 1.374-3.91 1.493-6.351 1.493h-3.389v-17.559h3.389c2.701 0 4.787.211 6.659 1.729 1.823 1.493 2.796 3.886 2.796 6.99 0 3.389-.972 5.807-3.104 7.347zm-5.782-13.389c-.214 0-.426 0-.665.024v12.156c.428.024.735.024.927.024 3.577 0 5.331-2.014 5.331-6.139 0-4.074-1.826-6.065-5.593-6.065zm12.436 14.882v-17.559h10v2.771h-6.706v4.267h5.948v2.511h-5.948v5.284h6.92v2.726h-10.214zm22.532 0l-4.954-11.208c-.448-1.019-.806-2.062-1.041-3.153h-.476c.356 2.086.476 3.531.476 4.314v10.047h-2.774v-17.559h4.028l4.363 9.928c.378.852.828 2.062 1.35 3.602h.426c-.285-1.492-.426-2.866-.426-4.052v-9.478h2.772v17.559h-3.744zm12.626.213c-2.37 0-4.336-.568-5.974-1.778v-3.127h1.399c.924 1.492 2.182 2.131 4.052 2.131 2.063 0 3.225-.828 3.225-2.273 0-1.516-1.257-1.945-3.604-2.821-3.197-1.185-4.738-2.273-4.738-4.976 0-3.08 2.464-5.142 5.972-5.142 1.612 0 3.128.355 4.692 1.043v3.483h-1.161c-.735-1.302-1.801-1.966-3.223-1.966-1.635 0-2.75 1.066-2.75 2.252 0 1.563 1.423 1.942 3.53 2.723 3.296 1.233 4.763 2.63 4.763 5.286 0 2.914-2.39 5.165-6.183 5.165zm22.624.479c-4.954 0-7.916-3.366-7.916-9.125 0-5.521 3.104-9.003 7.37-9.003 1.563 0 3.129.474 4.811 1.398v3.553h-1.257c-.804-1.562-1.706-2.274-3.197-2.274-2.654 0-4.385 2.298-4.385 6.28 0 3.981 1.73 6.375 4.312 6.375 1.564 0 2.631-.736 3.271-2.253h1.257v3.697c-1.281.925-2.679 1.352-4.266 1.352zm16.82-.285l-.805-3.649h-5.38l-.781 3.649h-3.224l5.001-17.558h3.648l5.167 17.558h-3.626zm-1.706-7.961l-1.185-5.45c-.119-.521-.237-1.186-.309-2.038h-.498c-.047.782-.189 1.469-.308 2.038l-1.184 5.45c-.167.805-.403 1.54-.735 2.273h4.953c-.331-.709-.568-1.468-.734-2.273zm10.826-6.802v4.883h6.563v2.629h-6.563v7.251h-3.294v-17.558h10.213v2.795h-6.919zm9.706 14.763v-17.558h9.998v2.771h-6.705v4.266h5.946v2.512h-5.946v5.283h6.918v2.726h-10.211z" fill="#fff"/></svg>