<svg version="1" xmlns="http://www.w3.org/2000/svg" width="239" height="64" viewBox="0 0 239 64"><path fill="#fff" d="M81.592 17.172c0-3.331 0-3.929-.041-4.613-.043-.724-.214-1.065-.92-1.215-.169-.043-.533-.063-.725-.063-.086 0-.171-.044-.171-.129 0-.129.108-.171.343-.171.959 0 2.22.065 2.346.065.194 0 1.432-.065 2.072-.065.234 0 .34.042.34.171 0 .085-.084.129-.169.129-.149 0-.277.021-.534.063-.576.105-.747.47-.79 1.215-.042.685-.042 1.282-.042 4.613v1.28h.085c.362-.406 4.228-4.335 4.995-5.166.598-.618 1.152-1.173 1.152-1.536 0-.257-.105-.384-.277-.449-.106-.042-.191-.086-.191-.172 0-.106.107-.148.257-.148.427 0 1.087.065 1.6.065.108 0 1.517-.065 2.051-.065.234 0 .319.042.319.148 0 .107-.042.151-.213.151-.321 0-.77.105-1.196.298-.876.385-1.345.917-2.306 1.836-.532.513-4.248 4.141-4.695 4.676.554.62 4.993 5.209 5.871 6.019 1.791 1.666 2.154 2.008 3.18 2.436.555.234 1.174.276 1.323.276s.277.043.277.129c0 .105-.106.169-.47.169h-1.089c-.599 0-1.002 0-1.472-.044-1.132-.105-1.664-.574-2.583-1.3-.962-.791-5.486-5.681-6.512-6.938h-.106v2.091c0 2.052 0 3.736.106 4.635.063.618.192 1.088.833 1.173.299.044.641.086.832.086.127 0 .17.063.17.129 0 .105-.105.169-.341.169-1.046 0-2.283-.063-2.454-.063-.172 0-1.41.063-2.049.063-.236 0-.343-.044-.343-.169 0-.065.042-.129.172-.129.19 0 .446-.042.638-.086.429-.085.535-.555.621-1.173.105-.898.105-2.583.105-4.635v-3.756zm17.572 6.873c0 .291 0 1.038-.041 1.764-.043.521-.168.852-.539.935-.167.042-.375.082-.541.082-.104 0-.146.084-.146.146 0 .104.082.146.29.146.541 0 1.703-.062 1.786-.062.104 0 1.288.062 2.305.062.187 0 .29-.062.29-.146 0-.062-.041-.146-.145-.146-.166 0-.581-.04-.831-.082-.54-.083-.665-.414-.706-.935-.062-.726-.062-1.473-.062-1.764v-1.516c0-.582-.084-1.142.228-1.764.375-.75 2.947-4.9 3.55-5.605.395-.479.56-.666.914-.873.291-.168.644-.228.851-.228.146 0 .229-.105.229-.188 0-.063-.104-.104-.229-.104-.354 0-1.661.04-1.785.04-.146 0-.788-.04-1.266-.04-.188 0-.291.04-.291.104 0 .082.104.165.27.207.208.063.291.208.291.457 0 .229-.083.519-.313.915-.33.58-2.615 4.359-2.988 5.105l-3.322-5.502c-.125-.228-.248-.436-.248-.685 0-.146.082-.229.227-.291.167-.063.291-.125.291-.187 0-.084-.041-.124-.25-.124-.705 0-1.451.04-1.576.04-.082 0-1.453-.04-1.807-.04-.164 0-.229.04-.229.124 0 .083.084.167.188.167.145 0 .498.082.77.249.33.228.767.622 1.203 1.286.623.935 3.093 4.857 3.238 5.129.27.498.395.849.395 1.806v1.518zm12.109-5.169c0-2.741 0-3.239.021-3.8.041-.622.146-.871.645-.977.207-.04.331-.04.455-.04.063 0 .146-.084.146-.146 0-.105-.084-.146-.291-.146-.561 0-1.742.04-1.826.04-.105 0-1.247-.04-1.848-.04-.207 0-.291.04-.291.146 0 .062.062.146.145.146.125 0 .353.02.562.06.395.086.54.355.581.957.041.561.041 1.059.041 3.8v3.113c0 1.702-.021 3.094-.103 3.819-.063.521-.125.852-.479.935-.167.042-.396.082-.562.082-.102 0-.145.084-.145.146 0 .104.104.146.291.146.56 0 1.701-.062 1.807-.062.084 0 1.266.062 2.282.062.208 0 .291-.062.291-.146 0-.062-.041-.146-.146-.146-.166 0-.561-.04-.83-.082-.54-.083-.602-.414-.663-.935-.085-.726-.085-2.117-.085-3.819v-3.113zm7.358-2.948c-.27-.706-.5-1.246-.5-1.476 0-.124.021-.228.209-.311.166-.063.457-.082.663-.082.124 0 .188-.084.188-.167 0-.082-.168-.124-.5-.124-.705 0-1.516.042-1.702.042-.229 0-1.266-.042-2.138-.042-.29 0-.477.02-.477.124 0 .062.041.167.146.167.102 0 .415 0 .706.062.601.146.851.331 1.266 1.33l4.482 10.814c.354.851.479 1.08.687 1.08.187 0 .29-.27.787-1.33.417-.871 1.226-2.78 2.347-5.355.936-2.159 1.828-4.276 2.035-4.774.477-1.204.768-1.453 1.018-1.619.334-.207.746-.207.872-.207.145 0 .208-.084.208-.167 0-.082-.104-.124-.29-.124-.54 0-1.331.042-1.433.042-.229 0-1.061-.042-1.785-.042-.291 0-.416.042-.416.146 0 .082.103.146.207.146.209 0 .415 0 .623.062.187.063.248.229.248.373 0 .146-.082.396-.166.664-.393 1.266-2.78 7.287-3.84 9.654l-3.445-8.886zm19.57 10.914c.875.426 1.856.574 2.861.574 1.152 0 2.305-.254 3.223-.895 1.474-1.046 1.814-2.67 1.814-3.545 0-1.707-.598-3.029-3.118-5.016l-.597-.47c-2.05-1.601-2.604-2.37-2.604-3.587 0-1.559 1.152-2.477 2.626-2.477 1.963 0 2.541.898 2.668 1.133.13.234.256.81.278 1.066.021.172.042.277.172.277.106 0 .149-.148.149-.49 0-1.451.085-2.155.085-2.263s-.044-.149-.215-.149-.34-.023-.747-.107c-.534-.127-1.152-.213-1.984-.213-2.712 0-4.42 1.559-4.42 3.842 0 1.453.512 2.777 2.775 4.634l.961.79c1.836 1.515 2.455 2.367 2.455 3.841 0 1.368-1.004 2.839-3.053 2.839-1.431 0-2.838-.597-3.159-2.177-.065-.298-.065-.599-.065-.789 0-.171-.021-.235-.148-.235-.106 0-.149.105-.171.341-.021.344-.106 1.196-.106 2.264 0 .577.021.662.32.812m12.66-1.386c1.434 1.246 3.279 1.89 6.021 1.89 1.182 0 2.553-.104 3.3-.395.312-.124.354-.188.458-.521.187-.601.436-2.137.436-2.263 0-.123-.084-.249-.165-.249-.128 0-.147.063-.188.249-.062.335-.311 1.08-.705 1.474-.727.729-1.641.831-3.011.831-3.903 0-6.582-3.01-6.582-6.393 0-1.786.291-3.365 1.642-4.609.643-.604 1.764-1.226 4.11-1.226 1.618 0 2.948.437 3.591.977.479.373.769 1.078.769 1.765 0 .249.021.374.146.374.102 0 .187-.105.207-.374.022-.248.022-1.225.043-1.807.041-.644.081-.852.081-.995 0-.105-.04-.188-.229-.188-.601-.021-1.182-.146-1.865-.27-.895-.146-1.932-.207-2.658-.207-2.803 0-4.463.829-5.564 1.888-1.618 1.579-2.054 3.634-2.054 4.816-.002 1.682.433 3.696 2.217 5.233m25.357-6.58c0-2.741 0-3.239.041-3.8.041-.622.146-.871.624-.977.227-.04.332-.04.456-.04.082 0 .166-.084.166-.146 0-.105-.104-.146-.312-.146-.54 0-1.702.04-1.806.04-.085 0-1.267-.04-2.077-.04-.207 0-.29.04-.29.146 0 .062.063.146.145.146.167 0 .479.02.624.04.602.084.686.375.727.977.021.561.041 1.101.041 3.84v.374c0 .104-.041.104-.104.104h-7.618c-.063 0-.104 0-.104-.104v-.374c0-2.739 0-3.279.021-3.84.041-.622.146-.871.644-.977.208-.04.332-.04.457-.04.062 0 .146-.084.146-.146 0-.105-.084-.146-.292-.146-.559 0-1.723.04-1.805.04-.105 0-1.268-.04-2.1-.04-.206 0-.288.04-.288.146 0 .062.082.146.145.146.167 0 .478.02.622.04.604.084.707.375.75.977.041.561.041 1.059.041 3.8v3.113c0 1.702 0 3.094-.105 3.819-.082.521-.125.852-.477.935-.166.042-.395.082-.561.082-.104 0-.145.084-.145.146 0 .104.104.146.289.146.561 0 1.723-.062 1.828-.062.082 0 1.246.062 2.262.062.207 0 .291-.062.291-.146 0-.062-.043-.146-.145-.146-.166 0-.561-.04-.831-.082-.54-.083-.603-.414-.665-.935-.082-.726-.082-2.077-.082-3.779v-1.763c0-.083.041-.105.104-.105h7.618c.063 0 .104.022.104.105v1.763c0 1.702 0 3.032-.082 3.76-.063.518-.125.871-.5.954-.165.042-.373.082-.539.082-.104 0-.145.084-.145.146 0 .104.083.146.289.146.541 0 1.723-.062 1.808-.062.104 0 1.266.062 2.263.062.208 0 .311-.062.311-.146 0-.062-.041-.146-.166-.146-.145 0-.561-.04-.81-.082-.562-.083-.603-.414-.663-.935-.084-.726-.104-2.117-.104-3.819v-3.113zm10.83-5.358c-5.046 0-7.245 4.051-7.245 6.893 0 3.178 2.137 6.936 7.141 6.936 4.4 0 7.328-3.26 7.328-7.204-.001-4.112-3.114-6.625-7.224-6.625m.415 13.1c-3.301 0-5.771-2.573-5.771-6.685 0-3.839 2.199-5.75 5.252-5.75 2.887 0 5.461 2.222 5.461 6.456-.001 5.108-3.303 5.979-4.942 5.979m16.31-13.1c-5.046 0-7.245 4.051-7.245 6.893 0 3.178 2.138 6.936 7.141 6.936 4.403 0 7.328-3.26 7.328-7.204 0-4.112-3.113-6.625-7.224-6.625m.415 13.1c-3.3 0-5.771-2.573-5.771-6.685 0-3.839 2.201-5.75 5.252-5.75 2.887 0 5.461 2.222 5.461 6.456 0 5.108-3.301 5.979-4.942 5.979m12.12-7.742c0-2.741 0-3.239.02-3.8.043-.624.147-.893.686-.997.209-.02.479-.04.603-.04.063 0 .146-.063.146-.125 0-.104-.104-.147-.29-.147-.563 0-1.932.044-2.016.044-.104 0-1.246-.044-2.077-.044-.206 0-.29.044-.29.147 0 .062.084.146.146.146.167 0 .479.02.624.04.601.084.706.373.746.977.041.561.041 1.059.041 3.8v3.113c0 1.702 0 3.094-.103 3.819-.084.519-.124.852-.479.934-.165.043-.393.083-.56.083-.104 0-.146.086-.146.146 0 .105.104.146.29.146.291 0 .686-.02 1.061-.04.352-.021.662-.021.746-.021.54 0 1.162.021 1.992.042.852.04 1.868.062 3.178.062.976 0 1.038-.062 1.162-.477.146-.52.271-1.578.271-1.764 0-.189-.043-.273-.125-.273-.103 0-.165.105-.187.229-.063.354-.208.728-.438.997-.434.52-1.244.54-2.199.54-1.433 0-2.139-.126-2.43-.415-.332-.311-.373-1.371-.373-3.965v-3.157zm-130.128 18.662c-5.045 0-7.244 4.047-7.244 6.89 0 3.178 2.139 6.935 7.141 6.935 4.4 0 7.328-3.259 7.328-7.204-.001-4.111-3.114-6.621-7.225-6.621m.416 13.097c-3.301 0-5.771-2.573-5.771-6.684 0-3.84 2.201-5.751 5.252-5.751 2.887 0 5.461 2.223 5.461 6.456-.001 5.108-3.302 5.979-4.942 5.979m10.458-4.629c0 1.703 0 3.094-.104 3.821-.082.519-.125.872-.477.936-.166.02-.395.081-.561.081-.104 0-.145.084-.145.146 0 .104.104.144.289.144.562 0 1.703-.061 1.808-.061.081 0 1.266.061 2.283.061.206 0 .29-.061.29-.144 0-.063-.041-.146-.146-.146-.165 0-.56-.041-.83-.081-.499-.084-.601-.417-.665-.936-.082-.686-.082-2.077-.082-3.821v-1.411c0-.124.021-.165.125-.165.311 0 2.47-.021 2.926.041.561.084.852.312.935.561.085.206.104.457.126.643 0 .083.02.167.124.167.123 0 .165-.188.165-.353 0-.126.021-.832.063-1.185.043-.58.166-.871.166-.975 0-.084-.021-.146-.104-.146-.063 0-.145.082-.229.186-.166.209-.415.271-.851.311-.251.024-.521.024-.831.024l-2.49.02c-.125 0-.125-.063-.125-.165v-4.819c0-.146.041-.188.146-.188l2.988.042c.706 0 1.142.293 1.246.521.104.227.166.518.166.664 0 .125.062.207.145.207.084 0 .145-.104.166-.188.041-.205.063-.997.084-1.162.062-.498.145-.706.145-.829 0-.084-.042-.17-.124-.17l-.25.105c-.165.064-.477.064-.83.084-.416.021-4.381 0-4.732 0-.104 0-1.246-.044-2.077-.044-.207 0-.29.044-.29.147 0 .062.083.146.146.146.166 0 .477.021.622.042.603.084.706.371.748.975.041.561.041 1.059.041 3.8v3.114zm19.048-1.06c0 2.048 0 3.735-.105 4.63-.086.62-.192 1.09-.621 1.176-.191.043-.449.087-.641.087-.127 0-.17.062-.17.127 0 .128.107.169.342.169l1.238-.041c.448-.021.81-.021.854-.021.32 0 .832.021 1.666.062.83.024 2.006.066 3.605.066.833 0 1.004 0 1.154-.555.107-.45.275-1.901.275-2.072 0-.15 0-.32-.126-.32-.108 0-.149.086-.192.32-.148.877-.404 1.303-.961 1.537-.555.234-1.494.234-2.051.234-2.09 0-2.411-.276-2.475-1.75-.021-.447 0-2.924 0-3.649v-1.881c0-.086.043-.147.15-.147.362 0 2.476.042 3.051.105.834.086 1.025.449 1.111.749.085.276.085.489.085.704 0 .105.043.191.149.191.148 0 .148-.235.148-.406 0-.148.043-.938.086-1.365.065-.704.171-1.068.171-1.195 0-.129-.042-.171-.105-.171-.087 0-.172.107-.321.276-.191.215-.49.258-1.004.3-.49.044-3.117.044-3.393.044-.108 0-.129-.065-.129-.215v-5.891c0-.149.043-.215.129-.215.234 0 2.561.021 2.924.065 1.152.128 1.365.384 1.516.724.106.259.127.619.127.77 0 .169.043.278.172.278.085 0 .128-.129.148-.234.043-.257.086-1.196.108-1.409.063-.599.169-.854.169-1.004 0-.107-.02-.193-.085-.193l-.298.109c-.172.04-.513.084-.918.105-.492.02-4.74.02-4.889.02l-.876-.041c-.47-.022-1.045-.022-1.537-.022-.234 0-.341.044-.341.173 0 .084.084.126.17.126.193 0 .555.023.727.065.705.148.875.49.918 1.217.043.684.043 1.28.043 4.61v3.758zm12.098 4.527c1.433 1.246 3.279 1.892 6.021 1.892 1.184 0 2.555-.105 3.301-.396.311-.124.354-.188.457-.519.188-.602.438-2.139.438-2.262 0-.126-.084-.25-.168-.25-.123 0-.146.063-.187.25-.063.33-.311 1.08-.706 1.473-.727.728-1.641.829-3.01.829-3.902 0-6.581-3.008-6.581-6.393 0-1.786.29-3.363 1.641-4.608.642-.603 1.763-1.227 4.11-1.227 1.619 0 2.948.437 3.59.979.479.371.77 1.077.77 1.763 0 .249.021.374.146.374.104 0 .186-.104.205-.374.021-.249.021-1.226.041-1.805.041-.644.085-.853.085-.998 0-.102-.044-.186-.228-.186-.604-.022-1.185-.146-1.87-.271-.892-.146-1.931-.205-2.657-.205-2.801 0-4.463.827-5.564 1.888-1.619 1.577-2.055 3.634-2.055 4.816 0 1.682.435 3.695 2.221 5.23m19.556-11.935c-5.045 0-7.245 4.047-7.245 6.89 0 3.178 2.138 6.935 7.141 6.935 4.401 0 7.329-3.259 7.329-7.204-.001-4.111-3.115-6.621-7.225-6.621m.416 13.097c-3.301 0-5.772-2.573-5.772-6.684 0-3.84 2.202-5.751 5.252-5.751 2.888 0 5.461 2.223 5.461 6.456-.001 5.108-3.302 5.979-4.941 5.979m11.211-10.235c.56.622 2.615 2.783 4.734 5.004 1.93 2.016 4.565 4.608 4.754 4.774 1.017.935 1.203 1.08 1.391 1.08.125 0 .145-.104.145-1.266l.041-10.338c0-1.061.043-1.413.646-1.537.206-.042.352-.042.436-.042.122 0 .207-.104.207-.165 0-.104-.146-.128-.332-.128-.748 0-1.351.044-1.557.044-.209 0-1.081-.044-1.911-.044-.207 0-.353.024-.353.128 0 .062.021.165.146.165.146 0 .562.021.893.082.561.105.664.5.686 1.641l.187 8.843c-.562-.58-2.513-2.676-4.317-4.545-2.825-2.906-5.481-5.731-5.771-6.021-.188-.188-.5-.54-.706-.54-.146 0-.25.188-.25.894v10.11c0 1.599-.063 2.075-.519 2.198-.271.084-.603.105-.748.105-.084 0-.145.063-.145.146 0 .123.104.144.29.144.831 0 1.598-.063 1.765-.063s.894.063 1.93.063c.208 0 .332-.04.332-.144 0-.084-.062-.146-.144-.146-.167 0-.583-.021-.913-.105-.498-.123-.666-.56-.707-2.013l-.21-8.324zm21.517-2.862c-5.045 0-7.245 4.047-7.245 6.89 0 3.178 2.138 6.935 7.141 6.935 4.402 0 7.329-3.259 7.329-7.204 0-4.111-3.114-6.621-7.225-6.621m.414 13.097c-3.3 0-5.771-2.573-5.771-6.684 0-3.84 2.2-5.751 5.252-5.751 2.886 0 5.461 2.223 5.461 6.456.001 5.108-3.301 5.979-4.942 5.979m23.055-12.62c-.041-.335-.146-.479-.271-.479-.123 0-.206.124-.29.289l-5.313 10.942-5.522-10.96c-.104-.21-.25-.271-.374-.271-.104 0-.188.124-.209.312l-1.327 11.523c-.082.664-.105 1.308-.707 1.409-.27.044-.395.063-.539.063-.105 0-.188.063-.188.126 0 .124.123.165.312.165.497 0 1.37-.063 1.537-.063.145 0 1.017.063 1.702.063.207 0 .331-.041.331-.165 0-.063-.082-.126-.146-.126-.125 0-.393-.02-.705-.104-.271-.062-.436-.229-.436-.498 0-.291 0-.624.02-.893l.707-7.973h.083c.312.727 1.784 3.696 2.324 4.816.456.955 1.662 3.22 2.14 4.091.353.642.457.81.622.81.166 0 .271-.168.646-.936l4.4-9.01h.041l.872 8.97c.041.331.02.601-.085.622-.082.021-.123.084-.123.144 0 .086.082.146.519.188.665.063 2.698.084 3.114.084.208 0 .373-.062.373-.165 0-.084-.061-.126-.145-.126-.187 0-.664 0-1.183-.165-.749-.25-.873-1.205-.935-1.826l-1.245-10.857zm8.557 4.878c0-2.739 0-3.239.021-3.8.041-.622.146-.871.645-.977.207-.04.332-.04.457-.04.061 0 .146-.082.146-.146 0-.104-.085-.146-.291-.146-.561 0-1.745.042-1.827.042-.104 0-1.246-.042-1.848-.042-.209 0-.29.042-.29.146 0 .063.061.146.146.146.124 0 .352.021.56.063.393.082.538.352.581.953.041.561.041 1.061.041 3.8v3.113c0 1.703-.02 3.094-.104 3.82-.061.52-.125.851-.477.935-.165.042-.395.082-.561.082-.104 0-.146.083-.146.147 0 .104.105.144.29.144.562 0 1.703-.063 1.808-.063.082 0 1.267.063 2.283.063.208 0 .29-.063.29-.144 0-.064-.041-.147-.145-.147-.166 0-.561-.04-.831-.082-.54-.084-.602-.415-.665-.935-.082-.727-.082-2.117-.082-3.82v-3.112zm5.828 6.58c1.432 1.246 3.279 1.892 6.021 1.892 1.184 0 2.554-.105 3.301-.396.311-.124.354-.188.458-.519.187-.602.434-2.139.434-2.262 0-.126-.082-.25-.165-.25-.125 0-.146.063-.187.25-.062.33-.312 1.08-.706 1.473-.727.728-1.641.829-3.01.829-3.903 0-6.581-3.008-6.581-6.393 0-1.786.29-3.363 1.641-4.608.642-.603 1.763-1.227 4.11-1.227 1.618 0 2.948.437 3.59.979.479.371.77 1.077.77 1.763 0 .249.021.374.146.374.103 0 .187-.104.206-.374.021-.249.021-1.226.043-1.805.042-.644.083-.853.083-.998 0-.102-.041-.186-.229-.186-.602-.022-1.183-.146-1.869-.271-.891-.146-1.929-.205-2.655-.205-2.805 0-4.464.827-5.564 1.888-1.62 1.577-2.056 3.634-2.056 4.816-.003 1.682.433 3.695 2.219 5.23m12.955 1.413c.747.352 1.807.477 2.658.477.996 0 2.138-.125 2.907-.622 1.307-.851 1.702-1.973 1.702-3.01 0-1.515-.77-2.741-2.989-4.258l-.521-.351c-1.806-1.227-2.367-1.868-2.367-2.99 0-1.246 1.102-1.912 2.43-1.912 1.641 0 2.242.666 2.367.873.103.188.249.664.27.873.021.146.041.228.166.228.124 0 .146-.125.146-.395 0-1.204.083-1.786.083-1.868 0-.105-.04-.125-.188-.125-.146 0-.29 0-.643-.082-.438-.104-1.162-.209-1.891-.209-2.408 0-4.047 1.245-4.047 3.322 0 1.227.643 2.305 2.615 3.78l.83.621c1.62 1.203 2.304 1.807 2.304 3.074 0 1.328-.933 2.345-2.739 2.345-1.226 0-2.595-.457-2.885-1.745-.063-.249-.063-.496-.063-.644 0-.146-.062-.207-.166-.207s-.146.105-.146.291c-.02.291-.104.997-.104 1.868 0 .479.022.541.271.666"/><path fill="#fff" d="M55.15 44.396c-3.772 2.697-9.879 5.958-11.939 1.265-.344-.783-.507-1.628-.465-2.517.047-2.663 1.949-5.738 6.428-8.769-.278-.089-.982-.241-.98-1.267l.008-.104-.008-.066c.002-1.86 1.168-3.485 2.566-4.782 1.482-1.376 4.026-3.229 7.397-3.455.055-.004.065.103.058.251.066.378-.391 1.996-.563 1.998-2.967.02-5.887 1.489-7.36 3.568-.38.536-.57 1-.596 1.372.093 1.087 1.923 1.146 5.204-.784.027-.018.031.079.025.225.033.302-.205 1.885-.252 1.912-2.661 1.063-4.76 1.987-6.883 3.961-1.348 1.252-2.786 3.494-2.896 5.459-.013.836.219 1.615.823 2.235 1.013 1.041 2.782 1.324 5.388.198 4.184-1.807 9.486-6.061 12.895-9.685v-35.411h-64v46.314c3.859-1.233 9.025-4.636 10.877-6.301 4.861-7.334 12.765-16.698 20.172-23.557 5.422-5.023 12.193-10.418 14.959-10.62 1.11-.082 1.519.541 1.497 1.386.038.788-.349 1.815-.921 2.647-1.852 2.686-4.313 5.445-6.499 7.759-7.351 7.775-12.071 11.878-20.302 18.059-3.271 2.457-6.182 4.187-9.664 6.854-1.32 2.442-3.028 5.32-4.146 7.492-.28.551-.559 1.555-.662 1.949.348-.006 1.104-.66 1.858-1.438 2.905-2.982 6.096-5.901 9.351-8.493.904-.727 11.158-8.614 17.55-10.523.028-.013.032.081.022.22.046.267-.26 1.918-.737 2.102-7.335 2.825-12.351 6.481-16.549 9.778 3.113-.13 4.567 2.946 4.526 7.402l-.002.003.002.167c-.28.533-1.84 1.805-1.817 1.383l.007-.16-.007-.01c.044-.795.067-1.515.07-2.173-.005-4.667-1.126-5.929-3.946-5.733-2.529 1.904-1.84 1.543-4.149 3.638-1.604 1.465-3.174 2.983-4.778 4.433-.582.517-1.23 1.39-2.081 1.688-.231.08-.311-.106-.303-.436-.035-.375.123-1.076.343-1.831.792-2.732 2.483-5.906 4.004-8.385-1.938 1.19-4.343 3.068-6.388 3.924-.723.299-1.494.615-2.287.901v15.561h64v-27.262c-2.736 2.696-5.098 4.977-8.85 7.658zm-15.165-13.12c-.604.876-.804 2.055-.819 3.382-.002 2.22.478 4.833.455 7.165l-.002.03.002.14c-.045 4.383-2.834 8.014-6.996 9.187-4.396 1.238-6.75-1.508-6.771-4.61-.024-.718.075-1.458.306-2.177.82-2.542 3.314-4.634 5.928-4.494l-.073.174.073-.004c.026.002-.586 1.231-.698 1.21-2.325.075-4.154 1.753-4.209 3.799.02.923.396 1.911 1.255 2.857 1.072 1.18 3.473 1.812 5.328 1.222 1.711-.545 3.862-1.727 3.885-7.563-.001-.369-.008-.752-.027-1.158-.063-1.403-.21-2.77-.188-4.12.011-1.794.298-3.56 1.453-5.348 1.729-2.679 4.212-3.598 7.416-3.906l-.041.175.041-.005c-.053 0-.238 2.019-.563 2.021-2.023.028-4.399.056-5.755 2.023zm-7-8.541c-6.961 6.32-11.324 10.019-19.931 15.877 9.246-13.19 21.395-24.01 27.362-28.217 1.944-1.371 4.171-2.679 5.133-2.434.216.057.302.234.308.473-.069.541-.481 1.315-1.002 1.947-3.857 4.684-7.537 8.42-11.87 12.354z"/></svg>