<svg version="1" xmlns="http://www.w3.org/2000/svg" width="108" height="73.611" viewBox="0 0 108 73.611"><path fill="#fff" d="M0 0v4.141c0 .754.133 1.723 1.159 2.289.309.171.668.255 1.016.255.347 0 .707-.083 1.016-.255 1.045-.566 1.168-1.523 1.168-2.289v-4.141h-.886v4.199c0 .291-.017 1.657-1.298 1.657-1.271 0-1.289-1.366-1.289-1.657v-4.199h-.886zm6.109 6.589v-2.052h.669c.546 0 1.007-.056 1.007 1.074v.978h.828v-.988c0-.526.039-1.507-1.034-1.667.338-.15.46-.424.705-.847l.594-1.017h-.943l-.78 1.337c-.198.339-.603.339-.801.339h-.245v-3.746h-.827v6.589h.827zm3.447 0h.827v-2.146c0-1.657.999-1.676 1.282-1.676h.113v-.79h-.142c-.384 0-.911.047-1.27.612h-.019v-.518h-.791v4.518zm6.045-1.204c-.341.321-.717.508-1.188.508-.667 0-1.562-.413-1.562-1.553 0-.979.696-1.572 1.543-1.572.622 0 1.544.283 1.544 1.797v2.024h.828v-1.996c0-1.891-1.166-2.617-2.344-2.617-1.31 0-2.42.952-2.42 2.418 0 1.393 1.018 2.29 2.287 2.29.528 0 .953-.151 1.311-.432v-.867h.001zm2.831 1.204v-4.518h-.828v4.518h.828zm-.911-5.526c0 .207.132.499.5.499.366 0 .499-.292.499-.499 0-.205-.132-.499-.499-.499-.369 0-.5.294-.5.499zm4.78 5.526h.83v-2.419c0-.639-.105-1.432-.895-1.92-.312-.189-.668-.273-1.036-.273s-.725.084-1.035.273c-.791.489-.894 1.281-.894 1.92v2.418h.827v-2.418c0-.377.028-.969.602-1.281.151-.083.33-.122.5-.122s.349.039.5.122c.574.312.601.904.601 1.281v2.419zm2.496 0v-4.518h-.827v4.518h.827zm-.913-5.526c0 .207.133.499.499.499.367 0 .499-.292.499-.499 0-.205-.132-.499-.499-.499-.366 0-.499.294-.499.499zm5.215 4.322c-.338.321-.714.508-1.185.508-.669 0-1.564-.413-1.564-1.553 0-.979.697-1.572 1.544-1.572.623 0 1.546.283 1.546 1.797v2.024h.828v-1.996c0-1.891-1.168-2.617-2.345-2.617-1.307 0-2.419.952-2.419 2.418 0 1.393 1.016 2.29 2.289 2.29.526 0 .951-.151 1.307-.432v-.867h-.001zm4.953 1.204h.829v-2.419c0-.639-.104-1.432-.895-1.92-.312-.189-.669-.273-1.037-.273-.367 0-.724.084-1.035.273-.792.489-.896 1.281-.896 1.92v2.418h.829v-2.418c0-.377.029-.969.603-1.281.15-.083.33-.122.498-.122s.349.039.5.122c.574.312.603.904.603 1.281v2.419h.001zm7.882-6.589h-.508c-.727 0-1.498.188-2.102.564-.754.462-1.535 1.365-1.535 2.729 0 .614.143 1.234.461 1.762.848 1.411 2.178 1.533 3.068 1.533h.615v-.827h-.727c-.621 0-1.477-.112-2.08-1.006-.291-.423-.416-.942-.416-1.461 0-.405.096-.809.283-1.158.342-.629 1.111-1.308 2.316-1.308h.623v-.828h.002zm4.084 5.385c-.338.321-.715.508-1.186.508-.67 0-1.564-.413-1.564-1.553 0-.979.697-1.572 1.545-1.572.621 0 1.545.283 1.545 1.797v2.024h.826v-1.996c0-1.891-1.166-2.617-2.344-2.617-1.307 0-2.42.952-2.42 2.418 0 1.393 1.018 2.29 2.289 2.29.527 0 .951-.151 1.309-.432v-.867zm4.367-3.314h-1.619v-1.132h-.828v4.135c0 1.496 1.066 1.514 1.432 1.514h1.016v-.788h-.863c-.82 0-.756-.312-.756-.791v-2.147h1.619v-.791h-.001zm1.34 4.518v-2.306c0-1.046.486-1.516 1.137-1.516 1.037 0 1.064 1.083 1.064 1.393v2.428h.828v-2.475c0-.639-.057-1.477-.895-1.929-.281-.16-.611-.207-.941-.207-.387 0-.801.104-1.193.5v-2.477h-.83v6.589h.83zm6.004-3.821c.895 0 1.508.649 1.508 1.564 0 .912-.613 1.561-1.508 1.561-.883 0-1.506-.639-1.506-1.561 0-.924.623-1.564 1.506-1.564zm0-.791c-1.307 0-2.354 1.045-2.354 2.355 0 1.307 1.047 2.353 2.354 2.353 1.309 0 2.354-1.046 2.354-2.353-.001-1.31-1.046-2.355-2.354-2.355zm3.804 4.612v-6.589h-.832v6.589h.832zm1.664 0v-4.518h-.826v4.518h.826zm-.912-5.526c0 .207.133.499.498.499.367 0 .5-.292.5-.499 0-.205-.133-.499-.5-.499-.365 0-.498.294-.498.499zm4.66 1.008h-.555c-.443 0-.99.057-1.525.414-.725.49-.961 1.233-.961 1.847 0 1.101.801 2.257 2.447 2.257h.594v-.789h-.566c-1.1 0-1.627-.725-1.627-1.468 0-.623.385-1.47 1.6-1.47h.594v-.791h-.001zm2.948-2.071v4.141c0 .753.129 1.723 1.158 2.289.311.171.666.255 1.016.255.348 0 .705-.083 1.018-.255 1.045-.566 1.166-1.523 1.166-2.289v-4.141h-.885v4.199c0 .291-.018 1.657-1.299 1.657-1.273 0-1.291-1.366-1.291-1.657v-4.199h-.883zm8.312 6.589h.828v-2.419c0-.639-.102-1.432-.895-1.92-.311-.189-.668-.273-1.035-.273-.369 0-.725.084-1.037.273-.789.489-.895 1.281-.895 1.92v2.418h.83v-2.418c0-.377.029-.969.604-1.281.15-.083.328-.122.498-.122.168 0 .348.039.5.122.572.312.602.904.602 1.281v2.419zm2.494 0v-4.518h-.828v4.518h.828zm-.912-5.526c0 .207.131.499.498.499s.5-.292.5-.499c0-.205-.133-.499-.5-.499s-.498.294-.498.499zm4.781 1.008l-1.318 3.485-1.316-3.485h-.906l1.557 4.038c.111.283.186.576.666.576.473 0 .566-.302.67-.576l1.553-4.038h-.906zm5.545 1.337c-.441-.979-1.299-1.431-2.184-1.431-1.328 0-2.346 1.016-2.346 2.355 0 .979.527 1.73 1.293 2.106.328.163.684.247 1.053.247.424 0 .848-.096 1.215-.302.348-.198 1.045-.715 1.139-1.798l-.838-.104c-.018.536-.301.988-.676 1.215-.256.15-.559.197-.859.197-.281 0-.564-.075-.801-.215-.377-.236-.678-.697-.678-1.346 0-.896.596-1.564 1.479-1.564.32 0 .707.067 1.045.434l-2.229 1.242.336.66 3.051-1.696zm.791 3.181h.826v-2.146c0-1.657 1-1.676 1.283-1.676h.113v-.79h-.143c-.385 0-.91.047-1.271.612h-.016v-.518h-.793v4.518h.001zm2.448 0h2.215c.375 0 .932-.028 1.281-.527.148-.205.203-.469.203-.732 0-.255-.082-.499-.232-.698-.397-.519-1.319-.671-2.13-.932-.227-.075-.488-.189-.488-.49 0-.102.064-.348.518-.348h2.129v-.791h-1.896c-.412 0-1.035.028-1.4.527-.143.198-.199.452-.199.696 0 .237.086.47.227.661.396.535 1.252.657 2.119.951.273.093.506.197.506.516 0 .405-.498.377-.684.377h-2.168v.79h-.001zm5.234 0v-4.518h-.828v4.518h.828zm-.912-5.526c0 .207.131.499.498.499.369 0 .5-.292.5-.499 0-.205-.131-.499-.5-.499-.367 0-.498.294-.498.499zm4.197 1.008h-1.619v-1.132h-.828v4.135c0 1.496 1.066 1.514 1.432 1.514h1.016v-.788h-.865c-.818 0-.754-.312-.754-.791v-2.147h1.619v-.791h-.001zm.51 0v2.609c0 .526.102 1.723 1.467 2.004v1.96h.83v-1.96c1.365-.282 1.469-1.479 1.469-2.004v-2.609h-.828v2.58c0 .273-.027 1.242-1.055 1.242-1.025 0-1.055-.969-1.055-1.242v-2.58h-.828zm5.619 41.246c0 2.153-.52 4.067-1.555 5.741-1.275 2.114-2.99 3.547-5.145 4.306-1.475.519-3.486.778-6.039.778h-14.23v-5.262h13.693c2.033 0 3.648-.26 4.844-.778 1.875-.837 2.809-2.253 2.809-4.245 0-1.556-.506-2.9-1.523-4.038-1.016-1.135-3.539-2.659-7.564-4.575-2.551-1.194-4.365-2.11-5.441-2.75-1.994-1.196-3.49-2.473-4.486-3.826-1.354-1.873-2.031-3.907-2.031-6.1 0-2.233.537-4.146 1.613-5.742 1.236-1.834 2.971-3.109 5.203-3.825 1.514-.48 3.33-.72 5.441-.72h12.559v5.263h-12.919c-1.516 0-2.689.109-3.527.331-.838.219-1.555.847-2.152 1.882-.398.641-.598 1.375-.598 2.214 0 1.234.318 2.291.955 3.169.479.678 1.285 1.376 2.422 2.092 1.137.718 2.842 1.614 5.113 2.691 2.672 1.275 4.545 2.232 5.623 2.87 2.109 1.275 3.686 2.593 4.725 3.948 1.474 1.994 2.21 4.186 2.21 6.576zm-103.998 22.555h-1.041c-.375 0-.705-.028-.991-.085-.285-.058-.562-.175-.832-.354-.45-.302-.762-.718-.942-1.248-.132-.386-.196-.825-.196-1.324v-5.555h1.151v5.555c0 .312.023.563.072.759.083.319.234.579.454.785.187.169.405.284.648.342.147.032.351.048.611.048h1.066v1.077zm5.445-5.873l-2.019 5.25c-.097.261-.18.427-.245.501-.139.164-.348.244-.625.244-.211 0-.376-.042-.496-.127-.117-.086-.242-.293-.373-.618l-2.018-5.25h1.174l1.713 4.527 1.715-4.527h1.174zm1.711-1.31c0 .162-.044.303-.133.415-.121.155-.293.233-.515.233-.22 0-.383-.066-.489-.201-.107-.136-.16-.285-.16-.447 0-.164.046-.302.136-.415.122-.155.293-.233.513-.233.221 0 .383.066.492.202.104.133.156.282.156.446zm-.108 7.183h-1.077v-5.873h1.078v5.873h-.001zm6.301-5.873l-2.021 5.25c-.098.261-.178.427-.245.501-.137.164-.346.244-.623.244-.212 0-.38-.042-.497-.127-.117-.086-.242-.293-.372-.618l-2.019-5.25h1.174l1.713 4.527 1.713-4.527h1.177zm12.223 3.45c0 .678-.204 1.232-.612 1.664-.484.506-1.204.759-2.162.759h-1.531v-1.077h1.474c.442 0 .776-.051 1.007-.157.45-.213.674-.629.674-1.249 0-.433-.142-.773-.429-1.027-.285-.254-.668-.381-1.143-.381h-1.583v-1.077h1.155c.441 0 .82-.107 1.136-.329.315-.222.474-.535.474-.943 0-.375-.126-.688-.381-.941-.284-.286-.668-.429-1.15-.429-.456 0-.839.143-1.151.429-.351.326-.526.783-.526 1.371v5.812h-1.136l.011-5.837c0-.849.255-1.536.765-2.062s1.157-.791 1.94-.791c.882 0 1.579.259 2.092.771.458.459.686 1.01.686 1.654 0 .447-.085.815-.258 1.102-.13.229-.333.419-.61.574.4.204.708.495.929.875.221.378.329.81.329 1.289zm6.094-.304c0 .521-.064.962-.195 1.32-.18.499-.503.89-.966 1.177-.392.233-.841.353-1.347.353s-.956-.119-1.346-.353c-.458-.287-.779-.678-.968-1.177-.13-.349-.196-.79-.196-1.32v-3.146h1.078v3.146c0 .35.037.635.11.855.122.359.346.629.674.809.186.107.403.159.648.159.105 0 .215-.013.33-.039.115-.022.221-.063.318-.12.334-.18.558-.443.674-.796.073-.22.108-.511.108-.868v-3.146h1.078v3.146zm5.715 1.088c0 .18-.021.352-.068.514-.045.163-.109.31-.203.44-.201.286-.475.481-.818.587-.219.066-.502.098-.844.098h-2.877v-1.027h2.814c.277 0 .457-.013.541-.036.234-.064.354-.215.354-.454 0-.18-.064-.326-.195-.438-.098-.083-.252-.16-.467-.232-.535-.164-1.072-.333-1.604-.504-.553-.204-.932-.441-1.137-.715-.203-.271-.307-.565-.307-.874 0-.146.014-.295.039-.442.023-.146.098-.302.219-.464.211-.286.506-.482.881-.588.236-.065.551-.098.943-.098h2.457v1.027h-2.764c-.205 0-.367.039-.488.117-.123.076-.186.188-.186.335 0 .171.07.315.209.429.088.073.232.142.428.209.523.161 1.051.323 1.578.478.572.204.965.444 1.174.723.215.276.321.579.321.915zm2.201-5.544c0 .162-.045.303-.133.415-.123.155-.295.233-.516.233s-.383-.066-.488-.201c-.107-.136-.16-.285-.16-.447 0-.164.045-.302.137-.415.121-.155.291-.233.512-.233s.383.066.492.202c.105.133.156.282.156.446zm-.109 7.183h-1.076v-5.873h1.076v5.873zm6.203 0h-1.076v-3.145c0-.352-.037-.635-.111-.856-.121-.358-.346-.627-.674-.807-.186-.107-.402-.161-.646-.161-.107 0-.215.014-.332.039-.113.022-.221.063-.316.122-.336.18-.561.443-.674.795-.072.219-.111.511-.111.868v3.145h-1.078v-3.145c0-.521.066-.962.195-1.322.18-.497.502-.889.967-1.175.391-.233.84-.354 1.348-.354.504 0 .955.121 1.344.354.459.286.781.678.969 1.175.131.352.195.792.195 1.322v3.145zm7.01-2.605c-.057.619-.26 1.153-.609 1.603-.229.295-.52.539-.871.734-.219.132-.469.229-.744.295-.279.065-.557.096-.834.096-.473 0-.93-.104-1.371-.318-.514-.252-.92-.617-1.225-1.094-.301-.479-.451-1.026-.451-1.647 0-.872.293-1.6.875-2.185.584-.582 1.309-.874 2.172-.874.604 0 1.158.155 1.666.466.504.31.896.774 1.174 1.395l-3.965 2.203-.441-.857 2.9-1.614c-.195-.213-.41-.36-.648-.441-.236-.08-.473-.123-.711-.123-.57 0-1.031.192-1.387.569-.355.379-.533.868-.533 1.462 0 .401.082.751.246 1.054.164.304.373.534.635.697.148.089.311.159.49.209.18.049.363.073.549.073.223 0 .42-.02.596-.055.176-.039.35-.104.52-.201.26-.157.475-.374.637-.657.164-.28.244-.588.244-.925l1.086.135zm5.544.966c0 .18-.023.352-.068.514-.045.163-.113.31-.201.44-.205.286-.477.481-.82.587-.219.066-.502.098-.846.098h-2.875v-1.027h2.814c.277 0 .457-.013.537-.036.238-.064.357-.215.357-.454 0-.18-.064-.326-.197-.438-.098-.083-.252-.16-.463-.232-.541-.164-1.074-.333-1.605-.504-.555-.204-.934-.441-1.137-.715-.205-.271-.307-.565-.307-.874 0-.146.014-.295.037-.442.023-.146.098-.302.221-.464.213-.286.506-.482.881-.588.236-.065.551-.098.941-.098h2.461v1.027h-2.766c-.203 0-.369.039-.49.117-.121.076-.184.188-.184.335 0 .171.07.315.209.429.09.073.232.142.428.209.521.161 1.047.323 1.578.478.57.204.961.444 1.174.723.214.276.321.579.321.915zm5.541 0c0 .18-.021.352-.066.514-.043.163-.111.31-.201.44-.205.286-.479.481-.822.587-.219.066-.5.098-.842.098h-2.877v-1.027h2.814c.277 0 .457-.013.539-.036.234-.064.354-.215.354-.454 0-.18-.063-.326-.193-.438-.1-.083-.256-.16-.465-.232-.541-.164-1.074-.333-1.605-.504-.555-.204-.936-.441-1.137-.715-.205-.271-.307-.565-.307-.874 0-.146.012-.295.035-.442.025-.146.1-.302.223-.464.211-.286.504-.482.879-.588.24-.065.551-.098.943-.098h2.461v1.027h-2.766c-.203 0-.369.039-.492.117-.123.076-.182.188-.182.335 0 .171.07.315.207.429.092.073.232.142.428.209.523.161 1.049.323 1.58.478.57.204.963.444 1.176.723.211.276.316.579.316.915zm11.959-.576c0 .439-.109.834-.32 1.175-.262.434-.613.728-1.053.883-.301.104-.713.157-1.236.157h-2.912v-1.077h2.803c.416 0 .746-.051.99-.157.385-.173.576-.463.576-.868 0-.32-.104-.596-.314-.826-.207-.233-.723-.545-1.547-.938-.521-.244-.893-.432-1.113-.561-.408-.247-.715-.507-.918-.784-.277-.385-.416-.801-.416-1.249 0-.458.111-.85.33-1.175.254-.375.607-.636 1.064-.783.311-.099.68-.146 1.115-.146h2.57v1.077h-2.643c-.313 0-.553.021-.725.067-.17.045-.318.173-.441.385-.08.132-.121.282-.121.453 0 .254.066.47.195.649.098.137.266.282.496.428.232.147.58.33 1.047.551.547.26.928.456 1.15.586.432.263.754.531.967.81.304.406.456.856.456 1.343zm4.684 2.215h-.771c-1.004 0-1.799-.309-2.387-.929-.527-.555-.797-1.224-.797-2.009 0-.447.092-.866.271-1.261.211-.464.539-.843.979-1.135.311-.206.631-.345.969-.424.332-.078.672-.116 1.014-.116h.723v1.027h-.771c-.709 0-1.254.218-1.627.647-.303.351-.455.771-.455 1.261 0 .532.174.971.518 1.322.381.392.916.588 1.602.588h.734v1.029h-.002zm5.871 0h-1.076v-3.156c0-.588-.117-1.037-.355-1.346-.234-.31-.578-.467-1.025-.467-.449 0-.801.157-1.053.467-.287.352-.428.853-.428 1.503v2.999h-1.078v-8.565h1.078v3.218c.234-.235.482-.403.746-.501.26-.099.531-.147.807-.147.26 0 .482.02.668.055.184.038.367.108.557.216.48.26.813.649.99 1.16.113.337.17.786.17 1.348v3.216h-.001zm7.026-2.937c0 .851-.297 1.571-.893 2.167-.596.595-1.318.893-2.168.893-.848 0-1.57-.298-2.166-.893-.596-.596-.893-1.316-.893-2.167 0-.848.297-1.568.893-2.165.596-.596 1.318-.894 2.166-.894.85 0 1.572.298 2.168.894.596.596.893 1.317.893 2.165zm-1.102 0c0-.594-.182-1.083-.543-1.462-.365-.377-.836-.569-1.416-.569-.57 0-1.037.189-1.404.564-.369.375-.551.864-.551 1.467 0 .605.18 1.094.535 1.471.361.374.834.563 1.42.563.59 0 1.063-.188 1.422-.563.357-.378.537-.866.537-1.471zm7.955 0c0 .851-.299 1.571-.896 2.167-.594.595-1.314.893-2.164.893s-1.57-.298-2.166-.893c-.594-.596-.893-1.316-.893-2.167 0-.848.299-1.568.893-2.165.596-.596 1.316-.894 2.166-.894s1.57.298 2.164.894c.597.596.896 1.317.896 2.165zm-1.102 0c0-.594-.182-1.083-.545-1.462-.363-.377-.834-.569-1.414-.569-.572 0-1.039.189-1.408.564-.367.375-.549.864-.549 1.467 0 .605.178 1.094.537 1.471.359.374.832.563 1.42.563s1.061-.188 1.42-.563c.36-.378.539-.866.539-1.471zm3.082 2.937h-1.076v-8.565h1.076v8.565zm-29.062-23.57c0 3.308-.998 6.021-3 8.131-2.363 2.473-5.883 3.71-10.557 3.71h-7.494v-5.262h7.207c2.16 0 3.797-.26 4.924-.778 2.201-1.037 3.299-3.069 3.299-6.099 0-2.114-.697-3.788-2.104-5.023-1.395-1.237-3.26-1.854-5.584-1.854h-7.742v-5.262h5.652c2.152 0 4.006-.54 5.551-1.616s2.311-2.611 2.311-4.604c0-1.834-.617-3.37-1.854-4.604-1.396-1.396-3.27-2.093-5.621-2.093-2.23 0-4.105.698-5.621 2.093-1.713 1.594-2.572 3.827-2.572 6.697v28.405h-5.559l.059-28.524c0-4.146 1.248-7.505 3.736-10.076 2.492-2.572 5.652-3.859 9.48-3.859 4.303 0 7.713 1.256 10.225 3.769 2.232 2.231 3.348 4.922 3.348 8.071 0 2.194-.418 3.988-1.254 5.383-.639 1.115-1.635 2.054-2.99 2.811 1.953.998 3.467 2.423 4.543 4.275 1.076 1.853 1.617 3.957 1.617 6.309zm-33.148-12.312l-8.113 21.103c-.48 1.275-.88 2.092-1.198 2.452-.678.797-1.693 1.195-3.05 1.195-1.036 0-1.844-.211-2.422-.629-.578-.417-1.185-1.426-1.823-3.019l-8.116-21.102h5.711l6.65 17.574 6.65-17.574h5.711zm-21.439 24.153h-8.025c-1.833 0-3.449-.141-4.843-.419-1.396-.279-2.751-.856-4.068-1.733-2.192-1.476-3.726-3.508-4.603-6.101-.639-1.873-.958-4.028-.958-6.457v-27.152h5.621v27.151c0 1.514.12 2.75.36 3.704.4 1.557 1.136 2.832 2.211 3.828.917.84 1.973 1.402 3.17 1.675.716.165 1.714.241 2.99.241h8.145v5.263zm-22.497 16.05h106.146v1.734h-106.146v-1.734zm40.912-53.119c-1.549.258-2.896.913-4.039 1.966-1.408 1.309-2.236 3.051-2.488 5.222h-5.539c.248-3.528 1.476-6.436 3.692-8.72 2.248-2.319 5.04-3.591 8.374-3.82v5.352z"/></svg>