<svg version="1" xmlns="http://www.w3.org/2000/svg" width="221" height="54" viewBox="0 0 221 54"><path fill="#fff" d="M23.469 35.7c-1.161 1.677-2.546 3.093-4.03 4.365-4.764 4.09-14.046 5.112-18.174-.792-2.888-4.132-.57-10.088 4.539-11.015 2.583-.462 5.092.847 6.662 2.847.993 1.264 1.516 2.842 2.533 4.063 1.239 1.494 3.181 2.117 5.059 1.882.92-.117 2.391-.425 3.411-1.35m173.076-.002c1.16 1.679 2.547 3.095 4.032 4.367 4.761 4.09 14.043 5.111 18.168-.792 2.89-4.132.572-10.089-4.533-11.015-2.583-.463-5.092.846-6.664 2.846-.992 1.264-1.516 2.842-2.533 4.063-1.238 1.494-3.182 2.117-5.058 1.881-.924-.115-2.391-.423-3.412-1.35m-17.009-31.49c-.128-.005-12.32-.005-12.433 0-1.336.04-2.441 1.277-2.504 2.55-.068 1.353 1.107 2.693 2.504 2.761.129.004 12.32.004 12.433 0 1.337-.041 2.442-1.278 2.504-2.551.068-1.353-1.107-2.693-2.504-2.76m-77.644 26.492c-.17-.705-.261-1.399-.31-2.1-.009-1.011-.009-2.429-.009-3.736.127-4.51.97-12.445-5.148-12.445-4.132 0-6.579 3.477-7.273 4.613-.099-3.169-2.599-5.469-6.418-5.469-2.437 0-3.884 1.939-3.884 1.939s2.377.824 2.377 4.018c.025 2.288-.003 13.423 0 13.47.094 1.974 1.472 3.824 3.938 3.824s3.997-1.896 3.997-3.827v-9.876c.343-1.614 1.251-3.262 2.622-3.262 1.776 0 1.876 1.975 1.884 1.975l-.008 9.56c.008.311.048.609.103.902.087.499.238.962.454 1.388.948 1.925 3.044 3.181 5.861 3.181 2.436 0 3.883-1.938 3.883-1.938s-1.43-.503-2.069-2.217m58.807 0c-.172-.705-.264-1.399-.31-2.1l.007-23.662c0-2.301-1.865-4.167-4.167-4.167-2.302 0-4.167 1.866-4.167 4.167l.005 20.956c.021 1.887-.165 3.816.726 5.55.944 1.927 3.272 3.411 6.086 3.411 2.442 0 3.887-1.938 3.887-1.938s-1.424-.503-2.067-2.217m-93.112-18.486c6.252 0 11.323 5.067 11.323 11.322 0 6.252-5.071 11.32-11.323 11.32-6.253 0-11.321-5.068-11.321-11.32 0-6.255 5.067-11.322 11.321-11.322m.083 17.833c2.139-.039 3.208-2.495 3.208-6.512 0-4.012-1.359-6.471-3.208-6.515l-.025.001-.023-.001v.001c-1.852.044-3.209 2.503-3.209 6.515 0 4.017 1.071 6.473 3.209 6.512v.005l.023-.003.025.003v-.006m59.687.653c.643 1.714 2.069 2.218 2.069 2.218s-1.445 1.938-3.887 1.938c-2.814 0-5.142-1.484-6.087-3.411l-.173-.375c-.37 1.71-2.667 3.143-4.125 3.522-2.112.548-4.902.243-6.751-.944-6.563-4.215-5.958-21.256 3.612-21.256 3.478 0 5.686 2.358 6.688 3.754l.017-11.207c0-2.301 1.866-4.167 4.167-4.167 2.302 0 4.167 1.866 4.167 4.167l-.006 23.661c.044.701.136 1.396.309 2.1m-12.418-1.377c2.138-.032 3.21-2.175 3.21-5.673 0-3.495-1.357-5.635-3.21-5.675v-.003l-.023.003-.025-.003v.003c-1.852.04-3.208 2.18-3.208 5.675 0 3.498 1.07 5.641 3.208 5.673v.003l.025-.001.023.001v-.003m34.098-1.472s-.413 7.005-9.022 7.005c-4.888 0-10.777-3.721-10.777-11.059 0-6.516 4.522-11.452 10.712-11.452 3.749 0 10.07 1.844 10.07 7.438 0 5.594-5.795 6.057-12.704 6.057 0 0 1.017 3.686 5.758 3.686l5.963-1.675m-12.17-5.6c-.023.175 2.644.042 2.813.005 1.585-.333 2.725-1.534 2.694-3.296-.028-1.667-1.896-2.654-3.23-1.788-1.606 1.043-2.034 3.293-2.277 5.079m45.505 5.6s-.413 7.005-9.022 7.005c-4.888 0-10.777-3.721-10.777-11.059 0-6.516 4.522-11.452 10.712-11.452 3.749 0 10.07 1.844 10.07 7.438 0 5.594-5.795 6.057-12.704 6.057 0 0 1.017 3.686 5.758 3.686l5.963-1.675m-12.169-5.6c-.023.175 2.644.042 2.812.005 1.585-.333 2.725-1.534 2.694-3.296-.028-1.667-1.896-2.654-3.23-1.788-1.606 1.043-2.034 3.293-2.276 5.079m27.803 6.205h-4.748c.349 0 3.862-2.961 5.026-3.948 3.05-2.588 8.535-6.324 6.936-11.161l.004.034c-.293-1.152-1.18-1.817-1.18-1.817s-.332.941-1.459 1.362c-.461.111-.922.196-1.381.223-.379.007-13.271 0-13.271 0-1.743-.002-3.204 1.4-3.229 3.054-.02 1.668 1.359 3.006 3.126 3.03l7.52.048c-3.485 1.944-7.648 4.246-9.763 7.762-1.207 2.018-2.499 5.128-2.008 7.515 1.67-1.481 6.056-2.914 9.394-2.217 1.25.261 2.578.898 3.658 1.574 6.26 3.916 10.022-3.743 7.03-7.119.001-.001-1.706 1.66-5.655 1.66m-141.128 4.763c-3.84-4.21-5.041-11.212-5.277-15.866-.204-4.02.014-10.983 3.182-13.009-1.061-1.333-3.152-1.871-4.742-1.871-3.572 0-5.294 2.379-6.516 4.09-.404.565-6.411 8.851-6.411 8.851s-5.052-7.816-5.673-8.754c-.858-1.296-2.464-3.677-5.289-4.089-1.216-.178-4.371-.339-6.088 2.018 2.959 2.369 2.885 8.399 2.243 12.516-1.928 12.359-7.188 13.498-7.188 13.498 2.694 7.275 9.631 4.401 11.592-1.399 1.27-3.77 2.089-8.543 2.278-12.5l7.613 11.678s8.62-11.641 8.62-11.631c-1.419 20.589 5.651 26.426 11.835 26.426 6.189 0 8.294-5.66 8.294-5.66-3.345-.203-6.273-1.886-8.473-4.298m19.31 6.697c.074.302.113.6.133.899.001.091-.005 10.771 0 10.899.027.897.856 1.638 1.71 1.68.907.045 1.806-.744 1.852-1.68.004-.122 0-9.741 0-9.741-.008-.808.07-1.633-.311-2.375-.405-.825-1.401-1.46-2.605-1.46-1.046 0-1.665.83-1.665.83s.611.215.886.948m112.913 11.701c-.074-.303-.113-.6-.133-.899 0-.09.005-10.771.001-10.898-.028-.897-.857-1.638-1.711-1.681-.907-.045-1.806.744-1.852 1.681-.004.123 0 9.74 0 9.74.008.807-.07 1.633.311 2.376.405.824 1.401 1.459 2.605 1.459 1.045 0 1.664-.83 1.664-.83s-.611-.215-.885-.948m-64.446-7.95c-1.852 0-2.948 1.558-3.259 2.067l-.01.008-.002-.943c-.027-.896-.857-1.567-1.71-1.609-.906-.045-1.806.673-1.851 1.609-.003.122-.003 6.819 0 6.909.028.896.857 1.636 1.71 1.678.907.045 1.805-.743 1.851-1.678.002-.069.003-2.255.002-4.137l.015-.01c.153-.723.56-1.461 1.174-1.461.795 0 .839.885.844.885l-.008 4.723c.027.896.857 1.636 1.71 1.678.906.045 1.805-.743 1.851-1.678l-.005-2.468c0-2.539.264-5.585-2.312-5.573m45.522 0c-1.852 0-2.948 1.558-3.259 2.067l-.01.008-.002-.943c-.028-.896-.857-1.567-1.71-1.609-.906-.045-1.806.673-1.851 1.609-.003.122-.003 6.819 0 6.909.027.896.857 1.636 1.71 1.678.907.045 1.805-.743 1.851-1.678.002-.069.003-2.255.002-4.137l.015-.01c.153-.723.56-1.461 1.175-1.461.795 0 .839.885.843.885l-.008 4.723c.027.896.857 1.636 1.711 1.678.906.045 1.805-.743 1.85-1.678l-.005-2.468c0-2.539.265-5.585-2.312-5.573m-81.68 0c-1.852 0-2.948 1.558-3.259 2.067l-.01.008-.002-.943c-.027-.896-.857-1.567-1.71-1.609-.906-.045-1.806.673-1.851 1.609-.003.122-.003 6.819 0 6.909.028.896.857 1.636 1.711 1.678.906.045 1.804-.743 1.85-1.678.002-.069.003-2.255.002-4.137l.015-.01c.153-.723.56-1.461 1.174-1.461.795 0 .839.885.844.885l-.008 4.723c.027.896.857 1.636 1.71 1.678.906.045 1.805-.743 1.85-1.678l-.005-2.468c.001-2.539.266-5.585-2.311-5.573m68.771-.447c2.801 0 5.072 2.27 5.072 5.072s-2.271 5.072-5.072 5.072c-2.802 0-5.073-2.27-5.073-5.072s2.271-5.072 5.073-5.072m.037 7.989c.958-.019 1.436-1.118 1.436-2.917 0-1.797-.607-2.898-1.436-2.918h-.021c-.831.02-1.438 1.121-1.438 2.918 0 1.8.479 2.899 1.438 2.917v.002h.021v-.002m-18.979-6.533c.003.086.004 6.8 0 6.927-.048.981-.989 1.806-1.938 1.759-.763-.038-1.506-.609-1.726-1.359-.358.582-1.146 1.038-1.68 1.178-.946.245-2.196.109-3.026-.423-2.941-1.888-2.669-9.523 1.619-9.523 1.559 0 2.546 1.057 2.997 1.682l.009-.241c.047-.98.989-1.806 1.939-1.759.893.044 1.776.82 1.806 1.759m-5.442 6.144c.958-.015 1.439-.976 1.439-2.543 0-1.565-.609-2.524-1.439-2.542v-.001l-.01.001-.012-.001v.001c-.83.018-1.437.977-1.437 2.542 0 1.567.479 2.528 1.437 2.543v.001h.012l.01-.001m50.927-6.144c.001.086.004 6.8 0 6.927-.048.981-.989 1.806-1.939 1.759-.762-.038-1.506-.609-1.724-1.359-.358.582-1.147 1.038-1.682 1.178-.945.245-2.195.109-3.025-.423-2.94-1.888-2.668-9.523 1.619-9.523 1.559 0 2.548 1.057 2.997 1.682l.011-.241c.047-.98.988-1.806 1.938-1.759.894.044 1.777.82 1.805 1.759m-5.44 6.144c.957-.015 1.438-.976 1.438-2.543 0-1.565-.608-2.524-1.438-2.542v-.001l-.011.001-.012-.001v.001c-.829.018-1.437.977-1.437 2.542 0 1.567.479 2.528 1.437 2.543v.001h.012l.011-.001m-27.293-5.189c-.043-.885-.737-1.578-1.614-1.652l-.151-.016c-.793 0-1.791.686-1.791 1.553l.004 3.284h-.004c.011 1.025-.001 2.875 0 2.896.043.885.738 1.579 1.613 1.653l.152.016c.792 0 1.791-.686 1.791-1.552l-.004-2.744h.004c-.013-1.027.001-3.417 0-3.438m-.014-4.441c0-.976-.791-1.766-1.765-1.766-.976 0-1.765.79-1.765 1.766 0 .974.789 1.764 1.765 1.764.974 0 1.765-.79 1.765-1.764m-36.076 2.354c-1.058.043-1.581.831-2.3 1.821v-.475c-.028-.896-.856-1.637-1.709-1.68-.908-.045-1.806.744-1.851 1.68v6.839h-.003c.027.897.856 1.638 1.71 1.679.898.045 1.787-.729 1.848-1.653h.008l-.001-4.332c.054-.635.331-1.428.842-1.424.723.006-.024 1.754 1.634 1.754 2.376-.001 2.63-4.324-.178-4.209m-7.262 6.676s-.185 3.143-4.047 3.143c-2.193 0-4.835-1.669-4.835-4.961 0-2.923 2.029-5.137 4.806-5.137 1.681 0 4.518.827 4.518 3.336s-2.6 2.717-5.7 2.717c0 0 .458 1.653 2.584 1.653 2.125 0 2.674-.751 2.674-.751m-5.461-2.512c-.01.079 1.187.019 1.263.002.711-.149 1.223-.688 1.209-1.479-.013-.748-.851-1.19-1.449-.802-.722.468-.914 1.478-1.023 2.279m-3.633 3.779c-1.194-.003-2.306-.674-2.306-1.964v-3.979h1.455c.261 0 .745-.126.745-.79s-.484-.799-.692-.799h-1.507v-1.31c-.027-.894-.876-1.632-1.728-1.674-.904-.045-1.801.741-1.846 1.674l.001 1.311h-.422c-.247 0-.744.138-.744.789s.442.8.692.8h.479c.006 2.167.015 4.758.016 4.774.072 1.801 1.806 3.046 3.215 3.046 1.711 0 2.638-1.875 2.638-1.875m47.649-.003c-1.194-.003-2.306-.674-2.306-1.964v-3.979h1.455c.261 0 .745-.126.745-.79s-.484-.799-.692-.799h-1.508v-1.31c-.027-.894-.876-1.632-1.728-1.674-.904-.045-1.801.741-1.846 1.674l.001 1.311h-.422c-.247 0-.744.138-.744.789s.442.8.692.8h.478c.007 2.167.016 4.758.017 4.774.072 1.801 1.806 3.046 3.215 3.046 1.711 0 2.637-1.875 2.637-1.875"/></svg>