<svg version="1" xmlns="http://www.w3.org/2000/svg" width="165" height="58" viewBox="0 0 165 58"><path fill="#fff" d="M7.353 10.638c2.056-.765 13.003-4.588 26.663-4.588 13.659 0 24.608 3.823 26.665 4.588l.054.022c.019.149.041.394.041.852v35.317c0 .457-.022.705-.041.85l-.054.021c-2.057.765-13.006 4.59-26.665 4.59-13.66 0-24.607-3.825-26.663-4.59l-.057-.021c-.017-.145-.041-.393-.041-.85v-35.317c0-.458.024-.703.041-.852l.057-.022m-2.374-5.264l-.055.025c-4.451 1.641-4.451 5.831-4.451 7.209v33.125c0 1.38 0 5.567 4.451 7.208l.055.021c3.158 1.179 14.581 5.021 29.037 5.021 14.457 0 25.878-3.842 29.036-5.021l.056-.023c4.448-1.638 4.448-5.825 4.448-7.205v-33.126c0-1.378 0-5.568-4.448-7.208l-.056-.025c-3.158-1.176-14.579-5.019-29.036-5.019-14.456-.001-25.879 3.842-29.037 5.018m48.2 11.104c-.128-.083-.293-.083-.437-.06l-.272.124-.185.119c-.612.438-1.431.985-2.412 1.58-.982.598-2.118 1.238-3.371 1.874-1.852.943-3.947 1.857-6.104 2.533-2.149.681-4.362 1.124-6.456 1.132-2.096-.008-4.307-.451-6.459-1.132-2.15-.675-4.247-1.589-6.103-2.533-1.246-.635-2.386-1.275-3.367-1.874-.98-.595-1.807-1.142-2.409-1.58l-.19-.119-.272-.124c-.137-.024-.307-.024-.438.06-.127.086-.223.252-.223.561v27.792c0 .208.172.381.381.381h7.101c.207 0 .379-.173.379-.381v-17.345c0-.065.036-.109.087-.134l.148-.01c.256.107.521.209.785.307.265.102.534.196.803.288.309.106.621.207.937.302.313.099.631.19.952.277.321.087.642.165.967.241.327.08.652.146.98.21.301.062.595.115.9.168l.91.135.126.054c.043.034.074.085.074.163v17.534c0 .209.171.384.382.384h7.1c.208 0 .376-.175.376-.384v-17.535c0-.078.037-.129.078-.163l.128-.054.909-.135.895-.168c.333-.064.655-.13.984-.21.324-.076.649-.153.969-.241.317-.086.632-.178.95-.277.314-.095.626-.196.938-.302.271-.092.534-.186.803-.288l.79-.307.143.01c.047.025.086.069.086.134v17.345c0 .208.172.381.378.381h7.102c.208 0 .379-.173.379-.381v-27.791c0-.309-.093-.476-.222-.561m-16.03-6.905c-1.023-.069-2.063-.108-3.1-.109v-.003h-.232v.002c-1.036.001-2.073.041-3.097.109-.239.015-.708.503-.708 1.099v8.026c0 .364.204.692.509.756 1.235.268 2.381.412 3.412.412 1.037 0 2.179-.144 3.412-.412.305-.064.508-.393.508-.756v-8.026c0-.595-.47-1.084-.704-1.098m42.247 21.452v-16.003l4.442 16.002h5.025l4.401-15.975v15.975h5.12v-19.968h-8.614l-3.075 12.877-3.358-12.877h-8.62v19.969h4.679zm26.831-11.369h2.179c1.254 0 2.131-.186 2.632-.555.501-.371.751-1.016.751-1.938 0-.841-.25-1.441-.751-1.81-.5-.364-1.337-.547-2.509-.547h-2.302v4.85zm-5.465 11.369v-19.969h9.011c2.47 0 4.333.431 5.581 1.293 1.25.863 1.875 2.143 1.875 3.84 0 1.393-.409 2.507-1.226 3.354-.815.843-1.976 1.365-3.482 1.564v.107c1.11 0 1.978.229 2.604.684.627.455 1.085 1.206 1.375 2.254.089.306.244 1.232.465 2.78.22 1.546.503 2.91.847 4.092h-5.97c-.171-.964-.328-2.069-.471-3.319-.147-1.249-.244-2.014-.3-2.304-.144-.75-.422-1.28-.831-1.595-.411-.316-1.04-.475-1.889-.475h-2.124v7.694h-5.465zm18.357 0h5.511v-19.969h-5.511v19.969zm19.285 0v-6.931l7.645-13.038h-5.682l-4.403 8.569-4.385-8.569h-6.457l7.621 12.822v7.147h5.661zm17.149-7.718l-2.531-8.333-2.777 8.333h5.308zm-13.403 7.718l7.717-19.969h6.729l7.877 19.969h-6.188l-1.381-3.896h-7.85l-1.381 3.896h-5.523zm-64.441 9.364h2.562l-1.291-3.798h.007l-1.278 3.798zm.241-5.072h2.109l2.981 8.017h-1.778l-.575-1.708h-3.396l-.563 1.708h-1.76l2.982-8.017zm10.257 8.174c.969 0 1.929-.146 2.879-.444v-4.006h-3.202v1.237h1.554v1.789c-.497.124-.955.188-1.373.188-.801 0-1.41-.248-1.828-.747-.417-.497-.625-1.225-.625-2.18 0-.939.202-1.66.607-2.17.403-.508.976-.763 1.719-.763.543 0 .939.117 1.192.354.251.234.382.614.389 1.135h1.634c0-.897-.27-1.574-.812-2.034-.54-.462-1.336-.692-2.386-.692-1.217 0-2.184.377-2.902 1.126-.716.75-1.075 1.766-1.075 3.044 0 1.36.36 2.396 1.077 3.103.718.708 1.77 1.06 3.152 1.06m6.213-4.663h1.022c.591 0 1.045-.099 1.36-.294.314-.194.471-.477.471-.84 0-.369-.138-.652-.415-.846-.277-.199-.673-.295-1.188-.295h-1.25v2.275zm-1.653-3.511h3.222c.939 0 1.664.178 2.166.534.502.357.754.871.754 1.542 0 .679-.269 1.192-.808 1.541-.263.171-.583.299-.962.383.319.047.572.119.756.21.391.195.615.549.671 1.064.058.52.12.978.189 1.372l.022.119c.057.295.109.537.158.725.05.188.11.361.178.521h-1.753c-.039-.105-.074-.252-.104-.439-.032-.186-.073-.454-.117-.807l-.084-.718c-.06-.536-.166-.886-.322-1.05-.153-.165-.454-.249-.902-.249h-1.41v3.27h-1.653v-8.018zm12.613 6.191c.353-.497.529-1.223.529-2.18 0-.956-.176-1.684-.529-2.184-.354-.499-.868-.749-1.547-.749-.675 0-1.19.25-1.544.749-.354.5-.532 1.228-.532 2.184 0 .957.178 1.683.532 2.18.354.499.869.745 1.544.745.679 0 1.193-.246 1.547-.745m-4.31.923c-.633-.706-.948-1.742-.948-3.103 0-1.362.315-2.397.948-3.108.632-.709 1.551-1.063 2.763-1.063 1.213 0 2.136.354 2.767 1.063.629.711.943 1.746.943 3.108 0 1.36-.314 2.396-.943 3.103-.631.708-1.553 1.061-2.767 1.061-1.212-.001-2.131-.353-2.763-1.061m11.921.903h1.651v-3.541h3.319v3.541h1.65v-8.019h-1.65v3.236h-3.319v-3.236h-1.651v8.019zm13.439-1.826c.353-.497.529-1.223.529-2.18 0-.956-.176-1.684-.529-2.184-.351-.499-.869-.749-1.547-.749-.676 0-1.189.25-1.543.749-.356.5-.533 1.228-.533 2.184 0 .957.176 1.683.533 2.18.354.499.868.745 1.543.745.679 0 1.197-.246 1.547-.745m-4.308.923c-.632-.706-.947-1.742-.947-3.103 0-1.362.315-2.397.947-3.108.632-.709 1.552-1.063 2.762-1.063 1.214 0 2.137.354 2.766 1.063.629.711.945 1.746.945 3.108 0 1.36-.316 2.396-.945 3.103-.628.708-1.551 1.061-2.766 1.061-1.211-.001-2.131-.353-2.762-1.061m13.027.903v-1.238h-3.341v-6.78h-1.654v8.019h4.995zm2.881-1.238h1.142c.835 0 1.467-.235 1.899-.706.432-.472.647-1.158.647-2.062 0-.889-.225-1.572-.674-2.054-.449-.479-1.086-.722-1.913-.722h-1.102v5.544zm-1.653-6.781h3.18c1.192 0 2.122.354 2.791 1.064.669.709 1.005 1.691 1.005 2.948 0 1.308-.379 2.303-1.136 2.984-.757.681-1.864 1.021-3.325 1.021h-2.515v-8.017zm8.331 8.019h1.651v-8.019h-1.651v8.019zm4.706-6.122l2.934 6.122h2.273v-8.019h-1.511v6.048l-2.898-6.048h-2.308v8.019h1.512v-6.122zm10.967 6.279c.972 0 1.932-.146 2.881-.444v-4.006h-3.205v1.237h1.556v1.789c-.497.124-.953.188-1.371.188-.801 0-1.411-.248-1.827-.747-.418-.497-.627-1.225-.627-2.18 0-.939.203-1.66.606-2.17.403-.508.977-.763 1.72-.763.543 0 .94.117 1.191.354.252.234.383.614.39 1.135h1.634c0-.897-.27-1.574-.811-2.034-.541-.462-1.337-.692-2.386-.692-1.218 0-2.187.377-2.904 1.126-.717.75-1.073 1.766-1.073 3.044 0 1.36.357 2.396 1.078 3.103.716.708 1.767 1.06 3.148 1.06"/></svg>