<svg version="1" xmlns="http://www.w3.org/2000/svg" width="220.667" height="107.5" viewBox="0 -3.5 220.667 107.5" enable-background="new 0 -3.5 220.667 107.5"><g fill-rule="evenodd" clip-rule="evenodd" fill="#fff"><path d="M149.673 10.98h.293c.419 0 .687-.013.782-.055.104-.034.181-.085.237-.172.063-.083.094-.182.094-.29 0-.098-.031-.193-.094-.277-.047-.086-.134-.138-.242-.168-.102-.039-.358-.062-.777-.062h-.293v1.024m-.742 2.153v-3.773h.734c.684 0 1.071.002 1.149.008.238.021.425.075.569.15.13.08.241.196.332.358.087.172.134.356.134.542 0 .278-.077.507-.253.701-.169.194-.404.315-.712.359.101.049.194.092.25.147.061.049.146.146.249.283l.262.465.425.76h-.909l-.297-.608c-.202-.411-.371-.681-.505-.79-.132-.103-.3-.158-.495-.158h-.191v1.555h-.742zm1.527-4.84c.491 0 .949.129 1.392.371.44.259.784.617 1.034 1.086.255.482.375.962.375 1.478 0 .508-.12.998-.362 1.458-.25.465-.594.829-1.036 1.086-.445.255-.899.381-1.402.381-.477 0-.942-.126-1.388-.381-.435-.257-.786-.622-1.024-1.086-.244-.461-.378-.951-.378-1.458 0-.516.134-.996.378-1.478.254-.469.6-.827 1.035-1.086.452-.242.911-.371 1.376-.371m0-.635c.595 0 1.149.156 1.688.462.528.312.963.746 1.263 1.323.311.565.466 1.164.466 1.785s-.155 1.216-.461 1.776c-.29.557-.709 1.003-1.252 1.313-.536.319-1.108.483-1.703.483-.591 0-1.149-.164-1.683-.483-.538-.31-.958-.756-1.259-1.313-.302-.56-.444-1.155-.444-1.776s.143-1.22.45-1.785c.306-.577.735-1.011 1.26-1.323.547-.307 1.097-.462 1.675-.462M109.968 44.85l-7.713-4.039c-1.723-.988-2.903-2.304-2.903-4.86v-15.764c1.961-1.075 2.987-2.228 3.934-3.961 1.648-.578 4.169-.905 6.682-.905 2.521 0 5.053.328 6.699.905.941 1.733 1.97 2.886 3.934 3.961v15.765c0 2.556-1.18 3.873-2.909 4.86l-7.724 4.038m0 2.397l9.292-4.862c2.433-1.489 3.391-3.553 3.391-6.434v-17.164c-4.4-1.816-3.466-4.044-5.279-4.627-2.043-.647-3.932-.98-7.403-.98-3.452 0-5.342.333-7.391.98-1.809.583-.87 2.811-5.27 4.627v17.165c0 2.88.942 4.944 3.38 6.434l9.28 4.861zm0-36.548c1.656 0 5.053.089 7.876 1.075v-1.817c-2.602-.823-4.873-1.069-7.876-1.153-2.986.084-5.262.33-7.862 1.153v1.817c2.829-.985 6.217-1.075 7.862-1.075m7.724-5.026l-.477 1.229-2.049-.487.396-1.323c.551-1.487 2.596-.91 2.13.581m-7.724.327h-1.568v-1.488c.081-1.069.711-1.567 1.568-1.567.87 0 1.502.499 1.577 1.567v1.488h-1.577v.826-.826zm-7.713-.327c-.47-1.491 1.577-2.068 2.131-.581l.391 1.323-2.042.487-.48-1.229zm7.713 1.153c2.688 0 5.751.41 8.282 1.238l2.434-4.949-3.075-1.573c-.465-.245-.867.081-.867.495-.074 1.406-.938 1.895-2.125 1.733-1.335-.165-2.204-1.573-1.177-3.056.548-.572.548-1.155-.081-1.562l-3.391-2.152-3.374 2.151c-.632.407-.632.99-.078 1.562 1.02 1.483.149 2.892-1.186 3.056-1.18.162-2.044-.327-2.116-1.733 0-.415-.405-.74-.875-.495l-3.065 1.573 2.434 4.949c2.526-.827 5.59-1.237 8.26-1.237M132.719 57.564h2.914l-1.967-2.478h-2.836zm-3.615 0h2.911l-1.973-2.478h-2.832zm-12.044-9.906v.662c0 .505.23.66.472.735.554.42 1.565.997 2.45 2.641.223-.493-1.192-3.455-1.117-3.455.32-.167 1.493 2.636 1.736 4.364 3.228-2.141 3.538-3.626 3.779-3.296.238.25-1.817 2.479-3.613 3.714.624 1.398 3.372 3.128 3.292 3.215-.15.414-2.982-1.979-3.23-2.307.637 2.555-.228 3.711 1.11 3.633h6.458l-1.968-2.479h-2.37c-.697-1.648 0-3.634 1.103-3.708.548-.174 1.661-.337 1.661-1.075l.146-3.543h-3.693c-1.173.078-.856 2.396-.856 2.55 0 .993-1.893.993-2.131-.254-.243-.653-.243-.9.07-1.56.168-.331.168-.736-.376-.736h-2.373c-.635 0-.55.57-.55.899m8.5 4.295c-1.18-.084-1.421 1.559-1.108 2.469h1.978l1.968-2.469h-2.838M129.104 51.953l-1.894 2.469h2.832l1.973-2.469zm3.615 0l-1.889 2.469h2.836l1.967-2.469zm1.413 2.806l1.341 1.727 2.596-1.727-2.596-1.736zm1.732 2.22l.479.585h7.795c-.154-.41-.553-1.078-1.029-1.489h-5.9l-1.345.904M139.17 54.759l-1.101.741h4.726l-.474-.741.474-.744h-4.726zm-3.306-2.228l1.344.906h5.9c.477-.414.875-1.077 1.029-1.484h-7.795l-.478.578m17.71-26.9l-8.178-13.281c-1.812-2.473-4.33-.576-3.549 2.721-2.508 6.435-4.327 8.996-8.818 12.376.477.085 1.184.665 1.507 1.075 5.271-2.56 8.811-8.667 9.447-10.563.385-.74.776.33 1.014.581l3.466 5.358c1.174 1.323 3.545 2.313 5.111 1.733m-11.646-14.267c-1.187-.665-2.589.903-1.574 3.544-.781 2.803-1.656 5.037-3.778 8.583 2.363-2.724 3.551-5.615 4.653-8.583-.243-.828-.083-2.806.699-3.544m5.901 12.619l-3.461-5.363c-.23.662-.548 1.324-1.104 2.146l3.151 5.279c.48-.575.945-1.243 1.414-2.062m-1.813 2.556l-3.063-5.279c-.321.497-.782 1.156-1.181 1.65l2.829 5.112c.396-.329.945-.989 1.415-1.483m-1.879 1.982l-2.756-5.113c-.235.33-.722.813-.944 1.154l2.282 5.108c.545-.409 1.015-.818 1.418-1.149m-1.891 1.489l-2.208-4.957c-.393.417-.937.833-1.175 1.158l1.963 4.616c.47-.244.789-.408 1.42-.817m-1.972 1.152l-1.887-4.623c-.318.335-.705.578-.937.824l1.335 4.542c.707-.25.86-.33 1.489-.743m-2.042.908l-1.261-4.457-.867.663.635 4.205c.469-.086 1.178-.251 1.493-.411m-2.128.573l-.388-4.121-.797.413v4.043l1.185-.335m-2.205-6.598c-.394-.328-1.098-1.072-1.407-1.893-1.662.328-2.765.069-3.71-.415-1.488 2.715-1.021 5.861.322 7.664 0-1.23.317-4.039 3.22-4.118l1.575-1.238m1.889-1.729c-1.092-.663-1.808-1.406-2.044-2.811-1.341.415-2.754.415-3.701 0-.621.75-1.103.995-1.646.911.232.993 2.117 1.737 4.485.993.146.745.545 1.484 1.498 2.31.539-.586.938-.991 1.408-1.403m1.732-14.523c.075.496-.313 2.062-.635 2.556 0 .335.392 1.73.635 2.81-.069 3.461-1.732 6.264-1.499 8.656-1.413-.906-1.57-1.643-1.809-3.049-1.184.413-2.679.82-4.247 0 2.599-2.228 4.954-5.939 3.147-9.157-1.181-.742-2.045-.91-1.258-2.391 2.526.323 4.167 2.219 5.666.575m-2.912.497h-1.97c.081.247.319.41.557.33 0 .08 0 .404.471.655l.389-.655c.396-.001.641-.001.553-.33m-3.618-.249l-1.263-.332c-1.496-.246-.787 1.565-.544 2.558 1.258-.903 4.09.417 3.774 3.634.394-1.48.237-2.972-.394-4.046-1.332-.418-1.661-1.236-1.573-1.814m5.824-.41l-.146-.996-1.195 1.073c.713.168.95.085 1.341-.077m-11.409 7.664c-1.418-2.801-3.391-2.801-4.576-2.388l-1.024 1.155c.315.496.636.746 1.19 1.156l.471-.743c.396-.498.793-.163.474.333l-.474.821c1.255.82 2.13.418 2.363 1.901.859 3.706 2.048 8.41 2.754 9.563h.858c-.31-1.731-.077-3.874.873-5.604l-2.909-6.194m8.975 11.8c-1.107-.983-1.498-1.233-2.133-1.154-2.119.081-2.599 1.898-2.599 3.546v2.395c-.393.496-4.089 5.609-5.424 7.507-2.76-1.077-3.541 1.079-2.532 2.886h1.186v-.655c0-.577.632-.577.632 0v.655h2.138c2.583-3.546 5.42-5.936 8.732-8.582v-6.598m10.462 14.28c.704.983 1.733 2.311 3.534 2.549 2.449-.078 4.725-3.88 4.261-6.017-.869-3.217-6.062-4.619-6.145-6.679-.077-1.653 1.259-3.559 2.677-3.968 1.418-.327 2.909 1.244 1.107 2.141.153.828.469 1.406.701 1.827l.238-1.244c.152-.583.707-.583.552.166l-.311 1.565c.08.416.311.83.551 1.07l.629-2.801c.078-.657.622-.583.464.166l-.63 3.221c.316.409.479.58.788.908.553-1.9 1.738-6.517-.392-7.842-1.1-.652-2.438-.242-3.859-.823-2.282.823-4.407 3.714-3.856 6.102 1.031 3.141 5.594 3.963 5.983 6.77 0 1.403-1.732 4.04-3.144 3.296-2.596-1.486-2.754-5.441-3.934-7.262-1.737-1.808-3.072-3.291-4.252-4.369-1.502.492-2.286.911-4.887 1.401v1.737c.714-.503 2.916-.91 4.488.245.317.083.317.658 0 .658-1.572-1.068-3.387-1.068-4.712 0-1.667 1.321-1.106 4.121-.088 5.198l3.696 4.119c.635-.162.797.502.243.582l-3.143.829c-3.002-1.816-4.415-.658-4.891 1.561v.995h1.978v-.826c0-.495.621-.495.621 0v.826h11.413c-.158-1.155-.628-1.98-1.102-2.061-.629-.41-1.027-1.905-1.342-2.97-.235-.738.314-.912.549-.168l.321.993c.95-.084 1.11-1.32 1.894-1.895m-7.247 2.219l-3.615-4.116c-.867-1.166-1.261-3.139-.553-4.459-1.104 1.153-1.104 3.386-.232 4.786l3.474 4.042.926-.253m-7.63 3.881c-.078-2.146.709-3.051 1.186-3.464-1.339.331-1.968 1.896-1.895 3.464h.709M87.229 57.564l1.885-2.478h-2.834l-1.96 2.478zm3.624 0l1.884-2.478h-2.829l-1.972 2.478zm12.04-9.906c0-.329.078-.899-.553-.899h-2.36c-.557 0-.557.405-.398.736.321.66.321.907.084 1.56-.243 1.248-2.127 1.248-2.127.254 0-.154.313-2.473-.87-2.55h-3.693l.153 3.543c0 .737 1.103.901 1.659 1.075 1.105.075 1.811 2.06 1.105 3.708h-2.368l-1.964 2.479h6.452c1.341.078.472-1.078 1.098-3.633-.235.327-3.07 2.721-3.217 2.307-.081-.087 2.663-1.816 3.299-3.215-1.806-1.234-3.858-3.464-3.623-3.714.243-.33.554 1.155 3.784 3.296.229-1.728 1.416-4.531 1.729-4.364.083 0-1.339 2.962-1.103 3.455.867-1.644 1.892-2.221 2.443-2.641.232-.076.471-.23.471-.735v-.662m-8.501 4.295h-2.833l1.964 2.469h1.967c.321-.91.077-2.553-1.098-2.469M90.853 51.953h-2.917l1.972 2.469h2.829zm-3.624 0h-2.909l1.96 2.469h2.834zm-1.416 2.806l-1.337-1.736-2.599 1.736 2.599 1.727zm-1.731 2.22l-1.338-.904h-5.904c-.472.411-.864 1.079-1.027 1.489h7.792l.477-.585M80.777 54.759l1.1-.744h-4.716l.455.744-.455.741h4.716zm3.305-2.228l-.477-.578h-7.792c.163.407.556 1.07 1.027 1.484h5.904l1.338-.906m25.886 5.112c.792-.417 1.113-.907 1.656-1.567-.47-.414-.705-.662-1.014-1.241-.246.169-.404.341-.643.416-.228-.075-.391-.247-.626-.416-.316.579-.546.827-1.02 1.241.551.659.861 1.15 1.647 1.567m0-3.053c.643-.331 1.027-.658 1.429-1.398.625.49 1.486.982 2.278 1.067-.316-1.898-2.051-3.219-3.707-3.219-1.646 0-3.374 1.32-3.693 3.219.784-.085 1.646-.577 2.288-1.067.392.74.779 1.067 1.405 1.398m0 6.187c.718-.25 1.269-.66 1.656-1.156-.47-.495-.705-.898-1.096-1.564-.163.081-.322.159-.56.246-.228-.087-.391-.165-.543-.246-.398.666-.629 1.069-1.102 1.564.393.496.942.906 1.645 1.156m2.293-9.647c.782.492 1.727 1.561 2.046 3.129h.471c.243-.658.243-1.728.077-2.39.948-.173 1.576-.331 2.205-.829-2.039-1.816-4.249-.485-4.799.09m-1.265 3.46c.629 1.16 1.888 1.562 2.602 1.724.158-.652.158-.9.158-1.479-.872-.075-1.814-.575-2.21-.902-.231.241-.391.489-.55.657m0 3.053c.241.573.788 1.239 1.108 1.561.629-.571 1.1-1.4 1.336-2.309-.557-.159-1.027-.408-1.336-.581-.32.581-.707 1.004-1.108 1.329m5.979-.581h-.544c.078.664.078 1.154.147 1.897.565 0 1.266 0 1.899-.165.229-.323.55-1.568.55-2.142-.632 0-1.103-.079-1.813-.24-.07.161-.154.405-.239.65m-1.413-3.796c1.105.172 1.729.246 2.986-.242-.298-.742-.704-1.154-1.017-1.571-.557.417-1.022.582-1.97.908.001.17-.08.577.001.905m1.81 2.559c.631.167.946.167 1.656.25.069-.662 0-1.568-.321-2.475-.456.162-.704.252-1.098.331 0 .576-.077 1.244-.237 1.894m-3.852 2.478c.787.491 1.723.656 2.438.656 0-.743-.08-1.156-.154-1.805-.561 0-1.104 0-1.815-.175-.154.664-.234.911-.469 1.324m.627-1.891c.708.161 1.73.24 2.432.074.332-.736.481-1.979.481-2.555-.709 0-1.103 0-1.579-.079-.074.321-.152.569-.314.981-.312.085-.55 0-.782 0-.078.749-.159 1.076-.238 1.579m-6.447-5.282c-.56-.575-2.765-1.906-4.807-.09.627.498 1.258.656 2.2.829-.158.662-.158 1.731.085 2.39h.469c.315-1.569 1.255-2.637 2.053-3.129m1.255 3.46c-.159-.168-.316-.416-.554-.658-.398.327-1.341.827-2.205.902 0 .579 0 .827.162 1.479.701-.162 1.965-.563 2.597-1.723m0 3.053c-.391-.324-.795-.748-1.108-1.329-.31.173-.787.422-1.33.581.232.908.704 1.737 1.33 2.309.312-.322.869-.988 1.108-1.561m-5.985-.581c-.078-.244-.161-.488-.235-.649-.711.161-1.177.24-1.82.24 0 .573.332 1.818.554 2.142.637.165 1.34.165 1.895.165.078-.743.078-1.233.156-1.897h-.55m1.416-3.797c.075-.327 0-.734 0-.905-.945-.327-1.416-.491-1.964-.908-.316.417-.714.829-1.031 1.571 1.263.488 1.895.414 2.995.242m-1.809 2.559c-.155-.65-.238-1.318-.238-1.894-.394-.079-.632-.169-1.093-.331-.332.906-.4 1.813-.332 2.475.715-.083 1.031-.083 1.663-.25m3.857 2.478c-.238-.413-.316-.66-.471-1.323-.707.175-1.256.175-1.812.175-.08.648-.155 1.062-.155 1.805.711-.001 1.65-.166 2.438-.657m-.635-1.891c-.072-.503-.152-.83-.24-1.578-.229 0-.467.085-.782 0-.151-.412-.233-.66-.316-.981-.466.079-.867.079-1.569.079 0 .575.158 1.818.471 2.555.708.165 1.729.086 2.436-.075m-39.421-30.781c1.577.581 3.925-.41 5.107-1.733l3.471-5.358c.221-.251.626-1.32 1.02-.581.626 1.896 4.171 8.003 9.444 10.563.31-.41 1.022-.99 1.501-1.075-4.496-3.38-6.302-5.941-8.829-12.376.795-3.296-1.724-5.194-3.53-2.721l-8.184 13.281m11.637-14.267c.792.738.951 2.716.71 3.544 1.108 2.968 2.277 5.859 4.648 8.583-2.117-3.546-2.997-5.779-3.778-8.583 1.024-2.641-.399-4.209-1.58-3.544m-5.901 12.619c.473.819.948 1.487 1.418 2.062l3.149-5.279c-.545-.822-.869-1.484-1.099-2.146l-3.468 5.363m1.817 2.556c.46.494 1.025 1.154 1.413 1.482l2.832-5.112c-.39-.494-.865-1.153-1.175-1.65l-3.07 5.28m1.882 1.982c.396.33.869.739 1.42 1.148l2.285-5.108c-.24-.34-.711-.824-.952-1.154l-2.753 5.114m1.892 1.489c.624.409.945.573 1.418.817l1.965-4.616c-.237-.325-.79-.741-1.178-1.158l-2.205 4.957m1.969 1.152c.625.413.785.493 1.489.743l1.343-4.542c-.235-.247-.629-.489-.945-.824l-1.887 4.623m2.043.908c.315.16 1.027.325 1.501.411l.633-4.205-.875-.663-1.259 4.457m2.134.573c.375.085.78.25 1.172.334v-4.043l-.797-.413-.375 4.122m2.198-6.598l1.573 1.238c2.915.08 3.23 2.888 3.23 4.118 1.335-1.803 1.804-4.949.316-7.664-.948.484-2.055.743-3.711.415-.303.821-1.015 1.566-1.408 1.893m-1.892-1.729c.474.412.867.817 1.421 1.402.939-.825 1.343-1.565 1.496-2.31 2.36.745 4.255 0 4.485-.993-.554.084-1.023-.16-1.652-.911-.95.415-2.363.415-3.704 0-.239 1.406-.941 2.149-2.046 2.812m-1.732-14.523c1.496 1.644 3.153-.252 5.673-.575.782 1.481-.08 1.649-1.26 2.391-1.815 3.218.549 6.93 3.139 9.157-1.558.82-3.056.413-4.247 0-.23 1.406-.396 2.143-1.809 3.049.235-2.392-1.416-5.195-1.496-8.656.238-1.08.632-2.475.632-2.81-.313-.494-.71-2.059-.632-2.556m2.91.497c-.073.33.165.33.559.33l.386.655c.479-.251.479-.575.479-.655.238.08.471-.083.548-.33h-1.972m3.623-.249c.085.578-.232 1.396-1.571 1.814-.629 1.074-.792 2.566-.391 4.046-.321-3.216 2.516-4.537 3.774-3.634.235-.993.947-2.804-.549-2.558l-1.263.332M83.14 9.631c.38.162.622.245 1.336.078l-1.188-1.073-.148.995zm11.408 7.664l-2.914 6.195c.947 1.731 1.183 3.873.87 5.604h.858c.714-1.154 1.89-5.857 2.76-9.563.232-1.483 1.105-1.081 2.36-1.901l-.472-.821c-.321-.496.083-.831.472-.333l.473.743c.546-.41.867-.66 1.177-1.156l-1.024-1.155c-1.179-.413-3.141-.413-4.56 2.387m-8.97 11.8v6.599c3.302 2.646 6.139 5.036 8.732 8.582h2.122v-.655c0-.577.642-.577.642 0v.655h1.175c1.024-1.807.233-3.963-2.521-2.886-1.336-1.898-5.034-7.011-5.431-7.507v-2.395c0-1.648-.47-3.466-2.594-3.546-.629-.081-1.028.169-2.125 1.153m-10.472 14.28c.781.575.953 1.81 1.894 1.893l.311-.993c.238-.743.782-.57.549.168-.311 1.065-.699 2.56-1.335 2.97-.465.081-.942.906-1.102 2.061h11.416v-.826c0-.495.619-.495.619 0v.826h1.978v-.994c-.477-2.218-1.89-3.376-4.887-1.561l-3.144-.829c-.553-.08-.402-.744.243-.582l3.688-4.119c1.024-1.077 1.586-3.877-.073-5.198-1.341-1.068-3.147-1.068-4.724 0-.318 0-.318-.575 0-.658 1.577-1.155 3.781-.748 4.485-.245v-1.737c-2.598-.491-3.377-.909-4.876-1.401-1.182 1.078-2.531 2.561-4.26 4.369-1.175 1.82-1.325 5.775-3.929 7.262-1.413.744-3.144-1.893-3.144-3.296.396-2.807 4.951-3.628 5.976-6.77.554-2.388-1.574-5.279-3.849-6.102-1.416.581-2.756.171-3.856.823-2.125 1.326-.939 5.942-.391 7.842.316-.328.468-.499.787-.908l-.632-3.22c-.155-.749.383-.823.472-.166l.634 2.801c.23-.24.468-.654.539-1.07l-.309-1.565c-.15-.749.393-.749.548-.166l.238 1.244c.239-.421.555-.999.715-1.827-1.812-.897-.321-2.468 1.087-2.141 1.423.409 2.759 2.314 2.679 3.968-.07 2.06-5.267 3.462-6.131 6.679-.472 2.137 1.8 5.939 4.252 6.017 1.809-.237 2.818-1.565 3.532-2.549m7.241 2.219l.94.252 3.471-4.042c.864-1.4.864-3.633-.241-4.786.712 1.321.321 3.294-.553 4.459l-3.617 4.117m7.631 3.881h.717c.075-1.568-.557-3.133-1.902-3.464.486.413 1.268 1.318 1.185 3.464m19.99-28.793c4.81 0 8.669 4.046 8.669 9.08 0 4.949-3.859 8.993-8.669 8.993-4.713 0-8.655-4.044-8.655-8.993 0-5.034 3.942-9.08 8.655-9.08m5.513 6.764c-.152-.825-1.014-1.729-1.646-1.976-.709-.337-1.268.66-.477 1.069.551.25 1.663 0 2.123.907m-4.326 5.859c-.715-.244-1.973.086-2.516.491-.543.495 0 1.575.704.989.473-.325.792-1.48 1.812-1.48m1.179-6.431c.155.819 1.024 1.727 1.734 2.06.709.245 1.26-.74.398-1.149-.478-.253-1.583.076-2.132-.911m-5.817 2.138c.542-.49.861-1.811.781-2.559-.078-.735-1.258-.735-1.18.168.078.58.864 1.4.399 2.391m2.595 6.852c.785.247 1.97-.083 2.513-.493.637-.501.073-1.575-.705-.993-.48.333-.785 1.486-1.808 1.486m-3.781-9.978c-.553.489-.869 1.807-.787 2.55.083.742 1.255.742 1.103-.161-.001-.582-.787-1.486-.316-2.389m4.959 4.533c-1.727-3.63-4.015.824-3.773 2.972.542-2.809 2.992-.498 3.69-2.148.875 1.65 3.549.908 4.328 0-.779.245-1.176.245-1.724-1.071-.477-.911-1.729-2.231-2.521.247m-.083-3.386c.404.989.322 1.489.233 2.729.171-.423.398-.75.715-.828.47-1.733-1.098-3.626-2.438-4.372 1.574 2.227-.621 2.392 0 4.372.396-.083.937.078 1.418.828.155-.828.305-1.651.072-2.729m2.449 6.44c4.166.49 5.111-5.362 3.302-7.678-1.811-2.223-4.017-2.143-4.174-.325-1.727-4.046-7.006-1.98-7.951.823-1.023 2.802.238 4.707 1.814 3.96-2.521 3.543 1.809 7.346 4.56 6.844 2.836-.495 3.781-2.552 2.449-3.624m-2.688-11.553c-4.088 0-7.391 3.466-7.391 7.75 0 4.384 3.303 7.842 7.391 7.842 4.101 0 7.485-3.458 7.485-7.842.001-4.284-3.384-7.75-7.485-7.75m0 22.276l-7.314-3.791c-1.408-.747-2.753-1.815-2.753-4.541v-15.264c2.044-1.235 2.991-2.47 3.773-3.791 1.103-.496 3.703-.831 6.293-.831 2.6 0 5.125.335 6.306.831.786 1.32 1.729 2.555 3.771 3.791v15.264c0 2.726-1.407 3.794-2.754 4.541l-7.322 3.791m.089-24.009c-5.122 0-9.21 4.294-9.21 9.576 0 5.361 4.088 9.647 9.21 9.647 5.037 0 9.128-4.287 9.128-9.647 0-5.283-4.092-9.576-9.128-9.576m96.233 56.718h.302c.419 0 .678-.004.785-.043.1-.034.176-.095.233-.182.059-.077.089-.18.089-.277 0-.104-.03-.203-.089-.282-.052-.083-.129-.136-.238-.169-.113-.04-.366-.058-.78-.058h-.302v1.011m-.727 2.159v-3.778h.727c.681 0 1.066.012 1.148.02.24.023.435.069.57.142.135.087.238.211.332.362.085.17.129.354.129.556 0 .261-.077.497-.249.686-.17.193-.408.312-.711.366.101.038.184.085.25.137.053.049.146.144.249.285l.265.463.414.763h-.901l-.294-.619c-.213-.405-.374-.665-.514-.77-.126-.108-.295-.156-.497-.156h-.191v1.545h-.727zm1.524-4.837c.48 0 .937.13 1.382.378.44.26.786.618 1.04 1.083.251.477.374.956.374 1.474 0 .507-.123.997-.371 1.454-.235.461-.587.823-1.032 1.077-.44.265-.906.395-1.393.395-.485 0-.941-.13-1.388-.395-.435-.254-.792-.616-1.028-1.077-.244-.457-.379-.947-.379-1.454 0-.518.138-.997.381-1.474.256-.465.604-.823 1.038-1.083.446-.249.906-.378 1.376-.378m0-.631c.586 0 1.154.161 1.683.459.53.306.954.743 1.253 1.318.314.568.474 1.162.474 1.788 0 .625-.159 1.214-.464 1.77-.296.571-.704 1.004-1.253 1.312-.533.317-1.102.475-1.692.475s-1.153-.157-1.688-.475c-.537-.308-.951-.74-1.248-1.312-.305-.556-.456-1.145-.456-1.77 0-.626.151-1.22.461-1.788.308-.575.721-1.013 1.253-1.318.534-.298 1.091-.459 1.677-.459"/><path d="M19.897 87.307c-1.379-1.731-2.822-3.887-3.416-7.324-1.56 2.287-2.3 5.163-2.353 7.742 0 4.026 2.434 8.382 5.968 9.571 1.158.201 2.144-.126 2.729-.678.651-.693 1.107-1.802 1.053-3.185-.38-1.185-.934-2.195-1.591-3.139-.761-1.096-1.623-2.058-2.39-2.987m27.291-.702v10.297c0 .351.587 1.572 1.661 1.572.896 0 2.502-1.521 2.502-5.368.001-3.502-1.852-5.691-4.163-6.501m-14.699-4.082v-5.068c0-1.192-.704-1.521-.978-1.561-.523.058-1.111.57-1.166 1.665.036.134.109.378.169.535.188.457.455.97.758 1.563.348.556.813 1.565 1.217 2.866m14.449-5.484c.156.581.25 1.141.25 1.651v2.405c3.228.244 6.268.971 8.855 2.169-1.968-3.611-5.566-5.701-9.105-6.225m34.61 10.268c-1.379-1.731-2.824-3.887-3.422-7.324-1.556 2.287-2.296 5.163-2.348 7.742 0 4.026 2.434 8.382 5.966 9.571 1.162.201 2.146-.126 2.731-.678.652-.693 1.103-1.802 1.051-3.185-.375-1.185-.933-2.195-1.586-3.139-.766-1.096-1.628-2.058-2.392-2.987m60.284 0c-1.38-1.731-2.823-3.887-3.419-7.324-1.556 2.287-2.298 5.163-2.348 7.742 0 4.026 2.434 8.382 5.966 9.571 1.16.201 2.144-.126 2.729-.678.652-.693 1.107-1.802 1.053-3.185-.375-1.185-.934-2.195-1.591-3.139-.765-1.096-1.625-2.058-2.39-2.987m12.617-4.214v-5.638c0-1.187-.869-1.566-1.107-1.566-.444 0-1.116.498-1.116 1.566 0 .047.02.23.189.649.187.474.453.999.767 1.614.278.516.827 1.72 1.267 3.375m50.961 5.764c-.719-.91-1.688-1.594-2.74-1.996v10.264c0 .64.469 1.57 1.663 1.57 1.063 0 2.507-1.716 2.507-5.364-.001-1.988-.628-3.513-1.43-4.474m-18.474-12.968c-.218 0-.71-.043-1.195-.273.391.934.615 1.991.615 3.165v18.797c0 .865.722 1.569 1.025 1.569.223 0 .737.043 1.245.283-.376-.912-.577-1.881-.577-2.823v-19.152c0-1.054-.984-1.566-1.113-1.566m-57.644 25.34l.021.36c-.01 2.188-2.029 2.411-2.521 2.411h-9.847c-2.696 0-6.358-1.854-7.244-6.377l-2.591-10.756c-.6 1.33-1.128 2.52-1.307 3-.458 1.222-.717 2.295-.712 3.239.031 4.458 1.375 5.787 2.407 6.262 1.605.737 2.718 4.632-.892 4.632h-7.604c-3.802 0-6.944-2.729-7.009-7.074-.285.426-.578.823-.868 1.186-.911 1.123-1.827 1.949-2.541 2.521-.611.488-1.139.813-1.222.876-3.008 1.96-6.326 2.492-9.578 2.492-5.676 0-11.053-3.229-13.806-8.48-.548 6.095-5.898 8.48-9.206 8.48h-14.977c-4.451 0-7.306-3.863-7.306-7.394v-3.993c-.715 2.291-1.807 4.115-2.909 5.492-.9 1.115-1.803 1.938-2.5 2.51-.34.278-.64.499-.854.652l-.28.199c-3.186 2.021-6.439 2.533-9.721 2.533-8.168 0-15.725-6.704-15.725-16.486 0-7.926 5.544-16.486 15.389-16.486h40.996c3.846 0 6.211 3.151 6.211 6.689 0 .794-.248 1.555-.408 2.021-.168.482-.394 1.038-.637 1.619-.466 1.143-.813 2.053-.922 2.779-.098.648-.495 1.297-1.028 1.737.75.666 1.411 1.407 1.965 2.205l-.011-.565c0-7.926 5.549-16.486 15.39-16.486h15.658c.512 0 2.516.25 2.516 2.433 0 2.188-2.004 2.429-2.516 2.429-.435 0-1.193.741-1.193 1.566 0 .047.013.23.184.652.181.458.44.961.734 1.55.715 1.146 1.931 4.164 2.024 7.849-.005.399-.031.794-.057 1.168.429-.595.858-1.1 1.257-1.493 1.175-1.288 5.019-5.612 5.332-5.967 1.775-1.982 2.127-3.564 2.127-3.759 0-.979-.872-1.57-1.19-1.57-.741 0-2.452-.494-2.475-2.372 0-1.609 1.318-2.485 2.526-2.485h9.846c4.423 0 6.817 3.912 7.257 6.579l2.836 10.752c-.012-.275-.023-.556-.023-.845 0-7.936 5.563-16.486 15.48-16.486h23.987c3.645 0 7.304 2.94 7.304 7.663v2.324h2.676v-3.56c0-1.054-.985-1.566-1.107-1.566-.507 0-2.521-.24-2.521-2.429 0-2.183 2.015-2.433 2.521-2.433h8.417c1.91 0 3.938.89 5.373 2.501v-.068c0-2.183 2.008-2.433 2.516-2.433l8.918.002c2.2.149 3.861 1.335 4.985 2.632 1.222 1.424 1.824 3.498 1.824 5.029v2.411c3.487.273 6.552 1.148 9.135 2.34 4.502 2.211 7.701 5.977 7.701 11.044 0 6.844-5.74 9.515-9.156 9.515h-14.981c-2.343 0-4.206-1.024-5.462-2.492v.067c0 2.185-2.008 2.425-2.517 2.425h-8.334c-4.565 0-7.31-3.895-7.31-7.394v-6.108c-.196-1.679-1.521-3.091-2.525-3.672l-.15-.069v10.82c0 .818.69 1.569 1.112 1.569.513 0 2.517.246 2.517 2.429 0 2.185-2.004 2.425-2.517 2.425h-8.416c-4.451 0-7.31-3.863-7.31-7.394v-4.564c-.703 2.558-1.878 4.576-3.075 6.063-.899 1.115-1.803 1.938-2.497 2.51-.349.278-.639.499-.859.652l-.266.193c-3.116 2.041-6.386 2.539-9.731 2.539-3.112.001-6.155-.988-8.728-2.77m-4.871-4.853c.342 1.373.971 2.039 1.455 2.364.258.184.504.279.697.345l.236.062c-1.012-1.094-1.918-2.345-2.643-3.739l.255.968zm-103.811-9.844c-1.315-1.66-2.614-3.601-3.164-6.757-.17-1.117-.046-2.146.228-3.042-3.385 2.62-4.798 7.273-4.866 11.005.008 4.43 2.673 9.381 6.849 10.736 1.501.281 2.906-.112 3.807-.989.929-.993 1.504-2.492 1.39-4.272-.425-1.411-1.069-2.577-1.801-3.633-.787-1.123-1.657-2.101-2.443-3.048m25.254-1.433v11.804c0 .736.864 2.779 2.817 2.779 2.008 0 3.66-2.708 3.66-6.575 0-4.819-3.09-7.569-6.477-8.008m-.843-9.4c.505 1.032.847 2.157.847 2.991v3.546c9.532.39 16.831 4.913 16.831 12.249 0 5.943-4.969 8.305-8.088 8.305h-14.983c-3.758 0-6.155-3.262-6.155-6.184v-19.151c0-2.039-1.398-2.738-2.117-2.78-1.325.06-2.252 1.293-2.329 2.817-.011.26.062.585.263 1.08.203.496.492 1.06.824 1.701.579.893 1.775 3.71 1.863 7.234-.093 4.491-1.754 7.718-3.445 9.818-.836 1.044-1.674 1.806-2.325 2.334-.321.26-.597.465-.796.606l-.251.182c-2.94 1.867-5.935 2.342-9.104 2.342-7.585 0-14.574-6.219-14.574-15.276 0-7.407 5.169-15.275 14.238-15.275h41c3.122 0 5.055 2.512 5.055 5.479 0 .565-.179 1.145-.336 1.605-.164.459-.382.997-.614 1.561-.456 1.108-.864 2.163-.999 3.067-.181 1.164-1.576 1.962-2.216.303-2.195-5.719-7.733-8.55-12.589-8.554m37.239 10.833c-1.315-1.66-2.617-3.601-3.161-6.757-.173-1.117-.049-2.146.228-3.042-3.388 2.62-4.806 7.273-4.865 11.005.005 4.43 2.673 9.381 6.846 10.736 1.496.281 2.909-.112 3.81-.989.932-.993 1.499-2.492 1.387-4.272-.425-1.411-1.071-2.577-1.802-3.633-.786-1.123-1.657-2.101-2.443-3.048m11.274.976c-.09 4.491-1.757 7.724-3.458 9.82-.841 1.044-1.693 1.808-2.357 2.34-.603.48-1.09.78-1.172.848-2.744 1.786-5.779 2.274-8.93 2.274-7.588 0-14.571-6.219-14.571-15.276 0-7.407 5.166-15.275 14.234-15.275h15.659c.427 0 1.361.17 1.361 1.222 0 1.054-.935 1.215-1.361 1.215-1.284 0-2.353 1.525-2.353 2.78 0 .283.083.632.277 1.119.201.496.481 1.06.81 1.699.575.902 1.773 3.709 1.861 7.234m49.015-.976c-1.315-1.66-2.617-3.601-3.164-6.757-.176-1.117-.051-2.146.226-3.042-3.388 2.62-4.801 7.273-4.868 11.005.005 4.43 2.677 9.381 6.851 10.736 1.493.281 2.907-.112 3.809-.989.931-.993 1.501-2.492 1.384-4.272-.422-1.411-1.063-2.577-1.798-3.633-.789-1.123-1.658-2.101-2.44-3.048m25.193-1.251v12.296c0 1.092.886 2.772 2.263 2.772.433 0 1.371.168 1.371 1.226 0 1.052-.938 1.215-1.371 1.215h-8.417c-3.758 0-6.155-3.262-6.155-6.184v-19.151c0-1.98-1.506-2.78-2.262-2.78-1.268 0-2.262 1.259-2.262 2.78 0 .283.08.632.27 1.117.201.504.491 1.075.827 1.739.425.782 1.673 3.577 1.763 7.196-.09 4.491-1.758 7.718-3.438 9.818-.84 1.044-1.684 1.806-2.328 2.334-.322.26-.598.465-.799.606l-.249.178c-2.862 1.875-5.864 2.346-9.103 2.346-7.5 0-14.571-6.213-14.571-15.276 0-7.411 5.172-15.275 14.32-15.275h23.987c3.096 0 6.154 2.479 6.154 6.452v3.529h4.982v-4.765c0-1.821-1.602-2.78-2.26-2.78-.435 0-1.366-.161-1.366-1.215 0-1.052.932-1.222 1.366-1.222h8.417c2.907 0 6.155 2.465 6.155 6.542v18.797c0 1.118.9 2.772 2.177 2.772.432 0 1.363.168 1.363 1.226 0 1.052-.932 1.215-1.363 1.215h-8.332c-3.861 0-6.157-3.279-6.157-6.184l.002-6.182c-.231-2.228-1.92-3.955-3.121-4.65-.553-.306-1.211-.436-1.863-.492m38.377 2.79c-1.195-1.518-2.943-2.492-4.772-2.75v11.804c0 1.109.813 2.775 2.821 2.775 2.222 0 3.654-2.992 3.654-6.569 0-2.256-.694-4.049-1.703-5.26m-19.346-13.396c-.433 0-1.363-.161-1.363-1.215 0-1.052.931-1.222 1.363-1.222l8.881.002c1.809.116 3.166 1.08 4.158 2.23 1.019 1.178 1.531 2.946 1.531 4.22v3.554c3.809.165 7.09 1.042 9.815 2.301 4.247 2.086 7.021 5.498 7.021 9.94 0 5.928-4.958 8.305-8.006 8.305h-14.982c-3.861 0-6.153-3.279-6.153-6.184v-19.151c.001-1.821-1.605-2.78-2.265-2.78m-63.628 22.007c.813 3.286 3.177 3.666 3.491 3.668.425.006 1.359.168 1.352 1.231 0 1.054-.942 1.209-1.361 1.209h-9.849c-2.27 0-5.36-1.562-6.115-5.413l-3.38-14.04c-.968 2.104-2.402 5.236-2.718 6.094-.481 1.274-.797 2.518-.792 3.682.031 4.714 1.482 6.623 3.1 7.359.968.441 1.385 2.318-.435 2.318h-7.604c-3.271 0-5.855-2.314-5.855-6.01 0-3.689 2.159-7.21 3.722-8.741 1.152-1.261 5.044-5.64 5.363-5.998 1.884-2.1 2.433-3.97 2.433-4.586 0-1.649-1.383-2.782-2.342-2.782-.507 0-1.307-.305-1.32-1.168 0-.774.629-1.267 1.375-1.267h9.844c3.712 0 5.78 3.339 6.13 5.634l4.961 18.81zm-99.471-7.577c-.797-1.139-1.68-2.132-2.474-3.099-1.273-1.604-2.48-3.406-2.992-6.365-.337-2.177.61-3.972 1.506-4.986-5.492 2.187-7.598 8.424-7.676 13.069 0 4.702 2.826 10.072 7.435 11.54 1.711.332 3.399-.101 4.517-1.192 1.13-1.18 1.785-2.963 1.625-5.014-.455-1.551-1.154-2.824-1.941-3.953m29.438 4.001c0-5.691-3.97-8.778-8.018-8.875v12.671c0 .997 1.045 3.583 3.587 3.583 2.758 0 4.431-3.496 4.431-7.379m32.212-4.001c-.797-1.139-1.68-2.132-2.477-3.099-1.271-1.604-2.477-3.406-2.986-6.365-.336-2.177.607-3.972 1.509-4.986-5.498 2.187-7.604 8.424-7.682 13.069 0 4.702 2.826 10.072 7.433 11.54 1.714.332 3.401-.101 4.52-1.192 1.133-1.18 1.786-2.963 1.628-5.014-.456-1.551-1.158-2.824-1.945-3.953m60.285 0c-.798-1.139-1.679-2.132-2.476-3.099-1.273-1.604-2.474-3.406-2.986-6.365-.337-2.177.605-3.972 1.501-4.986-5.491 2.187-7.594 8.424-7.676 13.069 0 4.702 2.826 10.072 7.436 11.54 1.71.332 3.397-.101 4.519-1.192 1.132-1.18 1.784-2.963 1.626-5.014-.46-1.551-1.158-2.824-1.944-3.953m62.99 4.226c0-2.426-.747-4.411-1.89-5.78-1.52-1.925-3.815-3.041-6.131-3.103v12.677c0 1.414 1.037 3.587 3.589 3.587 2.998 0 4.432-3.843 4.432-7.381m-174.355-15.876c0-2.587-1.849-3.546-2.883-3.588-1.873.058-3.013 1.781-3.1 3.588-.045.868.491 1.861 1.196 3.242.47.711 1.661 3.381 1.754 6.816-.094 4.269-1.675 7.301-3.266 9.288-.797.993-1.594 1.716-2.208 2.212-.309.257-.573.445-.761.588l-.235.161c-2.774 1.765-5.594 2.222-8.685 2.222-7.197 0-13.799-5.897-13.799-14.471 0-7.055 4.909-14.47 13.463-14.47h41c2.635 0 4.286 2.088 4.286 4.673 0 .41-.134.879-.29 1.328-.163.455-.375.967-.601 1.521-.445 1.092-.9 2.24-1.055 3.252-.098.662-.494.759-.732.133-2.337-6.088-8.212-9.063-13.312-9.063h-1.375c.836 1.187 1.456 2.829 1.456 3.803v4.334c9.836.171 16.83 4.672 16.83 11.461 0 5.324-4.435 7.499-7.317 7.499h-14.982c-3.297 0-5.384-2.866-5.384-5.378v-19.151zm132.726 6.966v13.156c0 1.275 1.018 3.586 3.034 3.586.377 0 .595.112.595.412 0 .299-.218.409-.595.409h-8.417c-3.295 0-5.378-2.866-5.378-5.378v-19.151c0-2.512-1.941-3.582-3.039-3.582-1.822 0-3.033 1.754-3.033 3.582 0 .868.486 1.857 1.191 3.234.367.676 1.583 3.339 1.669 6.824-.086 4.269-1.667 7.301-3.259 9.288-.797.993-1.598 1.722-2.211 2.212-.305.257-.569.445-.761.588l-.232.161c-2.691 1.769-5.518 2.222-8.684 2.222-7.114 0-13.8-5.897-13.8-14.471 0-7.061 4.909-14.47 13.549-14.47h23.987c2.723 0 5.383 2.179 5.383 5.646v4.338h6.528v-5.573c0-2.335-2.016-3.582-3.034-3.582-.38 0-.598-.116-.598-.413 0-.296.218-.416.598-.416h8.417c2.547 0 5.383 2.173 5.383 5.736v18.797c0 1.283 1.021 3.586 2.949 3.586.38 0 .598.112.598.412 0 .299-.218.409-.598.409h-8.332c-3.389 0-5.383-2.872-5.383-5.378v-6.221c-.244-2.612-2.183-4.543-3.516-5.321-.698-.384-1.484-.527-2.185-.595-.307-.028-.59-.039-.826-.047m-75.957-3.724c.472.711 1.665 3.381 1.75 6.816-.088 4.269-1.667 7.301-3.271 9.29-.803.991-1.61 1.72-2.239 2.216-.604.485-1.054.761-1.142.832-2.575 1.668-5.414 2.133-8.495 2.133-7.195 0-13.805-5.897-13.805-14.471 0-7.055 4.915-14.47 13.469-14.47h15.659c.373 0 .59.12.59.416 0 .297-.218.413-.59.413-1.843 0-3.118 2.037-3.118 3.582-.001.869.488 1.862 1.192 3.243m26.415-2.653l4.969 18.851c.927 3.743 3.676 4.263 4.234 4.269.376.002.591.112.591.414 0 .297-.218.407-.596.407h-9.849c-1.984 0-4.713-1.375-5.365-4.805l-3.898-16.187s-3.173 6.81-3.671 8.142c-.49 1.313-.848 2.667-.842 3.981.031 4.886 1.553 7.185 3.562 8.099.538.252.496.77-.125.77h-7.604c-2.888 0-5.088-1.995-5.088-5.204 0-3.416 2.042-6.747 3.499-8.164 1.129-1.24 5.063-5.663 5.384-6.031 1.957-2.177 2.64-4.226 2.64-5.13 0-2.095-1.729-3.588-3.114-3.588-.35 0-.543-.177-.546-.368 0-.217.171-.455.601-.455h9.844c3.231-.001 5.084 2.948 5.374 4.999m72.38-.589c0-2.335-2.013-3.582-3.035-3.582-.381 0-.594-.116-.594-.413 0-.296.213-.416.594-.416l8.858.006c1.544.101 2.708.918 3.61 1.968.867 1.005 1.332 2.569 1.332 3.673v4.334c4.028.076 7.455.959 10.264 2.257 4.085 2.006 6.571 5.182 6.571 9.204 0 5.318-4.437 7.499-7.234 7.499h-14.982c-3.39 0-5.384-2.872-5.384-5.378v-19.152z"/></g></svg>