<svg version="1" xmlns="http://www.w3.org/2000/svg" width="124" height="187" viewBox="0 0 124 187"><path d="M44.262 63.799c6.879-12.164 14.518-23.9 22.861-35.119 1.366-5.104.572-9.681-1.333-13.872l-4.406-9.68c-8.692 14.557-16.97 30.374-23.73 45.853-.97 2.213-.546 4.648 1.113 6.417 1.925 2.045 3.779 4.16 5.495 6.401zm-30.022 83.597c2.722-5.443 5.954-10.579 9.634-15.342-1.325-.98-4.799-4.948-6.983-8.452-.846-1.358-1.068-2.845-.631-4.404 2.313-8.322 7.152-18.005 11.287-25.769.171-.339-.064-.75-.318-.484l-3.96 3.532c-.459.4-.924.678-1.214.661-.565-.005-2.448-3.62-3.37-5.869l1.261-1.041c.082.167.183.327.298.465.832.991 2.321 1.128 3.309.284l.964-.8c.991-.834 1.126-2.313.297-3.306-.826-.996-2.321-1.12-3.301-.294-1.2 1.009-2.369 2.059-3.534 3.096-2.93-2.034-5.169-4.433-7.135-7.409 4.639-6.632 10.296-10.874 13.047-12.482 4.292-2.497 5.498-5.161 6.78-7.729 6.906 5.22 12.576 11.897 16.629 19.554 3.07 5.811 2.456 13.377-2.348 17.831-1.896 1.769-3.322 3.522-4.371 5.217 7.221-6.792 16.675-9.203 13.125-23.64-1.232-4.467-3.648-8.469-6.289-12.254-1.277-1.846-1.353-4.127-.196-6.042 7.07-11.685 14.923-22.935 23.506-33.644 7.733-9.658 16.064-18.86 24.952-27.585 1.423 4.773 2.572 9.612 3.454 14.486 1.625 8.954-1.257 17.449-8.008 23.551-4.43 4.027-8.735 8.156-12.918 12.417 7.325-5.601 15.066-10.759 23.066-15.38.08 3.04.066 6.092-.052 9.138-.271 6.939-3.595 12.604-9.416 16.392-2.78 1.82-6.709 4.521-9.403 6.453 5.37-2.746 11.903-5.845 17.464-8.079-.457 3.087-1.02 5.968-1.686 9.016-.926 4.279-3.235 7.143-7.179 9.657-3.24 2.073-6.414 4.293-9.521 6.562 4.673-2.616 9.396-4.746 14.33-6.967-.759 2.614-1.506 4.929-2.419 7.502-1.113 3.115-3.286 5.363-6.364 6.584-5.489 2.178-10.826 4.654-15.985 7.399 4.729-.591 9.704-.234 14.02 1.002 3.959 1.146 8.964 3.578 10.514 7.655l8.855 23.288c4.281.468 8.53 1.411 12.599 2.814l6.252 16.444c.836 2.184-.699 4.41-3.036 4.41h-14.42c-.437-3.52 2.321-6.657 5.871-6.657h1.955c.584 0 .964-.552.754-1.1l-2.075-5.457c-7.498-2.255-15.542-2.66-23.225-1.193-4.499-5.675-7.953-12.209-10.098-19.131-23.876 1.457-45.803 13.837-59.382 33.538h-18.909c-.439-3.52 2.318-6.657 5.872-6.657h4.746c1.263 0 2.342-.65 2.905-1.781zm32.811 8.437h15.719c4.454-4.712 9.87-8.509 15.798-11.131-1.689-6.422-2.373-13.128-2.016-19.773-4.601.458-9.124 1.314-13.561 2.573-1.353.396-2.101 1.83-1.636 3.155 1.319 3.771 2.93 7.448 4.804 10.966-2.999 2.007-5.817 4.312-8.392 6.862-.468.465-1.042.69-1.705.69h-3.14c-3.548.002-6.301 3.138-5.871 6.658zm52.178-62.705c3.982 3.872 8.675 5.981 11.761 10.902 1.822 2.908 3.538 7.824-.988 8.374-4.177.513-10.586-3.733-14.071-6.251 1.456 2.048 2.145 4.73 3.044 7.061.319.831.874 1.412 1.671 1.785 4.18 1.921 10.817 3.775 14.366-.28 3.043-3.463 2.002-8.37-.797-12.725-3.363-5.253-8.279-7.067-12.295-11.314-.581-.629-.945-1.378-.605-2.276.659-1.755 2.209-1.858 3.862-2.09 1.91-.273 4.876-.863 6.278-1.809 1.315-.884 2.295-2.547 2.625-3.896l.652-2.752c-3.82.809-7.72 1.86-11.178 3.729-1.981 1.067-4.202 2.668-5.315 4.744-1.209 2.253-.87 4.991.99 6.798zM74.631 178.265l9.84-8.065h9.718l-9.723 7.519 10.316 9.181h-5.763c-3.048 0-5.672-.924-7.688-2.706l-6.7-5.929zm0 8.635h-9.168v-16.7h9.168v16.7zm-33.12-8.635l9.838-8.065h9.722l-9.731 7.519 10.75 9.181h-6.202c-3.035 0-5.665-.924-7.678-2.706l-6.699-5.929zm.347 8.635h-9.17v-16.7h9.17v16.7zm77.854-14.433c-2.69-1.777-6.413-2.661-11.165-2.661-4.414 0-7.974.777-10.693 2.355-2.722 1.561-4.074 3.649-4.074 6.259 0 2.802 1.352 4.991 4.074 6.578 2.64 1.541 6.199 2.308 10.693 2.308 4.31 0 7.818-.767 10.538-2.308 2.85-1.614 4.271-3.802 4.271-6.53 0-2.393-1.212-4.395-3.644-6.001zm-7.092 9.446c-.99.881-2.352 1.325-4.073 1.325-2.008 0-3.485-.528-4.425-1.591-.733-.834-1.1-1.893-1.1-3.179 0-1.24.396-2.284 1.177-3.099.942-1.001 2.363-1.5 4.273-1.5 1.875 0 3.325.476 4.345 1.447.864.833 1.294 1.886 1.294 3.152 0 1.406-.494 2.56-1.491 3.445zm-86.171-9.446c-2.696-1.777-6.42-2.661-11.17-2.661-4.412 0-7.979.777-10.696 2.355-2.712 1.561-4.071 3.649-4.071 6.259 0 2.802 1.359 4.991 4.071 6.578 2.642 1.541 6.211 2.308 10.696 2.308 4.31 0 7.826-.767 10.538-2.308 2.844-1.614 4.268-3.802 4.268-6.53 0-2.393-1.216-4.395-3.636-6.001zm-7.096 9.446c-.994.881-2.348 1.325-4.074 1.325-2.009 0-3.488-.528-4.428-1.591-.731-.834-1.094-1.893-1.094-3.179 0-1.24.39-2.284 1.174-3.099.939-1.001 2.369-1.5 4.267-1.5 1.883 0 3.333.476 4.353 1.447.859.833 1.289 1.886 1.289 3.152 0 1.406-.5 2.56-1.487 3.445z" fill="#fff"/></svg>