<svg version="1" xmlns="http://www.w3.org/2000/svg" width="140" height="148" viewBox="0 0 140 148"><path fill-rule="evenodd" clip-rule="evenodd" fill="#fff" d="M44.599 101.025c-1.297 0-1.886.089-2.466 1.972-.625 2.061-5.149 17.962-6.716 21.768l-8.063-21.813c-.493-1.254-1.3-1.926-1.926-1.926h-2.555c-.583 0-.898.178-.898.629.178 0 9.093 25.774 11.243 29.919l2.851.02c2.347-4.82 5.567-15.141 7.394-20.158 1.837-5.044 3.016-8.484 3.016-9.202 0-.942-.625-1.209-1.88-1.209m13.416 18.407h-6.68c1.04-5.258 2.726-9.788 4.73-11.898l3.322 9.672.503 1.323c-.19.676-.723.89-1.875.903zm10.84 9.962c-1.491-4.546-6.054-18.14-9.155-25.007-1.07-2.413-3.039-3.351-4.869-3.351-2.634 0-3.931.27-3.931.803 0 1.297 4.065.938 4.065 3.888.003.313-.042.668-.224.984-4.82 5.422-8.662 14.611-8.625 24.882h4.095c-.063-3.579.267-7.384.889-10.933h8.079c1.093.016 1.617.233 1.817.853l2.854 7.73.787 2.328 4.984.023-.766-2.2zm42.598-6.13c-.76 2.199-3.266 4.932-4.833 5.198-.625 0-10.258-7.977-10.258-16.484.003-1.166.178-2.331.583-3.493.76-2.107 3.226-5.152 4.612-5.376.675 0 10.39 8.777 10.39 17.109-.001 1.031-.133 2.065-.494 3.046zm-7.566-22.755c-1.656 0-10.795 4.125-10.795 16.128 0 11.559 10.564 14.957 11.377 14.957.761-.04 10.39-3.49 10.39-16.165.001-12.05-10.212-14.92-10.972-14.92zm-90.537 11.937c-4.566-1.883-7.161-3.256-7.855-5.643.243-1.086 3.091-3.885 3.72-3.885.135 0 3.529.948 6.219 4.846 1.208 1.567 1.968 3.272 2.594 3.272.81 0 2.466-3.227 2.466-3.99 0-.625-.224-1.073-.224-1.073-3.002-5.376-8.191-5.475-8.724-5.475-1.119.046-5.244 1.435-8.243 6.406 0 0-.84 1.531-.84 2.65.303 1.429 4.632 4.642 9.57 6.828 4.204 1.857 6.417 5.215 6.417 7.625 0 .988-1.982 3.786-4.174 4.441-.339.102-3.44-1.208-6.038-4.48-1.837-2.328-3.091-4.791-4.076-4.791-.941 0-2.732 3-2.732 3.987 0 1.073 1.478 3.674 4.214 6.094 2.729 2.417 6.035 2.328 6.482 2.328.583 0 5.824-1.883 8.645-7.838 0 0 .85-1.659.85-2.91-.433-2.144-3-6.183-8.271-8.392zm63.733-8.576c0-1.791.803-1.702 3.938-1.702 2.558 0 4.793 1.969 4.793 4.616 0 2.417-1.791 5.504-6.854 8.645-.8.49-1.208 1.073-1.208 1.791 0 2.058 2.061 4.21 8.464 11.374 1.57 1.57 3.019 2.966 5.034 2.966 2.106 0 3.279.085 3.279-.405 0-.491-1.324-1.844-1.768-2.292-.675-.668-9.811-10.617-10.617-11.736-.27-.313-.764-1.03-.764-1.613 0-.313.135-.625.49-.896 6.097-3.937 8.336-6.67 8.336-9.541 0-2.778-2.601-4.207-7.348-4.207h-7.838c-1.57 0-2.374.579-2.374 1.613v29.109l4.455-.007-.018-27.715zm62.03 12.586h-8.603c-1.741 0-1.969.898-1.969 3.496 0 .981.228 1.073.537 1.073.273 0 .764-.359 1.208-1.027 1.08-1.57 1.034-1.837 2.107-1.837.583 0 1.432.085 2.956.085.629.764 1.027 2.107 1.027 3.45 0 2.868-2.861 6.407-4.833 6.716-.625 0-10.301-7.971-10.301-16.48 0-1.166.178-2.331.626-3.493.764-2.104 3.184-5.152 4.612-5.376.273 0 3.986 3.272 5.333 5.284 1.07 1.659 1.926 3.269 2.594 3.269.764 0 2.508-3.131 2.508-4.029 0-.625-.174-1.073-.174-1.073-3.002-5.106-7.618-6.048-7.973-6.048-1.663.089-10.795 4.076-10.795 16.128 0 11.552 10.613 14.959 11.374 14.959.764 0 8.691-3.227 10.034-12.497.046-.181.046-.494.046-.764.002-.717-.09-1.52-.314-1.836zm-26.936 27c-.326.31-.783.468-1.376.468h-2.413v-3.819h2.413c.593 0 1.05.158 1.376.467.326.31.487.79.487 1.442s-.161 1.132-.487 1.442zm1.264-3.47c-.306-.237-.685-.415-1.129-.54-.444-.125-.948-.184-1.511-.184h-4.043v7.862h1.63v-2.357h2.413c.563 0 1.063-.06 1.511-.185.448-.125.823-.303 1.129-.54.31-.236.543-.526.708-.862.165-.342.247-.731.247-1.166s-.082-.823-.247-1.165c-.165-.336-.402-.625-.708-.863zm-10.446 3.938c0 .468-.06.862-.175 1.198-.115.329-.279.605-.49.816-.208.218-.461.375-.757.475-.296.099-.625.151-.994.151-.366 0-.698-.053-.998-.151-.293-.1-.546-.257-.754-.475-.211-.211-.375-.487-.49-.816-.115-.336-.175-.73-.175-1.198v-4.662h-1.626v4.662c0 1.152.349 2.015 1.047 2.581.701.56 1.698.843 2.996.843 1.287 0 2.285-.283 2.989-.843.705-.566 1.053-1.429 1.053-2.581l.004-4.662h-1.63v4.662zm-10.317.77c-.145.421-.346.771-.593 1.047-.247.283-.537.487-.869.619-.333.138-.691.204-1.073.204s-.741-.066-1.073-.204c-.333-.132-.622-.336-.873-.619-.247-.276-.441-.626-.589-1.047-.145-.422-.217-.922-.217-1.501 0-.58.072-1.074.217-1.501.148-.421.343-.771.589-1.047.25-.277.54-.487.873-.619.333-.138.691-.204 1.073-.204s.737.066 1.073.204c.333.132.622.342.869.619.25.276.444.625.589 1.047.148.428.22.928.22 1.501.001.579-.072 1.079-.216 1.501zm.718-4.589c-.392-.355-.866-.619-1.416-.797-.55-.184-1.165-.27-1.837-.27-.675 0-1.287.086-1.844.27-.553.178-1.027.441-1.419.797-.395.349-.698.784-.912 1.304-.214.514-.319 1.113-.319 1.785 0 .671.105 1.271.319 1.784.214.52.517.954.912 1.304.392.355.866.619 1.419.803.557.178 1.169.264 1.844.264.672 0 1.284-.086 1.837-.264.553-.184 1.021-.447 1.416-.803.392-.35.698-.784.915-1.304.217-.514.326-1.113.326-1.784 0-.672-.108-1.271-.326-1.785-.218-.52-.524-.955-.915-1.304zm-11.678 3.351c-.322.31-.78.468-1.373.468h-2.413v-3.819h2.417c.589 0 1.047.158 1.366.467.326.31.484.79.484 1.442s-.162 1.132-.481 1.442zm1.774.072c.3-.408.448-.915.448-1.514.003-.435-.083-.823-.247-1.165-.165-.336-.402-.625-.708-.863-.306-.237-.685-.415-1.126-.54-.447-.125-.951-.184-1.514-.184h-4.042v7.862h1.629v-2.357h2.617l1.649 2.357h1.857l-1.857-2.647c.564-.217.995-.534 1.294-.949zm-12.174.284h1.458v2.134c-.128.118-.29.224-.484.316-.165.078-.369.151-.612.21-.24.066-.533.093-.869.093-.405 0-.78-.066-1.119-.198-.339-.132-.632-.335-.873-.605-.24-.276-.428-.619-.563-1.047-.131-.421-.201-.929-.201-1.521 0-.58.065-1.074.197-1.488.132-.415.316-.757.55-1.027.237-.27.517-.467.836-.599.326-.132.675-.198 1.057-.198.51 0 .998.086 1.468.264.468.178.915.461 1.34.856l.563-.672c-.424-.395-.945-.711-1.55-.941-.606-.237-1.251-.349-1.933-.349-.646 0-1.228.086-1.758.27-.527.178-.978.441-1.347.797-.369.349-.658.784-.859 1.304-.201.514-.303 1.113-.303 1.785 0 .671.099 1.271.303 1.784.201.52.494.954.876 1.304.382.355.843.619 1.379.803.543.178 1.149.264 1.821.264.593 0 1.12-.06 1.581-.178s.846-.25 1.162-.401c.368-.178.688-.376.964-.6v-3.088h-3.084v.728zm-18.413-3.707h3.032v7.019h1.629v-7.019h3.032v-.843h-7.693v.843zm-3.193 2.752l-2.12-.672c-.3-.099-.553-.191-.754-.276-.204-.086-.366-.185-.491-.283-.122-.099-.21-.211-.263-.323-.05-.119-.079-.257-.079-.415 0-.283.142-.521.421-.718.283-.191.705-.29 1.264-.29.685 0 1.287.092 1.82.283s1.011.474 1.439.836l.56-.672c-.208-.197-.458-.375-.748-.533-.286-.158-.599-.296-.932-.408-.332-.112-.681-.198-1.043-.263-.362-.06-.731-.086-1.096-.086-.605 0-1.126.06-1.557.171-.428.119-.784.276-1.06.474-.276.197-.48.428-.612.685-.128.257-.198.527-.198.803.003.54.181.981.54 1.33.362.349.892.639 1.593.863l2.137.672c.593.19 1.011.375 1.258.572.25.197.372.435.372.718 0 .369-.162.658-.475.869-.313.211-.849.31-1.606.31-.678 0-1.307-.092-1.876-.283-.57-.19-1.063-.474-1.491-.836l-.56.671c.208.198.458.376.744.534.29.164.603.296.945.408.342.118.698.204 1.076.263.379.06.767.086 1.162.086.705 0 1.301-.06 1.781-.178.484-.118.875-.283 1.182-.487.303-.204.521-.448.655-.73.135-.283.201-.58.201-.902.003-.54-.191-.987-.583-1.337-.388-.356-.924-.639-1.606-.856zm-13.649 4.267h6.854v-.843h-5.225v-2.753h4.102v-.842h-4.102v-2.581h5.225v-.843h-6.854v7.862zm-5.087-1.067h-.112l-1.751-6.235h-1.913l-1.751 6.235h-.112l-1.899-6.794h-1.63l2.192 7.861h2.413l1.686-6.012h.112l1.686 6.012h2.416l2.189-7.862h-1.629l-1.897 6.795zm36.931-114.859c-8.803 0-15.95 7.147-15.95 15.955 0 8.807 7.147 15.947 15.95 15.947 8.81 0 15.957-7.141 15.957-15.947 0-8.808-7.147-15.955-15.957-15.955zm41.63 12.083c-4.31-.503-6.169 2.614-6.249 3.207-.023.273.586 4.063 4.909 4.563.237.036.46.048.685.054.441.096.886.334-.085.902l-.323.196c-.514.26-1.037.461-1.518.562-.843.206-1.715.214-2.565.123-6.821-.793-11.46-6.591-13.55-12.489 1.11-.113 3.552-.675 8.83-2.716 8.507-3.277 9.116-10.401 9.001-12.612 0-.245-.023-.41-.043-.456-.112-.27-2.762-3.293-6.604-1.626-3.983 1.72-4.036 5.35-3.802 5.898.115.247 2.528 3.229 6.531 1.502.217-.092.421-.194.612-.298.435-.131.938-.153.379.822l-.178.339c-.316.479-.668.91-1.031 1.243-.632.599-1.379 1.041-2.166 1.383-6.301 2.726-13.221.025-17.982-4.036.902-.659 2.739-2.36 6.298-6.771 5.719-7.091 2.684-13.559 1.479-15.422-.112-.214-.221-.344-.264-.375-.23-.179-4.033-1.463-6.525 1.888-2.587 3.49-.826 6.657-.349 7.019.221.163 3.803 1.536 6.403-1.966.142-.189.273-.38.392-.566.303-.328.728-.603.738.52l.016.379c-.036.576-.128 1.132-.276 1.595-.247.841-.668 1.599-1.188 2.281-4.085 5.515-11.417 6.616-17.577 5.479.451-1.031 1.192-3.421 2.054-8.993 1.409-9-4.444-13.086-6.423-14.1-.211-.119-.362-.178-.412-.191-.287-.026-4.23.749-4.714 4.907-.504 4.311 2.614 6.173 3.21 6.245.273.026 4.065-.578 4.563-4.907.03-.235.042-.462.056-.675.095-.441.329-.894.902.076l.198.328c.26.515.457 1.032.56 1.518.201.846.21 1.713.115 2.571-.787 6.81-6.584 11.453-12.491 13.545-.109-1.116-.668-3.549-2.716-8.834-3.28-8.503-10.394-9.107-12.61-8.994-.24 0-.405.018-.461.038-.264.117-3.279 2.765-1.623 6.601 1.722 3.988 5.353 4.046 5.906 3.809.247-.115 3.226-2.535 1.498-6.533-.089-.222-.191-.425-.293-.616-.141-.428-.155-.938.823-.382l.333.185c.48.314.915.67 1.251 1.028.589.636 1.04 1.385 1.376 2.168 2.729 6.298.026 13.215-4.036 17.98-.658-.91-2.36-2.741-6.766-6.296-7.098-5.715-13.563-2.682-15.423-1.485-.21.124-.342.224-.372.265-.174.229-1.472 4.034 1.89 6.531 3.483 2.589 6.65.82 7.009.346.158-.22 1.534-3.809-1.969-6.406-.185-.143-.369-.269-.56-.387-.333-.296-.6-.734.526-.741l.379-.013c.573.036 1.126.128 1.597.275.829.251 1.587.67 2.281 1.188 5.501 4.087 6.614 11.415 5.468 17.58-1.027-.459-3.417-1.194-8.988-2.058-9-1.411-13.083 4.449-14.094 6.424-.128.211-.188.357-.194.415-.04.286.748 4.227 4.899 4.705 4.319.502 6.179-2.609 6.255-3.207.026-.27-.583-4.061-4.912-4.561-.233-.036-.464-.046-.678-.054-.441-.094-.893-.337.082-.904l.326-.196c.51-.259 1.033-.455 1.511-.563.85-.203 1.715-.212 2.571-.119 6.814.793 11.46 6.591 13.55 12.49-1.109.115-3.545.677-8.833 2.715-8.504 3.282-9.106 10.404-8.994 12.617-.003.239.013.405.036.453.115.267 2.772 3.294 6.598 1.625 3.993-1.722 4.046-5.347 3.812-5.901-.115-.249-2.535-3.231-6.532-1.496-.217.089-.421.189-.615.293-.425.135-.938.158-.386-.828l.188-.326c.313-.484.668-.92 1.03-1.253.639-.591 1.379-1.042 2.167-1.382 6.298-2.721 13.218-.02 17.975 4.046-.902.652-2.732 2.357-6.284 6.76-5.726 7.098-2.696 13.563-1.488 15.422.122.217.224.351.267.375.234.18 4.033 1.468 6.525-1.89 2.594-3.488.823-6.653.349-7.014-.224-.155-3.815-1.536-6.406 1.967-.148.189-.27.38-.385.568-.306.323-.734.594-.744-.528l-.01-.378c.033-.575.122-1.128.27-1.599.257-.828.678-1.588 1.182-2.281 4.096-5.508 11.427-6.609 17.59-5.47-.464 1.024-1.191 3.417-2.064 8.983-1.403 9.012 4.454 13.094 6.423 14.104.21.126.369.189.415.194.297.034 4.234-.751 4.715-4.905.507-4.313-2.614-6.171-3.21-6.252-.27-.025-4.063.583-4.566 4.91-.026.237-.036.464-.049.68-.095.441-.333.891-.905-.079l-.198-.326c-.257-.514-.458-1.037-.56-1.518-.197-.848-.217-1.713-.112-2.564.78-6.816 6.578-11.458 12.484-13.551.115 1.108.675 3.551 2.709 8.832 3.286 8.503 10.403 9.107 12.622 8.992.234.005.402-.015.451-.033.267-.117 3.286-2.771 1.626-6.604-1.715-3.989-5.353-4.041-5.906-3.803-.247.107-3.227 2.527-1.492 6.528.089.217.191.421.287.611.138.43.158.937-.816.382l-.339-.183c-.474-.314-.909-.664-1.238-1.032-.596-.635-1.05-1.376-1.386-2.16-2.726-6.299-.023-13.218 4.039-17.981.655.907 2.354 2.739 6.759 6.29 7.098 5.725 13.563 2.691 15.424 1.486.217-.117.349-.224.379-.26.181-.233 1.468-4.036-1.896-6.536-3.486-2.584-6.65-.818-7.012-.344-.158.224-1.528 3.809 1.965 6.413.191.142.382.262.569.38.329.304.603.736-.53.746l-.375.003c-.576-.031-1.123-.115-1.593-.267-.83-.25-1.597-.677-2.292-1.188-5.504-4.094-6.607-11.426-5.461-17.58 1.03.459 3.417 1.191 8.987 2.063 9.004 1.402 13.086-4.451 14.097-6.428.122-.212.188-.367.194-.415.035-.291-.748-4.234-4.909-4.708zm-41.626 25.299c-11.832 0-21.432-9.594-21.432-21.427 0-11.838 9.6-21.432 21.432-21.432 11.842 0 21.432 9.593 21.432 21.432 0 11.833-9.591 21.427-21.432 21.427zm0-40.902c-10.752 0-19.473 8.718-19.473 19.475 0 10.749 8.721 19.47 19.473 19.47 10.759 0 19.47-8.721 19.47-19.47-.001-10.757-8.712-19.475-19.47-19.475zm-.004 36.9c-9.623 0-17.429-7.802-17.429-17.425 0-9.623 7.806-17.432 17.429-17.432 9.63 0 17.432 7.809 17.432 17.432 0 9.623-7.802 17.425-17.432 17.425z"/></svg>