<svg version="1" xmlns="http://www.w3.org/2000/svg" width="111" height="69" viewBox="0 0 111 69"><g fill="#fff"><ellipse cx="90.774" cy="20.731" rx="3.445" ry="3.431"/><path d="M85.943 25.555c1.234 1.234 2.94 1.999 4.829 2v.003h.001c1.578 0 3.033-.537 4.19-1.437.227-.177.441-.366.641-.565 1.234-1.233 1.998-2.941 1.998-4.829h.004v-.004h-.004c-.001-1.884-.764-3.59-1.997-4.824v-.003c-1.235-1.234-2.943-1.998-4.831-1.999v-.004h-.004v.004c-1.887.001-3.593.764-4.827 1.998s-1.998 2.941-1.999 4.829h-.003v.004h.003c.002 1.887.765 3.594 1.999 4.827zm-.444-4.831c0-1.453.591-2.771 1.548-3.726.956-.956 2.273-1.546 3.724-1.548v.004h.004v-.004c1.453.001 2.771.593 3.727 1.549l.002-.001c.953.956 1.544 2.272 1.544 3.726h-.003v.004h.003c0 1.453-.592 2.772-1.548 3.727-.157.157-.323.304-.493.437-.893.694-2.014 1.107-3.234 1.107h-.001v.001c-1.452 0-2.771-.593-3.726-1.548-.956-.956-1.547-2.273-1.547-3.724h.003v-.004h-.003zm-85.499-20.724v69h111v-69h-111zm109 67.057h-107c-.021-8.637-.003-16.784 0-25.421 6.907 1.231 14.253 2.239 21.175 3.016l-.002 10.986h5.827v-10.375c1.99.186 4.129.351 6.12.497.12 5.688 4.771 10.266 10.489 10.266 5.447 0 9.925-4.154 10.441-9.466 1.991.005 4.024-.01 6.015-.046.199 2.438 1.125 4.58 2.879 6.403 1.962 2.041 4.346 3.054 7.121 3.054 2.744 0 5.079-1.01 7.029-3.007 1.966-2.012 2.96-4.472 2.96-7.402v-.107l1.347-.122c1.479-.137 3.12-.287 4.599-.449v10.724h6v-11.426c5.275-.688 9.729-1.528 15-2.524v25.399zm-67.519-23.194c.252-.622.639-1.174 1.128-1.619l.014-.013.051-.045.03-.027.063-.052.001-.001.03-.025.048-.038.031-.024.045-.035.031-.024.006-.004.066-.048.006-.005.008-.005.074-.052.014-.009.075-.048.009-.006.085-.054.003-.001.179-.103.011-.007.186-.094.014-.007.06-.028.047-.021.039-.017.045-.019.076-.031.005-.003.052-.02.033-.013.048-.018.082-.03.004-.001.101-.033.012-.003.079-.023.032-.01.067-.019.031-.008.192-.044.032-.007.405-.062.031-.003.204-.015.031-.002.083-.003.02-.001h.212c1.105.037 2.19.494 2.992 1.252l.012.012.242.255.01.012.115.137.003.006.052.065.009.011.044.06.019.024.166.246.037.059.01.017.041.07.018.032.026.045.033.062.012.023.028.054.018.037c.079.158.148.322.208.491l.006.018.027.08.001.003.027.086.003.01.088.344c.065.302.1.617.1.94 0 2.458-1.994 4.452-4.453 4.452-2.252 0-4.114-1.673-4.411-3.843h.005c-.103-.768-.005-1.561.288-2.28h-.007zm26.657.032c.188-.433.455-.825.797-1.183l.002-.002.03-.031.003-.004.006-.005.019-.021.012-.011.028-.029.009-.009.011-.011.021-.02.005-.006.015-.014.003-.003.02-.02.019-.017.021-.02c.807-.741 1.814-1.11 3.063-1.06 1.158.045 2.149.465 2.924 1.298l.026.03.001.001.008.009.005.007.015.015.003.004.045.051.014.017.04.047.015.017.003.005.013.016.012.016.003.004.023.028.009.013.003.002.003.007.046.059.01.013.001.003.006.007.011.014.019.027.012.016.01.015.006.009.032.046.02.029.012.018.01.016.006.009.005.009.002.002.101.167.011.017.002.005.009.016.007.014.01.018.017.032.003.005.017.032.009.017.007.014.002.003.003.008.061.125.004.008.124.307.012.028.009.024.001.004.007.022.002.007.007.02.002.009.006.018.003.013.009.027.004.014.002.006.004.013.007.021.003.013.002.008.011.04.001.003.011.043v.002c.103.402.145.827.127 1.271-.042 1.077-.493 2.052-1.351 2.923l.045.002c-.886.782-1.892 1.151-3.02 1.106-1.218-.048-2.215-.49-2.991-1.323-.593-.637-.946-1.379-1.058-2.228h.003c-.035-.258-.045-.526-.035-.804.022-.542.134-1.036.332-1.488l.001.005zm40.862-4.573c-5.275 1.004-9.728 1.853-15 2.546v-6.868h-6v7.577c-1.446.16-3.054.308-4.501.445l-1.704.155c-.41-1.812-1.308-3.456-2.7-4.925-1.935-2.042-4.285-3.054-7.029-3.054-1.305 0-2.998.279-4.154 1.006v-22.204h-5.912l.026 30.224c-1.985.035-4.014.049-6.001.043-.625-5.196-5.051-9.226-10.416-9.226-5.089 0-9.333 3.625-10.29 8.434-2.057-.15-4.262-.322-6.32-.515v-17.162h9v-5.798h-23.999v5.796l9.179.001-.004 16.545c-6.925-.782-14.277-1.799-21.192-3.042v-37.43h107.023l-.006 37.452z"/></g></svg>