<svg version="1" xmlns="http://www.w3.org/2000/svg" width="101" height="104" viewBox="0 0 101 104"><path fill="#fff" d="M20.168 28.416c.104.004.104.065.08.138h-.637v47.922h1.23v-47.69c10.378-.663 12.004-7.305 17.795-8.035 3.476-.436 5.348 2.164 5.402 4.241.049 1.834-1.123 3.17-2.733 3.175-1.637.008-2.566-1.432-2.42-2.587.116-.928.532-1.417 1.032-1.707-1.154-.4-1.992.286-2.205.837-.577 1.497.415 3.855 3.779 3.806 1.946-.028 3.498-1.102 3.776-3.185.358-2.688-1.777-5.04-5.777-5.04-7.292 0-12.636 8.182-19.322 8.125m48.766 26.014c-3.807 5.359-7.35 10.162-8.969 12.264-2.461 3.195-5.829 7.74-9.382 9.168-10.274 4.129-12.095-9.046 2.679-7.182-2.917.35-5.541 1.212-7.72 2.894-1.375 1.063-1.499 4.389.377 4.504 2.774.172 4.38-.681 10.865-8.882 2.332-2.942 4.757-6.196 6.932-9.18-3.724-.037-5.135-3.734-6.755-7.328-1.653-3.662-2.639-7.135-4.993-6.938v23.888h-4.331v-18.5c-2.325 3.227-4.321 6.081-5.549 7.814-6.155 8.692-10.507 14.58-16.833 12.49 3.953 1.041 6.344-1.935 10.68-7.845 2.629-3.582 5.521-7.576 8.156-11.216l-.807.931c-5.534.562-6.587-4.172-9.139-9.872-2.278-5.087-4.129-9.971-6.534-10.376 8.082-.36 6.884-.74 12.015 9.981 2.842 5.937 3.394 8.347 5.123 8.427 1.021-1.408 1.993-2.751 2.889-3.983v-24.049h4.331v18.196c2.449-3.183 5.762-7.6 9.258-9.005 10.272-4.131 12.094 9.047-2.68 7.182 2.917-.35 5.54-1.21 7.718-2.894 1.378-1.063 1.501-4.387-.374-4.504-2.775-.17-4.382.681-10.869 8.88-.76.96-1.53 1.954-2.295 2.959 5.379-.563 5.562 1.711 8.189 7.113 1.806 3.712 2.715 6.163 3.829 7.23.599-.83 1.175-1.63 1.719-2.389.684-.954 5.039-6.895 5.545-7.631 1.663-2.418 2.601-4.051.618-4.238 4.467-.121 4.575.247 2.402 3.468-.544.809-4.983 7.059-6.095 8.623m13.474 23.422h-65.331v-49.298h-1.228v50.474h.026v.056h66.533v.07h1.229v-50.6h-1.229v49.298zm-63.45-49.298h-1.228v48.565h1.229v-48.565zm61.568 0h1.228v48.565h-1.228v-48.565zm-1.354 0h.699v47.922h-1.228v-47.686c-10.463-.638-12.086-7.307-17.905-8.039-3.481-.436-5.36 2.164-5.416 4.241-.048 1.834 1.127 3.17 2.739 3.175 1.643.008 2.572-1.432 2.428-2.587-.115-.928-.532-1.417-1.034-1.707 1.156-.4 1.997.286 2.209.837.58 1.497-.416 3.855-3.786 3.806-1.951-.028-3.508-1.102-3.784-3.185-.359-2.688 1.777-5.04 5.789-5.04 7.311 0 12.665 8.182 19.369 8.125-.106.004-.106.065-.08.138m-58.264 56.979l-.248.23c-.23-.168-.446-.246-.65-.234-.202.011-.413.056-.634.134l-3.391 1.209-.107.041-.109.036-.142.053-.136.045c-.55.2-1.076.342-1.577.416-.502.078-.952-.097-1.346-.521l-.104-.115-.093-.123c-.139-.201-.229-.413-.269-.647-.038-.23.038-.435.227-.613.111-.104.22-.156.323-.16.104 0 .194.022.274.067l.061.044.047.045c.105.111.154.242.147.383-.007.146-.057.261-.151.347l-.043.041-.043.041-.01-.004-.011.007-.032.034-.035.029-.029.033-.031.033-.022.194c.008.078.059.167.149.264.072.078.177.146.312.201.134.059.311.085.528.082.144-.008.311-.034.497-.082.185-.041.392-.112.623-.208l1.453-4.579.048-.149.04-.141c.047-.152.074-.298.078-.432.005-.138-.04-.264-.136-.376l.25-.23 1.396 1.499-.247.23c-.089-.082-.167-.134-.236-.148l-.185.007-.049.026-.043.033-.075.09-.061.118-.037.075-.032.085-.032.104-.031.093-1.048 3.284.027.03 3.127-1.102.049-.018.06-.026.053-.022.047-.029.103-.061.076-.055c.089-.082.135-.183.143-.306.005-.115-.036-.227-.127-.323l-.017-.019-.023-.026.248-.23 1.206 1.296zm2.317 1.707l-.2.271c-.2-.119-.375-.146-.525-.074-.151.074-.294.2-.427.383l-1.227 1.688 3.256 2.365 1.227-1.688c.138-.189.216-.36.232-.521s-.059-.32-.232-.479l.2-.275 1.657 1.205-.2.275c-.154-.098-.292-.127-.417-.101-.124.029-.228.078-.312.148l-.133.127-.099.126-2.76 3.798c-.133.183-.207.36-.222.532-.018.167.061.327.231.476l-.2.275-1.656-1.205.2-.271c.207.107.384.13.529.066.145-.063.286-.189.423-.375l1.305-1.797-3.259-2.365-1.302 1.793c-.141.193-.219.375-.234.535-.016.163.063.319.236.465l-.2.275-1.649-1.197.2-.275c.194.119.367.145.516.082.15-.063.295-.194.436-.391l2.76-3.794c.141-.197.219-.376.234-.536.015-.164-.063-.32-.236-.469l.2-.271 1.648 1.199zm7.197 4.575l-.154.305c-.216-.093-.394-.086-.539.022-.145.107-.263.252-.354.432l-2.131 4.184c-.101.194-.146.376-.139.543.008.172.107.316.297.443l-.153.305-1.817-.926.154-.306c.218.082.398.078.537-.019.137-.093.255-.237.356-.432l2.131-4.184c.109-.216.154-.402.138-.569-.016-.164-.116-.306-.296-.421l.154-.301 1.816.924zm1.872.877l2.519 1.02.442.201c.19.093.381.212.572.36.264.201.476.461.634.789.16.326.144.721-.042 1.183l-.138.264c-.057.09-.129.175-.215.264-.154.153-.356.275-.604.376-.248.097-.545.123-.894.074l-.022.057.16.096.153.115c.267.209.478.488.634.83s.141.744-.042 1.197c-.18.447-.436.74-.765.886-.331.142-.656.208-.977.2-.225-.011-.43-.04-.617-.085-.187-.048-.331-.093-.437-.134l-2.982-1.205.127-.316c.238.082.421.067.547-.048.125-.116.228-.275.313-.477l1.757-4.352c.095-.238.129-.436.101-.6-.028-.159-.145-.286-.352-.379l.128-.316zm-1.12 6.67l1.24.505.323.108c.141.041.293.063.457.067.24.007.485-.045.732-.16.248-.112.447-.361.6-.737.202-.502.184-.926-.057-1.271-.24-.35-.579-.614-1.017-.789l-1.168-.472-1.11 2.749zm1.257-3.11l1.046.425c.563.223 1.003.237 1.322.037.318-.205.546-.477.687-.822.156-.391.18-.71.067-.964-.114-.256-.271-.453-.471-.599-.114-.089-.23-.164-.349-.219l-.307-.135-.925-.372-1.07 2.649zm6.601-1.231l3.818.952.213.052.335.063.133.021.125.016.043.004.046.007.145.015.19.049-.322 1.287-.33-.082c-.004-.372-.122-.64-.354-.807-.232-.172-.55-.302-.95-.402l-1.775-.442-.694 2.782 1.211.301.118.03.118.019c.125.019.251.004.373-.037.124-.041.23-.16.321-.357l.32.078-.365 1.466-.32-.078c-.009-.294-.062-.473-.162-.547-.099-.07-.265-.138-.497-.193l-1.212-.306-.716 2.872 1.986.494c.453.112.885.152 1.295.116.409-.034.689-.279.835-.729l.33.082-.471 1.428-5.484-1.368.082-.327c.211.029.379-.008.503-.123.124-.111.215-.286.274-.518l1.134-4.556c.062-.246.069-.446.023-.603-.048-.156-.184-.264-.408-.328l.089-.331zm6.315 8.376l.011-.339c.234-.004.394-.082.483-.234.087-.148.138-.356.147-.625l.122-3.522c.025-.673.187-1.163.488-1.479.301-.313.628-.521.986-.629.221-.067.438-.104.649-.115.209-.015.381-.019.514-.011l.358.033c.126.022.252.056.377.101.429.142.815.405 1.162.792.347.391.509.93.483 1.625-.022.659-.276 1.22-.76 1.692-.482.469-1.138.688-1.971.659-.12-.004-.274-.022-.463-.057-.189-.033-.379-.1-.569-.2l-.226-.127-.212-.167h-.031l-.049 1.405c-.01.261.019.477.082.655.064.175.236.268.516.278l-.014.339-2.083-.074zm1.643-5.278l-.071 2.016c.089.143.187.262.292.361.108.097.213.175.318.238.156.085.309.145.458.171.149.03.282.045.402.052.566.019.966-.1 1.199-.36.231-.257.384-.551.455-.874.031-.13.053-.265.063-.397l.024-.369.004-.409c-.002-.16-.019-.327-.053-.502-.063-.294-.204-.568-.421-.818-.217-.253-.586-.387-1.106-.405-.406-.015-.764.097-1.075.323-.312.225-.473.553-.489.973m11.522-.551l-.337.041c-.182-.327-.401-.572-.654-.743-.259-.172-.521-.283-.788-.335-.138-.037-.275-.06-.409-.063l-.38.019c-.644.078-1.162.432-1.563 1.057s-.537 1.443-.412 2.447c.111.919.424 1.641.938 2.165.515.521 1.181.736 2.001.636l.323-.066.319-.104c.291-.115.564-.275.828-.479.263-.205.485-.439.668-.711l.234.201-.012.019-.015.015c-.232.339-.555.658-.963.96-.409.301-.919.491-1.525.565-1.053.13-1.916-.104-2.593-.699-.677-.596-1.074-1.392-1.199-2.389-.14-1.13.084-2.053.668-2.764.583-.714 1.307-1.123 2.174-1.23.259-.03.502-.038.73-.022.231.015.46.041.685.07l.476.06.246-.004.037-.011.037-.022.082-.048.066-.067.149-.019.189 1.521zm1.471-1.952l1.968-.565.093.327c-.212.086-.337.208-.38.364-.043.153-.029.347.035.577l1.049 3.656.028-.008 2.838-4.649-.089-.305c-.049-.175-.149-.294-.298-.368-.148-.07-.298-.089-.446-.052l-.093-.327 1.968-.566.093.328c-.21.089-.335.208-.378.364-.043.152-.031.346.035.576l1.295 4.513c.066.237.156.408.27.509.113.104.284.138.519.107l.094.328-1.968.562-.094-.323c.22-.086.348-.209.387-.369.041-.16.03-.353-.035-.576l-1.091-3.802-.028.008-2.833 4.657.075.249c.066.238.159.405.28.51.121.107.289.141.508.107l.093.324-1.967.565-.094-.327c.203-.086.328-.209.378-.365s.039-.346-.026-.576l-1.292-4.516c-.067-.23-.164-.398-.287-.502-.122-.108-.295-.146-.513-.112l-.094-.323zm8.175-1.291l-.613-1.201 2.194-1.019 1.782-.908 1.845-1.041.613 1.205-.303.148-.062-.097-.08-.09c-.113-.118-.273-.204-.481-.252-.209-.045-.454.003-.748.152l-1.253.64 2.476 4.857c.109.216.232.364.366.45.137.082.313.086.527.008l.152.301-1.823.932-.154-.302c.193-.13.3-.275.314-.432.013-.156-.035-.342-.146-.565l-2.478-4.857-1.265.644c-.344.175-.539.376-.582.606-.043.227-.039.45.021.665l-.302.156zm6.235-4.701l3.184-2.313.179-.131.264-.215.103-.086.089-.089.032-.03.035-.033.104-.101.158-.115.78 1.075-.274.201c-.287-.234-.569-.316-.847-.25-.277.07-.586.227-.92.469l-1.478 1.079 1.686 2.316 1.008-.731.099-.071.091-.078c.095-.085.166-.19.212-.313.049-.119.028-.275-.064-.476l.266-.19.885 1.22-.266.194c-.229-.183-.401-.257-.522-.228-.117.03-.275.115-.469.257l-1.01.732 1.739 2.393 1.655-1.206c.379-.271.685-.576.922-.915.236-.338.229-.706-.022-1.108l.275-.2.792 1.279-4.574 3.321-.199-.271c.16-.145.236-.297.23-.465-.008-.167-.082-.35-.221-.543l-2.761-3.801c-.148-.205-.298-.34-.448-.402-.148-.066-.319-.029-.511.101l-.202-.276zm6.185-2.931l-.986-.919 1.713-1.707 1.363-1.462 1.381-1.61.985.922-.232.246-.091-.071-.104-.056c-.149-.074-.327-.101-.54-.074-.212.026-.427.159-.65.397l-.96 1.031 3.989 3.719c.175.164.341.261.497.294.157.034.321-.026.498-.171l.245.23-1.395 1.495-.249-.23c.138-.186.188-.356.148-.509-.041-.153-.152-.313-.33-.48l-3.991-3.72-.968 1.038c-.264.282-.377.539-.338.77.033.228.117.436.247.621l-.232.246zm-76.376-16.292l.311-.138c.162.234.34.38.537.432.196.056.41.082.644.082l3.602-.041h.114l.114-.004h.295c.584-.011 1.128.026 1.626.119.501.089.868.397 1.103.93l.06.146.049.145c.067.234.082.466.042.696-.038.234-.174.401-.413.509-.141.063-.259.078-.358.045-.098-.033-.178-.086-.236-.152l-.043-.06-.033-.06c-.062-.142-.067-.278-.012-.409.054-.134.137-.227.253-.279l.055-.021.054-.026.009.007.013-.004.042-.021.04-.019.04-.019.038-.026c.04-.037.071-.097.086-.175.018-.078-.002-.175-.055-.298-.043-.096-.12-.193-.229-.29-.109-.097-.267-.183-.473-.249-.14-.041-.306-.066-.497-.086-.188-.018-.41-.018-.657-.004l-2.864 3.858-.093.122-.084.119c-.096.13-.168.261-.216.387-.049.127-.047.261.006.395l-.311.141-.832-1.874.311-.134c.056.104.112.179.174.216.06.041.12.056.176.052l.055-.008.054-.019.098-.06.096-.093.06-.06.058-.07.063-.086.062-.078 2.059-2.764-.016-.037-3.316.022h-.054l-.063.008-.06.003-.053.012-.118.022-.089.029c-.11.049-.187.13-.232.238-.045.112-.042.23.013.35l.009.026.016.029-.311.138-.719-1.614zm-.959-2.28l-.528-1.968.328-.089c.066.167.156.279.27.335.117.056.231.082.347.078l.172-.019.146-.034 1.458-.391c-.102-.562-.295-.937-.58-1.138-.286-.201-.577-.327-.874-.387l-.127-.026-.114-.021-.28-.045-.307-.067c-.271-.06-.531-.163-.778-.315-.246-.149-.414-.391-.503-.719l-.057-.271c-.017-.107-.016-.223.006-.346l1.497-.401.087.331c-.2.081-.328.171-.383.268-.057.097-.08.193-.069.286l.001.045.012.044c.038.142.12.254.244.328.124.078.263.145.415.201l.069.021.069.022.271.108c.127.052.266.123.413.208.147.082.293.186.438.305.147.119.263.253.351.402l.059-.016c-.089-.665.008-1.187.288-1.565.282-.38.604-.703.965-.975l.089-.052.085-.067.247-.179.26-.204c.232-.186.434-.405.605-.658.17-.254.212-.54.126-.863l-.023-.082-.032-.077.435-.115.023.063.033.066.068.197.069.242c.135.498.125.915-.029 1.242-.153.327-.446.662-.878 1.004l-.302.238-.334.246-.104.074-.103.074c-.406.286-.718.599-.936.934-.217.331-.229.848-.038 1.54l2.703-.726c.251-.066.43-.16.535-.279.107-.115.14-.282.093-.498l.331-.089.527 1.967-.33.09c-.082-.205-.204-.331-.364-.38-.162-.044-.35-.037-.569.019l-4.536 1.217c-.212.056-.379.142-.499.257s-.164.29-.129.521l-.329.089zm4.772-9.518l-.339.023c-.03-.231-.124-.384-.282-.458-.16-.07-.371-.097-.638-.078l-3.517.245c-.67.049-1.177-.063-1.52-.331-.343-.264-.586-.568-.729-.914-.09-.213-.151-.425-.186-.633-.034-.208-.057-.376-.066-.51v-.36c.007-.131.026-.257.059-.388.095-.438.318-.851.669-1.237.35-.383.872-.601 1.561-.649.659-.044 1.246.147 1.764.577.518.433.805 1.064.862 1.895.01.118.008.275-.006.465-.013.193-.06.387-.14.587l-.104.238-.144.227.001.034 1.405-.101c.259-.019.472-.066.642-.148.167-.082.242-.265.221-.543l.338-.022.149 2.081zm-5.424-1.082l2.013-.142c.133-.104.242-.211.327-.33.085-.115.154-.228.208-.339.066-.164.107-.323.122-.473.011-.152.015-.29.005-.405-.04-.565-.2-.952-.481-1.156-.28-.201-.587-.324-.917-.361l-.401-.019-.369.015-.407.038c-.16.018-.324.052-.494.104-.287.093-.544.265-.771.506-.227.24-.322.624-.286 1.141.028.402.173.752.432 1.034.261.286.6.417 1.019.387m-1.838-10.181l6.206-2.163c.234-.08.419-.175.556-.279.136-.104.217-.239.246-.405l.336.03-.169 1.95-.338-.028c-.011-.177-.047-.283-.106-.32-.061-.041-.145-.063-.25-.072l-.11.006-.094.025-.051.016-.042.017-.932.319-.302 3.463.813.463.234.121.104.028h.11l.17-.095c.057-.051.101-.137.133-.261l.337.029-.135 1.542-.337-.027c.004-.129-.029-.242-.096-.347-.068-.103-.142-.193-.222-.272l-.189-.144-.131-.086-4.641-2.661-.164-.086-.078-.027c-.059-.006-.101.017-.126.064l-.044.162-.338-.029-.036-.149-.067-.159-.093-.192-.116-.169-.021-.031-.032-.034.015-.199zm4.849-.759l-3.402 1.185-.011.111 3.142 1.808.271-3.104zm-3.382-7.117l.329.081c-.031.144-.004.288.076.436.08.146.269.257.565.331l4.556 1.138c.207.05.394.054.564.011.17-.045.292-.177.368-.398l.329.082-.5 1.997-.329-.081c.038-.232-.007-.406-.136-.524-.129-.117-.296-.201-.503-.253l-4.555-1.137-.143-.031-.145-.012c-.124-.002-.246.026-.365.08-.12.056-.214.171-.278.35l-.33-.082.497-1.988zm-1.947 1.439c.038-.149.124-.269.259-.357.137-.09.288-.113.458-.072l.022.005.025.008c.133.047.24.136.326.266.084.133.105.277.065.439-.042.169-.137.29-.288.366-.149.076-.296.095-.436.062l-.016-.004-.013-.004c-.135-.041-.246-.128-.331-.264-.088-.135-.111-.284-.071-.445m.414-1.657c.042-.162.132-.283.271-.361.141-.078.278-.104.416-.076l.015.004.015.006c.142.033.261.12.356.258.097.136.124.289.082.458-.04.162-.127.279-.262.355-.138.076-.274.104-.414.083l-.022-.007-.025-.006c-.167-.043-.291-.134-.369-.277-.079-.141-.1-.288-.063-.437m3.039-4.497l.314.128c-.069.224-.049.4.057.526.105.131.263.236.472.324l1.937.78 1.508-3.734-1.937-.778c-.215-.09-.403-.121-.563-.101-.158.022-.295.136-.406.344l-.316-.128.767-1.899.314.127c-.055.173-.053.314.005.428.06.111.131.202.222.266l.154.103.144.062 4.354 1.761c.211.086.399.113.567.089.17-.027.305-.139.408-.344l.316.129-.769 1.898-.316-.127c.058-.23.036-.405-.059-.529-.098-.127-.253-.232-.47-.32l-2.055-.831-1.508 3.732 2.055.831c.223.091.415.123.575.099.162-.024.293-.14.396-.34l.316.124-.763 1.892-.315-.13c.067-.216.051-.389-.047-.521-.1-.13-.259-.237-.481-.327l-4.354-1.759c-.222-.092-.413-.123-.573-.099-.162.025-.294.138-.396.342l-.316-.128.763-1.89zm7.913-11.179l-.185.284c-.368-.071-.697-.063-.992.022-.295.087-.548.216-.762.387-.118.082-.221.175-.31.277-.09.1-.168.199-.233.3-.352.543-.417 1.168-.192 1.877.224.708.758 1.339 1.607 1.89.775.504 1.529.729 2.262.671.732-.056 1.323-.432 1.772-1.125l.16-.29.124-.311c.098-.296.153-.608.166-.941.014-.335-.024-.656-.115-.971l.306-.048.003.021.006.021c.108.394.146.848.114 1.354-.032.508-.215 1.02-.548 1.532-.577.89-1.31 1.4-2.202 1.536-.889.138-1.755-.068-2.599-.617-.958-.619-1.521-1.383-1.69-2.289-.171-.904-.019-1.723.457-2.453.142-.218.292-.411.452-.579.16-.165.324-.325.493-.476l.351-.327.154-.191.017-.038.01-.039.013-.093-.01-.097.082-.125 1.289.838zm.63-3.647l1.43-1.48.244.236c-.143.177-.191.346-.15.508.044.162.148.323.316.485l1.287 1.242.887-.921.351-.34c.134-.125.28-.234.443-.337.332-.218.707-.348 1.132-.387.423-.041.863.158 1.318.597.478.464.712.902.705 1.313-.009.413-.11.777-.303 1.092-.1.171-.213.325-.338.465l-.334.357-.009.011-.011.011-1.937 2.007-.243-.236c.142-.188.194-.356.156-.509-.039-.153-.146-.314-.324-.486l-3.376-3.262c-.178-.169-.343-.271-.498-.305-.152-.032-.32.024-.501.175l-.245-.236zm5.765 3.539l.776-.806.178-.191.175-.202c.185-.249.289-.536.318-.861.027-.325-.176-.699-.613-1.119l-.08-.077-.086-.07c-.271-.234-.596-.376-.971-.424-.375-.048-.823.197-1.341.734l-.714.738 2.358 2.278zm-.038-9.232l1.605-1.256.209.268c-.129.127-.196.254-.204.38-.005.128.016.245.065.35l.083.148.089.123.93 1.188c.475-.313.748-.638.82-.979.072-.34.076-.658.014-.956l-.023-.126-.027-.113-.068-.275-.058-.311c-.053-.27-.056-.551-.015-.839.042-.284.198-.532.465-.742l.23-.16c.09-.06.196-.101.318-.13l.952 1.222-.266.209c-.152-.151-.286-.233-.396-.248-.112-.013-.21.002-.292.051l-.042.019-.037.029c-.114.089-.182.206-.206.352-.022.144-.03.298-.021.459l.006.073.005.072.006.29c.001.14-.007.292-.029.459-.019.17-.057.343-.11.525-.054.18-.13.34-.232.479l.036.046c.579-.34 1.097-.455 1.556-.346.457.112.882.283 1.272.508l.084.062.093.054.263.158.289.16c.264.142.543.24.842.299.299.057.579-.017.842-.221l.066-.053.061-.061.278.354-.053.047-.046.056-.156.142-.191.156c-.41.319-.796.474-1.156.461-.363-.013-.785-.152-1.271-.417l-.336-.188-.354-.212-.109-.065-.109-.066c-.423-.263-.831-.426-1.223-.497-.393-.066-.871.121-1.434.569l1.723 2.204c.16.204.314.335.465.385.15.052.316.015.497-.109l.21.268-1.606 1.254-.209-.267c.156-.156.224-.318.206-.483-.021-.166-.102-.341-.24-.517l-2.891-3.701c-.135-.173-.28-.292-.433-.359-.152-.066-.329-.039-.529.084l-.208-.266zm7.495-5.334l1.825-.928.154.303c-.19.125-.291.268-.302.428-.012.16.036.346.144.56l1.728 3.393.027-.014 1.896-5.104-.145-.284c-.082-.16-.202-.263-.361-.304-.16-.043-.311-.031-.45.032l-.154-.304 1.825-.928.154.303c-.188.125-.29.27-.302.428-.012.16.036.346.144.56l2.133 4.185c.111.218.232.368.362.446.131.08.307.082.53.006l.153.304-1.825.93-.153-.304c.198-.122.303-.268.312-.432.01-.165-.04-.353-.144-.56l-1.796-3.525-.026.013-1.894 5.112.118.232c.112.218.238.368.376.446.137.08.309.082.518.006l.154.303-1.825.93-.153-.303c.182-.123.284-.266.302-.428.018-.162-.026-.352-.137-.563l-2.131-4.185c-.109-.214-.234-.362-.376-.442-.142-.08-.316-.084-.525-.008l-.156-.304zm9.605-4.459l1.996-.461.076.333c-.216.078-.348.191-.398.341-.05.152-.048.344.006.578l.856 3.709.029-.006 3.074-4.495-.027-.115c-.053-.234-.141-.407-.259-.521-.118-.112-.288-.156-.506-.133l-.077-.332 1.994-.46.078.331c-.215.076-.349.189-.397.343-.051.152-.049.344.005.578l1.056 4.575c.054.239.136.414.243.524.107.107.278.152.513.13l.076.331-1.995.461-.075-.331c.22-.07.358-.186.405-.344.049-.158.047-.352-.004-.58l-.892-3.854-.029.008-3.071 4.502.059.253c.055.24.139.415.253.524.115.111.282.154.503.133l.075.329-1.996.461-.076-.331c.208-.074.341-.188.398-.342.058-.153.058-.349.004-.581l-1.055-4.575c-.056-.232-.142-.405-.259-.521-.118-.111-.287-.156-.509-.134l-.074-.328zm3.253-1.232c-.507.115-.981.099-1.423-.052-.44-.15-.703-.403-.785-.763-.058-.245-.015-.481.124-.703.139-.225.365-.372.678-.444.167-.041.314-.031.44.021.125.054.204.154.24.304.025.111.009.214-.049.305-.057.091-.15.152-.28.183l-.141.011-.137-.019-.033-.004-.021-.005h-.021l-.023-.01-.101-.013-.115.011c-.064.015-.114.047-.146.095-.035.05-.042.108-.026.181l.015.043.027.052c.078.125.26.214.551.266.287.055.656.028 1.104-.074.486-.111.854-.268 1.103-.465.247-.197.354-.379.316-.541-.017-.07-.049-.121-.097-.152-.047-.028-.107-.035-.18-.019l-.107.04-.085.055-.017.021-.017.009-.018.016-.027.015-.109.078-.138.052c-.124.028-.232.013-.328-.043-.095-.058-.156-.141-.181-.251-.033-.148-.005-.273.086-.38.093-.102.221-.172.382-.209.311-.071.579-.039.802.102.225.14.364.333.421.578.078.337-.007.642-.254.912-.25.268-.545.478-.888.623l-.272.105-.27.069m19.322-.632l1.985.459-.076.331c-.18-.021-.32.006-.423.08-.104.076-.183.166-.232.271l-.063.16-.039.144-.338 1.471c.543.171.967.179 1.275.022.313-.158.562-.354.753-.59l.084-.101.072-.091.17-.227.204-.24c.179-.21.395-.389.644-.537.249-.147.539-.185.87-.108l.269.078c.104.035.2.089.301.166l-.35 1.51-.331-.078c.022-.212.004-.366-.056-.461-.06-.099-.134-.162-.222-.195l-.043-.021-.042-.01c-.144-.035-.277-.013-.403.062-.127.07-.25.164-.373.271l-.052.051-.052.048-.224.191c-.104.088-.23.177-.375.267-.142.089-.302.171-.477.243-.173.072-.346.111-.521.121l-.012.058c.629.234 1.046.563 1.247.991.2.426.338.863.405 1.308l.007.105.016.106.044.301.058.326c.054.294.154.574.3.842.141.27.375.441.699.518l.082.019.085.009-.101.439-.07-.012-.07-.002-.207-.033-.245-.05c-.508-.117-.867-.32-1.084-.61-.216-.29-.376-.705-.477-1.248l-.066-.379-.06-.408-.015-.125-.019-.128c-.063-.493-.193-.913-.383-1.263-.193-.349-.642-.599-1.343-.755l-.632 2.724c-.057.253-.061.456-.004.604.054.151.186.255.397.318l-.078.331-1.98-.458.074-.331c.22.023.389-.024.506-.146.115-.119.199-.29.252-.51l1.054-4.577c.053-.213.055-.399.008-.561-.045-.16-.177-.281-.398-.359l.075-.331zm11.244 3.151l.37 6.563c.012.246.051.448.113.608.064.16.17.277.322.35l-.123.318-1.826-.703.121-.318c.171.037.284.032.337-.013.054-.048.1-.123.138-.221l.025-.108v-.149l-.005-.047-.051-.982-3.246-1.246-.666.652-.182.193-.057.092-.015.052-.015.054.045.188c.029.069.1.136.212.199l-.123.318-1.443-.557.121-.315c.121.037.24.039.355.004.119-.038.227-.084.327-.139l.188-.143.121-.103 3.839-3.727.126-.133.047-.068c.021-.056.011-.104-.028-.14l-.142-.084.121-.317.156.006.171-.019.208-.039.193-.065.039-.011.039-.022.188.072zm-.607 4.869l-.201-3.597-.104-.041-2.604 2.521 2.909 1.117zm4.835-1.613l.716-1.145 2.004 1.358 1.693 1.058 1.843 1.047-.714 1.144-.29-.18.054-.103.035-.113c.045-.16.036-.342-.031-.543-.066-.203-.238-.391-.516-.563l-1.193-.748-2.89 4.625c-.127.205-.19.386-.193.545 0 .16.087.313.264.456l-.179.288-1.737-1.086.179-.288c.214.103.389.117.53.048.144-.068.277-.208.407-.416l2.891-4.627-1.204-.75c-.327-.206-.602-.267-.818-.187-.219.08-.407.199-.562.36l-.289-.18zm10.534 5.894c.807.677 1.23 1.498 1.272 2.47.044.971-.242 1.818-.854 2.55-.607.725-1.393 1.15-2.356 1.277-.963.126-1.847-.149-2.654-.826-.805-.675-1.229-1.499-1.271-2.47-.043-.969.24-1.816.851-2.54.609-.73 1.397-1.159 2.361-1.285.958-.127 1.845.148 2.651.824m-.25.299l-.072-.062-.08-.054c-.479-.34-1.071-.473-1.777-.397-.711.076-1.398.515-2.072 1.316-.671.8-.983 1.557-.934 2.267.047.709.279 1.271.699 1.682l.065.068.072.062.074.062.078.054c.48.341 1.071.473 1.778.396.71-.076 1.398-.516 2.072-1.316.671-.8.983-1.555.933-2.264-.048-.711-.278-1.272-.698-1.684l-.067-.068-.071-.062m6.014 5.875l1.094 1.351-3.407 5.254c-.134.204-.227.394-.28.572-.053.181.007.359.178.537l-.264.217-.866-1.073 3.513-5.392-.019-.022-.167.07-.125.063-.026.015-.024.014-.042.015-.036.022-.874.426c-.468.225-1.087.485-1.857.784l-.236.088-.238.089c-.681.259-1.281.423-1.8.489-.521.065-.944-.102-1.272-.506l-.015-.019-.017-.022c-.101-.132-.16-.28-.181-.442-.022-.163.037-.303.179-.414.148-.123.294-.166.432-.133.141.032.253.106.348.222l.099.169.062.188.013.021.004.03.033.095.047.084c.15.184.437.23.857.136.418-.095.855-.232 1.31-.413l.558-.218.494-.212.376-.156.547-.23.125-.06.128-.054.64-.311c.199-.103.342-.188.43-.259.124-.103.195-.214.206-.333.012-.123-.048-.279-.186-.469l.259-.213zm3.825 5.577l.961 1.811-.299.157c-.131-.186-.275-.286-.436-.295-.16-.01-.346.042-.558.154l-3.36 1.789.016.025 5.134 1.807.282-.151c.16-.084.259-.206.298-.366.039-.162.025-.311-.041-.448l.301-.158.962 1.808-.301.16c-.129-.189-.273-.286-.434-.296-.16-.009-.346.041-.558.154l-4.144 2.204c-.22.115-.368.24-.443.37-.078.132-.076.309.004.53l-.3.159-.96-1.809.298-.158c.13.197.275.297.44.303.165.008.352-.047.557-.154l3.492-1.856-.013-.027-5.145-1.801-.229.121c-.22.117-.364.244-.442.384-.076.139-.076.31.003.517l-.299.158-.962-1.806.298-.16c.13.181.273.278.435.294.164.017.35-.032.563-.144l4.147-2.206c.21-.113.356-.239.435-.385.078-.143.078-.317-.002-.524l.3-.161zm4.255 8.99l.562 1.968-.323.095c-.078-.181-.183-.292-.306-.34-.124-.047-.252-.067-.383-.056l-.132.021-.121.028-5.245 1.505 1.113 3.879 5.244-1.503c.23-.066.395-.159.497-.276.1-.121.139-.29.12-.514l.324-.093.561 1.958-.323.096c-.089-.205-.208-.33-.362-.376-.156-.045-.348-.035-.578.031l-4.563 1.308-.058.017-.06.015-.097.024-.095.031c-.087.034-.171.08-.249.146s-.156.169-.23.316l-.054.099-.057.098c-.06.108-.143.213-.252.316-.11.104-.261.185-.451.238l-.063.021-.065.008c-.277.044-.563-.022-.857-.203-.294-.179-.514-.517-.656-1.017l-.035-.14-.034-.142c-.059-.296-.089-.594-.097-.891-.005-.302-.002-.588.008-.861l.015-.248.016-.237.023-.439.008-.422c.002-.14-.004-.279-.021-.415-.015-.137-.041-.274-.082-.41-.058-.203-.126-.337-.206-.402-.082-.062-.156-.095-.227-.097l-.018-.006-.013.006.021.041.013.043c.028.095.017.179-.031.253-.048.072-.108.123-.187.15l-.015.004-.013.006c-.09.025-.175.021-.261-.019-.081-.039-.141-.112-.173-.222l-.004-.015-.004-.014c-.018-.091 0-.188.061-.288.057-.099.17-.175.346-.223l.037-.012.037-.011c.227-.037.465.039.714.227.253.187.45.524.588 1.012l.091.405.053.415c.019.238.025.477.022.716-.004.24-.016.475-.032.701l-.007.144-.004.142-.012.204-.011.236-.008.227.008.232.019.363.063.321c.063.229.178.385.338.467.164.08.32.111.473.09l.039-.014.039-.011c.331-.095.519-.248.562-.456.039-.208.013-.476-.082-.805l-1.584-5.521.329-.093c.083.218.202.348.358.391.16.039.354.027.584-.039l4.512-1.293c.231-.066.401-.158.514-.278.111-.117.146-.29.101-.521l.328-.091zm2.305 9.428l.179 2.049-.339.032c-.04-.226-.133-.374-.284-.448-.15-.073-.344-.101-.574-.08l-1.782.156.111 1.273.028.489c.006.179-.005.364-.035.555-.054.393-.202.763-.45 1.106-.249.346-.687.547-1.316.603-.664.058-1.149-.052-1.452-.331-.306-.275-.516-.59-.625-.941-.063-.189-.106-.375-.129-.56l-.052-.489-.004-.015v-.013l-.241-2.777.336-.029c.047.23.14.379.281.45.14.072.331.099.576.076l4.68-.409c.245-.022.431-.08.554-.175.127-.093.193-.259.199-.493l.339-.029zm-6.453 2.029l.097 1.113.03.259.037.268c.067.302.214.569.442.804.227.234.644.325 1.246.271l.109-.01.108-.019c.358-.052.675-.204.957-.455.285-.251.391-.75.328-1.494l-.092-1.024-3.262.287zm6.881 5.661l-.143 2.035-.339-.026c-.009-.182-.056-.316-.146-.405-.089-.089-.19-.152-.304-.187l-.167-.035-.149-.018-1.504-.104c-.086.563-.026.982.179 1.266.202.278.437.494.699.646l.111.067.101.06.251.134.27.164c.234.141.446.327.632.55.183.22.265.502.242.841l-.035.279c-.017.104-.058.212-.117.323l-1.546-.111.024-.339c.214-.011.364-.052.448-.126.086-.074.14-.16.158-.25l.013-.044.004-.045c.01-.149-.031-.275-.124-.391-.09-.111-.201-.219-.328-.323l-.056-.041-.058-.045-.221-.193c-.104-.089-.213-.2-.324-.327-.109-.127-.216-.271-.315-.432-.099-.159-.166-.327-.201-.495l-.058-.003c-.132.658-.395 1.119-.783 1.384-.391.268-.8.469-1.231.605l-.1.022-.103.034-.292.093-.313.107c-.281.097-.543.242-.785.425-.245.182-.378.442-.401.772l-.004.086.004.082-.448-.029-.002-.071-.011-.07v-.208l.013-.254c.039-.517.181-.903.433-1.164.254-.26.637-.479 1.159-.665l.363-.123.394-.123.123-.037.123-.037c.476-.138.874-.331 1.187-.576.315-.246.494-.729.537-1.444l-2.79-.197c-.258-.019-.459.013-.597.087-.14.078-.224.228-.253.446l-.339-.022.144-2.035.339.023c.013.222.087.38.221.477.138.097.318.152.545.169l4.685.327c.22.016.403-.011.557-.082.15-.068.247-.219.292-.45l.336.023zm-.858 8.797l-.529 1.979-.329-.085c.031-.228-.006-.398-.117-.514-.108-.115-.281-.204-.51-.268l-3.679-.985-.008.029 2.522 4.824.309.082c.175.049.331.026.469-.066.138-.09.23-.205.277-.354l.327.089-.53 1.979-.327-.089c.033-.228-.006-.397-.115-.514-.111-.115-.283-.204-.514-.264l-4.536-1.217c-.237-.063-.43-.074-.576-.029-.145.045-.266.171-.359.391l-.327-.09.53-1.979.329.09c-.041.229-.004.401.111.521.119.119.289.204.516.268l3.819 1.022.008-.029-2.531-4.824-.253-.067c-.238-.066-.432-.07-.582-.022-.152.049-.27.176-.352.38l-.329-.085.532-1.979.327.086c-.031.219.008.391.117.514.107.122.277.215.51.274l4.533 1.217c.233.063.425.066.581.019.156-.056.275-.183.356-.388l.33.084zm-2.813 9.422l-.928 1.822-.304-.152c.078-.216.077-.391-.007-.528-.084-.134-.232-.257-.446-.364l-3.392-1.73-.011.025 1.465 5.245.106.052c.214.111.403.156.563.138.164-.019.305-.119.43-.302l.303.153-.93 1.826-.303-.156c.078-.212.076-.387-.008-.524-.084-.134-.232-.261-.444-.368l-4.185-2.131c-.22-.112-.405-.16-.558-.149s-.296.115-.432.309l-.301-.156.928-1.822.303.152c-.087.22-.087.395.002.532.091.142.24.264.448.368l3.524 1.797.013-.027-1.477-5.248-.23-.115c-.218-.115-.409-.159-.565-.145-.156.019-.297.115-.422.301l-.304-.152.93-1.826.304.152c-.076.209-.073.384.007.524.08.146.229.271.441.38l4.185 2.131c.214.108.401.153.565.138.16-.019.303-.123.428-.305l.302.155zm-1.145 3.28c.236-.461.554-.814.952-1.057.399-.237.765-.278 1.09-.111.224.115.379.298.461.551.082.249.049.517-.097.804-.078.152-.178.26-.301.323-.119.06-.249.056-.383-.015-.102-.049-.172-.127-.201-.227-.035-.104-.022-.216.039-.335l.082-.116.102-.092.022-.023.019-.015.016-.015.02-.012.075-.066.066-.097.021-.175c-.017-.056-.056-.101-.123-.134l-.041-.015-.055-.012c-.146-.025-.334.06-.559.246-.227.189-.446.486-.652.896-.228.447-.345.826-.352 1.143-.012.315.06.513.208.591.065.034.125.041.179.022l.13-.122.037-.112.016-.101-.006-.021.006-.022v-.022l.004-.03.013-.134.046-.138c.06-.111.142-.189.246-.223.104-.037.204-.029.305.022.138.07.216.171.234.309.022.138-.008.279-.082.428-.146.286-.344.469-.593.551-.251.081-.489.063-.715-.053-.311-.156-.487-.416-.533-.777-.045-.364-.016-.729.093-1.082l.093-.279.118-.253m-44.738-61.138c-.254.504-.399 1.509-.432 2.58 1.07-.034 2.075-.177 2.577-.434v1.793c-.502-.257-1.507-.402-2.577-.436.033 1.071.178 2.079.432 2.581h-1.792c.257-.502.401-1.51.434-2.581-1.07.033-2.078.179-2.581.436v-1.793c.502.257 1.511.399 2.581.434-.033-1.071-.177-2.076-.434-2.58h1.792"/></svg>