<?xml version="1.0" encoding="utf-8"?>
<!-- Generator: Adobe Illustrator 17.1.0, SVG Export Plug-In . SVG Version: 6.00 Build 0)  -->
<!DOCTYPE svg PUBLIC "-//W3C//DTD SVG 1.1//EN" "http://www.w3.org/Graphics/SVG/1.1/DTD/svg11.dtd">
<svg version="1.1" id="Слой_1" xmlns="http://www.w3.org/2000/svg" xmlns:xlink="http://www.w3.org/1999/xlink" x="0px" y="0px"
	 viewBox="40.5 270.9 515 302.6" enable-background="new 40.5 270.9 515 302.6" xml:space="preserve">
<g id="_x34_0">
	<path fill="#FFFFFF" d="M534.3,569v1.8h5.5v-3.7h3.7v-3.7h3.7v-3.7h3.7v-4h3.7V554h-5.5v4h-3.7v3.7h-3.7v3.7H538v3.7H534.3z"/>
</g>
<g id="_x33_9">
	<path fill="#FFFFFF" d="M480.8,560.8c0.1-0.1,0.4-0.2,0.7-0.2h1.5c1.5,0,2.8-1.2,2.8-2.8c0-1.5-1.2-3-2.8-3c-0.2,0-2.7,0-3.1,0
		c-0.8,0-1.6,0.4-2,0.8l-3.4,3.6v-0.8c0-0.8-0.7-1.5-1.5-1.5s-1.5,0.7-1.5,1.5v3.7c0,0-2.3,2.1-2.5,2.3c-0.1,0.1-0.3,0.3-0.6,0.3
		c-0.3,0-1.2,0-1.8,0c-1.5,0-2.8,1.5-2.8,3s1.2,2.8,2.8,2.8c0.2,0,3,0,3.3,0c0.8,0,1.5-0.4,2-0.8
		C472.4,569.1,480.6,560.9,480.8,560.8z M470.8,568.8c-0.1,0.1-0.6,0.3-0.9,0.3c-0.3,0-2.8,0-3.3,0c-0.8,0-1.4-0.7-1.4-1.4
		c0-0.8,0.7-1.6,1.4-1.6h1.9c0.6,0,1.1-0.3,1.5-0.6c0.5-0.5,8.8-8.7,9-8.8s0.6-0.3,0.9-0.3c0.3,0,2.5,0,3.1,0c0.8,0,1.4,0.7,1.4,1.5
		c0,0.8-0.7,1.4-1.4,1.4h-1.7c-0.6,0-1.2,0.3-1.5,0.6C479.3,560.3,470.9,568.6,470.8,568.8z M473,556.2c0.8,0,1.5-0.7,1.5-1.5
		s-0.7-1.5-1.5-1.5s-1.5,0.7-1.5,1.5S472.2,556.2,473,556.2z"/>
</g>
<g id="_x33_8">
	<path fill="#FFFFFF" d="M400.8,562.8c0.3,0,0.5,0.2,0.5,0.5s-0.2,0.5-0.5,0.5c-0.3,0-0.5-0.2-0.5-0.5S400.5,562.8,400.8,562.8
		L400.8,562.8z M399.5,564.2h2.6c0.2,0,0.4,0.2,0.4,0.4v2.7c0,0.2-0.1,0.5-0.4,0.5l0,0v-2.6h-0.4v5.5H401v-2.9h-0.4v2.9h-0.7v-5.5
		h-0.4v2.6l0,0c-0.2,0-0.4-0.3-0.4-0.5v-2.7C399.2,564.4,399.3,564.2,399.5,564.2L399.5,564.2z M404.4,562.8c0.3,0,0.5,0.2,0.5,0.5
		s-0.2,0.5-0.5,0.5s-0.5-0.2-0.5-0.5S404.1,562.8,404.4,562.8L404.4,562.8z M403.2,564.2h2.6c0.2,0,0.4,0.2,0.4,0.4v2.7
		c0,0.2-0.1,0.5-0.4,0.5l0,0v-2.6h-0.4v5.5h-0.7v-2.9h-0.4v2.9h-0.7v-5.5h-0.4v2.6l0,0c-0.2,0-0.4-0.3-0.4-0.5v-2.7
		C402.8,564.4,402.9,564.2,403.2,564.2L403.2,564.2z M408.2,562.8c0.3,0,0.5,0.2,0.5,0.5s-0.2,0.5-0.5,0.5c-0.3,0-0.5-0.2-0.5-0.5
		S407.9,562.8,408.2,562.8L408.2,562.8z M406.8,564.2h2.6c0.2,0,0.4,0.2,0.4,0.4v2.7c0,0.2-0.1,0.5-0.4,0.5l0,0v-2.6H409v5.5h-0.7
		v-2.9h-0.4v2.9h-0.7v-5.5h-0.4v2.6l0,0c-0.2,0-0.4-0.3-0.4-0.5v-2.7C406.5,564.4,406.6,564.2,406.8,564.2L406.8,564.2z
		 M399.3,560.2c-1.1,0-1.9,0.8-1.9,2v9.1c0,1.1,0.8,2,1.9,2h10.2c1.1,0,2-0.9,2-2v-9.1c0-1.1-0.9-2-2-2h-10.6H399.3z M401.1,551.1
		L401.1,551.1L401.1,551.1c-0.3-0.4-0.8-0.4-1.1,0l-2.6,3.6l0,0c-0.3,0.3,0,1.4,1.2,0.9l1.3-1.8v5c0,1.1,1.5,1.1,1.5,0v-4.9l1.3,1.8
		c0.5,0.3,1.4,0.3,1.2-0.9L401.1,551.1L401.1,551.1z M408.4,559.1L408.4,559.1L408.4,559.1c-0.3,0.4-0.7,0.4-0.9,0l-2.6-3.6l0,0
		c-0.3-0.3,0-1.4,1.1-0.9l1.3,1.8v-4.9c0.4-0.8,1.1-0.7,1.5,0v5l1.3-2c0.5-0.3,1.4-0.3,1.2,0.9L408.4,559.1L408.4,559.1z
		 M399.4,561.3c-0.6,0-0.9,0.4-0.9,1v8.8c0,0.6,0.4,1.1,0.9,1.1h9.9c0.6,0,1.2-0.5,1.2-1.1v-8.8c0-0.6-0.6-1-1.2-1H399.4z"/>
</g>
<g id="_x33_7">
	<rect x="332.7" y="554.7" fill="#FFFFFF" width="4.7" height="0.7"/>
	<rect x="332.7" y="558.4" fill="#FFFFFF" width="4.7" height="0.7"/>
	<rect x="332.7" y="556.6" fill="#FFFFFF" width="4.7" height="0.7"/>
	<rect x="326.9" y="562" fill="#FFFFFF" width="10.6" height="0.7"/>
	<rect x="332.7" y="560.2" fill="#FFFFFF" width="4.7" height="0.7"/>
	<rect x="326.9" y="563.9" fill="#FFFFFF" width="10.6" height="0.7"/>
	<rect x="326.9" y="565.7" fill="#FFFFFF" width="10.6" height="0.7"/>
	<rect x="326.9" y="567.5" fill="#FFFFFF" width="10.6" height="0.7"/>
	<rect x="326.9" y="569.3" fill="#FFFFFF" width="10.6" height="0.7"/>
	<rect x="326.9" y="554.7" fill="#FFFFFF" width="4.7" height="6.2"/>
	<path fill="#FFFFFF" d="M340,556.9v-5.1h-15.7v18.6c0,1.5,0.8,2.6,2.2,2.6h15c1.4,0,2.4-1.1,2.4-2.6v-13.5H340z M325.4,570.8v-17.9
		h13.5v17.9c0,0.5,0.4,1.1,0.7,1.1c0,0-12.8,0-13.1,0C325.9,571.9,325.4,571.4,325.4,570.8z M340,570.8c0-0.6,0-12.8,0-12.8h2.9
		v12.8c0,0.5-0.7,1.1-1.5,1.1S340,571.4,340,570.8z"/>
</g>
<g id="_x33_6">
	<path fill="#FFFFFF" d="M264.1,573.5c6.1,0,11-5,11-11s-5-11-11-11c-6.1,0-11,5-11,11C253.1,568.5,258,573.5,264.1,573.5z
		 M254.4,562.5c0-5.3,4.3-9.7,9.6-9.7c5.3,0,9.7,4.3,9.7,9.7c0,5.3-4.3,9.6-9.7,9.6C258.8,572.2,254.4,567.8,254.4,562.5z
		 M261.6,563.1c0.6,0.1,0.9,0.2,1.3,0.4v2.8c-1.1-0.2-1.5-1.1-1.5-1.8H259c0,1.5,1.4,3.7,3.9,4v1.7h2.2v-1.7c2.6-0.3,4-1.6,4-3.5
		c0-1.2-0.5-2.7-2.8-3.3c-0.6-0.1-0.5-0.1-1.2-0.3v-2.6c1.1,0.1,1.6,0.7,1.6,1.5h2.3c0-1.8-1.4-3.4-3.9-3.7v-1.4h-2.2v1.4
		c-2.2,0.3-3.7,2-3.7,3.5C259.2,561.5,260.2,562.6,261.6,563.1z M262.9,560.9c-1.1-0.1-1.2-0.6-1.2-1.1s0.5-1,1.2-1.1V560.9z
		 M265.1,563.8c1.1,0.1,1.6,0.6,1.6,1.2c0,0.5-0.5,1.2-1.6,1.2V563.8z"/>
</g>
<g id="_x33_5">
	<path fill="#FFFFFF" d="M186.2,556.6v11.7h8.7l2.6-5.1v-6.6H186.2z M194.6,565h-5.1v-0.4h5.1V565z M194.6,563.5h-0.7v-1.4
		c0-0.3-0.4-0.4-0.7-0.4h-2.4c-0.4,0-0.5,0.1-0.5,0.4v1.4h-0.7v-3.2c0-1.4,1.2-2.5,2.6-2.5s2.6,1.1,2.6,2.5V563.5z"/>
	<circle fill="#FFFFFF" cx="192" cy="560.1" r="0.8"/>
	<polygon fill="#FFFFFF" points="185.9,553.3 186.2,555.5 197.7,555.5 198.1,553.3 	"/>
	<circle fill="#FFFFFF" cx="199" cy="564.5" r="0.2"/>
	<circle fill="#FFFFFF" cx="203.5" cy="566.1" r="0.2"/>
	<circle fill="#FFFFFF" cx="203.8" cy="566.9" r="0.2"/>
	<path fill="#FFFFFF" d="M203.6,563.1l-1.5,0.9l0,0l-3.2-1.8l-4.7,8.3l4.7,2.5l1.1-2l6.2-3.7L203.6,563.1z M198.7,572.4l-3.9-2
		l4.2-7.5l3.7,2L198.7,572.4z M203.4,564.7l-0.9-0.5l0.9-0.6l2.1,3.5l-5.1,3.1L203.4,564.7z"/>
	<path fill="#FFFFFF" d="M198.3,566.9c0-0.1-0.1-0.1-0.2-0.1s-0.2,0.1-0.2,0.1v0.9l-1.1,0.7v0.3l1.1-0.4v1l-0.4,0.2v0.3l0.7-0.1
		l0.4,0.1v-0.3l-0.4-0.2v-1l1.1,0.4v-0.3l-1.1-0.7L198.3,566.9L198.3,566.9z"/>
	<circle fill="#FFFFFF" cx="199.8" cy="564.9" r="0.2"/>
	<circle fill="#FFFFFF" cx="200.6" cy="565.3" r="0.2"/>
	<circle fill="#FFFFFF" cx="201.4" cy="565.7" r="0.2"/>
</g>
<g id="_x33_4">
	<path fill="#FFFFFF" d="M128.5,571.2v-20.8H119v20.8h-4v1.5h17.5v-1.5H128.5z M122.3,560.6h-2.2v-0.7h2.2V560.6z M126,560.6h-0.7
		v-0.7h0.7V560.6z M127.4,560.6h-0.7v-0.7h0.7V560.6z M127.4,557.8c0,0.4-0.3,0.6-0.7,0.6h-5.8c-0.5,0-0.7-0.1-0.7-0.6v-5.6
		c0-0.4,0.2-0.7,0.7-0.7h5.9c0.4,0,0.7,0.3,0.7,0.8L127.4,557.8L127.4,557.8z"/>
	<path fill="#FFFFFF" d="M124.1,556.3c-0.1,0-0.1,0-0.2-0.1c-0.1-0.1-0.1-0.1-0.1-0.2c0-0.1,0-0.1,0-0.1s0-0.1,0.1-0.2l0.2-0.7
		c0-0.1,0-0.1,0.1-0.2c0.1-0.1,0-0.1,0-0.1c0-0.1-0.1-0.3-0.1-0.4c-0.1-0.1-0.3-0.1-0.4-0.1c-0.1,0-0.2,0-0.4,0.1
		c-0.1,0.1-0.2,0.1-0.4,0.1l-0.1,0.2c0.1,0,0.1,0,0.1-0.1c0.1,0,0.1,0,0.1,0c0.1,0,0.1,0,0.2,0.1c0.1,0,0.1,0.1,0.1,0.2
		c0,0.1,0,0.1,0,0.1s0,0.1-0.1,0.2l-0.2,0.7c0,0.1,0,0.1-0.1,0.2c0,0.1,0,0.1,0,0.1c0,0.1,0.1,0.3,0.1,0.4c0.1,0.1,0.3,0.1,0.4,0.1
		c0.1,0,0.2,0,0.4-0.1c0.1,0,0.2-0.1,0.4-0.1l0.1-0.2c0,0-0.1,0-0.1,0.1C124.3,556.3,124.2,556.3,124.1,556.3z"/>
	<path fill="#FFFFFF" d="M124,552.7c-0.1,0-0.2,0.1-0.4,0.1s-0.1,0.2-0.1,0.3c0,0.1,0.1,0.2,0.1,0.3s0.2,0.1,0.4,0.1
		s0.2-0.1,0.4-0.1c0.1-0.1,0.1-0.2,0.1-0.3c0-0.1-0.1-0.2-0.1-0.3C124.3,552.8,124.1,552.7,124,552.7z"/>
</g>
<g id="_x33_3">
	<path fill="#FFFFFF" d="M80,565.3"/>
	<circle fill="#FFFFFF" cx="56.9" cy="557.4" r="0.4"/>
	<circle fill="#FFFFFF" cx="58" cy="558.1" r="0.4"/>
	<circle fill="#FFFFFF" cx="59.1" cy="558.7" r="0.4"/>
	<circle fill="#FFFFFF" cx="60.4" cy="559.3" r="0.4"/>
	<circle fill="#FFFFFF" cx="62.9" cy="560" r="0.4"/>
	<circle fill="#FFFFFF" cx="63.4" cy="561.2" r="0.4"/>
	<path fill="#FFFFFF" d="M63.2,555.8l-2.2,1.3l0,0l-4.5-2.4l-3.1,5.5l-5.3-2.9l-7.6,4.4v7.7c3.7-0.1,5.6-2,6.2-2.4l3.4-0.7l0.8,0.5
		l-0.4,0.9c-0.1,0.9,0.7,1.6,1.8,0.9c0,0.8,0.9,1.4,1.6,0.8l0.4-0.8l0.4,0.1l1.8,0.9l1.5-2.8l8.7-5.2L63.2,555.8z M47.3,563.7
		c0.1-2,1.5-1.8,3.5-0.6L47.3,563.7z M56.4,569l-5.5-2.7l0.1-0.1l3-0.6c1.5-0.6,1.1-2.5-0.4-2.8l-0.8,0.1l4.1-7.3l5.1,2.8L56.4,569z
		 M62.8,558.2l-1.2-0.7l1.3-0.8l2.9,5l-7.2,4.4L62.8,558.2z"/>
	<path fill="#FFFFFF" d="M56.9,559.6c0-0.1-0.1-0.2-0.2-0.2c-0.1,0-0.2,0.1-0.2,0.2v1.2l-1.8,1v0.4l1.8-0.6v0.9l-0.4,0.3v0.4
		l0.6-0.2l0.6,0.3v-0.4l-0.4-0.3v-0.9l1.8,0.6v-0.5l-1.8-1V559.6z"/>
</g>
<g id="_x33_2">
	<path fill="#FFFFFF" d="M548.3,491.5c-0.1,0-0.1,0-0.1,0v1.2h0.1c0.4,0,0.6-0.3,0.6-0.7S548.7,491.5,548.3,491.5z"/>
	<path fill="#FFFFFF" d="M545.6,491.5c-0.3,0-0.4,0.5-0.4,1.3c0,0.9,0.1,1.3,0.5,1.3c0.3,0,0.4-0.6,0.4-1.4
		C546.1,492.1,546,491.5,545.6,491.5z"/>
	<path fill="#FFFFFF" d="M551.7,484.5c0-0.9-0.7-1.3-1.2-1.3h-1.9v-1.3c0-0.9-0.5-1.6-1.5-1.6l0,0c-0.1-0.9-0.6-1.5-1.5-1.5
		c-1.9,0-2.5,0-4.4,0c-0.9,0-1.5,0.7-1.5,1.6v2.8h-1.9c-0.7,0-1.2,0.4-1.2,1.3l-1.2,15.7c0,0.9,0,2,1.2,2h15c1.2,0,1.2-0.9,1.2-1.9
		L551.7,484.5z M539.8,494.8c-0.3,0-0.7-0.1-0.7-0.1l0.1-0.7c0.1,0.1,0.4,0.1,0.7,0.1c0.4,0,0.5-0.2,0.5-0.4c0-0.3-0.1-0.4-0.5-0.7
		c-0.5-0.3-0.7-0.7-0.7-1.1c0-0.7,0.4-1.2,1.2-1.2c0.3,0,0.5,0.1,0.6,0.1l-0.1,0.7c-0.1-0.1-0.3-0.1-0.5-0.1c-0.3,0-0.5,0.2-0.5,0.4
		c0,0.2,0.1,0.4,0.5,0.6c0.5,0.3,0.7,0.7,0.7,1.1C541.1,494.3,540.6,494.8,539.8,494.8z M541.3,483.1h-0.7v-2.8
		c0-0.6,0.5-0.9,1.1-0.9h3.7c0.5,0,1,0.2,1.1,0.7c-1.3,0-2,0-3.7,0c-0.9,0-1.5,0.7-1.5,1.6V483.1z M546.4,481v2.2H542v-1.3
		c0-0.6,0.5-0.9,1.1-0.9H546.4z M543.8,494.8h-0.7V493h-0.7v1.8h-0.7v-4h0.7v1.5h0.7v-1.5h0.7V494.8z M545.6,494.8
		c-0.9,0-1.2-0.9-1.2-2c0-1.1,0.4-2,1.3-2c0.9,0,1.2,1,1.2,2C546.9,494.2,546.4,494.8,545.6,494.8z M547.1,481
		c0.4,0.1,0.7,0.4,0.7,0.9v1.3h-0.7V481z M549.3,493c-0.2,0.3-0.7,0.4-0.9,0.4c-0.1,0-0.1,0-0.1,0v1.5h-0.7v-3.9
		c0-0.1,0.4-0.1,0.7-0.1c0.4,0,0.8,0.1,1,0.3c0.2,0.2,0.4,0.5,0.4,0.9C549.6,492.4,549.4,492.8,549.3,493z"/>
</g>
<g id="_x33_1">
	<path fill="#FFFFFF" d="M477,497v-8.4h-1.8v-0.9c0-0.6-0.3-0.9-0.9-0.9h-1.5c-0.7,0-1.1,0.4-1.1,0.9v0.9h-1.8v8.4H477z
		 M474.4,488.6h-2.2v-1.1h2.2V488.6z M477.7,488.6v8.4h1.3c0.5,0,0.9-0.3,0.9-0.8v-6.6c0-0.5-0.4-1-0.9-1H477.7z M483.2,483.5h-18.3
		v1.8h16.4v13.9h-16.4v1.8h18.3V483.5z M468.9,488.6h-1.2c-0.5,0-1,0.5-1,1v6.6c0,0.5,0.5,0.8,1,0.8h1.2V488.6z"/>
</g>
<g id="_x33_0">
	<path fill="#FFFFFF" d="M400.1,488.2c-0.1,0-0.2,0-0.2,0v2.7c0,0,0.1,0,0.2,0c0.4,0,0.7-0.4,0.7-1.5
		C400.9,488.7,400.6,488.2,400.1,488.2z"/>
	<path fill="#FFFFFF" d="M411.8,484.8c0-0.9-0.7-1.3-1.3-1.3h-1.8v-1.3c0-0.9-0.7-1.6-1.6-1.6l0,0c-0.1-0.9-0.6-1.5-1.5-1.5
		c-1.9,0-2.6,0-4.5,0c-0.9,0-1.6,0.7-1.6,1.6v2.8h-1.8c-0.7,0-1.3,0.4-1.3,1.3l-1.3,15.7c0,0.9,0,2,1.3,2h15.3
		c1.3,0,1.3-0.9,1.3-1.9L411.8,484.8z M407.2,481.4c0.4,0.1,0.7,0.4,0.7,0.9v1.3h-0.7V481.4z M404.3,488.3v-0.7h2.6v0.7h-0.7v3.3
		h-0.7v-3.3H404.3z M406.5,483.5h-4.7v-1.3c0-0.6,0.7-0.9,1.2-0.9h3.5V483.5z M400.3,480.7c0-0.6,0.6-0.9,1.2-0.9h3.7
		c0.6,0,1,0.2,1.1,0.7c-1.4,0-2,0-3.7,0c-0.9,0-1.6,0.7-1.6,1.6v1.3h-0.7V480.7z M399.2,491.5v-3.9c0.4-0.1,0.5-0.1,0.9-0.1
		c0.5,0,0.9,0.1,1.2,0.4c0.4,0.3,0.5,0.8,0.5,1.6s-0.2,1.4-0.6,1.7c-0.3,0.3-0.7,0.4-1.3,0.4C399.6,491.5,399.5,491.5,399.2,491.5z
		 M401,495.2h-0.7v1.1h0.7v0.7h-0.7v1.5h-0.7v-4h1.5V495.2z M401.7,487.5h0.7v2.6c0,0.6,0.1,0.7,0.4,0.7c0.2,0,0.4-0.1,0.4-0.7v-2.6
		h0.7v2.5c0,1-0.3,1.5-1.1,1.5c-0.9,0-1.1-0.6-1.1-1.5V487.5z M403.4,498.5c-0.1,0-0.1-0.4-0.2-0.9c-0.1-0.5-0.2-0.6-0.4-0.6h-0.3
		v1.5h-0.7v-3.8c0.4-0.1,0.7-0.1,0.9-0.1c0.4,0,0.9,0.1,1.1,0.3c0.2,0.2,0.2,0.5,0.2,0.8c0,0.4-0.4,0.8-0.7,1l0,0
		c0.4,0.1,0.6,0.3,0.7,0.7c0.1,0.4,0.4,1,0.4,1L403.4,498.5L403.4,498.5z M406.5,498.5H405v-4h1.5v0.7h-0.7v0.7h0.7v0.7h-0.7v1.1
		h0.7V498.5z M409,498.5h-1.8v-4h1.8v0.7h-1.1v0.7h0.7v0.7h-0.7v1.1h1.1V498.5z M409,490v1.5h-0.7V490l-1-2.5h0.8l0.3,0.9
		c0.1,0.2,0.1,0.5,0.2,0.9l0,0c0.1-0.4,0.1-0.6,0.2-0.9l0.2-0.9h0.8L409,490z"/>
	<path fill="#FFFFFF" d="M402.8,495.2c-0.1,0-0.3,0-0.3,0v1.1h0.3c0.4,0,0.5-0.2,0.5-0.6C403.3,495.4,403.1,495.2,402.8,495.2z"/>
</g>
<g id="_x32_9">
	<path fill="#FFFFFF" d="M337.8,481l-1.3,2.6h-5.3l-1.3-2.6H337.8z M336.5,483.9c0,1.1,0.1,3-1.6,3.8c-1.1,0.5-2.1,0.1-2.6-0.2
		c-1.2-1-1.2-2.5-1.2-3.6L336.5,483.9L336.5,483.9z M326.9,490.9v12.4l2.6-4.4c0-1.1,0-4.4,0-4.4s0.7,3.3,0.7,3.3h0.7l6.2-9.1h-8
		C327.7,488.6,326.9,489.4,326.9,490.9L326.9,490.9z M338.2,488.6c0.4,0,0,0,0.4,0c1.5,0,2.2,0.7,2.2,2.2c0,1.1,0,12.4,0,12.4
		l-2.6-4.4v-4.4c0,0-0.1,0.4-0.4,1.5c-0.2,1.1-0.4,1.8-0.4,1.8H332L338.2,488.6z M330.1,498.9h7.3l2.6,4.4h-12.4
		C327.4,503.2,330.1,498.9,330.1,498.9z"/>
</g>
<g id="_x32_8">
	<path fill="#FFFFFF" d="M254.2,486.4v15.3h19.7v-15.3H254.2z M272.4,500.3h-16.8v-12.4h16.8V500.3z"/>
	<path fill="#FFFFFF" d="M260,498.5h-0.5c-0.6,0-1.3-0.3-1.3-1.1V492c0-0.7,0.7-1.2,1.3-1.2h0.5V498.5z"/>
	<path fill="#FFFFFF" d="M268.1,498.5v-7.7h0.7c0.6,0,1.2,0.6,1.2,1.2v5.4c0,0.7-0.6,1.1-1.2,1.1L268.1,498.5L268.1,498.5z"/>
	<path fill="#FFFFFF" d="M265.9,490.8v-1c0-0.4-0.5-0.8-0.9-0.8h-1.7c-0.4,0-1,0.4-1,0.8v1h-1.5v7.7h6.6v-7.7H265.9L265.9,490.8z
		 M265.1,490.8h-2.2v-1.1h2.2V490.8z"/>
	<path fill="#FFFFFF" d="M269.6,480.8l-0.9-0.9h-5.3c-0.4-0.8-1.3-1.2-2.3-1.2c-1.5,0-2.6,1.2-2.6,2.6c0,1.5,1.2,2.6,2.6,2.6
		c0.9,0,1.8-0.5,2.3-1.3h1l0.8-0.8l0.7,0.7l0.7-0.7l0.7,0.7l0.7-0.7l0.7,0.7l1.1-1.1C269.7,481.1,269.7,481,269.6,480.8z
		 M260.2,481.9c-0.4,0-0.7-0.3-0.7-0.7c0-0.4,0.3-0.7,0.7-0.7c0.4,0,0.7,0.3,0.7,0.7C260.9,481.6,260.6,481.9,260.2,481.9z"/>
</g>
<g id="_x32_7">
	<path fill="#FFFFFF" d="M202.3,489c0.7,0,1.5,0.7,1.5,1.5v2.9c0,0.7-0.7,1.5-1.5,1.5h-1.1v1.1c0,1.5-1.1,2.6-2.6,2.6h-10.6
		c-1.5,0-2.6-1.1-2.6-2.6V489H202.3z M184,498.9h19.4v1l-0.9,0.1c-0.8,0.4-0.5,0.9-1,1.1H186c-0.3-0.2-0.3-0.8-0.8-0.9L184,500v-1
		V498.9z M191.4,481.3c-0.4,0.9-0.7,1.7-0.4,2.7c0.3,0.5,0.7,1.5,0.6,2c0,0.7-0.4,1.3-0.5,1.8H190c0.7-1,1.1-2.1,0.4-3.4
		c-0.3-0.5-0.4-1.2-0.3-2c0.1-0.4,0.4-0.9,0.7-1.2L191.4,481.3L191.4,481.3z M194.3,481.3c-0.4,0.9-0.7,1.7-0.4,2.7
		c0.3,0.5,0.7,1.5,0.6,2c0,0.7-0.4,1.3-0.5,1.8h-1.1c0.7-1,1.1-2.1,0.4-3.4c-0.3-0.5-0.4-1.2-0.3-2c0.1-0.4,0.4-0.9,0.7-1.2
		L194.3,481.3L194.3,481.3z M197.2,481.3c-0.4,0.9-0.7,1.7-0.4,2.7c0.3,0.5,0.7,1.5,0.6,2c0,0.7-0.4,1.3-0.5,1.8h-1.1
		c0.7-1,1.1-2.1,0.4-3.4c-0.3-0.5-0.4-1.2-0.3-2c0.1-0.4,0.4-0.9,0.7-1.2L197.2,481.3L197.2,481.3z M201.2,493.4c0.4,0,0.4,0,0.7,0
		c0.4,0,0.7-0.4,0.7-0.7v-1.5c0-0.4-0.4-0.7-0.7-0.7h-0.7V493.4z"/>
</g>
<g id="_x32_6">
	<path fill="#FFFFFF" d="M128.2,499.9l-0.3,1.2c-0.9,0.4-1.5,0.6-2,0.7s-1.1,0.3-1.8,0.3c-1,0-1.8-0.2-2.4-0.7
		c-0.6-0.5-0.9-1.2-0.9-1.9c0-0.3,0-0.6,0.1-0.9c0.1-0.4,0.1-0.7,0.2-1.1l1.1-3.7c0.1-0.4,0.1-0.7,0.2-1c0.1-0.3,0.1-0.6,0.1-0.9
		c0-0.5-0.1-0.8-0.3-1c-0.2-0.2-0.6-0.3-1.2-0.3c-0.3,0-0.6,0.1-0.9,0.1c-0.3,0.1-0.5,0.1-0.7,0.2l0.3-1.2c0.7-0.3,1.4-0.5,2-0.7
		c0.7-0.2,1.2-0.3,1.8-0.3c1,0,1.8,0.2,2.3,0.7c0.6,0.5,0.8,1.1,0.8,1.9c0,0.1,0,0.4-0.1,0.9c-0.1,0.4-0.1,0.8-0.2,1.1l-1,3.7
		c-0.1,0.3-0.1,0.7-0.2,1c-0.1,0.4-0.1,0.7-0.1,0.9c0,0.5,0.1,0.8,0.4,1c0.2,0.1,0.6,0.3,1.2,0.3c0.3,0,0.5-0.1,0.9-0.1
		C127.8,500.1,128,500,128.2,499.9z M128.5,484.2c0,0.7-0.2,1.2-0.7,1.7c-0.5,0.5-1.1,0.7-1.8,0.7c-0.7,0-1.3-0.2-1.8-0.7
		c-0.4-0.4-0.7-1-0.7-1.7s0.2-1.2,0.7-1.7c0.5-0.4,1.1-0.7,1.8-0.7c0.7,0,1.3,0.2,1.8,0.7C128.2,483,128.5,483.6,128.5,484.2z"/>
</g>
<g id="_x32_5">
	<path fill="#FFFFFF" d="M80,495.2"/>
	<path fill="#FFFFFF" d="M61.3,481c-1.5,0-2.2,0.7-2.2,1.4v3h-0.7c0-0.4,0-0.9,0-3c0-0.7-0.7-1.4-2.2-1.4c-1.5,0-2.2,0.7-2.2,1.4
		c0,1.6,0,3,0,3h-0.7c0-0.4,0-0.9,0-3c0-0.7-0.7-1.4-2.2-1.4c-1.5,0-2.2,0.7-2.2,1.4c0,1.6,0,3,0,3h-0.7v-3c0-0.7-0.7-1.4-2.2-1.4
		h-0.7c0,0,0,7.2,0,8c1.1,0,1.8,0.7,1.8,1.8c0,0.9,0,11.8,0,11.8h13.1c0,0,0-10.4,0-11.8c0-1.1,0.7-1.8,1.8-1.8c0-0.7,0-8,0-8H61.3z
		 M55.5,498.9c-0.4,0.1-0.7,0.3-1,0.4c-0.3,0.1-0.5,0.1-0.9,0.1c-0.5,0-0.9-0.1-1.2-0.4c-0.2-0.2-0.4-0.6-0.4-0.9c0-0.1,0-0.3,0-0.4
		s0.1-0.4,0.1-0.5l0.5-1.9c0.1-0.1,0.1-0.4,0.1-0.5c0.1-0.1,0.1-0.3,0.1-0.4c0-0.2-0.1-0.4-0.1-0.5s-0.3-0.1-0.6-0.1
		c-0.1,0-0.3,0-0.4,0.1c-0.1,0.1-0.3,0.1-0.4,0.1l0.1-0.6c0.4-0.1,0.7-0.3,1-0.4s0.6-0.1,0.9-0.1c0.5,0,0.9,0.1,1.2,0.4
		c0.3,0.2,0.4,0.6,0.4,0.9c0,0.1,0,0.2,0,0.4c0,0.2-0.1,0.4-0.1,0.6l-0.5,1.9c-0.1,0.1-0.1,0.3-0.1,0.5c-0.1,0.2-0.1,0.4-0.1,0.4
		c0,0.2,0.1,0.4,0.1,0.5s0.3,0.1,0.6,0.1c0.1,0,0.3,0,0.4-0.1c0.1-0.1,0.3-0.1,0.4-0.1L55.5,498.9z M55.3,491.4
		c-0.2,0.2-0.5,0.4-0.9,0.4c-0.4,0-0.7-0.1-0.9-0.4c-0.2-0.2-0.4-0.5-0.4-0.8c0-0.3,0.1-0.6,0.4-0.8c0.2-0.2,0.5-0.4,0.9-0.4
		c0.4,0,0.7,0.1,0.9,0.4c0.2,0.2,0.4,0.5,0.4,0.8C55.7,490.9,55.6,491.2,55.3,491.4z"/>
</g>
<g id="_x32_4">
	<path fill="#FFFFFF" d="M533.6,429.5v-3.3h18.3v3.3H533.6z M554,429.5h-1.1v-3.3h1.1V429.5z M555.5,429.5h-1.1v-3.3h1.1V429.5z
		 M548.1,422.1c-1.4,0-2.4-1.1-2.4-2.5c0-0.3,0.1-0.5,0.1-0.7c-1.8,0-3.1-1.5-3.1-3.2c0-1.8,1.5-3.3,3.3-3.3v1c-1.5,0-2.3,1-2.3,2.3
		c0,1.2,0.9,2.3,2.3,2.3c0.1,0,0.3,0,0.4-0.1c0.1,0,0.1,0,0.1,0c0.3,0,0.5,0.2,0.5,0.5c0,0.1-0.1,0.2-0.1,0.3
		c-0.1,0.3-0.3,0.5-0.3,0.8c0,0.9,0.7,1.5,1.6,1.5h3.4c1.2,0,2.5,1.2,2.5,2.4v2h-1v-1.9c0-0.7-0.6-1.5-1.3-1.5L548.1,422.1z
		 M549,418.6c0.4-0.4,0.5-1,0.5-1.6c0-1.5-1.2-2.6-2.6-2.6h-0.1v-0.9h0.1c2,0,3.6,1.6,3.6,3.6c0,0.5-0.1,1-0.4,1.5h0.6
		c2.7,0,4.7,2.2,4.7,4.8v2.1h-1.1v-2.1c0-2.2-1.6-3.9-3.8-3.9h-1.3c-0.3,0-0.5-0.2-0.5-0.5C548.9,418.8,548.9,418.6,549,418.6z"/>
</g>
<g id="_x32_3">
	<path fill="#FFFFFF" d="M462.4,420.8l16.3-9.9l5.3,8.5l-8.6,5.3l-0.3-0.5l8.1-5l-4.6-7.5l-15.3,9.1l4.5,7.7l1.7-1l0.3,0.5l-2.1,1.3
		L462.4,420.8L462.4,420.8z M476.2,428.7c-1.2,0.2-2,1.5-1.8,2.7c0.2,1.2,1.5,2,2.6,1.8c1.2-0.2,2-1.5,1.8-2.7
		C478.7,429.2,477.5,428.4,476.2,428.7L476.2,428.7z M480.6,422.6c-1.7,0.4-2.8,2-2.5,3.7c0.4,1.7,2,2.8,3.7,2.5
		c1.7-0.4,2.8-2,2.5-3.7C484,423.4,482.3,422.3,480.6,422.6L480.6,422.6z M471.9,423.5c-1.5,0.3-2.4,1.8-2.1,3.4
		c0.3,1.5,1.8,2.6,3.2,2.3c1.5-0.3,2.4-1.8,2.1-3.3C474.9,424.3,473.4,423.2,471.9,423.5L471.9,423.5z M474.2,428.1l-0.3-1.4
		c-0.1-0.4,0-0.5,0.1-0.6c0.1-0.1,0.2-0.2,0.5-0.3l-0.1-0.7c-0.1,0.1-0.4,0.1-0.4,0.1c-0.1,0.1-0.2,0.2-0.3,0.4l-0.1-0.2l-0.9,0.1
		l0.5,2.8L474.2,428.1L474.2,428.1z M472.4,428.5l-0.4-2.1l0.5-0.1l-0.1-0.7l-0.5,0.1v-0.1c0-0.1-0.1-0.4-0.1-0.4
		c0.1-0.1,0.1-0.1,0.4-0.1h0.1l-0.1-0.6c-0.4,0.1-0.8,0.1-1,0.3c-0.2,0.2-0.1,0.6-0.1,0.9v0.1l-0.5,0.1l0.1,0.7l0.5-0.1l0.4,2.1
		L472.4,428.5L472.4,428.5z M482.7,424.9c0.1,0,0-2-2-1.5c-0.9,0.3-1.2,0.7-1.2,1.2c0,0.8,0.4,0.9,0.4,0.9l0.1,0.1l-1,0.2l0.1,0.7
		l1.2-0.2c0.1,0.9-0.7,1.2-0.7,1.2l0.1,0.7l3.6-0.6l-0.1-0.8l-2.4,0.4c-0.1,0-0.1-0.1,0-0.1c0.3-0.2,0.2-0.9,0.2-0.9l1.2-0.2
		l-0.1-0.7l-1.3,0.2v-0.1c-0.1-0.1-1-0.9,0.2-1.3c1.2-0.3,1.1,1,1.1,1L482.7,424.9L482.7,424.9z M475.6,431.4l0.1,0.6l0.8-0.1
		l0.2,0.8l0.7-0.1l-0.1-0.8l0.9-0.1L478,431l-0.7,0.1l0.6-1.8l-0.7,0.1l-0.4,1.1l-0.8-0.9l-0.7,0.1l1.2,1.5L475.6,431.4L475.6,431.4
		z M468.1,418.7l2.8,4.7c0.3-0.1,0.6-0.3,0.9-0.4c1-0.2,2,0.1,2.7,0.7l7.7-4.7l-4-6.5L468.1,418.7L468.1,418.7z M476.8,416.6
		c-0.3-0.4-0.9-0.7-1.4-0.7c-0.4-0.1-0.9,0-1.5,0.2l-0.3-0.4l-0.8,0.4l0.2,0.4c-0.4,0.4-0.7,0.9-0.9,1.4c-0.1,0.4-0.1,0.9,0.1,1.4
		c0.2,0.5,0.5,0.6,0.8,0.7c0.3,0.1,0.6,0.1,0.8,0.1c0.2,0,0.7-0.2,1.1-0.6l0.8,1.4c-0.2,0.1-0.5,0.1-0.7,0.1
		c-0.1-0.1-0.7-0.3-0.9-0.4l-0.9,0.5c0.1,0.3,0.5,0.4,0.7,0.6c0.2,0.1,0.4,0.1,0.7,0.1c0.2,0.1,0.4,0.1,0.7,0
		c0.3-0.1,0.4-0.1,0.8-0.2l0.2,0.4l0.8-0.5l-0.2-0.4c0.3-0.2,0.2-0.3,0.4-0.4c0.1-0.2,0.3-0.4,0.4-0.7c0.1-0.2,0.1-0.4,0.1-0.7
		s0-0.8-0.1-1.1c-0.2-0.4-0.7-0.6-1.2-0.6c-0.4,0-0.7,0.1-1.5,0.5l-0.8-1.3c0.1,0,0.4-0.1,0.7-0.1c0.2,0,0.6,0.3,0.7,0.4
		L476.8,416.6L476.8,416.6z M473.7,417.4c-0.1,0.1-0.3,0.3-0.4,0.4c0,0.1-0.2,0.3-0.1,0.6c0.1,0.4,0.4,0.6,0.5,0.6
		c0.1,0.1,0.6-0.1,0.8-0.2L473.7,417.4L473.7,417.4z M476.6,420.5c0.1-0.1,0.4-0.6,0.4-0.8s0-0.4-0.1-0.6c-0.1-0.1-0.1-0.2-0.3-0.2
		c-0.4-0.1-0.7,0.1-0.9,0.2L476.6,420.5z"/>
</g>
<g id="_x32_2">
	<path fill="#FFFFFF" d="M410.3,411.4c-0.1-0.1-1-0.9-1-0.9h-5.8c-0.5-0.7-1.4-1.5-2.4-1.5c-1.6,0-2.8,1.2-2.8,2.8s1.3,3,2.8,3
		c1.1,0,2-0.7,2.6-1.5h1.1l0.9-1l0.7,0.7l0.7-0.7l0.7,0.7l0.7-0.7l0.7,0.7c0,0,1-1,1.2-1.2C410.4,411.6,410.4,411.6,410.3,411.4z
		 M399.7,412.6c-0.4,0-0.8-0.4-0.8-0.8s0.4-0.8,0.8-0.8s0.8,0.4,0.8,0.8S400.1,412.6,399.7,412.6z"/>
	<path fill="#FFFFFF" d="M412.5,422.2c0,0-1.5-3.6-1.8-4.2c-0.4-0.8-0.9-1.4-2.1-1.4h-1.5h-5.5h-1.7c-1.2,0-1.8,0.6-2.1,1.4
		c-0.2,0.6-1.8,4.2-1.8,4.2c-0.9,0.2-1.7,1.1-1.7,2.1v5.1h1.8c0,0,0,1.4,0,1.8c0,0.8,0.7,1.5,1.5,1.5s1.5-0.7,1.5-1.4v-1.8h10.6v1.8
		c0,0.8,0.7,1.5,1.5,1.5s1.5-0.7,1.5-1.5c0-0.4,0-1.8,0-1.8h1.5v-5.1C414.2,423.3,413.5,422.4,412.5,422.2z M397.6,426.5
		c-0.8,0-1.5-0.7-1.5-1.5c0-0.8,0.7-1.5,1.5-1.5s1.5,0.7,1.5,1.5C399,425.9,398.4,426.5,397.6,426.5z M397.8,422.1
		c0,0,1.2-2.7,1.4-3.3c0.2-0.5,0.5-0.7,0.9-0.7h8.5c0.5,0,0.7,0.2,0.9,0.7c0.2,0.6,1.4,3.3,1.4,3.3H397.8z M411.2,426.5
		c-0.8,0-1.5-0.7-1.5-1.5c0-0.8,0.7-1.5,1.5-1.5s1.5,0.7,1.5,1.5C412.5,425.9,411.9,426.5,411.2,426.5z"/>
	<line fill="none" x1="404.7" y1="416.7" x2="404.7" y2="416.7"/>
</g>
<g id="_x32_1">
	<path display="none" fill="#FFFFFF" d="M384.3,449.3l-5-5l-3.9,3.9c-0.6,0.6-1.2,1.9-1.2,2.6s0.2,1.8,0.9,2.4
		c0.7,0.7,5.8,5.8,6.5,6.6c0.8,0.8,2.1,0.8,3,0c0.8-0.8,0.8-2.2,0-3l-3.8-3.8L384.3,449.3z M387.7,449.3l3.6,3.6
		c0,0-3.1,3.1-3.8,3.8c-0.8,0.8-0.8,2.2,0,3s2.2,0.8,3,0c0.7-0.7,5.8-5.8,6.5-6.6c0.7-0.7,0.9-1.8,0.9-2.4c0-0.6-0.7-2-1.2-2.6
		c-0.6-0.6-3.9-3.9-3.9-3.9L387.7,449.3z M392.6,441.4v-4.2c0,0,4.6,4.7,5.2,5.3c0.8,0.8,2.1,0.8,2.9,0c0.8-0.8,0.8-2.1,0-3
		c-0.7-0.9-8-8.5-8.4-8.8c-0.5-0.5-1.4-1-2.3-1h-8c-0.9,0-1.8,0.5-2.3,1c-0.4,0.4-7.7,7.9-8.4,8.7c-0.8,0.8-0.8,2.2,0,3
		c0.8,0.8,2.1,0.9,2.9,0c0.6-0.6,5.2-5.3,5.2-5.3v4.2L392.6,441.4L392.6,441.4z M386,428.8c3.4,0,6.1-2.7,6.1-6.1
		c0-3.4-2.7-6.1-6.1-6.1c-3.4,0-6.1,2.7-6.1,6.1C380,426.1,382.7,428.8,386,428.8z"/>
	<path fill="#FFFFFF" d="M336.7,424.3l0.4-0.8c0.3-0.5,0.1-1.1-0.4-1.4c0,0-1.4-0.8-2-1.1c-0.4-0.2-0.8-0.1-1,0.3
		c-0.2,0.4-0.1,0.8,0.3,1c0.4,0.2,0.8,0.4,1.2,0.7l-0.7,1.2c-0.1,0.3-0.2,0.5-0.2,0.9c0,1,0.9,1.8,1.9,1.8c0.4,0,2.3,0,2.6,0
		c0.5,0,1.1-0.3,1.1-0.9v-3.1c0-0.4-0.4-0.7-0.7-0.7s-0.7,0.3-0.7,0.7v1.5h-1.8l0,0l0,0l0,0l0,0l0,0l0,0l0,0l0,0l0,0l0,0l0,0l0,0
		l0,0l0,0l0,0l0,0H336.7L336.7,424.3z M336.7,424.3L336.7,424.3L336.7,424.3L336.7,424.3L336.7,424.3L336.7,424.3L336.7,424.3
		L336.7,424.3L336.7,424.3L336.7,424.3L336.7,424.3z M336.7,424.3L336.7,424.3L336.7,424.3L336.7,424.3L336.7,424.3L336.7,424.3z
		 M336.7,424.3L336.7,424.3L336.7,424.3L336.7,424.3L336.7,424.3z M333.4,428.7h9.9v-1.5h-9.9V428.7z M336.7,415.3c1.1,0,2-0.9,2-2
		c0-1.1-0.9-2-2-2c-1.1,0-2,0.9-2,2C334.7,414.4,335.6,415.3,336.7,415.3z M331,419.2l2.4-1.5v1.5c0,0.3,0.2,0.6,0.5,0.7
		c0.4,0.2,2.6,1.5,3.3,1.8c0.4,0.2,0.9,0.1,1.1-0.3c0.2-0.4,0.1-0.9-0.3-1.1c-0.4-0.2-2-1-2.8-1.5c0-0.9,0-2.9,0-2.9l0,0
		c0-0.4-0.1-0.7-0.2-0.9c-0.5-0.9-1.6-1.2-2.5-0.7l-4,2.3c-0.9,0.5-1.7,1.5-2,2.6l-1.5,5.3h2.7v7.8c0,0.6,0.5,1,1.1,1
		c0.6,0,1.1-0.4,1.1-1v-7.8h2.8L331,419.2z M341.8,427c0.9,0,1.5-0.7,1.5-1.5c0-0.9-0.7-1.5-1.5-1.5c-0.9,0-1.5,0.7-1.5,1.5
		C340.3,426.4,341,427,341.8,427z"/>
</g>
<g id="_x32_0">
	<path fill="#FFFFFF" d="M264,419.2c0,0.8-1.1,1.6-1.8,1.6v13.4c0,1.5-2.9,1.5-2.9,0v-13.4c-1.1,0-1.8-0.7-1.8-1.8v-7.3
		c0-0.7,1.1-0.7,1.1,0v5.3h0.7v-5.3c0-0.6,1.1-0.7,1.1,0v5.3h0.7v-5.3c0-0.6,1.1-0.7,1.1,0v5.3h0.7v-5.3c0-0.6,1.1-0.7,1.1,0V419.2z
		"/>
	<path fill="#FFFFFF" d="M270.2,413.4v20.8c0,1.5-2.6,1.5-2.6,0v-8.4h-1.5v-12.4C266.2,410.5,270.2,410.5,270.2,413.4z"/>
</g>
<g id="_x31_9">
	<path fill="#FFFFFF" d="M196.2,425.8c3.6,0,6.4-2.9,6.4-6.5c0-3.7-2.8-6.6-6.4-6.6h-8.2v19.7h4v-6.6
		C192.1,425.8,195.1,425.8,196.2,425.8z M192.1,422.1v-5.8h4.2c1.6,0,2.9,1.3,2.9,3c0,1.6-1.2,2.8-2.8,2.8
		C195.5,422.1,192.1,422.1,192.1,422.1z"/>
</g>
<g id="_x31_8">
	<path fill="#FFFFFF" d="M128.5,430.2v1.2c0,0.7,0.7,1.3,1.3,1.3c0.7,0,1.2-0.5,1.2-1.2c0-0.4,0-1.3,0-1.3h1.5v-8.7
		c0,0-0.4-4.3-0.5-6c-0.2-1.9-0.6-2.4-1.9-3.1c-1.9-0.9-4-1.2-6.3-1.2c-2.3,0-4.4,0.4-6.3,1.2c-1.3,0.7-1.8,1.2-1.9,3.1
		c-0.1,1.7-0.6,6-0.6,6v8.6h1.5c0,0,0,0.9,0,1.3c0,0.7,0.6,1.2,1.2,1.2c0.7,0,1.3-0.7,1.3-1.3v-1.2L128.5,430.2L128.5,430.2z
		 M116.5,426c0-0.7,0.5-1.2,1.2-1.2c0.7,0,1.2,0.5,1.2,1.2s-0.5,1.2-1.2,1.2C117,427.3,116.5,426.7,116.5,426z M128.7,426
		c0-0.7,0.5-1.2,1.2-1.2c0.7,0,1.2,0.5,1.2,1.2s-0.5,1.2-1.2,1.2C129.3,427.3,128.7,426.7,128.7,426z M120.1,413.7
		c-0.3,0-0.5-0.2-0.5-0.6c0-0.3,0.2-0.5,0.5-0.5h7.4c0.3,0,0.5,0.2,0.5,0.5c0,0.3-0.2,0.6-0.5,0.6H120.1z M117.3,421.8
		c-0.5,0-0.9-0.4-0.8-0.9c0.1-1.9,0.2-2.8,0.5-4.7c0.1-0.4,0.4-0.5,0.9-0.5h11.8c0.5,0,0.9,0.1,0.9,0.5c0.2,2,0.4,2.8,0.5,4.8
		c0.1,0.6-0.4,0.9-0.7,0.9H117.3L117.3,421.8z M127.8,419.6h-2.4c-0.8,0-1.6,0.6-1.6,1.4v0.8h1.1v-0.4h0.4v0.4h2.6v-0.4h0.4v0.4h1.1
		v-0.7C129.3,420.2,128.6,419.6,127.8,419.6z M127.5,417.4l0.6-0.4h-1.7H125l0.6,0.5c-0.1,0.1-0.2,0.4-0.2,0.6
		c0,0.6,0.5,1.1,1.1,1.1c0.6,0,1.1-0.6,1.1-1.2C127.7,417.8,127.7,417.8,127.5,417.4L127.5,417.4z"/>
</g>
<g id="_x31_7">
	<path fill="#FFFFFF" d="M53.5,413.4l0.1,0.4h-0.1L53.5,413.4z"/>
	<path fill="#FFFFFF" d="M55.2,414.5h0.2c0.1,0,0.1,0,0.1-0.1v-1.3c0-0.1,0-0.1-0.1-0.1h-0.2c-0.1,0-0.1,0-0.1,0.1L55.2,414.5
		C55.1,414.5,55.1,414.5,55.2,414.5z"/>
	<circle fill="#FFFFFF" cx="56" cy="417.5" r="0.9"/>
	<path fill="#FFFFFF" d="M61.9,420c0,0-1.5-3.6-1.8-4.2c-0.4-0.8-0.9-1.4-2.1-1.4h-1.5v-1.2c0-0.2-0.1-0.7-0.4-0.7h-4.5
		c-0.3,0-0.6,0.4-0.6,0.7v1.2h-1.7c-1.2,0-1.8,0.6-2.1,1.4c-0.2,0.6-1.8,4.2-1.8,4.2c-0.9,0.2-1.7,1.1-1.7,2.1v5.1h1.8
		c0,0,0,1.4,0,1.8c0,0.8,0.7,1.5,1.5,1.5c0.8,0,1.5-0.7,1.5-1.4v-1.8h10.6v1.8c0,0.8,0.7,1.5,1.5,1.5c0.8,0,1.5-0.7,1.5-1.5
		c0-0.4,0-1.8,0-1.8h1.5v-5.1C63.5,421.1,62.9,420.2,61.9,420z M55.5,413h0.4v1.5h-0.4V413z M53.7,413l0.4,1.4c0,0,0,0,0,0.1
		l0.4-0.7L54,413h0.1h0.3l0.2,0.4l0.1-0.4H55h0.1l-0.4,0.7l0.4,0.7H55h-0.2l-0.1-0.4l-0.2,0.4h-0.3h-0.1h-0.4l-0.1-0.4h-0.2
		l-0.1,0.4h-0.4c0,0,0,0,0-0.1l0.4-1.4H53.7z M51.8,413h1.1v0.4h-0.4v1.1h-0.4v-1.1c-0.1,0-0.3,0-0.4,0V413z M47,424.3
		c-0.8,0-1.5-0.7-1.5-1.5s0.7-1.5,1.5-1.5c0.8,0,1.5,0.7,1.5,1.5C48.4,423.7,47.8,424.3,47,424.3z M47.2,420c0,0,1.2-2.7,1.4-3.3
		c0.2-0.5,0.5-0.7,0.9-0.7H58c0.5,0,0.7,0.2,0.9,0.7c0.2,0.6,1.4,3.3,1.4,3.3H58c-0.1-0.6-0.5-1.1-1.1-1.1h-1.8
		c-0.6,0-1.2,0.5-1.2,1.1H47.2z M60.5,424.3c-0.8,0-1.5-0.7-1.5-1.5s0.7-1.5,1.5-1.5c0.8,0,1.5,0.7,1.5,1.5
		C61.9,423.7,61.3,424.3,60.5,424.3z"/>
</g>
<g id="_x31_6">
	<path fill="#FFFFFF" d="M550.8,346.2h0.6c0.9,0,1.6,0.4,1.6,1.3v7.2c0,0.8-0.7,1.7-1.6,1.7h-0.6V346.2L550.8,346.2z M546.4,346.2
		v-1.8h-3.7v1.8H546.4L546.4,346.2z M542.9,343.3h3.4c0.5,0,1.2,0.5,1.2,1.2v1.7h2.2v10.2h-10.2v-10.2h2.2v-1.7
		C541.6,343.8,542.4,343.3,542.9,343.3L542.9,343.3z M537.7,346.2h1v10.2h-1c-0.9,0-1.5-0.9-1.5-1.7v-7.2
		C536.1,346.7,536.8,346.2,537.7,346.2L537.7,346.2z M541.3,346.9h1.1v-0.7h0.4v0.7h1.1v3.7h-2.6V346.9L541.3,346.9z M542.6,347.6
		c-0.3,0-0.5,0.2-0.5,0.5c0,0.3,0.2,0.5,0.5,0.5c0.3,0,0.5-0.2,0.5-0.5C543.1,347.9,542.9,347.6,542.6,347.6L542.6,347.6z
		 M555.5,357.5h-21.9v1.5h21.9V357.5z"/>
</g>
<g id="_x31_5">
	<path fill="#FFFFFF" d="M479.5,348.4c2,0,3.7-1.6,3.7-3.7c0-2-1.6-3.7-3.7-3.7s-3.7,1.6-3.7,3.7
		C475.9,346.8,477.5,348.4,479.5,348.4z M476.6,344.7c0-1.6,1.3-2.9,2.9-2.9c1.6,0,2.9,1.3,2.9,2.9s-1.3,2.9-2.9,2.9
		C477.9,347.6,476.6,346.3,476.6,344.7z M479.2,343v2c0,0.3,0.3,0.3,0.5,0.2c0,0,1.5-0.7,1.8-0.8c0.2-0.1,0-0.4-0.2-0.4l-1.6,0.7
		V343C479.5,342.7,479.2,342.7,479.2,343z M468.6,355l-1-5c-0.2-0.8-0.9-0.8-1.2-0.7c-0.2,0.1-0.9,0.3-0.7,1.2c0,0,0.5,2.3,0.9,5
		c0.6,3.1,3,3.9,4.2,3.9c1.8,0,1.7,0,3.7,0c1.3,0,1.4-2.2,0.1-2.2c-0.7,0-2.3,0-3.4,0C470.2,357.1,468.9,356.8,468.6,355z
		 M473.2,353.5l-1.1-5.5c-0.2-1.1-1.5-1.6-2.4-1.5c-0.9,0.1-1.9,1.1-1.7,2.5c0.3,1.4,1.2,5.9,1.2,5.9c0.4,2,1.9,1.8,2.7,1.8
		c2,0,4.8,0,4.8,0v5.5c0,2.2,2.6,2.2,2.6,0v-6.9c0-1.4-0.9-1.9-2-1.9H473.2L473.2,353.5z M469.8,346.2c1.3,0,2.4-1.1,2.4-2.4
		c0-1.3-1.1-2.4-2.4-2.4s-2.4,1.1-2.4,2.4C467.4,345.2,468.5,346.2,469.8,346.2z"/>
</g>
<g id="_x31_4">
	<path fill="#FFFFFF" d="M405.1,356.2l0.7-0.5l0.4-0.1l0.4,0.1l3.6,4c0.4,0.4-0.4,1.8-1.3,0.7L405.1,356.2L405.1,356.2z M399,341.4
		c0,0-0.7,0-1.5,0.4c-0.9,0.4-2,1.3-2,1.3s-0.1,2.5,0.2,5.2c0.3,2.6,1.8,6.7,3.7,9.2c1.8,2.3,3.8,3.7,6.1,5.4
		c0.5,0.4,3.5-1.5,3.5-1.5l-4.2-4.7c0,0-0.2,0.5-0.7,1c-0.5,0.4-0.8-0.1-0.8-0.1s-4.1-8.3-4.4-9.1c-0.4-0.8,0.3-0.9,0.3-0.9h1.3
		L399,341.4L399,341.4z M399.5,341.2l0.9-0.1c0.4,0.1,0.6,0.4,0.6,0.4l1,4.8c0.1,0.2,0.1,0.3,0,0.5c-0.1,0.1-0.1,0.2-0.2,0.3
		c-0.3,0.3-0.8,0.5-0.9,0.1L399.5,341.2z M407.2,346.9c0,0.4-0.3,0.7-0.7,0.7c-0.4,0-0.7-0.3-0.7-0.7s0.3-0.7,0.7-0.7
		C406.9,346.2,407.2,346.5,407.2,346.9z M410.1,346.9c0,0.4-0.3,0.7-0.7,0.7c-0.4,0-0.7-0.3-0.7-0.7s0.3-0.7,0.7-0.7
		C409.8,346.2,410.1,346.5,410.1,346.9z M413.1,346.9c0,0.4-0.3,0.7-0.7,0.7c-0.4,0-0.7-0.3-0.7-0.7s0.3-0.7,0.7-0.7
		C412.8,346.2,413.1,346.5,413.1,346.9z M407.2,349.8c0,0.4-0.3,0.7-0.7,0.7c-0.4,0-0.7-0.3-0.7-0.7c0-0.4,0.3-0.7,0.7-0.7
		C406.9,349.1,407.2,349.5,407.2,349.8z M410.1,349.8c0,0.4-0.3,0.7-0.7,0.7c-0.4,0-0.7-0.3-0.7-0.7c0-0.4,0.3-0.7,0.7-0.7
		C409.8,349.1,410.1,349.5,410.1,349.8z M413.1,349.8c0,0.4-0.3,0.7-0.7,0.7c-0.4,0-0.7-0.3-0.7-0.7c0-0.4,0.3-0.7,0.7-0.7
		C412.8,349.1,413.1,349.5,413.1,349.8z M407.2,352.8c0,0.4-0.3,0.7-0.7,0.7c-0.4,0-0.7-0.3-0.7-0.7c0-0.4,0.3-0.7,0.7-0.7
		C406.9,352,407.2,352.4,407.2,352.8z M410.1,352.8c0,0.4-0.3,0.7-0.7,0.7c-0.4,0-0.7-0.3-0.7-0.7c0-0.4,0.3-0.7,0.7-0.7
		C409.8,352,410.1,352.4,410.1,352.8z M413.1,352.8c0,0.4-0.3,0.7-0.7,0.7c-0.4,0-0.7-0.3-0.7-0.7c0-0.4,0.3-0.7,0.7-0.7
		C412.8,352,413.1,352.4,413.1,352.8z"/>
</g>
<g id="_x31_3">
	<polygon fill="#FFFFFF" points="371.6,388.1 371.6,388.1 371.6,388.1 	"/>
	<path fill="#FFFFFF" d="M371.6,388.1L371.6,388.1L371.6,388.1z"/>
	<path fill="#FFFFFF" d="M335.5,354.9h-1.7c-0.2,0-0.5-0.1-0.7-0.1c-0.6-0.1-0.9-0.7-1.1-1.2l-0.5-2.8c-0.1-0.9-1.3-0.7-1.2,0.2
		l0.5,2.8c0.2,1,0.9,1.8,2,2.2c0.3,0.1,0.5,0.1,0.8,0.1h1.8C336.4,356,336.4,354.9,335.5,354.9z"/>
	<path fill="#FFFFFF" d="M337.2,352.4H335l-0.6-3.1c-0.4-1.6-2.6-1.2-2.4,0.4l0.7,3.5c0.1,0.5,0.5,0.9,1.2,0.9h2.8v3.6
		c0,1,1.5,1,1.5,0v-4.4C338.2,353,337.9,352.4,337.2,352.4z"/>
	<circle fill="#FFFFFF" cx="333.1" cy="346.7" r="1.4"/>
	<path fill="#FFFFFF" d="M327.4,354.9h-1.7c-0.2,0-0.5-0.1-0.7-0.1c-0.6-0.1-0.9-0.7-1.1-1.2l-0.5-2.8c-0.1-0.9-1.3-0.7-1.2,0.2
		l0.5,2.8c0.2,1,0.9,1.8,2,2.2c0.3,0.1,0.5,0.1,0.8,0.1h1.8C328.3,356,328.3,354.9,327.4,354.9z"/>
	<path fill="#FFFFFF" d="M329.2,352.4h-2.3l-0.6-3.1c-0.4-1.6-2.6-1.2-2.4,0.4l0.7,3.5c0.1,0.5,0.5,0.9,1.2,0.9h2.8v3.6
		c0,1,1.5,1,1.5,0v-4.4C330.1,353,329.9,352.4,329.2,352.4z"/>
	<circle fill="#FFFFFF" cx="325" cy="346.7" r="1.4"/>
	<path fill="#FFFFFF" d="M343.5,354.9h-1.7c-0.2,0-0.5-0.1-0.7-0.1c-0.6-0.1-0.9-0.7-1.1-1.2l-0.5-2.8c-0.1-0.9-1.3-0.7-1.2,0.2
		l0.5,2.8c0.2,1,0.9,1.8,2,2.2c0.3,0.1,0.5,0.1,0.8,0.1h1.8C344.4,356,344.4,354.9,343.5,354.9z"/>
	<path fill="#FFFFFF" d="M345.3,352.4H343l-0.6-3.1c-0.4-1.6-2.6-1.2-2.4,0.4l0.7,3.5c0.1,0.5,0.5,0.9,1.2,0.9h2.8v3.6
		c0,1,1.5,1,1.5,0v-4.4C346.2,353,345.9,352.4,345.3,352.4z"/>
	<circle fill="#FFFFFF" cx="341.1" cy="346.7" r="1.4"/>
</g>
<g id="_x31_2">
	<path fill="#FFFFFF" d="M262.1,344.7c-1.1,0-2-0.9-2-2c0-1.1,0.9-2,2-2c1.1,0,2,0.9,2,2C264.1,343.8,263.2,344.7,262.1,344.7z
		 M268.7,354.9h-6.2c-1,0-1.8-0.9-2-1.9l-0.4-5.9c-0.1-1,0.7-2,1.8-2c1-0.1,1.9,0.9,2,1.8l0.1,2.1h3.6c0.5,0,0.9,0.2,0.9,0.7
		s-0.4,0.7-0.9,0.7h-3.4l0.1,1.1h4.6c0.4,0,1.2,0.7,1.4,1l3.2,5.3c0.3,0.6,0.1,1.2-0.4,1.5s-1.2,0.3-1.5-0.2L268.7,354.9z
		 M268.8,356.3l1.1,1.8c-1,2.6-3.7,4.5-6.6,4.5c-3.9,0-7.2-3.2-7.2-7.2c0-2.6,1.5-5,3.6-6.2l0.1,1.8c-1.3,1-2.1,2.6-2.1,4.5
		c0,3.1,2.6,5.7,5.7,5.7C266,361.1,268.4,359,268.8,356.3z"/>
</g>
<g id="_x31_1">
	<path fill="#FFFFFF" d="M191.4,360.8v-5.8h-6.2v-5.8h6.2v-5.8h5.5v5.8h5.8v5.8h-5.8v5.8H191.4z"/>
</g>
<g id="_x31_0">
	<path fill="#FFFFFF" d="M127.1,346.9v-2.2c0-0.5-0.5-1.1-1.1-1.1h-4.1c-0.5,0-1.1,0.6-1.1,1.1v2.2h-2.2v13.1h10.2v-13.1H127.1z
		 M122,346.9v-2.2h4v2.2H122z M130.4,360.1h1.4c1.1,0,1.9-0.9,1.9-2v-9.2c0-1.1-0.8-1.9-1.9-1.9h-1.4V360.1z M117.2,360.1v-13.1
		h-1.3c-1.1,0-2,0.7-2,1.9v9.2c0,1.1,0.9,2,2,2H117.2z"/>
</g>
<g id="_x39_">
	<path fill="#FFFFFF" d="M48.2,348L48.2,348L48.2,348L48.2,348l2,6.9h-1.6v5.1c0,1.1-1.5,1.1-1.5,0v-5.5h-0.7v5.5
		c0,1.1-1.5,1.1-1.5,0v-5.1h-1.7l2-6.9h-0.5l-1.2,3.8c-0.3,0.9-1.5,0.5-1.2-0.4l1.2-4.2c0.1-0.5,0.7-1.4,1.8-1.4h2.5
		c1,0,1.7,0.9,1.8,1.3l1.2,4.2c0.2,0.9-0.9,1.3-1.2,0.4l-1.2-3.8L48.2,348L48.2,348z"/>
	<rect x="52.6" y="342.5" fill="#FFFFFF" width="2.2" height="18.3"/>
	<circle fill="#FFFFFF" cx="60.6" cy="344.1" r="1.5"/>
	<path fill="#FFFFFF" d="M58.8,359.9V348H58v4.4c0,0.7-1.1,0.7-1.1,0v-4.6c0-1.1,0.8-1.9,1.9-1.9h3.5c1.2,0,1.9,0.9,1.9,2v4.5
		c0,0.9-1.1,0.9-1.1,0v-4.3h-0.7V360c0,0.4-0.3,0.9-0.7,0.9c-0.4,0-0.7-0.4-0.7-0.8v-6.9h-0.7v6.8c0,0.4-0.3,0.8-0.7,0.8
		S58.8,360.4,58.8,359.9z"/>
	<path fill="#FFFFFF" d="M46.7,345.6c-0.8,0-1.5-0.7-1.5-1.5c0-0.8,0.7-1.5,1.5-1.5c0.8,0,1.5,0.7,1.5,1.5
		C48.2,344.9,47.5,345.6,46.7,345.6z"/>
</g>
<g id="_x38_">
	<path fill="#FFFFFF" d="M538.6,275.4c0.9,0,1.6-0.7,1.6-1.6c0-0.9-0.7-1.6-1.6-1.6c-0.9,0-1.6,0.7-1.6,1.6
		C537,274.7,537.7,275.4,538.6,275.4z"/>
	<path fill="#FFFFFF" d="M540.8,276.3c-0.2-0.4-0.6-0.6-0.9-0.6h-2.5c-0.3,0-0.7,0.2-0.9,0.5c0,0-1.5,2.1-1.8,2.6
		c-0.1,0.1-0.3,0.6-0.3,0.7c0,0.4,0,1.6,0,2.1c0,0.4,0.1,0.8,0.7,0.8c0.6,0,0.7-0.4,0.7-0.8c0-0.1,0-1.5,0-2.2
		c0.2-0.2,0.5-0.6,1.1-1.3v3.1c0,0.7,0.1,1.3,0.4,1.8c1.1,1.6,4.6,6.7,4.8,7c0.3,0.4,0.8,0.5,1.2,0.2c0.4-0.3,0.3-0.8,0.1-1.2
		c-0.1-0.1-0.3-0.5-3.6-5.6v-5.8c1.1,1.5,2.8,3.9,3.1,4.2c0.2,0.3,0.7,0.4,1,0.1c0.3-0.2,0.4-0.7,0.2-0.9
		C544,281,540.8,276.3,540.8,276.3z"/>
	<path fill="#FFFFFF" d="M534.5,289.1c-0.3,0.4-0.1,0.9,0.2,1.2s0.9,0.1,1.2-0.2c0.1-0.2,1.5-2.2,2.8-4.2l-1.1-1.5
		C536.1,286.6,534.5,289,534.5,289.1z"/>
	<path fill="#FFFFFF" d="M548.9,289.2V283c0-0.5,0.1-0.9,0.4-1.5l2.9-4.4c0.2-0.4,0.4-0.7,0.4-1.1v-4h-1.8v3.7c0,0.4-0.1,0.7-0.4,1
		c0,0-2.7,4-2.8,4.4c-0.4,0.7-0.4,0.8-0.4,1.5c0,0,0,7.7,0,8c0,0,6.9,0,7.3,0v-1.5L548.9,289.2L548.9,289.2z"/>
	<polygon fill="#FFFFFF" points="547.8,277.5 546,275.8 546,276.8 544.2,276.8 544.2,278.2 546,278.2 546,279.3 	"/>
</g>
<g id="_x37_">
	<path fill="#FFFFFF" d="M468.9,276.5c0.9,0,1.7-0.7,1.7-1.7s-0.7-1.7-1.7-1.7c-0.9,0-1.7,0.7-1.7,1.7
		C467.3,275.7,468,276.5,468.9,276.5 M474.1,274.6v3.2c0,0-0.3,0.1-0.4,0.3c-0.1,0.1-0.5,0.7-1.2,1.4c-0.1-0.4-0.2-0.7-0.3-1.1
		c-0.2-0.8-1-1.6-1.9-1.6h-2.8c-0.9,0-1.7,0.8-1.9,1.6c-0.4,1.5-0.9,3.1-1.2,4.2h1.4c0.4-1.5,1-3.3,1-3.3h0.4l-1,3.3h5.6l-1-3.3h0.4
		c0,0,0.2,0.7,0.6,1.8c0.1,0.3,0.4,0.4,0.6,0.4c0.2,0,0.4-0.1,0.5-0.3c0.7-0.9,1.8-2.2,2-2.4c0.2-0.2,0.2-0.6,0.1-0.8h1v-3.4H474.1
		L474.1,274.6z M483.2,276.8h-4.1c-0.6,0-1.2,0.2-1.6,0.7c-0.4,0.4-3,3.7-3.3,4c-0.3,0.3-0.2,0.8,0.1,1c0.3,0.3,0.8,0.2,1.1-0.1
		c0.3-0.4,3.4-4,3.4-4v4.6h-15.3v1.8h15.3v7.8c0,0.6,0.4,1,0.9,1c0.6,0,0.9-0.4,0.9-1v-7.8h0.7v7.8c0,0.6,0.4,1,0.9,1
		c0.5,0,0.9-0.4,0.9-1v-7.8h2.2V283h-1.1v-4.7C484.3,277.5,483.8,276.8,483.2,276.8 M480.9,276.5c0.9,0,1.7-0.7,1.7-1.7
		s-0.7-1.7-1.7-1.7c-0.9,0-1.7,0.7-1.7,1.7C479.2,275.7,480,276.5,480.9,276.5"/>
</g>
<g id="_x36_">
	<path fill="#FFFFFF" d="M409,274.2h-4.4h-0.5l-1.3,1.1h1.4v0.1c0,1.5,1.1,2.7,2.6,2.7s2.6-1.2,2.6-2.7v-1.2H409z"/>
	<polygon fill="#FFFFFF" points="409.4,273.1 404.1,273.1 402.9,271.3 409.4,271.3 	"/>
	<path fill="#FFFFFF" d="M411.6,279.3L411.6,279.3h-0.2l-6.7,8.4h5.6v1.5h-6.9v2.9h6.9h2.9v-3v-1.5v-5.4v-1.7
		C413.1,279.8,412.4,279.3,411.6,279.3"/>
	<path fill="#FFFFFF" d="M393.3,272.4v1.8v1.6v1.9l0.1,0.1c0.9,0.7,2,1.5,2.9,2.3c0.1,0.1,0.1,0.1,0.1,0.1h0.1v-1.9v-0.4h1.5v-5.5
		H393.3L393.3,272.4z M397.7,277.5h-1.1v-0.8v-1.9c-0.9-0.7-2-1.3-3-2h4.1V277.5z"/>
	<path fill="#FFFFFF" d="M409.3,279h-6.4h-0.8v0.1c-0.4,0-0.5,0.1-0.7,0.4c-0.8,1-1.5,2-2.3,3c-1.2-0.9-2.3-1.8-3.5-2.7
		c-0.6-0.4-1.4-0.1-1.8,0.4c-0.4,0.7-0.1,1.3,0.4,1.8c1.4,1.1,2.8,2.1,4.2,3.2c0.1,0,0.1,0.1,0.1,0.1c0,0,0,0,0.1,0.1
		c0.2,0.2,0.6,0.2,0.9,0.1c0.3,0,0.5-0.1,0.7-0.4c0,0,0,0,0-0.1c0.1-0.1,0.1-0.1,0.1-0.1c0.8-1.1,1.8-2.1,2.5-3.2v5.5L409.3,279z"/>
</g>
<g id="_x35_">
	<path fill="#FFFFFF" d="M341.1,274.2h-4.4h-0.5l-1.3,1.1h1.4v0.1c0,1.5,1.1,2.7,2.6,2.7s2.6-1.2,2.6-2.7v-1.2H341.1z"/>
	<polygon fill="#FFFFFF" points="341.5,273.1 336.1,273.1 335,271.3 341.5,271.3 	"/>
	<path fill="#FFFFFF" d="M343.7,279.3L343.7,279.3h-0.2l-6.7,8.4h5.6v1.5h-6.9v2.9h6.9h2.9v-3v-1.5v-5.4v-1.7
		C345.1,279.8,344.5,279.3,343.7,279.3"/>
	<path fill="#FFFFFF" d="M341.3,279H335h-0.8v0.1c-0.4,0-0.5,0.1-0.7,0.4c-0.7,0.9-0.8,0.9-4.4,5.7c-0.8,1.1-1.1,1.9-0.3,2.6
		c0.7,0.6,1.3,0.1,2-0.7c3.9-5,3.3-4.2,4.1-5.3v5.4L341.3,279z"/>
	<path fill="#FFFFFF" d="M334.2,290.7c0,0.8-0.7,1.5-1.5,1.5h-5.8c-0.8,0-1.5-0.7-1.5-1.5v-0.7h8.8V290.7L334.2,290.7z"/>
	<path fill="#FFFFFF" d="M324.7,289.9c-0.8,0-1.5-0.7-1.5-1.5v-5.9c0-0.8,0.7-1.4,1.5-1.4h0.7v8.8H324.7z"/>
</g>
<g id="_x34_">
	<path fill="#FFFFFF" d="M253.1,285.9h18.3v3.3h-18.3V285.9z M273.5,289.2h-1.1v-3.3h1.1V289.2z M275,289.2h-1.1v-3.3h1.1V289.2z
		 M267.6,281.7c-1.4,0-2.4-1.1-2.4-2.5c0-0.3,0.1-0.5,0.1-0.7c-1.8,0-3.1-1.5-3.1-3.2c0-1.8,1.5-3.3,3.3-3.3v1c-1.5,0-2.3,1-2.3,2.3
		c0,1.2,0.9,2.3,2.3,2.3c0.1,0,0.3,0,0.4-0.1c0.1,0,0.1,0,0.1,0c0.3,0,0.5,0.2,0.5,0.5c0,0.1-0.1,0.2-0.1,0.3
		c-0.1,0.3-0.3,0.5-0.3,0.9c0,0.9,0.7,1.6,1.6,1.6h3.4c1.2,0,2.5,1.2,2.5,2.4v2h-1v-1.9c0-0.7-0.6-1.5-1.3-1.5L267.6,281.7z
		 M268.5,278.2c0.4-0.4,0.5-1,0.5-1.6c0-1.5-1.2-2.6-2.6-2.6h-0.1v-0.9h0.1c2,0,3.6,1.6,3.6,3.6c0,0.5-0.1,1-0.4,1.5h0.6
		c2.7,0,4.7,2.2,4.7,4.8v2.2h-1.1v-2.2c0-2.2-1.6-3.9-3.8-3.9h-1.3c-0.3,0-0.5-0.2-0.5-0.5C268.3,278.5,268.4,278.4,268.5,278.2"/>
</g>
<g id="_x33_">
	<rect x="183.3" y="289.2" fill="#FFFFFF" width="21.9" height="1.5"/>
	<path fill="#FFFFFF" d="M201.8,281.2l-1.8-0.4l-3.3-0.8l-2.7-8.6l-1.7-0.4l-1.9,7.5l-3.8-0.9l-0.9-2.8l-1.2-0.3l-0.6,2.4l1.1,3.4
		l16.1,4l0,0c0.7,0.2,3.2,0.7,3.6-0.7C205.1,282.2,202.7,281.4,201.8,281.2"/>
	<path fill="#FFFFFF" d="M196.1,284.7c0-0.4-0.3-0.7-0.7-0.7c-0.4,0-0.7,0.3-0.7,0.7s0.3,0.7,0.7,0.7
		C195.8,285.5,196.1,285.2,196.1,284.7"/>
	<path fill="#FFFFFF" d="M193.2,284c0-0.4-0.3-0.7-0.7-0.7c-0.4,0-0.7,0.3-0.7,0.7s0.3,0.7,0.7,0.7
		C192.9,284.7,193.2,284.5,193.2,284"/>
</g>
<g id="_x32_">
	<rect x="112.8" y="289.2" fill="#FFFFFF" width="21.9" height="1.5"/>
	<path fill="#FFFFFF" d="M130.9,276.6l-1.2,0.4l-3.8,1.5l-7-5.8l-1.6,0.6l2.6,7.3l-3.7,1.3l-2.3-1.8l-1.1,0.4l0.8,2.3l2.8,2.3
		l15.7-5.6l0,0c0.9-0.3,3.1-1.4,2.6-2.8C134.2,275.5,131.9,276.3,130.9,276.6"/>
</g>
<g id="_x31_">
	<path fill="#FFFFFF" d="M64.6,276.4l-1.9,14.2h-6.1l-1.8-14.2h7.3l1.5-5.1h1.1l-1.5,5.1H64.6z M53.7,284.8h-11c0,0-0.2-2.2,3-2.2
		h5.1C53.9,282.6,53.7,284.8,53.7,284.8 M42.7,288.5h11c0,0,0.2,2.2-3,2.2h-5.1c-3.2,0-3-2.2-3-2.2 M53.3,287.7H43.1
		c-0.5,0-1.1-0.6-1.1-1.1s0.5-1.1,1.1-1.1h10.2c0.5,0,1,0.6,1,1.1S53.7,287.7,53.3,287.7"/>
</g>
</svg>
