<svg version="1" xmlns="http://www.w3.org/2000/svg" viewBox="0 0 28 28.879" enable-background="new 0 0 28 28.879"><path fill="#fff" d="M11.656 23.311c-6.427 0-11.656-5.228-11.656-11.655s5.229-11.656 11.656-11.656c6.427 0 11.656 5.229 11.656 11.656.001 6.427-5.229 11.655-11.656 11.655zm0-21.311c-5.324 0-9.656 4.332-9.656 9.656 0 5.324 4.332 9.655 9.656 9.655 5.325 0 9.656-4.331 9.656-9.655.001-5.324-4.331-9.656-9.656-9.656zM11.656 19.754c-4.465 0-8.098-3.633-8.098-8.098s3.633-8.098 8.098-8.098c4.465 0 8.097 3.633 8.097 8.098s-3.632 8.098-8.097 8.098zm0-14.196c-3.362 0-6.098 2.736-6.098 6.098s2.736 6.098 6.098 6.098c3.362 0 6.097-2.736 6.097-6.098s-2.735-6.098-6.097-6.098zM25.283 28.879c-.363 0-.718-.073-1.047-.212l-.164.153-.695-.705-7.161-7.541 3.908-3.776 7.046 7.416.146.156c.447.515.684 1.146.684 1.793 0 1.498-1.219 2.716-2.717 2.716zm-.643-2.338l.16.144c.095.089.256.194.483.194.396 0 .717-.321.717-.717 0-.213-.1-.373-.183-.47l-5.754-6.055-1.032.997 5.609 5.907z"/></svg>