<svg xmlns="http://www.w3.org/2000/svg" viewBox="40.5 270.9 515 302.6" enable-background="new 40.5 270.9 515 302.6"><path fill="#fff" d="M534.3 569v1.8h5.5v-3.7h3.7v-3.7h3.7v-3.7h3.7v-4h3.7v-1.7h-5.5v4h-3.7v3.7h-3.7v3.7h-3.7v3.7h-3.7z"/><path fill="#fff" d="M480.8 560.8c.1-.1.4-.2.7-.2h1.5c1.5 0 2.8-1.2 2.8-2.8 0-1.5-1.2-3-2.8-3h-3.1c-.8 0-1.6.4-2 .8l-3.4 3.6v-.8c0-.8-.7-1.5-1.5-1.5s-1.5.7-1.5 1.5v3.7s-2.3 2.1-2.5 2.3c-.1.1-.3.3-.6.3h-1.8c-1.5 0-2.8 1.5-2.8 3s1.2 2.8 2.8 2.8h3.3c.8 0 1.5-.4 2-.8.5-.6 8.7-8.8 8.9-8.9zm-10 8c-.1.1-.6.3-.9.3h-3.3c-.8 0-1.4-.7-1.4-1.4 0-.8.7-1.6 1.4-1.6h1.9c.6 0 1.1-.3 1.5-.6.5-.5 8.8-8.7 9-8.8s.6-.3.9-.3h3.1c.8 0 1.4.7 1.4 1.5s-.7 1.4-1.4 1.4h-1.7c-.6 0-1.2.3-1.5.6-.5.4-8.9 8.7-9 8.9zm2.2-12.6c.8 0 1.5-.7 1.5-1.5s-.7-1.5-1.5-1.5-1.5.7-1.5 1.5.7 1.5 1.5 1.5z"/><path fill="#fff" d="M400.8 562.8c.3 0 .5.2.5.5s-.2.5-.5.5-.5-.2-.5-.5.2-.5.5-.5zm-1.3 1.4h2.6c.2 0 .4.2.4.4v2.7c0 .2-.1.5-.4.5v-2.6h-.4v5.5h-.7v-2.9h-.4v2.9h-.7v-5.5h-.4v2.6c-.2 0-.4-.3-.4-.5v-2.7c.1-.2.2-.4.4-.4zm4.9-1.4c.3 0 .5.2.5.5s-.2.5-.5.5-.5-.2-.5-.5.2-.5.5-.5zm-1.2 1.4h2.6c.2 0 .4.2.4.4v2.7c0 .2-.1.5-.4.5v-2.6h-.4v5.5h-.7v-2.9h-.4v2.9h-.7v-5.5h-.4v2.6c-.2 0-.4-.3-.4-.5v-2.7c0-.2.1-.4.4-.4zm5-1.4c.3 0 .5.2.5.5s-.2.5-.5.5-.5-.2-.5-.5.2-.5.5-.5zm-1.4 1.4h2.6c.2 0 .4.2.4.4v2.7c0 .2-.1.5-.4.5v-2.6h-.4v5.5h-.7v-2.9h-.4v2.9h-.7v-5.5h-.4v2.6c-.2 0-.4-.3-.4-.5v-2.7c.1-.2.2-.4.4-.4zm-7.5-4c-1.1 0-1.9.8-1.9 2v9.1c0 1.1.8 2 1.9 2h10.2c1.1 0 2-.9 2-2v-9.1c0-1.1-.9-2-2-2h-10.6.4zm1.8-9.1c-.3-.4-.8-.4-1.1 0l-2.6 3.6c-.3.3 0 1.4 1.2.9l1.3-1.8v5c0 1.1 1.5 1.1 1.5 0v-4.9l1.3 1.8c.5.3 1.4.3 1.2-.9l-2.8-3.7zm7.3 8c-.3.4-.7.4-.9 0l-2.6-3.6c-.3-.3 0-1.4 1.1-.9l1.3 1.8v-4.9c.4-.8 1.1-.7 1.5 0v5l1.3-2c.5-.3 1.4-.3 1.2.9l-2.9 3.7zm-9 2.2c-.6 0-.9.4-.9 1v8.8c0 .6.4 1.1.9 1.1h9.9c.6 0 1.2-.5 1.2-1.1v-8.8c0-.6-.6-1-1.2-1h-9.9z"/><g fill="#fff"><path d="M332.7 554.7h4.7v.7h-4.7zM332.7 558.4h4.7v.7h-4.7zM332.7 556.6h4.7v.7h-4.7zM326.9 562h10.6v.7h-10.6zM332.7 560.2h4.7v.7h-4.7zM326.9 563.9h10.6v.7h-10.6zM326.9 565.7h10.6v.7h-10.6zM326.9 567.5h10.6v.7h-10.6zM326.9 569.3h10.6v.7h-10.6zM326.9 554.7h4.7v6.2h-4.7zM340 556.9v-5.1h-15.7v18.6c0 1.5.8 2.6 2.2 2.6h15c1.4 0 2.4-1.1 2.4-2.6v-13.5h-3.9zm-14.6 13.9v-17.9h13.5v17.9c0 .5.4 1.1.7 1.1h-13.1c-.6 0-1.1-.5-1.1-1.1zm14.6 0v-12.8h2.9v12.8c0 .5-.7 1.1-1.5 1.1s-1.4-.5-1.4-1.1z"/></g><path fill="#fff" d="M264.1 573.5c6.1 0 11-5 11-11s-5-11-11-11c-6.1 0-11 5-11 11s4.9 11 11 11zm-9.7-11c0-5.3 4.3-9.7 9.6-9.7s9.7 4.3 9.7 9.7c0 5.3-4.3 9.6-9.7 9.6-5.2.1-9.6-4.3-9.6-9.6zm7.2.6c.6.1.9.2 1.3.4v2.8c-1.1-.2-1.5-1.1-1.5-1.8h-2.4c0 1.5 1.4 3.7 3.9 4v1.7h2.2v-1.7c2.6-.3 4-1.6 4-3.5 0-1.2-.5-2.7-2.8-3.3-.6-.1-.5-.1-1.2-.3v-2.6c1.1.1 1.6.7 1.6 1.5h2.3c0-1.8-1.4-3.4-3.9-3.7v-1.4h-2.2v1.4c-2.2.3-3.7 2-3.7 3.5 0 1.4 1 2.5 2.4 3zm1.3-2.2c-1.1-.1-1.2-.6-1.2-1.1s.5-1 1.2-1.1v2.2zm2.2 2.9c1.1.1 1.6.6 1.6 1.2 0 .5-.5 1.2-1.6 1.2v-2.4z"/><g fill="#fff"><path d="M186.2 556.6v11.7h8.7l2.6-5.1v-6.6h-11.3zm8.4 8.4h-5.1v-.4h5.1v.4zm0-1.5h-.7v-1.4c0-.3-.4-.4-.7-.4h-2.4c-.4 0-.5.1-.5.4v1.4h-.7v-3.2c0-1.4 1.2-2.5 2.6-2.5s2.6 1.1 2.6 2.5v3.2z"/><circle cx="192" cy="560.1" r=".8"/><path d="M185.9 553.3l.3 2.2h11.5l.4-2.2z"/><circle cx="199" cy="564.5" r=".2"/><circle cx="203.5" cy="566.1" r=".2"/><circle cx="203.8" cy="566.9" r=".2"/><path d="M203.6 563.1l-1.5.9-3.2-1.8-4.7 8.3 4.7 2.5 1.1-2 6.2-3.7-2.6-4.2zm-4.9 9.3l-3.9-2 4.2-7.5 3.7 2-4 7.5zm4.7-7.7l-.9-.5.9-.6 2.1 3.5-5.1 3.1 3-5.5zM198.3 566.9c0-.1-.1-.1-.2-.1l-.2.1v.9l-1.1.7v.3l1.1-.4v1l-.4.2v.3l.7-.1.4.1v-.3l-.4-.2v-1l1.1.4v-.3l-1.1-.7.1-.9z"/><circle cx="199.8" cy="564.9" r=".2"/><circle cx="200.6" cy="565.3" r=".2"/><circle cx="201.4" cy="565.7" r=".2"/></g><g fill="#fff"><path d="M128.5 571.2v-20.8h-9.5v20.8h-4v1.5h17.5v-1.5h-4zm-6.2-10.6h-2.2v-.7h2.2v.7zm3.7 0h-.7v-.7h.7v.7zm1.4 0h-.7v-.7h.7v.7zm0-2.8c0 .4-.3.6-.7.6h-5.8c-.5 0-.7-.1-.7-.6v-5.6c0-.4.2-.7.7-.7h5.9c.4 0 .7.3.7.8l-.1 5.5zM124.1 556.3c-.1 0-.1 0-.2-.1s-.1-.1-.1-.2v-.1s0-.1.1-.2l.2-.7c0-.1 0-.1.1-.2s0-.1 0-.1l-.1-.4c-.1-.1-.3-.1-.4-.1-.1 0-.2 0-.4.1-.1.1-.2.1-.4.1l-.1.2c.1 0 .1 0 .1-.1h.1c.1 0 .1 0 .2.1.1 0 .1.1.1.2v.1s0 .1-.1.2l-.2.7c0 .1 0 .1-.1.2v.1l.1.4c.1.1.3.1.4.1.1 0 .2 0 .4-.1.1 0 .2-.1.4-.1l.1-.2s-.1 0-.1.1h-.1zM124 552.7c-.1 0-.2.1-.4.1s-.1.2-.1.3l.1.3s.2.1.4.1.2-.1.4-.1c.1-.1.1-.2.1-.3l-.1-.3-.4-.1z"/></g><g fill="#fff"><path d="M80 565.3"/><circle cx="56.9" cy="557.4" r=".4"/><circle cx="58" cy="558.1" r=".4"/><circle cx="59.1" cy="558.7" r=".4"/><circle cx="60.4" cy="559.3" r=".4"/><circle cx="62.9" cy="560" r=".4"/><circle cx="63.4" cy="561.2" r=".4"/><path d="M63.2 555.8l-2.2 1.3-4.5-2.4-3.1 5.5-5.3-2.9-7.6 4.4v7.7c3.7-.1 5.6-2 6.2-2.4l3.4-.7.8.5-.4.9c-.1.9.7 1.6 1.8.9 0 .8.9 1.4 1.6.8l.4-.8.4.1 1.8.9 1.5-2.8 8.7-5.2-3.5-5.8zm-15.9 7.9c.1-2 1.5-1.8 3.5-.6l-3.5.6zm9.1 5.3l-5.5-2.7.1-.1 3-.6c1.5-.6 1.1-2.5-.4-2.8l-.8.1 4.1-7.3 5.1 2.8-5.6 10.6zm6.4-10.8l-1.2-.7 1.3-.8 2.9 5-7.2 4.4 4.2-7.9zM56.9 559.6c0-.1-.1-.2-.2-.2s-.2.1-.2.2v1.2l-1.8 1v.4l1.8-.6v.9l-.4.3v.4l.6-.2.6.3v-.4l-.4-.3v-.9l1.8.6v-.5l-1.8-1v-1.2z"/></g><g fill="#fff"><path d="M548.3 491.5h-.1v1.2h.1c.4 0 .6-.3.6-.7s-.2-.5-.6-.5zM545.6 491.5c-.3 0-.4.5-.4 1.3 0 .9.1 1.3.5 1.3.3 0 .4-.6.4-1.4 0-.6-.1-1.2-.5-1.2zM551.7 484.5c0-.9-.7-1.3-1.2-1.3h-1.9v-1.3c0-.9-.5-1.6-1.5-1.6-.1-.9-.6-1.5-1.5-1.5h-4.4c-.9 0-1.5.7-1.5 1.6v2.8h-1.9c-.7 0-1.2.4-1.2 1.3l-1.2 15.7c0 .9 0 2 1.2 2h15c1.2 0 1.2-.9 1.2-1.9l-1.1-15.8zm-11.9 10.3c-.3 0-.7-.1-.7-.1l.1-.7c.1.1.4.1.7.1.4 0 .5-.2.5-.4 0-.3-.1-.4-.5-.7-.5-.3-.7-.7-.7-1.1 0-.7.4-1.2 1.2-1.2.3 0 .5.1.6.1l-.1.7c-.1-.1-.3-.1-.5-.1-.3 0-.5.2-.5.4s.1.4.5.6c.5.3.7.7.7 1.1 0 .8-.5 1.3-1.3 1.3zm1.5-11.7h-.7v-2.8c0-.6.5-.9 1.1-.9h3.7c.5 0 1 .2 1.1.7h-3.7c-.9 0-1.5.7-1.5 1.6v1.4zm5.1-2.1v2.2h-4.4v-1.3c0-.6.5-.9 1.1-.9h3.3zm-2.6 13.8h-.7v-1.8h-.7v1.8h-.7v-4h.7v1.5h.7v-1.5h.7v4zm1.8 0c-.9 0-1.2-.9-1.2-2s.4-2 1.3-2 1.2 1 1.2 2c0 1.4-.5 2-1.3 2zm1.5-13.8c.4.1.7.4.7.9v1.3h-.7v-2.2zm2.2 12c-.2.3-.7.4-.9.4h-.1v1.5h-.7v-3.9c0-.1.4-.1.7-.1.4 0 .8.1 1 .3.2.2.4.5.4.9-.1.3-.3.7-.4.9z"/></g><path fill="#fff" d="M477 497v-8.4h-1.8v-.9c0-.6-.3-.9-.9-.9h-1.5c-.7 0-1.1.4-1.1.9v.9h-1.8v8.4h7.1zm-2.6-8.4h-2.2v-1.1h2.2v1.1zm3.3 0v8.4h1.3c.5 0 .9-.3.9-.8v-6.6c0-.5-.4-1-.9-1h-1.3zm5.5-5.1h-18.3v1.8h16.4v13.9h-16.4v1.8h18.3v-17.5zm-14.3 5.1h-1.2c-.5 0-1 .5-1 1v6.6c0 .5.5.8 1 .8h1.2v-8.4z"/><g fill="#fff"><path d="M400.1 488.2h-.2v2.7h.2c.4 0 .7-.4.7-1.5.1-.7-.2-1.2-.7-1.2zM411.8 484.8c0-.9-.7-1.3-1.3-1.3h-1.8v-1.3c0-.9-.7-1.6-1.6-1.6-.1-.9-.6-1.5-1.5-1.5h-4.5c-.9 0-1.6.7-1.6 1.6v2.8h-1.8c-.7 0-1.3.4-1.3 1.3l-1.3 15.7c0 .9 0 2 1.3 2h15.3c1.3 0 1.3-.9 1.3-1.9l-1.2-15.8zm-4.6-3.4c.4.1.7.4.7.9v1.3h-.7v-2.2zm-2.9 6.9v-.7h2.6v.7h-.7v3.3h-.7v-3.3h-1.2zm2.2-4.8h-4.7v-1.3c0-.6.7-.9 1.2-.9h3.5v2.2zm-6.2-2.8c0-.6.6-.9 1.2-.9h3.7c.6 0 1 .2 1.1.7h-3.7c-.9 0-1.6.7-1.6 1.6v1.3h-.7v-2.7zm-1.1 10.8v-3.9c.4-.1.5-.1.9-.1.5 0 .9.1 1.2.4.4.3.5.8.5 1.6s-.2 1.4-.6 1.7c-.3.3-.7.4-1.3.4-.3-.1-.4-.1-.7-.1zm1.8 3.7h-.7v1.1h.7v.7h-.7v1.5h-.7v-4h1.5v.7zm.7-7.7h.7v2.6c0 .6.1.7.4.7.2 0 .4-.1.4-.7v-2.6h.7v2.5c0 1-.3 1.5-1.1 1.5-.9 0-1.1-.6-1.1-1.5v-2.5zm1.7 11c-.1 0-.1-.4-.2-.9s-.2-.6-.4-.6h-.3v1.5h-.7v-3.8c.4-.1.7-.1.9-.1.4 0 .9.1 1.1.3.2.2.2.5.2.8 0 .4-.4.8-.7 1 .4.1.6.3.7.7.1.4.4 1 .4 1l-1 .1zm3.1 0h-1.5v-4h1.5v.7h-.7v.7h.7v.7h-.7v1.1h.7v.8zm2.5 0h-1.8v-4h1.8v.7h-1.1v.7h.7v.7h-.7v1.1h1.1v.8zm0-8.5v1.5h-.7v-1.5l-1-2.5h.8l.3.9c.1.2.1.5.2.9.1-.4.1-.6.2-.9l.2-.9h.8l-.8 2.5zM402.8 495.2h-.3v1.1h.3c.4 0 .5-.2.5-.6 0-.3-.2-.5-.5-.5z"/></g><path fill="#fff" d="M337.8 481l-1.3 2.6h-5.3l-1.3-2.6h7.9zm-1.3 2.9c0 1.1.1 3-1.6 3.8-1.1.5-2.1.1-2.6-.2-1.2-1-1.2-2.5-1.2-3.6h5.4zm-9.6 7v12.4l2.6-4.4v-4.4l.7 3.3h.7l6.2-9.1h-8c-1.4-.1-2.2.7-2.2 2.2zm11.3-2.3h.4c1.5 0 2.2.7 2.2 2.2v12.4l-2.6-4.4v-4.4s-.1.4-.4 1.5c-.2 1.1-.4 1.8-.4 1.8h-5.4l6.2-9.1zm-8.1 10.3h7.3l2.6 4.4h-12.4c-.2-.1 2.5-4.4 2.5-4.4z"/><g fill="#fff"><path d="M254.2 486.4v15.3h19.7v-15.3h-19.7zm18.2 13.9h-16.8v-12.4h16.8v12.4zM260 498.5h-.5c-.6 0-1.3-.3-1.3-1.1v-5.4c0-.7.7-1.2 1.3-1.2h.5v7.7zM268.1 498.5v-7.7h.7c.6 0 1.2.6 1.2 1.2v5.4c0 .7-.6 1.1-1.2 1.1h-.7zM265.9 490.8v-1c0-.4-.5-.8-.9-.8h-1.7c-.4 0-1 .4-1 .8v1h-1.5v7.7h6.6v-7.7h-1.5zm-.8 0h-2.2v-1.1h2.2v1.1zM269.6 480.8l-.9-.9h-5.3c-.4-.8-1.3-1.2-2.3-1.2-1.5 0-2.6 1.2-2.6 2.6 0 1.5 1.2 2.6 2.6 2.6.9 0 1.8-.5 2.3-1.3h1l.8-.8.7.7.7-.7.7.7.7-.7.7.7 1.1-1.1c-.1-.3-.1-.4-.2-.6zm-9.4 1.1c-.4 0-.7-.3-.7-.7 0-.4.3-.7.7-.7.4 0 .7.3.7.7 0 .4-.3.7-.7.7z"/></g><path fill="#fff" d="M202.3 489c.7 0 1.5.7 1.5 1.5v2.9c0 .7-.7 1.5-1.5 1.5h-1.1v1.1c0 1.5-1.1 2.6-2.6 2.6h-10.6c-1.5 0-2.6-1.1-2.6-2.6v-7h16.9zm-18.3 9.9h19.4v1l-.9.1c-.8.4-.5.9-1 1.1h-15.5c-.3-.2-.3-.8-.8-.9l-1.2-.2v-1.1zm7.4-17.6c-.4.9-.7 1.7-.4 2.7.3.5.7 1.5.6 2 0 .7-.4 1.3-.5 1.8h-1.1c.7-1 1.1-2.1.4-3.4-.3-.5-.4-1.2-.3-2 .1-.4.4-.9.7-1.2l.6.1zm2.9 0c-.4.9-.7 1.7-.4 2.7.3.5.7 1.5.6 2 0 .7-.4 1.3-.5 1.8h-1.1c.7-1 1.1-2.1.4-3.4-.3-.5-.4-1.2-.3-2 .1-.4.4-.9.7-1.2l.6.1zm2.9 0c-.4.9-.7 1.7-.4 2.7.3.5.7 1.5.6 2 0 .7-.4 1.3-.5 1.8h-1.1c.7-1 1.1-2.1.4-3.4-.3-.5-.4-1.2-.3-2 .1-.4.4-.9.7-1.2l.6.1zm4 12.1h.7c.4 0 .7-.4.7-.7v-1.5c0-.4-.4-.7-.7-.7h-.7v2.9z"/><path fill="#fff" d="M128.2 499.9l-.3 1.2c-.9.4-1.5.6-2 .7s-1.1.3-1.8.3c-1 0-1.8-.2-2.4-.7-.6-.5-.9-1.2-.9-1.9 0-.3 0-.6.1-.9l.2-1.1 1.1-3.7c.1-.4.1-.7.2-1 .1-.3.1-.6.1-.9 0-.5-.1-.8-.3-1-.2-.2-.6-.3-1.2-.3l-.9.1c-.3.1-.5.1-.7.2l.3-1.2c.7-.3 1.4-.5 2-.7.7-.2 1.2-.3 1.8-.3 1 0 1.8.2 2.3.7.6.5.8 1.1.8 1.9 0 .1 0 .4-.1.9-.1.4-.1.8-.2 1.1l-1 3.7-.2 1c-.1.4-.1.7-.1.9 0 .5.1.8.4 1 .2.1.6.3 1.2.3.3 0 .5-.1.9-.1.3 0 .5-.1.7-.2zm.3-15.7c0 .7-.2 1.2-.7 1.7-.5.5-1.1.7-1.8.7s-1.3-.2-1.8-.7c-.4-.4-.7-1-.7-1.7s.2-1.2.7-1.7c.5-.4 1.1-.7 1.8-.7s1.3.2 1.8.7c.4.5.7 1.1.7 1.7z"/><g fill="#fff"><path d="M80 495.2"/><path d="M61.3 481c-1.5 0-2.2.7-2.2 1.4v3h-.7v-3c0-.7-.7-1.4-2.2-1.4-1.5 0-2.2.7-2.2 1.4v3h-.7v-3c0-.7-.7-1.4-2.2-1.4-1.5 0-2.2.7-2.2 1.4v3h-.7v-3c0-.7-.7-1.4-2.2-1.4h-.7v8c1.1 0 1.8.7 1.8 1.8v11.8h13.1v-11.8c0-1.1.7-1.8 1.8-1.8v-8h-.7zm-5.8 17.9c-.4.1-.7.3-1 .4-.3.1-.5.1-.9.1-.5 0-.9-.1-1.2-.4-.2-.2-.4-.6-.4-.9v-.4s.1-.4.1-.5l.5-1.9c.1-.1.1-.4.1-.5.1-.1.1-.3.1-.4 0-.2-.1-.4-.1-.5s-.3-.1-.6-.1c-.1 0-.3 0-.4.1-.1.1-.3.1-.4.1l.1-.6c.4-.1.7-.3 1-.4s.6-.1.9-.1c.5 0 .9.1 1.2.4.3.2.4.6.4.9v.4l-.1.6-.5 1.9c-.1.1-.1.3-.1.5-.1.2-.1.4-.1.4 0 .2.1.4.1.5s.3.1.6.1c.1 0 .3 0 .4-.1.1-.1.3-.1.4-.1l-.1.5zm-.2-7.5c-.2.2-.5.4-.9.4s-.7-.1-.9-.4c-.2-.2-.4-.5-.4-.8 0-.3.1-.6.4-.8.2-.2.5-.4.9-.4s.7.1.9.4c.2.2.4.5.4.8 0 .3-.1.6-.4.8z"/></g><path fill="#fff" d="M533.6 429.5v-3.3h18.3v3.3h-18.3zm20.4 0h-1.1v-3.3h1.1v3.3zm1.5 0h-1.1v-3.3h1.1v3.3zm-7.4-7.4c-1.4 0-2.4-1.1-2.4-2.5 0-.3.1-.5.1-.7-1.8 0-3.1-1.5-3.1-3.2 0-1.8 1.5-3.3 3.3-3.3v1c-1.5 0-2.3 1-2.3 2.3 0 1.2.9 2.3 2.3 2.3.1 0 .3 0 .4-.1h.1c.3 0 .5.2.5.5l-.1.3c-.1.3-.3.5-.3.8 0 .9.7 1.5 1.6 1.5h3.4c1.2 0 2.5 1.2 2.5 2.4v2h-1v-1.9c0-.7-.6-1.5-1.3-1.5l-3.7.1zm.9-3.5c.4-.4.5-1 .5-1.6 0-1.5-1.2-2.6-2.6-2.6h-.1v-.9h.1c2 0 3.6 1.6 3.6 3.6 0 .5-.1 1-.4 1.5h.6c2.7 0 4.7 2.2 4.7 4.8v2.1h-1.1v-2.1c0-2.2-1.6-3.9-3.8-3.9h-1.3c-.3 0-.5-.2-.5-.5l.3-.4z"/><path fill="#fff" d="M462.4 420.8l16.3-9.9 5.3 8.5-8.6 5.3-.3-.5 8.1-5-4.6-7.5-15.3 9.1 4.5 7.7 1.7-1 .3.5-2.1 1.3-5.3-8.5zm13.8 7.9c-1.2.2-2 1.5-1.8 2.7.2 1.2 1.5 2 2.6 1.8 1.2-.2 2-1.5 1.8-2.7-.1-1.3-1.3-2.1-2.6-1.8zm4.4-6.1c-1.7.4-2.8 2-2.5 3.7.4 1.7 2 2.8 3.7 2.5 1.7-.4 2.8-2 2.5-3.7-.3-1.7-2-2.8-3.7-2.5zm-8.7.9c-1.5.3-2.4 1.8-2.1 3.4.3 1.5 1.8 2.6 3.2 2.3 1.5-.3 2.4-1.8 2.1-3.3-.2-1.6-1.7-2.7-3.2-2.4zm2.3 4.6l-.3-1.4c-.1-.4 0-.5.1-.6.1-.1.2-.2.5-.3l-.1-.7c-.1.1-.4.1-.4.1-.1.1-.2.2-.3.4l-.1-.2-.9.1.5 2.8 1-.2zm-1.8.4l-.4-2.1.5-.1-.1-.7-.5.1v-.1c0-.1-.1-.4-.1-.4.1-.1.1-.1.4-.1h.1l-.1-.6c-.4.1-.8.1-1 .3-.2.2-.1.6-.1.9v.1l-.5.1.1.7.5-.1.4 2.1.8-.1zm10.3-3.6c.1 0 0-2-2-1.5-.9.3-1.2.7-1.2 1.2 0 .8.4.9.4.9l.1.1-1 .2.1.7 1.2-.2c.1.9-.7 1.2-.7 1.2l.1.7 3.6-.6-.1-.8-2.4.4c-.1 0-.1-.1 0-.1.3-.2.2-.9.2-.9l1.2-.2-.1-.7-1.3.2v-.1c-.1-.1-1-.9.2-1.3 1.2-.3 1.1 1 1.1 1l.6-.2zm-7.1 6.5l.1.6.8-.1.2.8.7-.1-.1-.8.9-.1-.2-.7-.7.1.6-1.8-.7.1-.4 1.1-.8-.9-.7.1 1.2 1.5-.9.2zm-7.5-12.7l2.8 4.7.9-.4c1-.2 2 .1 2.7.7l7.7-4.7-4-6.5-10.1 6.2zm8.7-2.1c-.3-.4-.9-.7-1.4-.7-.4-.1-.9 0-1.5.2l-.3-.4-.8.4.2.4c-.4.4-.7.9-.9 1.4-.1.4-.1.9.1 1.4.2.5.5.6.8.7.3.1.6.1.8.1.2 0 .7-.2 1.1-.6l.8 1.4c-.2.1-.5.1-.7.1-.1-.1-.7-.3-.9-.4l-.9.5c.1.3.5.4.7.6.2.1.4.1.7.1.2.1.4.1.7 0 .3-.1.4-.1.8-.2l.2.4.8-.5-.2-.4c.3-.2.2-.3.4-.4.1-.2.3-.4.4-.7.1-.2.1-.4.1-.7s0-.8-.1-1.1c-.2-.4-.7-.6-1.2-.6-.4 0-.7.1-1.5.5l-.8-1.3c.1 0 .4-.1.7-.1.2 0 .6.3.7.4l1.2-.5zm-3.1.8l-.4.4c0 .1-.2.3-.1.6.1.4.4.6.5.6.1.1.6-.1.8-.2l-.8-1.4zm2.9 3.1c.1-.1.4-.6.4-.8s0-.4-.1-.6c-.1-.1-.1-.2-.3-.2-.4-.1-.7.1-.9.2l.9 1.4z"/><g><path fill="#fff" d="M410.3 411.4c-.1-.1-1-.9-1-.9h-5.8c-.5-.7-1.4-1.5-2.4-1.5-1.6 0-2.8 1.2-2.8 2.8s1.3 3 2.8 3c1.1 0 2-.7 2.6-1.5h1.1l.9-1 .7.7.7-.7.7.7.7-.7.7.7 1.2-1.2c0-.2 0-.2-.1-.4zm-10.6 1.2c-.4 0-.8-.4-.8-.8s.4-.8.8-.8.8.4.8.8-.4.8-.8.8zM412.5 422.2s-1.5-3.6-1.8-4.2c-.4-.8-.9-1.4-2.1-1.4h-8.7c-1.2 0-1.8.6-2.1 1.4-.2.6-1.8 4.2-1.8 4.2-.9.2-1.7 1.1-1.7 2.1v5.1h1.8v1.8c0 .8.7 1.5 1.5 1.5s1.5-.7 1.5-1.4v-1.8h10.6v1.8c0 .8.7 1.5 1.5 1.5s1.5-.7 1.5-1.5v-1.8h1.5v-5.1c0-1.1-.7-2-1.7-2.2zm-14.9 4.3c-.8 0-1.5-.7-1.5-1.5s.7-1.5 1.5-1.5 1.5.7 1.5 1.5c-.1.9-.7 1.5-1.5 1.5zm.2-4.4s1.2-2.7 1.4-3.3c.2-.5.5-.7.9-.7h8.5c.5 0 .7.2.9.7.2.6 1.4 3.3 1.4 3.3h-13.1zm13.4 4.4c-.8 0-1.5-.7-1.5-1.5s.7-1.5 1.5-1.5 1.5.7 1.5 1.5c-.2.9-.8 1.5-1.5 1.5z"/><path fill="none" d="M404.7 416.7"/></g><path fill="#fff" d="M336.7 424.3l.4-.8c.3-.5.1-1.1-.4-1.4 0 0-1.4-.8-2-1.1-.4-.2-.8-.1-1 .3-.2.4-.1.8.3 1 .4.2.8.4 1.2.7l-.7 1.2c-.1.3-.2.5-.2.9 0 1 .9 1.8 1.9 1.8h2.6c.5 0 1.1-.3 1.1-.9v-3.1c0-.4-.4-.7-.7-.7s-.7.3-.7.7v1.5h-1.8v-.1zm0 0zm0 0zm0 0zm-3.3 4.4h9.9v-1.5h-9.9v1.5zm3.3-13.4c1.1 0 2-.9 2-2s-.9-2-2-2-2 .9-2 2 .9 2 2 2zm-5.7 3.9l2.4-1.5v1.5c0 .3.2.6.5.7.4.2 2.6 1.5 3.3 1.8.4.2.9.1 1.1-.3.2-.4.1-.9-.3-1.1-.4-.2-2-1-2.8-1.5v-2.9c0-.4-.1-.7-.2-.9-.5-.9-1.6-1.2-2.5-.7l-4 2.3c-.9.5-1.7 1.5-2 2.6l-1.5 5.3h2.7v7.8c0 .6.5 1 1.1 1 .6 0 1.1-.4 1.1-1v-7.8h2.8l-1.7-5.3zm10.8 7.8c.9 0 1.5-.7 1.5-1.5 0-.9-.7-1.5-1.5-1.5-.9 0-1.5.7-1.5 1.5 0 .9.7 1.5 1.5 1.5z"/><g fill="#fff"><path d="M264 419.2c0 .8-1.1 1.6-1.8 1.6v13.4c0 1.5-2.9 1.5-2.9 0v-13.4c-1.1 0-1.8-.7-1.8-1.8v-7.3c0-.7 1.1-.7 1.1 0v5.3h.7v-5.3c0-.6 1.1-.7 1.1 0v5.3h.7v-5.3c0-.6 1.1-.7 1.1 0v5.3h.7v-5.3c0-.6 1.1-.7 1.1 0v7.5zM270.2 413.4v20.8c0 1.5-2.6 1.5-2.6 0v-8.4h-1.5v-12.4c.1-2.9 4.1-2.9 4.1 0z"/></g><path fill="#fff" d="M196.2 425.8c3.6 0 6.4-2.9 6.4-6.5 0-3.7-2.8-6.6-6.4-6.6h-8.2v19.7h4v-6.6h4.2zm-4.1-3.7v-5.8h4.2c1.6 0 2.9 1.3 2.9 3 0 1.6-1.2 2.8-2.8 2.8h-4.3z"/><path fill="#fff" d="M128.5 430.2v1.2c0 .7.7 1.3 1.3 1.3.7 0 1.2-.5 1.2-1.2v-1.3h1.5v-8.7s-.4-4.3-.5-6c-.2-1.9-.6-2.4-1.9-3.1-1.9-.9-4-1.2-6.3-1.2s-4.4.4-6.3 1.2c-1.3.7-1.8 1.2-1.9 3.1-.1 1.7-.6 6-.6 6v8.6h1.5v1.3c0 .7.6 1.2 1.2 1.2.7 0 1.3-.7 1.3-1.3v-1.2l9.5.1zm-12-4.2c0-.7.5-1.2 1.2-1.2s1.2.5 1.2 1.2-.5 1.2-1.2 1.2c-.7.1-1.2-.5-1.2-1.2zm12.2 0c0-.7.5-1.2 1.2-1.2s1.2.5 1.2 1.2-.5 1.2-1.2 1.2c-.6.1-1.2-.5-1.2-1.2zm-8.6-12.3c-.3 0-.5-.2-.5-.6 0-.3.2-.5.5-.5h7.4c.3 0 .5.2.5.5s-.2.6-.5.6h-7.4zm-2.8 8.1c-.5 0-.9-.4-.8-.9.1-1.9.2-2.8.5-4.7.1-.4.4-.5.9-.5h11.8c.5 0 .9.1.9.5.2 2 .4 2.8.5 4.8.1.6-.4.9-.7.9h-13.1v-.1zm10.5-2.2h-2.4c-.8 0-1.6.6-1.6 1.4v.8h1.1v-.4h.4v.4h2.6v-.4h.4v.4h1.1v-.7c-.1-.9-.8-1.5-1.6-1.5zm-.3-2.2l.6-.4h-3.0999999999999996l.6.5c-.1.1-.2.4-.2.6 0 .6.5 1.1 1.1 1.1.6 0 1.1-.6 1.1-1.2.1-.2.1-.2-.1-.6z"/><g fill="#fff"><path d="M53.5 413.4l.1.4h-.1v-.4zM55.2 414.5h.2c.1 0 .1 0 .1-.1v-1.3c0-.1 0-.1-.1-.1h-.2c-.1 0-.1 0-.1.1l.1 1.4z"/><circle cx="56" cy="417.5" r=".9"/><path d="M61.9 420s-1.5-3.6-1.8-4.2c-.4-.8-.9-1.4-2.1-1.4h-1.5v-1.2c0-.2-.1-.7-.4-.7h-4.5c-.3 0-.6.4-.6.7v1.2h-1.7c-1.2 0-1.8.6-2.1 1.4-.2.6-1.8 4.2-1.8 4.2-.9.2-1.7 1.1-1.7 2.1v5.1h1.8v1.8c0 .8.7 1.5 1.5 1.5s1.5-.7 1.5-1.4v-1.8h10.6v1.8c0 .8.7 1.5 1.5 1.5s1.5-.7 1.5-1.5v-1.8h1.5v-5.1c-.1-1.1-.7-2-1.7-2.2zm-6.4-7h.4v1.5h-.4v-1.5zm-1.8 0l.4 1.4v.1l.4-.7-.5-.8h.4l.2.4.1-.4h.4l-.4.7.4.7h-.30000000000000004l-.1-.4-.2.4h-.8l-.1-.4h-.2l-.1.4h-.4v-.1l.4-1.4h.4zm-1.9 0h1.1v.4h-.4v1.1h-.4v-1.1h-.4v-.4zm-4.8 11.3c-.8 0-1.5-.7-1.5-1.5s.7-1.5 1.5-1.5 1.5.7 1.5 1.5c-.1.9-.7 1.5-1.5 1.5zm.2-4.3s1.2-2.7 1.4-3.3c.2-.5.5-.7.9-.7h8.5c.5 0 .7.2.9.7.2.6 1.4 3.3 1.4 3.3h-2.3c-.1-.6-.5-1.1-1.1-1.1h-1.8c-.6 0-1.2.5-1.2 1.1h-6.7zm13.3 4.3c-.8 0-1.5-.7-1.5-1.5s.7-1.5 1.5-1.5 1.5.7 1.5 1.5c-.1.9-.7 1.5-1.5 1.5z"/></g><path fill="#fff" d="M550.8 346.2h.6c.9 0 1.6.4 1.6 1.3v7.2c0 .8-.7 1.7-1.6 1.7h-.6v-10.2zm-4.4 0v-1.8h-3.7v1.8h3.7zm-3.5-2.9h3.4c.5 0 1.2.5 1.2 1.2v1.7h2.2v10.2h-10.2v-10.2h2.2v-1.7c-.1-.7.7-1.2 1.2-1.2zm-5.2 2.9h1v10.2h-1c-.9 0-1.5-.9-1.5-1.7v-7.2c-.1-.8.6-1.3 1.5-1.3zm3.6.7h1.1v-.7h.4v.7h1.1v3.7h-2.6v-3.7zm1.3.7c-.3 0-.5.2-.5.5s.2.5.5.5.5-.2.5-.5c0-.2-.2-.5-.5-.5zm12.9 9.9h-21.9v1.5h21.9v-1.5z"/><path fill="#fff" d="M479.5 348.4c2 0 3.7-1.6 3.7-3.7 0-2-1.6-3.7-3.7-3.7s-3.7 1.6-3.7 3.7c.1 2.1 1.7 3.7 3.7 3.7zm-2.9-3.7c0-1.6 1.3-2.9 2.9-2.9 1.6 0 2.9 1.3 2.9 2.9s-1.3 2.9-2.9 2.9c-1.6 0-2.9-1.3-2.9-2.9zm2.6-1.7v2c0 .3.3.3.5.2 0 0 1.5-.7 1.8-.8.2-.1 0-.4-.2-.4l-1.6.7v-1.7c-.2-.3-.5-.3-.5 0zm-10.6 12l-1-5c-.2-.8-.9-.8-1.2-.7-.2.1-.9.3-.7 1.2 0 0 .5 2.3.9 5 .6 3.1 3 3.9 4.2 3.9h3.7c1.3 0 1.4-2.2.1-2.2h-3.4c-1-.1-2.3-.4-2.6-2.2zm4.6-1.5l-1.1-5.5c-.2-1.1-1.5-1.6-2.4-1.5-.9.1-1.9 1.1-1.7 2.5.3 1.4 1.2 5.9 1.2 5.9.4 2 1.9 1.8 2.7 1.8h4.8v5.5c0 2.2 2.6 2.2 2.6 0v-6.9c0-1.4-.9-1.9-2-1.9h-4.1v.1zm-3.4-7.3c1.3 0 2.4-1.1 2.4-2.4 0-1.3-1.1-2.4-2.4-2.4s-2.4 1.1-2.4 2.4c0 1.4 1.1 2.4 2.4 2.4z"/><path fill="#fff" d="M405.1 356.2l.7-.5.4-.1.4.1 3.6 4c.4.4-.4 1.8-1.3.7l-3.8-4.2zm-6.1-14.8s-.7 0-1.5.4c-.9.4-2 1.3-2 1.3s-.1 2.5.2 5.2c.3 2.6 1.8 6.7 3.7 9.2 1.8 2.3 3.8 3.7 6.1 5.4.5.4 3.5-1.5 3.5-1.5l-4.2-4.7s-.2.5-.7 1c-.5.4-.8-.1-.8-.1s-4.1-8.3-4.4-9.1c-.4-.8.3-.9.3-.9h1.3l-1.5-6.2zm.5-.2l.9-.1c.4.1.6.4.6.4l1 4.8c.1.2.1.3 0 .5l-.2.3c-.3.3-.8.5-.9.1l-1.4-6zm7.7 5.7c0 .4-.3.7-.7.7-.4 0-.7-.3-.7-.7s.3-.7.7-.7c.4 0 .7.3.7.7zm2.9 0c0 .4-.3.7-.7.7-.4 0-.7-.3-.7-.7s.3-.7.7-.7c.4 0 .7.3.7.7zm3 0c0 .4-.3.7-.7.7-.4 0-.7-.3-.7-.7s.3-.7.7-.7c.4 0 .7.3.7.7zm-5.9 2.9c0 .4-.3.7-.7.7-.4 0-.7-.3-.7-.7 0-.4.3-.7.7-.7.4 0 .7.4.7.7zm2.9 0c0 .4-.3.7-.7.7-.4 0-.7-.3-.7-.7 0-.4.3-.7.7-.7.4 0 .7.4.7.7zm3 0c0 .4-.3.7-.7.7-.4 0-.7-.3-.7-.7 0-.4.3-.7.7-.7.4 0 .7.4.7.7zm-5.9 3c0 .4-.3.7-.7.7-.4 0-.7-.3-.7-.7 0-.4.3-.7.7-.7.4-.1.7.3.7.7zm2.9 0c0 .4-.3.7-.7.7-.4 0-.7-.3-.7-.7 0-.4.3-.7.7-.7.4-.1.7.3.7.7zm3 0c0 .4-.3.7-.7.7-.4 0-.7-.3-.7-.7 0-.4.3-.7.7-.7.4-.1.7.3.7.7z"/><g fill="#fff"><path d="M371.6 388.1zM371.6 388.1zM335.5 354.9h-1.7l-.7-.1c-.6-.1-.9-.7-1.1-1.2l-.5-2.8c-.1-.9-1.3-.7-1.2.2l.5 2.8c.2 1 .9 1.8 2 2.2.3.1.5.1.8.1h1.8c1-.1 1-1.2.1-1.2zM337.2 352.4h-2.2l-.6-3.1c-.4-1.6-2.6-1.2-2.4.4l.7 3.5c.1.5.5.9 1.2.9h2.8v3.6c0 1 1.5 1 1.5 0v-4.4c0-.3-.3-.9-1-.9z"/><circle cx="333.1" cy="346.7" r="1.4"/><path d="M327.4 354.9h-1.7l-.7-.1c-.6-.1-.9-.7-1.1-1.2l-.5-2.8c-.1-.9-1.3-.7-1.2.2l.5 2.8c.2 1 .9 1.8 2 2.2.3.1.5.1.8.1h1.8c1-.1 1-1.2.1-1.2zM329.2 352.4h-2.3l-.6-3.1c-.4-1.6-2.6-1.2-2.4.4l.7 3.5c.1.5.5.9 1.2.9h2.8v3.6c0 1 1.5 1 1.5 0v-4.4c0-.3-.2-.9-.9-.9z"/><circle cx="325" cy="346.7" r="1.4"/><path d="M343.5 354.9h-1.7l-.7-.1c-.6-.1-.9-.7-1.1-1.2l-.5-2.8c-.1-.9-1.3-.7-1.2.2l.5 2.8c.2 1 .9 1.8 2 2.2.3.1.5.1.8.1h1.8c1-.1 1-1.2.1-1.2zM345.3 352.4h-2.3l-.6-3.1c-.4-1.6-2.6-1.2-2.4.4l.7 3.5c.1.5.5.9 1.2.9h2.8v3.6c0 1 1.5 1 1.5 0v-4.4c0-.3-.3-.9-.9-.9z"/><circle cx="341.1" cy="346.7" r="1.4"/></g><path fill="#fff" d="M262.1 344.7c-1.1 0-2-.9-2-2s.9-2 2-2 2 .9 2 2-.9 2-2 2zm6.6 10.2h-6.2c-1 0-1.8-.9-2-1.9l-.4-5.9c-.1-1 .7-2 1.8-2 1-.1 1.9.9 2 1.8l.1 2.1h3.6c.5 0 .9.2.9.7s-.4.7-.9.7h-3.4l.1 1.1h4.6c.4 0 1.2.7 1.4 1l3.2 5.3c.3.6.1 1.2-.4 1.5s-1.2.3-1.5-.2l-2.9-4.2zm.1 1.4l1.1 1.8c-1 2.6-3.7 4.5-6.6 4.5-3.9 0-7.2-3.2-7.2-7.2 0-2.6 1.5-5 3.6-6.2l.1 1.8c-1.3 1-2.1 2.6-2.1 4.5 0 3.1 2.6 5.7 5.7 5.7 2.6-.1 5-2.2 5.4-4.9z"/><path fill="#fff" d="M191.4 360.8v-5.8h-6.2v-5.8h6.2v-5.8h5.5v5.8h5.8v5.8h-5.8v5.8h-5.5z"/><path fill="#fff" d="M127.1 346.9v-2.2c0-.5-.5-1.1-1.1-1.1h-4.1c-.5 0-1.1.6-1.1 1.1v2.2h-2.2v13.1h10.2v-13.1h-1.7zm-5.1 0v-2.2h4v2.2h-4zm8.4 13.2h1.4c1.1 0 1.9-.9 1.9-2v-9.2c0-1.1-.8-1.9-1.9-1.9h-1.4v13.1zm-13.2 0v-13.1h-1.3c-1.1 0-2 .7-2 1.9v9.2c0 1.1.9 2 2 2h1.3z"/><g fill="#fff"><path d="M48.2 348l2 6.9h-1.6v5.1c0 1.1-1.5 1.1-1.5 0v-5.5h-.7v5.5c0 1.1-1.5 1.1-1.5 0v-5.1h-1.7l2-6.9h-.5l-1.2 3.8c-.3.9-1.5.5-1.2-.4l1.2-4.2c.1-.5.7-1.4 1.8-1.4h2.5c1 0 1.7.9 1.8 1.3l1.2 4.2c.2.9-.9 1.3-1.2.4l-1.2-3.8-.2.1zM52.6 342.5h2.2v18.3h-2.2z"/><circle cx="60.6" cy="344.1" r="1.5"/><path d="M58.8 359.9v-11.9h-.8v4.4c0 .7-1.1.7-1.1 0v-4.6c0-1.1.8-1.9 1.9-1.9h3.5c1.2 0 1.9.9 1.9 2v4.5c0 .9-1.1.9-1.1 0v-4.3h-.7v11.9c0 .4-.3.9-.7.9-.4 0-.7-.4-.7-.8v-6.9h-.7v6.8c0 .4-.3.8-.7.8s-.8-.4-.8-.9zM46.7 345.6c-.8 0-1.5-.7-1.5-1.5s.7-1.5 1.5-1.5 1.5.7 1.5 1.5-.7 1.5-1.5 1.5z"/></g><g fill="#fff"><path d="M538.6 275.4c.9 0 1.6-.7 1.6-1.6 0-.9-.7-1.6-1.6-1.6-.9 0-1.6.7-1.6 1.6 0 .9.7 1.6 1.6 1.6zM540.8 276.3c-.2-.4-.6-.6-.9-.6h-2.5c-.3 0-.7.2-.9.5 0 0-1.5 2.1-1.8 2.6-.1.1-.3.6-.3.7v2.1c0 .4.1.8.7.8s.7-.4.7-.8v-2.2c.2-.2.5-.6 1.1-1.3v3.1c0 .7.1 1.3.4 1.8 1.1 1.6 4.6 6.7 4.8 7 .3.4.8.5 1.2.2.4-.3.3-.8.1-1.2-.1-.1-.3-.5-3.6-5.6v-5.8c1.1 1.5 2.8 3.9 3.1 4.2.2.3.7.4 1 .1.3-.2.4-.7.2-.9-.1 0-3.3-4.7-3.3-4.7zM534.5 289.1c-.3.4-.1.9.2 1.2s.9.1 1.2-.2c.1-.2 1.5-2.2 2.8-4.2l-1.1-1.5c-1.5 2.2-3.1 4.6-3.1 4.7zM548.9 289.2v-6.2c0-.5.1-.9.4-1.5l2.9-4.4c.2-.4.4-.7.4-1.1v-4h-1.8v3.7c0 .4-.1.7-.4 1 0 0-2.7 4-2.8 4.4-.4.7-.4.8-.4 1.5v8h7.3v-1.5l-5.6.1zM547.8 277.5l-1.8-1.7v1h-1.8v1.4h1.8v1.1z"/></g><path fill="#fff" d="M468.9 276.5c.9 0 1.7-.7 1.7-1.7s-.7-1.7-1.7-1.7c-.9 0-1.7.7-1.7 1.7.1.9.8 1.7 1.7 1.7m5.2-1.9v3.2s-.3.1-.4.3c-.1.1-.5.7-1.2 1.4l-.3-1.1c-.2-.8-1-1.6-1.9-1.6h-2.8c-.9 0-1.7.8-1.9 1.6-.4 1.5-.9 3.1-1.2 4.2h1.4c.4-1.5 1-3.3 1-3.3h.4l-1 3.3h5.6l-1-3.3h.4s.2.7.6 1.8c.1.3.4.4.6.4.2 0 .4-.1.5-.3.7-.9 1.8-2.2 2-2.4.2-.2.2-.6.1-.8h1v-3.4h-1.9zm9.1 2.2h-4.1c-.6 0-1.2.2-1.6.7-.4.4-3 3.7-3.3 4-.3.3-.2.8.1 1 .3.3.8.2 1.1-.1.3-.4 3.4-4 3.4-4v4.6h-15.3v1.8h15.3v7.8c0 .6.4 1 .9 1 .6 0 .9-.4.9-1v-7.8h.7v7.8c0 .6.4 1 .9 1s.9-.4.9-1v-7.8h2.2v-1.8h-1.1v-4.7c.1-.8-.4-1.5-1-1.5m-2.3-.3c.9 0 1.7-.7 1.7-1.7s-.7-1.7-1.7-1.7c-.9 0-1.7.7-1.7 1.7 0 .9.8 1.7 1.7 1.7"/><g fill="#fff"><path d="M409 274.2h-4.9l-1.3 1.1h1.4v.1c0 1.5 1.1 2.7 2.6 2.7s2.6-1.2 2.6-2.7v-1.2h-.4zM409.4 273.1h-5.3l-1.2-1.8h6.5zM411.6 279.3h-.2l-6.7 8.4h5.6v1.5h-6.9v2.9h9.8v-11.6c-.1-.7-.8-1.2-1.6-1.2"/><path d="M393.3 272.4v5.300000000000001l.1.1c.9.7 2 1.5 2.9 2.3l.1.1h.1v-2.3h1.5v-5.5h-4.7zm4.4 5.1h-1.1v-2.7c-.9-.7-2-1.3-3-2h4.1v4.7zM409.3 279h-7.2v.1c-.4 0-.5.1-.7.4l-2.3 3-3.5-2.7c-.6-.4-1.4-.1-1.8.4-.4.7-.1 1.3.4 1.8l4.2 3.2c.1 0 .1.1.1.1l.1.1c.2.2.6.2.9.1.3 0 .5-.1.7-.4v-.1l.1-.1c.8-1.1 1.8-2.1 2.5-3.2v5.5l6.5-8.2z"/></g><g fill="#fff"><path d="M341.1 274.2h-4.9l-1.3 1.1h1.4v.1c0 1.5 1.1 2.7 2.6 2.7s2.6-1.2 2.6-2.7v-1.2h-.4zM341.5 273.1h-5.4l-1.1-1.8h6.5zM343.7 279.3h-.2l-6.7 8.4h5.6v1.5h-6.9v2.9h9.8v-11.6c-.2-.7-.8-1.2-1.6-1.2"/><path d="M341.3 279h-7.1v.1c-.4 0-.5.1-.7.4-.7.9-.8.9-4.4 5.7-.8 1.1-1.1 1.9-.3 2.6.7.6 1.3.1 2-.7 3.9-5 3.3-4.2 4.1-5.3v5.4l6.4-8.2zM334.2 290.7c0 .8-.7 1.5-1.5 1.5h-5.8c-.8 0-1.5-.7-1.5-1.5v-.7h8.8v.7zM324.7 289.9c-.8 0-1.5-.7-1.5-1.5v-5.9c0-.8.7-1.4 1.5-1.4h.7v8.8h-.7z"/></g><path fill="#fff" d="M253.1 285.9h18.3v3.3h-18.3v-3.3zm20.4 3.3h-1.1v-3.3h1.1v3.3zm1.5 0h-1.1v-3.3h1.1v3.3zm-7.4-7.5c-1.4 0-2.4-1.1-2.4-2.5 0-.3.1-.5.1-.7-1.8 0-3.1-1.5-3.1-3.2 0-1.8 1.5-3.3 3.3-3.3v1c-1.5 0-2.3 1-2.3 2.3 0 1.2.9 2.3 2.3 2.3.1 0 .3 0 .4-.1h.1c.3 0 .5.2.5.5l-.1.3c-.1.3-.3.5-.3.9 0 .9.7 1.6 1.6 1.6h3.4c1.2 0 2.5 1.2 2.5 2.4v2h-1v-1.9c0-.7-.6-1.5-1.3-1.5l-3.7-.1zm.9-3.5c.4-.4.5-1 .5-1.6 0-1.5-1.2-2.6-2.6-2.6h-.1v-.9h.1c2 0 3.6 1.6 3.6 3.6 0 .5-.1 1-.4 1.5h.6c2.7 0 4.7 2.2 4.7 4.8v2.2h-1.1v-2.2c0-2.2-1.6-3.9-3.8-3.9h-1.3c-.3 0-.5-.2-.5-.5.1-.1.2-.2.3-.4"/><g fill="#fff"><path d="M183.3 289.2h21.9v1.5h-21.9zM201.8 281.2l-1.8-.4-3.3-.8-2.7-8.6-1.7-.4-1.9 7.5-3.8-.9-.9-2.8-1.2-.3-.6 2.4 1.1 3.4 16.1 4c.7.2 3.2.7 3.6-.7.4-1.4-2-2.2-2.9-2.4M196.1 284.7c0-.4-.3-.7-.7-.7-.4 0-.7.3-.7.7s.3.7.7.7c.4.1.7-.2.7-.7M193.2 284c0-.4-.3-.7-.7-.7-.4 0-.7.3-.7.7s.3.7.7.7c.4 0 .7-.2.7-.7"/></g><g fill="#fff"><path d="M112.8 289.2h21.9v1.5h-21.9zM130.9 276.6l-1.2.4-3.8 1.5-7-5.8-1.6.6 2.6 7.3-3.7 1.3-2.3-1.8-1.1.4.8 2.3 2.8 2.3 15.7-5.6c.9-.3 3.1-1.4 2.6-2.8-.5-1.2-2.8-.4-3.8-.1"/></g><path fill="#fff" d="M64.6 276.4l-1.9 14.2h-6.1l-1.8-14.2h7.3l1.5-5.1h1.1l-1.5 5.1h1.4zm-10.9 8.4h-11s-.2-2.2 3-2.2h5.1c3.1 0 2.9 2.2 2.9 2.2m-11 3.7h11s.2 2.2-3 2.2h-5.1c-3.2 0-3-2.2-3-2.2m10.7-.8h-10.2c-.5 0-1.1-.6-1.1-1.1s.5-1.1 1.1-1.1h10.2c.5 0 1 .6 1 1.1s-.6 1.1-1 1.1"/></svg>