<svg version="1" xmlns="http://www.w3.org/2000/svg" width="40" height="40" viewBox="0 0 40 40"><path fill="#fff" d="M19.999 1.54c10.225 0 18.543 8.318 18.543 18.542 0 10.224-8.318 18.542-18.543 18.542-10.224 0-18.542-8.318-18.542-18.542 0-10.224 8.317-18.542 18.542-18.542m0-1.458c-11.045 0-20 8.954-20 20 0 11.045 8.955 20 20 20 11.046 0 20.001-8.955 20.001-20 0-11.046-8.955-20-20.001-20z"/><path fill-rule="evenodd" clip-rule="evenodd" fill="#fff" d="M21.542 31.237c-5.555 0-9.002-3.415-9.077-9.123v-11.932l3.977-1.91v14.379c-.007 1.449.505 2.62 1.349 3.508.849.891 1.915 1.342 3.2 1.342 1.246 0 2.295-.455 3.149-1.363.854-.909 1.276-2.063 1.276-3.47 0-1.392-.307-2.806-1.145-3.697-.834-.893-2.379-1.564-4.149-.801l-2.516-3.03c.126-.064 1.058-.485 1.189-.532.923-.329 1.89-.477 2.866-.477 2.121 0 3.927.807 5.413 2.408 1.484 1.606 2.223 3.665 2.223 6.176 0 2.424-.764 4.448-2.302 6.075-1.535 1.629-3.351 2.447-5.453 2.447z"/></svg>