<svg version="1" xmlns="http://www.w3.org/2000/svg" width="56" height="56" viewBox="0 0 56 56"><path fill="#fff" d="M28 1.833c14.429 0 26.167 11.739 26.167 26.167 0 14.429-11.738 26.167-26.167 26.167-14.429 0-26.167-11.738-26.167-26.167 0-14.428 11.738-26.167 26.167-26.167m0-1.833c-15.464 0-28 12.536-28 28s12.536 28 28 28c15.465 0 28-12.536 28-28s-12.535-28-28-28z"/><path stroke="#fff" stroke-width="2" stroke-linecap="round" stroke-linejoin="round" stroke-miterlimit="10" d="M40.959 26.473c-.214-1.795-.799-3.556-1.764-5.166l1.984-2.416-2.453-2.788-2.644 1.657c-1.478-1.166-3.147-1.974-4.899-2.412l-.306-3.109-3.704-.239-.702 3.046c-1.795.208-3.555.795-5.167 1.76l-2.413-1.984-2.791 2.449 1.66 2.651c-1.166 1.471-1.974 3.144-2.412 4.896l-3.11.306-.238 3.705 3.044.702c.209 1.791.795 3.559 1.758 5.164l-1.984 2.419 2.452 2.788 2.651-1.658c1.471 1.163 3.144 1.972 4.896 2.411l.305 3.105 3.705.24.701-3.04c1.792-.212 3.559-.8 5.165-1.767l2.42 1.988 2.787-2.454-1.657-2.644c1.163-1.479 1.972-3.148 2.41-4.9l3.105-.305.242-3.704-3.041-.701zm-8.872 6.178c-2.566 2.253-6.479 2.002-8.734-.564-2.258-2.566-2.006-6.479.563-8.732 2.566-2.258 6.479-2.005 8.734.563 2.254 2.566 2.003 6.478-.563 8.733z" fill="none"/></svg>