<svg version="1" xmlns="http://www.w3.org/2000/svg" width="15" height="36" viewBox="0 0 15 36"><path fill="#D4D4D4" d="M4.456 3.675c0-1.786 1.448-3.232 3.232-3.232s3.232 1.447 3.232 3.232-1.447 3.232-3.232 3.232-3.232-1.447-3.232-3.232zm9.975 14.85l-1.033-8.707c-.39-1.061-1.408-1.818-2.603-1.818h-6.339c-1.194 0-2.214.918-2.602 1.979 0 0-1.257 8.358-1.268 8.437-.088.632.353 1.215.985 1.304.63.087 1.214-.354 1.301-.986.012-.079 1.106-8.697 1.128-8.734v24.615c0 .765.733 1.385 1.5 1.385.765 0 1.5-.62 1.5-1.385v-13.391h1v13.392c0 .764.735 1.384 1.5 1.384.768 0 1.5-.62 1.5-1.385v-24.615s1.129 8.701 1.137 8.78c.07.634.642 1.091 1.275 1.021.633-.072 1.09-.642 1.019-1.276z"/></svg>