<svg version="1" xmlns="http://www.w3.org/2000/svg" width="308" height="308" viewBox="0 0 308 308"><path fill-rule="evenodd" clip-rule="evenodd" fill="#fff" d="M154 18.597c-74.56 0-135 60.445-135 135.005 0 74.557 60.44 135.002 135 135.002s135-60.445 135-135.002c0-74.56-60.44-135.005-135-135.005zm0 256.712c-67.225 0-121.724-54.49-121.724-121.717 0-67.225 54.499-121.724 121.724-121.724s121.724 54.499 121.724 121.724c0 67.226-54.499 121.717-121.724 121.717zm-45.586-47.207v-147.77l128.099 74.311-128.099 73.459z"/><path fill="#fff" d="M153.6 2c40.494 0 78.564 15.769 107.197 44.402 28.635 28.633 44.402 66.704 44.402 107.197 0 40.494-15.768 78.564-44.402 107.198-28.633 28.634-66.703 44.403-107.197 44.403s-78.563-15.77-107.197-44.402c-28.634-28.634-44.403-66.704-44.403-107.198s15.769-78.564 44.403-107.197c28.633-28.634 66.703-44.403 107.197-44.403m0-2c-84.831 0-153.6 68.769-153.6 153.6 0 84.832 68.769 153.6 153.6 153.6 84.832 0 153.6-68.769 153.6-153.601-.001-84.83-68.768-153.599-153.6-153.599z"/></svg>