<svg xmlns="http://www.w3.org/2000/svg" width="30" height="35" viewBox="0 0 30 35"><path fill="#fff" d="M21 14v2h7v17h-26v-17h7v-2h-9v21h30v-21zM7.5 9.375c-.256 0-.512-.098-.707-.293-.391-.391-.391-1.023 0-1.414l7.375-7.375c.391-.391 1.023-.391 1.414 0s.391 1.023 0 1.414l-7.375 7.375c-.195.195-.451.293-.707.293zM14 2h2v24h-2zM22.374 9.375c-.256 0-.512-.098-.707-.293l-7.374-7.375c-.391-.391-.391-1.023 0-1.414s1.023-.391 1.414 0l7.374 7.375c.391.391.391 1.023 0 1.414-.195.195-.451.293-.707.293z"/></svg>